#define glyph_cpu_width 12
#define glyph_cpu_height 13
static unsigned char glyph_cpu_bits[] = {
   0x00, 0x00, 0x68, 0x01, 0x00, 0x00, 0xfa, 0x05, 0xf8, 0x01, 0xfa, 0x05,
   0xf8, 0x01, 0xfa, 0x05, 0xf8, 0x01, 0xfa, 0x05, 0x00, 0x00, 0x68, 0x01,
   0x00, 0x00 };
