#define glyph_japanese_tsuki_width 12
#define glyph_japanese_tsuki_height 13
static unsigned char glyph_japanese_tsuki_bits[] = {
   0x00, 0x00, 0xf8, 0x03, 0x08, 0x02, 0x08, 0x02, 0xf8, 0x03, 0x08, 0x02,
   0x08, 0x02, 0xf8, 0x03, 0x08, 0x02, 0x08, 0x02, 0x04, 0x02, 0x02, 0x03,
   0x00, 0x00 };
