#define glyph_volume_mute_width 12
#define glyph_volume_mute_height 13
static unsigned char glyph_volume_mute_bits[] = {
   0x00, 0x00, 0x00, 0x00, 0x00, 0x00, 0x10, 0x00, 0x18, 0x00, 0x1e, 0x00,
   0x1e, 0x00, 0x1e, 0x00, 0x18, 0x00, 0x10, 0x00, 0x00, 0x00, 0x00, 0x00,
   0x00, 0x00 };
