#define glyph_2B80_width 12
#define glyph_2B80_height 13
static unsigned char glyph_2B80_bits[] = {
   0x01, 0x00, 0x03, 0x00, 0x07, 0x00, 0x0f, 0x00, 0x1f, 0x00, 0x3f, 0x00,
   0x7f, 0x00, 0x3f, 0x00, 0x1f, 0x00, 0x0f, 0x00, 0x07, 0x00, 0x03, 0x00,
   0x01, 0x00 };
