#define glyph_cpu_width 12
#define glyph_cpu_height 13
static unsigned char glyph_cpu_bits[] = {
   0x00, 0x00,
   0xA8, 0x02,
   0x00, 0x00,
   0xfa, 0x0B,
   0xf8, 0x03,
   0xfa, 0x0B,
   0xf8, 0x03,
   0xfa, 0x0B,
   0xf8, 0x03,
   0xfa, 0x0B,
   0x00, 0x00,
   0xA8, 0x02,
   0x00, 0x00 };
