#define glyph_japanese_3_width 11
#define glyph_japanese_3_height 12
static unsigned char glyph_japanese_3_bits[] = {
   0x20, 0x00, 0x20, 0x00, 0x20, 0x02, 0x3f, 0x02, 0x68, 0x01, 0xa8, 0x00,
   0xa4, 0x00, 0x24, 0x01, 0x22, 0x02, 0x21, 0x04, 0x20, 0x00, 0x30, 0x00 };
