#define glyph_wifi_2_width 12
#define glyph_wifi_2_height 13
static unsigned char glyph_wifi_2_bits[] = {
   0x00, 0x00, 0x00, 0x00, 0x00, 0x00, 0x00, 0x00, 0x00, 0x00, 0x00, 0x00,
   0x18, 0x00, 0x18, 0x00, 0x1b, 0x00, 0x1b, 0x00, 0x1b, 0x00, 0xdb, 0x06,
   0x00, 0x00 };
