#define glyph_note_width 12
#define glyph_note_height 13
static unsigned char glyph_note_bits[] = {
   0x00, 0x00, 0x40, 0x00, 0xc0, 0x00, 0xc0, 0x01, 0x40, 0x03, 0x40, 0x02,
   0x40, 0x03, 0x40, 0x01, 0x40, 0x00, 0x78, 0x00, 0x7c, 0x00, 0x38, 0x00,
   0x00, 0x00 };
