#define glyph_eth_width 12
#define glyph_eth_height 13
static unsigned char glyph_eth_bits[] = {
   0x00, 0x00, 0x00, 0x00, 0xfc, 0x01, 0x04, 0x01, 0x07, 0x07, 0x01, 0x04,
   0x01, 0x04, 0x01, 0x04, 0x55, 0x05, 0x55, 0x05, 0xff, 0x07, 0x00, 0x00,
   0x00, 0x00 };
