#define glyph_volume_high_width 12
#define glyph_volume_high_height 13
static unsigned char glyph_volume_high_bits[] = {
   0x00, 0x00, 0x00, 0x01, 0x00, 0x02, 0x90, 0x04, 0x18, 0x05, 0x5e, 0x05,
   0x5e, 0x05, 0x5e, 0x05, 0x18, 0x05, 0x90, 0x04, 0x00, 0x02, 0x00, 0x01,
   0x00, 0x00 };
