#define glyph_battery_full_width 12
#define glyph_battery_full_height 13
static unsigned char glyph_battery_full_bits[] = {
   0xf0, 0x00, 0xfc, 0x03, 0xfc, 0x03, 0xfc, 0x03, 0xfc, 0x03, 0xfc, 0x03,
   0xfc, 0x03, 0xfc, 0x03, 0xfc, 0x03, 0xfc, 0x03, 0xfc, 0x03, 0xfc, 0x03,
   0xfc, 0x03 };
