#define glyph_wifi_0_width 12
#define glyph_wifi_0_height 13
static unsigned char glyph_wifi_0_bits[] = {
   0x00, 0x00, 0x00, 0x00, 0x00, 0x00, 0x00, 0x00, 0x00, 0x00, 0x00, 0x00,
   0x00, 0x00, 0x00, 0x00, 0x00, 0x00, 0x00, 0x00, 0x00, 0x00, 0xdb, 0x06,
   0x00, 0x00 };
