#define glyph_japanese_4_width 11
#define glyph_japanese_4_height 12
static unsigned char glyph_japanese_4_bits[] = {
   0x20, 0x00, 0x20, 0x00, 0x20, 0x00, 0xff, 0x07, 0x70, 0x00, 0x70, 0x00,
   0xa8, 0x00, 0x24, 0x01, 0x22, 0x02, 0x21, 0x04, 0x20, 0x00, 0x20, 0x00 };
