#define glyph_japanese_6_width 11
#define glyph_japanese_6_height 12
static unsigned char glyph_japanese_6_bits[] = {
   0x20, 0x00, 0x20, 0x00, 0x20, 0x00, 0x20, 0x00, 0xfe, 0x03, 0x20, 0x00,
   0x20, 0x00, 0x20, 0x00, 0x20, 0x00, 0x20, 0x00, 0xff, 0x07, 0x00, 0x00 };
