#define glyph_wifi_3_width 12
#define glyph_wifi_3_height 13
static unsigned char glyph_wifi_3_bits[] = {
   0x00, 0x00, 0x00, 0x00, 0x00, 0x00, 0x00, 0x00, 0xc0, 0x00, 0xc0, 0x00,
   0xd8, 0x00, 0xd8, 0x00, 0xdb, 0x00, 0xdb, 0x00, 0xdb, 0x00, 0xdb, 0x06,
   0x00, 0x00 };
