#define glyph_wifi_1_width 12
#define glyph_wifi_1_height 13
static unsigned char glyph_wifi_1_bits[] = {
   0x00, 0x00, 0x00, 0x00, 0x00, 0x00, 0x00, 0x00, 0x00, 0x00, 0x00, 0x00,
   0x00, 0x00, 0x00, 0x00, 0x03, 0x00, 0x03, 0x00, 0x03, 0x00, 0xdb, 0x06,
   0x00, 0x00 };
