#define glyph_volume_medium_width 12
#define glyph_volume_medium_height 13
static unsigned char glyph_volume_medium_bits[] = {
   0x00, 0x00, 0x00, 0x00, 0x00, 0x00, 0x90, 0x00, 0x18, 0x01, 0x5e, 0x01,
   0x5e, 0x01, 0x5e, 0x01, 0x18, 0x01, 0x90, 0x00, 0x00, 0x00, 0x00, 0x00,
   0x00, 0x00 };
