#define glyph_wifi_4_width 12
#define glyph_wifi_4_height 13
static unsigned char glyph_wifi_4_bits[] = {
   0x00, 0x00, 0x00, 0x00, 0x00, 0x06, 0x00, 0x06, 0xc0, 0x06, 0xc0, 0x06,
   0xd8, 0x06, 0xd8, 0x06, 0xdb, 0x06, 0xdb, 0x06, 0xdb, 0x06, 0xdb, 0x06,
   0x00, 0x00 };
