#define glyph_japanese_ka_width 11
#define glyph_japanese_ka_height 12
static unsigned char glyph_japanese_ka_bits[] = {
   0x20, 0x00, 0x20, 0x00, 0x20, 0x02, 0x24, 0x02, 0x24, 0x01, 0x62, 0x00,
   0x52, 0x00, 0x90, 0x00, 0x88, 0x00, 0x08, 0x01, 0x04, 0x02, 0x03, 0x04 };
