#define glyph_2B82_width 12
#define glyph_2B82_height 13
static unsigned char glyph_2B82_bits[] = {
   0x00, 0x08, 0x00, 0x0c, 0x00, 0x0e, 0x00, 0x0f, 0x80, 0x0f, 0xc0, 0x0f,
   0xe0, 0x0f, 0xc0, 0x0f, 0x80, 0x0f, 0x00, 0x0f, 0x00, 0x0e, 0x00, 0x0c,
   0x00, 0x08 };
