#define glyph_japanese_hi_width 12
#define glyph_japanese_hi_height 13
static unsigned char glyph_japanese_hi_bits[] = {
   0x00, 0x00, 0xfc, 0x03, 0x04, 0x02, 0x04, 0x02, 0x04, 0x02, 0xfc, 0x03,
   0x04, 0x02, 0x04, 0x02, 0x04, 0x02, 0x04, 0x02, 0xfc, 0x03, 0x04, 0x02,
   0x00, 0x00 };
