#define glyph_2B83_width 12
#define glyph_2B83_height 13
static unsigned char glyph_2B83_bits[] = {
   0x00, 0x0c, 0x00, 0x06, 0x00, 0x03, 0x80, 0x01, 0xc0, 0x00, 0x60, 0x00,
   0x30, 0x00, 0x60, 0x00, 0xc0, 0x00, 0x80, 0x01, 0x00, 0x03, 0x00, 0x06,
   0x00, 0x0c };
