#define glyph_battery_40_width 12
#define glyph_battery_40_height 13
static unsigned char glyph_battery_40_bits[] = {
   0xf0, 0x00, 0x9c, 0x03, 0x04, 0x02, 0x04, 0x02, 0x04, 0x02, 0x04, 0x02,
   0x04, 0x02, 0x04, 0x02, 0xfc, 0x03, 0xfc, 0x03, 0xfc, 0x03, 0xfc, 0x03,
   0xfc, 0x03 };
