#define glyph_japanese_5_width 11
#define glyph_japanese_5_height 12
static unsigned char glyph_japanese_5_bits[] = {
   0x20, 0x00, 0x20, 0x00, 0x50, 0x00, 0x8c, 0x01, 0xfb, 0x06, 0x20, 0x00,
   0xfe, 0x03, 0x20, 0x00, 0x24, 0x01, 0xa8, 0x00, 0xfe, 0x03, 0x00, 0x00 };
