#define glyph_volume_low_width 12
#define glyph_volume_low_height 13
static unsigned char glyph_volume_low_bits[] = {
   0x00, 0x00, 0x00, 0x00, 0x00, 0x00, 0x10, 0x00, 0x18, 0x00, 0x5e, 0x00,
   0x5e, 0x00, 0x5e, 0x00, 0x18, 0x00, 0x10, 0x00, 0x00, 0x00, 0x00, 0x00,
   0x00, 0x00 };
