#define icon_arch_width 15
#define icon_arch_height 15
static unsigned char icon_arch_bits[] = {
   0x80, 0x00,
   0x80, 0x00,
   0xc0, 0x01,
   0xc0, 0x01,
   0xa0, 0x03,
   0xe0, 0x03,
   0xf0, 0x07,
   0xf0, 0x07,
   0xf8, 0x0f,
   0x78, 0x0f,
   0x3c, 0x16,
   0x3c, 0x0e,
   0x0e, 0x38,
   0x01, 0x40,
   0x00, 0x00 };
