#define icon_up_width 5
#define icon_up_height 10

static unsigned char icon_up_bits[] = {
	0x04,
	0x0E,
	0x15,
	0x04,
	0x04,
	0x04,
	0x04,
	0x04,
	0x04,
	0x04
};
