<?xml version="1.0" encoding="UTF-8" standalone="no"?>
<!-- Created with Inkscape (http://www.inkscape.org/) -->

<svg
   xmlns:dc="http://purl.org/dc/elements/1.1/"
   xmlns:cc="http://creativecommons.org/ns#"
   xmlns:rdf="http://www.w3.org/1999/02/22-rdf-syntax-ns#"
   xmlns:svg="http://www.w3.org/2000/svg"
   xmlns="http://www.w3.org/2000/svg"
   xmlns:xlink="http://www.w3.org/1999/xlink"
   xmlns:sodipodi="http://sodipodi.sourceforge.net/DTD/sodipodi-0.dtd"
   xmlns:inkscape="http://www.inkscape.org/namespaces/inkscape"
   width="48px"
   height="48px"
   id="svg4289"
   sodipodi:version="0.32"
   inkscape:version="0.47 r22583"
   sodipodi:docname="folder_open.svg"
   inkscape:output_extension="org.inkscape.output.svg.inkscape"
   version="1.1">
  <defs
     id="defs4291">
    <linearGradient
       y2="8.1000004"
       x2="19.387241"
       y1="6.1438289"
       x1="19.489662"
       gradientTransform="matrix(1.4698029,0,-1.2464929e-3,1.4936099,-20.492661,115.83633)"
       gradientUnits="userSpaceOnUse"
       id="linearGradient2586"
       xlink:href="#linearGradient10997"
       inkscape:collect="always" />
    <linearGradient
       y2="8.1000004"
       x2="19.387241"
       y1="6.1438289"
       x1="19.489662"
       gradientTransform="matrix(1.4698029,0,-1.2464929e-3,1.4936099,-19.47072,96.318081)"
       gradientUnits="userSpaceOnUse"
       id="linearGradient2584"
       xlink:href="#linearGradient10997"
       inkscape:collect="always" />
    <linearGradient
       id="linearGradient10997">
      <stop
         style="stop-color:#000000;stop-opacity:1;"
         offset="0"
         id="stop10999" />
      <stop
         style="stop-color:#000000;stop-opacity:0;"
         offset="1"
         id="stop11001" />
    </linearGradient>
    <linearGradient
       gradientUnits="userSpaceOnUse"
       y2="21.132059"
       x2="22.892584"
       y1="0.90414524"
       x1="22.892584"
       id="linearGradient3178-4"
       xlink:href="#linearGradient3172-5"
       inkscape:collect="always" />
    <linearGradient
       id="linearGradient3172-5">
      <stop
         id="stop3174-1"
         offset="0"
         style="stop-color:#4d4d4d;stop-opacity:1;" />
      <stop
         id="stop3176-7"
         offset="1"
         style="stop-color:#4d4d4d;stop-opacity:0;" />
    </linearGradient>
    <linearGradient
       inkscape:collect="always"
       xlink:href="#linearGradient3172-5"
       id="linearGradient3167"
       gradientUnits="userSpaceOnUse"
       x1="22.892584"
       y1="0.90414524"
       x2="22.892584"
       y2="21.132059" />
    <linearGradient
       inkscape:collect="always"
       xlink:href="#linearGradient3172-5"
       id="linearGradient3173"
       gradientUnits="userSpaceOnUse"
       x1="22.892584"
       y1="0.90414524"
       x2="22.892584"
       y2="21.132059"
       gradientTransform="matrix(0.644962,0,0,-1.1832362,59.235153,43.983663)" />
    <linearGradient
       inkscape:collect="always"
       xlink:href="#linearGradient3172-5"
       id="linearGradient3176"
       gradientUnits="userSpaceOnUse"
       gradientTransform="matrix(0.644962,0,0,1.1832362,9.234653,4.016337)"
       x1="22.892584"
       y1="0.90414524"
       x2="22.892584"
       y2="21.132059" />
  </defs>
  <sodipodi:namedview
     id="base"
     pagecolor="#ffffff"
     bordercolor="#666"
     borderopacity="0.31372549"
     inkscape:pageopacity="0.0"
     inkscape:pageshadow="2"
     inkscape:zoom="7.9999996"
     inkscape:cx="22.993659"
     inkscape:cy="23.602899"
     inkscape:current-layer="layer1"
     showgrid="true"
     inkscape:grid-bbox="true"
     inkscape:document-units="px"
     inkscape:window-width="1019"
     inkscape:window-height="721"
     inkscape:window-x="259"
     inkscape:window-y="23"
     inkscape:showpageshadow="false"
     inkscape:window-maximized="0" />
  <metadata
     id="metadata4294">
    <rdf:RDF>
      <cc:Work
         rdf:about="">
        <dc:format>image/svg+xml</dc:format>
        <dc:type
           rdf:resource="http://purl.org/dc/dcmitype/StillImage" />
        <dc:title>System Preferences</dc:title>
        <dc:creator>
          <cc:Agent>
            <dc:title>Andreas Nilsson</dc:title>
          </cc:Agent>
        </dc:creator>
        <dc:subject>
          <rdf:Bag>
            <rdf:li>category</rdf:li>
            <rdf:li>system</rdf:li>
            <rdf:li>preferences</rdf:li>
            <rdf:li>settings</rdf:li>
            <rdf:li>control center</rdf:li>
          </rdf:Bag>
        </dc:subject>
        <dc:contributor>
          <cc:Agent>
            <dc:title>Jakub Steiner</dc:title>
          </cc:Agent>
        </dc:contributor>
        <cc:license
           rdf:resource="http://creativecommons.org/licenses/GPL/2.0/" />
      </cc:Work>
      <cc:License
         rdf:about="http://creativecommons.org/licenses/GPL/2.0/">
        <cc:permits
           rdf:resource="http://web.resource.org/cc/Reproduction" />
        <cc:permits
           rdf:resource="http://web.resource.org/cc/Distribution" />
        <cc:requires
           rdf:resource="http://web.resource.org/cc/Notice" />
        <cc:permits
           rdf:resource="http://web.resource.org/cc/DerivativeWorks" />
        <cc:requires
           rdf:resource="http://web.resource.org/cc/ShareAlike" />
        <cc:requires
           rdf:resource="http://web.resource.org/cc/SourceCode" />
      </cc:License>
    </rdf:RDF>
  </metadata>
  <g
     id="layer1"
     inkscape:label="Layer 1"
     inkscape:groupmode="layer">
    <g
       id="g2453"
       inkscape:label="Calque 1"
       transform="matrix(0.1337942,0,0,0.1337942,-18.472238,-41.04701)" />
    <g
       id="g2615"
       inkscape:label="Calque 1"
       transform="matrix(0.1672428,0,0,0.1672428,-11.557084,-56.623232)" />
    <g
       id="g3424"
       inkscape:label="Calque 1"
       transform="matrix(0.1337942,0,0,0.1337942,-16.773379,-39.059232)" />
    <g
       id="g2545"
       inkscape:label="pixmap"
       style="display:inline"
       transform="matrix(0.6803633,0,0,0.6695188,9.6641609,9.8263476)" />
    <path
       style="fill:#000000;fill-opacity:1;fill-rule:evenodd;stroke:none"
       d="m 8.5,8.25 c -0.395898,0 -0.6875,0.179128 -0.6875,0.59375 l 0,21.46875 -2.5625,0 C 3.8259248,30.3125 3.88621,31.311588 4.15625,32 L 6.9375,39.09375 C 7.0698008,39.43103 7.475373,39.75 8.15625,39.75 l 32.1875,0 c 0.680876,0 1.133157,-0.103028 1.28125,-0.65625 l 2.34375,-8.78125 c 0.178953,-0.668497 -0.27117,-1.562499 -1.125,-1.5625 l -1.125,0 0,-16.3125 c 0,-0.45804 -0.325329,-0.71875 -0.75,-0.71875 l -16.28125,0 c -0.286942,0 -0.581586,-0.144818 -0.75,-0.375 L 21.71875,8.625 C 21.53325,8.371468 21.191054,8.25 20.875,8.25 L 8.5,8.25 z m 13.71875,9.125 c 3.604516,0.04111 7.00809,2.823588 7.125,6.9375 L 34,24.3125 26.75,32 l -7.625,-7.6875 4.71875,0 c -0.04107,-2.641637 -2.16484,-4.291854 -4.40625,-3.875 -1.16234,0.21617 -2.361228,0.96563 -3.28125,2.5 C 15.238069,24.4688 14.59461,26.765547 14.5625,30 l -0.53125,0.03125 c -0.148766,-4.257769 0.685529,-7.32723 2.09375,-9.375 1.410224,-2.050682 3.372693,-3.070087 5.34375,-3.25 0.240977,-0.02199 0.509698,-0.03405 0.75,-0.03125 z"
       id="path895" />
    <g
       transform="matrix(0.1270259,0,0,0.1250012,-4.6964714,48.406023)"
       id="g891" />
    <g
       transform="matrix(0.1270259,0,0,0.1250012,21.299206,59.091428)"
       id="g2659" />
    <g
       transform="matrix(0.6803633,0,0,0.6695188,9.7179259,98.447224)"
       inkscape:label="pattern"
       id="g4038"
       inkscape:r_cx="true"
       inkscape:r_cy="true" />
    <g
       transform="matrix(0.6803633,0,0,0.6695188,9.7179259,134.60124)"
       inkscape:label="pattern"
       id="g4912"
       inkscape:r_cx="true"
       inkscape:r_cy="true" />
    <g
       transform="matrix(0.6803633,0,0,0.6695188,9.7179259,170.75526)"
       inkscape:label="pattern"
       id="g10822"
       inkscape:r_cx="true"
       inkscape:r_cy="true" />
    <g
       inkscape:r_cy="true"
       inkscape:r_cx="true"
       id="g30615"
       transform="matrix(0.6803633,0,0,0.6695188,10.559828,203.50109)">
      <g
         inkscape:r_cy="true"
         inkscape:r_cx="true"
         inkscape:export-ydpi="74.800003"
         inkscape:export-xdpi="74.800003"
         inkscape:export-filename="/home/jimmac/ximian_art/icons/nautilus/suse93/gnome-fs-directory.png"
         transform="matrix(1.040764,0,5.449252e-2,1.040764,-8.670199,2.670594)"
         id="g30617"
         style="fill:#ffffff;fill-opacity:0.75706213;fill-rule:nonzero;stroke:none;stroke-width:0.99946535;stroke-miterlimit:4" />
      <g
         inkscape:r_cy="true"
         inkscape:r_cx="true"
         id="g30619"
         transform="matrix(1.040764,0,5.449252e-2,1.365642,-8.358528,0.921788)"
         style="opacity:0.41477272;fill:url(#linearGradient2584);fill-opacity:1;fill-rule:nonzero;stroke:#000000;stroke-width:1.48165858;stroke-miterlimit:4"
         inkscape:export-filename="/home/jimmac/ximian_art/icons/nautilus/suse93/gnome-fs-directory.png"
         inkscape:export-xdpi="74.800003"
         inkscape:export-ydpi="74.800003" />
    </g>
    <g
       inkscape:r_cy="true"
       inkscape:r_cx="true"
       id="g35216"
       transform="matrix(0.6803633,0,0,0.6695188,10.559828,239.6551)">
      <g
         inkscape:r_cy="true"
         inkscape:r_cx="true"
         inkscape:export-ydpi="74.800003"
         inkscape:export-xdpi="74.800003"
         inkscape:export-filename="/home/jimmac/ximian_art/icons/nautilus/suse93/gnome-fs-directory.png"
         transform="matrix(1.040764,0,5.449252e-2,1.040764,-8.670199,2.670594)"
         id="g35218"
         style="fill:#ffffff;fill-opacity:0.75706213;fill-rule:nonzero;stroke:none;stroke-width:0.99946535;stroke-miterlimit:4" />
      <g
         inkscape:r_cy="true"
         inkscape:r_cx="true"
         id="g35220"
         transform="matrix(1.040764,0,5.449252e-2,1.365642,-8.358528,0.921788)"
         style="opacity:0.41477272;fill:url(#linearGradient2586);fill-opacity:1;fill-rule:nonzero;stroke:#000000;stroke-width:1.48165858;stroke-miterlimit:4"
         inkscape:export-filename="/home/jimmac/ximian_art/icons/nautilus/suse93/gnome-fs-directory.png"
         inkscape:export-xdpi="74.800003"
         inkscape:export-ydpi="74.800003" />
    </g>
    <g
       id="g7987"
       inkscape:label="Calque 1"
       transform="matrix(0.1337942,0,0,0.1337942,-57.398299,-39.309187)" />
    <path
       style="fill:url(#linearGradient3176);fill-opacity:1;stroke:none"
       d="m 23.9995,29.65625 c -3.323611,0 -6.495942,-0.355096 -9.375,-1 0.17418,-2.528919 0.747652,-4.411902 1.53125,-5.71875 0.920022,-1.53437 2.11891,-2.28383 3.28125,-2.5 2.24141,-0.416854 4.36518,1.233363 4.40625,3.875 l -4.71875,0 5.28125,5.34375 c -0.137359,0.0012 -0.268341,0 -0.40625,0 z m 5.28125,-0.34375 4.71875,-5 -4.65625,0 c -0.11691,-4.113912 -3.520484,-6.89639 -7.125,-6.9375 -0.240302,-0.0028 -0.509023,0.0093 -0.75,0.03125 -1.971057,0.179913 -3.933526,1.199318 -5.34375,3.25 C 14.892307,22.448049 14.110031,25.032117 14.03075,28.5 11.73605,27.945788 9.649751,27.200763 7.812,26.3125 l 0,-17.46875 C 7.812,8.429128 8.103602,8.25 8.4995,8.25 l 12.375,0 c 0.316054,0 0.65825,0.121468 0.84375,0.375 l 2.21875,2.71875 c 0.168414,0.230182 0.463058,0.375 0.75,0.375 l 16.28125,0 c 0.424671,0 0.75,0.26071 0.75,0.71875 l 0,13.0625 c -3.25543,1.881494 -7.560105,3.234075 -12.4375,3.8125 z"
       id="path3161" />
    <g
       transform="matrix(0.1337942,0,0,-0.1337942,31.527762,89.04701)"
       inkscape:label="Calque 1"
       id="g3163" />
    <g
       transform="matrix(0.1672428,0,0,-0.1672428,38.442916,104.62323)"
       inkscape:label="Calque 1"
       id="g3165" />
  </g>
</svg>
