<?xml version="1.0" encoding="UTF-8" standalone="no"?>
<!-- Created with Inkscape (http://www.inkscape.org/) -->

<svg
   xmlns:dc="http://purl.org/dc/elements/1.1/"
   xmlns:cc="http://creativecommons.org/ns#"
   xmlns:rdf="http://www.w3.org/1999/02/22-rdf-syntax-ns#"
   xmlns:svg="http://www.w3.org/2000/svg"
   xmlns="http://www.w3.org/2000/svg"
   xmlns:xlink="http://www.w3.org/1999/xlink"
   xmlns:sodipodi="http://sodipodi.sourceforge.net/DTD/sodipodi-0.dtd"
   xmlns:inkscape="http://www.inkscape.org/namespaces/inkscape"
   width="48px"
   height="48px"
   id="svg2832"
   version="1.1"
   inkscape:version="0.47 r22583"
   sodipodi:docname="Nouveau document 2">
  <defs
     id="defs2834">
    <linearGradient
       gradientUnits="userSpaceOnUse"
       y2="21.132059"
       x2="22.892584"
       y1="0.90414524"
       x1="22.892584"
       id="linearGradient3178"
       xlink:href="#linearGradient3172"
       inkscape:collect="always" />
    <linearGradient
       id="linearGradient3172">
      <stop
         id="stop3174"
         offset="0"
         style="stop-color:#4d4d4d;stop-opacity:1;" />
      <stop
         id="stop3176"
         offset="1"
         style="stop-color:#4d4d4d;stop-opacity:0;" />
    </linearGradient>
    <linearGradient
       inkscape:collect="always"
       xlink:href="#linearGradient3172"
       id="linearGradient2970"
       gradientUnits="userSpaceOnUse"
       x1="22.892584"
       y1="0.90414524"
       x2="22.892584"
       y2="21.132059" />
    <linearGradient
       inkscape:collect="always"
       xlink:href="#linearGradient3172"
       id="linearGradient2986"
       gradientUnits="userSpaceOnUse"
       x1="22.892584"
       y1="0.90414524"
       x2="22.892584"
       y2="21.132059" />
    <linearGradient
       inkscape:collect="always"
       xlink:href="#linearGradient3172"
       id="linearGradient2991"
       gradientUnits="userSpaceOnUse"
       x1="22.892584"
       y1="0.90414524"
       x2="22.892584"
       y2="21.132059"
       gradientTransform="matrix(0.644962,0,0,-1.1832362,59.235153,43.983663)" />
    <linearGradient
       inkscape:collect="always"
       xlink:href="#linearGradient3172"
       id="linearGradient2997"
       gradientUnits="userSpaceOnUse"
       x1="22.892584"
       y1="0.90414524"
       x2="22.892584"
       y2="21.132059"
       gradientTransform="matrix(0.644962,0,0,-1.1832362,109.23515,43.983663)" />
    <linearGradient
       inkscape:collect="always"
       xlink:href="#linearGradient3172"
       id="linearGradient3000"
       gradientUnits="userSpaceOnUse"
       gradientTransform="matrix(0.644962,0,0,1.1832362,9.23515,4.016337)"
       x1="22.892584"
       y1="0.90414524"
       x2="22.892584"
       y2="21.132059" />
    <linearGradient
       inkscape:collect="always"
       xlink:href="#linearGradient3172"
       id="linearGradient3002"
       gradientUnits="userSpaceOnUse"
       gradientTransform="matrix(0.644962,0,0,1.1832362,9.2347539,4.016337)"
       x1="22.892584"
       y1="0.90414524"
       x2="22.892584"
       y2="21.132059" />
  </defs>
  <sodipodi:namedview
     id="base"
     pagecolor="#ffffff"
     bordercolor="#666666"
     borderopacity="1.0"
     inkscape:pageopacity="0.0"
     inkscape:pageshadow="2"
     inkscape:zoom="7"
     inkscape:cx="65.642857"
     inkscape:cy="24"
     inkscape:current-layer="layer1"
     showgrid="true"
     inkscape:grid-bbox="true"
     inkscape:document-units="px"
     inkscape:window-width="1366"
     inkscape:window-height="744"
     inkscape:window-x="-1"
     inkscape:window-y="-2"
     inkscape:window-maximized="1" />
  <metadata
     id="metadata2837">
    <rdf:RDF>
      <cc:Work
         rdf:about="">
        <dc:format>image/svg+xml</dc:format>
        <dc:type
           rdf:resource="http://purl.org/dc/dcmitype/StillImage" />
        <dc:title></dc:title>
      </cc:Work>
    </rdf:RDF>
  </metadata>
  <g
     id="layer1"
     inkscape:label="Layer 1"
     inkscape:groupmode="layer">
    <g
       transform="matrix(2,0,0,2,1,15)"
       id="layer1-4"
       style="fill:#000000">
      <path
         d="M 13.81691,7.839897 C 12.248478,9.395634 9.7158392,9.385342 8.1601026,7.81691 6.6043661,6.248478 6.6146578,3.715839 8.1830898,2.160103 8.2425382,2.101135 8.3038234,2.04405 8.366855,1.9889292 L 11,5 13.81691,7.839897 z M 9,8 8,7 3,12 4,13 9,8 z"
         id="path3765"
         style="fill:#000000;fill-opacity:1;stroke:none" />
      <path
         d="m 9.18309,1.160103 c 1.568432,-1.555737 4.101071,-1.545445 5.656807,0.022987 1.555737,1.568432 1.545445,4.101071 -0.02299,5.656807 -0.05945,0.058968 -0.120733,0.116053 -0.183765,0.1711738 L 12,4 9.18309,1.160103 z M 20,-3 l -1,-1 -5,5 1,1 5,-5 z"
         id="path3767"
         style="fill:#000000;fill-opacity:1;stroke:none" />
    </g>
    <path
       style="fill:url(#linearGradient3002);fill-opacity:1;stroke:none"
       d="m 23.999601,29.65625 c -2.40454,0 -4.715526,-0.215001 -6.90625,-0.5625 L 16.999601,29 l -0.0625,0.0625 c -0.306385,-0.04981 -0.605224,-0.100212 -0.90625,-0.15625 -1.715118,-3.058135 -1.266796,-7.004331 1.34375,-9.59375 0.118896,-0.117936 0.217687,-0.233508 0.34375,-0.34375 L 22.999601,25 l 4.4375,4.5 c -1.127392,0.08575 -2.265308,0.15625 -3.4375,0.15625 z"
       id="path2964" />
    <g
       transform="matrix(0.1337942,0,0,-0.1337942,31.527762,89.04701)"
       inkscape:label="Calque 1"
       id="g2966" />
    <g
       transform="matrix(0.1672428,0,0,-0.1672428,38.442916,104.62323)"
       inkscape:label="Calque 1"
       id="g2968" />
    <path
       style="fill:url(#linearGradient3000);fill-opacity:1;stroke:none"
       d="M 30.28125,29.03125 25,23 19.375,17.3125 c 2.78396,-2.761433 7.07953,-3.036505 10.1875,-0.875 L 29,17 l 2,2 0.5625,-0.5625 c 2.17579,3.129612 1.86203,7.473151 -0.9375,10.25 -0.1189,0.117936 -0.21768,0.233508 -0.34375,0.34375 z M 31.5625,18.4375 c -0.26219,-0.377133 -0.54038,-0.725146 -0.875,-1.0625 -0.35004,-0.352897 -0.73103,-0.663506 -1.125,-0.9375 L 39,7 l 2,2 -9.4375,9.4375 z"
       id="path2976" />
    <g
       id="g2978"
       inkscape:label="Calque 1"
       transform="matrix(0.1337942,0,0,-0.1337942,81.527762,89.04701)" />
    <g
       id="g2980"
       inkscape:label="Calque 1"
       transform="matrix(0.1672428,0,0,-0.1672428,88.442916,104.62323)" />
  </g>
</svg>
