<?xml version="1.0" encoding="UTF-8" standalone="no"?>
<!-- Created with Inkscape (http://www.inkscape.org/) -->

<svg
   xmlns:dc="http://purl.org/dc/elements/1.1/"
   xmlns:cc="http://creativecommons.org/ns#"
   xmlns:rdf="http://www.w3.org/1999/02/22-rdf-syntax-ns#"
   xmlns:svg="http://www.w3.org/2000/svg"
   xmlns="http://www.w3.org/2000/svg"
   xmlns:xlink="http://www.w3.org/1999/xlink"
   xmlns:sodipodi="http://sodipodi.sourceforge.net/DTD/sodipodi-0.dtd"
   xmlns:inkscape="http://www.inkscape.org/namespaces/inkscape"
   width="48px"
   height="48px"
   id="svg2977"
   version="1.1"
   inkscape:version="0.47 r22583"
   sodipodi:docname="Nouveau document 3">
  <defs
     id="defs2979">
    <inkscape:perspective
       sodipodi:type="inkscape:persp3d"
       inkscape:vp_x="0 : 24 : 1"
       inkscape:vp_y="0 : 1000 : 0"
       inkscape:vp_z="48 : 24 : 1"
       inkscape:persp3d-origin="24 : 16 : 1"
       id="perspective2985" />
    <inkscape:perspective
       id="perspective2967"
       inkscape:persp3d-origin="0.5 : 0.33333333 : 1"
       inkscape:vp_z="1 : 0.5 : 1"
       inkscape:vp_y="0 : 1000 : 0"
       inkscape:vp_x="0 : 0.5 : 1"
       sodipodi:type="inkscape:persp3d" />
    <linearGradient
       inkscape:collect="always"
       xlink:href="#linearGradient3172-3"
       id="linearGradient2957"
       gradientUnits="userSpaceOnUse"
       gradientTransform="matrix(0.644962,0,0,1.1832362,9.235428,4.0167842)"
       x1="22.892584"
       y1="0.90414524"
       x2="22.892584"
       y2="21.132059" />
    <linearGradient
       id="linearGradient3172-3">
      <stop
         id="stop3174-5"
         offset="0"
         style="stop-color:#4d4d4d;stop-opacity:1;" />
      <stop
         id="stop3176-0"
         offset="1"
         style="stop-color:#4d4d4d;stop-opacity:0;" />
    </linearGradient>
  </defs>
  <sodipodi:namedview
     id="base"
     pagecolor="#ffffff"
     bordercolor="#666666"
     borderopacity="1.0"
     inkscape:pageopacity="0.0"
     inkscape:pageshadow="2"
     inkscape:zoom="7"
     inkscape:cx="24"
     inkscape:cy="24"
     inkscape:current-layer="layer1"
     showgrid="true"
     inkscape:grid-bbox="true"
     inkscape:document-units="px"
     inkscape:window-width="1366"
     inkscape:window-height="744"
     inkscape:window-x="0"
     inkscape:window-y="24"
     inkscape:window-maximized="1" />
  <metadata
     id="metadata2982">
    <rdf:RDF>
      <cc:Work
         rdf:about="">
        <dc:format>image/svg+xml</dc:format>
        <dc:type
           rdf:resource="http://purl.org/dc/dcmitype/StillImage" />
        <dc:title></dc:title>
      </cc:Work>
    </rdf:RDF>
  </metadata>
  <g
     id="layer1"
     inkscape:label="Layer 1"
     inkscape:groupmode="layer">
    <path
       style="fill:#000000;fill-opacity:1;stroke:none"
       d="M 24.9375,16.5625 C 24.400832,16.61177 24,17 24,17 l -4.28125,4.28125 -2,-2.3125 c -0.126063,0.110242 -0.224854,0.225814 -0.34375,0.34375 -2.799505,2.776849 -3.113288,7.120388 -0.9375,10.25 L 17,29 l 2,2 -0.5625,0.5625 c 3.107976,2.161505 7.403533,1.886433 10.1875,-0.875 L 26.46875,28.53125 31,24 c 0,0 0.971405,-1.028595 0,-2 C 30.635723,21.635723 30.260603,21.534041 29.9375,21.5625 29.398994,21.60993 29,22 29,22 L 24.5,26.5 23,25 21.59375,23.40625 26,19 c 0,0 0.972693,-1.027307 0,-2 -0.37839,-0.37839 -0.740499,-0.467062 -1.0625,-0.4375 z m -6.5,15 c -0.393969,-0.273994 -0.774959,-0.584603 -1.125,-0.9375 -0.334624,-0.337354 -0.612807,-0.685367 -0.875,-1.0625 L 7,39 l 2,2 9.4375,-9.4375 z"
       id="path3765" />
    <path
       style="fill:url(#linearGradient2957);fill-opacity:1;stroke:none"
       d="M 24.937776,16.5625 C 24.401108,16.61177 24.000276,17 24.000276,17 l -4.28125,4.28125 -2,-2.3125 c -0.126063,0.110242 -0.224854,0.225814 -0.34375,0.34375 -2.607039,2.585941 -3.051188,6.536098 -1.34375,9.59375 0.301026,0.05604 0.599865,0.10644 0.90625,0.15625 l 0.0625,-0.0625 0.09375,0.09375 c 2.190724,0.347499 4.50171,0.5625 6.90625,0.5625 1.172192,0 2.310108,-0.0705 3.4375,-0.15625 L 26.469026,28.53125 31.000276,24 c 0,0 0.971405,-1.028595 0,-2 -0.364277,-0.364277 -0.739397,-0.465959 -1.0625,-0.4375 C 29.39927,21.60993 29.000276,22 29.000276,22 l -4.5,4.5 -1.5,-1.5 -1.40625,-1.59375 L 26.000276,19 c 0,0 0.972693,-1.027307 0,-2 -0.37839,-0.37839 -0.740499,-0.467062 -1.0625,-0.4375 z"
       id="path2943" />
  </g>
</svg>
