<?xml version="1.0" encoding="UTF-8" standalone="no"?>
<!-- Created with Inkscape (http://www.inkscape.org/) -->
<svg
   xmlns:dc="http://purl.org/dc/elements/1.1/"
   xmlns:cc="http://creativecommons.org/ns#"
   xmlns:rdf="http://www.w3.org/1999/02/22-rdf-syntax-ns#"
   xmlns:svg="http://www.w3.org/2000/svg"
   xmlns="http://www.w3.org/2000/svg"
   xmlns:xlink="http://www.w3.org/1999/xlink"
   xmlns:sodipodi="http://sodipodi.sourceforge.net/DTD/sodipodi-0.dtd"
   xmlns:inkscape="http://www.inkscape.org/namespaces/inkscape"
   width="48px"
   height="48px"
   id="svg4289"
   sodipodi:version="0.32"
   inkscape:version="0.46"
   sodipodi:docbase="/home/lapo/Icone/cvs/gnome-icon-theme/scalable/categories"
   sodipodi:docname="rhythmbox.svg"
   inkscape:output_extension="org.inkscape.output.svg.inkscape">
  <defs
     id="defs4291">
    <linearGradient
       id="linearGradient3155"
       inkscape:collect="always">
      <stop
         id="stop3157"
         offset="0"
         style="stop-color:#4d4d4d;stop-opacity:1;" />
      <stop
         id="stop3159"
         offset="1"
         style="stop-color:#4d4d4d;stop-opacity:0;" />
    </linearGradient>
    <linearGradient
       inkscape:collect="always"
       xlink:href="#linearGradient3155"
       id="linearGradient2559"
       gradientUnits="userSpaceOnUse"
       gradientTransform="matrix(0.1721311,0,0,0.1721311,-32.065571,-63.312822)"
       x1="325.71429"
       y1="369.50507"
       x2="325.71429"
       y2="546.64789" />
  </defs>
  <sodipodi:namedview
     id="base"
     pagecolor="#ffffff"
     bordercolor="#666"
     borderopacity="0.31372549"
     inkscape:pageopacity="0.0"
     inkscape:pageshadow="2"
     inkscape:zoom="5.656854"
     inkscape:cx="37.533214"
     inkscape:cy="19.31447"
     inkscape:current-layer="layer1"
     showgrid="true"
     inkscape:grid-bbox="true"
     inkscape:document-units="px"
     inkscape:window-width="1019"
     inkscape:window-height="732"
     inkscape:window-x="259"
     inkscape:window-y="24"
     inkscape:showpageshadow="false" />
  <metadata
     id="metadata4294">
    <rdf:RDF>
      <cc:Work
         rdf:about="">
        <dc:format>image/svg+xml</dc:format>
        <dc:type
           rdf:resource="http://purl.org/dc/dcmitype/StillImage" />
        <dc:title>System Preferences</dc:title>
        <dc:creator>
          <cc:Agent>
            <dc:title>Andreas Nilsson</dc:title>
          </cc:Agent>
        </dc:creator>
        <dc:subject>
          <rdf:Bag>
            <rdf:li>category</rdf:li>
            <rdf:li>system</rdf:li>
            <rdf:li>preferences</rdf:li>
            <rdf:li>settings</rdf:li>
            <rdf:li>control center</rdf:li>
          </rdf:Bag>
        </dc:subject>
        <dc:contributor>
          <cc:Agent>
            <dc:title>Jakub Steiner</dc:title>
          </cc:Agent>
        </dc:contributor>
        <cc:license
           rdf:resource="http://creativecommons.org/licenses/GPL/2.0/" />
      </cc:Work>
      <cc:License
         rdf:about="http://creativecommons.org/licenses/GPL/2.0/">
        <cc:permits
           rdf:resource="http://web.resource.org/cc/Reproduction" />
        <cc:permits
           rdf:resource="http://web.resource.org/cc/Distribution" />
        <cc:requires
           rdf:resource="http://web.resource.org/cc/Notice" />
        <cc:permits
           rdf:resource="http://web.resource.org/cc/DerivativeWorks" />
        <cc:requires
           rdf:resource="http://web.resource.org/cc/ShareAlike" />
        <cc:requires
           rdf:resource="http://web.resource.org/cc/SourceCode" />
      </cc:License>
    </rdf:RDF>
  </metadata>
  <g
     id="layer1"
     inkscape:label="Layer 1"
     inkscape:groupmode="layer">
    <g
       id="g2453"
       inkscape:label="Calque 1"
       transform="matrix(0.1337942,0,0,0.1337942,-18.472238,-41.04701)" />
    <path
       style="fill:#000000;fill-opacity:1;fill-rule:evenodd;stroke:none;stroke-width:4.34218454;stroke-miterlimit:4;stroke-opacity:1"
       d="M 13.15768,4 C 11.204264,4 9.625,5.5534988 9.625,7.4750463 L 9.625,40.524952 C 9.625,42.4465 11.204267,44.000002 13.15768,44 L 34.84232,44 C 36.795734,44.000001 38.375,42.446507 38.375,40.524952 L 38.375,7.4750463 C 38.375,5.5534988 36.795736,4 34.84232,4 L 13.15768,4 z M 23.943627,7.5120138 C 24.686902,7.5120138 25.422491,7.59274 26.123366,7.7338263 C 26.82424,7.8749113 27.508735,8.094315 28.152779,8.3622913 C 28.796822,8.6302675 29.383919,8.942805 29.956699,9.323475 C 30.529479,9.704145 31.085622,10.138206 31.572712,10.617375 C 32.059801,11.096541 32.501107,11.643556 32.888071,12.207024 C 33.275037,12.770489 33.59279,13.347946 33.865196,13.981515 C 34.137602,14.615083 34.360665,15.288343 34.504085,15.977819 C 34.647509,16.667295 34.691994,17.390811 34.691994,18.121995 C 34.691992,18.853178 34.647507,19.576698 34.504085,20.266174 C 34.360666,20.955649 34.137604,21.591939 33.865196,22.225508 C 33.592789,22.859076 33.275036,23.473501 32.888071,24.036968 C 32.501109,24.600436 32.059801,25.14745 31.572712,25.626618 C 31.085622,26.105784 30.52948,26.539848 29.956699,26.920518 C 29.383917,27.301188 28.796822,27.613723 28.152779,27.8817 C 27.508735,28.149675 26.824241,28.369079 26.123366,28.510166 C 25.42249,28.651253 24.686901,28.695009 23.943627,28.695009 C 23.200354,28.69501 22.464764,28.651253 21.76389,28.510166 C 21.063012,28.369079 20.378521,28.149675 19.734477,27.8817 C 19.090432,27.613723 18.503337,27.301188 17.930556,26.920518 C 17.357772,26.539848 16.801632,26.105785 16.314542,25.626618 C 15.827451,25.147449 15.386147,24.600436 14.999182,24.036968 C 14.612217,23.473501 14.294467,22.859078 14.022059,22.225508 C 13.74965,21.591938 13.526591,20.955649 13.38317,20.266174 C 13.23975,19.576698 13.15768,18.853178 13.15768,18.121995 C 13.15768,17.390811 13.23975,16.667295 13.38317,15.977819 C 13.526591,15.288343 13.749652,14.615084 14.022059,13.981515 C 14.294466,13.347945 14.612219,12.770489 14.999182,12.207024 C 15.386146,11.643556 15.827451,11.096541 16.314542,10.617375 C 16.801632,10.138206 17.357774,9.704145 17.930556,9.323475 C 18.503336,8.942805 19.090432,8.6302675 19.734477,8.3622913 C 20.378521,8.094315 21.063014,7.8749113 21.76389,7.7338263 C 22.464762,7.59274 23.200352,7.5120138 23.943627,7.5120138 z M 23.755719,8.6210713 C 17.716641,8.5304238 12.80047,15.095744 14.736111,20.783733 C 16.238901,26.251499 23.147222,29.344646 28.265522,26.698705 C 33.292857,24.390468 35.375096,17.547719 32.17402,12.983364 C 30.463956,10.405596 27.482675,8.70218 24.357025,8.6210713 C 24.148651,8.6156638 23.965269,8.6117863 23.755719,8.6210713 z M 23.830882,16.421441 C 24.222784,16.388285 24.631606,16.458403 24.958334,16.680221 C 26.559631,17.584678 25.452541,20.277394 23.642975,19.82255 C 21.678545,19.587821 21.855485,16.478095 23.830882,16.421441 z M 23.981209,17.456561 C 23.600799,17.456561 23.304737,17.747791 23.304737,18.121995 C 23.304737,18.496199 23.600797,18.824399 23.981209,18.824399 C 24.361617,18.824399 24.695264,18.496198 24.695262,18.121995 C 24.695262,17.747791 24.361616,17.456563 23.981209,17.456561 z M 18.005719,30.802218 C 20.653929,30.802213 22.816176,32.896541 22.816176,35.497228 C 22.816176,38.097919 20.65393,40.229205 18.005719,40.229205 C 15.3575,40.229197 13.232844,38.097915 13.232844,35.497228 C 13.232841,32.896544 15.357504,30.802218 18.005719,30.802218 z M 29.99428,30.802218 C 32.642492,30.802224 34.767156,32.896541 34.767156,35.497228 C 34.767162,38.09791 32.642492,40.229205 29.99428,40.229205 C 27.346065,40.229209 25.183824,38.097915 25.183824,35.497228 C 25.183826,32.896535 27.346065,30.802218 29.99428,30.802218 z M 17.892974,31.874306 C 14.777334,31.793421 13.108942,36.22031 15.525326,38.195932 C 17.64191,40.198222 21.741862,38.658797 21.76389,35.719038 C 21.90511,33.679554 20.023309,31.669625 17.892974,31.874306 z M 29.731209,31.874306 C 26.61557,31.793421 24.947177,36.22031 27.363561,38.195932 C 29.480146,40.198222 33.5801,38.658797 33.602125,35.719038 C 33.743346,33.679554 31.861544,31.669625 29.731209,31.874306 z"
       id="path8209"
       sodipodi:nodetypes="ccccccccccssssssssssssssssssssssssssssssscccccsccccccsssccsssccsssccccccccc" />
    <path
       style="fill:url(#linearGradient2559);fill-opacity:1"
       d="M 13.140625,4 C 11.187212,4 9.625,5.555015 9.625,7.4765625 L 9.625,28.921875 C 13.899262,30.116871 18.784339,30.796875 24,30.796875 C 29.215661,30.796875 34.100737,30.116871 38.375,28.921875 L 38.375,7.4765625 C 38.375,5.5550151 36.812791,4 34.859375,4 L 13.140625,4 z M 23.960937,7.515625 C 24.704211,7.515625 25.4085,7.6089138 26.109375,7.75 C 26.81025,7.891085 27.496581,8.1070238 28.140625,8.375 C 28.784672,8.6429763 29.36472,8.93183 29.9375,9.3125 C 30.510281,9.69317 31.091035,10.122394 31.578125,10.601562 C 32.065217,11.080729 32.519286,11.639657 32.90625,12.203125 C 33.293215,12.76659 33.610406,13.366431 33.882812,14 C 34.155216,14.633568 34.364392,15.302711 34.507812,15.992188 C 34.651237,16.681665 34.703125,17.409441 34.703125,18.140625 C 34.703122,18.871808 34.651235,19.560524 34.507812,20.25 C 34.364395,20.939475 34.15522,21.608619 33.882812,22.242188 C 33.610402,22.875756 33.293215,23.475596 32.90625,24.039063 C 32.519286,24.602533 32.065214,25.161458 31.578125,25.640625 C 31.091039,26.119791 30.510281,26.549018 29.9375,26.929688 C 29.36472,27.310358 28.784669,27.59921 28.140625,27.867188 C 27.496585,28.135163 26.81025,28.3511 26.109375,28.492188 C 25.4085,28.633274 24.704211,28.6875 23.960937,28.6875 C 23.217662,28.687503 22.474311,28.633274 21.773437,28.492188 C 21.072559,28.3511 20.386231,28.135163 19.742187,27.867188 C 19.098139,27.59921 18.518094,27.310358 17.945312,26.929688 C 17.372526,26.549018 16.791777,26.119793 16.304687,25.640625 C 15.8176,25.161456 15.40259,24.602531 15.015625,24.039063 C 14.628659,23.475598 14.311471,22.875758 14.039062,22.242188 C 13.766654,21.608618 13.518421,20.939475 13.375,20.25 C 13.231577,19.560524 13.140625,18.871808 13.140625,18.140625 C 13.140629,17.409441 13.23158,16.681664 13.375,15.992188 C 13.518419,15.302713 13.766656,14.633569 14.039062,14 C 14.31147,13.36643 14.628661,12.76659 15.015625,12.203125 C 15.402587,11.639657 15.817596,11.080729 16.304687,10.601562 C 16.791781,10.122394 17.37253,9.69317 17.945312,9.3125 C 18.51809,8.93183 19.098142,8.6429763 19.742187,8.375 C 20.386227,8.1070238 21.072561,7.891085 21.773437,7.75 C 22.474309,7.6089138 23.217662,7.515625 23.960937,7.515625 z M 23.765625,8.609375 C 17.72655,8.5187275 12.806546,15.108886 14.742187,20.796875 C 16.244976,26.26464 23.139512,29.341254 28.257812,26.695313 C 33.285151,24.387075 35.365139,17.54873 32.164062,12.984375 C 30.454,10.406607 27.477212,8.6904838 24.351562,8.609375 C 24.143186,8.6039675 23.975175,8.60009 23.765625,8.609375 z M 23.84375,16.421875 C 24.235649,16.388719 24.649835,16.473494 24.976562,16.695313 C 26.577856,17.59977 25.458004,20.275156 23.648437,19.820313 C 21.68401,19.585585 21.868352,16.478529 23.84375,16.421875 z M 24,17.4375 C 23.619586,17.4375 23.296875,17.766421 23.296875,18.140625 C 23.296879,18.514829 23.619589,18.84375 24,18.84375 C 24.380405,18.843751 24.703126,18.514828 24.703125,18.140625 C 24.703121,17.766421 24.380407,17.437501 24,17.4375 z"
       id="path2552" />
  </g>
</svg>
