<?xml version="1.0" encoding="UTF-8" standalone="no"?>
<!-- Created with Inkscape (http://www.inkscape.org/) -->

<svg
   xmlns:dc="http://purl.org/dc/elements/1.1/"
   xmlns:cc="http://creativecommons.org/ns#"
   xmlns:rdf="http://www.w3.org/1999/02/22-rdf-syntax-ns#"
   xmlns:svg="http://www.w3.org/2000/svg"
   xmlns="http://www.w3.org/2000/svg"
   xmlns:xlink="http://www.w3.org/1999/xlink"
   xmlns:sodipodi="http://sodipodi.sourceforge.net/DTD/sodipodi-0.dtd"
   xmlns:inkscape="http://www.inkscape.org/namespaces/inkscape"
   width="48px"
   height="48px"
   id="svg3107"
   version="1.1"
   inkscape:version="0.47 r22583"
   sodipodi:docname="Nouveau document 1">
  <defs
     id="defs3109">
    <linearGradient
       inkscape:collect="always"
       xlink:href="#linearGradient3155"
       id="linearGradient5582"
       gradientUnits="userSpaceOnUse"
       gradientTransform="matrix(0.1721311,0,0,0.1721311,-32.065572,-63.312822)"
       x1="325.71429"
       y1="369.50507"
       x2="325.71429"
       y2="546.64789" />
    <linearGradient
       id="linearGradient3155"
       inkscape:collect="always">
      <stop
         id="stop3157"
         offset="0"
         style="stop-color:#4d4d4d;stop-opacity:1;" />
      <stop
         id="stop3159"
         offset="1"
         style="stop-color:#4d4d4d;stop-opacity:0;" />
    </linearGradient>
  </defs>
  <sodipodi:namedview
     id="base"
     pagecolor="#ffffff"
     bordercolor="#666666"
     borderopacity="1.0"
     inkscape:pageopacity="0.0"
     inkscape:pageshadow="2"
     inkscape:zoom="7"
     inkscape:cx="24"
     inkscape:cy="24"
     inkscape:current-layer="layer1"
     showgrid="true"
     inkscape:grid-bbox="true"
     inkscape:document-units="px"
     inkscape:window-width="596"
     inkscape:window-height="502"
     inkscape:window-x="17"
     inkscape:window-y="167"
     inkscape:window-maximized="0" />
  <metadata
     id="metadata3112">
    <rdf:RDF>
      <cc:Work
         rdf:about="">
        <dc:format>image/svg+xml</dc:format>
        <dc:type
           rdf:resource="http://purl.org/dc/dcmitype/StillImage" />
        <dc:title></dc:title>
      </cc:Work>
    </rdf:RDF>
  </metadata>
  <g
     id="layer1"
     inkscape:label="Layer 1"
     inkscape:groupmode="layer">
    <path
       id="path4262"
       d="M 24,4 C 12.96,4 4,12.96 4,24 4,35.04 12.96,44 24,44 35.04,44 44.000001,35.04 44,24 44,12.96 35.040001,4 24,4 z m 0,6.602564 c 0.466152,0.0087 0.928054,0.03272 1.378205,0.09615 3.201535,0.292278 6.198867,2.309734 6.25,4.903847 0.234175,2.689845 -1.994028,4.97101 -4.294871,6.794872 -2.178304,1.612703 -2.692798,3.904745 -2.628205,6.25 -0.742828,0.139759 -1.71698,0.169767 -1.762821,-0.128205 -0.05737,-0.372942 0.03205,-0.680752 0.03205,-1.602565 -0.0058,-2.42136 1.457765,-4.691624 2.820512,-6.698717 1.362748,-2.007093 2.303416,-4.088009 1.442309,-5.448718 -0.861109,-1.36071 -2.92956,-2.461257 -5,-1.955128 -0.08891,0.02174 -0.67348,0.14145 -1.25,0.480768 -0.689931,0.406068 -1.334291,1.376795 -1.185898,1.891026 0.13023,0.451304 0.357048,0.960043 0.288462,1.506411 -0.09065,0.722103 -0.657604,1.50641 -1.858975,1.50641 -2.053969,0 -2.631263,-2.486843 -2.01923,-3.878206 C 17.267436,11.817375 20.736934,10.54191 24,10.602564 z m -0.25641,21.185897 c 1.64341,-0.0236 2.934481,1.630777 2.403846,3.044873 -0.510402,1.818472 -3.489194,2.214831 -4.551282,0.608973 -1.189286,-1.45445 0.167769,-3.763161 2.147436,-3.653846 z"
       style="fill:#000000;fill-opacity:1;fill-rule:nonzero;stroke:none;stroke-width:1;marker:none;visibility:visible;display:inline;overflow:visible" />
    <path
       style="fill:url(#linearGradient5582);fill-opacity:1"
       d="M 24,4 C 12.96,4 4,12.96 4,24 4,25.01417 4.088484,25.995019 4.234375,26.96875 9.517927,29.329201 16.417561,30.796875 24,30.796875 c 7.582437,0 14.482073,-1.467674 19.765625,-3.828125 C 43.911515,25.995019 44,25.01417 44,24 44,12.96 35.040001,4 24,4 z m 0,6.601562 c 0.466152,0.0087 0.917036,0.01469 1.367188,0.07813 3.201537,0.292277 6.198867,2.327762 6.25,4.921874 0.234177,2.689845 -1.996032,4.973013 -4.296875,6.796876 -2.178301,1.612702 -2.68178,3.904744 -2.617188,6.25 -0.742826,0.139758 -1.711971,0.180783 -1.757812,-0.117188 -0.05737,-0.372943 0.03906,-0.67975 0.03906,-1.601562 -0.0058,-2.421359 1.449752,-4.711657 2.8125,-6.718751 1.362746,-2.007093 2.30642,-4.068978 1.445313,-5.429687 -0.86111,-1.36071 -2.929561,-2.459254 -5,-1.953125 -0.08891,0.02174 -0.67348,0.129431 -1.25,0.46875 -0.689933,0.406068 -1.320269,1.360769 -1.171875,1.875 0.130226,0.451305 0.342023,0.97707 0.273437,1.523438 -0.09065,0.722102 -0.673629,1.484375 -1.875,1.484375 -2.053966,0 -2.60422,-2.475826 -1.992188,-3.867188 C 17.282456,11.809361 20.736934,10.540909 24,10.601562 z"
       id="path5572" />
  </g>
</svg>
