<?xml version="1.0" encoding="UTF-8" standalone="no"?>
<!-- Created with Inkscape (http://www.inkscape.org/) -->

<svg
   xmlns:dc="http://purl.org/dc/elements/1.1/"
   xmlns:cc="http://creativecommons.org/ns#"
   xmlns:rdf="http://www.w3.org/1999/02/22-rdf-syntax-ns#"
   xmlns:svg="http://www.w3.org/2000/svg"
   xmlns="http://www.w3.org/2000/svg"
   xmlns:xlink="http://www.w3.org/1999/xlink"
   xmlns:sodipodi="http://sodipodi.sourceforge.net/DTD/sodipodi-0.dtd"
   xmlns:inkscape="http://www.inkscape.org/namespaces/inkscape"
   width="48"
   height="48"
   id="svg7854"
   sodipodi:version="0.32"
   inkscape:version="0.47 r22583"
   version="1.0"
   sodipodi:docname="media-playlist-repeat.svg"
   inkscape:output_extension="org.inkscape.output.svg.inkscape"
   inkscape:export-filename="/home/lapo/Icone/gnome-icon-theme/32x32/status/media-playlist-repeat.png"
   inkscape:export-xdpi="90"
   inkscape:export-ydpi="90">
  <defs
     id="defs7856">
    <linearGradient
       gradientUnits="userSpaceOnUse"
       y2="21.132059"
       x2="22.892584"
       y1="0.90414524"
       x1="22.892584"
       id="linearGradient3178"
       xlink:href="#linearGradient3172"
       inkscape:collect="always" />
    <linearGradient
       id="linearGradient3172">
      <stop
         id="stop3174"
         offset="0"
         style="stop-color:#4d4d4d;stop-opacity:1;" />
      <stop
         id="stop3176"
         offset="1"
         style="stop-color:#4d4d4d;stop-opacity:0;" />
    </linearGradient>
    <linearGradient
       inkscape:collect="always"
       xlink:href="#linearGradient3172"
       id="linearGradient2938"
       gradientUnits="userSpaceOnUse"
       x1="22.892584"
       y1="0.90414524"
       x2="22.892584"
       y2="21.132059" />
    <linearGradient
       inkscape:collect="always"
       xlink:href="#linearGradient3172"
       id="linearGradient2943"
       gradientUnits="userSpaceOnUse"
       x1="22.892584"
       y1="0.90414524"
       x2="22.892584"
       y2="21.132059"
       gradientTransform="matrix(0.644962,0,0,-1.1832362,59.235153,43.983663)" />
    <linearGradient
       inkscape:collect="always"
       xlink:href="#linearGradient3172"
       id="linearGradient2952"
       gradientUnits="userSpaceOnUse"
       gradientTransform="matrix(0.644962,0,0,-1.1832362,59.235153,43.983663)"
       x1="22.892584"
       y1="0.90414524"
       x2="22.892584"
       y2="21.132059" />
    <linearGradient
       inkscape:collect="always"
       xlink:href="#linearGradient3172"
       id="linearGradient2955"
       gradientUnits="userSpaceOnUse"
       gradientTransform="matrix(0.644962,0,0,1.1832362,9.235153,4.016337)"
       x1="22.892584"
       y1="0.90414524"
       x2="22.892584"
       y2="21.132059" />
  </defs>
  <sodipodi:namedview
     id="base"
     pagecolor="#ffffff"
     bordercolor="#afafaf"
     borderopacity="1"
     gridtolerance="15.1"
     guidetolerance="10"
     objecttolerance="10"
     inkscape:pageopacity="0"
     inkscape:pageshadow="2"
     inkscape:zoom="5.6568543"
     inkscape:cx="20.425827"
     inkscape:cy="20.134286"
     inkscape:document-units="px"
     inkscape:current-layer="layer1"
     width="48px"
     height="48px"
     inkscape:showpageshadow="false"
     inkscape:window-width="1364"
     inkscape:window-height="723"
     inkscape:window-x="0"
     inkscape:window-y="21"
     showgrid="false"
     inkscape:grid-points="false"
     showborder="true"
     showguides="false"
     inkscape:guide-bbox="false"
     inkscape:grid-bbox="true"
     inkscape:object-paths="false"
     inkscape:window-maximized="1">
    <sodipodi:guide
       orientation="horizontal"
       position="8.6620581"
       id="guide7377" />
    <sodipodi:guide
       orientation="horizontal"
       position="6"
       id="guide7379" />
    <sodipodi:guide
       orientation="horizontal"
       position="36.062446"
       id="guide7492" />
    <sodipodi:guide
       orientation="horizontal"
       position="51"
       id="guide7046" />
    <sodipodi:guide
       orientation="horizontal"
       position="-17.5"
       id="guide7233" />
    <sodipodi:guide
       orientation="horizontal"
       position="-29"
       id="guide7235" />
    <sodipodi:guide
       orientation="horizontal"
       position="44.547727"
       id="guide6795" />
    <sodipodi:guide
       orientation="horizontal"
       position="16.970563"
       id="guide6797" />
    <sodipodi:guide
       orientation="horizontal"
       position="23.511301"
       id="guide6914" />
    <inkscape:grid
       id="GridFromPre046Settings"
       type="xygrid"
       originx="0px"
       originy="0px"
       spacingx="0.5px"
       spacingy="0.5px"
       color="#0000ff"
       empcolor="#0000ff"
       opacity="0.2"
       empopacity="0.4"
       empspacing="2" />
  </sodipodi:namedview>
  <metadata
     id="metadata7859">
    <rdf:RDF>
      <cc:Work
         rdf:about="">
        <dc:format>image/svg+xml</dc:format>
        <dc:type
           rdf:resource="http://purl.org/dc/dcmitype/StillImage" />
        <dc:creator>
          <cc:Agent>
            <dc:title>Lapo Calamandrei</dc:title>
          </cc:Agent>
        </dc:creator>
        <dc:source />
        <cc:license
           rdf:resource="http://creativecommons.org/licenses/GPL/2.0/" />
        <dc:title></dc:title>
        <dc:subject>
          <rdf:Bag />
        </dc:subject>
      </cc:Work>
      <cc:License
         rdf:about="http://creativecommons.org/licenses/GPL/2.0/">
        <cc:permits
           rdf:resource="http://web.resource.org/cc/Reproduction" />
        <cc:permits
           rdf:resource="http://web.resource.org/cc/Distribution" />
        <cc:requires
           rdf:resource="http://web.resource.org/cc/Notice" />
        <cc:permits
           rdf:resource="http://web.resource.org/cc/DerivativeWorks" />
        <cc:requires
           rdf:resource="http://web.resource.org/cc/ShareAlike" />
        <cc:requires
           rdf:resource="http://web.resource.org/cc/SourceCode" />
      </cc:License>
    </rdf:RDF>
  </metadata>
  <g
     inkscape:label="Layer 1"
     inkscape:groupmode="layer"
     id="layer1">
    <path
       style="fill:#000000;fill-opacity:1;stroke:#000000;stroke-width:1;stroke-linecap:round;stroke-linejoin:round;stroke-miterlimit:4;stroke-opacity:1;stroke-dasharray:none;stroke-dashoffset:0.7"
       d="m 13.5,13 c -2.735898,0 -5,2.264102 -5,5 l 0,9.0625 c 0,2.735898 2.264102,5 5,5 l 5,0 0,-4 -5,0 c -0.589087,0 -1,-0.410913 -1,-1 L 12.5,18 c 0,-0.589086 0.410913,-1 1,-1 l 21,0 c 0.589091,0 1,0.410913 1,1 l 0,9.0625 c 0,0.589086 -0.410913,1 -1,1 l -5,0 0,-3.0625 -7,5 7,5 0,-2.9375 5,0 c 2.735898,0 4.999998,-2.264102 5,-5 L 39.5,18 c 0,-2.735898 -2.264101,-5 -5,-5 l -21,0 z"
       id="rect7213"
       sodipodi:nodetypes="cccccccccccccccccccccccc" />
    <path
       style="fill:url(#linearGradient2955);fill-opacity:1;stroke:none"
       d="m 24,29.65625 c -0.604951,0 -1.187494,-0.008 -1.78125,-0.03125 0.006,-0.0048 -0.0063,-0.02672 0,-0.03125 l 7,-5 C 29.515575,24.391837 29.994825,24.641047 30,25 l 0,2.5625 4.5,0 c 0.356572,0 0.5,-0.143428 0.5,-0.5 L 35,18 c 0,-0.356575 -0.143421,-0.5 -0.5,-0.5 l -21,0 C 13.143428,17.5 13,17.643428 13,18 l 0,9.0625 c 0,0.356573 0.143427,0.5 0.5,0.5 l 5,0 c 0.261792,2.6e-5 0.499974,0.238208 0.5,0.5 l 0,1.28125 C 14.820643,28.876511 11.066813,27.857585 8,26.40625 L 8,18 c 0,-3.011749 2.488251,-5.5 5.5,-5.5 l 21,0 c 3.01175,0 5.5,2.488251 5.5,5.5 l 0,8.40625 c -4.249594,2.011074 -9.8447,3.25 -16,3.25 z"
       id="path2932" />
    <g
       transform="matrix(0.1337942,0,0,-0.1337942,31.527762,89.04701)"
       inkscape:label="Calque 1"
       id="g2934" />
    <g
       transform="matrix(0.1672428,0,0,-0.1672428,38.442916,104.62323)"
       inkscape:label="Calque 1"
       id="g2936" />
  </g>
</svg>
