<?xml version="1.0" encoding="UTF-8" standalone="no"?>
<!-- Created with Inkscape (http://www.inkscape.org/) -->

<svg
   xmlns:dc="http://purl.org/dc/elements/1.1/"
   xmlns:cc="http://creativecommons.org/ns#"
   xmlns:rdf="http://www.w3.org/1999/02/22-rdf-syntax-ns#"
   xmlns:svg="http://www.w3.org/2000/svg"
   xmlns="http://www.w3.org/2000/svg"
   xmlns:xlink="http://www.w3.org/1999/xlink"
   xmlns:sodipodi="http://sodipodi.sourceforge.net/DTD/sodipodi-0.dtd"
   xmlns:inkscape="http://www.inkscape.org/namespaces/inkscape"
   width="48px"
   height="48px"
   id="svg3016"
   version="1.1"
   inkscape:version="0.47 r22583"
   sodipodi:docname="Nouveau document 2">
  <defs
     id="defs3018">
    <linearGradient
       gradientUnits="userSpaceOnUse"
       y2="21.132059"
       x2="22.892584"
       y1="0.90414524"
       x1="22.892584"
       id="linearGradient3178"
       xlink:href="#linearGradient3172"
       inkscape:collect="always" />
    <linearGradient
       id="linearGradient3172">
      <stop
         id="stop3174"
         offset="0"
         style="stop-color:#4d4d4d;stop-opacity:1;" />
      <stop
         id="stop3176"
         offset="1"
         style="stop-color:#4d4d4d;stop-opacity:0;" />
    </linearGradient>
    <linearGradient
       inkscape:collect="always"
       xlink:href="#linearGradient3172"
       id="linearGradient3143"
       gradientUnits="userSpaceOnUse"
       x1="22.892584"
       y1="0.90414524"
       x2="22.892584"
       y2="21.132059" />
    <linearGradient
       inkscape:collect="always"
       xlink:href="#linearGradient3172"
       id="linearGradient3148"
       gradientUnits="userSpaceOnUse"
       x1="22.892584"
       y1="0.90414524"
       x2="22.892584"
       y2="21.132059"
       gradientTransform="matrix(0.644962,0,0,-1.1832362,59.235153,43.983663)" />
    <linearGradient
       inkscape:collect="always"
       xlink:href="#linearGradient3172"
       id="linearGradient3151"
       gradientUnits="userSpaceOnUse"
       gradientTransform="matrix(0.644962,0,0,1.1832362,9.235403,4.015837)"
       x1="22.892584"
       y1="0.90414524"
       x2="22.892584"
       y2="21.132059" />
  </defs>
  <sodipodi:namedview
     id="base"
     pagecolor="#ffffff"
     bordercolor="#666666"
     borderopacity="1.0"
     inkscape:pageopacity="0.0"
     inkscape:pageshadow="2"
     inkscape:zoom="7"
     inkscape:cx="24"
     inkscape:cy="24"
     inkscape:current-layer="layer1"
     showgrid="true"
     inkscape:grid-bbox="true"
     inkscape:document-units="px"
     inkscape:window-width="1364"
     inkscape:window-height="719"
     inkscape:window-x="0"
     inkscape:window-y="25"
     inkscape:window-maximized="1" />
  <metadata
     id="metadata3021">
    <rdf:RDF>
      <cc:Work
         rdf:about="">
        <dc:format>image/svg+xml</dc:format>
        <dc:type
           rdf:resource="http://purl.org/dc/dcmitype/StillImage" />
        <dc:title></dc:title>
      </cc:Work>
    </rdf:RDF>
  </metadata>
  <g
     id="layer1"
     inkscape:label="Layer 1"
     inkscape:groupmode="layer">
    <path
       style="fill:#000000;fill-opacity:1;fill-rule:nonzero;stroke:none"
       d="m 23.980897,4.9375 c -1.005512,0 -1.930957,0.623875 -2.4375,1.53125 L 4.2933965,39.125 c -0.4055744,0.806553 -0.4056372,1.912195 0.09375,2.71875 0.4993847,0.806552 1.3069884,1.21875 2.3125,1.21875 l 34.5937505,0 c 1.005512,2e-6 1.906923,-0.505945 2.3125,-1.3125 0.506124,-0.806553 0.523416,-1.842626 0.125,-2.75 L 26.387147,6.34375 C 25.888184,5.436379 24.986404,4.9375 23.980897,4.9375 z M 23.793397,16 c 0.111844,-0.01535 0.199039,-0.0052 0.3125,0 0.129704,0.0058 0.27813,0.02766 0.40625,0.0625 1.037239,0.222064 1.52846,1.33598 1.34375,2.25 -0.36234,3.860089 -0.626076,7.69762 -0.9375,11.5625 l -1.6875,0 c -0.375442,-4.024587 -0.652708,-8.022365 -1.09375,-12.03125 -2e-6,-0.125553 0.0088,-0.251178 0.03125,-0.375 0.104356,-0.755162 0.842047,-1.360946 1.625,-1.46875 z m 0.1875,16.3125 c 0.727449,-0.0023 1.477913,0.373241 1.8125,1 0.598034,0.970102 -0.02069,2.316624 -1.1875,2.59375 -1.204754,0.378319 -2.640391,-0.556709 -2.59375,-1.75 -0.01457,-0.557345 0.293516,-1.088516 0.75,-1.4375 0.338652,-0.287805 0.78228,-0.404787 1.21875,-0.40625 z"
       id="path6485" />
    <path
       style="fill:url(#linearGradient3151);fill-opacity:1;stroke:none"
       d="M 23.18775,29.6245 C 18.4762,29.54045 14.113958,28.723515 10.469,27.40575 L 21.5315,6.46825 C 22.038043,5.560875 22.963488,4.937 23.969,4.937 c 1.005507,0 1.907287,0.498879 2.40625,1.40625 l 11.1875,21.0625 c -3.618054,1.312004 -7.949575,2.122521 -12.625,2.21875 0.302709,-3.779881 0.551772,-7.536168 0.90625,-11.3125 0.18471,-0.91402 -0.306511,-2.027936 -1.34375,-2.25 -0.12812,-0.03484 -0.276546,-0.0567 -0.40625,-0.0625 -0.113461,-0.0052 -0.200656,-0.01535 -0.3125,0 -0.782953,0.107804 -1.520644,0.713588 -1.625,1.46875 -0.02245,0.123822 -0.03125,0.249447 -0.03125,0.375 0.43187,3.925511 0.698754,7.841439 1.0625,11.78125 z"
       id="path3137" />
    <g
       transform="matrix(0.1337942,0,0,-0.1337942,31.527762,89.04701)"
       inkscape:label="Calque 1"
       id="g3139" />
    <g
       transform="matrix(0.1672428,0,0,-0.1672428,38.442916,104.62323)"
       inkscape:label="Calque 1"
       id="g3141" />
  </g>
</svg>
