<?xml version="1.0" encoding="UTF-8" standalone="no"?>
<!-- Created with Inkscape (http://www.inkscape.org/) -->

<svg
   xmlns:svg="http://www.w3.org/2000/svg"
   xmlns="http://www.w3.org/2000/svg"
   xmlns:xlink="http://www.w3.org/1999/xlink"
   version="1.1"
   width="48"
   height="48"
   id="svg2957">
  <defs
     id="defs2959">
    <linearGradient
       x1="22.892584"
       y1="0.90414524"
       x2="22.892584"
       y2="21.132059"
       id="linearGradient2936"
       xlink:href="#linearGradient3172"
       gradientUnits="userSpaceOnUse"
       gradientTransform="matrix(0.644962,0,0,1.1832362,9.235653,4.0151379)" />
    <linearGradient
       id="linearGradient3172">
      <stop
         id="stop3174"
         style="stop-color:#4d4d4d;stop-opacity:1"
         offset="0" />
      <stop
         id="stop3176"
         style="stop-color:#4d4d4d;stop-opacity:0"
         offset="1" />
    </linearGradient>
  </defs>
  <g
     id="layer1">
    <g
       transform="matrix(1,0,0,-1,0,47.9988)"
       id="layer1-6">
      <path
         d="M 7.8755003,4.0000004 C 7.24086,4.0589944 6.69004,4.6438784 6.688,5.2812504 l 0,37.4374996 C 6.693,43.391094 7.2969003,43.994982 7.9692503,44 L 40.03175,44 c 0.67234,-0.005 1.27623,-0.608906 1.28125,-1.28125 l 0,-37.4374996 c -0.005,-0.672344 -0.60891,-1.276232 -1.28125,-1.28125 l -32.0624997,0 c -0.0367,-0.0016 -0.05706,-0.0016 -0.09375,0 z M 38.71925,7 l 0,34 -29.4374997,0 0,-34 L 38.71925,7 z M 10.063,7.719 l 0,15.906 27.875,0 0,-15.906 -27.875,0 z m 11.0625,5.62475 5.75,0 c 1.008099,0 1.84375,0.817038 1.84375,1.8125 l 0,1.03125 C 28.71925,17.182963 27.883599,18 26.8755,18 l -5.75,0 c -1.008099,0 -1.84375,-0.817037 -1.84375,-1.8125 l 0,-1.03125 c 0,-0.995462 0.835651,-1.8125 1.84375,-1.8125 z m 0,1.15625 c -0.388498,0 -0.65625,0.272626 -0.65625,0.65625 l 0,1.03125 c 0,0.383624 0.267752,0.625 0.65625,0.625 l 5.75,0 c 0.388498,0 0.65625,-0.241376 0.65625,-0.625 l 0,-1.03125 C 27.53175,14.772626 27.263998,14.5 26.8755,14.5 l -5.75,0 z m -11.0625,9.875 0,15.906 27.875,0 0,-15.906 -27.875,0 z M 21.1255,30 l 5.75,0 c 1.008099,0 1.84375,0.817038 1.84375,1.8125 l 0,1.03125 c 0,0.995463 -0.835651,1.8125 -1.84375,1.8125 l -5.75,0 c -1.008099,0 -1.84375,-0.817037 -1.84375,-1.8125 l 0,-1.03125 C 19.28175,30.817038 20.117401,30 21.1255,30 z m 0,1.1875 c -0.388498,0 -0.65625,0.241376 -0.65625,0.625 l 0,1.03125 c 0,0.383624 0.267752,0.65625 0.65625,0.65625 l 5.75,0 c 0.388498,0 0.65625,-0.272626 0.65625,-0.65625 l 0,-1.03125 c 0,-0.383624 -0.267752,-0.625 -0.65625,-0.625 l -5.75,0 z"
         id="path3608"
         style="font-size:medium;font-style:normal;font-variant:normal;font-weight:normal;font-stretch:normal;text-indent:0;text-align:start;text-decoration:none;line-height:normal;letter-spacing:normal;word-spacing:normal;text-transform:none;direction:ltr;block-progression:tb;writing-mode:lr-tb;text-anchor:start;color:#000000;fill:#000000;fill-opacity:1;fill-rule:nonzero;stroke:none;stroke-width:2.20385528;marker:none;visibility:visible;display:inline;overflow:visible;enable-background:accumulate;font-family:Bitstream Charter;-inkscape-font-specification:Bitstream Charter" />
    </g>
    <path
       d="m 24.0005,29.65505 c -5.208347,0 -10.002391,-0.918266 -13.9375,-2.40625 l 0,-2.875 27.875,0 0,2.875 c -3.935109,1.487984 -8.729153,2.40625 -13.9375,2.40625 z M 9.28175,26.96755 C 8.367896,26.591807 7.489246,26.189102 6.688,25.7488 l 0,-20.4687491 c 0.005,-0.672344 0.6089,-1.276232 1.28125,-1.28125 l 32.0625,0 c 0.67234,0.005 1.27623,0.608906 1.28125,1.28125 l 0,20.4687491 c -0.801246,0.440302 -1.679896,0.843007 -2.59375,1.21875 l 0,-19.9687491 -29.4375,0 0,19.9687491 z m 0.78125,-3.34375 0,-15.9062491 27.875,0 0,15.9062491 -27.875,0 z m 11.0625,-5.625 5.75,0 c 1.008099,0 1.84375,-0.817038 1.84375,-1.8125 l 0,-1.03125 c 0,-0.995463 -0.835651,-1.8125 -1.84375,-1.8125 l -5.75,0 c -1.008099,0 -1.84375,0.817037 -1.84375,1.8125 l 0,1.03125 c 0,0.995462 0.835651,1.8125 1.84375,1.8125 z m 0,-1.1875 c -0.388498,0 -0.65625,-0.241376 -0.65625,-0.625 l 0,-1.03125 c 0,-0.383624 0.267752,-0.65625 0.65625,-0.65625 l 5.75,0 c 0.388498,0 0.65625,0.272626 0.65625,0.65625 l 0,1.03125 c 0,0.383624 -0.267752,0.625 -0.65625,0.625 l -5.75,0 z"
       id="path2921"
       style="fill:url(#linearGradient2936);fill-opacity:1;stroke:none" />
  </g>
</svg>
