<?xml version="1.0" encoding="UTF-8" standalone="no"?>
<!-- Created with Inkscape (http://www.inkscape.org/) -->

<svg
   xmlns:dc="http://purl.org/dc/elements/1.1/"
   xmlns:cc="http://creativecommons.org/ns#"
   xmlns:rdf="http://www.w3.org/1999/02/22-rdf-syntax-ns#"
   xmlns:svg="http://www.w3.org/2000/svg"
   xmlns="http://www.w3.org/2000/svg"
   xmlns:xlink="http://www.w3.org/1999/xlink"
   xmlns:sodipodi="http://sodipodi.sourceforge.net/DTD/sodipodi-0.dtd"
   xmlns:inkscape="http://www.inkscape.org/namespaces/inkscape"
   width="48px"
   height="48px"
   id="svg2833"
   version="1.1"
   inkscape:version="0.47 r22583"
   sodipodi:docname="Nouveau document 3">
  <defs
     id="defs2835">
    <linearGradient
       gradientUnits="userSpaceOnUse"
       y2="21.132059"
       x2="22.892584"
       y1="0.90414524"
       x1="22.892584"
       id="linearGradient3178"
       xlink:href="#linearGradient3172"
       inkscape:collect="always" />
    <linearGradient
       id="linearGradient3172">
      <stop
         id="stop3174"
         offset="0"
         style="stop-color:#4d4d4d;stop-opacity:1;" />
      <stop
         id="stop3176"
         offset="1"
         style="stop-color:#4d4d4d;stop-opacity:0;" />
    </linearGradient>
    <linearGradient
       inkscape:collect="always"
       xlink:href="#linearGradient3172"
       id="linearGradient2956"
       gradientUnits="userSpaceOnUse"
       x1="22.892584"
       y1="0.90414524"
       x2="22.892584"
       y2="21.132059" />
    <linearGradient
       inkscape:collect="always"
       xlink:href="#linearGradient3172"
       id="linearGradient2961"
       gradientUnits="userSpaceOnUse"
       x1="22.892584"
       y1="0.90414524"
       x2="22.892584"
       y2="21.132059"
       gradientTransform="matrix(0.644962,0,0,-1.1832362,59.235153,43.983663)" />
    <linearGradient
       inkscape:collect="always"
       xlink:href="#linearGradient3172"
       id="linearGradient2964"
       gradientUnits="userSpaceOnUse"
       gradientTransform="matrix(0.644962,0,0,1.1832362,9.235153,4.0267861)"
       x1="22.892584"
       y1="0.90414524"
       x2="22.892584"
       y2="21.132059" />
  </defs>
  <sodipodi:namedview
     id="base"
     pagecolor="#ffffff"
     bordercolor="#666666"
     borderopacity="1.0"
     inkscape:pageopacity="0.0"
     inkscape:pageshadow="2"
     inkscape:zoom="7"
     inkscape:cx="24"
     inkscape:cy="21.682237"
     inkscape:current-layer="layer1"
     showgrid="true"
     inkscape:grid-bbox="true"
     inkscape:document-units="px"
     inkscape:window-width="1364"
     inkscape:window-height="721"
     inkscape:window-x="0"
     inkscape:window-y="23"
     inkscape:window-maximized="1" />
  <metadata
     id="metadata2838">
    <rdf:RDF>
      <cc:Work
         rdf:about="">
        <dc:format>image/svg+xml</dc:format>
        <dc:type
           rdf:resource="http://purl.org/dc/dcmitype/StillImage" />
        <dc:title></dc:title>
      </cc:Work>
    </rdf:RDF>
  </metadata>
  <g
     id="layer1"
     inkscape:label="Layer 1"
     inkscape:groupmode="layer">
    <path
       style="fill:#000000"
       d="m 22.232218,43.987056 c -1.209252,-0.11579 -3.226295,-0.53741 -4.409978,-0.92182 -1.647657,-0.53509 -4.022775,-1.72838 -5.421149,-2.72366 -1.425505,-1.01459 -3.6980431,-3.289921 -4.7113881,-4.717171 -2.681748,-3.77714 -4.025631,-8.68101 -3.617834,-13.20158 0.255191,-2.82887 0.835701,-4.89212 2.071818,-7.36367 1.018658,-2.036761 2.051398,-3.459791 3.741104,-5.1549309 1.6804711,-1.68588 3.1018541,-2.72004 5.1496381,-3.74673 3.355092,-1.682129 6.950282,-2.391539 10.50409,-2.072679 2.885174,0.25886 4.922786,0.829379 7.402605,2.072679 2.042009,1.02379 3.465161,2.05889 5.149767,3.74557 1.694574,1.6966499 2.732516,3.1257099 3.744936,5.1560909 2.885564,5.78692 2.885564,12.14176 0,17.92868 -1.01242,2.03038 -2.050362,3.45943 -3.744936,5.156091 -1.694572,1.69665 -3.121876,2.73587 -5.149767,3.74953 -2.791815,1.39552 -5.323492,2.02695 -8.42668,2.10172 -0.965557,0.0233 -1.992559,0.0196 -2.282226,-0.008 z m -4.915563,-5.37454 0,-0.52731 -1.111854,0 c -0.611519,0 -1.111853,-0.036 -1.111853,-0.0799 0,-0.0439 0.421331,-0.51207 0.936293,-1.0403 1.254098,-1.28642 1.517778,-1.96793 1.125286,-2.90845 -0.578301,-1.38577 -3.111189,-1.21129 -3.592023,0.24744 -0.07227,0.21926 -0.111014,0.41907 -0.08609,0.44403 0.02492,0.0249 0.260071,0.0797 0.522548,0.12177 0.455065,0.0729 0.483112,0.0595 0.603854,-0.28727 0.243128,-0.69829 1.196369,-0.77889 1.504669,-0.12722 0.259099,0.54768 0.05647,0.9312 -1.14545,2.16809 -1.027785,1.05768 -1.614081,1.91429 -1.622077,2.36995 -0.002,0.11154 0.47201,0.14647 1.987063,0.14647 l 1.989633,0 0,-0.52731 z m 7.607419,-0.0493 c 0,-0.54538 0.01901,-0.580771 0.351112,-0.653801 0.304677,-0.067 0.351111,-0.12899 0.351111,-0.46873 0,-0.33973 -0.04643,-0.40172 -0.351111,-0.46872 l -0.351112,-0.0772 0,-1.85744 c 0,-1.83635 -0.003,-1.85788 -0.263334,-1.8971 -0.603468,-0.0909 -0.738282,0.0361 -1.993364,1.87803 -1.08892,1.59808 -1.251599,1.8993 -1.252911,2.31991 -0.0014,0.44807 0.0252,0.48872 0.364234,0.55661 0.201157,0.0403 0.754158,0.0732 1.228891,0.0732 l 0.863149,0 0,0.585901 0,0.5859 0.526667,0 0.526668,0 0,-0.57659 z m -2.457782,-1.718581 c 0,-0.0982 1.184706,-1.8012 1.304594,-1.87538 0.05492,-0.034 0.09985,0.38954 0.09985,0.94116 l 0,1.00296 -0.702223,0 c -0.386223,0 -0.702224,-0.0309 -0.702224,-0.0687 z m -5.500749,-7.65176 0,-2.91607 2.838153,-0.0511 c 1.560984,-0.0281 2.860981,-0.0333 2.888883,-0.0115 0.0279,0.0218 0.07425,1.357 0.102996,2.96715 l 0.05227,2.92756 1.389228,0 1.389228,0 0.0011,-2.37292 c 5.85e-4,-1.3051 0.03423,-2.64975 0.07482,-2.98811 l 0.0738,-0.6152 4.238633,0 4.238631,0 0.07461,-0.79097 c 0.04104,-0.43504 0.07498,-2.48399 0.07544,-4.55324 l 8.19e-4,-3.76227 -1.02745,-0.0777 c -0.565096,-0.0427 -1.197097,-0.0437 -1.404446,-0.002 l -0.377021,0.0755 0,2.78305 c 0,1.53067 -0.0331,2.94874 -0.07355,3.15125 l -0.07355,0.36821 -2.881639,-0.0313 -2.881639,-0.0313 -0.03115,-3.12236 -0.03115,-3.12237 -0.311146,-0.0782 c -0.17113,-0.043 -0.802281,-0.0651 -1.402558,-0.0491 l -1.091413,0.0291 0,3.20072 0,3.20071 -2.92593,0 -2.925931,0 0,-3.22248 0,-3.22247 -1.462965,0 -1.462965,0 2.34e-4,4.01344 c 1.12e-4,2.2074 0.03495,5.63494 0.0774,7.61676 l 0.0772,3.60331 1.385561,0 1.38556,0 0,-2.91607 z m 8.090886,-14.26345 c 1.123779,-0.56507 1.36456,-2.003581 0.462311,-2.762001 l -0.449023,-0.37744 0.327426,-0.32783 c 0.448218,-0.44876 0.53538,-0.92523 0.26782,-1.4640199 -0.339189,-0.68303 -0.749858,-0.91523 -1.618668,-0.91523 -0.873145,0 -1.279649,0.23225 -1.624948,0.9283899 -0.183885,0.37072 -0.193602,0.4616 -0.05852,0.54725 0.23946,0.15184 0.922725,0.12893 0.922725,-0.031 0,-0.4783 0.856511,-0.7461599 1.220531,-0.38169 0.351866,0.3523 0.100967,1.22203 -0.352532,1.22203 -0.238818,0 -0.516887,0.34498 -0.516887,0.64127 0,0.2379 0.05456,0.27143 0.424538,0.26093 0.546938,-0.0155 0.862871,0.34733 0.862871,0.991 0,1.066051 -1.133406,1.400941 -1.623522,0.47971 -0.10877,-0.20445 -0.242928,-0.26366 -0.597396,-0.26366 -0.573124,0 -0.651042,0.12447 -0.404097,0.645511 0.450259,0.95001 1.728606,1.32402 2.75737,0.80673 z m -9.027184,-2.858411 0,-3.0466999 -0.365616,0 c -0.287115,0 -0.466076,0.11427 -0.833514,0.53221 -0.257344,0.29272 -0.672151,0.6365499 -0.921794,0.7640599 -0.412342,0.21062 -0.453895,0.27454 -0.453895,0.69819 0,0.5694 0.11811,0.58519 0.858931,0.1148 0.304505,-0.19335 0.57815,-0.35155 0.608099,-0.35155 0.02995,0 0.05445,0.97554 0.05445,2.16785 l 0,2.167851 0.526668,0 0.526667,0 0,-3.046711 z m 17.963649,2.930121 c 0.500088,-0.19036 0.977368,-0.8109 1.122251,-1.459101 0.187551,-0.83909 0.0045,-1.44297 -0.604225,-1.99362 -0.451867,-0.40874 -0.512925,-0.42918 -1.198516,-0.40126 l -0.722392,0.0294 0.04085,-0.40233 c 0.02247,-0.22129 0.06508,-0.44189 0.09469,-0.49022 0.02961,-0.0483 0.524731,-0.0879 1.100266,-0.0879 l 1.046428,0 0,-0.5308199 0,-0.53081 -1.491438,0.0328 -1.491438,0.0328 -0.254016,1.2889899 c -0.361941,1.83666 -0.363714,1.81715 0.164665,1.81215 0.241389,-0.002 0.570556,-0.0795 0.731482,-0.17161 0.752022,-0.43043 1.521484,0.0143 1.521484,0.87935 0,1.210761 -1.010387,1.756321 -1.578436,0.85227 -0.135129,-0.21505 -0.335484,-0.37626 -0.469715,-0.37793 -0.422541,-0.005 -0.760742,0.13521 -0.760742,0.31597 0,0.321551 0.462752,0.934961 0.849249,1.125721 0.42818,0.21135 1.438044,0.25183 1.899561,0.0761 z"
       id="path2818" />
    <path
       style="fill:url(#linearGradient2964);fill-opacity:1;stroke:none"
       d="m 22.78125,29.635449 c -2.011378,-0.05382 -3.961284,-0.262967 -5.8125,-0.5625 l 0,-2.78125 2.84375,-0.0625 c 1.560984,-0.0281 2.847098,-0.0218 2.875,0 0.0279,0.0218 0.065,1.32735 0.09375,2.9375 l 0,0.46875 z m 2.84375,0 c 0.0026,-1.265313 0.02319,-2.54732 0.0625,-2.875 l 0.09375,-0.625 4.21875,0 4.25,0 0.0625,-0.78125 c 0.04104,-0.43504 0.09329,-2.49325 0.09375,-4.5625 l 0,-3.75 -1.03125,-0.09375 c -0.565096,-0.0427 -1.198901,-0.0417 -1.40625,0 l -0.375,0.0625 0,2.78125 c 0,1.53067 -0.02205,2.95374 -0.0625,3.15625 l -0.09375,0.375 -2.875,-0.03125 -2.875,-0.03125 -0.03125,-3.125 -0.03125,-3.125 -0.3125,-0.0625 c -0.17113,-0.043 -0.805973,-0.0785 -1.40625,-0.0625 l -1.09375,0.03125 0,3.1875 0,3.21875 -2.90625,0 -2.9375,0 0,-3.21875 0,-3.21875 -1.46875,0 -1.46875,0 0,4 c 1.12e-4,2.2074 0.0513,5.64318 0.09375,7.625 l 0,0.03125 C 10.001922,27.557601 6.485506,25.978634 4,24.010449 c 8.4e-4,-0.531979 0.015228,-1.069721 0.0625,-1.59375 0.255191,-2.82887 0.857633,-4.8722 2.09375,-7.34375 1.018658,-2.036761 2.029044,-3.46111 3.71875,-5.1562499 1.680471,-1.68588 3.108466,-2.72331 5.15625,-3.75 3.355092,-1.682129 6.946192,-2.41261 10.5,-2.09375 2.885174,0.25886 4.926431,0.85045 7.40625,2.09375 2.042009,1.02379 3.471644,2.06332 5.15625,3.75 1.694574,1.6966499 2.73758,3.1258689 3.75,5.1562499 1.437776,2.883421 2.151262,5.881343 2.15625,8.90625 -0.0056,0.0044 0.0056,0.02684 0,0.03125 -4.017387,3.181228 -10.718731,5.351794 -18.375,5.625 z m -1.78125,-14.46875 c 0.399151,0.04007 0.832964,-0.05602 1.21875,-0.25 1.123779,-0.56507 1.370999,-1.99158 0.46875,-2.75 l -0.46875,-0.375 0.34375,-0.34375 c 0.448218,-0.44876 0.51756,-0.89871 0.25,-1.4375 -0.339189,-0.6830299 -0.75619,-0.9374999 -1.625,-0.9374999 -0.873145,0 -1.279701,0.24136 -1.625,0.9374999 -0.183885,0.37072 -0.166332,0.47685 -0.03125,0.5625 0.23946,0.15184 0.90625,0.12868 0.90625,-0.03125 0,-0.4783 0.85473,-0.7707199 1.21875,-0.40625 0.351866,0.3523 0.109749,1.21875 -0.34375,1.21875 -0.238818,0 -0.53125,0.35996 -0.53125,0.65625 0,0.2379 0.06752,0.2605 0.4375,0.25 0.546938,-0.0155 0.875,0.35633 0.875,1 0,1.066051 -1.134884,1.389981 -1.625,0.46875 -0.10877,-0.20445 -0.239282,-0.25 -0.59375,-0.25 -0.573124,0 -0.653195,0.135209 -0.40625,0.65625 0.281412,0.593756 0.865998,0.964471 1.53125,1.03125 z m -8.875,-0.0625 0.53125,0 0.53125,0 0,-3.03125 0,-3.0624999 -0.375,0 c -0.287115,0 -0.445062,0.11331 -0.8125,0.53125 -0.257344,0.29272 -0.687857,0.6537399 -0.9375,0.7812499 -0.412342,0.21062 -0.4375,0.26385 -0.4375,0.6875 0,0.5694 0.102929,0.59539 0.84375,0.125 0.304505,-0.19335 0.563801,-0.34375 0.59375,-0.34375 0.02995,0 0.0625,0.96394 0.0625,2.15625 l 0,2.15625 z m 18.0625,0 c 0.363678,0.01457 0.737991,-0.0059 0.96875,-0.09375 0.500088,-0.19036 0.980117,-0.820549 1.125,-1.46875 0.187551,-0.83909 -0.01628,-1.44935 -0.625,-2 -0.451867,-0.40874 -0.501909,-0.43417 -1.1875,-0.40625 l -0.71875,0.03125 0.03125,-0.40625 c 0.02247,-0.22129 0.06414,-0.42042 0.09375,-0.46875 0.02961,-0.0483 0.518215,-0.09375 1.09375,-0.09375 l 1.0625,0 0,-0.5312499 0,-0.53125 -1.5,0.03125 -1.5,0.03125 -0.25,1.2812499 c -0.361941,1.83666 -0.340879,1.8175 0.1875,1.8125 0.241389,-0.002 0.557824,-0.06414 0.71875,-0.15625 0.752022,-0.43043 1.53125,0.01 1.53125,0.875 0,1.210761 -1.025701,1.747801 -1.59375,0.84375 -0.135129,-0.21505 -0.334519,-0.37333 -0.46875,-0.375 -0.422541,-0.005 -0.75,0.13174 -0.75,0.3125 0,0.321551 0.457253,0.93424 0.84375,1.125 0.21409,0.105675 0.573822,0.172928 0.9375,0.1875 z"
       id="path2950" />
    <g
       transform="matrix(0.1337942,0,0,-0.1337942,31.527762,89.04701)"
       inkscape:label="Calque 1"
       id="g2952" />
    <g
       transform="matrix(0.1672428,0,0,-0.1672428,38.442916,104.62323)"
       inkscape:label="Calque 1"
       id="g2954" />
  </g>
</svg>
