<?xml version="1.0" encoding="UTF-8" standalone="no"?>
<!-- Created with Inkscape (http://www.inkscape.org/) -->

<svg
   xmlns:dc="http://purl.org/dc/elements/1.1/"
   xmlns:cc="http://creativecommons.org/ns#"
   xmlns:rdf="http://www.w3.org/1999/02/22-rdf-syntax-ns#"
   xmlns:svg="http://www.w3.org/2000/svg"
   xmlns="http://www.w3.org/2000/svg"
   xmlns:xlink="http://www.w3.org/1999/xlink"
   xmlns:sodipodi="http://sodipodi.sourceforge.net/DTD/sodipodi-0.dtd"
   xmlns:inkscape="http://www.inkscape.org/namespaces/inkscape"
   width="48px"
   height="48px"
   id="svg10460"
   sodipodi:version="0.32"
   inkscape:version="0.47 r22583"
   sodipodi:docname="edittrash.svg"
   inkscape:output_extension="org.inkscape.output.svg.inkscape"
   version="1.1">
  <defs
     id="defs10462">
    <linearGradient
       id="linearGradient3172">
      <stop
         id="stop3174"
         offset="0"
         style="stop-color:#4d4d4d;stop-opacity:1;" />
      <stop
         id="stop3176"
         offset="1"
         style="stop-color:#4d4d4d;stop-opacity:0;" />
    </linearGradient>
    <linearGradient
       inkscape:collect="always"
       xlink:href="#linearGradient3172"
       id="linearGradient2847"
       gradientUnits="userSpaceOnUse"
       gradientTransform="matrix(0.644962,0,0,1.1832362,9.234153,4.0167833)"
       x1="22.892584"
       y1="0.90414524"
       x2="22.892584"
       y2="21.132059" />
  </defs>
  <sodipodi:namedview
     id="base"
     pagecolor="#ffffff"
     bordercolor="#666666"
     borderopacity="1.0"
     inkscape:pageopacity="0.0"
     inkscape:pageshadow="2"
     inkscape:zoom="4.9497475"
     inkscape:cx="54.892857"
     inkscape:cy="24.543163"
     inkscape:current-layer="layer1"
     showgrid="true"
     inkscape:grid-bbox="true"
     inkscape:document-units="px"
     inkscape:window-width="1364"
     inkscape:window-height="721"
     inkscape:window-x="0"
     inkscape:window-y="23"
     inkscape:window-maximized="1" />
  <metadata
     id="metadata10465">
    <rdf:RDF>
      <cc:Work
         rdf:about="">
        <dc:format>image/svg+xml</dc:format>
        <dc:type
           rdf:resource="http://purl.org/dc/dcmitype/StillImage" />
        <dc:title />
      </cc:Work>
    </rdf:RDF>
  </metadata>
  <g
     id="layer1"
     inkscape:label="Layer 1"
     inkscape:groupmode="layer">
    <path
       style="font-size:medium;font-style:normal;font-variant:normal;font-weight:normal;font-stretch:normal;text-indent:0;text-align:start;text-decoration:none;line-height:normal;letter-spacing:normal;word-spacing:normal;text-transform:none;direction:ltr;block-progression:tb;writing-mode:lr-tb;text-anchor:start;color:#000000;fill:#000000;fill-opacity:1;fill-rule:nonzero;stroke:none;stroke-width:3;marker:none;visibility:visible;display:inline;overflow:visible;enable-background:accumulate;font-family:Bitstream Charter;-inkscape-font-specification:Bitstream Charter"
       d="M 38.40625,6.46875 37.125,7 31.375,9.28125 19.78125,7.21875 18.71875,7.0625 l -0.5,0.90625 -2.875,5.21875 -3.125,0 2.15625,25.90625 c 0,1.915932 1.390216,4.534186 4.0625,4.90625 L 38,44 c 2.672286,-0.372064 4.062491,-2.990318 4.0625,-4.90625 l 0.09375,-1.21875 -0.90625,3.25 -5.21875,1.84375 -3.875,-2.84375 2.3125,-0.84375 c -0.05036,-0.336021 -0.07174,-0.712869 -0.03125,-1.09375 l 1.84375,-17.40625 c 0.161958,-1.523521 1.054226,-2.69429 2,-2.59375 l 0.4375,0.0625 c 0.945773,0.100541 1.568205,1.413979 1.40625,2.9375 l -1.5625,14.65625 0.375,-0.40625 3.34375,1.03125 1.9375,-23.25 -2.53125,0 -2.65625,-5.5 -0.625,-1.25 z m -1.46875,3.8125 1.40625,2.9375 L 28.5625,13.203125 23.671875,16 18.78125,13.1875 20.3125,10.375 31.25,12.28125 l 0.4375,0.09375 0.375,-0.15625 4.875,-1.9375 z M 28,18.125 l 0.4375,0 c 0.951105,0 1.718751,1.217894 1.71875,2.75 l 0,17.53125 c 1e-6,1.532105 -0.767646,2.75 -1.71875,2.75 l -0.4375,0 c -0.951103,0 -1.718749,-1.217894 -1.71875,-2.75 l 0,-17.53125 c 0,-1.532105 0.767648,-2.75 1.71875,-2.75 z m -9.84375,0.0625 c 0.945774,-0.100541 1.838041,1.070228 2,2.59375 L 22,38.1875 c 0.161958,1.52352 -0.460475,2.805709 -1.40625,2.90625 l -0.4375,0.0625 c -0.945776,0.10054 -1.838041,-1.038978 -2,-2.5625 L 16.3125,21.1875 c -0.161959,-1.523521 0.460476,-2.836959 1.40625,-2.9375 l 0.4375,-0.0625 z"
       id="path2864"
       sodipodi:nodetypes="ccccccccccccccccccccccccccccccccccccccccccccccccccccccccc" />
    <path
       style="fill:#000000;fill-opacity:1;stroke:none"
       d="m 2.1781499,28.10447 c -0.1783866,1.047093 0.5094425,1.999421 1.5420324,2.175337 l 1.07608,0.183324 c 0.082436,0.01404 0.1606289,0.006 0.2338162,0.0063 L 3.2912681,40.67587 c -0.2723622,1.598712 0.3121497,3.006014 1.3045998,3.175092 l 0.4565183,0.07777 c 0.992451,0.169076 2.0099728,-0.965298 2.2823347,-2.564008 L 12.24561,12.538812 c 0.272363,-1.598708 -0.31215,-3.006013 -1.3046,-3.17509 L 10.48449,9.285952 C 9.4920403,9.11687 8.4745197,10.251245 8.2021567,11.849955 l -1.733255,10.173853 c -0.069529,-0.02398 -0.1414407,-0.05766 -0.2227046,-0.0715 L 5.1701176,21.768988 C 4.1375268,21.593071 3.1676125,22.296533 2.9892251,23.343628 L 2.1781509,28.10447 z"
       id="rect2518" />
    <path
       style="fill:url(#linearGradient2847);fill-opacity:1;stroke:none"
       d="M 38.40575,6.46875 37.1245,7 l -5.75,2.28125 -11.59375,-2.0625 -1.0625,-0.15625 -0.5,0.90625 -2.875,5.21875 -3.125,0 1.25,15.15625 c 1.178577,0.304707 2.410214,0.549353 3.6875,0.75 L 16.312,21.1875 c -0.161959,-1.523521 0.460476,-2.836959 1.40625,-2.9375 l 0.4375,-0.0625 c 0.945774,-0.100541 1.838041,1.070228 2,2.59375 l 0.9375,8.78125 c 0.957694,0.06137 1.917304,0.09375 2.90625,0.09375 0.774958,0 1.525026,-0.02457 2.28125,-0.0625 l 0,-8.71875 c 0,-1.532105 0.767648,-2.75 1.71875,-2.75 l 0.4375,0 c 0.951105,0 1.718751,1.217894 1.71875,2.75 l 0,8.3125 c 1.878538,-0.263041 3.67561,-0.612053 5.34375,-1.09375 l 0.78125,-7.3125 c 0.161958,-1.523521 1.054226,-2.69429 2,-2.59375 l 0.4375,0.0625 c 0.945773,0.100541 1.568205,1.413979 1.40625,2.9375 l -0.59375,5.4375 c 1.39488,-0.626418 2.6575,-1.347704 3.75,-2.125 l 0.9375,-11.28125 -2.53125,0 -2.65625,-5.5 -0.625,-1.25 z M 10.1245,9.28125 C 9.261153,9.4069621 8.425318,10.444879 8.187,11.84375 L 6.46825,22.03125 C 6.39872,22.00727 6.330764,21.95134 6.2495,21.9375 L 5.15575,21.78125 c -0.966789,-0.164707 -1.837803,0.43903 -2.09375,1.375 1.668746,1.572603 3.956306,2.932521 6.6875,4 l 2.5,-14.625 C 12.521863,10.932542 11.92945,9.544077 10.937,9.375 L 10.4995,9.28125 c -0.124056,-0.021135 -0.251665,-0.017959 -0.375,0 z m 26.8125,1 1.40625,2.9375 L 28.562,13.203125 23.671375,16 18.78075,13.1875 20.312,10.375 l 10.9375,1.90625 0.4375,0.09375 0.375,-0.15625 4.875,-1.9375 z"
       id="path3828"
       sodipodi:nodetypes="cccccccccccccccscccccccccccccccccccccccccccccccccccccc" />
    <g
       transform="matrix(0.1337942,0,0,0.1337942,31.527762,-41.046564)"
       inkscape:label="Calque 1"
       id="g3830" />
    <g
       transform="matrix(0.1672428,0,0,0.1672428,38.442916,-56.622786)"
       inkscape:label="Calque 1"
       id="g3832" />
    <path
       style="font-size:medium;font-style:normal;font-variant:normal;font-weight:normal;font-stretch:normal;text-indent:0;text-align:start;text-decoration:none;line-height:normal;letter-spacing:normal;word-spacing:normal;text-transform:none;direction:ltr;block-progression:tb;writing-mode:lr-tb;text-anchor:start;color:#000000;fill:#000000;fill-opacity:1;fill-rule:nonzero;stroke:none;stroke-width:3;marker:none;visibility:visible;display:inline;overflow:visible;enable-background:accumulate;font-family:Bitstream Charter;-inkscape-font-specification:Bitstream Charter"
       d="m 37.9995,32 -0.65625,0.71875 -3.03125,3.4375 -5.84375,2.09375 -2.65625,0.96875 2.28125,1.65625 6.84375,4.96875 0.625,0.46875 0.75,-0.25 6.65625,-2.34375 0.75,-0.25 0.1875,-0.75 1.875,-6.75 0.40625,-1.375 -1.375,-0.4375 L 38.937,32.3125 37.9995,32 z m 0.9375,3.4375 3.59375,1.125 -1.28125,4.5625 -5.21875,1.84375 -3.875,-2.84375 3.5625,-1.28125 0.34375,-0.125 0.25,-0.28125 2.625,-3 z"
       id="path2834" />
  </g>
</svg>
