<?xml version="1.0" encoding="UTF-8" standalone="no"?>
<!-- Created with Inkscape (http://www.inkscape.org/) -->

<svg
   xmlns:dc="http://purl.org/dc/elements/1.1/"
   xmlns:cc="http://creativecommons.org/ns#"
   xmlns:rdf="http://www.w3.org/1999/02/22-rdf-syntax-ns#"
   xmlns:svg="http://www.w3.org/2000/svg"
   xmlns="http://www.w3.org/2000/svg"
   xmlns:xlink="http://www.w3.org/1999/xlink"
   xmlns:sodipodi="http://sodipodi.sourceforge.net/DTD/sodipodi-0.dtd"
   xmlns:inkscape="http://www.inkscape.org/namespaces/inkscape"
   width="48px"
   height="48px"
   id="svg2911"
   version="1.1"
   inkscape:version="0.47 r22583"
   sodipodi:docname="Nouveau document 2">
  <defs
     id="defs2913">
    <linearGradient
       inkscape:collect="always"
       xlink:href="#linearGradient3172-3"
       id="linearGradient3241"
       gradientUnits="userSpaceOnUse"
       gradientTransform="matrix(0.644962,0,0,1.1832362,9.235153,4.0163366)"
       x1="22.892584"
       y1="0.90414524"
       x2="22.892584"
       y2="21.132059" />
    <linearGradient
       id="linearGradient3172-3">
      <stop
         id="stop3174-4"
         offset="0"
         style="stop-color:#4d4d4d;stop-opacity:1;" />
      <stop
         id="stop3176-0"
         offset="1"
         style="stop-color:#4d4d4d;stop-opacity:0;" />
    </linearGradient>
  </defs>
  <sodipodi:namedview
     id="base"
     pagecolor="#ffffff"
     bordercolor="#666666"
     borderopacity="1.0"
     inkscape:pageopacity="0.0"
     inkscape:pageshadow="2"
     inkscape:zoom="7"
     inkscape:cx="24"
     inkscape:cy="24"
     inkscape:current-layer="layer1"
     showgrid="true"
     inkscape:grid-bbox="true"
     inkscape:document-units="px"
     inkscape:window-width="596"
     inkscape:window-height="502"
     inkscape:window-x="768"
     inkscape:window-y="242"
     inkscape:window-maximized="0" />
  <metadata
     id="metadata2916">
    <rdf:RDF>
      <cc:Work
         rdf:about="">
        <dc:format>image/svg+xml</dc:format>
        <dc:type
           rdf:resource="http://purl.org/dc/dcmitype/StillImage" />
        <dc:title></dc:title>
      </cc:Work>
    </rdf:RDF>
  </metadata>
  <g
     id="layer1"
     inkscape:label="Layer 1"
     inkscape:groupmode="layer">
    <path
       style="fill:#000000;fill-opacity:1;stroke:none"
       d="M 9.5625,7 C 9.23957,7 9,7.252197 9,7.5625 l 0,32.875 c 0,0.310303 0.225071,0.53125 0.5625,0.53125 L 30.15625,41 c 0.01018,-0.0098 0.02202,-0.02239 0.03125,-0.03125 0.0055,-0.0053 -0.005,-0.02646 0,-0.03125 0.01789,-0.02132 0.04763,0.0137 0.0625,0 L 39,32.625 39,7.5625 C 38.999998,7.238267 38.791681,7 38.46875,7 L 9.5625,7 z m 21.5625,7 c 0.49707,-0.02204 0.78811,0.407803 0.84375,0.84375 0.01994,4.385844 -0.0066,8.770392 0,13.15625 0.279232,2.338237 -2.288686,4.678862 -4.65625,3.9375 C 26.047703,31.575741 25.250393,30.439368 25.5,28.90625 25.85292,26.758319 28.338952,25.413875 30.46875,26 l 0,-7.9375 C 27.84391,18.424746 25.124947,19.419686 22.5,19.78125 l 0,10.3125 C 22.713109,32.060346 20.990306,33.90249 19,34 c -1.468279,0.132337 -3.100067,-1.086235 -3,-2.53125 0.019,-2.250166 2.777383,-3.9107 5,-3.4375 l 0,-9.625 C 21.05578,17.662785 20.696828,16.414984 21.5625,16 c 3.180519,-0.498666 6.379485,-1.513755 9.5625,-2 z"
       id="rect3565" />
    <path
       style="fill:url(#linearGradient3241);fill-opacity:1;stroke:none"
       d="m 24,29.65625 c -0.509476,0 -0.998377,-0.01473 -1.5,-0.03125 l 0,-9.84375 c 2.624947,-0.361564 5.34391,-1.356504 7.96875,-1.71875 l 0,7.9375 C 28.338952,25.413875 25.85292,26.758319 25.5,28.90625 25.45909,29.157544 25.45596,29.396688 25.46875,29.625 24.977402,29.64084 24.498867,29.65625 24,29.65625 z m -6.78125,-0.5625 C 14.18335,28.621575 11.405433,27.863421 9,26.84375 L 9,7.5625 C 9,7.252197 9.23957,7 9.5625,7 L 38.46875,7 C 38.791681,7 38.999998,7.238267 39,7.5625 l 0,19.28125 c -2.095951,0.888481 -4.475513,1.582978 -7.0625,2.0625 0.05278,-0.296324 0.06743,-0.603297 0.03125,-0.90625 -0.0066,-4.385858 0.01994,-8.770406 0,-13.15625 C 31.91311,14.407803 31.62207,13.97796 31.125,14 27.941985,14.486245 24.743019,15.501334 21.5625,16 20.696828,16.414984 21.05578,17.662785 21,18.40625 l 0,9.625 c -1.299048,-0.27657 -2.770066,0.189581 -3.78125,1.0625 z"
       id="path3227" />
  </g>
</svg>
