<?xml version="1.0" encoding="UTF-8" standalone="no"?>
<!-- Created with Inkscape (http://www.inkscape.org/) -->

<svg
   xmlns:dc="http://purl.org/dc/elements/1.1/"
   xmlns:cc="http://creativecommons.org/ns#"
   xmlns:rdf="http://www.w3.org/1999/02/22-rdf-syntax-ns#"
   xmlns:svg="http://www.w3.org/2000/svg"
   xmlns="http://www.w3.org/2000/svg"
   xmlns:xlink="http://www.w3.org/1999/xlink"
   xmlns:sodipodi="http://sodipodi.sourceforge.net/DTD/sodipodi-0.dtd"
   xmlns:inkscape="http://www.inkscape.org/namespaces/inkscape"
   width="48px"
   height="48px"
   id="svg3111"
   version="1.1"
   inkscape:version="0.47 r22583"
   sodipodi:docname="Nouveau document 6">
  <defs
     id="defs3113">
    <linearGradient
       inkscape:collect="always"
       xlink:href="#linearGradient3172-8"
       id="linearGradient3091"
       gradientUnits="userSpaceOnUse"
       gradientTransform="matrix(0.644962,0,0,1.1832362,9.235153,4.016337)"
       x1="22.892584"
       y1="0.90414524"
       x2="22.892584"
       y2="21.132059" />
    <linearGradient
       id="linearGradient3172-8">
      <stop
         id="stop3174-5"
         offset="0"
         style="stop-color:#4d4d4d;stop-opacity:1;" />
      <stop
         id="stop3176-7"
         offset="1"
         style="stop-color:#4d4d4d;stop-opacity:0;" />
    </linearGradient>
  </defs>
  <sodipodi:namedview
     id="base"
     pagecolor="#ffffff"
     bordercolor="#666666"
     borderopacity="1.0"
     inkscape:pageopacity="0.0"
     inkscape:pageshadow="2"
     inkscape:zoom="7"
     inkscape:cx="24"
     inkscape:cy="24"
     inkscape:current-layer="layer1"
     showgrid="true"
     inkscape:grid-bbox="true"
     inkscape:document-units="px"
     inkscape:window-width="596"
     inkscape:window-height="502"
     inkscape:window-x="768"
     inkscape:window-y="242"
     inkscape:window-maximized="0" />
  <metadata
     id="metadata3116">
    <rdf:RDF>
      <cc:Work
         rdf:about="">
        <dc:format>image/svg+xml</dc:format>
        <dc:type
           rdf:resource="http://purl.org/dc/dcmitype/StillImage" />
        <dc:title></dc:title>
      </cc:Work>
    </rdf:RDF>
  </metadata>
  <g
     id="layer1"
     inkscape:label="Layer 1"
     inkscape:groupmode="layer">
    <path
       style="fill:#000000;fill-opacity:1;stroke:none"
       d="M 9.5625,7 C 9.23957,7 9,7.252197 9,7.5625 l 0,32.875 c 0,0.310303 0.225071,0.53125 0.5625,0.53125 L 30.15625,41 c 0.01018,-0.0098 0.02202,-0.02239 0.03125,-0.03125 0.0055,-0.0053 -0.005,-0.02646 0,-0.03125 0.01789,-0.02132 0.04763,0.0137 0.0625,0 L 39,32.625 39,7.5625 C 38.999998,7.238267 38.791681,7 38.46875,7 L 9.5625,7 z m 14.5,7 c 0.488635,8.8e-5 0.967923,0.02584 1.4375,0.09375 l 0.15625,2.71875 c 0.833428,0.187754 1.61344,0.493706 2.3125,0.9375 L 30.03125,16 c 0.974813,0.625175 1.471779,1.067945 2.03125,2.03125 l -1.78125,2.03125 c 0.439807,0.701589 0.754485,1.477996 0.9375,2.3125 l 2.6875,0.1875 C 33.9715,23.032467 34.0027,23.51136 34,24 c -0.0027,0.488643 -0.05459,0.967556 -0.125,1.4375 l -2.6875,0.1875 c -0.19219,0.834436 -0.521231,1.611071 -0.96875,2.3125 l 1.75,2.03125 c -0.630369,0.97815 -1.049564,1.437674 -2.03125,2.0625 L 27.90625,30.25 c -0.70394,0.443543 -1.47701,0.750045 -2.3125,0.9375 L 25.375,33.90625 C 24.904678,33.974 24.426133,34.00009 23.9375,34 23.448866,33.999913 22.969578,33.97416 22.5,33.90625 L 22.34375,31.1875 C 21.510321,30.999747 20.730312,30.693793 20.03125,30.25 L 17.96875,32 C 16.993938,31.374826 16.557114,30.947122 15.9375,29.96875 l 1.78125,-2.03125 c -0.439807,-0.701589 -0.754486,-1.477996 -0.9375,-2.3125 l -2.6875,-0.1875 C 14.0285,24.967532 13.9973,24.488642 14,24 c 0.0027,-0.488642 0.05459,-0.967556 0.125,-1.4375 l 2.6875,-0.1875 c 0.192188,-0.834435 0.52123,-1.61107 0.96875,-2.3125 l -1.75,-2.03125 c 0.630369,-0.978149 1.049567,-1.437674 2.03125,-2.0625 L 20.09375,17.75 c 0.703939,-0.443543 1.477012,-0.750045 2.3125,-0.9375 L 22.625,14.09375 C 23.095324,14.02601 23.573866,13.99991 24.0625,14 z M 24,21.8125 C 22.800013,21.812286 21.8191,22.799998 21.8125,24 21.8059,25.200003 22.800014,26.187285 24,26.1875 25.199988,26.187714 26.1809,25.200002 26.1875,24 26.1941,22.799998 25.199984,21.812715 24,21.8125 z"
       id="rect3565" />
    <path
       style="fill:url(#linearGradient3091);fill-opacity:1;stroke:none"
       d="m 31.1875,29.0625 -0.96875,-1.125 c 0.447519,-0.701429 0.77656,-1.478064 0.96875,-2.3125 L 33.875,25.4375 C 33.94541,24.967556 33.997312,24.488643 34,24 34.0027,23.51136 33.9715,23.032467 33.90625,22.5625 l -2.6875,-0.1875 c -0.183015,-0.834504 -0.497693,-1.610911 -0.9375,-2.3125 L 32.0625,18.03125 C 31.503029,17.067945 31.006063,16.625175 30.03125,16 l -2.0625,1.75 c -0.69906,-0.443794 -1.479072,-0.749746 -2.3125,-0.9375 L 25.5,14.09375 C 25.030423,14.02584 24.551135,14.00009 24.0625,14 c -0.488634,-9e-5 -0.967176,0.02601 -1.4375,0.09375 l -0.21875,2.71875 c -0.835488,0.187455 -1.608561,0.493957 -2.3125,0.9375 L 18.0625,15.96875 c -0.981683,0.624826 -1.400881,1.084351 -2.03125,2.0625 l 1.75,2.03125 c -0.44752,0.70143 -0.776562,1.478065 -0.96875,2.3125 L 14.125,22.5625 C 14.05459,23.032444 14.0027,23.511358 14,24 c -0.0027,0.488642 0.0285,0.967532 0.09375,1.4375 l 2.6875,0.1875 c 0.183014,0.834504 0.497693,1.610911 0.9375,2.3125 L 16.75,29.03125 C 13.895646,28.553461 11.281557,27.81091 9,26.84375 L 9,7.5625 C 9,7.252197 9.23957,7 9.5625,7 L 38.46875,7 C 38.791681,7 38.999998,7.238267 39,7.5625 l 0,19.28125 c -2.299381,0.974716 -4.93222,1.741547 -7.8125,2.21875 z M 24,26.1875 C 22.800014,26.187285 21.805904,25.200003 21.8125,24 21.8191,22.799998 22.800013,21.812286 24,21.8125 25.199984,21.812715 26.1941,22.799998 26.1875,24 26.1809,25.200002 25.199988,26.187714 24,26.1875 z"
       id="path3077" />
  </g>
</svg>
