<?xml version="1.0" encoding="UTF-8" standalone="no"?>
<!-- Created with Inkscape (http://www.inkscape.org/) -->

<svg
   xmlns:dc="http://purl.org/dc/elements/1.1/"
   xmlns:cc="http://creativecommons.org/ns#"
   xmlns:rdf="http://www.w3.org/1999/02/22-rdf-syntax-ns#"
   xmlns:svg="http://www.w3.org/2000/svg"
   xmlns="http://www.w3.org/2000/svg"
   xmlns:xlink="http://www.w3.org/1999/xlink"
   xmlns:sodipodi="http://sodipodi.sourceforge.net/DTD/sodipodi-0.dtd"
   xmlns:inkscape="http://www.inkscape.org/namespaces/inkscape"
   width="48px"
   height="48px"
   id="svg2870"
   version="1.1"
   inkscape:version="0.47 r22583"
   sodipodi:docname="Nouveau document 2">
  <defs
     id="defs2872">
    <inkscape:perspective
       sodipodi:type="inkscape:persp3d"
       inkscape:vp_x="0 : 24 : 1"
       inkscape:vp_y="0 : 1000 : 0"
       inkscape:vp_z="48 : 24 : 1"
       inkscape:persp3d-origin="24 : 16 : 1"
       id="perspective2878" />
    <inkscape:perspective
       id="perspective2860"
       inkscape:persp3d-origin="0.5 : 0.33333333 : 1"
       inkscape:vp_z="1 : 0.5 : 1"
       inkscape:vp_y="0 : 1000 : 0"
       inkscape:vp_x="0 : 0.5 : 1"
       sodipodi:type="inkscape:persp3d" />
    <linearGradient
       inkscape:collect="always"
       xlink:href="#linearGradient3172-6"
       id="linearGradient3048"
       gradientUnits="userSpaceOnUse"
       gradientTransform="matrix(0.644962,0,0,1.1832362,9.235153,4.016337)"
       x1="22.892584"
       y1="0.90414524"
       x2="22.892584"
       y2="21.132059" />
    <linearGradient
       id="linearGradient3172-6">
      <stop
         id="stop3174-2"
         offset="0"
         style="stop-color:#4d4d4d;stop-opacity:1;" />
      <stop
         id="stop3176-8"
         offset="1"
         style="stop-color:#4d4d4d;stop-opacity:0;" />
    </linearGradient>
  </defs>
  <sodipodi:namedview
     id="base"
     pagecolor="#ffffff"
     bordercolor="#666666"
     borderopacity="1.0"
     inkscape:pageopacity="0.0"
     inkscape:pageshadow="2"
     inkscape:zoom="7"
     inkscape:cx="24"
     inkscape:cy="24"
     inkscape:current-layer="layer1"
     showgrid="true"
     inkscape:grid-bbox="true"
     inkscape:document-units="px"
     inkscape:window-width="596"
     inkscape:window-height="502"
     inkscape:window-x="768"
     inkscape:window-y="24"
     inkscape:window-maximized="0" />
  <metadata
     id="metadata2875">
    <rdf:RDF>
      <cc:Work
         rdf:about="">
        <dc:format>image/svg+xml</dc:format>
        <dc:type
           rdf:resource="http://purl.org/dc/dcmitype/StillImage" />
        <dc:title></dc:title>
      </cc:Work>
    </rdf:RDF>
  </metadata>
  <g
     id="layer1"
     inkscape:label="Layer 1"
     inkscape:groupmode="layer">
    <path
       style="fill:#000000;fill-opacity:1;stroke:none"
       d="M 9.5625,7 C 9.23957,7 9,7.252197 9,7.5625 l 0,32.875 c 0,0.310303 0.225071,0.53125 0.5625,0.53125 L 30.15625,41 c 0.01018,-0.0098 0.02202,-0.02239 0.03125,-0.03125 0.0055,-0.0053 -0.005,-0.02646 0,-0.03125 0.01789,-0.02132 0.04763,0.0137 0.0625,0 L 39,32.625 39,7.5625 C 38.999998,7.238267 38.791681,7 38.46875,7 L 9.5625,7 z m 10.71875,7 c 0.107359,-0.0086 0.202966,-0.01046 0.3125,0 0.219069,0.02092 0.432681,0.08089 0.625,0.1875 0.384638,0.213214 0.648766,0.578893 0.8125,0.9375 0.327468,0.717216 0.39537,1.558275 0.375,2.5625 -0.01124,0.554386 -0.04965,1.148687 -0.125,1.78125 0.844224,1.135036 1.814093,2.33912 2.9375,3.5 1.124243,1.161744 2.269201,2.182844 3.375,3.0625 0.633141,-0.05957 1.228046,-0.09705 1.78125,-0.09375 0.998029,0.0061 1.858748,0.0891 2.5625,0.4375 0.351876,0.174201 0.673381,0.419901 0.875,0.8125 0.201624,0.392599 0.241756,0.896065 0.125,1.3125 -0.116755,0.416435 -0.405456,0.802619 -0.78125,1.03125 -0.375794,0.228637 -0.797045,0.2866 -1.1875,0.25 -0.780911,-0.0732 -1.552278,-0.448889 -2.40625,-0.96875 -0.471152,-0.286816 -0.962416,-0.64958 -1.46875,-1.03125 -1.399731,0.168185 -2.906705,0.444711 -4.46875,0.84375 -1.561439,0.398883 -3.002848,0.913692 -4.3125,1.4375 -0.264024,0.578136 -0.534464,1.115769 -0.8125,1.59375 -0.504222,0.866824 -1.004568,1.560834 -1.65625,2 C 16.517909,33.875833 16.126148,34.02058 15.6875,34 15.248851,33.97943 14.831221,33.747478 14.53125,33.4375 14.231278,33.127522 14.0088,32.723095 14,32.28125 c -0.0088,-0.441845 0.179529,-0.865491 0.40625,-1.1875 0.453444,-0.644017 1.125664,-1.109386 2,-1.59375 0.483329,-0.267754 1.042096,-0.53033 1.625,-0.78125 0.554777,-1.303553 1.093871,-2.75249 1.53125,-4.3125 0.436693,-1.557557 0.733279,-3.067229 0.9375,-4.46875 -0.368598,-0.522983 -0.694567,-1.046591 -0.96875,-1.53125 -0.493807,-0.872875 -0.85418,-1.649931 -0.90625,-2.4375 -0.02604,-0.393784 0.04422,-0.815475 0.28125,-1.1875 0.237029,-0.372025 0.645772,-0.612294 1.0625,-0.71875 0.104182,-0.02662 0.205141,-0.05393 0.3125,-0.0625 z m 0.15625,1.65625 c 0.01402,0.0078 0.04792,0.003 -0.0625,0.03125 -0.11042,0.0282 -0.0711,0.01356 -0.0625,0 0.0086,-0.01356 -0.04137,0.03437 -0.03125,0.1875 0.01524,0.230449 0.190057,0.696054 0.4375,1.21875 -0.03007,-0.579687 -0.09151,-1.071021 -0.1875,-1.28125 -0.06367,-0.13945 -0.10777,-0.16405 -0.09375,-0.15625 z m 1.46875,6.0625 c -0.204148,1.033226 -0.452076,2.093643 -0.75,3.15625 -0.297849,1.062343 -0.637497,2.074487 -1,3.0625 0.990367,-0.338312 2.000142,-0.666112 3.0625,-0.9375 1.061909,-0.271275 2.125854,-0.478267 3.15625,-0.65625 -0.78688,-0.694429 -1.578473,-1.427945 -2.34375,-2.21875 -0.764617,-0.790121 -1.456486,-1.596947 -2.125,-2.40625 z m 9.03125,5.9375 c 0.510396,0.26112 0.959742,0.41615 1.1875,0.4375 0.151845,0.01423 0.2012,-0.0083 0.1875,0 -0.01369,0.0083 -0.03094,0.04785 0,-0.0625 0.03096,-0.11035 0.02395,-0.07681 0.03125,-0.0625 0.0073,0.01431 -0.01941,-0.02601 -0.15625,-0.09375 -0.205254,-0.101614 -0.67926,-0.17286 -1.25,-0.21875 z m -14.1875,3.625 c -0.485174,0.316676 -0.866853,0.592144 -1,0.78125 -0.08813,0.125226 -0.09343,0.17235 -0.09375,0.15625 -3.3e-4,-0.0161 -0.01699,-0.01964 0.0625,0.0625 0.07949,0.08214 0.04724,0.06325 0.03125,0.0625 -0.01599,-7.5e-4 0.02954,-0.0084 0.15625,-0.09375 0.1911,-0.128782 0.516877,-0.490059 0.84375,-0.96875 z"
       id="rect3565" />
    <path
       style="fill:url(#linearGradient3048);fill-opacity:1;stroke:none"
       d="m 24,29.65625 c -1.096567,0 -2.161067,-0.04978 -3.21875,-0.125 0.903072,-0.32457 1.837933,-0.649305 2.84375,-0.90625 1.562045,-0.399039 3.069019,-0.675565 4.46875,-0.84375 0.506334,0.38167 0.997598,0.744434 1.46875,1.03125 0.213493,0.129965 0.420393,0.26553 0.625,0.375 C 28.209327,29.465989 26.143893,29.65625 24,29.65625 z M 17.21875,29.125 C 14.181728,28.652891 11.406536,27.863889 9,26.84375 L 9,7.5625 C 9,7.252197 9.23957,7 9.5625,7 L 38.46875,7 C 38.791681,7 38.999998,7.238267 39,7.5625 l 0,19.28125 c -1.54629,0.655478 -3.236634,1.216865 -5.0625,1.65625 0.116756,-0.416435 0.07662,-0.919901 -0.125,-1.3125 -0.201619,-0.392599 -0.523124,-0.638299 -0.875,-0.8125 -0.703752,-0.3484 -1.564471,-0.4314 -2.5625,-0.4375 -0.553204,-0.0033 -1.148109,0.03418 -1.78125,0.09375 -1.105799,-0.879656 -2.250757,-1.900756 -3.375,-3.0625 -1.123407,-1.16088 -2.093276,-2.364964 -2.9375,-3.5 0.07535,-0.632563 0.11376,-1.226864 0.125,-1.78125 0.02037,-1.004225 -0.04753,-1.845284 -0.375,-2.5625 -0.163734,-0.358607 -0.427862,-0.724286 -0.8125,-0.9375 -0.192319,-0.10661 -0.405931,-0.16658 -0.625,-0.1875 -0.109534,-0.01046 -0.205141,-0.0086 -0.3125,0 -0.107359,0.0086 -0.208318,0.03588 -0.3125,0.0625 -0.416728,0.106456 -0.825471,0.346725 -1.0625,0.71875 -0.23703,0.372025 -0.30729,0.793716 -0.28125,1.1875 0.05207,0.787569 0.412443,1.564625 0.90625,2.4375 0.274183,0.484659 0.600152,1.008267 0.96875,1.53125 -0.204221,1.401521 -0.500807,2.911193 -0.9375,4.46875 -0.437379,1.56001 -0.976473,3.008947 -1.53125,4.3125 -0.293641,0.126402 -0.537668,0.27476 -0.8125,0.40625 z M 32.125,28.09375 c -0.227758,-0.02135 -0.677104,-0.17638 -1.1875,-0.4375 0.57074,0.04589 1.044746,0.117136 1.25,0.21875 0.13684,0.06774 0.16355,0.10806 0.15625,0.09375 -0.0073,-0.01431 -2.9e-4,-0.04785 -0.03125,0.0625 -0.03094,0.11035 -0.01369,0.0708 0,0.0625 0.0137,-0.0083 -0.03565,0.01423 -0.1875,0 z M 20.15625,27.9375 c 0.362503,-0.988013 0.702151,-2.000157 1,-3.0625 0.297924,-1.062607 0.545852,-2.123024 0.75,-3.15625 0.668514,0.809303 1.360383,1.616129 2.125,2.40625 0.765277,0.790805 1.55687,1.524321 2.34375,2.21875 -1.030396,0.177983 -2.094341,0.384975 -3.15625,0.65625 -1.062358,0.271388 -2.072133,0.599188 -3.0625,0.9375 z m 0.5625,-10.84375 c -0.247443,-0.522696 -0.42226,-0.988301 -0.4375,-1.21875 -0.01012,-0.15313 0.03985,-0.20106 0.03125,-0.1875 -0.0086,0.01356 -0.04792,0.0282 0.0625,0 0.11042,-0.02825 0.07652,-0.02345 0.0625,-0.03125 -0.01402,-0.0078 0.03008,0.0168 0.09375,0.15625 0.09599,0.210229 0.15743,0.701563 0.1875,1.28125 z"
       id="path3034" />
  </g>
</svg>
