<?xml version="1.0" encoding="UTF-8" standalone="no"?>
<!-- Created with Inkscape (http://www.inkscape.org/) -->

<svg
   xmlns:dc="http://purl.org/dc/elements/1.1/"
   xmlns:cc="http://creativecommons.org/ns#"
   xmlns:rdf="http://www.w3.org/1999/02/22-rdf-syntax-ns#"
   xmlns:svg="http://www.w3.org/2000/svg"
   xmlns="http://www.w3.org/2000/svg"
   xmlns:xlink="http://www.w3.org/1999/xlink"
   xmlns:sodipodi="http://sodipodi.sourceforge.net/DTD/sodipodi-0.dtd"
   xmlns:inkscape="http://www.inkscape.org/namespaces/inkscape"
   width="48px"
   height="48px"
   id="svg2843"
   version="1.1"
   inkscape:version="0.47 r22583"
   sodipodi:docname="Nouveau document 2">
  <defs
     id="defs2845">
    <linearGradient
       inkscape:collect="always"
       xlink:href="#linearGradient3172"
       id="linearGradient3216"
       gradientUnits="userSpaceOnUse"
       gradientTransform="matrix(0.644962,0,0,1.1832362,9.235153,4.016337)"
       x1="22.892584"
       y1="0.90414524"
       x2="22.892584"
       y2="21.132059" />
    <linearGradient
       id="linearGradient3172">
      <stop
         id="stop3174"
         offset="0"
         style="stop-color:#4d4d4d;stop-opacity:1;" />
      <stop
         id="stop3176"
         offset="1"
         style="stop-color:#4d4d4d;stop-opacity:0;" />
    </linearGradient>
  </defs>
  <sodipodi:namedview
     id="base"
     pagecolor="#ffffff"
     bordercolor="#666666"
     borderopacity="1.0"
     inkscape:pageopacity="0.0"
     inkscape:pageshadow="2"
     inkscape:zoom="7"
     inkscape:cx="24"
     inkscape:cy="24"
     inkscape:current-layer="layer1"
     showgrid="true"
     inkscape:grid-bbox="true"
     inkscape:document-units="px"
     inkscape:window-width="596"
     inkscape:window-height="502"
     inkscape:window-x="768"
     inkscape:window-y="24"
     inkscape:window-maximized="0" />
  <metadata
     id="metadata2848">
    <rdf:RDF>
      <cc:Work
         rdf:about="">
        <dc:format>image/svg+xml</dc:format>
        <dc:type
           rdf:resource="http://purl.org/dc/dcmitype/StillImage" />
        <dc:title></dc:title>
      </cc:Work>
    </rdf:RDF>
  </metadata>
  <g
     id="layer1"
     inkscape:label="Layer 1"
     inkscape:groupmode="layer">
    <path
       style="fill:#000000;fill-opacity:1;stroke:none"
       d="M 9.5625,7 C 9.23957,7 9,7.252197 9,7.5625 l 0,32.875 c 0,0.310303 0.225071,0.53125 0.5625,0.53125 L 30.15625,41 c 0.01018,-0.0098 0.02202,-0.02239 0.03125,-0.03125 0.0055,-0.0053 -0.005,-0.02646 0,-0.03125 0.01789,-0.02132 0.04763,0.0137 0.0625,0 L 39,32.625 39,7.5625 C 38.999998,7.238267 38.791681,7 38.46875,7 L 9.5625,7 z M 24,14 c 0.225578,0 0.434444,0.01641 0.65625,0.03125 0.0044,0.0029 0.02685,-0.0029 0.03125,0 2.380981,0.163919 4.521853,1.17654 6.15625,2.71875 0.219269,0.206902 0.425118,0.399208 0.625,0.625 0.198211,0.223906 0.41598,0.477644 0.59375,0.71875 C 33.28561,19.752629 34,21.78234 34,24 c 0,2.21766 -0.745638,4.24737 -1.96875,5.90625 -0.17777,0.241106 -0.364289,0.494844 -0.5625,0.71875 -0.199881,0.225792 -0.405731,0.449348 -0.625,0.65625 -1.634396,1.542209 -3.77527,2.523581 -6.15625,2.6875 -0.0044,0.0029 -0.02685,-0.0029 -0.03125,0 C 24.434446,33.98358 24.225578,34 24,34 c -0.225578,0 -0.434444,-0.01642 -0.65625,-0.03125 -0.0044,-0.0029 -0.02685,0.0029 -0.03125,0 -2.380981,-0.163919 -4.521853,-1.14529 -6.15625,-2.6875 C 16.936981,31.074348 16.731132,30.850792 16.53125,30.625 16.33304,30.401094 16.11527,30.147356 15.9375,29.90625 14.714391,28.24737 14,26.21766 14,24 c 0,-2.21766 0.714391,-4.24737 1.9375,-5.90625 0.17777,-0.241107 0.39554,-0.494844 0.59375,-0.71875 0.199882,-0.225793 0.405731,-0.418099 0.625,-0.625 1.634397,-1.54221 3.775268,-2.554831 6.15625,-2.71875 0.0044,-0.0029 0.02685,0.0029 0.03125,0 C 23.565555,14.01642 23.774422,14 24,14 z m 0,1.75 c -0.169098,0 -0.333599,0.0212 -0.5,0.03125 -0.745996,0.710378 -1.378297,1.649042 -1.875,2.75 0.745845,0.113431 1.542286,0.1875 2.375,0.1875 0.832714,0 1.629154,-0.07407 2.375,-0.1875 -0.496703,-1.100958 -1.129003,-2.039622 -1.875,-2.75 C 24.333599,15.77122 24.169098,15.75 24,15.75 z m -2.875,0.53125 c -0.894736,0.336063 -1.719204,0.828628 -2.4375,1.4375 0.419212,0.187322 0.898594,0.328023 1.40625,0.46875 0.292036,-0.700529 0.644697,-1.326106 1.03125,-1.90625 z m 5.75,0 c 0.386553,0.580144 0.739215,1.205721 1.03125,1.90625 0.507657,-0.140727 0.987038,-0.281428 1.40625,-0.46875 -0.718296,-0.608872 -1.542764,-1.101437 -2.4375,-1.4375 z m -9.40625,2.6875 c -0.932891,1.20833 -1.543119,2.676637 -1.6875,4.28125 l 3.25,0 c 0.05592,-1.260894 0.245662,-2.456149 0.5625,-3.5625 -0.77632,-0.190266 -1.506163,-0.441385 -2.125,-0.71875 z m 13.0625,0 c -0.618838,0.277365 -1.348681,0.528484 -2.125,0.71875 0.316837,1.106351 0.50658,2.301606 0.5625,3.5625 l 3.21875,0 c -0.144381,-1.604613 -0.723358,-3.07292 -1.65625,-4.28125 z m -9.46875,1 C 20.758015,20.980518 20.56113,22.088788 20.5,23.25 l 3.5,0 3.5,0 C 27.43887,22.088788 27.241985,20.980518 26.9375,19.96875 26.018659,20.106434 25.023979,20.1875 24,20.1875 c -1.023979,0 -2.018659,-0.08107 -2.9375,-0.21875 z m -5.25,4.78125 c 0.144381,1.604613 0.723359,3.07292 1.65625,4.28125 0.618837,-0.277366 1.34868,-0.528484 2.125,-0.71875 -0.316838,-1.106352 -0.50658,-2.301605 -0.5625,-3.5625 l -3.21875,0 z m 4.6875,0 c 0.06113,1.161212 0.258015,2.269483 0.5625,3.28125 0.918841,-0.137683 1.913521,-0.21875 2.9375,-0.21875 1.023979,0 2.018659,0.08107 2.9375,0.21875 C 27.241985,27.019483 27.43887,25.911213 27.5,24.75 l -3.5,0 -3.5,0 z m 8.46875,0 c -0.05592,1.260895 -0.245663,2.456148 -0.5625,3.5625 0.776319,0.190266 1.506162,0.441384 2.125,0.71875 0.932891,-1.20833 1.511869,-2.676636 1.65625,-4.28125 l -3.21875,0 z M 24,29.28125 c -0.832714,0 -1.629155,0.07407 -2.375,0.1875 0.496703,1.100957 1.129004,2.039623 1.875,2.75 0.166401,0.01003 0.330902,0.03125 0.5,0.03125 0.169098,0 0.333599,-0.0212 0.5,-0.03125 0.745997,-0.710377 1.378297,-1.649043 1.875,-2.75 -0.745846,-0.113431 -1.542286,-0.1875 -2.375,-0.1875 z m -3.90625,0.53125 c -0.507656,0.140726 -0.987038,0.281429 -1.40625,0.46875 0.718296,0.608873 1.542764,1.101437 2.4375,1.4375 -0.386553,-0.580145 -0.739214,-1.205721 -1.03125,-1.90625 z m 7.8125,0 c -0.292036,0.700529 -0.644697,1.326105 -1.03125,1.90625 0.894736,-0.336063 1.719204,-0.828627 2.4375,-1.4375 -0.419212,-0.187322 -0.898593,-0.328024 -1.40625,-0.46875 z"
       id="rect3565" />
    <path
       style="fill:url(#linearGradient3216);fill-opacity:1;stroke:none"
       d="m 24,29.65625 c -0.785566,0 -1.546208,-0.02354 -2.3125,-0.0625 -0.02013,-0.04316 -0.0428,-0.08132 -0.0625,-0.125 0.745845,-0.11343 1.542286,-0.1875 2.375,-0.1875 0.832714,0 1.629154,0.07407 2.375,0.1875 -0.0197,0.04368 -0.04237,0.08184 -0.0625,0.125 -0.766292,0.03896 -1.526934,0.0625 -2.3125,0.0625 z m -6.53125,-0.625 C 16.535859,27.82292 15.956881,26.354613 15.8125,24.75 l 3.21875,0 c 0.05592,1.260895 0.245662,2.456148 0.5625,3.5625 -0.77632,0.190266 -1.506163,0.441384 -2.125,0.71875 z m 13.0625,0 c -0.618838,-0.277366 -1.348681,-0.528484 -2.125,-0.71875 0.316837,-1.106352 0.50658,-2.301605 0.5625,-3.5625 l 3.21875,0 c -0.144381,1.604614 -0.723359,3.07292 -1.65625,4.28125 z M 15.21875,28.75 C 12.953222,28.279057 10.868027,27.635613 9,26.84375 L 9,7.5625 C 9,7.252197 9.23957,7 9.5625,7 L 38.46875,7 C 38.791681,7 38.999998,7.238267 39,7.5625 l 0,19.28125 C 37.123808,27.639074 35.026905,28.27855 32.75,28.75 33.52831,27.336928 34,25.727691 34,24 34,21.78234 33.28561,19.752629 32.0625,18.09375 31.88473,17.852644 31.666961,17.598906 31.46875,17.375 c -0.199882,-0.225792 -0.405731,-0.418098 -0.625,-0.625 -1.634397,-1.54221 -3.775269,-2.554831 -6.15625,-2.71875 -0.0044,-0.0029 -0.02685,0.0029 -0.03125,0 C 24.434444,14.01641 24.225578,14 24,14 c -0.225578,0 -0.434445,0.01642 -0.65625,0.03125 -0.0044,0.0029 -0.02685,-0.0029 -0.03125,0 -2.380982,0.163919 -4.521853,1.17654 -6.15625,2.71875 -0.219269,0.206901 -0.425118,0.399207 -0.625,0.625 -0.19821,0.223906 -0.41598,0.477643 -0.59375,0.71875 C 14.714391,19.75263 14,21.78234 14,24 c 0,1.727691 0.448822,3.336928 1.21875,4.75 z M 21.0625,28.03125 C 20.758015,27.019483 20.56113,25.911212 20.5,24.75 l 3.5,0 3.5,0 c -0.06113,1.161213 -0.258015,2.269483 -0.5625,3.28125 C 26.018659,27.89357 25.023979,27.8125 24,27.8125 c -1.023979,0 -2.018659,0.08107 -2.9375,0.21875 z M 15.78125,23.25 c 0.144381,-1.604613 0.754609,-3.07292 1.6875,-4.28125 0.618837,0.277365 1.34868,0.528484 2.125,0.71875 -0.316838,1.106351 -0.50658,2.301606 -0.5625,3.5625 l -3.25,0 z m 4.71875,0 c 0.06113,-1.161212 0.258015,-2.269482 0.5625,-3.28125 0.918841,0.13768 1.913521,0.21875 2.9375,0.21875 1.023979,0 2.018659,-0.08107 2.9375,-0.21875 0.304485,1.011768 0.50137,2.120038 0.5625,3.28125 l -3.5,0 -3.5,0 z m 8.46875,0 c -0.05592,-1.260894 -0.245663,-2.456149 -0.5625,-3.5625 0.776319,-0.190266 1.506162,-0.441385 2.125,-0.71875 0.932892,1.20833 1.511869,2.676637 1.65625,4.28125 l -3.21875,0 z M 24,18.71875 c -0.832714,0 -1.629155,-0.07407 -2.375,-0.1875 0.496703,-1.100958 1.129004,-2.039622 1.875,-2.75 C 23.666401,15.7712 23.830902,15.75 24,15.75 c 0.169098,0 0.333599,0.02122 0.5,0.03125 0.745997,0.710378 1.378297,1.649042 1.875,2.75 -0.745846,0.11343 -1.542286,0.1875 -2.375,0.1875 z M 20.09375,18.1875 c -0.507656,-0.140727 -0.987038,-0.281428 -1.40625,-0.46875 0.718296,-0.608872 1.542764,-1.101437 2.4375,-1.4375 -0.386553,0.580144 -0.739214,1.205721 -1.03125,1.90625 z m 7.8125,0 c -0.292035,-0.700529 -0.644697,-1.326106 -1.03125,-1.90625 0.894736,0.336063 1.719204,0.828628 2.4375,1.4375 -0.419212,0.187322 -0.898593,0.328023 -1.40625,0.46875 z"
       id="path3202" />
  </g>
</svg>
