<?xml version="1.0" encoding="UTF-8" standalone="no"?>
<!-- Created with Inkscape (http://www.inkscape.org/) -->

<svg
   xmlns:dc="http://purl.org/dc/elements/1.1/"
   xmlns:cc="http://creativecommons.org/ns#"
   xmlns:rdf="http://www.w3.org/1999/02/22-rdf-syntax-ns#"
   xmlns:svg="http://www.w3.org/2000/svg"
   xmlns="http://www.w3.org/2000/svg"
   xmlns:sodipodi="http://sodipodi.sourceforge.net/DTD/sodipodi-0.dtd"
   xmlns:inkscape="http://www.inkscape.org/namespaces/inkscape"
   width="48px"
   height="48px"
   id="svg1306"
   sodipodi:version="0.32"
   inkscape:version="0.47 r22583"
   sodipodi:docname="brasero-disc-90.svg"
   inkscape:output_extension="org.inkscape.output.svg.inkscape"
   version="1.1">
  <defs
     id="defs1308" />
  <sodipodi:namedview
     id="base"
     pagecolor="#ffffff"
     bordercolor="#666666"
     borderopacity="0.22745098"
     inkscape:pageopacity="0.0"
     inkscape:pageshadow="2"
     inkscape:zoom="5.6568542"
     inkscape:cx="62.430265"
     inkscape:cy="20.023146"
     inkscape:current-layer="layer1"
     showgrid="false"
     inkscape:grid-bbox="true"
     inkscape:document-units="px"
     stroke="#888a85"
     fill="#eeeeec"
     inkscape:window-width="1280"
     inkscape:window-height="721"
     inkscape:window-x="0"
     inkscape:window-y="23"
     inkscape:showpageshadow="false"
     inkscape:window-maximized="0" />
  <metadata
     id="metadata1311">
    <rdf:RDF>
      <cc:Work
         rdf:about="">
        <dc:format>image/svg+xml</dc:format>
        <dc:type
           rdf:resource="http://purl.org/dc/dcmitype/StillImage" />
        <dc:title>Removable drive</dc:title>
        <dc:creator>
          <cc:Agent>
            <dc:title>Andreas Nilsson</dc:title>
          </cc:Agent>
        </dc:creator>
        <dc:description />
        <cc:license
           rdf:resource="http://creativecommons.org/licenses/GPL/2.0/" />
        <dc:source>http://www.gnome.org</dc:source>
        <dc:contributor>
          <cc:Agent>
            <dc:title>Jakub Steiner</dc:title>
          </cc:Agent>
        </dc:contributor>
      </cc:Work>
      <cc:License
         rdf:about="http://creativecommons.org/licenses/GPL/2.0/">
        <cc:permits
           rdf:resource="http://web.resource.org/cc/Reproduction" />
        <cc:permits
           rdf:resource="http://web.resource.org/cc/Distribution" />
        <cc:requires
           rdf:resource="http://web.resource.org/cc/Notice" />
        <cc:permits
           rdf:resource="http://web.resource.org/cc/DerivativeWorks" />
        <cc:requires
           rdf:resource="http://web.resource.org/cc/ShareAlike" />
        <cc:requires
           rdf:resource="http://web.resource.org/cc/SourceCode" />
      </cc:License>
    </rdf:RDF>
  </metadata>
  <g
     id="layer1"
     inkscape:label="Layer 1"
     inkscape:groupmode="layer">
    <path
       inkscape:r_cy="true"
       inkscape:r_cx="true"
       id="path3049"
       d="m 24,4.46875 c -10.825894,0 -19.53125,8.705357 -19.53125,19.531249 0,10.825894 8.705356,19.531251 19.53125,19.531251 10.825893,0 19.53125,-8.705357 19.53125,-19.531251 C 43.53125,13.174107 34.825893,4.46875 24,4.46875 l 0,0 z m 0,24.21875 c -2.566964,0 -4.6875,-2.120536 -4.6875,-4.687501 0,-2.566963 2.120536,-4.687499 4.6875,-4.687499 2.566964,0 4.687499,2.120536 4.687499,4.687499 0,2.566965 -2.120535,4.687501 -4.687499,4.687501 z"
       style="fill:none;stroke:#000000;stroke-width:0.93749994;stroke-miterlimit:4;stroke-opacity:1" />
    <path
       style="fill:#000000;fill-opacity:1;fill-rule:nonzero;stroke:none"
       d="m 23.955765,4.40099 0,14.853514 c 2.566964,0 4.687499,2.120536 4.687499,4.6875 0,1.551959 -0.782628,2.92367 -1.96289,3.779297 -0.77191,0.559592 -1.709604,0.908203 -2.724609,0.908203 -2.566964,0 -4.6875,-2.120535 -4.6875,-4.6875 0,-1.550161 0.784161,-2.899261 1.96289,-3.75 L 12.47139,8.1509898 C 7.5950303,11.695724 4.4147502,17.427227 4.4147502,23.942004 c 0,10.825893 8.7151208,19.541014 19.5410148,19.541014 4.307651,0 8.261169,-1.406395 11.484374,-3.749999 4.877282,-3.546291 8.056644,-9.272773 8.056644,-15.791015 0,-10.825892 -8.715125,-19.541014 -19.541018,-19.541014 z"
       id="path6395"
       sodipodi:nodetypes="ccssssccssssc" />
  </g>
</svg>
