<?xml version="1.0" encoding="UTF-8" standalone="no"?>
<!-- Created with Inkscape (http://www.inkscape.org/) -->

<svg
   xmlns:dc="http://purl.org/dc/elements/1.1/"
   xmlns:cc="http://creativecommons.org/ns#"
   xmlns:rdf="http://www.w3.org/1999/02/22-rdf-syntax-ns#"
   xmlns:svg="http://www.w3.org/2000/svg"
   xmlns="http://www.w3.org/2000/svg"
   xmlns:sodipodi="http://sodipodi.sourceforge.net/DTD/sodipodi-0.dtd"
   xmlns:inkscape="http://www.inkscape.org/namespaces/inkscape"
   width="48px"
   height="48px"
   id="svg1306"
   sodipodi:version="0.32"
   inkscape:version="0.47 r22583"
   sodipodi:docname="brasero-disc-65.svg"
   inkscape:output_extension="org.inkscape.output.svg.inkscape"
   version="1.1">
  <defs
     id="defs1308" />
  <sodipodi:namedview
     id="base"
     pagecolor="#ffffff"
     bordercolor="#666666"
     borderopacity="0.22745098"
     inkscape:pageopacity="0.0"
     inkscape:pageshadow="2"
     inkscape:zoom="5.6568542"
     inkscape:cx="62.430265"
     inkscape:cy="20.023146"
     inkscape:current-layer="layer1"
     showgrid="false"
     inkscape:grid-bbox="true"
     inkscape:document-units="px"
     stroke="#888a85"
     fill="#eeeeec"
     inkscape:window-width="1280"
     inkscape:window-height="721"
     inkscape:window-x="0"
     inkscape:window-y="23"
     inkscape:showpageshadow="false"
     inkscape:window-maximized="0" />
  <metadata
     id="metadata1311">
    <rdf:RDF>
      <cc:Work
         rdf:about="">
        <dc:format>image/svg+xml</dc:format>
        <dc:type
           rdf:resource="http://purl.org/dc/dcmitype/StillImage" />
        <dc:title>Removable drive</dc:title>
        <dc:creator>
          <cc:Agent>
            <dc:title>Andreas Nilsson</dc:title>
          </cc:Agent>
        </dc:creator>
        <dc:description />
        <cc:license
           rdf:resource="http://creativecommons.org/licenses/GPL/2.0/" />
        <dc:source>http://www.gnome.org</dc:source>
        <dc:contributor>
          <cc:Agent>
            <dc:title>Jakub Steiner</dc:title>
          </cc:Agent>
        </dc:contributor>
      </cc:Work>
      <cc:License
         rdf:about="http://creativecommons.org/licenses/GPL/2.0/">
        <cc:permits
           rdf:resource="http://web.resource.org/cc/Reproduction" />
        <cc:permits
           rdf:resource="http://web.resource.org/cc/Distribution" />
        <cc:requires
           rdf:resource="http://web.resource.org/cc/Notice" />
        <cc:permits
           rdf:resource="http://web.resource.org/cc/DerivativeWorks" />
        <cc:requires
           rdf:resource="http://web.resource.org/cc/ShareAlike" />
        <cc:requires
           rdf:resource="http://web.resource.org/cc/SourceCode" />
      </cc:License>
    </rdf:RDF>
  </metadata>
  <g
     id="layer1"
     inkscape:label="Layer 1"
     inkscape:groupmode="layer">
    <path
       inkscape:r_cy="true"
       inkscape:r_cx="true"
       id="path3049"
       d="m 24,4.46875 c -10.825894,0 -19.53125,8.705357 -19.53125,19.531249 0,10.825894 8.705356,19.531251 19.53125,19.531251 10.825893,0 19.53125,-8.705357 19.53125,-19.531251 C 43.53125,13.174107 34.825893,4.46875 24,4.46875 l 0,0 z m 0,24.21875 c -2.566964,0 -4.6875,-2.120536 -4.6875,-4.687501 0,-2.566963 2.120536,-4.687499 4.6875,-4.687499 2.566964,0 4.687499,2.120536 4.687499,4.687499 0,2.566965 -2.120535,4.687501 -4.687499,4.687501 z"
       style="fill:none;stroke:#000000;stroke-width:0.93749994;stroke-miterlimit:4;stroke-opacity:1" />
    <path
       style="fill:#000000;fill-opacity:1;fill-rule:nonzero;stroke:none"
       d="m 24.287222,4.5667181 0,14.8535149 c 1.551958,0 2.923671,0.782628 3.779297,1.96289 0.559593,0.77191 0.908203,1.709603 0.908203,2.724609 0,2.566965 -2.120536,4.6875 -4.6875,4.6875 -1.551958,0 -2.92367,-0.782629 -3.779296,-1.96289 L 8.4962073,35.592107 c 3.5462907,4.877281 9.2727727,8.05664 15.7910147,8.05664 10.825894,0 19.541015,-8.715122 19.541015,-19.541015 0,-4.307651 -1.406395,-8.26117 -3.75,-11.484374 C 36.531947,7.7460764 30.805465,4.5667181 24.287222,4.5667181 z"
       id="path5533"
       sodipodi:nodetypes="ccsssccsssc" />
  </g>
</svg>
