<?xml version="1.0" encoding="UTF-8" standalone="no"?>
<!-- Created with Inkscape (http://www.inkscape.org/) -->

<svg
   xmlns:dc="http://purl.org/dc/elements/1.1/"
   xmlns:cc="http://creativecommons.org/ns#"
   xmlns:rdf="http://www.w3.org/1999/02/22-rdf-syntax-ns#"
   xmlns:svg="http://www.w3.org/2000/svg"
   xmlns="http://www.w3.org/2000/svg"
   xmlns:sodipodi="http://sodipodi.sourceforge.net/DTD/sodipodi-0.dtd"
   xmlns:inkscape="http://www.inkscape.org/namespaces/inkscape"
   width="48px"
   height="48px"
   id="svg1306"
   sodipodi:version="0.32"
   inkscape:version="0.47 r22583"
   sodipodi:docname="brasero-disc-85.svg"
   inkscape:output_extension="org.inkscape.output.svg.inkscape"
   version="1.1">
  <defs
     id="defs1308" />
  <sodipodi:namedview
     id="base"
     pagecolor="#ffffff"
     bordercolor="#666666"
     borderopacity="0.22745098"
     inkscape:pageopacity="0.0"
     inkscape:pageshadow="2"
     inkscape:zoom="5.6568542"
     inkscape:cx="62.430265"
     inkscape:cy="20.023146"
     inkscape:current-layer="layer1"
     showgrid="false"
     inkscape:grid-bbox="true"
     inkscape:document-units="px"
     stroke="#888a85"
     fill="#eeeeec"
     inkscape:window-width="1280"
     inkscape:window-height="721"
     inkscape:window-x="0"
     inkscape:window-y="23"
     inkscape:showpageshadow="false"
     inkscape:window-maximized="0" />
  <metadata
     id="metadata1311">
    <rdf:RDF>
      <cc:Work
         rdf:about="">
        <dc:format>image/svg+xml</dc:format>
        <dc:type
           rdf:resource="http://purl.org/dc/dcmitype/StillImage" />
        <dc:title>Removable drive</dc:title>
        <dc:creator>
          <cc:Agent>
            <dc:title>Andreas Nilsson</dc:title>
          </cc:Agent>
        </dc:creator>
        <dc:description />
        <cc:license
           rdf:resource="http://creativecommons.org/licenses/GPL/2.0/" />
        <dc:source>http://www.gnome.org</dc:source>
        <dc:contributor>
          <cc:Agent>
            <dc:title>Jakub Steiner</dc:title>
          </cc:Agent>
        </dc:contributor>
      </cc:Work>
      <cc:License
         rdf:about="http://creativecommons.org/licenses/GPL/2.0/">
        <cc:permits
           rdf:resource="http://web.resource.org/cc/Reproduction" />
        <cc:permits
           rdf:resource="http://web.resource.org/cc/Distribution" />
        <cc:requires
           rdf:resource="http://web.resource.org/cc/Notice" />
        <cc:permits
           rdf:resource="http://web.resource.org/cc/DerivativeWorks" />
        <cc:requires
           rdf:resource="http://web.resource.org/cc/ShareAlike" />
        <cc:requires
           rdf:resource="http://web.resource.org/cc/SourceCode" />
      </cc:License>
    </rdf:RDF>
  </metadata>
  <g
     id="layer1"
     inkscape:label="Layer 1"
     inkscape:groupmode="layer">
    <path
       inkscape:r_cy="true"
       inkscape:r_cx="true"
       id="path3049"
       d="m 24,4.46875 c -10.825894,0 -19.53125,8.705357 -19.53125,19.531249 0,10.825894 8.705356,19.531251 19.53125,19.531251 10.825893,0 19.53125,-8.705357 19.53125,-19.531251 C 43.53125,13.174107 34.825893,4.46875 24,4.46875 l 0,0 z m 0,24.21875 c -2.566964,0 -4.6875,-2.120536 -4.6875,-4.687501 0,-2.566963 2.120536,-4.687499 4.6875,-4.687499 2.566964,0 4.687499,2.120536 4.687499,4.687499 0,2.566965 -2.120535,4.687501 -4.687499,4.687501 z"
       style="fill:none;stroke:#000000;stroke-width:0.93749994;stroke-miterlimit:4;stroke-opacity:1" />
    <path
       style="fill:#000000;fill-opacity:1;fill-rule:nonzero;stroke:none"
       d="m 23.982102,4.5222993 0,14.8535157 c 2.566964,0 4.6875,2.120536 4.6875,4.687499 0,1.015006 -0.348611,1.952699 -0.908204,2.72461 -0.855626,1.180262 -2.227338,1.96289 -3.779296,1.96289 -2.566964,0 -4.6875,-2.120535 -4.6875,-4.6875 0,-1.020447 0.34236,-1.955714 0.908203,-2.724609 L 8.191087,12.57894 c -2.3439768,3.221028 -3.7499998,7.178912 -3.7499998,11.484374 0,10.825894 8.7151218,19.541015 19.5410148,19.541015 6.518242,0 12.244724,-3.179359 15.791015,-8.05664 2.343604,-3.223205 3.749997,-7.176723 3.749997,-11.484375 0,-10.825892 -8.715119,-19.5410147 -19.541012,-19.5410147 z"
       id="path16954"
       sodipodi:nodetypes="ccssssccssssc" />
  </g>
</svg>
