<?xml version="1.0" encoding="UTF-8" standalone="no"?>
<!-- Created with Inkscape (http://www.inkscape.org/) -->
<svg
   xmlns:dc="http://purl.org/dc/elements/1.1/"
   xmlns:cc="http://creativecommons.org/ns#"
   xmlns:rdf="http://www.w3.org/1999/02/22-rdf-syntax-ns#"
   xmlns:svg="http://www.w3.org/2000/svg"
   xmlns="http://www.w3.org/2000/svg"
   xmlns:xlink="http://www.w3.org/1999/xlink"
   xmlns:sodipodi="http://sodipodi.sourceforge.net/DTD/sodipodi-0.dtd"
   xmlns:inkscape="http://www.inkscape.org/namespaces/inkscape"
   width="48px"
   height="48px"
   id="svg4289"
   sodipodi:version="0.32"
   inkscape:version="0.46"
   sodipodi:docbase="/home/lapo/Icone/cvs/gnome-icon-theme/scalable/categories"
   sodipodi:docname="gnome-spinner-rest.svg"
   inkscape:output_extension="org.inkscape.output.svg.inkscape">
  <defs
     id="defs4291">
    <linearGradient
       id="linearGradient3155"
       inkscape:collect="always">
      <stop
         id="stop3157"
         offset="0"
         style="stop-color:#4d4d4d;stop-opacity:1;" />
      <stop
         id="stop3159"
         offset="1"
         style="stop-color:#4d4d4d;stop-opacity:0;" />
    </linearGradient>
    <linearGradient
       inkscape:collect="always"
       xlink:href="#linearGradient3155"
       id="linearGradient2735"
       gradientUnits="userSpaceOnUse"
       gradientTransform="matrix(0.1721311,0,0,0.1721311,-32.065571,-63.312821)"
       x1="325.71429"
       y1="369.50507"
       x2="325.71429"
       y2="546.64789" />
  </defs>
  <sodipodi:namedview
     id="base"
     pagecolor="#ffffff"
     bordercolor="#666"
     borderopacity="0.31372549"
     inkscape:pageopacity="0.0"
     inkscape:pageshadow="2"
     inkscape:zoom="5.656854"
     inkscape:cx="37.533214"
     inkscape:cy="19.31447"
     inkscape:current-layer="layer1"
     showgrid="true"
     inkscape:grid-bbox="true"
     inkscape:document-units="px"
     inkscape:window-width="1019"
     inkscape:window-height="732"
     inkscape:window-x="259"
     inkscape:window-y="19"
     inkscape:showpageshadow="false" />
  <metadata
     id="metadata4294">
    <rdf:RDF>
      <cc:Work
         rdf:about="">
        <dc:format>image/svg+xml</dc:format>
        <dc:type
           rdf:resource="http://purl.org/dc/dcmitype/StillImage" />
        <dc:title>System Preferences</dc:title>
        <dc:creator>
          <cc:Agent>
            <dc:title>Andreas Nilsson</dc:title>
          </cc:Agent>
        </dc:creator>
        <dc:subject>
          <rdf:Bag>
            <rdf:li>category</rdf:li>
            <rdf:li>system</rdf:li>
            <rdf:li>preferences</rdf:li>
            <rdf:li>settings</rdf:li>
            <rdf:li>control center</rdf:li>
          </rdf:Bag>
        </dc:subject>
        <dc:contributor>
          <cc:Agent>
            <dc:title>Jakub Steiner</dc:title>
          </cc:Agent>
        </dc:contributor>
        <cc:license
           rdf:resource="http://creativecommons.org/licenses/GPL/2.0/" />
      </cc:Work>
      <cc:License
         rdf:about="http://creativecommons.org/licenses/GPL/2.0/">
        <cc:permits
           rdf:resource="http://web.resource.org/cc/Reproduction" />
        <cc:permits
           rdf:resource="http://web.resource.org/cc/Distribution" />
        <cc:requires
           rdf:resource="http://web.resource.org/cc/Notice" />
        <cc:permits
           rdf:resource="http://web.resource.org/cc/DerivativeWorks" />
        <cc:requires
           rdf:resource="http://web.resource.org/cc/ShareAlike" />
        <cc:requires
           rdf:resource="http://web.resource.org/cc/SourceCode" />
      </cc:License>
    </rdf:RDF>
  </metadata>
  <g
     id="layer1"
     inkscape:label="Layer 1"
     inkscape:groupmode="layer">
    <g
       id="g2453"
       inkscape:label="Calque 1"
       transform="matrix(0.1337942,0,0,0.1337942,-18.472238,-41.04701)" />
    <g
       style="fill:#000000;fill-opacity:1;stroke:none"
       id="g2164"
       transform="matrix(0.8336047,0,0,0.8334011,3.9934839,3.9967476)">
      <path
         sodipodi:type="arc"
         style="opacity:1;fill:#000000;fill-opacity:1;fill-rule:nonzero;stroke:none;stroke-width:5;stroke-linecap:round;stroke-linejoin:round;marker:none;marker-start:none;marker-mid:none;marker-end:none;stroke-miterlimit:4;stroke-dasharray:none;stroke-dashoffset:0;stroke-opacity:1;visibility:visible;display:inline;overflow:visible;enable-background:accumulate"
         id="path2317"
         sodipodi:cx="24.003906"
         sodipodi:cy="4.9960938"
         sodipodi:rx="0.84375"
         sodipodi:ry="0.84375"
         d="M 24.847656,4.9960938 A 0.84375,0.84375 0 1 1 23.160156,4.9960938 A 0.84375,0.84375 0 1 1 24.847656,4.9960938 z"
         transform="matrix(5.9212967,0,0,5.9212967,-118.13425,-24.583353)" />
      <path
         sodipodi:type="arc"
         style="opacity:1;fill:#000000;fill-opacity:1;fill-rule:nonzero;stroke:none;stroke-width:5;stroke-linecap:round;stroke-linejoin:round;marker:none;marker-start:none;marker-mid:none;marker-end:none;stroke-miterlimit:4;stroke-dasharray:none;stroke-dashoffset:0;stroke-opacity:1;visibility:visible;display:inline;overflow:visible;enable-background:accumulate"
         id="path2319"
         sodipodi:cx="24.003906"
         sodipodi:cy="4.9960938"
         sodipodi:rx="0.84375"
         sodipodi:ry="0.84375"
         d="M 24.847656,4.9960938 A 0.84375,0.84375 0 1 1 23.160156,4.9960938 A 0.84375,0.84375 0 1 1 24.847656,4.9960938 z"
         transform="matrix(5.9212967,0,0,5.9212967,-118.13816,13.420552)" />
      <path
         sodipodi:type="arc"
         style="opacity:1;fill:#000000;fill-opacity:1;fill-rule:nonzero;stroke:none;stroke-width:5;stroke-linecap:round;stroke-linejoin:round;marker:none;marker-start:none;marker-mid:none;marker-end:none;stroke-miterlimit:4;stroke-dasharray:none;stroke-dashoffset:0;stroke-opacity:1;visibility:visible;display:inline;overflow:visible;enable-background:accumulate"
         id="path2321"
         sodipodi:cx="24.003906"
         sodipodi:cy="4.9960938"
         sodipodi:rx="0.84375"
         sodipodi:ry="0.84375"
         d="M 24.847656,4.9960938 A 0.84375,0.84375 0 1 1 23.160156,4.9960938 A 0.84375,0.84375 0 1 1 24.847656,4.9960938 z"
         transform="matrix(5.9212967,0,0,5.9212967,-99.138157,-5.5794475)" />
      <path
         sodipodi:type="arc"
         style="opacity:1;fill:#000000;fill-opacity:1;fill-rule:nonzero;stroke:none;stroke-width:5;stroke-linecap:round;stroke-linejoin:round;marker:none;marker-start:none;marker-mid:none;marker-end:none;stroke-miterlimit:4;stroke-dasharray:none;stroke-dashoffset:0;stroke-opacity:1;visibility:visible;display:inline;overflow:visible;enable-background:accumulate"
         id="path2323"
         sodipodi:cx="24.003906"
         sodipodi:cy="4.9960938"
         sodipodi:rx="0.84375"
         sodipodi:ry="0.84375"
         d="M 24.847656,4.9960938 A 0.84375,0.84375 0 1 1 23.160156,4.9960938 A 0.84375,0.84375 0 1 1 24.847656,4.9960938 z"
         transform="matrix(5.9212967,0,0,5.9212967,-137.13034,-5.5872593)" />
      <path
         sodipodi:type="arc"
         style="opacity:1;fill:#000000;fill-opacity:1;fill-rule:nonzero;stroke:none;stroke-width:5;stroke-linecap:round;stroke-linejoin:round;marker:none;marker-start:none;marker-mid:none;marker-end:none;stroke-miterlimit:4;stroke-dasharray:none;stroke-dashoffset:0;stroke-opacity:1;visibility:visible;display:inline;overflow:visible;enable-background:accumulate"
         id="path2331"
         sodipodi:cx="24.003906"
         sodipodi:cy="4.9960938"
         sodipodi:rx="0.84375"
         sodipodi:ry="0.84375"
         d="M 24.847656,4.9960938 A 0.84375,0.84375 0 1 1 23.160156,4.9960938 A 0.84375,0.84375 0 1 1 24.847656,4.9960938 z"
         transform="matrix(5.9259241,0,0,5.921297,-132.24533,-19.579449)" />
      <path
         sodipodi:type="arc"
         style="opacity:1;fill:#000000;fill-opacity:1;fill-rule:nonzero;stroke:none;stroke-width:5;stroke-linecap:round;stroke-linejoin:round;marker:none;marker-start:none;marker-mid:none;marker-end:none;stroke-miterlimit:4;stroke-dasharray:none;stroke-dashoffset:0;stroke-opacity:1;visibility:visible;display:inline;overflow:visible;enable-background:accumulate"
         id="path2333"
         sodipodi:cx="24.003906"
         sodipodi:cy="4.9960938"
         sodipodi:rx="0.84375"
         sodipodi:ry="0.84375"
         d="M 24.847656,4.9960938 A 0.84375,0.84375 0 1 1 23.160156,4.9960938 A 0.84375,0.84375 0 1 1 24.847656,4.9960938 z"
         transform="matrix(5.925924,0,0,5.925926,-104.24533,-19.606482)" />
      <path
         sodipodi:type="arc"
         style="opacity:1;fill:#000000;fill-opacity:1;fill-rule:nonzero;stroke:none;stroke-width:5;stroke-linecap:round;stroke-linejoin:round;marker:none;marker-start:none;marker-mid:none;marker-end:none;stroke-miterlimit:4;stroke-dasharray:none;stroke-dashoffset:0;stroke-opacity:1;visibility:visible;display:inline;overflow:visible;enable-background:accumulate"
         id="path2335"
         sodipodi:cx="24.003906"
         sodipodi:cy="4.9960938"
         sodipodi:rx="0.84375"
         sodipodi:ry="0.84375"
         d="M 24.847656,4.9960938 A 0.84375,0.84375 0 1 1 23.160156,4.9960938 A 0.84375,0.84375 0 1 1 24.847656,4.9960938 z"
         transform="matrix(5.925929,0,0,5.925926,-104.24545,8.393518)" />
      <path
         sodipodi:type="arc"
         style="opacity:1;fill:#000000;fill-opacity:1;fill-rule:nonzero;stroke:none;stroke-width:5;stroke-linecap:round;stroke-linejoin:round;marker:none;marker-start:none;marker-mid:none;marker-end:none;stroke-miterlimit:4;stroke-dasharray:none;stroke-dashoffset:0;stroke-opacity:1;visibility:visible;display:inline;overflow:visible;enable-background:accumulate"
         id="path2337"
         sodipodi:cx="24.003906"
         sodipodi:cy="4.9960938"
         sodipodi:rx="0.84375"
         sodipodi:ry="0.84375"
         d="M 24.847656,4.9960938 A 0.84375,0.84375 0 1 1 23.160156,4.9960938 A 0.84375,0.84375 0 1 1 24.847656,4.9960938 z"
         transform="matrix(5.925929,0,0,5.9259259,-132.24545,8.3935185)" />
    </g>
    <path
       style="fill:url(#linearGradient2735);fill-opacity:1"
       d="M 24,4.0000012 C 21.701049,4.0000012 19.820314,5.8812984 19.820312,8.1796887 C 19.820312,10.478079 21.701045,12.320314 24,12.320314 C 26.298951,12.320314 28.179689,10.478079 28.179687,8.1796887 C 28.179687,5.8812985 26.298949,4.000001 24,4.0000012 z M 12.320312,8.1796887 C 10.019564,8.1796887 8.179689,10.021924 8.179688,12.320314 C 8.179688,14.618704 10.019569,16.500001 12.320312,16.500001 C 14.621061,16.500001 16.500002,14.618704 16.5,12.320314 C 16.5,10.021924 14.621065,8.1796887 12.320312,8.1796887 z M 35.679687,8.1796887 C 33.378939,8.1796887 31.500005,10.020126 31.5,12.320314 C 31.5,14.620501 33.378941,16.500001 35.679687,16.500001 C 37.980436,16.500001 39.820314,14.620501 39.820312,12.320314 C 39.820312,10.020126 37.980439,8.1796887 35.679687,8.1796887 z M 8.179688,19.820314 C 5.8807363,19.820314 3.9999988,21.70161 4,24.000001 C 4,26.298391 5.880735,28.140626 8.179688,28.140626 C 10.478639,28.140626 12.320312,26.29839 12.320312,24.000001 C 12.320312,21.701611 10.478639,19.820314 8.179688,19.820314 z M 39.820312,19.820314 C 37.521361,19.820314 35.679685,21.701611 35.679687,24.000001 C 35.679687,26.298391 37.521364,28.179687 39.820312,28.179689 C 42.119264,28.179689 43.999999,26.298391 44,24.000001 C 44,21.701611 42.119266,19.820312 39.820312,19.820314 z"
       id="path2697" />
  </g>
</svg>
