<?xml version="1.0" encoding="UTF-8" standalone="no"?>
<!-- Created with Inkscape (http://www.inkscape.org/) -->

<svg
   xmlns:dc="http://purl.org/dc/elements/1.1/"
   xmlns:cc="http://creativecommons.org/ns#"
   xmlns:rdf="http://www.w3.org/1999/02/22-rdf-syntax-ns#"
   xmlns:svg="http://www.w3.org/2000/svg"
   xmlns="http://www.w3.org/2000/svg"
   xmlns:xlink="http://www.w3.org/1999/xlink"
   xmlns:sodipodi="http://sodipodi.sourceforge.net/DTD/sodipodi-0.dtd"
   xmlns:inkscape="http://www.inkscape.org/namespaces/inkscape"
   width="48px"
   height="48px"
   id="svg2965"
   version="1.1"
   inkscape:version="0.47 r22583"
   sodipodi:docname="Nouveau document 4">
  <defs
     id="defs2967">
    <linearGradient
       inkscape:collect="always"
       xlink:href="#linearGradient3172"
       id="linearGradient2945"
       gradientUnits="userSpaceOnUse"
       gradientTransform="matrix(0.644962,0,0,1.1832362,9.2349029,4.0163303)"
       x1="22.892584"
       y1="0.90414524"
       x2="22.892584"
       y2="21.132059" />
    <linearGradient
       id="linearGradient3172">
      <stop
         id="stop3174"
         offset="0"
         style="stop-color:#4d4d4d;stop-opacity:1;" />
      <stop
         id="stop3176"
         offset="1"
         style="stop-color:#4d4d4d;stop-opacity:0;" />
    </linearGradient>
  </defs>
  <sodipodi:namedview
     id="base"
     pagecolor="#ffffff"
     bordercolor="#666666"
     borderopacity="1.0"
     inkscape:pageopacity="0.0"
     inkscape:pageshadow="2"
     inkscape:zoom="7"
     inkscape:cx="24"
     inkscape:cy="24"
     inkscape:current-layer="layer1"
     showgrid="true"
     inkscape:grid-bbox="true"
     inkscape:document-units="px"
     inkscape:window-width="1366"
     inkscape:window-height="744"
     inkscape:window-x="0"
     inkscape:window-y="24"
     inkscape:window-maximized="1" />
  <metadata
     id="metadata2970">
    <rdf:RDF>
      <cc:Work
         rdf:about="">
        <dc:format>image/svg+xml</dc:format>
        <dc:type
           rdf:resource="http://purl.org/dc/dcmitype/StillImage" />
        <dc:title></dc:title>
      </cc:Work>
    </rdf:RDF>
  </metadata>
  <g
     id="layer1"
     inkscape:label="Layer 1"
     inkscape:groupmode="layer">
    <path
       style="fill:#000000"
       d="m 36.532501,4.0010303 c -0.290161,0.0137 -0.606757,0.16744 -0.965057,0.46675 -0.693473,0.57931 -0.74114,1.01164 -0.200698,1.80867 L 35.738253,6.82238 35.255725,7.24329 c -0.26392,0.22997 -0.719654,0.60875 -1.0163,0.84599 L 33.671492,8.56437 C 33.456551,8.23909 32.706056,7.59335 32.347745,7.59335 c -0.173996,0 -0.619708,-0.009 -0.913814,0.20004 C 25.660325,12.5863 13.08829,21.14541 12.908965,21.87923 l -0.221012,0.90441 -1.737991,-0.32506 -0.550817,3.01306 1.874499,0.32922 1.251226,1.52945 0,1.85868 3.138569,0 0,-1.85868 0.77717,0.0833 c 0.503662,0.0544 1.473217,-0.26945 4.22319,-2.39211 1.57183,-1.21327 3.00333,-2.28026 3.185542,-2.37543 0.291994,-0.15251 0.350728,-0.14233 0.482528,0.0875 0.283015,0.49356 1.38952,1.55334 1.870331,1.792 0.540404,0.26824 2.169084,0.55366 2.574908,0.45008 0.322252,-0.0822 0.473671,0.28101 0.725928,1.74616 0.139209,0.80851 0.142139,1.24028 0.0082,2.14206 -0.173649,1.17215 -0.884561,3.18772 -1.468931,4.16326 l -0.337343,0.5626 -8.454922,0.0375 c -8.092832,0.0357 -8.465764,0.0485 -8.741022,0.29172 -0.204064,0.18029 -0.28759,0.4126 -0.286101,0.80015 0.004,1.03979 0.266775,1.14604 2.839658,1.14604 l 2.041138,0 0.08541,0.50009 c 0.136049,0.8033 0.09863,1.47572 -0.08541,1.59196 -0.09394,0.0593 -1.69884,0.13836 -3.565586,0.17504 l -3.3905091,0.0667 -0.307451,0.3459 c -0.348443,0.39571 -1.716824,3.81071 -1.81909,4.53833 -0.05571,0.39639 -0.01058,0.52068 0.25194,0.70013 C 7.5641139,43.98228 8.9921339,44 23.520982,44 c 13.145574,0 15.97609,-0.0309 16.18392,-0.1792 0.196425,-0.14017 0.235772,-0.29428 0.179344,-0.70013 -0.105488,-0.75861 -1.54589,-4.31703 -1.878871,-4.64252 -0.258048,-0.25224 -0.490316,-0.28623 -2.527936,-0.35006 -1.233987,-0.0387 -2.286211,-0.11415 -2.340057,-0.1667 -0.05379,-0.0525 0.313113,-0.75203 0.815602,-1.55445 1.368206,-2.18487 2.242981,-4.60041 2.536482,-7.00962 0.503134,-4.13003 -0.425855,-7.82304 -2.839656,-11.28957 -0.537081,-0.77132 -0.977875,-1.4403 -0.977875,-1.48778 0,-0.0475 0.895176,-0.78445 1.985629,-1.6378 1.344434,-1.0521 2.011062,-1.66301 2.071035,-1.89618 0.0623,-0.24222 -0.02879,-0.5551 -0.298922,-1.05853 -0.220043,-0.41018 -0.330993,-0.75906 -0.260476,-0.82098 0.567574,-0.49839 1.734693,-1.34608 1.853255,-1.34608 0.08105,0 0.358115,0.18003 0.614903,0.40007 0.574829,0.49257 1.046968,0.50942 1.72087,0.0625 0.531036,-0.35216 0.73571,-0.78801 0.602095,-1.29607 -0.08464,-0.32169 -3.319243,-4.4120397 -3.796177,-4.8008797 -0.1966,-0.16029 -0.406295,-0.23569 -0.631984,-0.22504 z M 29.093882,33.6023 c 0.145347,0.0635 -0.392217,0.12949 -0.580742,0.15419 0.206904,-0.0855 0.460179,-0.15652 0.580742,-0.15419 z"
       id="path2818"
       sodipodi:nodetypes="cscccccscscccccccccssssssscccsscccscccssssssssssssssssssssscccc" />
    <path
       style="fill:url(#linearGradient2945);fill-opacity:1;stroke:none"
       d="m 30.43725,29.15624 c 0.01731,-0.0902 0.05028,-0.19877 0.0625,-0.28125 0.133939,-0.90178 0.139209,-1.34774 0,-2.15625 -0.252257,-1.46515 -0.396498,-1.8322 -0.71875,-1.75 -0.405824,0.10358 -2.053346,-0.16926 -2.59375,-0.4375 -0.480811,-0.23866 -1.560735,-1.31894 -1.84375,-1.8125 -0.1318,-0.22983 -0.208006,-0.21501 -0.5,-0.0625 -0.182212,0.0952 -1.61567,1.16173 -3.1875,2.375 -2.749973,2.12266 -3.715088,2.4294 -4.21875,2.375 l -0.78125,-0.0625 0,1.6875 c -1.076688,-0.18276 -2.120551,-0.39858 -3.125,-0.65625 l 0,-1.03125 -1.25,-1.53125 -1.875,-0.34375 0.53125,-3 1.75,0.3125 0.21875,-0.90625 c 0.179325,-0.73382 12.757644,-9.30084 18.53125,-14.09375 0.294106,-0.20904 0.732254,-0.1875 0.90625,-0.1875 0.358311,0 1.097559,0.64347 1.3125,0.96875 l 0.59375,-0.46875 c 0.296646,-0.23724 0.73608,-0.61378 1,-0.84375 l 0.5,-0.4375 -0.375,-0.5312497 c -0.540442,-0.79703 -0.505973,-1.23319 0.1875,-1.8125 0.3583,-0.29931 0.678589,-0.45505 0.96875,-0.46875 0.225689,-0.0106 0.4284,0.0585 0.625,0.21875 0.476934,0.38884 3.72786,4.4908097 3.8125,4.8124997 0.133615,0.50806 -0.09396,0.92909 -0.625,1.28125 -0.673902,0.44692 -1.143921,0.43007 -1.71875,-0.0625 -0.256788,-0.22004 -0.5127,-0.375 -0.59375,-0.375 -0.118562,0 -1.307426,0.84536 -1.875,1.34375 -0.07052,0.0619 0.06121,0.40232 0.28125,0.8125 0.270132,0.50343 0.34355,0.82028 0.28125,1.0625 -0.05997,0.23317 -0.718066,0.8229 -2.0625,1.875 -1.090453,0.85335 -1.96875,1.60875 -1.96875,1.65625 0,0.0475 0.431669,0.69743 0.96875,1.46875 2.08066,2.9881 3.060828,6.1655 2.96875,9.625 -1.904632,0.6244 -3.976834,1.11263 -6.1875,1.4375 z"
       id="path2931" />
  </g>
</svg>
