<?xml version="1.0" encoding="UTF-8" standalone="no"?>
<!-- Created with Inkscape (http://www.inkscape.org/) -->

<svg
   xmlns:dc="http://purl.org/dc/elements/1.1/"
   xmlns:cc="http://creativecommons.org/ns#"
   xmlns:rdf="http://www.w3.org/1999/02/22-rdf-syntax-ns#"
   xmlns:svg="http://www.w3.org/2000/svg"
   xmlns="http://www.w3.org/2000/svg"
   xmlns:xlink="http://www.w3.org/1999/xlink"
   xmlns:sodipodi="http://sodipodi.sourceforge.net/DTD/sodipodi-0.dtd"
   xmlns:inkscape="http://www.inkscape.org/namespaces/inkscape"
   width="48px"
   height="48px"
   id="svg3805"
   version="1.1"
   inkscape:version="0.47 r22583"
   sodipodi:docname="Nouveau document 4">
  <defs
     id="defs3807">
    <linearGradient
       inkscape:collect="always"
       xlink:href="#linearGradient3172-1"
       id="linearGradient3803"
       gradientUnits="userSpaceOnUse"
       gradientTransform="matrix(0.64475063,0,0,1.1828172,9.2423096,4.0246498)"
       x1="22.892584"
       y1="0.90414524"
       x2="22.892584"
       y2="21.132059" />
    <linearGradient
       id="linearGradient3172-1">
      <stop
         id="stop3174-2"
         offset="0"
         style="stop-color:#4d4d4d;stop-opacity:1;" />
      <stop
         id="stop3176-2"
         offset="1"
         style="stop-color:#4d4d4d;stop-opacity:0;" />
    </linearGradient>
  </defs>
  <sodipodi:namedview
     id="base"
     pagecolor="#ffffff"
     bordercolor="#666666"
     borderopacity="1.0"
     inkscape:pageopacity="0.0"
     inkscape:pageshadow="2"
     inkscape:zoom="7"
     inkscape:cx="24"
     inkscape:cy="24"
     inkscape:current-layer="layer1"
     showgrid="true"
     inkscape:grid-bbox="true"
     inkscape:document-units="px"
     inkscape:window-width="1364"
     inkscape:window-height="721"
     inkscape:window-x="0"
     inkscape:window-y="23"
     inkscape:window-maximized="1" />
  <metadata
     id="metadata3810">
    <rdf:RDF>
      <cc:Work
         rdf:about="">
        <dc:format>image/svg+xml</dc:format>
        <dc:type
           rdf:resource="http://purl.org/dc/dcmitype/StillImage" />
        <dc:title></dc:title>
      </cc:Work>
    </rdf:RDF>
  </metadata>
  <g
     id="layer1"
     inkscape:label="Layer 1"
     inkscape:groupmode="layer">
    <path
       id="path3800"
       d="m 7.3830806,43.900436 c -0.170163,-0.0055 -0.324326,-0.04695 -0.499836,-0.124956 -0.541812,-0.240784 -2.55644,-2.25556 -2.811578,-2.811503 -0.203162,-0.442684 3.81e-4,-0.890815 0.937192,-2.249204 1.600493,-2.320729 3.493832,-4.230091 12.6833424,-12.807963 0.860774,-0.803481 1.311319,-1.263667 2.030585,-1.936814 0.489096,0.479612 0.882777,0.858862 1.437029,1.405752 1.600981,1.579721 2.414602,2.359444 3.092736,2.998938 -1.065736,1.149551 -1.880682,2.050271 -3.030257,3.280088 -1.086639,1.162489 -3.720117,3.835681 -5.841835,5.935398 -3.126306,3.093895 -4.178424,4.018866 -5.5294374,4.998229 -1.353347,0.98105 -1.95745,1.328623 -2.467941,1.312035 z M 40.559705,43.306897 c -0.435993,-0.01047 -0.919313,-0.06772 -1.093392,-0.124956 -0.835134,-0.274592 -1.098945,-1.090605 -0.780994,-2.561592 0.125111,-0.578823 0.198613,-1.081771 0.156199,-1.124603 -0.04242,-0.04284 -0.635633,-0.0382 -1.34331,0 -2.464609,0.13303 -2.863553,-0.339894 -2.436701,-2.842743 l 0.156199,-0.874689 -1.468269,0 c -0.796219,-0.01099 -1.575644,-0.06743 -1.749426,-0.124956 -0.817812,-0.270726 -1.00072,-0.91832 -0.687275,-2.467876 0.109792,-0.542749 0.214708,-1.021136 0.218678,-1.062124 0.004,-0.04096 -0.76068,-0.110363 -1.686947,-0.124956 -2.069552,-0.0326 -2.294679,-0.181289 -2.249262,-1.46823 0.03351,-0.9492 -0.21759,-1.317618 -1.062152,-1.593185 -0.44105,-0.143909 -0.92968,-0.604155 -4.654724,-4.279734 -2.295395,-2.264915 -4.248039,-4.123309 -4.311087,-4.123539 -0.350777,-0.0013 -3.392298,2.648561 -5.810595,5.029468 -2.9046254,2.859696 -3.0052994,2.904281 -3.9674494,2.592832 -0.607903,-0.196779 -2.094883,-1.5608 -2.842818,-2.592832 -0.488289,-0.673761 -0.55655,-0.874461 -0.531076,-1.436991 0.02753,-0.607969 0.07013,-0.670004 0.718514,-1.312035 0.381453,-0.377714 1.146486,-1.009687 1.686947,-1.374513 1.043216,-0.704147 3.2288314,-2.893716 5.4981984,-5.529292 0.649446,-0.754219 1.488504,-1.576152 2.249262,-2.217963 0.672966,-0.567752 2.083707,-1.845035 3.123976,-2.811505 1.537092,-1.4280492 2.009494,-1.9174029 2.499181,-2.6553085 0.765747,-1.1537832 1.80796,-2.1969607 2.374222,-2.3741589 0.793643,-0.248319 1.202727,0.0027 2.749098,1.5619467 1.562681,1.5756499 1.746476,1.8829699 1.561988,2.8115027 -0.110605,0.556638 -0.12305,0.580953 -1.905625,2.217965 -1.750042,1.607119 -3.370449,3.354122 -5.092081,5.529291 -0.768502,0.970952 -0.758555,0.96717 -0.531075,1.312035 0.126431,0.191679 1.935993,2.102707 4.029928,4.217257 2.945072,2.974065 3.87716,3.953069 4.092409,4.37345 0.153043,0.298892 0.411789,0.759465 0.562315,1.030885 0.421177,0.759432 0.531134,1.470615 0.281158,1.718142 -0.175813,0.174089 0.130266,0.239675 1.593228,0.249911 1.682315,0.01177 1.82457,0.04033 2.186783,0.406106 0.521785,0.526922 0.581237,0.942936 0.312398,2.186726 l -0.218679,1.030884 1.655708,0.03124 c 1.476487,0.02326 1.684976,0.0574 1.999344,0.374867 0.514112,0.519171 0.552681,0.79299 0.281158,2.155486 l -0.249918,1.249557 1.468269,-0.03124 c 0.802622,-0.01036 1.620326,0.06904 1.811906,0.156193 0.819821,0.372997 0.955286,1.093595 0.562315,2.842743 l -0.187438,0.812213 0.499836,0.156195 c 0.545951,0.152934 1.390361,0.742129 1.343309,0.937168 -0.01725,0.07139 -0.376239,0.135425 -0.812233,0.124956 z M 26.814211,25.594421 c -0.637743,-0.676258 -1.419046,-1.499905 -2.717859,-2.811504 -0.557221,-0.562706 -0.976803,-0.996158 -1.468269,-1.499469 4.421354,-4.177705 5.220606,-5.122417 6.185472,-6.653893 0.866856,-1.375912 1.064178,-2.03 1.218351,-4.217256 0.180342,-2.5585418 0.567861,-3.6935607 1.780666,-4.9669896 0.705246,-0.7404976 1.083331,-0.9969667 1.655707,-1.1870794 0.383765,-0.1274649 0.904963,-0.1719292 1.437029,-0.1561947 0.532067,0.015735 1.063882,0.098215 1.499509,0.2499115 1.362981,0.4746418 2.226563,1.1496627 4.498525,3.5299995 1.955935,2.0492441 2.293264,2.4591877 2.62414,3.2488477 0.706409,1.685924 0.635519,2.88257 -0.312398,4.435929 -0.855288,1.401564 -3.249351,2.348678 -5.998034,2.405398 -3.201014,0.06598 -3.919252,0.552704 -8.309775,5.373097 -0.54348,0.596691 -1.449341,1.549039 -2.093064,2.249203 z m 10.3716,-10.371326 0.656035,0 c 0.891499,-0.0111 2.453905,-0.706871 3.030256,-1.343274 0.354114,-0.391002 0.461839,-0.663136 0.406117,-1.124602 -0.06846,-0.566949 -0.241059,-0.76236 -2.218023,-2.8427416 -2.314098,-2.4351578 -2.832892,-2.8602972 -3.81125,-3.1238938 -0.178278,-0.048033 -0.320111,-0.076673 -0.468597,-0.062478 -0.445457,0.042605 -0.793378,0.3827095 -1.187111,1.1246016 -0.342548,0.6455014 -0.719625,2.6824898 -0.562315,3.0614158 0.06375,0.153566 0.339771,0.235856 0.687275,0.218672 0.559806,-0.02769 0.682169,0.04354 2.030584,1.405752 1.344999,1.358729 1.389834,1.461673 1.405789,2.06177 l 0.03124,0.624779 z"
       style="fill:#000000" />
    <path
       style="fill:url(#linearGradient3803);fill-opacity:1;stroke:none"
       d="m 23.096366,29.624243 c -2.940209,-0.0585 -5.763386,-0.368805 -8.341016,-0.937167 0.96956,-0.911131 1.732054,-1.655951 2.936537,-2.780266 0.860774,-0.803481 1.31132,-1.263667 2.030585,-1.936814 0.489096,0.479612 0.882777,0.858862 1.437029,1.405752 1.600981,1.579721 2.414602,2.359444 3.092736,2.998938 -0.406236,0.438183 -0.790091,0.851675 -1.155871,1.249557 z m 4.311086,-0.124956 c -0.162222,-0.258533 -0.439057,-0.420153 -0.874713,-0.5623 -0.44105,-0.143909 -0.92968,-0.604155 -4.654724,-4.279734 -2.295394,-2.264915 -4.248039,-4.123309 -4.311087,-4.123539 -0.350777,-0.0013 -3.392298,2.648561 -5.810595,5.029468 -0.74744,0.735879 -1.31087,1.281941 -1.749426,1.686903 -2.1552004,-0.819788 -4.0559584,-1.823762 -5.5919174,-2.967699 2.51e-4,-0.05169 -0.0026,-0.0976 0,-0.156195 0.02753,-0.607969 0.07013,-0.670004 0.718514,-1.312035 0.381453,-0.377714 1.146487,-1.009687 1.686947,-1.374513 1.043216,-0.704147 3.2288314,-2.893716 5.4981984,-5.529292 0.649446,-0.754219 1.488504,-1.576152 2.249263,-2.217963 0.672965,-0.567752 2.083706,-1.845035 3.123975,-2.811505 1.537093,-1.4280492 2.009494,-1.9174029 2.499181,-2.6553085 0.765747,-1.1537832 1.80796,-2.1969607 2.374222,-2.3741589 0.793644,-0.248319 1.202727,0.0027 2.749099,1.5619467 1.56268,1.5756499 1.746475,1.8829699 1.561987,2.8115027 -0.110605,0.556638 -0.12305,0.580953 -1.905625,2.217965 -1.750042,1.607119 -3.370449,3.354122 -5.09208,5.529291 -0.768503,0.970952 -0.758556,0.96717 -0.531076,1.312035 0.126431,0.191679 1.935993,2.102707 4.029928,4.217257 2.945072,2.974065 3.87716,3.953069 4.092409,4.37345 0.153043,0.298892 0.411789,0.759465 0.562316,1.030885 0.09824,0.177135 0.154921,0.364448 0.218678,0.531062 -0.275671,0.02603 -0.564634,0.04147 -0.843474,0.06248 z m -0.593555,-3.904866 c -0.637743,-0.676258 -1.419046,-1.499905 -2.717859,-2.811504 -0.557221,-0.562706 -0.976803,-0.996158 -1.468269,-1.499469 4.421354,-4.177705 5.220606,-5.122417 6.185473,-6.653893 0.866855,-1.375912 1.064177,-2.03 1.21835,-4.217256 0.180342,-2.5585418 0.567861,-3.6935607 1.780666,-4.9669896 0.705246,-0.7404976 1.083331,-0.9969667 1.655708,-1.1870794 0.383764,-0.1274649 0.904962,-0.1719292 1.437028,-0.1561947 0.532067,0.015735 1.063882,0.098215 1.499509,0.2499115 1.362981,0.4746418 2.226563,1.1496627 4.498525,3.5299995 1.955935,2.0492441 2.293264,2.4591877 2.62414,3.2488477 0.706409,1.685924 0.63552,2.88257 -0.312398,4.435929 -0.855288,1.401564 -3.24935,2.348678 -5.998033,2.405398 -3.201015,0.06598 -3.919253,0.552704 -8.309776,5.373097 -0.54348,0.596691 -1.449341,1.549039 -2.093064,2.249203 z m 10.3716,-10.371326 0.656035,0 c 0.8915,-0.0111 2.453905,-0.706871 3.030256,-1.343274 0.354114,-0.391002 0.461839,-0.663136 0.406117,-1.124602 -0.06846,-0.566949 -0.241059,-0.76236 -2.218023,-2.8427416 -2.314098,-2.4351578 -2.832892,-2.8602972 -3.81125,-3.1238938 -0.178278,-0.048033 -0.320111,-0.076673 -0.468597,-0.062478 -0.445457,0.042605 -0.793377,0.3827095 -1.18711,1.1246016 -0.342549,0.6455014 -0.719625,2.6824898 -0.562316,3.0614158 0.06375,0.153566 0.339772,0.235856 0.687275,0.218672 0.559806,-0.02769 0.682169,0.04354 2.030584,1.405752 1.344999,1.358729 1.389834,1.461673 1.405789,2.06177 l 0.03124,0.624779 z"
       id="path3785" />
  </g>
</svg>
