<?xml version="1.0" encoding="UTF-8" standalone="no"?>
<!-- Created with Inkscape (http://www.inkscape.org/) -->

<svg
   xmlns:dc="http://purl.org/dc/elements/1.1/"
   xmlns:cc="http://creativecommons.org/ns#"
   xmlns:rdf="http://www.w3.org/1999/02/22-rdf-syntax-ns#"
   xmlns:svg="http://www.w3.org/2000/svg"
   xmlns="http://www.w3.org/2000/svg"
   xmlns:xlink="http://www.w3.org/1999/xlink"
   xmlns:sodipodi="http://sodipodi.sourceforge.net/DTD/sodipodi-0.dtd"
   xmlns:inkscape="http://www.inkscape.org/namespaces/inkscape"
   width="48px"
   height="48px"
   id="svg2833"
   version="1.1"
   inkscape:version="0.47 r22583"
   sodipodi:docname="Nouveau document 3">
  <defs
     id="defs2835">
    <linearGradient
       gradientUnits="userSpaceOnUse"
       y2="21.132059"
       x2="22.892584"
       y1="0.90414524"
       x1="22.892584"
       id="linearGradient3178"
       xlink:href="#linearGradient3172"
       inkscape:collect="always" />
    <linearGradient
       id="linearGradient3172">
      <stop
         id="stop3174"
         offset="0"
         style="stop-color:#4d4d4d;stop-opacity:1;" />
      <stop
         id="stop3176"
         offset="1"
         style="stop-color:#4d4d4d;stop-opacity:0;" />
    </linearGradient>
    <linearGradient
       inkscape:collect="always"
       xlink:href="#linearGradient3172"
       id="linearGradient2956"
       gradientUnits="userSpaceOnUse"
       x1="22.892584"
       y1="0.90414524"
       x2="22.892584"
       y2="21.132059" />
    <linearGradient
       inkscape:collect="always"
       xlink:href="#linearGradient3172"
       id="linearGradient2961"
       gradientUnits="userSpaceOnUse"
       x1="22.892584"
       y1="0.90414524"
       x2="22.892584"
       y2="21.132059"
       gradientTransform="matrix(0.644962,0,0,-1.1832362,59.235153,43.983663)" />
    <linearGradient
       inkscape:collect="always"
       xlink:href="#linearGradient3172"
       id="linearGradient2964"
       gradientUnits="userSpaceOnUse"
       gradientTransform="matrix(0.644962,0,0,1.1832362,9.2354473,4.0162686)"
       x1="22.892584"
       y1="0.90414524"
       x2="22.892584"
       y2="21.132059" />
  </defs>
  <sodipodi:namedview
     id="base"
     pagecolor="#ffffff"
     bordercolor="#666666"
     borderopacity="1.0"
     inkscape:pageopacity="0.0"
     inkscape:pageshadow="2"
     inkscape:zoom="7"
     inkscape:cx="24"
     inkscape:cy="24"
     inkscape:current-layer="layer1"
     showgrid="true"
     inkscape:grid-bbox="true"
     inkscape:document-units="px"
     inkscape:window-width="1364"
     inkscape:window-height="721"
     inkscape:window-x="0"
     inkscape:window-y="23"
     inkscape:window-maximized="1" />
  <metadata
     id="metadata2838">
    <rdf:RDF>
      <cc:Work
         rdf:about="">
        <dc:format>image/svg+xml</dc:format>
        <dc:type
           rdf:resource="http://purl.org/dc/dcmitype/StillImage" />
        <dc:title></dc:title>
      </cc:Work>
    </rdf:RDF>
  </metadata>
  <g
     id="layer1"
     inkscape:label="Layer 1"
     inkscape:groupmode="layer">
    <path
       style="fill:#000000"
       d="m 9.4917327,43.841289 c -0.795184,-0.43366 -0.750047,-1.5981 0.07957,-2.0529 0.323824,-0.17752 0.9741713,-0.20106 6.0085713,-0.21748 l 5.485768,0.005 c 0.02542,-0.0247 0.04709,-0.0501 0.06481,-0.0763 0.03544,-0.0524 0.05507,-0.10797 0.05728,-0.16679 0.01029,-0.3481 0.0113,-0.8119 4.76e-4,-1.30737 l -0.03917,-1.80171 -0.734424,-0.0812 c -2.288406,-0.25293 -4.568891,-0.88126 -6.474318,-1.78383 -2.551587,-1.20865 -6.0858223,-3.9418 -6.0858223,-4.70638 0,-0.15747 0.463328,-0.7261 1.247939,-1.53156 0.686367,-0.7046 1.2479403,-1.30881 1.2479403,-1.34268 0,-0.0339 -0.349678,-0.58458 -0.7770633,-1.22378 -1.511961,-2.26132 -2.218683,-4.19854 -2.553928,-7.00067 -0.258745,-2.1627 0.09613,-4.90082 0.907761,-7.00404 1.525921,-3.9542104 5.0105623,-7.3398504 8.9821963,-8.7270204 2.946835,-1.02924 6.574949,-1.0972 9.528486,-0.17848 1.918807,0.59686 5.300468,2.5475 5.140238,2.96503 l 1.297134,-1.26613 c 0.997701,-1.00794 1.52916,-1.41765 1.838909,-1.41765 0.236889,0 1.307165,1.09682 2.13712,2.19011 2.192615,2.8883304 3.399397,5.5382704 4.008943,8.8031804 0.274912,1.47247 0.270972,4.9341 -0.007,6.44572 -0.782914,4.25255 -2.631033,7.64338 -5.829091,10.69494 -2.728462,2.60347 -5.590258,4.05351 -9.60896,4.86873 l -1.634207,0.33152 0,1.62888 0,1.62888 5.680572,0.0361 c 5.07114,0.0322 5.713099,0.0574 5.983763,0.23485 0.625907,0.41034 0.737912,1.47248 0.206029,1.95385 -0.239291,0.21656 -0.688924,0.22519 -13.041621,0.25012 -11.128005,0.0225 -12.8359523,0.003 -13.1176403,-0.15078 l -6e-6,0 5.7e-5,0 z m 15.7151143,-8.19492 c 3.277321,-0.64179 5.962749,-2.04789 8.457773,-4.4285 2.576867,-2.4587 4.126804,-5.24122 4.874216,-8.75044 0.203969,-0.95767 0.257101,-1.62198 0.262421,-3.28064 0.007,-2.29857 -0.167807,-3.52046 -0.771343,-5.38024 -0.597275,-1.8405 -2.140542,-4.5968204 -3.075024,-5.4920704 l -0.357136,-0.34214 -0.438824,0.35516 c -0.241355,0.19533 -0.54391,0.49589 -0.672346,0.66791 l -0.233521,0.31277 0.800544,1.2253604 c 1.893488,2.89829 2.604508,5.21018 2.606458,8.47498 0.003,4.30233 -1.424536,7.66427 -4.516715,10.64037 -1.355867,1.30496 -2.335511,1.99624 -3.862788,2.72573 -2.631722,1.25702 -5.549707,1.68457 -8.503625,1.24598 -2.258683,-0.33537 -4.210957,-1.12011 -6.328233,-2.5437 -1.027663,-0.69097 -1.126635,-0.73259 -1.397387,-0.5877 -0.321188,0.17189 -1.106642,0.99732 -1.106642,1.16297 0,0.15622 0.820437,0.86765 1.615847,1.40115 2.171087,1.45621 4.383814,2.31008 7.060307,2.72451 1.298966,0.20114 4.241227,0.13189 5.586018,-0.13146 z"
       id="path2818"
       sodipodi:nodetypes="csccsccccsssssssssccssssscccccsssccccsssccccccssssssssscc" />
    <path
       style="fill:url(#linearGradient2964);fill-opacity:1;stroke:none"
       d="m 24.000294,29.656182 c -5.613881,0 -10.754481,-1.045208 -14.8437497,-2.75 -1.228585,-1.995923 -1.822193,-3.812749 -2.125,-6.34375 -0.258745,-2.1627 0.094619,-4.89678 0.90625,-7 1.525921,-3.9542104 4.9971157,-7.3628304 8.9687497,-8.7500004 2.946835,-1.02924 6.577713,-1.07497 9.53125,-0.15625 1.918807,0.59686 5.28523,2.51997 5.125,2.9375 l 1.3125,-1.25 c 0.997701,-1.00794 1.534001,-1.40625 1.84375,-1.40625 0.236889,0 1.295045,1.09421 2.125,2.1875 2.192615,2.8883304 3.421704,5.5163404 4.03125,8.7812504 0.274912,1.47247 0.246722,4.95713 -0.03125,6.46875 -0.278219,1.511203 -0.689967,2.901743 -1.25,4.21875 -0.976698,0.441745 -2.021678,0.832062 -3.125,1.1875 0.972042,-1.5889 1.641045,-3.333703 2.0625,-5.3125 0.203969,-0.95767 0.27593,-1.62259 0.28125,-3.28125 0.007,-2.29857 -0.177714,-3.51522 -0.78125,-5.375 -0.597275,-1.8405 -2.128018,-4.6047504 -3.0625,-5.5000004 l -0.375,-0.34375 -0.4375,0.34375 c -0.241355,0.19533 -0.527814,0.51548 -0.65625,0.6875 l -0.25,0.3125 0.8125,1.2187504 c 1.893488,2.89829 2.5918,5.20395 2.59375,8.46875 0.0027,3.863152 -1.151437,6.970528 -3.625,9.71875 -2.78887,0.598428 -5.836219,0.9375 -9.03125,0.9375 z"
       id="path2950" />
    <g
       transform="matrix(0.1337942,0,0,-0.1337942,31.527762,89.04701)"
       inkscape:label="Calque 1"
       id="g2952" />
    <g
       transform="matrix(0.1672428,0,0,-0.1672428,38.442916,104.62323)"
       inkscape:label="Calque 1"
       id="g2954" />
  </g>
</svg>
