<?xml version="1.0" encoding="UTF-8" standalone="no"?>
<!-- Created with Inkscape (http://www.inkscape.org/) -->

<svg
   xmlns:dc="http://purl.org/dc/elements/1.1/"
   xmlns:cc="http://creativecommons.org/ns#"
   xmlns:rdf="http://www.w3.org/1999/02/22-rdf-syntax-ns#"
   xmlns:svg="http://www.w3.org/2000/svg"
   xmlns="http://www.w3.org/2000/svg"
   xmlns:xlink="http://www.w3.org/1999/xlink"
   xmlns:sodipodi="http://sodipodi.sourceforge.net/DTD/sodipodi-0.dtd"
   xmlns:inkscape="http://www.inkscape.org/namespaces/inkscape"
   width="48px"
   height="48px"
   id="svg3840"
   version="1.1"
   inkscape:version="0.47 r22583"
   sodipodi:docname="applications-graphics.svg">
  <defs
     id="defs3842">
    <linearGradient
       id="linearGradient3172-8">
      <stop
         id="stop3174-5"
         offset="0"
         style="stop-color:#4d4d4d;stop-opacity:1;" />
      <stop
         id="stop3176-6"
         offset="1"
         style="stop-color:#4d4d4d;stop-opacity:0;" />
    </linearGradient>
    <linearGradient
       inkscape:collect="always"
       xlink:href="#linearGradient3172-8"
       id="linearGradient2940"
       gradientUnits="userSpaceOnUse"
       gradientTransform="matrix(0.644962,0,0,1.1832362,9.2353395,4.020187)"
       x1="22.892584"
       y1="0.90414524"
       x2="22.892584"
       y2="21.132059" />
  </defs>
  <sodipodi:namedview
     id="base"
     pagecolor="#ffffff"
     bordercolor="#666666"
     borderopacity="1.0"
     inkscape:pageopacity="0.0"
     inkscape:pageshadow="2"
     inkscape:zoom="4.9497475"
     inkscape:cx="15.974979"
     inkscape:cy="32.756445"
     inkscape:current-layer="layer1"
     showgrid="true"
     inkscape:grid-bbox="true"
     inkscape:document-units="px"
     inkscape:window-width="1366"
     inkscape:window-height="719"
     inkscape:window-x="0"
     inkscape:window-y="25"
     inkscape:window-maximized="1" />
  <metadata
     id="metadata3845">
    <rdf:RDF>
      <cc:Work
         rdf:about="">
        <dc:format>image/svg+xml</dc:format>
        <dc:type
           rdf:resource="http://purl.org/dc/dcmitype/StillImage" />
        <dc:title />
      </cc:Work>
    </rdf:RDF>
  </metadata>
  <g
     id="layer1"
     inkscape:label="Layer 1"
     inkscape:groupmode="layer">
    <path
       style="fill:#000000;fill-opacity:1;fill-rule:evenodd;stroke:none"
       d="M 4.8125,4 C 4.567241,4.02528 4.34179,4.149196 4.15625,4.40625 4.06348,4.534777 3.983434,4.692789 4,4.875 4.0149,5.038883 4.066646,5.161715 4.15625,5.28125 4.16627,5.29462 4.17698,5.33104 4.1875,5.34375 7.8792215,11.238815 12.356625,16.381654 16.898,21.492 c 4.541375,5.110346 9.146721,10.188201 14.69575,14.35175 -0.184399,0.294546 -0.402243,0.590159 -0.5,0.90625 -0.758818,2.4536 0.340372,5.296751 3.53125,6.5 1.767331,0.666444 3.880095,0.884202 5.65625,0.6875 0.888078,-0.09835 1.69045,-0.292084 2.34375,-0.625 0.6533,-0.332916 1.208326,-0.824687 1.375,-1.5 0.03577,-0.146948 -0.0031,-0.285255 -0.09375,-0.40625 -0.0907,-0.120993 -0.22398,-0.211954 -0.375,-0.21875 C 42.432682,41.13915 41.678485,40.823082 41.125,40.375 40.571516,39.926917 40.177661,39.320671 39.84375,38.625 39.175927,37.233657 38.835693,35.465218 37.5,34.5 c -1.003239,-0.724972 -2.0782,-0.93684 -3,-0.78125 -0.222739,0.0376 -0.356363,0.238037 -0.5625,0.3125 -0.01074,-0.02712 -0.01576,-0.03779 -0.03125,-0.0625 C 30.206013,28.066384 25.374686,23.174101 20.522,18.277 15.669314,13.379899 10.795014,8.478138 5.40625,4.15625 5.39396,4.14253 5.38872,4.1373 5.375,4.125 5.191693,4.020731 4.956323,3.985177 4.8125,4 z M 25.75,10.46875 c -0.493563,0.0077 -1.017474,0.03602 -1.53125,0.0625 -3.262659,0.168133 -5.86879,0.589598 -8.1875,1.375 1.336187,1.211103 2.647104,2.427986 3.9375,3.6875 C 20.627081,14.002612 22.16665,12.875 24,12.875 c 2.430236,0 4.40625,1.97597 4.40625,4.40625 0,1.882645 -1.179998,3.495401 -2.84375,4.125 2.025515,2.267013 3.401074,4.026159 5.78125,7.0625 1.010187,-0.09111 2.556598,-0.15625 4.21875,-0.15625 3.872743,0 4.736761,-0.139729 6.15625,-1.09375 3.120505,-2.097253 3.021815,-6.376259 -0.21875,-10.625 -3.230224,-4.235186 -8.346558,-6.240837 -15.75,-6.125 z m -15.90625,4.8125 c -4.849414,3.893446 -6.9343023,9.9386 -5.28125,15.625 1.275366,4.38719 4.518431,7.499329 9.09375,8.78125 3.241394,0.908177 8.279498,0.688771 10.71875,-0.46875 1.959495,-0.92986 2.878045,-2.30453 3.40625,-5.15625 C 20.304691,27.677925 15.936975,23.073786 9.84375,15.28125 z m 26.59375,1.0625 c 1.813608,0 3.3125,1.467609 3.3125,3.28125 0,1.813641 -1.498892,3.28125 -3.3125,3.28125 -1.813609,0 -3.28125,-1.467609 -3.28125,-3.28125 0,-1.813641 1.467641,-3.28125 3.28125,-3.28125 z M 12.875,25.375 c 2.176331,0 3.96875,1.761131 3.96875,3.9375 0,2.17637 -1.792419,3.96875 -3.96875,3.96875 -2.17633,0 -3.9375,-1.79238 -3.9375,-3.96875 0,-2.176369 1.76117,-3.9375 3.9375,-3.9375 z"
       id="path2568"
       sodipodi:nodetypes="cssscscsssssssssssssscsccsccssccsssccssscccsssccsssc" />
    <g
       transform="matrix(0.1337942,0,0,-0.1337942,31.527762,89.04701)"
       inkscape:label="Calque 1"
       id="g3966" />
    <g
       transform="matrix(0.1672428,0,0,-0.1672428,38.442916,104.62323)"
       inkscape:label="Calque 1"
       id="g3968" />
    <path
       style="fill:url(#linearGradient2940);fill-opacity:1;stroke:none"
       d="M 24.500186,29.6601 C 21.853058,27.0435 19.37456,24.281195 16.906436,21.50385 12.365061,16.393504 7.8794075,11.242665 4.1876865,5.3476 c -0.01052,-0.01271 -0.02123,-0.04913 -0.03125,-0.0625 -0.0896,-0.119535 -0.14135,-0.242367 -0.15625,-0.40625 -0.016566,-0.182211 0.06348,-0.340223 0.15625,-0.46875 0.18554,-0.257054 0.410991,-0.38097 0.65625,-0.40625 0.143823,-0.01482 0.379193,0.02073 0.5625,0.125 0.01372,0.0123 0.01896,0.01753 0.03125,0.03125 5.3887635,4.321888 10.2723135,9.227899 15.1249995,14.125 3.468806,3.500554 6.895854,7.008674 9.9375,10.875 -1.906125,0.281562 -3.903099,0.477349 -5.96875,0.5 z m -1.71875,-0.03125 c -2.066653,-0.0553 -4.072053,-0.248257 -5.96875,-0.5625 -0.130707,-2.059907 -1.844966,-3.6875 -3.9375,-3.6875 -1.360206,0 -2.542753,0.671454 -3.2499995,1.71875 -2.054625,-0.814403 -3.875617,-1.791881 -5.34375,-2.90625 0.689416,-3.385942 2.620058,-6.543854 5.5625,-8.90625 4.6005215,5.88354 8.2235205,9.956737 12.9374995,14.34375 z m 8.5625,-1.15625 c -2.380176,-3.036341 -3.755735,-4.795487 -5.78125,-7.0625 1.663752,-0.629599 2.84375,-2.242355 2.84375,-4.125 0,-2.43028 -1.976014,-4.40625 -4.40625,-4.40625 -1.83335,0 -3.372919,1.127612 -4.03125,2.71875 -1.290396,-1.259514 -2.601313,-2.476397 -3.9375,-3.6875 2.31871,-0.785402 4.924841,-1.206867 8.1875,-1.375 0.513776,-0.02648 1.037687,-0.0548 1.53125,-0.0625 7.403442,-0.115837 12.519776,1.889814 15.75,6.125 2.025353,2.655463 2.823114,5.329686 2.375,7.46875 -0.0021,0.01007 0.0022,0.02121 0,0.03125 -2.314746,1.796466 -5.505513,3.244595 -9.21875,4.21875 -1.29209,0.01913 -2.497581,0.08275 -3.3125,0.15625 z m 5.09375,-5.5625 c 1.813608,0 3.3125,-1.467609 3.3125,-3.28125 0,-1.813641 -1.498892,-3.28125 -3.3125,-3.28125 -1.813609,0 -3.28125,1.467609 -3.28125,3.28125 0,1.813641 1.467641,3.28125 3.28125,3.28125 z"
       id="path2926" />
    <g
       transform="matrix(0.1337942,0,0,-0.1337942,31.527762,89.04701)"
       inkscape:label="Calque 1"
       id="g2928" />
    <g
       transform="matrix(0.1672428,0,0,-0.1672428,38.442916,104.62323)"
       inkscape:label="Calque 1"
       id="g2930" />
  </g>
</svg>
