<?xml version="1.0" encoding="UTF-8" standalone="no"?>
<!-- Created with Inkscape (http://www.inkscape.org/) -->

<svg
   xmlns:dc="http://purl.org/dc/elements/1.1/"
   xmlns:cc="http://creativecommons.org/ns#"
   xmlns:rdf="http://www.w3.org/1999/02/22-rdf-syntax-ns#"
   xmlns:svg="http://www.w3.org/2000/svg"
   xmlns="http://www.w3.org/2000/svg"
   xmlns:xlink="http://www.w3.org/1999/xlink"
   xmlns:sodipodi="http://sodipodi.sourceforge.net/DTD/sodipodi-0.dtd"
   xmlns:inkscape="http://www.inkscape.org/namespaces/inkscape"
   width="48px"
   height="48px"
   id="svg3926"
   version="1.1"
   inkscape:version="0.47 r22583"
   sodipodi:docname="Nouveau document 6">
  <defs
     id="defs3928">
    <linearGradient
       inkscape:collect="always"
       xlink:href="#linearGradient3172-7"
       id="linearGradient3906"
       gradientUnits="userSpaceOnUse"
       gradientTransform="matrix(0.644962,0,0,1.1832362,9.235196,4.016337)"
       x1="22.892584"
       y1="0.90414524"
       x2="22.892584"
       y2="21.132059" />
    <linearGradient
       id="linearGradient3172-7">
      <stop
         id="stop3174-7"
         offset="0"
         style="stop-color:#4d4d4d;stop-opacity:1;" />
      <stop
         id="stop3176-0"
         offset="1"
         style="stop-color:#4d4d4d;stop-opacity:0;" />
    </linearGradient>
  </defs>
  <sodipodi:namedview
     id="base"
     pagecolor="#ffffff"
     bordercolor="#666666"
     borderopacity="1.0"
     inkscape:pageopacity="0.0"
     inkscape:pageshadow="2"
     inkscape:zoom="7"
     inkscape:cx="24"
     inkscape:cy="24"
     inkscape:current-layer="layer1"
     showgrid="true"
     inkscape:grid-bbox="true"
     inkscape:document-units="px"
     inkscape:window-width="596"
     inkscape:window-height="502"
     inkscape:window-x="768"
     inkscape:window-y="24"
     inkscape:window-maximized="0" />
  <metadata
     id="metadata3931">
    <rdf:RDF>
      <cc:Work
         rdf:about="">
        <dc:format>image/svg+xml</dc:format>
        <dc:type
           rdf:resource="http://purl.org/dc/dcmitype/StillImage" />
        <dc:title></dc:title>
      </cc:Work>
    </rdf:RDF>
  </metadata>
  <g
     id="layer1"
     inkscape:label="Layer 1"
     inkscape:groupmode="layer">
    <path
       style="font-size:medium;font-style:normal;font-variant:normal;font-weight:normal;font-stretch:normal;text-indent:0;text-align:start;text-decoration:none;line-height:normal;letter-spacing:normal;word-spacing:normal;text-transform:none;direction:ltr;block-progression:tb;writing-mode:lr-tb;text-anchor:start;color:#000000;fill:#000000;fill-opacity:1;stroke:none;stroke-width:1.89498711;marker:none;visibility:visible;display:inline;overflow:visible;enable-background:accumulate;font-family:Bitstream Charter;-inkscape-font-specification:Bitstream Charter"
       d="m 24,44 c -2.364654,0 -4.368647,-2.41071 -5.78125,-6.03125 -1.779485,0.780624 -3.436897,1.258776 -4.875,1.3125 C 11.905647,39.33497 10.711032,38.961031 9.875,38.125 8.202937,36.452937 8.470002,33.34022 10.03125,29.78125 6.410707,28.368648 4,26.364653 4,24 4,21.635346 6.410707,19.631353 10.03125,18.21875 8.470003,14.659781 8.171687,11.547063 9.84375,9.875 11.515812,8.202937 14.659781,8.470004 18.21875,10.03125 19.631353,6.410712 21.635346,4 24,4 c 2.364654,0 4.368648,2.410712 5.78125,6.03125 3.558969,-1.561247 6.67169,-1.859563 8.34375,-0.1875 1.67206,1.672062 1.40499,4.816031 -0.15625,8.375 C 41.58929,19.631353 44,21.635346 44,24 c 0,2.364653 -2.41071,4.368648 -6.03125,5.78125 1.56124,3.55897 1.82831,6.671687 0.15625,8.34375 -1.67206,1.672063 -4.78478,1.404997 -8.34375,-0.15625 C 28.368648,41.58929 26.364654,44 24,44 z m 0,-1.34375 c 1.778237,0 3.500627,-1.86112 4.8125,-5.15625 C 27.271857,36.745574 25.638729,35.778516 24,34.59375 22.366327,35.773529 20.720365,36.745017 19.1875,37.5 20.498933,40.79513 22.221762,42.65625 24,42.65625 z M 13.59375,38.0625 c 1.189183,-0.04744 2.643236,-0.402193 4.25,-1.09375 C 17.283394,35.327554 16.824192,33.466389 16.5,31.4375 c -1.993111,-0.318268 -3.851609,-0.730527 -5.46875,-1.28125 -1.391395,3.24411 -1.503777,5.777472 -0.25,7.03125 0.637061,0.637061 1.591008,0.923729 2.8125,0.875 z m 20.78125,0 c 1.218454,0.05177 2.17544,-0.237939 2.8125,-0.875 1.25377,-1.253778 1.17169,-3.787141 -0.21875,-7.03125 -1.62732,0.555619 -3.49669,0.963374 -5.5,1.28125 -0.324186,2.028692 -0.75219,3.890192 -1.3125,5.53125 1.595926,0.683882 3.039206,1.043638 4.21875,1.09375 z M 18.8125,36.5 c 1.357037,-0.666232 2.804486,-1.517409 4.28125,-2.5625 -0.805855,-0.615363 -1.608241,-1.292511 -2.40625,-2 -1.067315,-0.07019 -2.090263,-0.179327 -3.09375,-0.3125 0.310623,1.799803 0.723325,3.436208 1.21875,4.875 z m 10.375,0 c 0.494396,-1.438792 0.911558,-3.075197 1.21875,-4.875 -1.003367,0.132842 -2.023884,0.242139 -3.09375,0.3125 -0.805197,0.707115 -1.630671,1.384113 -2.4375,2 1.489275,1.050045 2.948712,1.894192 4.3125,2.5625 z M 24,33.28125 c 0.519771,-0.389446 1.039843,-0.819741 1.5625,-1.25 -0.514332,0.01567 -1.038014,0.03125 -1.5625,0.03125 -0.532556,0 -1.071676,-0.01509 -1.59375,-0.03125 0.522905,0.430456 1.073866,0.861745 1.59375,1.25 z M 24,31 c 0.968181,0 1.914853,-0.0073 2.84375,-0.0625 0.706938,-0.627217 1.428316,-1.272067 2.125,-1.96875 C 29.657909,28.27959 30.316218,27.576479 30.9375,26.875 30.99293,25.936328 31,24.978892 31,24 31,23.031819 30.9917,22.085148 30.9375,21.15625 30.316464,20.44901 29.664776,19.727277 28.96875,19.03125 28.273059,18.33556 27.551144,17.690026 26.84375,17.0625 25.914853,17.00825 24.968181,17 24,17 c -0.989602,0 -1.957816,0.0059 -2.90625,0.0625 -0.688059,0.611647 -1.379256,1.254255 -2.0625,1.9375 -0.700633,0.700633 -1.368176,1.412886 -2,2.125 -0.05637,0.938421 -0.0625,1.896381 -0.0625,2.875 0,0.978618 0.0061,1.936579 0.0625,2.875 0.616593,0.700614 1.27723,1.402229 1.96875,2.09375 0.690059,0.690059 1.392469,1.34539 2.09375,1.96875 C 22.042184,30.99512 23.010398,31 24,31 z m -4.59375,-0.1875 c -0.37125,-0.35202 -0.723967,-0.755217 -1.09375,-1.125 -0.385731,-0.385731 -0.790276,-0.766695 -1.15625,-1.15625 0.06711,0.693253 0.18551,1.371224 0.28125,2.03125 0.64371,0.09328 1.292489,0.183786 1.96875,0.25 z m 9.1875,0 c 0.675122,-0.0663 1.325116,-0.156624 1.96875,-0.25 0.09162,-0.639893 0.185088,-1.297562 0.25,-1.96875 -0.35205,0.373786 -0.754762,0.723512 -1.125,1.09375 -0.370238,0.370238 -0.719964,0.77295 -1.09375,1.125 z m -12.25,-0.4375 c -0.132924,-0.994674 -0.211723,-2.005313 -0.28125,-3.0625 -0.707115,-0.805197 -1.384113,-1.630671 -2,-2.4375 -1.050045,1.489275 -1.894192,2.948712 -2.5625,4.3125 1.42642,0.491166 3.065067,0.878534 4.84375,1.1875 z m 15.28125,0 c 1.791022,-0.309762 3.4427,-0.694311 4.875,-1.1875 -0.66769,-1.3644 -1.510029,-2.825646 -2.5625,-4.3125 -0.615887,0.806829 -1.292885,1.632303 -2,2.4375 -0.0696,1.0583 -0.179372,2.066851 -0.3125,3.0625 z M 24,29 c -2.761424,0 -5,-2.238576 -5,-5 0,-2.761424 2.238576,-5 5,-5 2.761424,0 5,2.238576 5,5 0,2.761424 -2.238576,5 -5,5 z M 10.5,28.8125 C 11.254426,27.271857 12.221485,25.638729 13.40625,24 12.226471,22.366326 11.254983,20.720365 10.5,19.1875 7.204867,20.499373 5.3125,22.221762 5.3125,24 c 0,1.778238 1.892367,3.501067 5.1875,4.8125 z m 27,0 c 3.29513,-1.311433 5.15625,-3.034262 5.15625,-4.8125 0,-1.778238 -1.86112,-3.500627 -5.15625,-4.8125 -0.75498,1.532865 -1.726473,3.178826 -2.90625,4.8125 1.184767,1.638729 2.15183,3.271857 2.90625,4.8125 z M 15.96875,25.625 C 15.95184,25.090949 15.9375,24.545049 15.9375,24 c 0,-0.532555 0.01509,-1.071676 0.03125,-1.59375 -0.430455,0.522905 -0.861745,1.073866 -1.25,1.59375 0.401593,0.538101 0.80871,1.085209 1.25,1.625 z m 16.0625,-0.03125 C 32.462663,25.069562 32.8594,24.519951 33.25,24 32.860793,23.480702 32.457506,22.960299 32.03125,22.4375 32.04678,22.949556 32.0625,23.477884 32.0625,24 c 0,0.534769 -0.01496,1.069553 -0.03125,1.59375 z M 14.0625,23.125 c 0.617087,-0.809064 1.293742,-1.633419 2,-2.4375 0.06953,-1.057188 0.148326,-2.067825 0.28125,-3.0625 -1.780978,0.307588 -3.414972,0.696079 -4.84375,1.1875 0.666756,1.363785 1.5189,2.832366 2.5625,4.3125 z m 19.875,-0.03125 c 1.045091,-1.476764 1.89627,-2.924214 2.5625,-4.28125 -1.43308,-0.492902 -3.084311,-0.877539 -4.875,-1.1875 0.133128,0.995649 0.242899,2.0042 0.3125,3.0625 0.707489,0.798009 1.384637,1.600395 2,2.40625 z m -16.78125,-3.625 c 0.366015,-0.389441 0.769434,-0.769434 1.15625,-1.15625 0.384402,-0.384402 0.766699,-0.761939 1.15625,-1.125 -0.69371,0.06595 -1.372043,0.155369 -2.03125,0.25 -0.09539,0.659236 -0.21441,1.338925 -0.28125,2.03125 z m 13.65625,-0.0625 c -0.06466,-0.670551 -0.158688,-1.329385 -0.25,-1.96875 -0.64372,-0.09317 -1.292962,-0.184643 -1.96875,-0.25 0.373786,0.35205 0.723512,0.754762 1.09375,1.125 0.369783,0.369783 0.772979,0.7225 1.125,1.09375 z m -19.78125,-1.5625 c 1.617142,-0.550723 3.475639,-0.962982 5.46875,-1.28125 0.322916,-2.020903 0.786435,-3.894752 1.34375,-5.53125 -3.257158,-1.401699 -5.805227,-1.476023 -7.0625,-0.21875 -1.257274,1.257274 -1.15249,3.774882 0.25,7.03125 z m 25.9375,0 c 1.40169,-3.257158 1.47602,-5.805227 0.21875,-7.0625 -1.25728,-1.257274 -3.774882,-1.15249 -7.03125,0.25 0.557267,1.636361 0.98959,3.510543 1.3125,5.53125 2.00331,0.317876 3.87268,0.725631 5.5,1.28125 z M 17.59375,16.375 c 1.003487,-0.133172 2.026435,-0.242306 3.09375,-0.3125 0.806431,-0.70039 1.633143,-1.354196 2.4375,-1.96875 -1.487082,-1.054896 -2.947388,-1.921239 -4.3125,-2.59375 -0.493983,1.436544 -0.90881,3.079154 -1.21875,4.875 z m 12.8125,0 C 30.099734,14.579154 29.680446,12.936544 29.1875,11.5 c -1.363785,0.666756 -2.832366,1.5189 -4.3125,2.5625 0.806829,0.615887 1.632303,1.292885 2.4375,2 1.069866,0.07036 2.090383,0.179659 3.09375,0.3125 z M 22.375,15.96875 C 22.907082,15.95196 23.457006,15.9375 24,15.9375 c 0.524486,0 1.048168,0.01557 1.5625,0.03125 -0.522872,-0.430487 -1.043445,-0.860917 -1.5625,-1.25 -0.535238,0.399722 -1.090975,0.809933 -1.625,1.25 z M 24,13.40625 c 1.638034,-1.182927 3.276001,-2.181719 4.8125,-2.9375 C 27.500767,7.175464 25.777707,5.3125 24,5.3125 c -1.777708,0 -3.501215,1.862964 -4.8125,5.15625 1.544307,0.755193 3.168904,1.749083 4.8125,2.9375 z"
       id="path3597" />
    <path
       style="fill:url(#linearGradient3906);fill-opacity:1;stroke:none"
       d="m 19.468792,29.40625 c -0.564218,-0.0569 -1.106769,-0.141394 -1.65625,-0.21875 -0.222073,-0.218006 -0.448535,-0.435151 -0.65625,-0.65625 0.01967,0.203178 0.06713,0.393264 0.09375,0.59375 -0.359217,-0.05557 -0.710472,-0.123421 -1.0625,-0.1875 -0.04755,-0.529465 -0.0888,-1.074618 -0.125,-1.625 -0.707115,-0.805197 -1.384113,-1.630671 -2,-2.4375 -0.750369,1.064246 -1.3552,2.115244 -1.90625,3.125 -0.361549,-0.108553 -0.712987,-0.225741 -1.0625,-0.34375 0.0042,-0.0077 -0.0042,-0.02356 0,-0.03125 C 11.73695,26.446088 12.52348,25.221078 13.406292,24 12.226513,22.366326 11.255025,20.720365 10.500042,19.1875 7.20491,20.499373 5.312543,22.221762 5.312543,24 c 0,0.369292 0.09116,0.732425 0.25,1.09375 C 5.004158,24.741326 4.484171,24.383364 4.000043,24 c 0,-0.0105 -9.5e-5,-0.02076 0,-0.03125 0.0213,-2.350957 2.426788,-4.343671 6.031249,-5.75 C 8.470046,14.659781 8.17173,11.547063 9.843793,9.875 11.515854,8.202937 14.659823,8.470004 18.218792,10.03125 19.631395,6.410712 21.635388,4 24.000042,4 c 2.364654,0 4.368648,2.410712 5.78125,6.03125 3.558969,-1.561247 6.67169,-1.859563 8.34375,-0.1875 1.67206,1.672062 1.40499,4.816031 -0.15625,8.375 3.604459,1.406329 6.009954,3.399043 6.03125,5.75 -0.0056,0.0044 0.0056,0.02684 0,0.03125 -0.500621,0.396425 -1.045082,0.761716 -1.625,1.125 0.167587,-0.373411 0.28125,-0.742943 0.28125,-1.125 0,-1.778238 -1.86112,-3.500627 -5.15625,-4.8125 -0.75498,1.532865 -1.726473,3.178826 -2.90625,4.8125 0.882814,1.221078 1.669344,2.446088 2.3125,3.625 -0.0031,0.001 0.0031,0.03021 0,0.03125 -0.337141,0.113831 -0.6829,0.207461 -1.03125,0.3125 -0.55074,-1.011143 -1.18477,-2.030348 -1.9375,-3.09375 -0.615887,0.806829 -1.292885,1.632303 -2,2.4375 -0.03623,0.550859 -0.06938,1.095902 -0.125,1.625 -0.352028,0.06408 -0.703283,0.131934 -1.0625,0.1875 0.02105,-0.178855 0.045,-0.350347 0.0625,-0.53125 -0.193411,0.205352 -0.414792,0.39553 -0.625,0.59375 -0.559322,0.07874 -1.112923,0.161214 -1.6875,0.21875 0.155048,-0.148436 0.315671,-0.284421 0.46875,-0.4375 0.689159,-0.68916 1.347468,-1.392271 1.96875,-2.09375 0.05543,-0.938672 0.0625,-1.896108 0.0625,-2.875 0,-0.968181 -0.0083,-1.914852 -0.0625,-2.84375 -0.621036,-0.70724 -1.272724,-1.428973 -1.96875,-2.125 -0.695691,-0.69569 -1.417606,-1.341224 -2.125,-1.96875 C 25.914895,17.00825 24.968223,17 24.000042,17 c -0.989602,0 -1.957816,0.0059 -2.90625,0.0625 -0.688059,0.611647 -1.379256,1.254255 -2.0625,1.9375 -0.700633,0.700633 -1.368176,1.412886 -2,2.125 -0.05637,0.938421 -0.0625,1.896381 -0.0625,2.875 0,0.978618 0.0061,1.936579 0.0625,2.875 0.616593,0.700614 1.27723,1.402229 1.96875,2.09375 0.153954,0.153954 0.313716,0.286973 0.46875,0.4375 z M 24.000042,29 c -2.761424,0 -5,-2.238576 -5,-5 0,-2.761424 2.238576,-5 5,-5 2.761424,0 5,2.238576 5,5 0,2.761424 -2.238576,5 -5,5 z m -8.03125,-3.375 c -0.01691,-0.534051 -0.03125,-1.079951 -0.03125,-1.625 0,-0.532555 0.01509,-1.071676 0.03125,-1.59375 -0.430455,0.522905 -0.861745,1.073866 -1.25,1.59375 0.401593,0.538101 0.80871,1.085209 1.25,1.625 z m 16.0625,-0.03125 c 0.431413,-0.524188 0.82815,-1.073799 1.21875,-1.59375 -0.389207,-0.519298 -0.792494,-1.039701 -1.21875,-1.5625 0.01553,0.512056 0.03125,1.040384 0.03125,1.5625 0,0.534769 -0.01496,1.069553 -0.03125,1.59375 z M 14.062542,23.125 c 0.617087,-0.809064 1.293742,-1.633419 2,-2.4375 0.06953,-1.057188 0.148326,-2.067825 0.28125,-3.0625 -1.780978,0.307588 -3.414972,0.696079 -4.84375,1.1875 0.666756,1.363785 1.5189,2.832366 2.5625,4.3125 z m 19.875,-0.03125 c 1.045091,-1.476764 1.89627,-2.924214 2.5625,-4.28125 -1.43308,-0.492902 -3.084311,-0.877539 -4.875,-1.1875 0.133128,0.995649 0.242899,2.0042 0.3125,3.0625 0.707489,0.798009 1.384637,1.600395 2,2.40625 z m -16.78125,-3.625 c 0.366015,-0.389441 0.769434,-0.769434 1.15625,-1.15625 0.384402,-0.384402 0.766699,-0.761939 1.15625,-1.125 -0.69371,0.06595 -1.372043,0.155369 -2.03125,0.25 -0.09539,0.659236 -0.21441,1.338925 -0.28125,2.03125 z m 13.65625,-0.0625 c -0.06466,-0.670551 -0.158688,-1.329385 -0.25,-1.96875 -0.64372,-0.09317 -1.292962,-0.184643 -1.96875,-0.25 0.373786,0.35205 0.723512,0.754762 1.09375,1.125 0.369783,0.369783 0.772979,0.7225 1.125,1.09375 z m -19.78125,-1.5625 c 1.617142,-0.550723 3.475639,-0.962982 5.46875,-1.28125 0.322916,-2.020903 0.786435,-3.894752 1.34375,-5.53125 -3.257158,-1.401699 -5.805227,-1.476023 -7.0625,-0.21875 -1.257273,1.257274 -1.152489,3.774882 0.25,7.03125 z m 25.9375,0 c 1.40169,-3.257158 1.47602,-5.805227 0.21875,-7.0625 -1.25728,-1.257274 -3.774882,-1.15249 -7.03125,0.25 0.557267,1.636361 0.98959,3.510543 1.3125,5.53125 2.00331,0.317876 3.87268,0.725631 5.5,1.28125 z m -19.375,-1.46875 c 1.003487,-0.133172 2.026435,-0.242306 3.09375,-0.3125 0.806431,-0.70039 1.633143,-1.354196 2.4375,-1.96875 -1.487082,-1.054896 -2.947388,-1.921239 -4.3125,-2.59375 -0.493983,1.436544 -0.90881,3.079154 -1.21875,4.875 z m 12.8125,0 c -0.306516,-1.795846 -0.725804,-3.438456 -1.21875,-4.875 -1.363785,0.666756 -2.832366,1.5189 -4.3125,2.5625 0.806829,0.615887 1.632303,1.292885 2.4375,2 1.069866,0.07036 2.090383,0.179659 3.09375,0.3125 z m -8.03125,-0.40625 c 0.532082,-0.01679 1.082006,-0.03125 1.625,-0.03125 0.524486,0 1.048168,0.01557 1.5625,0.03125 -0.522872,-0.430487 -1.043445,-0.860917 -1.5625,-1.25 -0.535238,0.399722 -1.090975,0.809933 -1.625,1.25 z m 1.625,-2.5625 c 1.638034,-1.182927 3.276001,-2.181719 4.8125,-2.9375 -1.311733,-3.293286 -3.034793,-5.15625 -4.8125,-5.15625 -1.777708,0 -3.501215,1.862964 -4.8125,5.15625 1.544307,0.755193 3.168904,1.749083 4.8125,2.9375 z"
       id="path3890" />
  </g>
</svg>
