<?xml version="1.0" encoding="UTF-8" standalone="no"?>
<!-- Created with Inkscape (http://www.inkscape.org/) -->
<svg
   xmlns:dc="http://purl.org/dc/elements/1.1/"
   xmlns:cc="http://creativecommons.org/ns#"
   xmlns:rdf="http://www.w3.org/1999/02/22-rdf-syntax-ns#"
   xmlns:svg="http://www.w3.org/2000/svg"
   xmlns="http://www.w3.org/2000/svg"
   xmlns:xlink="http://www.w3.org/1999/xlink"
   xmlns:sodipodi="http://sodipodi.sourceforge.net/DTD/sodipodi-0.dtd"
   xmlns:inkscape="http://www.inkscape.org/namespaces/inkscape"
   width="48px"
   height="48px"
   id="svg4289"
   sodipodi:version="0.32"
   inkscape:version="0.46"
   sodipodi:docbase="/home/lapo/Icone/cvs/gnome-icon-theme/scalable/categories"
   sodipodi:docname="applications-internet.svg"
   inkscape:output_extension="org.inkscape.output.svg.inkscape">
  <defs
     id="defs4291">
    <inkscape:perspective
       sodipodi:type="inkscape:persp3d"
       inkscape:vp_x="0 : 24 : 1"
       inkscape:vp_y="0 : 1000 : 0"
       inkscape:vp_z="48 : 24 : 1"
       inkscape:persp3d-origin="24 : 16 : 1"
       id="perspective18" />
    <linearGradient
       gradientTransform="matrix(0.1377049,0,0,0.1377049,-20.852457,-45.850258)"
       y2="546.64789"
       x2="325.71429"
       y1="369.50507"
       x1="325.71429"
       gradientUnits="userSpaceOnUse"
       id="linearGradient2454"
       xlink:href="#linearGradient3155"
       inkscape:collect="always" />
    <linearGradient
       inkscape:collect="always"
       id="linearGradient3155">
      <stop
         style="stop-color:#4d4d4d;stop-opacity:1;"
         offset="0"
         id="stop3157" />
      <stop
         style="stop-color:#4d4d4d;stop-opacity:0;"
         offset="1"
         id="stop3159" />
    </linearGradient>
    <linearGradient
       inkscape:collect="always"
       xlink:href="#linearGradient3155"
       id="linearGradient2627"
       gradientUnits="userSpaceOnUse"
       gradientTransform="matrix(0.1377049,0,0,0.1377049,-20.852457,-45.850258)"
       x1="325.71429"
       y1="369.50507"
       x2="325.71429"
       y2="546.64789" />
    <linearGradient
       inkscape:collect="always"
       xlink:href="#linearGradient3155"
       id="linearGradient2630"
       gradientUnits="userSpaceOnUse"
       gradientTransform="matrix(0.1377049,0,0,0.1377049,29.147543,-45.756758)"
       x1="325.71429"
       y1="369.50507"
       x2="325.71429"
       y2="546.64789" />
    <linearGradient
       inkscape:collect="always"
       xlink:href="#linearGradient3155"
       id="linearGradient2634"
       gradientUnits="userSpaceOnUse"
       gradientTransform="matrix(0.1377049,0,0,0.1377049,29.147543,-45.756758)"
       x1="325.71429"
       y1="369.50507"
       x2="325.71429"
       y2="546.64789" />
    <linearGradient
       inkscape:collect="always"
       xlink:href="#linearGradient3155"
       id="linearGradient2637"
       gradientUnits="userSpaceOnUse"
       gradientTransform="matrix(0.1721311,0,0,0.1721311,-32.065571,-63.195948)"
       x1="325.71429"
       y1="369.50507"
       x2="325.71429"
       y2="546.64789" />
  </defs>
  <sodipodi:namedview
     id="base"
     pagecolor="#ffffff"
     bordercolor="#666"
     borderopacity="0.31372549"
     inkscape:pageopacity="0.0"
     inkscape:pageshadow="2"
     inkscape:zoom="5.656854"
     inkscape:cx="27.819841"
     inkscape:cy="16.8779"
     inkscape:current-layer="layer1"
     showgrid="true"
     inkscape:grid-bbox="true"
     inkscape:document-units="px"
     inkscape:window-width="1019"
     inkscape:window-height="732"
     inkscape:window-x="36"
     inkscape:window-y="11"
     inkscape:showpageshadow="false" />
  <metadata
     id="metadata4294">
    <rdf:RDF>
      <cc:Work
         rdf:about="">
        <dc:format>image/svg+xml</dc:format>
        <dc:type
           rdf:resource="http://purl.org/dc/dcmitype/StillImage" />
        <dc:title>System Preferences</dc:title>
        <dc:creator>
          <cc:Agent>
            <dc:title>Andreas Nilsson</dc:title>
          </cc:Agent>
        </dc:creator>
        <dc:subject>
          <rdf:Bag>
            <rdf:li>category</rdf:li>
            <rdf:li>system</rdf:li>
            <rdf:li>preferences</rdf:li>
            <rdf:li>settings</rdf:li>
            <rdf:li>control center</rdf:li>
          </rdf:Bag>
        </dc:subject>
        <dc:contributor>
          <cc:Agent>
            <dc:title>Jakub Steiner</dc:title>
          </cc:Agent>
        </dc:contributor>
        <cc:license
           rdf:resource="http://creativecommons.org/licenses/GPL/2.0/" />
      </cc:Work>
      <cc:License
         rdf:about="http://creativecommons.org/licenses/GPL/2.0/">
        <cc:permits
           rdf:resource="http://web.resource.org/cc/Reproduction" />
        <cc:permits
           rdf:resource="http://web.resource.org/cc/Distribution" />
        <cc:requires
           rdf:resource="http://web.resource.org/cc/Notice" />
        <cc:permits
           rdf:resource="http://web.resource.org/cc/DerivativeWorks" />
        <cc:requires
           rdf:resource="http://web.resource.org/cc/ShareAlike" />
        <cc:requires
           rdf:resource="http://web.resource.org/cc/SourceCode" />
      </cc:License>
    </rdf:RDF>
  </metadata>
  <g
     id="layer1"
     inkscape:label="Layer 1"
     inkscape:groupmode="layer">
    <path
       style="opacity:1;fill:#000000;fill-opacity:1;stroke:none;stroke-opacity:1"
       d="M 24,4 C 23.548844,4 23.115484,4.009395 22.671875,4.0390625 C 22.663044,4.0448275 22.641635,4.0332713 22.632812,4.0390625 C 17.87085,4.3669 13.557856,6.3843313 10.289062,9.46875 C 9.850524,9.8825537 9.438825,10.306228 9.039062,10.757812 C 8.642641,11.205624 8.26179,11.68185 7.90625,12.164062 C 5.4600316,15.481821 4,19.56468 4,24 C 4,28.43532 5.4600316,32.518179 7.90625,35.835938 C 8.26179,36.31815 8.642641,36.794376 9.039062,37.242188 C 9.438825,37.693773 9.850524,38.117446 10.289062,38.53125 C 13.557856,41.615669 17.87085,43.6331 22.632812,43.960938 C 22.641635,43.966729 22.663044,43.955172 22.671875,43.960938 C 23.115484,43.990605 23.548844,44 24,44 C 24.451156,44 24.884516,43.990605 25.328125,43.960938 C 25.336956,43.955172 25.358365,43.966729 25.367188,43.960938 C 30.12915,43.6331 34.442144,41.615669 37.710938,38.53125 C 38.149476,38.117446 38.561175,37.693773 38.960938,37.242188 C 39.357359,36.794376 39.73821,36.31815 40.09375,35.835938 C 42.539969,32.518179 44,28.43532 44,24 C 44,19.56468 42.539969,15.481821 40.09375,12.164062 C 39.73821,11.68185 39.357359,11.205624 38.960938,10.757812 C 38.561175,10.306228 38.149476,9.8825537 37.710938,9.46875 C 34.442144,6.3843313 30.12915,4.3669 25.367188,4.0390625 C 25.358365,4.0332713 25.336956,4.0448275 25.328125,4.0390625 C 24.884516,4.009395 24.451156,4 24,4 z M 24,7.515625 C 24.338196,7.515625 24.682823,7.5345787 25.015625,7.5546875 C 26.507619,8.9754425 27.772218,10.860585 28.765625,13.0625 C 27.273933,13.289362 25.665427,13.414062 24,13.414062 C 22.334573,13.414062 20.726067,13.289362 19.234375,13.0625 C 20.227782,10.860585 21.492381,8.9754425 22.984375,7.5546875 C 23.317177,7.5345787 23.661804,7.515625 24,7.515625 z M 18.257812,8.5703125 C 17.484706,9.7306013 16.771571,10.99738 16.1875,12.398438 C 15.172187,12.116985 14.213424,11.796519 13.375,11.421875 C 14.811592,10.204129 16.468339,9.2424387 18.257812,8.5703125 z M 29.742188,8.5703125 C 31.531661,9.2424387 33.188408,10.204129 34.625,11.421875 C 33.786576,11.796519 32.827813,12.116985 31.8125,12.398438 C 31.228429,10.99738 30.515294,9.7306013 29.742188,8.5703125 z M 10.953125,13.960938 C 12.190799,14.515669 13.619236,14.986656 15.171875,15.367188 C 14.5382,17.579891 14.150896,19.993835 14.039062,22.515625 L 7.59375,22.515625 C 7.882512,19.306399 9.087343,16.377598 10.953125,13.960938 z M 37.046875,13.960938 C 38.912658,16.377598 40.117488,19.306399 40.40625,22.515625 L 33.960938,22.515625 C 33.849104,19.993835 33.4618,17.579891 32.828125,15.367188 C 34.380764,14.986656 35.809201,14.515669 37.046875,13.960938 z M 18.140625,15.953125 C 19.978307,16.228491 21.952042,16.382812 24,16.382812 C 26.047958,16.382812 28.021693,16.228491 29.859375,15.953125 C 30.468345,17.976659 30.869925,20.1932 30.992188,22.515625 L 24,22.515625 L 17.007812,22.515625 C 17.130075,20.1932 17.531655,17.976659 18.140625,15.953125 z M 7.59375,25.484375 L 14.039062,25.484375 C 14.150896,28.006165 14.5382,30.420109 15.171875,32.632812 C 13.619236,33.013344 12.190799,33.484331 10.953125,34.039062 C 9.087343,31.622402 7.882512,28.693601 7.59375,25.484375 z M 17.007812,25.484375 L 24,25.484375 L 30.992188,25.484375 C 30.869925,27.8068 30.468345,30.023341 29.859375,32.046875 C 28.021693,31.771509 26.047958,31.617188 24,31.617188 C 21.952042,31.617188 19.978307,31.771509 18.140625,32.046875 C 17.531655,30.023341 17.130075,27.8068 17.007812,25.484375 z M 33.960938,25.484375 L 40.40625,25.484375 C 40.117488,28.693601 38.912658,31.622402 37.046875,34.039062 C 35.809201,33.484331 34.380764,33.013344 32.828125,32.632812 C 33.4618,30.420109 33.849104,28.006165 33.960938,25.484375 z M 24,34.585938 C 25.665427,34.585938 27.273933,34.710638 28.765625,34.9375 C 27.772218,37.139415 26.507619,39.024558 25.015625,40.445312 C 24.682823,40.465421 24.338196,40.484375 24,40.484375 C 23.661804,40.484375 23.317177,40.465421 22.984375,40.445312 C 21.492381,39.024558 20.227782,37.139415 19.234375,34.9375 C 20.726067,34.710638 22.334573,34.585938 24,34.585938 z M 16.1875,35.601562 C 16.771571,37.00262 17.484706,38.269399 18.257812,39.429688 C 16.468339,38.757561 14.811592,37.795871 13.375,36.578125 C 14.213424,36.203481 15.172187,35.883015 16.1875,35.601562 z M 31.8125,35.601562 C 32.827813,35.883015 33.786576,36.203481 34.625,36.578125 C 33.188408,37.795871 31.531661,38.757561 29.742188,39.429688 C 30.515294,38.269399 31.228429,37.00262 31.8125,35.601562 z"
       id="path2448" />
    <g
       transform="matrix(0.1337942,0,0,0.1337942,31.527762,-40.95351)"
       inkscape:label="Calque 1"
       id="g2623" />
    <path
       style="fill:url(#linearGradient2637);fill-opacity:1"
       d="M 24,4 C 23.548844,4 23.115484,4.009395 22.671875,4.0390625 C 22.663044,4.0448275 22.641635,4.0332713 22.632812,4.0390625 C 17.87085,4.3669 13.557856,6.3843313 10.289062,9.46875 C 9.850524,9.8825537 9.438825,10.306228 9.039062,10.757812 C 8.642641,11.205624 8.26179,11.68185 7.90625,12.164062 C 5.4600313,15.481821 4,19.56468 4,24 C 4,25.068858 4.1104862,26.102856 4.2734375,27.125 C 5.49475,27.669811 6.795736,28.169882 8.179688,28.609375 C 7.886022,27.604186 7.690669,26.561505 7.59375,25.484375 L 14.039062,25.484375 C 14.110186,27.088185 14.299459,28.640268 14.585938,30.132812 C 15.612572,30.306058 16.677717,30.446008 17.75,30.5625 C 17.363257,28.95207 17.101125,27.256894 17.007812,25.484375 L 24,25.484375 L 30.992188,25.484375 C 30.898875,27.256894 30.636743,28.95207 30.25,30.5625 C 31.322283,30.446008 32.387428,30.306058 33.414062,30.132812 C 33.700541,28.640268 33.889814,27.088185 33.960938,25.484375 L 40.40625,25.484375 C 40.309331,26.561505 40.113978,27.604186 39.820312,28.609375 C 41.204264,28.169882 42.50525,27.669811 43.726562,27.125 C 43.889514,26.102856 44,25.068858 44,24 C 44,19.56468 42.539969,15.481821 40.09375,12.164062 C 39.73821,11.68185 39.357359,11.205624 38.960938,10.757812 C 38.561175,10.306228 38.149476,9.8825537 37.710938,9.46875 C 34.442144,6.3843313 30.12915,4.3669 25.367188,4.0390625 C 25.358365,4.0332713 25.336956,4.0448275 25.328125,4.0390625 C 24.884516,4.009395 24.451156,4 24,4 z M 24,7.515625 C 24.338196,7.515625 24.682823,7.5345787 25.015625,7.5546875 C 26.507619,8.9754425 27.772218,10.860585 28.765625,13.0625 C 27.273933,13.289362 25.665427,13.414062 24,13.414062 C 22.334573,13.414062 20.726067,13.289362 19.234375,13.0625 C 20.227782,10.860585 21.492381,8.9754425 22.984375,7.5546875 C 23.317177,7.5345787 23.661804,7.515625 24,7.515625 z M 18.257812,8.5703125 C 17.484706,9.7306013 16.771571,10.99738 16.1875,12.398438 C 15.172187,12.116985 14.213424,11.796519 13.375,11.421875 C 14.811592,10.204129 16.468339,9.2424387 18.257812,8.5703125 z M 29.742188,8.5703125 C 31.531661,9.2424387 33.188408,10.204129 34.625,11.421875 C 33.786576,11.796519 32.827813,12.116985 31.8125,12.398438 C 31.228429,10.99738 30.515294,9.7306013 29.742188,8.5703125 z M 10.953125,13.960938 C 12.190799,14.515669 13.619236,14.986656 15.171875,15.367188 C 14.5382,17.579891 14.150896,19.993835 14.039062,22.515625 L 7.59375,22.515625 C 7.882512,19.306399 9.087343,16.377598 10.953125,13.960938 z M 37.046875,13.960938 C 38.912658,16.377598 40.117488,19.306399 40.40625,22.515625 L 33.960938,22.515625 C 33.849104,19.993835 33.4618,17.579891 32.828125,15.367188 C 34.380764,14.986656 35.809201,14.515669 37.046875,13.960938 z M 18.140625,15.953125 C 19.978307,16.228491 21.952042,16.382812 24,16.382812 C 26.047958,16.382812 28.021693,16.228491 29.859375,15.953125 C 30.468345,17.976659 30.869925,20.1932 30.992188,22.515625 L 24,22.515625 L 17.007812,22.515625 C 17.130075,20.1932 17.531655,17.976659 18.140625,15.953125 z"
       id="path2625" />
  </g>
</svg>
