<?xml version="1.0" encoding="UTF-8" standalone="no"?>
<!-- Created with Inkscape (http://www.inkscape.org/) -->

<svg
   xmlns:dc="http://purl.org/dc/elements/1.1/"
   xmlns:cc="http://creativecommons.org/ns#"
   xmlns:rdf="http://www.w3.org/1999/02/22-rdf-syntax-ns#"
   xmlns:svg="http://www.w3.org/2000/svg"
   xmlns="http://www.w3.org/2000/svg"
   xmlns:xlink="http://www.w3.org/1999/xlink"
   xmlns:sodipodi="http://sodipodi.sourceforge.net/DTD/sodipodi-0.dtd"
   xmlns:inkscape="http://www.inkscape.org/namespaces/inkscape"
   width="48px"
   height="48px"
   id="svg2951"
   version="1.1"
   inkscape:version="0.47 r22583"
   sodipodi:docname="Nouveau document 3">
  <defs
     id="defs2953">
    <linearGradient
       inkscape:collect="always"
       xlink:href="#linearGradient3172"
       id="linearGradient2931"
       gradientUnits="userSpaceOnUse"
       gradientTransform="matrix(0.644962,0,0,1.1832362,9.2704026,4.0147427)"
       x1="22.892584"
       y1="0.90414524"
       x2="22.892584"
       y2="21.132059" />
    <linearGradient
       id="linearGradient3172">
      <stop
         id="stop3174"
         offset="0"
         style="stop-color:#4d4d4d;stop-opacity:1;" />
      <stop
         id="stop3176"
         offset="1"
         style="stop-color:#4d4d4d;stop-opacity:0;" />
    </linearGradient>
  </defs>
  <sodipodi:namedview
     id="base"
     pagecolor="#ffffff"
     bordercolor="#666666"
     borderopacity="1.0"
     inkscape:pageopacity="0.0"
     inkscape:pageshadow="2"
     inkscape:zoom="7"
     inkscape:cx="37.392857"
     inkscape:cy="24"
     inkscape:current-layer="layer1"
     showgrid="true"
     inkscape:grid-bbox="true"
     inkscape:document-units="px"
     inkscape:window-width="596"
     inkscape:window-height="502"
     inkscape:window-x="768"
     inkscape:window-y="24"
     inkscape:window-maximized="0" />
  <metadata
     id="metadata2956">
    <rdf:RDF>
      <cc:Work
         rdf:about="">
        <dc:format>image/svg+xml</dc:format>
        <dc:type
           rdf:resource="http://purl.org/dc/dcmitype/StillImage" />
        <dc:title></dc:title>
      </cc:Work>
    </rdf:RDF>
  </metadata>
  <g
     id="layer1"
     inkscape:label="Layer 1"
     inkscape:groupmode="layer">
    <path
       style="fill:#000000;fill-opacity:1;stroke:none"
       d="m 23.999712,3.9984057 c -0.45115,0 -0.86888,0.0016 -1.312482,0.03125 -0.0088,0.0058 -0.0537,-0.0058 -0.0625,0 -4.761896,0.327837 -9.074825,2.353081 -12.343572,5.4375 C 9.8426266,9.8809587 9.4309336,10.296821 9.0311766,10.748405 8.634762,11.196217 8.261728,11.672443 7.906193,12.154655 5.46001,15.472414 4,19.563085 4,23.998405 c 0,4.43532 1.46001,8.525991 3.906193,11.84375 0.355535,0.482212 0.728569,0.958438 1.1249836,1.40625 0.399757,0.451585 0.81145,0.867447 1.2499824,1.281251 3.268747,3.084419 7.581679,5.109662 12.343572,5.4375 0.0088,0.0058 0.02245,-0.0058 0.03125,0 0.443606,0.02965 0.892581,0.03125 1.343731,0.03125 0.451149,0 0.868878,-0.0016 1.312481,-0.03125 0.0088,-0.0058 0.0537,0.0058 0.0625,0 3.932584,-0.270743 7.54617,-1.712764 10.531098,-3.9375 l -0.374995,-0.40625 -0.156248,-0.15625 -0.0625,-0.21875 -0.374994,-1.1875 c -1.721056,1.109559 -3.678285,1.875 -5.874915,1.875 -1.092216,0 -2.159282,-0.171373 -3.156205,-0.46875 -0.290735,0.335025 -0.595361,0.672714 -0.906237,0.96875 -0.332797,0.02011 -0.661794,0.03125 -0.999985,0.03125 -0.338191,0 -0.667189,-0.01114 -0.999986,-0.03125 -1.491972,-1.420755 -2.756553,-3.298086 -3.749946,-5.500001 0.181478,-0.0276 0.377665,-0.03796 0.562492,-0.0625 -0.568783,-0.881638 -1.014326,-1.845701 -1.312481,-2.875 -0.124247,0.01734 -0.251949,0.04406 -0.374994,0.0625 -0.608961,-2.023534 -1.002723,-4.240075 -1.124984,-6.5625 l 1.656226,0 c 0.366048,-1.085439 0.894659,-2.095172 1.562477,-3 l -3.218703,0 c 0.122261,-2.322425 0.516023,-4.538966 1.124984,-6.5625 1.837655,0.275366 3.826986,0.4375 5.874915,0.4375 2.047928,0 4.037259,-0.130884 5.874915,-0.40625 0.208055,0.69135 0.374471,1.392066 0.531242,2.125 1.133849,0.138377 2.217475,0.449491 3.218704,0.90625 -0.192707,-1.260538 -0.479455,-2.462077 -0.812489,-3.625 1.552617,-0.380532 3.012283,-0.851519 4.249939,-1.40625 1.865756,2.41666 3.054944,5.322024 3.343702,8.53125 l -2.499964,0 c 0.669085,0.906474 1.196366,1.912031 1.562477,3 l 0.937487,0 c -0.07524,0.836215 -0.211127,1.643463 -0.406245,2.4375 0.03172,0.33853 0.0625,0.684588 0.0625,1.03125 0,2.186355 -0.76276,4.15564 -1.874973,5.875 l 1.187483,0.34375 0.218746,0.0625 0.156248,0.15625 0.406244,0.375 c 2.415339,-3.305157 3.843695,-7.376968 3.843695,-11.78125 0,-4.43532 -1.46001,-8.525991 -3.906194,-11.84375 -0.355535,-0.482212 -0.728568,-0.958438 -1.124984,-1.40625 -0.399757,-0.451584 -0.81145,-0.8674463 -1.249982,-1.2812493 -3.268746,-3.084419 -7.581678,-5.109663 -12.343571,-5.4375 -0.0088,-0.0058 -0.02245,0.0058 -0.03125,0 -0.443605,-0.02965 -0.892581,-0.03125 -1.34373,-0.03125 z m -10e-7,3.5 c 0.338191,0 0.667188,0.04239 0.999985,0.0625 1.491973,1.420755 2.756554,3.2980843 3.749946,5.4999993 -1.49167,0.226862 -3.084528,0.34375 -4.749931,0.34375 -1.665403,0 -3.25826,-0.116888 -4.749932,-0.34375 0.993393,-2.201915 2.257974,-4.0792443 3.749946,-5.4999993 0.332797,-0.02011 0.661795,-0.0625 0.999986,-0.0625 z m -5.749917,1.0625 c -0.773095,1.160289 -1.478408,2.4426913 -2.06247,3.8437493 -1.015299,-0.281453 -1.974048,-0.594106 -2.81246,-0.96875 1.436573,-1.217746 3.085483,-2.2028733 4.87493,-2.8749993 z m 11.499834,0 c 1.789447,0.672126 3.438357,1.6572533 4.874929,2.8749993 -0.838412,0.374644 -1.797161,0.687297 -2.812459,0.96875 -0.584063,-1.401058 -1.289375,-2.6834603 -2.06247,-3.8437493 z M 10.9374,13.967155 c 1.237656,0.554731 2.697322,1.025718 4.249938,1.40625 -0.633666,2.212703 -1.044402,4.60321 -1.156233,7.125 l -6.437407,0 c 0.288757,-3.209226 1.4779456,-6.11459 3.343702,-8.53125 z m 18.124738,5.03125 c -5.522701,0 -9.999856,4.463791 -9.999856,9.96875 0,5.504959 4.477153,9.968751 9.999856,9.968751 2.470849,0 4.7201,-0.894861 6.468656,-2.375001 l 0.71874,2.375001 4.406186,4.6875 c 0.150846,0.161102 0.571376,0.35546 1.093734,0.375 0.522359,0.01954 1.134778,-0.136577 1.687476,-0.6875 0.937956,-0.934945 0.645982,-2.502237 0.312495,-2.8125 l -4.687432,-4.343751 -2.343716,-0.75 c 1.476376,-1.735956 2.343716,-3.985909 2.343716,-6.4375 0,-5.50496 -4.477155,-9.96875 -9.999855,-9.96875 z m 0,2.5 c 4.142025,0 7.499891,3.340031 7.499891,7.46875 0,4.12872 -3.357867,7.46875 -7.499891,7.46875 -4.142024,0 -7.499892,-3.34003 -7.499892,-7.46875 0,-4.12872 3.357865,-7.46875 7.499892,-7.46875 z m -21.46844,4 6.437407,0 c 0.111831,2.52179 0.522567,4.912297 1.156233,7.125 -1.552616,0.380532 -3.012282,0.851519 -4.249938,1.40625 -1.8657564,-2.41666 -3.054945,-5.322024 -3.343702,-8.53125 z m 8.593626,10.09375 c 0.584062,1.401058 1.289375,2.683462 2.06247,3.843751 -1.789447,-0.672127 -3.438357,-1.657255 -4.87493,-2.875001 0.838412,-0.374644 1.797161,-0.687297 2.81246,-0.96875 z"
       id="path2941"
       sodipodi:nodetypes="cscssssssscsssccccccsccsccccccccccsccccccccccscccccsssscsccccscccccccccccccccccsscccsscccsccssscccccccccc" />
    <path
       style="fill:url(#linearGradient2931);fill-opacity:1;stroke:none"
       d="m 21.59775,29.592156 c -0.839017,-0.04497 -1.68872,-0.129338 -2.5,-0.21875 -0.0054,-0.134356 -0.03125,-0.270578 -0.03125,-0.40625 0,-5.504959 4.477299,-9.96875 10,-9.96875 4.821923,0 8.837452,3.409882 9.78125,7.9375 -0.755158,0.313558 -1.550724,0.579029 -2.375,0.84375 -0.575405,-3.557808 -3.67353,-6.28125 -7.40625,-6.28125 -4.142027,0 -7.5,3.34003 -7.5,7.46875 0,0.215112 0.01338,0.414531 0.03125,0.625 z m -4.15625,-0.46875 c -1.070533,-0.161507 -2.121187,-0.327488 -3.125,-0.5625 -0.143172,-0.994924 -0.234991,-2.019356 -0.28125,-3.0625 l -6.4375,0 c 0.021844,0.242767 0.061698,0.47954 0.09375,0.71875 -1.380761,-0.679666 -2.640991,-1.416446 -3.6875,-2.25 0.00686,-4.423252 1.465828,-8.502555 3.90625,-11.8125 0.355535,-0.482212 0.728585,-0.958438 1.1249996,-1.40625 0.399757,-0.451584 0.811469,-0.8674473 1.2500004,-1.2812503 3.268747,-3.084419 7.581854,-5.109663 12.34375,-5.4375 0.0088,-0.0058 0.0537,0.0058 0.0625,0 0.443602,-0.02965 0.86135,-0.03125 1.3125,-0.03125 0.451149,0 0.900145,0.0016 1.34375,0.03125 0.0088,0.0058 0.02245,-0.0058 0.03125,0 4.761893,0.327837 9.075004,2.353081 12.34375,5.4375 0.438532,0.413803 0.850243,0.8296663 1.25,1.2812503 0.396416,0.447812 0.769465,0.924038 1.125,1.40625 2.446184,3.317759 3.90625,7.40843 3.90625,11.84375 -1.050182,0.829009 -2.30574,1.574603 -3.6875,2.25 0.03345,-0.246076 0.07118,-0.499136 0.09375,-0.75 l -0.9375,0 c -0.366111,-1.087969 -0.893415,-2.093526 -1.5625,-3 l 2.5,0 c -0.288758,-3.209226 -1.477994,-6.11459 -3.34375,-8.53125 -1.237656,0.554731 -2.697383,1.025718 -4.25,1.40625 0.333034,1.162923 0.619793,2.364462 0.8125,3.625 -1.001229,-0.456759 -2.084901,-0.767873 -3.21875,-0.90625 -0.156771,-0.732934 -0.323195,-1.43365 -0.53125,-2.125 -1.837656,0.275366 -3.827072,0.40625 -5.875,0.40625 -2.047929,0 -4.037345,-0.162134 -5.875,-0.4375 -0.608961,2.023534 -1.002739,4.240075 -1.125,6.5625 l 3.21875,0 c -0.667818,0.904828 -1.196452,1.914561 -1.5625,3 l -1.65625,0 c 0.06539,1.242054 0.225416,2.456843 0.4375,3.625 z m -9.84375,-6.625 6.4375,0 c 0.111831,-2.52179 0.522584,-4.912297 1.15625,-7.125 -1.552616,-0.380532 -3.012344,-0.851519 -4.25,-1.40625 -1.8657564,2.41666 -3.054993,5.322024 -3.34375,8.53125 z M 24.004,13.404656 c 1.665403,0 3.25833,-0.116888 4.75,-0.34375 -0.993392,-2.201915 -2.258027,-4.0792453 -3.75,-5.5000003 -0.332797,-0.02011 -0.661809,-0.0625 -1,-0.0625 -0.338191,0 -0.667203,0.04239 -1,0.0625 -1.491972,1.420755 -2.756607,3.2980853 -3.75,5.5000003 1.491672,0.226862 3.084597,0.34375 4.75,0.34375 z m -7.8125,-1 c 0.584062,-1.401058 1.289405,-2.6834613 2.0625,-3.8437503 -1.789447,0.672126 -3.438427,1.6572543 -4.875,2.8750003 0.838412,0.374644 1.797201,0.687297 2.8125,0.96875 z m 15.625,0 c 1.015298,-0.281453 1.974088,-0.594106 2.8125,-0.96875 -1.436572,-1.217746 -3.085553,-2.2028743 -4.875,-2.8750003 0.773095,1.160289 1.478437,2.4426923 2.0625,3.8437503 z"
       id="path2917" />
  </g>
</svg>
