<?xml version="1.0" encoding="UTF-8" standalone="no"?>
<!-- Created with Inkscape (http://www.inkscape.org/) -->

<svg
   xmlns:dc="http://purl.org/dc/elements/1.1/"
   xmlns:cc="http://creativecommons.org/ns#"
   xmlns:rdf="http://www.w3.org/1999/02/22-rdf-syntax-ns#"
   xmlns:svg="http://www.w3.org/2000/svg"
   xmlns="http://www.w3.org/2000/svg"
   xmlns:xlink="http://www.w3.org/1999/xlink"
   xmlns:sodipodi="http://sodipodi.sourceforge.net/DTD/sodipodi-0.dtd"
   xmlns:inkscape="http://www.inkscape.org/namespaces/inkscape"
   width="48px"
   height="48px"
   id="svg2955"
   version="1.1"
   inkscape:version="0.47 r22583"
   sodipodi:docname="Nouveau document 3">
  <defs
     id="defs2957">
    <linearGradient
       inkscape:collect="always"
       xlink:href="#linearGradient3172-1"
       id="linearGradient2935"
       gradientUnits="userSpaceOnUse"
       gradientTransform="matrix(0.644962,0,0,1.1832362,9.2351734,4.0163193)"
       x1="22.892584"
       y1="0.90414524"
       x2="22.892584"
       y2="21.132059" />
    <linearGradient
       id="linearGradient3172-1">
      <stop
         id="stop3174-7"
         offset="0"
         style="stop-color:#4d4d4d;stop-opacity:1;" />
      <stop
         id="stop3176-7"
         offset="1"
         style="stop-color:#4d4d4d;stop-opacity:0;" />
    </linearGradient>
  </defs>
  <sodipodi:namedview
     id="base"
     pagecolor="#ffffff"
     bordercolor="#666666"
     borderopacity="1.0"
     inkscape:pageopacity="0.0"
     inkscape:pageshadow="2"
     inkscape:zoom="7"
     inkscape:cx="24"
     inkscape:cy="24"
     inkscape:current-layer="layer1"
     showgrid="true"
     inkscape:grid-bbox="true"
     inkscape:document-units="px"
     inkscape:window-width="596"
     inkscape:window-height="502"
     inkscape:window-x="768"
     inkscape:window-y="24"
     inkscape:window-maximized="0" />
  <metadata
     id="metadata2960">
    <rdf:RDF>
      <cc:Work
         rdf:about="">
        <dc:format>image/svg+xml</dc:format>
        <dc:type
           rdf:resource="http://purl.org/dc/dcmitype/StillImage" />
        <dc:title></dc:title>
      </cc:Work>
    </rdf:RDF>
  </metadata>
  <g
     id="layer1"
     inkscape:label="Layer 1"
     inkscape:groupmode="layer">
    <path
       style="fill:#000000"
       d="m 11.493746,40.73671 c -0.812543,-0.38205 -1.8249256,-1.389125 -2.0443916,-2.033679 -0.236627,-0.694959 -0.24026,-1.760283 -0.0083,-2.430715 0.25181,-0.727775 0.6367786,-1.279523 1.9530926,-2.799243 1.743325,-2.012722 2.283724,-2.786365 2.660642,-3.809034 0.243662,-0.661107 0.309488,-1.05391 0.738204,-4.405074 0.240929,-1.88326 0.412346,-3.198011 0.497531,-3.816027 0.09825,-0.712816 0.285667,-2.128976 0.536978,-4.057555 0.330827,-2.538785 0.56928,-4.332989 0.588249,-4.426188 0.03758,-0.184683 -0.679881,-0.255705 -2.497023,-0.247181 -1.368219,0.007 -1.862311,0.04109 -1.99721,0.140033 -0.09858,0.07235 -0.29423,0.132885 -0.434771,0.134583 -0.140542,0.0017 -0.342759,0.06687 -0.449372,0.144918 -0.106613,0.07802 -0.252173,0.143219 -0.323465,0.144909 -0.1999,0.0052 -1.1719226,0.633896 -1.6847846,1.090504 -0.253276,0.2255 -0.7741501,0.866476 -1.1574978,1.424379 -0.3833479,0.557922 -0.7675912,1.068738 -0.853876,1.135154 -0.2088045,0.16073 -1.0173529,0.16073 -1.0177515,0 -1.692e-4,-0.06644 0.1602648,-0.533759 0.3565107,-1.038533 C 6.5527576,15.383179 6.7723864,14.818014 6.8445763,14.632052 7.4844655,12.9836 8.4038254,11.315854 9.3033304,10.171767 10.108148,9.148131 11.572396,7.945352 12.27721,7.728941 c 0.194625,-0.08237 0.222834,-0.21762 0.438706,-0.249339 0.123577,-0.0017 0.337029,-0.06556 0.474337,-0.141487 0.137308,-0.07592 0.393045,-0.139607 0.568304,-0.141487 0.17526,-0.0017 0.346427,-0.04693 0.380371,-0.100034 0.04066,-0.06365 4.711123,-0.09661 13.686779,-0.09661 l 13.625062,0 0,2.849943 0,2.849952 -0.274618,0.0017 c -0.151038,7.75e-4 -2.082906,0.007 -4.293038,0.01306 -2.822224,0.0087 -4.043938,0.04379 -4.104134,0.119362 -0.09767,0.122637 -0.255077,1.522785 -0.462831,4.116868 -0.270003,3.371303 -0.368997,5.75285 -0.385516,9.274409 -0.0146,3.110557 0.0048,3.611309 0.164489,4.24821 0.210538,0.839711 0.87361,2.175985 1.345929,2.712426 0.34143,0.387779 1.140501,0.958978 1.349037,0.964325 0.06591,0.0017 0.20705,0.06686 0.313662,0.144908 0.106614,0.07802 0.366582,0.141844 0.577711,0.141844 0.575139,0.193172 0.912811,0.116899 1.482251,0 0.686496,0 1.804525,-0.708715 2.440723,-1.547164 0.448634,-0.591259 0.738303,-1.360209 0.89013,-2.362914 l 0.116637,-0.77029 0.378502,-0.08663 c 0.224703,-0.05146 0.506862,-0.05093 0.694399,8.54e-4 L 42,29.758627 41.96538,30.366483 c -0.03968,0.696857 -0.250486,2.174862 -0.401396,2.814323 -0.470854,1.995212 -1.746516,4.287575 -3.073645,5.523336 -0.585,0.54473 -1.533905,1.239262 -1.693139,1.239262 -0.06341,0 -0.171227,0.06521 -0.239601,0.144909 -0.06837,0.07975 -0.228503,0.144918 -0.355846,0.144918 -0.127341,0 -0.259303,0.04344 -0.293246,0.0966 -0.03394,0.05311 -0.182644,0.09815 -0.330441,0.100034 -0.147798,0.0017 -0.381065,0.06556 -0.518374,0.141486 -0.352729,0.19507 -2.173045,0.192789 -2.440703,-0.0035 -0.106613,-0.07802 -0.275738,-0.141844 -0.375831,-0.141844 -0.229785,0 -0.481676,-0.137482 -1.190971,-0.650031 -1.653414,-1.194769 -2.941064,-3.431851 -3.54616,-6.160865 -0.567458,-4.865477 -0.440827,-10.339994 0.413262,-15.186813 0.02839,-0.116882 0.09667,-0.703779 0.151733,-1.304215 0.05507,-0.600428 0.183004,-1.787275 0.284317,-2.637434 0.110527,-0.927459 0.148433,-1.590281 0.09477,-1.657124 -0.131353,-0.163611 -7.478972,-0.169244 -7.70326,-0.0061 -0.12565,0.0915 -0.194995,0.489163 -0.31527,1.807953 -0.567358,6.22083 -1.234061,11.616139 -1.963796,15.892073 -0.108815,0.637615 -0.23898,1.420148 -0.289253,1.738951 -0.05028,0.318812 -0.157037,0.927441 -0.237251,1.352522 -0.08021,0.42507 -0.173615,0.925021 -0.207558,1.110992 -0.458261,2.510748 -1.044181,4.083266 -1.846861,4.956682 -0.429227,0.467046 -1.308519,1.030453 -1.61086,1.032134 -0.08939,4.79e-4 -0.21847,0.06609 -0.286843,0.145823 -0.09465,0.110316 -0.341858,0.143515 -1.035797,0.139057 -0.776467,-0.0052 -0.992675,-0.04405 -1.459604,-0.263575 l -2.4e-5,0 z"
       id="path2818"
       sodipodi:nodetypes="cssssssssssssssssssssccssscccccssssssssccsccccccsssssssssssccssssssssssssscc" />
    <path
       style="fill:url(#linearGradient2935);fill-opacity:1;stroke:none"
       d="m 27.21877,29.531232 c -0.136244,-3.715929 0.06585,-7.566014 0.6875,-11.09375 0.02839,-0.116882 0.101187,-0.712064 0.15625,-1.3125 0.05507,-0.600428 0.179937,-1.774841 0.28125,-2.625 0.110527,-0.927459 0.147413,-1.589407 0.09375,-1.65625 -0.131353,-0.163611 -7.463212,-0.194394 -7.6875,-0.03125 -0.12565,0.0915 -0.192225,0.49371 -0.3125,1.8125 -0.516624,5.664559 -1.127298,10.613773 -1.78125,14.6875 -1.507855,-0.18107 -2.958479,-0.42688 -4.34375,-0.75 0.104428,-0.593459 0.239387,-1.519627 0.46875,-3.3125 0.240929,-1.88326 0.414815,-3.194484 0.5,-3.8125 0.09825,-0.712816 0.279939,-2.133921 0.53125,-4.0625 0.330827,-2.538785 0.574781,-4.313051 0.59375,-4.40625 0.03758,-0.184683 -0.682858,-0.258524 -2.5,-0.25 -1.368219,0.007 -1.865101,0.02606 -2,0.125 -0.09858,0.07235 -0.265709,0.154552 -0.40625,0.15625 -0.140542,0.0017 -0.362137,0.04695 -0.46875,0.125 -0.106613,0.07802 -0.241208,0.15456 -0.3125,0.15625 -0.1999,0.0052 -1.1746386,0.637142 -1.6874996,1.09375 -0.253276,0.2255 -0.7729023,0.848347 -1.1562503,1.40625 -0.383348,0.557922 -0.757465,1.089834 -0.84375,1.15625 -0.208805,0.16073 -1.030851,0.16073 -1.03125,0 -1.69e-4,-0.06644 0.147504,-0.557726 0.34375,-1.0625 0.196247,-0.504782 0.42781,-1.064038 0.5,-1.25 0.639889,-1.648452 1.569245,-3.324663 2.4687503,-4.46875 0.8048166,-1.023636 2.2639356,-2.221089 2.9687496,-2.4375 0.194625,-0.08237 0.221628,-0.218281 0.4375,-0.25 0.123577,-0.0017 0.331442,-0.04907 0.46875,-0.125 0.137308,-0.07592 0.387241,-0.15437 0.5625,-0.15625 0.17526,-0.0017 0.341056,-0.04065 0.375,-0.09375 0.04068,-0.06365 4.711844,-0.09375 13.6875,-0.09375 l 13.625,0 0,2.84375 0,2.84375 -0.25,0 c -0.151038,7.75e-4 -2.102368,0.02519 -4.3125,0.03125 -2.822224,0.0087 -4.033554,0.04943 -4.09375,0.125 -0.09767,0.122637 -0.260996,1.499667 -0.46875,4.09375 -0.270003,3.371303 -0.358481,5.759691 -0.375,9.28125 -0.0064,1.364836 -0.01566,2.0956 0,2.6875 -1.510383,0.279963 -3.087577,0.509003 -4.71875,0.625 z"
       id="path2921" />
  </g>
</svg>
