<?xml version="1.0" encoding="UTF-8" standalone="no"?>
<!-- Created with Inkscape (http://www.inkscape.org/) -->
<svg
   xmlns:dc="http://purl.org/dc/elements/1.1/"
   xmlns:cc="http://creativecommons.org/ns#"
   xmlns:rdf="http://www.w3.org/1999/02/22-rdf-syntax-ns#"
   xmlns:svg="http://www.w3.org/2000/svg"
   xmlns="http://www.w3.org/2000/svg"
   xmlns:xlink="http://www.w3.org/1999/xlink"
   xmlns:sodipodi="http://sodipodi.sourceforge.net/DTD/sodipodi-0.dtd"
   xmlns:inkscape="http://www.inkscape.org/namespaces/inkscape"
   width="48px"
   height="48px"
   id="svg4289"
   sodipodi:version="0.32"
   inkscape:version="0.46"
   sodipodi:docbase="/home/lapo/Icone/cvs/gnome-icon-theme/scalable/categories"
   sodipodi:docname="applications-games.svg"
   inkscape:output_extension="org.inkscape.output.svg.inkscape">
  <defs
     id="defs4291">
    <linearGradient
       id="linearGradient3155"
       inkscape:collect="always">
      <stop
         id="stop3157"
         offset="0"
         style="stop-color:#4d4d4d;stop-opacity:1;" />
      <stop
         id="stop3159"
         offset="1"
         style="stop-color:#4d4d4d;stop-opacity:0;" />
    </linearGradient>
    <linearGradient
       inkscape:collect="always"
       xlink:href="#linearGradient3155"
       id="linearGradient2498"
       gradientUnits="userSpaceOnUse"
       gradientTransform="matrix(0.1721311,0,0,0.1720981,-32.065571,-63.292213)"
       x1="325.71429"
       y1="369.50507"
       x2="325.71429"
       y2="546.64789" />
  </defs>
  <sodipodi:namedview
     id="base"
     pagecolor="#ffffff"
     bordercolor="#666"
     borderopacity="0.31372549"
     inkscape:pageopacity="0.0"
     inkscape:pageshadow="2"
     inkscape:zoom="5.656854"
     inkscape:cx="37.533214"
     inkscape:cy="19.31447"
     inkscape:current-layer="layer1"
     showgrid="true"
     inkscape:grid-bbox="true"
     inkscape:document-units="px"
     inkscape:window-width="1019"
     inkscape:window-height="732"
     inkscape:window-x="259"
     inkscape:window-y="19"
     inkscape:showpageshadow="false" />
  <metadata
     id="metadata4294">
    <rdf:RDF>
      <cc:Work
         rdf:about="">
        <dc:format>image/svg+xml</dc:format>
        <dc:type
           rdf:resource="http://purl.org/dc/dcmitype/StillImage" />
        <dc:title>System Preferences</dc:title>
        <dc:creator>
          <cc:Agent>
            <dc:title>Andreas Nilsson</dc:title>
          </cc:Agent>
        </dc:creator>
        <dc:subject>
          <rdf:Bag>
            <rdf:li>category</rdf:li>
            <rdf:li>system</rdf:li>
            <rdf:li>preferences</rdf:li>
            <rdf:li>settings</rdf:li>
            <rdf:li>control center</rdf:li>
          </rdf:Bag>
        </dc:subject>
        <dc:contributor>
          <cc:Agent>
            <dc:title>Jakub Steiner</dc:title>
          </cc:Agent>
        </dc:contributor>
        <cc:license
           rdf:resource="http://creativecommons.org/licenses/GPL/2.0/" />
      </cc:Work>
      <cc:License
         rdf:about="http://creativecommons.org/licenses/GPL/2.0/">
        <cc:permits
           rdf:resource="http://web.resource.org/cc/Reproduction" />
        <cc:permits
           rdf:resource="http://web.resource.org/cc/Distribution" />
        <cc:requires
           rdf:resource="http://web.resource.org/cc/Notice" />
        <cc:permits
           rdf:resource="http://web.resource.org/cc/DerivativeWorks" />
        <cc:requires
           rdf:resource="http://web.resource.org/cc/ShareAlike" />
        <cc:requires
           rdf:resource="http://web.resource.org/cc/SourceCode" />
      </cc:License>
    </rdf:RDF>
  </metadata>
  <g
     id="layer1"
     inkscape:label="Layer 1"
     inkscape:groupmode="layer">
    <g
       id="g2453"
       inkscape:label="Calque 1"
       transform="matrix(0.1337942,0,0,0.1337942,-18.472238,-41.04701)" />
    <path
       style="fill:#000000;fill-opacity:1;stroke:none;stroke-width:2.9000001;stroke-linecap:round;stroke-linejoin:miter;stroke-miterlimit:4;stroke-dasharray:none;stroke-dashoffset:0;stroke-opacity:1"
       d="M 22.984375,4.0153645 C 12.424675,4.5511329 4,13.319817 4,24.007681 C 4,35.040316 12.963125,44 24,44 C 35.036875,44 44,35.040317 44,24.007681 C 44.000001,12.975048 35.036874,4.0153645 24,4.0153645 C 23.655098,4.0153632 23.325011,3.9980803 22.984375,4.0153645 z M 21.304688,14.401997 C 26.088495,14.401996 29.976563,18.288572 29.976563,23.070541 C 29.976563,27.85251 26.088494,31.778134 21.304688,31.778134 C 16.520881,31.778136 12.632813,27.852509 12.632813,23.070541 C 12.632814,18.288574 16.520881,14.401997 21.304688,14.401997 z M 21.070313,16.783895 C 19.87103,16.783907 18.910223,17.081346 18.21875,17.64294 C 17.532674,18.204559 17.203123,18.941091 17.203125,19.907695 C 17.203123,20.598914 17.400105,21.18423 17.789063,21.664831 C 18.183416,22.145446 18.727406,22.507269 19.429688,22.680066 C 18.64097,22.863675 17.997663,23.199746 17.554688,23.734349 C 17.11171,24.268962 16.890623,24.91452 16.890625,25.686724 C 16.890624,26.858542 17.271291,27.754592 17.984375,28.381001 C 18.702859,29.007411 19.735976,29.31814 21.070313,29.318141 C 22.404638,29.318141 23.404095,29.00741 24.117188,28.381001 C 24.835665,27.754594 25.210929,26.858545 25.210938,25.686724 C 25.210928,24.914517 24.989841,24.268961 24.546875,23.734349 C 24.109293,23.199747 23.499643,22.863672 22.710938,22.680066 C 23.407808,22.507271 23.923538,22.145444 24.3125,21.664831 C 24.706849,21.184232 24.898426,20.598914 24.898438,19.907695 C 24.898428,18.941091 24.568878,18.20456 23.882813,17.64294 C 23.196733,17.081345 22.274986,16.783906 21.070313,16.783895 z M 21.070313,18.072462 C 21.772586,18.072474 22.316573,18.268134 22.710938,18.619127 C 23.110689,18.970142 23.296869,19.437487 23.296875,20.063885 C 23.296868,20.690302 23.110688,21.196692 22.710938,21.547689 C 22.316574,21.898701 21.772586,22.055315 21.070313,22.055306 C 20.362626,22.055314 19.784978,21.898702 19.390625,21.547689 C 19.001666,21.196691 18.804683,20.690304 18.804688,20.063885 C 18.804684,19.437486 19.001666,18.970144 19.390625,18.619127 C 19.784978,18.268132 20.362626,18.072475 21.070313,18.072462 z M 21.070313,23.343874 C 21.853619,23.34388 22.463268,23.552832 22.90625,23.968634 C 23.354621,24.384444 23.570304,24.957719 23.570313,25.686724 C 23.570305,26.410337 23.354623,26.98361 22.90625,27.404814 C 22.457864,27.820621 21.848216,28.029576 21.070313,28.029574 C 20.292398,28.029575 19.643686,27.82062 19.195313,27.404814 C 18.752334,26.989011 18.531246,26.415739 18.53125,25.686724 C 18.531246,24.957716 18.752333,24.384442 19.195313,23.968634 C 19.643688,23.552834 20.292398,23.343881 21.070313,23.343874 z"
       id="path2179" />
    <g
       id="g2913"
       inkscape:label="face"
       style="display:inline"
       transform="matrix(7.3298479e-2,0,0,7.3298479e-2,-33.989624,41.421839)" />
    <g
       id="g2915"
       inkscape:label="inner stroke"
       style="display:inline"
       transform="matrix(7.3298479e-2,0,0,7.3298479e-2,-33.989624,41.421839)" />
    <path
       style="fill:url(#linearGradient2498);fill-opacity:1"
       d="M 22.984375,4.0076822 C 12.424675,4.5434501 4,13.315976 4,24.003841 C 4,25.030605 4.0846638,26.025772 4.234375,27.011076 C 7.695868,28.559431 11.867954,29.68297 16.460938,30.291696 C 14.153934,28.72132 12.632813,26.055251 12.632813,23.066521 C 12.632814,18.284552 16.520881,14.396311 21.304688,14.396311 C 26.088495,14.396309 29.976563,18.284552 29.976563,23.066521 C 29.976563,26.384571 28.111391,29.292215 25.367188,30.760356 C 32.400673,30.597215 38.80713,29.229054 43.765625,27.011076 C 43.915336,26.025772 44,25.030605 44,24.003841 C 44.000001,12.971206 35.036874,4.0076822 24,4.0076822 C 23.655098,4.0076805 23.325011,3.9903981 22.984375,4.0076822 z M 21.070313,16.778666 C 19.87103,16.778677 18.910223,17.076281 18.21875,17.637876 C 17.532674,18.199496 17.203123,18.936462 17.203125,19.903066 C 17.203123,20.594285 17.400105,21.17994 17.789063,21.660541 C 18.183416,22.141156 18.727406,22.503174 19.429688,22.675971 C 18.64097,22.85958 17.997663,23.195854 17.554688,23.730456 C 17.11171,24.26507 16.890623,24.911001 16.890625,25.683206 C 16.890624,26.855025 17.271291,27.751591 17.984375,28.378001 C 18.702859,29.00441 19.735976,29.31532 21.070313,29.315321 C 22.404638,29.315322 23.404095,29.004409 24.117188,28.378001 C 24.835665,27.751592 25.210929,26.855027 25.210938,25.683206 C 25.210928,24.910999 24.989841,24.265069 24.546875,23.730456 C 24.109293,23.195855 23.499643,22.859577 22.710938,22.675971 C 23.407808,22.503176 23.923538,22.141154 24.3125,21.660541 C 24.706849,21.179942 24.898426,20.594285 24.898438,19.903066 C 24.898428,18.936462 24.568878,18.199496 23.882813,17.637876 C 23.196733,17.076281 22.274986,16.778677 21.070313,16.778666 z M 21.070313,18.067481 C 21.772586,18.067492 22.316573,18.263257 22.710938,18.614251 C 23.110689,18.965266 23.296869,19.432887 23.296875,20.059286 C 23.296868,20.685705 23.110688,21.19238 22.710938,21.543376 C 22.316574,21.89439 21.772586,22.0511 21.070313,22.051091 C 20.362626,22.0511 19.784978,21.89439 19.390625,21.543376 C 19.001666,21.19238 18.804683,20.685705 18.804688,20.059286 C 18.804684,19.432887 19.001666,18.965267 19.390625,18.614251 C 19.784978,18.263256 20.362626,18.067494 21.070313,18.067481 z M 21.070313,23.339906 C 21.853619,23.339911 22.463268,23.548985 22.90625,23.964786 C 23.354621,24.380597 23.570304,24.954201 23.570313,25.683206 C 23.570305,26.40682 23.354623,26.980421 22.90625,27.401626 C 22.457864,27.817435 21.848216,28.026509 21.070313,28.026506 C 20.292398,28.026507 19.643686,27.817432 19.195313,27.401626 C 18.752334,26.985825 18.531246,26.412221 18.53125,25.683206 C 18.531246,24.954199 18.752333,24.380595 19.195313,23.964786 C 19.643688,23.548987 20.292398,23.339914 21.070313,23.339906 z"
       id="path2491" />
  </g>
</svg>
