<?xml version="1.0" encoding="UTF-8" standalone="no"?>
<!-- Created with Inkscape (http://www.inkscape.org/) -->

<svg
   xmlns:dc="http://purl.org/dc/elements/1.1/"
   xmlns:cc="http://creativecommons.org/ns#"
   xmlns:rdf="http://www.w3.org/1999/02/22-rdf-syntax-ns#"
   xmlns:svg="http://www.w3.org/2000/svg"
   xmlns="http://www.w3.org/2000/svg"
   xmlns:xlink="http://www.w3.org/1999/xlink"
   xmlns:sodipodi="http://sodipodi.sourceforge.net/DTD/sodipodi-0.dtd"
   xmlns:inkscape="http://www.inkscape.org/namespaces/inkscape"
   width="48px"
   height="48px"
   id="svg8385"
   version="1.1"
   inkscape:version="0.47 r22583"
   sodipodi:docname="Nouveau document 7">
  <defs
     id="defs8387">
    <linearGradient
       inkscape:collect="always"
       xlink:href="#linearGradient3172"
       id="linearGradient8365"
       gradientUnits="userSpaceOnUse"
       gradientTransform="matrix(0.644962,0,0,1.1832362,9.235153,4.01634)"
       x1="22.892584"
       y1="0.90414524"
       x2="22.892584"
       y2="21.132059" />
    <linearGradient
       id="linearGradient3172">
      <stop
         id="stop3174"
         offset="0"
         style="stop-color:#4d4d4d;stop-opacity:1;" />
      <stop
         id="stop3176"
         offset="1"
         style="stop-color:#4d4d4d;stop-opacity:0;" />
    </linearGradient>
  </defs>
  <sodipodi:namedview
     id="base"
     pagecolor="#ffffff"
     bordercolor="#666666"
     borderopacity="1.0"
     inkscape:pageopacity="0.0"
     inkscape:pageshadow="2"
     inkscape:zoom="7"
     inkscape:cx="24"
     inkscape:cy="24"
     inkscape:current-layer="layer1"
     showgrid="true"
     inkscape:grid-bbox="true"
     inkscape:document-units="px"
     inkscape:window-width="596"
     inkscape:window-height="502"
     inkscape:window-x="0"
     inkscape:window-y="24"
     inkscape:window-maximized="0" />
  <metadata
     id="metadata8390">
    <rdf:RDF>
      <cc:Work
         rdf:about="">
        <dc:format>image/svg+xml</dc:format>
        <dc:type
           rdf:resource="http://purl.org/dc/dcmitype/StillImage" />
        <dc:title></dc:title>
      </cc:Work>
    </rdf:RDF>
  </metadata>
  <g
     id="layer1"
     inkscape:label="Layer 1"
     inkscape:groupmode="layer">
    <path
       style="fill:#000000;fill-opacity:1;stroke:none"
       d="m 4,44 0,-30.78125 14.6875,11.3125 -3.5,5.71875 -5.03125,-3.6875 0,11.28125 1.65625,0 -0.75,1.1875 L 10.53125,39.875 11.375,40.40625 12.28125,41 13.125,41.53125 13.65625,40.6875 14.5625,39.28125 14.875,39.5 l 0.53125,-0.875 0.46875,-0.78125 9.65625,0 -6.65625,-4.875 1.875,-3.03125 c 1.992124,0.85831 4.081512,1.37709 6.21875,1.5625 l -0.03125,0.125 1.03125,0.0312 2.375,1.84375 1.375,7.625 0.1875,0.96875 0.4375,-0.0625 0.21875,1.125 L 32.71875,44 4,44 z m 29.59375,0 0.15625,-0.0312 1.0625,-0.25 0.96875,-0.1875 -0.1875,-0.96875 -0.21875,-1.0625 0.90625,-0.1875 -0.15625,-1 -0.5,-2.75 L 44,44 33.59375,44 z M 33.53125,42.96875 33.125,40.875 l -0.40625,0.0625 -1.875,-10.34375 c -0.905396,0.0665 -1.805469,0.0937 -2.6875,0.0625 C 25.410288,30.55905 22.788962,29.97021 20.3125,28.75 l -5.75,9.375 -0.3125,-0.21875 -1.4375,2.25 L 11.90625,39.5625 13.3125,37.34375 12.375,36.78125 24.75,16.5625 c -0.691518,-0.90742 -1.006945,-2.10376 -0.78125,-3.3125 0.330953,-1.77248 1.755637,-3.05922 3.4375,-3.34375 L 28.5,4 l 3,0.5625 -1.09375,5.96875 c 0.514435,0.34053 0.932318,0.79421 1.25,1.3125 0.521419,0.85064 0.760049,1.91076 0.5625,2.96875 -0.177149,0.94876 -0.673976,1.74896 -1.34375,2.34375 l 4.25,23.34375 -0.9375,0.1875 0.40625,2.0625 -1.0625,0.21875 z m -3.34375,-15.8125 -0.6875,-3.75 0,-0.0312 -0.9375,-5.1875 c -0.40318,0.0456 -0.799092,0.0471 -1.21875,-0.0312 -0.156818,-0.0293 -0.31966,-0.0795 -0.46875,-0.125 l -4.75,7.71875 c 2.146232,0.88398 4.389728,1.30015 6.6875,1.375 0.461306,0.0142 0.908543,0.0444 1.375,0.0312 z M 28.15625,16.75 c 1.260754,-0.0221 2.353096,-0.92987 2.59375,-2.21875 0.275039,-1.47299 -0.683251,-2.91245 -2.15625,-3.1875 -1.472993,-0.275 -2.881219,0.71448 -3.15625,2.1875 -0.275039,1.47299 0.683249,2.88121 2.15625,3.15625 0.184126,0.0344 0.382392,0.0657 0.5625,0.0625 z"
       id="rect2380" />
    <path
       style="fill:url(#linearGradient8365);fill-opacity:1;stroke:none"
       d="m 24,29.65625 c -0.562518,0 -1.103364,-0.0111 -1.65625,-0.0312 -0.690991,-0.2405 -1.361076,-0.54479 -2.03125,-0.875 l -0.4375,0.6875 C 18.926141,29.35065 18.00098,29.23771 17.09375,29.0938 L 24.75,16.5625 c -0.691518,-0.90742 -1.006945,-2.10376 -0.78125,-3.3125 0.330953,-1.77248 1.755637,-3.05922 3.4375,-3.34375 L 28.5,4 l 3,0.5625 -1.09375,5.96875 c 0.514435,0.34053 0.932318,0.79421 1.25,1.3125 0.521419,0.85064 0.760049,1.91076 0.5625,2.96875 -0.177149,0.94876 -0.673976,1.74896 -1.34375,2.34375 l 2.09375,11.5625 C 30.195923,29.30918 27.172464,29.65625 24,29.65625 z m -8,-0.75 c -1.372558,-0.25661 -2.692469,-0.55967 -3.9375,-0.9375 l -1.90625,-1.40625 0,0.75 C 7.738523,26.40854 5.641371,25.27203 4,23.96875 l 0,-10.75 14.6875,11.3125 -2.6875,4.375 z m 14.1875,-1.75 -0.6875,-3.75 0,-0.0312 -0.9375,-5.1875 c -0.40318,0.0456 -0.799092,0.0471 -1.21875,-0.0312 -0.156818,-0.0293 -0.31966,-0.0795 -0.46875,-0.125 L 22.125,25.75 c 2.146232,0.88398 4.389728,1.30015 6.6875,1.375 0.461306,0.0142 0.908543,0.0445 1.375,0.0312 z M 28.15625,16.75 c 1.260754,-0.0221 2.353096,-0.92987 2.59375,-2.21875 0.275039,-1.47299 -0.683251,-2.91245 -2.15625,-3.1875 -1.472993,-0.275 -2.881219,0.71448 -3.15625,2.1875 -0.275039,1.47299 0.683249,2.88121 2.15625,3.15625 0.184126,0.0344 0.382392,0.0657 0.5625,0.0625 z"
       id="path8351" />
  </g>
</svg>
