<?xml version="1.0" encoding="UTF-8" standalone="no"?>
<!-- Created with Inkscape (http://www.inkscape.org/) -->

<svg
   xmlns:dc="http://purl.org/dc/elements/1.1/"
   xmlns:cc="http://creativecommons.org/ns#"
   xmlns:rdf="http://www.w3.org/1999/02/22-rdf-syntax-ns#"
   xmlns:svg="http://www.w3.org/2000/svg"
   xmlns="http://www.w3.org/2000/svg"
   xmlns:xlink="http://www.w3.org/1999/xlink"
   xmlns:sodipodi="http://sodipodi.sourceforge.net/DTD/sodipodi-0.dtd"
   xmlns:inkscape="http://www.inkscape.org/namespaces/inkscape"
   width="48px"
   height="48px"
   id="svg3027"
   version="1.1"
   inkscape:version="0.47 r22583"
   sodipodi:docname="Nouveau document 4">
  <defs
     id="defs3029">
    <linearGradient
       inkscape:collect="always"
       xlink:href="#linearGradient3172-9"
       id="linearGradient3007"
       gradientUnits="userSpaceOnUse"
       gradientTransform="matrix(0.644962,0,0,1.1832362,9.235153,4.016337)"
       x1="22.892584"
       y1="0.90414524"
       x2="22.892584"
       y2="21.132059" />
    <linearGradient
       id="linearGradient3172-9">
      <stop
         id="stop3174-6"
         offset="0"
         style="stop-color:#4d4d4d;stop-opacity:1;" />
      <stop
         id="stop3176-4"
         offset="1"
         style="stop-color:#4d4d4d;stop-opacity:0;" />
    </linearGradient>
  </defs>
  <sodipodi:namedview
     id="base"
     pagecolor="#ffffff"
     bordercolor="#666666"
     borderopacity="1.0"
     inkscape:pageopacity="0.0"
     inkscape:pageshadow="2"
     inkscape:zoom="7"
     inkscape:cx="24"
     inkscape:cy="24"
     inkscape:current-layer="layer1"
     showgrid="true"
     inkscape:grid-bbox="true"
     inkscape:document-units="px"
     inkscape:window-width="596"
     inkscape:window-height="502"
     inkscape:window-x="768"
     inkscape:window-y="24"
     inkscape:window-maximized="0" />
  <metadata
     id="metadata3032">
    <rdf:RDF>
      <cc:Work
         rdf:about="">
        <dc:format>image/svg+xml</dc:format>
        <dc:type
           rdf:resource="http://purl.org/dc/dcmitype/StillImage" />
        <dc:title></dc:title>
      </cc:Work>
    </rdf:RDF>
  </metadata>
  <g
     id="layer1"
     inkscape:label="Layer 1"
     inkscape:groupmode="layer">
    <path
       style="fill:#000000;fill-opacity:1;stroke:none"
       d="M 9.5625,7 C 9.23957,7 9,7.252197 9,7.5625 l 0,32.875 c 0,0.310303 0.225071,0.53125 0.5625,0.53125 L 30.15625,41 c 0.01018,-0.0098 0.02202,-0.02239 0.03125,-0.03125 0.0055,-0.0053 -0.005,-0.02646 0,-0.03125 0.01789,-0.02132 0.04763,0.0137 0.0625,0 L 39,32.625 39,7.5625 C 38.999998,7.238267 38.791681,7 38.46875,7 L 9.5625,7 z m 9.75,7 0.1875,0.1875 4.78125,4.5625 0.375,0.375 -0.59375,0 -2.1875,0 0,9 0,0.21875 -0.25,0 L 17,28.375 l -0.28125,0 0,-0.21875 0,-9.03125 -2.15625,0 -0.5625,0 0.375,-0.375 4.75,-4.5625 L 19.3125,14 z m 6.71875,5.625 0.28125,0 4.625,0 0.28125,0 0,0.25 0,9 2.21875,0 0.5625,0 -0.375,0.375 -4.8125,4.5625 L 28.625,34 l -0.1875,-0.1875 -4.75,-4.5625 -0.375,-0.375 0.59375,0 2.125,0 0,-9.0625 0,-0.1875 z"
       id="rect3565" />
    <path
       style="fill:url(#linearGradient3007);fill-opacity:1;stroke:none"
       d="m 24,29.65625 c -5.684292,0 -10.886882,-1.068935 -15,-2.8125 L 9,7.5625 C 9,7.252197 9.23957,7 9.5625,7 L 38.46875,7 C 38.791681,7 38.999998,7.238267 39,7.5625 l 0,19.28125 c -2.037303,0.86362 -4.340226,1.55282 -6.84375,2.03125 l -0.9375,0 0,-9 0,-0.25 -0.28125,0 -4.625,0 -0.28125,0 0,0.1875 0,9.0625 -2.125,0 -0.59375,0 0.375,0.375 0.40625,0.40625 c -0.0318,6.5e-5 -0.06192,0 -0.09375,0 z m -7.28125,-1.28125 0.28125,0 4.625,-0.03125 0.25,0 0,-0.21875 0,-9 2.1875,0 0.59375,0 -0.375,-0.375 L 19.5,14.1875 19.3125,14 19.125,14.1875 14.375,18.75 14,19.125 l 0.5625,0 2.15625,0 0,9.03125 0,0.21875 z"
       id="path2993" />
  </g>
</svg>
