<?xml version="1.0" encoding="UTF-8" standalone="no"?>
<!-- Created with Inkscape (http://www.inkscape.org/) -->

<svg
   xmlns:dc="http://purl.org/dc/elements/1.1/"
   xmlns:cc="http://creativecommons.org/ns#"
   xmlns:rdf="http://www.w3.org/1999/02/22-rdf-syntax-ns#"
   xmlns:svg="http://www.w3.org/2000/svg"
   xmlns="http://www.w3.org/2000/svg"
   xmlns:xlink="http://www.w3.org/1999/xlink"
   xmlns:sodipodi="http://sodipodi.sourceforge.net/DTD/sodipodi-0.dtd"
   xmlns:inkscape="http://www.inkscape.org/namespaces/inkscape"
   width="48"
   height="48"
   id="svg2"
   sodipodi:version="0.32"
   inkscape:version="0.47 r22583"
   version="1.0"
   sodipodi:docname="abiword.svg"
   inkscape:output_extension="org.inkscape.output.svg.inkscape">
  <defs
     id="defs4">
    <linearGradient
       id="linearGradient10997">
      <stop
         id="stop10999"
         offset="0"
         style="stop-color:#000000;stop-opacity:1;" />
      <stop
         id="stop11001"
         offset="1"
         style="stop-color:#000000;stop-opacity:0;" />
    </linearGradient>
    <linearGradient
       inkscape:collect="always"
       xlink:href="#linearGradient10997"
       id="linearGradient3714"
       gradientUnits="userSpaceOnUse"
       x1="19.489662"
       y1="6.1438289"
       x2="19.387241"
       y2="8.1000004" />
    <linearGradient
       inkscape:collect="always"
       xlink:href="#linearGradient10997"
       id="linearGradient3716"
       gradientUnits="userSpaceOnUse"
       x1="19.489662"
       y1="6.1438289"
       x2="19.387241"
       y2="8.1000004" />
    <linearGradient
       gradientUnits="userSpaceOnUse"
       y2="21.132059"
       x2="22.892584"
       y1="0.90414524"
       x1="22.892584"
       id="linearGradient3178"
       xlink:href="#linearGradient3172"
       inkscape:collect="always" />
    <linearGradient
       id="linearGradient3172">
      <stop
         id="stop3174"
         offset="0"
         style="stop-color:#4d4d4d;stop-opacity:1;" />
      <stop
         id="stop3176"
         offset="1"
         style="stop-color:#4d4d4d;stop-opacity:0;" />
    </linearGradient>
    <linearGradient
       inkscape:collect="always"
       xlink:href="#linearGradient3172"
       id="linearGradient3001"
       gradientUnits="userSpaceOnUse"
       x1="22.892584"
       y1="0.90414524"
       x2="22.892584"
       y2="21.132059" />
    <linearGradient
       inkscape:collect="always"
       xlink:href="#linearGradient3172"
       id="linearGradient3006"
       gradientUnits="userSpaceOnUse"
       x1="22.892584"
       y1="0.90414524"
       x2="22.892584"
       y2="21.132059"
       gradientTransform="matrix(0.644962,0,0,-1.1832362,59.235153,43.983663)" />
    <linearGradient
       inkscape:collect="always"
       xlink:href="#linearGradient3172"
       id="linearGradient3009"
       gradientUnits="userSpaceOnUse"
       gradientTransform="matrix(0.644962,0,0,1.1832362,9.235153,4.016337)"
       x1="22.892584"
       y1="0.90414524"
       x2="22.892584"
       y2="21.132059" />
  </defs>
  <sodipodi:namedview
     id="base"
     pagecolor="#ffffff"
     bordercolor="#666"
     borderopacity="0.20392157"
     inkscape:pageopacity="0.0"
     inkscape:pageshadow="2"
     inkscape:zoom="5.656854"
     inkscape:cx="39.752077"
     inkscape:cy="20.353078"
     inkscape:document-units="px"
     inkscape:current-layer="layer1"
     showgrid="false"
     inkscape:window-width="872"
     inkscape:window-height="680"
     inkscape:window-x="144"
     inkscape:window-y="57"
     inkscape:grid-bbox="true"
     inkscape:grid-points="true"
     showborder="true"
     inkscape:showpageshadow="false"
     stroke="#babdb6"
     fill="#d3d7cf"
     showguides="true"
     inkscape:guide-bbox="true"
     borderlayer="true"
     inkscape:window-maximized="0">
    <inkscape:grid
       id="GridFromPre046Settings"
       type="xygrid"
       originx="0px"
       originy="0px"
       spacingx="0.5px"
       spacingy="0.5px"
       color="#0000ff"
       empcolor="#0000ff"
       opacity="0.2"
       empopacity="0.4"
       empspacing="2" />
  </sodipodi:namedview>
  <metadata
     id="metadata7">
    <rdf:RDF>
      <cc:Work
         rdf:about="">
        <dc:format>image/svg+xml</dc:format>
        <dc:type
           rdf:resource="http://purl.org/dc/dcmitype/StillImage" />
        <dc:creator>
          <cc:Agent>
            <dc:title>Lapo Calamandrei</dc:title>
          </cc:Agent>
        </dc:creator>
        <dc:title></dc:title>
        <cc:license
           rdf:resource="http://creativecommons.org/licenses/GPL/2.0/" />
        <dc:subject>
          <rdf:Bag>
            <rdf:li>print</rdf:li>
            <rdf:li>document</rdf:li>
            <rdf:li>hardcopy</rdf:li>
          </rdf:Bag>
        </dc:subject>
        <dc:contributor>
          <cc:Agent>
            <dc:title>Riccardo Buzzotta</dc:title>
          </cc:Agent>
        </dc:contributor>
      </cc:Work>
      <cc:License
         rdf:about="http://creativecommons.org/licenses/GPL/2.0/">
        <cc:permits
           rdf:resource="http://web.resource.org/cc/Reproduction" />
        <cc:permits
           rdf:resource="http://web.resource.org/cc/Distribution" />
        <cc:requires
           rdf:resource="http://web.resource.org/cc/Notice" />
        <cc:permits
           rdf:resource="http://web.resource.org/cc/DerivativeWorks" />
        <cc:requires
           rdf:resource="http://web.resource.org/cc/ShareAlike" />
        <cc:requires
           rdf:resource="http://web.resource.org/cc/SourceCode" />
      </cc:License>
    </rdf:RDF>
  </metadata>
  <g
     inkscape:label="Livello 1"
     inkscape:groupmode="layer"
     id="layer1"
     style="display:inline">
    <path
       style="fill:#000000;fill-opacity:1;fill-rule:nonzero;stroke:none;stroke-width:1.00000012;marker:none;visibility:visible;display:inline;overflow:visible"
       d="m 14.305556,8 c -1.453065,0 -2.638889,1.219678 -2.638889,2.699473 l 0,1.771529 -2.7777781,0 -2,6.636203 C 4.9772499,22.25267 4,21.808211 4,26.221441 L 4,38.931458 8.4444444,40 39.555556,40 44,38.931458 44,26.221441 c 0,-4.41323 -0.977251,-3.968771 -2.888889,-7.114236 l -2,-6.636203 -2.972222,0 0,-1.124781 C 36.123229,10.613589 35.836109,9.801678 35.388889,9.1529 34.941669,8.504121 34.304823,8 33.527778,8 L 14.305556,8 z m 0,0.674869 19.222222,0 c 0.47833,0 0.96295,0.334391 1.333333,0.871704 0.370383,0.537312 0.599001,1.233224 0.611111,1.799648 l 0,3.4587 -23.138889,0 0,-4.105448 c 0,-1.118318 0.88615,-2.024604 1.972223,-2.024604 z m 1,8.576449 17.611111,0 2.555555,2.586994 0,0.281196 c -2.70924,1.06416 -6.713323,1.71529 -11.194444,1.71529 -4.723921,0 -8.934488,-0.746704 -11.638889,-1.912126 l 2.666667,-2.671354 z M 14.75,24.731107 c 0.501838,0 0.996271,0.125355 1.25,0.365554 0.507459,0.480395 0.507459,1.656687 0,2.137082 -0.507458,0.480395 -2.020319,0.480396 -2.527778,0 -0.507458,-0.480396 -0.507458,-1.656686 0,-2.137082 0.253729,-0.240199 0.775941,-0.365554 1.277778,-0.365554 z m 3.777778,0 c 0.501837,0 0.996271,0.125355 1.25,0.365554 0.507458,0.480395 0.507458,1.656687 0,2.137082 -0.507458,0.480395 -1.992542,0.480396 -2.5,0 -0.50746,-0.480396 -0.50746,-1.656686 0,-2.137082 0.253729,-0.240199 0.748162,-0.365554 1.25,-0.365554 z m 3.805555,0 c 0.510227,0 1.022059,0.12347 1.277778,0.365554 0.511441,0.484164 0.511441,1.652918 0,2.137082 -0.51144,0.484164 -2.044115,0.484165 -2.555555,0 -0.51144,-0.484165 -0.51144,-1.652918 0,-2.137082 0.25572,-0.242084 0.767552,-0.365555 1.277777,-0.365554 z m 3.777778,0 c 0.510226,0 1.022057,0.12347 1.277778,0.365554 0.511441,0.484164 0.51144,1.652918 0,2.137082 -0.51144,0.484164 -2.044115,0.484165 -2.555556,0 -0.51144,-0.484165 -0.511439,-1.652918 0,-2.137082 0.25572,-0.242084 0.767551,-0.365555 1.277778,-0.365554 z m 3.805556,0 c 0.501837,0 0.996271,0.125355 1.25,0.365554 0.507459,0.480395 0.507458,1.656687 0,2.137082 -0.507459,0.480395 -2.020319,0.480396 -2.527778,0 -0.507459,-0.480396 -0.507458,-1.656686 0,-2.137082 0.253729,-0.240199 0.77594,-0.365554 1.277778,-0.365554 z m 3.777777,0 c 0.50184,0 0.99627,0.125355 1.25,0.365554 0.507459,0.480395 0.507458,1.656687 0,2.137082 -0.507458,0.480395 -1.992542,0.480396 -2.5,0 -0.507458,-0.480396 -0.507458,-1.656686 0,-2.137082 0.253729,-0.240199 0.748161,-0.365554 1.25,-0.365554 z m -9.583333,3.205624 c 0.510228,-1e-6 1.022058,0.12347 1.277778,0.365553 0.511441,0.484164 0.51144,1.681037 0,2.165202 -0.511439,0.484163 -2.016336,0.484166 -2.527778,0 -0.511439,-0.484166 -0.511439,-1.681037 0,-2.165202 0.255721,-0.242083 0.739773,-0.365553 1.25,-0.365553 z m 3.805556,0 c 0.510227,-1e-6 1.022057,0.12347 1.277777,0.365553 0.511441,0.484164 0.51144,1.681037 0,2.165202 -0.51144,0.484163 -2.044115,0.484166 -2.555555,0 -0.51144,-0.484166 -0.51144,-1.681037 0,-2.165202 0.255719,-0.242083 0.767552,-0.365553 1.277778,-0.365553 z m -15.527778,0.02812 c 0.121583,-0.01455 0.263429,0 0.388889,0 0.501838,-1e-6 0.996271,0.09723 1.25,0.337434 0.25373,0.240198 0.361111,0.651209 0.361111,1.068542 0,0.417335 -0.107381,0.856462 -0.361111,1.09666 -0.50746,0.480396 -2.020319,0.480397 -2.527778,0 -0.507458,-0.480399 -0.507459,-1.684809 0,-2.165204 0.190298,-0.180148 0.52414,-0.293794 0.888889,-0.337434 z m 3.777778,0 c 0.121583,-0.01455 0.235651,0 0.361111,0 0.501838,-1e-6 1.024049,0.09723 1.277778,0.337434 0.507458,0.480395 0.507458,1.684808 0,2.165202 -0.507459,0.480396 -2.02032,0.480397 -2.527778,0 -0.507459,-0.480397 -0.50746,-1.684807 0,-2.165202 0.190297,-0.180148 0.52414,-0.293794 0.888889,-0.337434 z m 3.805555,0 c 0.121583,-0.01455 0.235652,0 0.361111,0 0.501839,-1e-6 0.99627,0.09723 1.25,0.337434 0.50746,0.480395 0.507458,1.684808 0,2.165202 -0.507457,0.480396 -1.99254,0.480397 -2.5,0 -0.507457,-0.480397 -0.507457,-1.684807 0,-2.165202 0.190297,-0.180148 0.524141,-0.293794 0.888889,-0.337434 z m 11.361111,0 c 0.121583,-0.01455 0.235652,0 0.361111,0 0.501839,-1e-6 1.024048,0.09723 1.277778,0.337434 0.507459,0.480395 0.507459,1.684808 0,2.165202 -0.507458,0.480396 -2.020319,0.480397 -2.527778,0 -0.507457,-0.480397 -0.507458,-1.684807 0,-2.165202 0.190297,-0.180148 0.524141,-0.293794 0.888889,-0.337434 z m 3.777778,0 c 0.121583,-0.01455 0.263429,0 0.388889,0 0.501838,-1e-6 0.996269,0.09723 1.25,0.337434 0.507459,0.480395 0.507459,1.684808 0,2.165202 -0.50746,0.480396 -1.992541,0.480397 -2.5,0 -0.50746,-0.480397 -0.50746,-1.684807 0,-2.165202 0.190296,-0.180148 0.496362,-0.293794 0.861111,-0.337434 z m -24.388889,3.318101 c 0.501839,0 0.99627,0.153476 1.25,0.393673 0.253729,0.240198 0.388889,0.651209 0.388889,1.068541 -10e-7,0.417334 -0.13516,0.828342 -0.388889,1.068541 -0.25373,0.240197 -0.748162,0.365552 -1.25,0.365554 -0.501838,0 -0.9962705,-0.125358 -1.2499998,-0.365554 -0.5074601,-0.480396 -0.5074592,-1.656685 0,-2.137082 0.2537285,-0.240197 0.7481618,-0.393674 1.2499998,-0.393673 z m 3.777778,0 c 0.501839,0 0.996271,0.153476 1.25,0.393673 0.50746,0.480395 0.50746,1.656684 0,2.137082 -0.253729,0.240197 -0.748161,0.365551 -1.25,0.365554 -0.501837,0 -0.996271,-0.125359 -1.25,-0.365554 -0.507459,-0.480396 -0.507459,-1.656685 0,-2.137082 0.253729,-0.240197 0.748163,-0.393674 1.25,-0.393673 z m 3.777778,0 c 0.501837,0 1.024048,0.153476 1.277778,0.393673 0.507458,0.480395 0.507458,1.656684 0,2.137082 -0.25373,0.240197 -0.77594,0.365551 -1.277778,0.365554 -0.501838,0 -0.99627,-0.125359 -1.25,-0.365554 -0.507458,-0.480396 -0.507458,-1.656685 0,-2.137082 0.25373,-0.240197 0.748162,-0.393674 1.25,-0.393673 z m 3.805555,0 c 0.510227,0 1.022056,0.151591 1.277778,0.393673 0.511441,0.484166 0.51144,1.652915 0,2.137082 -0.255721,0.242082 -0.76755,0.365553 -1.277778,0.365554 -0.510226,0 -1.022057,-0.123473 -1.277777,-0.365554 -0.51144,-0.484165 -0.511441,-1.652916 0,-2.137082 0.25572,-0.242083 0.767551,-0.393674 1.277777,-0.393673 z m 3.777778,0 c 0.510227,0 1.022057,0.151591 1.277778,0.393673 0.511441,0.484166 0.51144,1.652915 0,2.137082 -0.255721,0.242082 -0.767553,0.365553 -1.277778,0.365554 -0.510226,0 -1.022058,-0.123473 -1.277778,-0.365554 -0.511441,-0.484165 -0.51144,-1.652916 0,-2.137082 0.25572,-0.242083 0.767551,-0.393674 1.277778,-0.393673 z m 3.805556,0 c 0.501837,0 0.996271,0.153476 1.25,0.393673 0.507458,0.480395 0.507458,1.656684 0,2.137082 -0.253729,0.240197 -0.748163,0.365551 -1.25,0.365554 -0.501839,0 -1.02405,-0.125359 -1.277778,-0.365554 -0.50746,-0.480396 -0.507461,-1.656685 0,-2.137082 0.25373,-0.240197 0.77594,-0.393674 1.277778,-0.393673 z m 3.777777,0 c 0.50184,0 1.024048,0.153476 1.277778,0.393673 0.507459,0.480395 0.507458,1.656684 0,2.137082 -0.25373,0.240197 -0.775939,0.365551 -1.277778,0.365554 -0.501837,0 -0.996271,-0.125359 -1.25,-0.365554 -0.507458,-0.480396 -0.507459,-1.656685 0,-2.137082 0.25373,-0.240197 0.748162,-0.393674 1.25,-0.393673 z m 3.75,0 c 0.501839,0 0.996273,0.153476 1.25,0.393673 0.507459,0.480395 0.50746,1.656684 0,2.137082 -0.253729,0.240197 -0.748162,0.365551 -1.25,0.365554 -0.501839,0 -1.024046,-0.125359 -1.277777,-0.365554 -0.507459,-0.480396 -0.507458,-1.656685 0,-2.137082 0.25373,-0.240197 0.775937,-0.393674 1.277777,-0.393673 z m -24.861111,3.233743 c 0.121583,-0.01622 0.235652,0 0.361111,0 0.501839,0 0.996271,0.153475 1.25,0.393673 0.50746,0.480396 0.507459,1.628565 0,2.108964 -0.253729,0.240198 -0.748162,0.365551 -1.25,0.365553 -0.501837,0 -0.996271,-0.125356 -1.25,-0.365553 -0.507458,-0.480397 -0.507459,-1.628568 0,-2.108964 0.190297,-0.180148 0.524141,-0.345036 0.888889,-0.393673 z m 3.777778,0 c 0.121583,-0.01622 0.235652,0 0.361111,0 0.501838,0 1.024049,0.153475 1.277778,0.393673 0.507459,0.480396 0.507459,1.628565 0,2.108964 -0.253729,0.240198 -0.77594,0.365551 -1.277778,0.365553 -0.501838,0 -0.996271,-0.125356 -1.25,-0.365553 -0.507458,-0.480397 -0.507458,-1.628568 0,-2.108964 0.190296,-0.180148 0.524141,-0.345036 0.888889,-0.393673 z m 3.777778,0 c 0.123579,-0.01607 0.261332,0 0.388889,0 0.510226,0 1.022058,0.151591 1.277778,0.393673 0.51144,0.484165 0.51144,1.624798 0,2.108964 -0.25572,0.242082 -0.767551,0.393673 -1.277778,0.393672 -0.510227,0 -1.022058,-0.151591 -1.277778,-0.393672 -0.51144,-0.484165 -0.51144,-1.624799 0,-2.108964 0.19179,-0.181562 0.518149,-0.345479 0.888889,-0.393673 z m 3.805555,0 c 0.123581,-0.01607 0.233555,0 0.361112,0 0.510227,0 1.022057,0.151591 1.277777,0.393673 0.511439,0.484165 0.51144,1.624798 0,2.108964 -0.255721,0.242082 -0.767551,0.393673 -1.277777,0.393672 -0.510227,0 -1.022058,-0.151591 -1.277778,-0.393672 -0.511441,-0.484165 -0.51144,-1.624799 0,-2.108964 0.19179,-0.181562 0.545926,-0.345479 0.916666,-0.393673 z m 3.777778,0 c 0.121583,-0.01622 0.26343,0 0.388889,0 0.501839,0 0.99627,0.153475 1.25,0.393673 0.507458,0.480396 0.507459,1.628565 0,2.108964 -0.25373,0.240198 -0.748161,0.365551 -1.25,0.365553 -0.501837,0 -0.996271,-0.125356 -1.25,-0.365553 -0.507459,-0.480397 -0.507459,-1.628568 0,-2.108964 0.190297,-0.180148 0.496363,-0.345036 0.861111,-0.393673 z m 3.805556,0 c 0.121583,-0.01622 0.235651,0 0.361111,0 0.501838,0 1.024048,0.153475 1.277778,0.393673 0.507457,0.480396 0.507457,1.628565 0,2.108964 -0.25373,0.240198 -0.77594,0.365551 -1.277778,0.365553 -0.501838,0 -0.99627,-0.125356 -1.25,-0.365553 -0.507459,-0.480397 -0.507459,-1.628568 0,-2.108964 0.190297,-0.180148 0.52414,-0.345036 0.888889,-0.393673 z m 3.722222,0 c 0.121583,-0.01622 0.235652,0 0.361111,0 0.501837,0 0.99627,0.153475 1.25,0.393673 0.507459,0.480396 0.507459,1.628565 0,2.108964 -0.25373,0.240198 -0.748163,0.365551 -1.25,0.365553 -0.501838,0 -0.996271,-0.125356 -1.25,-0.365553 -0.507459,-0.480397 -0.50746,-1.628568 0,-2.108964 C 34.301409,34.730221 34.635252,34.565333 35,34.516696 z"
       id="rect1314" />
    <g
       transform="translate(-222.0151,22.99999)"
       style="display:inline"
       inkscape:label="base"
       id="g2637" />
    <g
       id="g6239"
       inkscape:label="base"
       style="display:inline"
       transform="translate(-161.92009,22.506087)" />
    <g
       id="g6266"
       inkscape:label="base"
       style="display:inline"
       transform="translate(60.095006,0.5060967)" />
    <g
       id="g3668"
       inkscape:label="base"
       style="display:inline"
       transform="translate(-172.93688,16.571281)" />
    <g
       transform="translate(142.02993,-10.027206)"
       style="display:inline"
       inkscape:label="pixmap"
       id="g3642" />
    <g
       id="g891"
       transform="matrix(0.186703,0,0,0.186703,120.92263,47.595784)" />
    <g
       id="g2659"
       transform="matrix(0.186703,0,0,0.186703,159.13115,63.555614)" />
    <g
       inkscape:r_cy="true"
       inkscape:r_cx="true"
       id="g4038"
       inkscape:label="pattern"
       transform="translate(142.10895,122.33782)" />
    <g
       inkscape:r_cy="true"
       inkscape:r_cx="true"
       id="g4912"
       inkscape:label="pattern"
       transform="translate(142.10895,176.33782)" />
    <g
       inkscape:r_cy="true"
       inkscape:r_cx="true"
       id="g10822"
       inkscape:label="pattern"
       transform="translate(142.10895,230.33782)" />
    <g
       transform="translate(143.34638,279.24732)"
       id="g30615"
       inkscape:r_cx="true"
       inkscape:r_cy="true">
      <g
         style="fill:#ffffff;fill-opacity:0.75706213;fill-rule:nonzero;stroke:none;stroke-width:0.99946535;stroke-miterlimit:4"
         id="g30617"
         transform="matrix(1.040764,0,5.449252e-2,1.040764,-8.670199,2.670594)"
         inkscape:export-filename="/home/jimmac/ximian_art/icons/nautilus/suse93/gnome-fs-directory.png"
         inkscape:export-xdpi="74.800003"
         inkscape:export-ydpi="74.800003"
         inkscape:r_cx="true"
         inkscape:r_cy="true" />
      <g
         inkscape:export-ydpi="74.800003"
         inkscape:export-xdpi="74.800003"
         inkscape:export-filename="/home/jimmac/ximian_art/icons/nautilus/suse93/gnome-fs-directory.png"
         style="opacity:0.41477272;fill:url(#linearGradient3714);fill-opacity:1;fill-rule:nonzero;stroke:#000000;stroke-miterlimit:4"
         transform="matrix(1.040764,0,5.449252e-2,1.365642,-8.358528,0.921788)"
         id="g30619"
         inkscape:r_cx="true"
         inkscape:r_cy="true" />
    </g>
    <g
       transform="translate(143.34638,333.24732)"
       id="g35216"
       inkscape:r_cx="true"
       inkscape:r_cy="true">
      <g
         style="fill:#ffffff;fill-opacity:0.75706213;fill-rule:nonzero;stroke:none;stroke-width:0.99946535;stroke-miterlimit:4"
         id="g35218"
         transform="matrix(1.040764,0,5.449252e-2,1.040764,-8.670199,2.670594)"
         inkscape:export-filename="/home/jimmac/ximian_art/icons/nautilus/suse93/gnome-fs-directory.png"
         inkscape:export-xdpi="74.800003"
         inkscape:export-ydpi="74.800003"
         inkscape:r_cx="true"
         inkscape:r_cy="true" />
      <g
         inkscape:export-ydpi="74.800003"
         inkscape:export-xdpi="74.800003"
         inkscape:export-filename="/home/jimmac/ximian_art/icons/nautilus/suse93/gnome-fs-directory.png"
         style="opacity:0.41477272;fill:url(#linearGradient3716);fill-opacity:1;fill-rule:nonzero;stroke:#000000;stroke-miterlimit:4"
         transform="matrix(1.040764,0,5.449252e-2,1.365642,-8.358528,0.921788)"
         id="g35220"
         inkscape:r_cx="true"
         inkscape:r_cy="true" />
    </g>
    <g
       id="g3688"
       inkscape:label="base"
       style="display:inline"
       transform="translate(49.07822,-6.428709)" />
    <g
       transform="translate(-124.14355,-6.364516)"
       id="g4438"
       inkscape:label="Emblem" />
    <g
       inkscape:label="Emblem"
       id="g3830"
       transform="translate(-133.55677,-5.206874)" />
    <g
       transform="translate(-79.563946,26.434506)"
       id="g3840"
       inkscape:label="Emblem" />
    <g
       inkscape:label="Emblem"
       id="g4285"
       transform="translate(-160.95109,-7.325984)" />
    <g
       transform="translate(-106.95827,24.315396)"
       id="g4306"
       inkscape:label="Emblem" />
    <g
       inkscape:label="Emblem"
       id="g5941"
       transform="translate(-86.608529,-14.366033)" />
    <g
       transform="translate(-26.645979,-16.177362)"
       id="g12397"
       inkscape:label="Emblem" />
    <g
       inkscape:label="Error Box"
       id="layer3"
       transform="matrix(0.507281,0,0,0.507281,-10.290919,71.280588)" />
    <g
       inkscape:label="Emblem"
       id="g12410"
       transform="translate(27.346841,15.464018)" />
    <g
       transform="translate(-32.615709,17.275347)"
       id="g5948"
       inkscape:label="Emblem" />
    <g
       inkscape:label="Emblem"
       id="g8593"
       transform="translate(-65.733564,-18.791648)" />
    <g
       transform="translate(-5.771014,-20.602977)"
       id="g8596"
       inkscape:label="Emblem" />
    <g
       inkscape:label="Error Box"
       id="g8600"
       transform="matrix(0.507281,0,0,0.507281,10.584046,66.854973)" />
    <g
       inkscape:label="Emblem"
       id="g8602"
       transform="translate(48.221803,11.038403)" />
    <g
       transform="translate(-11.740744,12.849732)"
       id="g8604"
       inkscape:label="Emblem" />
    <text
       id="text5335"
       y="48.079788"
       x="-138.21149"
       style="font-size:4px;font-style:normal;font-weight:normal;fill:none;fill-opacity:1;stroke:none;stroke-width:1px;stroke-linecap:butt;stroke-linejoin:miter;stroke-opacity:1;font-family:Bitstream Vera Sans"
       xml:space="preserve"><tspan
         y="48.079788"
         x="-138.21149"
         id="tspan5337"
         sodipodi:role="line" /></text>
    <g
       inkscape:label="Emblem"
       id="g13358"
       transform="translate(-76.650455,-16.088221)" />
    <g
       transform="translate(-22.657635,15.55316)"
       id="g3725"
       inkscape:label="Emblem" />
    <g
       inkscape:label="Emblem"
       id="g10031"
       transform="translate(-25.909023,-23.894236)" />
    <g
       transform="translate(28.083797,7.747145)"
       id="g10121"
       inkscape:label="Emblem" />
    <text
       id="text10036"
       y="40.332329"
       x="-88.515816"
       style="font-size:4px;font-style:normal;font-weight:normal;fill:none;fill-opacity:1;stroke:none;stroke-width:1px;stroke-linecap:butt;stroke-linejoin:miter;stroke-opacity:1;font-family:Bitstream Vera Sans"
       xml:space="preserve"><tspan
         y="40.332329"
         x="-88.515816"
         id="tspan10038"
         sodipodi:role="line" /></text>
    <g
       inkscape:label="Emblem"
       id="g47691"
       transform="translate(-46.221684,-22.581426)" />
    <g
       transform="translate(13.740866,-24.392755)"
       id="g13367"
       inkscape:label="Emblem" />
    <g
       inkscape:label="Error Box"
       id="g13370"
       transform="matrix(0.507281,0,0,0.507281,30.095923,63.065195)" />
    <g
       inkscape:label="Emblem"
       id="g13372"
       transform="translate(67.733683,7.248626)" />
    <g
       transform="translate(28.100456,7.822518)"
       id="g47699"
       inkscape:label="Emblem" />
    <g
       inkscape:label="Emblem"
       id="g19132"
       transform="translate(-132.53355,-6.364927)" />
    <g
       transform="translate(-141.94677,-5.207285)"
       id="g19134"
       inkscape:label="Emblem" />
    <g
       inkscape:label="Emblem"
       id="g19141"
       transform="translate(-87.953946,26.434095)" />
    <g
       transform="translate(-169.34109,-7.326395)"
       id="g19143"
       inkscape:label="Emblem" />
    <g
       inkscape:label="Emblem"
       id="g19145"
       transform="translate(-115.34827,24.314985)" />
    <g
       transform="translate(-78.540727,25.276453)"
       id="g19150"
       inkscape:label="Emblem" />
    <g
       transform="translate(-79.628429,5.246625)"
       id="g4338"
       inkscape:label="Emblem" />
    <g
       inkscape:label="Emblem"
       id="g4346"
       transform="translate(-25.635609,36.888005)" />
    <g
       transform="translate(-70.302686,68.667615)"
       id="g9200"
       inkscape:label="Emblem" />
    <g
       transform="translate(-79.566416,7.725217)"
       id="g10306"
       inkscape:label="Emblem" />
    <g
       inkscape:label="Emblem"
       id="g10308"
       transform="translate(-25.573596,39.366597)" />
    <g
       transform="translate(-70.240673,71.146207)"
       id="g10327"
       inkscape:label="Emblem" />
    <g
       inkscape:label="Emblem"
       id="g18777"
       transform="translate(-70.150727,25.276864)" />
    <g
       id="layer6"
       inkscape:label="Shadow"
       transform="matrix(0.752608,0,0,0.752608,47.570408,13.134045)" />
    <g
       transform="matrix(0.752608,0,0,0.752608,80.38234,3.6605098)"
       inkscape:label="Shadow"
       id="g3953" />
    <g
       transform="matrix(1.4480404,0,0,1.4480404,35.627126,35.472311)"
       id="g3959"
       inkscape:label="Shadow" />
    <g
       transform="matrix(1.4480404,0,0,1.4480404,35.627126,35.472311)"
       style="display:inline"
       inkscape:label="Base"
       id="g3961" />
    <path
       style="fill:url(#linearGradient3009);fill-opacity:1;stroke:none"
       d="m 22.5,29.625 c -0.188276,-0.0062 -0.375421,-0.02277 -0.5625,-0.03125 0.05243,-0.488652 -0.04543,-0.99884 -0.34375,-1.28125 -0.25373,-0.240204 -0.748161,-0.343751 -1.25,-0.34375 -0.125459,0 -0.253417,-0.01455 -0.375,0 -0.364748,0.04364 -0.684703,0.163602 -0.875,0.34375 -0.241168,0.228307 -0.394311,0.600072 -0.40625,1 -0.169631,-0.02024 -0.331749,-0.04037 -0.5,-0.0625 -0.02263,-0.3779 -0.146393,-0.721084 -0.375,-0.9375 -0.253729,-0.240204 -0.779412,-0.343751 -1.28125,-0.34375 -0.12546,0 -0.253417,-0.01455 -0.375,0 -0.364749,0.04364 -0.684703,0.163602 -0.875,0.34375 -0.112478,0.106479 -0.187383,0.244399 -0.25,0.40625 -0.274332,-0.05842 -0.543299,-0.123949 -0.8125,-0.1875 -0.0493,-0.09181 -0.115566,-0.150653 -0.1875,-0.21875 -0.253729,-0.240204 -0.748162,-0.343751 -1.25,-0.34375 -0.12546,0 -0.284667,-0.01455 -0.40625,0 C 12.31868,27.97545 12.273183,27.98994 12.21875,28 8.989463,27.036647 6.202426,25.706032 4.125,24.09375 c 0.315387,-2.219037 1.22738,-2.494637 2.75,-5 l 2,-6.625 2.78125,0 0,-1.78125 C 11.65625,9.207705 12.859435,8 14.3125,8 l 19.21875,0 c 0.777045,0 1.39653,0.507471 1.84375,1.15625 0.44722,0.648778 0.73434,1.454868 0.75,2.1875 l 0,1.125 3,0 2,6.625 c 1.52262,2.505363 2.434613,2.780963 2.75,5 C 41.80376,25.701232 39.029411,27.037241 35.8125,28 35.706389,27.9903 35.609218,27.96875 35.5,27.96875 c -0.12546,0 -0.253417,-0.01455 -0.375,0 -0.364749,0.04364 -0.684704,0.163602 -0.875,0.34375 -0.05199,0.04922 -0.08366,0.09339 -0.125,0.15625 -0.302054,0.07434 -0.597525,0.15093 -0.90625,0.21875 -0.06181,-0.151377 -0.143407,-0.274092 -0.25,-0.375 -0.25373,-0.240204 -0.779411,-0.343751 -1.28125,-0.34375 -0.125459,0 -0.222167,-0.01455 -0.34375,0 -0.364748,0.04364 -0.715953,0.163602 -0.90625,0.34375 -0.221699,0.209876 -0.315763,0.54074 -0.34375,0.90625 -0.177747,0.0246 -0.351922,0.04001 -0.53125,0.0625 -0.01774,-0.387813 -0.138459,-0.744824 -0.375,-0.96875 -0.25572,-0.242083 -0.771023,-0.375001 -1.28125,-0.375 -0.510226,0 -1.025531,0.132917 -1.28125,0.375 -0.300661,0.284627 -0.396589,0.793604 -0.34375,1.28125 -0.176249,0.0088 -0.353915,0.02443 -0.53125,0.03125 0.06155,-0.495921 -0.06801,-1.021882 -0.375,-1.3125 -0.25572,-0.242083 -0.739772,-0.375001 -1.25,-0.375 -0.510227,0 -0.994279,0.132917 -1.25,0.375 -0.30699,0.290619 -0.43655,0.816579 -0.375,1.3125 z m -7.75,-2.03125 c 0.50508,0 0.996271,-0.134802 1.25,-0.375 0.507459,-0.480395 0.507459,-1.644605 0,-2.125 -0.253729,-0.240199 -0.748162,-0.375 -1.25,-0.375 -0.501837,0 -1.027521,0.134801 -1.28125,0.375 -0.507458,0.480396 -0.507458,1.644604 0,2.125 0.253729,0.240198 0.77617,0.375 1.28125,0.375 z m 3.78125,0 c 0.498136,0 0.996271,-0.134802 1.25,-0.375 0.507458,-0.480395 0.507458,-1.644605 0,-2.125 -0.253729,-0.240199 -0.748163,-0.375 -1.25,-0.375 -0.501838,0 -0.996271,0.134801 -1.25,0.375 -0.50746,0.480396 -0.50746,1.644604 0,2.125 0.253729,0.240198 0.751864,0.375 1.25,0.375 z m 3.8125,0 c 0.511029,0 1.02553,-0.132918 1.28125,-0.375 0.511441,-0.484164 0.511441,-1.640836 0,-2.125 -0.255719,-0.242084 -0.771023,-0.375 -1.28125,-0.375 -0.510225,-1e-6 -1.02553,0.132916 -1.28125,0.375 -0.51144,0.484164 -0.51144,1.640835 0,2.125 0.25572,0.242083 0.770221,0.375 1.28125,0.375 z m 3.78125,0 c 0.511029,0 0.99428,-0.132918 1.25,-0.375 0.51144,-0.484164 0.511441,-1.640836 0,-2.125 -0.255721,-0.242084 -0.739774,-0.375 -1.25,-0.375 -0.510227,-1e-6 -1.02553,0.132916 -1.28125,0.375 -0.511439,0.484164 -0.51144,1.640835 0,2.125 0.25572,0.242083 0.770221,0.375 1.28125,0.375 z m 3.78125,0 c 0.50508,0 0.996271,-0.134802 1.25,-0.375 0.507458,-0.480395 0.507459,-1.644605 0,-2.125 -0.253729,-0.240199 -0.748163,-0.375 -1.25,-0.375 -0.501838,0 -1.027521,0.134801 -1.28125,0.375 -0.507458,0.480396 -0.507459,1.644604 0,2.125 0.253729,0.240198 0.77617,0.375 1.28125,0.375 z m 3.78125,0 c 0.498136,0 0.996271,-0.134802 1.25,-0.375 0.507458,-0.480395 0.507459,-1.644605 0,-2.125 -0.25373,-0.240199 -0.74816,-0.375 -1.25,-0.375 -0.501839,0 -0.996271,0.134801 -1.25,0.375 -0.507458,0.480396 -0.507458,1.644604 0,2.125 0.253729,0.240198 0.751864,0.375 1.25,0.375 z m -9.40625,-5.75 c 4.481121,0 8.47826,-0.65459 11.1875,-1.71875 l 0,-0.28125 -2.5625,-2.59375 -17.59375,0 -2.6875,2.6875 c 2.704401,1.165422 6.932329,1.90625 11.65625,1.90625 z m -11.9375,-7.03125 23.125,0 0,-3.46875 C 35.45664,10.777326 35.245383,10.068562 34.875,9.53125 34.504617,8.993937 34.00958,8.6875 33.53125,8.6875 l -19.21875,0 c -1.086073,0 -1.96875,0.881682 -1.96875,2 l 0,4.125 z"
       id="path2995" />
    <g
       transform="matrix(0.1337942,0,0,-0.1337942,31.527762,89.04701)"
       inkscape:label="Calque 1"
       id="g2997" />
    <g
       transform="matrix(0.1672428,0,0,-0.1672428,38.442916,104.62323)"
       inkscape:label="Calque 1"
       id="g2999" />
  </g>
  <g
     inkscape:groupmode="layer"
     id="layer2"
     inkscape:label="base"
     style="display:inline" />
</svg>
