<?xml version="1.0" encoding="UTF-8" standalone="no"?>
<!-- Created with Inkscape (http://www.inkscape.org/) -->

<svg
   xmlns:dc="http://purl.org/dc/elements/1.1/"
   xmlns:cc="http://creativecommons.org/ns#"
   xmlns:rdf="http://www.w3.org/1999/02/22-rdf-syntax-ns#"
   xmlns:svg="http://www.w3.org/2000/svg"
   xmlns="http://www.w3.org/2000/svg"
   xmlns:xlink="http://www.w3.org/1999/xlink"
   xmlns:sodipodi="http://sodipodi.sourceforge.net/DTD/sodipodi-0.dtd"
   xmlns:inkscape="http://www.inkscape.org/namespaces/inkscape"
   width="48px"
   height="48px"
   id="svg2833"
   version="1.1"
   inkscape:version="0.47 r22583"
   sodipodi:docname="Nouveau document 3">
  <defs
     id="defs2835">
    <linearGradient
       gradientUnits="userSpaceOnUse"
       y2="21.132059"
       x2="22.892584"
       y1="0.90414524"
       x1="22.892584"
       id="linearGradient3178"
       xlink:href="#linearGradient3172"
       inkscape:collect="always" />
    <linearGradient
       id="linearGradient3172">
      <stop
         id="stop3174"
         offset="0"
         style="stop-color:#4d4d4d;stop-opacity:1;" />
      <stop
         id="stop3176"
         offset="1"
         style="stop-color:#4d4d4d;stop-opacity:0;" />
    </linearGradient>
    <linearGradient
       inkscape:collect="always"
       xlink:href="#linearGradient3172"
       id="linearGradient2956"
       gradientUnits="userSpaceOnUse"
       x1="22.892584"
       y1="0.90414524"
       x2="22.892584"
       y2="21.132059" />
    <linearGradient
       inkscape:collect="always"
       xlink:href="#linearGradient3172"
       id="linearGradient2961"
       gradientUnits="userSpaceOnUse"
       x1="22.892584"
       y1="0.90414524"
       x2="22.892584"
       y2="21.132059"
       gradientTransform="matrix(0.644962,0,0,-1.1832362,59.235153,43.983663)" />
    <linearGradient
       inkscape:collect="always"
       xlink:href="#linearGradient3172"
       id="linearGradient2964"
       gradientUnits="userSpaceOnUse"
       gradientTransform="matrix(0.644962,0,0,1.1832362,9.235403,4.016337)"
       x1="22.892584"
       y1="0.90414524"
       x2="22.892584"
       y2="21.132059" />
  </defs>
  <sodipodi:namedview
     id="base"
     pagecolor="#ffffff"
     bordercolor="#666666"
     borderopacity="1.0"
     inkscape:pageopacity="0.0"
     inkscape:pageshadow="2"
     inkscape:zoom="7"
     inkscape:cx="24"
     inkscape:cy="24"
     inkscape:current-layer="layer1"
     showgrid="true"
     inkscape:grid-bbox="true"
     inkscape:document-units="px"
     inkscape:window-width="1364"
     inkscape:window-height="721"
     inkscape:window-x="0"
     inkscape:window-y="23"
     inkscape:window-maximized="1" />
  <metadata
     id="metadata2838">
    <rdf:RDF>
      <cc:Work
         rdf:about="">
        <dc:format>image/svg+xml</dc:format>
        <dc:type
           rdf:resource="http://purl.org/dc/dcmitype/StillImage" />
        <dc:title></dc:title>
      </cc:Work>
    </rdf:RDF>
  </metadata>
  <g
     id="layer1"
     inkscape:label="Layer 1"
     inkscape:groupmode="layer">
    <path
       style="fill:#000000"
       d="M 7.4990836,43.32478 C 6.5608187,42.81855 5.8805321,42.2432 5.4578832,41.53623 5.0593029,40.86953 4.9855959,40.56147 5.0021142,39.63134 5.0210412,38.56517 5.2373298,38.03015 10.531601,25.95294 13.561984,19.04008 16.086786,13.16091 16.142275,12.88811 16.245847,12.3789 12.109432,6.20413 11.64979,4 l 21.625244,0 c -0.07609,0.75653 -0.221277,2.61618 -0.423066,3.8436 -0.811826,4.93814 -0.810024,4.88529 -0.216347,6.34774 0.282274,0.69535 2.638925,6.25003 5.237003,12.34374 2.59808,6.09372 4.843166,11.42525 4.989085,11.84785 0.615543,1.78271 -0.991633,4.64466 -1.531221,4.94178 -0.539587,0.29713 -1.013469,0.60487 -1.954521,0.67523 L 9.929803,44 C 8.9112305,43.9142 8.4373496,43.83102 7.4990836,43.32478 z M 30.631157,14.051724 C 30.045379,12.101775 30.283913,11.431585 30.594797,9.538 30.792922,8.33123 30.955025,6.51336 30.955025,6.06867 l -15.980227,10e-6 c 0,0 2.712686,4.42417 3.098571,5.50087 0.378217,1.0553 -0.03857,1.36808 -0.327876,2.33245 L 7.9927261,40.38426 c 0.4188362,0.88592 0.8838314,0.8824 1.7832689,1.04895 l 28.27473,-0.095 c 0.915311,-0.15952 1.380305,-0.16303 1.880773,-0.95404 L 30.631157,14.051724 z M 13.046297,38.39443 c -0.663794,-0.27271 -0.879758,-0.77651 -0.710787,-1.65814 0.05763,-0.3007 1.11171,-3.16376 2.342395,-6.36236 1.512777,-3.93175 1.922444,-5.8119 2.372372,-6.26721 l 13.902568,0.006 c 0.316123,0.22981 0.831981,1.48824 2.39627,5.86342 1.204986,3.37023 2.264715,6.70479 2.323342,7.01207 0.110818,0.58083 -0.06354,0.9935 -0.682388,1.3228 l -21.943772,0.0832 0,2.2e-4 z"
       id="path2818"
       sodipodi:nodetypes="cssssccsssszcczcscczcccccccsccsscccc" />
    <path
       style="fill:url(#linearGradient2964);fill-opacity:1;stroke:none"
       d="m 24.00025,29.65625 c -3.078062,0 -6.013719,-0.317512 -8.71875,-0.875 1.010275,-2.792191 1.401431,-4.303138 1.78125,-4.6875 l 13.875,0.03125 c 0.272819,0.198329 0.821643,1.552264 1.9375,4.625 -2.747162,0.577797 -5.738453,0.90625 -8.875,0.90625 z M 12.5315,28.125 C 11.630519,27.865969 10.795469,27.534428 9.969,27.21875 10.188012,26.718886 10.292187,26.483416 10.5315,25.9375 13.561883,19.02464 16.101011,13.1478 16.1565,12.875 16.260072,12.36579 12.116142,6.20413 11.6565,4 l 21.625,0 c -0.07609,0.75653 -0.235711,2.61633 -0.4375,3.84375 -0.811826,4.93814 -0.812427,4.8813 -0.21875,6.34375 0.282274,0.69535 2.651922,6.25004 5.25,12.34375 0.144287,0.338422 0.139439,0.32324 0.28125,0.65625 -0.82131,0.317813 -1.666448,0.613413 -2.5625,0.875 l -4.96875,-14 C 30.039472,12.112551 30.283116,11.424835 30.594,9.53125 30.792125,8.32448 30.969,6.50719 30.969,6.0625 l -16,0 c 0,0 2.707865,4.4233 3.09375,5.5 0.378217,1.0553 -0.02319,1.37938 -0.3125,2.34375 L 12.5315,28.125 z"
       id="path2950" />
    <g
       transform="matrix(0.1337942,0,0,-0.1337942,31.527762,89.04701)"
       inkscape:label="Calque 1"
       id="g2952" />
    <g
       transform="matrix(0.1672428,0,0,-0.1672428,38.442916,104.62323)"
       inkscape:label="Calque 1"
       id="g2954" />
  </g>
</svg>
