<?xml version="1.0" encoding="UTF-8" standalone="no"?>
<!-- Created with Inkscape (http://www.inkscape.org/) -->
<svg
   xmlns:dc="http://purl.org/dc/elements/1.1/"
   xmlns:cc="http://creativecommons.org/ns#"
   xmlns:rdf="http://www.w3.org/1999/02/22-rdf-syntax-ns#"
   xmlns:svg="http://www.w3.org/2000/svg"
   xmlns="http://www.w3.org/2000/svg"
   xmlns:xlink="http://www.w3.org/1999/xlink"
   xmlns:sodipodi="http://sodipodi.sourceforge.net/DTD/sodipodi-0.dtd"
   xmlns:inkscape="http://www.inkscape.org/namespaces/inkscape"
   width="48px"
   height="48px"
   id="svg4289"
   sodipodi:version="0.32"
   inkscape:version="0.46"
   sodipodi:docbase="/home/lapo/Icone/cvs/gnome-icon-theme/scalable/categories"
   sodipodi:docname="package_settings.svg"
   inkscape:output_extension="org.inkscape.output.svg.inkscape">
  <defs
     id="defs4291">
    <linearGradient
       id="linearGradient3155"
       inkscape:collect="always">
      <stop
         id="stop3157"
         offset="0"
         style="stop-color:#4d4d4d;stop-opacity:1;" />
      <stop
         id="stop3159"
         offset="1"
         style="stop-color:#4d4d4d;stop-opacity:0;" />
    </linearGradient>
    <linearGradient
       inkscape:collect="always"
       xlink:href="#linearGradient3155"
       id="linearGradient2454"
       gradientUnits="userSpaceOnUse"
       x1="325.71429"
       y1="369.50507"
       x2="325.71429"
       y2="546.64789"
       gradientTransform="matrix(0.1377049,0,0,0.1377049,-20.852457,-45.850258)" />
    <linearGradient
       y2="546.64789"
       x2="325.71429"
       y1="369.50507"
       x1="325.71429"
       gradientTransform="matrix(0.1721311,0,0,0.1735081,-32.065572,-64.011325)"
       gradientUnits="userSpaceOnUse"
       id="linearGradient2771"
       xlink:href="#linearGradient3155"
       inkscape:collect="always" />
    <linearGradient
       inkscape:collect="always"
       xlink:href="#linearGradient3155"
       id="linearGradient2574"
       gradientUnits="userSpaceOnUse"
       gradientTransform="matrix(0.1721311,0,0,0.1735081,-64.317524,-43.769445)"
       x1="325.71429"
       y1="369.50507"
       x2="325.71429"
       y2="546.64789" />
    <linearGradient
       inkscape:collect="always"
       xlink:href="#linearGradient3155"
       id="linearGradient2591"
       gradientUnits="userSpaceOnUse"
       gradientTransform="matrix(0.1377049,0,0,0.1377049,29.147543,-45.850258)"
       x1="325.71429"
       y1="369.50507"
       x2="325.71429"
       y2="546.64789" />
    <linearGradient
       inkscape:collect="always"
       xlink:href="#linearGradient3155"
       id="linearGradient2594"
       gradientUnits="userSpaceOnUse"
       gradientTransform="matrix(0.1377049,0,0,0.1377049,-20.852457,-45.850258)"
       x1="325.71429"
       y1="369.50507"
       x2="325.71429"
       y2="546.64789" />
  </defs>
  <sodipodi:namedview
     id="base"
     pagecolor="#ffffff"
     bordercolor="#666"
     borderopacity="0.31372549"
     inkscape:pageopacity="0.0"
     inkscape:pageshadow="2"
     inkscape:zoom="5.656854"
     inkscape:cx="37.533214"
     inkscape:cy="19.31447"
     inkscape:current-layer="layer1"
     showgrid="true"
     inkscape:grid-bbox="true"
     inkscape:document-units="px"
     inkscape:window-width="1019"
     inkscape:window-height="732"
     inkscape:window-x="308"
     inkscape:window-y="70"
     inkscape:showpageshadow="false" />
  <metadata
     id="metadata4294">
    <rdf:RDF>
      <cc:Work
         rdf:about="">
        <dc:format>image/svg+xml</dc:format>
        <dc:type
           rdf:resource="http://purl.org/dc/dcmitype/StillImage" />
        <dc:title>System Preferences</dc:title>
        <dc:creator>
          <cc:Agent>
            <dc:title>Andreas Nilsson</dc:title>
          </cc:Agent>
        </dc:creator>
        <dc:subject>
          <rdf:Bag>
            <rdf:li>category</rdf:li>
            <rdf:li>system</rdf:li>
            <rdf:li>preferences</rdf:li>
            <rdf:li>settings</rdf:li>
            <rdf:li>control center</rdf:li>
          </rdf:Bag>
        </dc:subject>
        <dc:contributor>
          <cc:Agent>
            <dc:title>Jakub Steiner</dc:title>
          </cc:Agent>
        </dc:contributor>
        <cc:license
           rdf:resource="http://creativecommons.org/licenses/GPL/2.0/" />
      </cc:Work>
      <cc:License
         rdf:about="http://creativecommons.org/licenses/GPL/2.0/">
        <cc:permits
           rdf:resource="http://web.resource.org/cc/Reproduction" />
        <cc:permits
           rdf:resource="http://web.resource.org/cc/Distribution" />
        <cc:requires
           rdf:resource="http://web.resource.org/cc/Notice" />
        <cc:permits
           rdf:resource="http://web.resource.org/cc/DerivativeWorks" />
        <cc:requires
           rdf:resource="http://web.resource.org/cc/ShareAlike" />
        <cc:requires
           rdf:resource="http://web.resource.org/cc/SourceCode" />
      </cc:License>
    </rdf:RDF>
  </metadata>
  <g
     id="layer1"
     inkscape:label="Layer 1"
     inkscape:groupmode="layer">
    <g
       id="g2453"
       inkscape:label="Calque 1"
       transform="matrix(0.1337942,0,0,0.1337942,-18.472238,-41.04701)" />
    <g
       id="g2569"
       inkscape:label="Calque 1"
       transform="matrix(0.1337942,0,0,0.1337942,-50.72419,-20.80513)" />
    <path
       style="fill:#000000;fill-opacity:1;fill-rule:evenodd;stroke:none;stroke-width:1px;stroke-linecap:butt;stroke-linejoin:miter;stroke-opacity:1"
       d="M 19.875,8.25 C 18.105319,8.249999 15.6875,8.77452 15.6875,11.625 L 15.6875,14.5625 L 6.96875,14.5625 C 5.28838,14.562501 3.999999,15.932536 4,17.65625 L 4,20.53125 L 4,22.75 L 11,22.75 L 11,22 C 11,21.3075 11.666482,20.75 12.5,20.75 L 14.5,20.75 C 15.333518,20.75 16,21.3075 16,22 L 16,22.75 L 32,22.75 L 32,22 C 32,21.3075 32.666482,20.75 33.5,20.75 L 35.5,20.75 C 36.333518,20.75 37,21.3075 37,22 L 37,22.75 L 44,22.75 L 44,20.53125 L 44,17.65625 C 44,15.932536 42.680375,14.5625 41,14.5625 L 32.375,14.5625 L 32.375,11.625 C 32.375001,9.617093 30.806222,8.25 28.1875,8.25 L 26.125,8.25 L 24,8.25 L 21.9375,8.25 L 19.875,8.25 z M 21.125,10.8125 L 24,10.8125 L 26.9375,10.8125 C 28.485042,10.8125 29.875,11.638492 29.875,12.9375 L 29.875,14.5625 L 18.1875,14.5625 L 18.1875,12.9375 C 18.1875,11.63849 18.695401,10.8125 21.125,10.8125 z M 4,24.75 L 4,33.75 L 4,36.625 C 3.999999,38.34871 5.28838,39.75 6.96875,39.75 L 41,39.75 C 42.680374,39.75 44,38.348713 44,36.625 L 44,33.75 L 44,24.75 L 37,24.75 L 37,25.5 C 37,26.1925 36.333518,26.75 35.5,26.75 L 33.5,26.75 C 32.666482,26.75 32,26.1925 32,25.5 L 32,24.75 L 16,24.75 L 16,25.5 C 16,26.1925 15.333518,26.75 14.5,26.75 L 12.5,26.75 C 11.666482,26.75 11,26.1925 11,25.5 L 11,24.75 L 4,24.75 z"
       id="rect3314" />
    <path
       style="fill:url(#linearGradient2594);fill-opacity:1"
       d="M 19.875,8.25 C 18.105319,8.249999 15.6875,8.77452 15.6875,11.625 L 15.6875,14.5625 L 6.96875,14.5625 C 5.28838,14.562501 3.999999,15.932536 4,17.65625 L 4,20.53125 L 4,22.75 L 11,22.75 L 11,22 C 11,21.3075 11.666482,20.75 12.5,20.75 L 14.5,20.75 C 15.333518,20.75 16,21.3075 16,22 L 16,22.75 L 32,22.75 L 32,22 C 32,21.3075 32.666482,20.75 33.5,20.75 L 35.5,20.75 C 36.333518,20.75 37,21.3075 37,22 L 37,22.75 L 44,22.75 L 44,20.53125 L 44,17.65625 C 44,15.932536 42.680375,14.5625 41,14.5625 L 32.375,14.5625 L 32.375,11.625 C 32.375001,9.617093 30.806222,8.25 28.1875,8.25 L 26.125,8.25 L 24,8.25 L 21.9375,8.25 L 19.875,8.25 z M 21.125,10.8125 L 24,10.8125 L 26.9375,10.8125 C 28.485042,10.8125 29.875,11.638492 29.875,12.9375 L 29.875,14.5625 L 18.1875,14.5625 L 18.1875,12.9375 C 18.1875,11.63849 18.695401,10.8125 21.125,10.8125 z M 5.125,24.75 C 9.519959,27.601456 16.335739,29.4375 24,29.4375 C 31.664261,29.4375 38.480041,27.601456 42.875,24.75 L 37,24.75 L 37,25.5 C 37,26.1925 36.333518,26.75 35.5,26.75 L 33.5,26.75 C 32.666482,26.75 32,26.1925 32,25.5 L 32,24.75 L 16,24.75 L 16,25.5 C 16,26.1925 15.333518,26.75 14.5,26.75 L 12.5,26.75 C 11.666482,26.75 11,26.1925 11,25.5 L 11,24.75 L 5.125,24.75 z"
       id="path2587" />
  </g>
</svg>
