<?xml version="1.0" encoding="UTF-8" standalone="no"?>
<!-- Created with Inkscape (http://www.inkscape.org/) -->

<svg
   xmlns:dc="http://purl.org/dc/elements/1.1/"
   xmlns:cc="http://creativecommons.org/ns#"
   xmlns:rdf="http://www.w3.org/1999/02/22-rdf-syntax-ns#"
   xmlns:svg="http://www.w3.org/2000/svg"
   xmlns="http://www.w3.org/2000/svg"
   xmlns:xlink="http://www.w3.org/1999/xlink"
   xmlns:sodipodi="http://sodipodi.sourceforge.net/DTD/sodipodi-0.dtd"
   xmlns:inkscape="http://www.inkscape.org/namespaces/inkscape"
   width="48px"
   height="48px"
   id="svg3738"
   version="1.1"
   inkscape:version="0.47 r22583"
   sodipodi:docname="Nouveau document 3">
  <defs
     id="defs3740">
    <linearGradient
       inkscape:collect="always"
       xlink:href="#linearGradient3172"
       id="linearGradient3736"
       gradientUnits="userSpaceOnUse"
       gradientTransform="matrix(0.64484366,0,0,1.1830191,9.2415322,4.0215816)"
       x1="22.892584"
       y1="0.90414524"
       x2="22.892584"
       y2="21.132059" />
    <linearGradient
       id="linearGradient3172">
      <stop
         id="stop3174"
         offset="0"
         style="stop-color:#4d4d4d;stop-opacity:1;" />
      <stop
         id="stop3176"
         offset="1"
         style="stop-color:#4d4d4d;stop-opacity:0;" />
    </linearGradient>
  </defs>
  <sodipodi:namedview
     id="base"
     pagecolor="#ffffff"
     bordercolor="#666666"
     borderopacity="1.0"
     inkscape:pageopacity="0.0"
     inkscape:pageshadow="2"
     inkscape:zoom="7"
     inkscape:cx="24"
     inkscape:cy="24"
     inkscape:current-layer="layer1"
     showgrid="true"
     inkscape:grid-bbox="true"
     inkscape:document-units="px"
     inkscape:window-width="1364"
     inkscape:window-height="721"
     inkscape:window-x="0"
     inkscape:window-y="23"
     inkscape:window-maximized="1" />
  <metadata
     id="metadata3743">
    <rdf:RDF>
      <cc:Work
         rdf:about="">
        <dc:format>image/svg+xml</dc:format>
        <dc:type
           rdf:resource="http://purl.org/dc/dcmitype/StillImage" />
        <dc:title></dc:title>
      </cc:Work>
    </rdf:RDF>
  </metadata>
  <g
     id="layer1"
     inkscape:label="Layer 1"
     inkscape:groupmode="layer">
    <path
       style="font-size:medium;font-style:normal;font-variant:normal;font-weight:normal;font-stretch:normal;text-indent:0;text-align:start;text-decoration:none;line-height:normal;letter-spacing:normal;word-spacing:normal;text-transform:none;direction:ltr;block-progression:tb;writing-mode:lr-tb;text-anchor:start;color:#000000;fill:#000000;fill-opacity:1;fill-rule:nonzero;stroke:none;stroke-width:1.73974371;marker:none;visibility:visible;display:inline;overflow:visible;enable-background:accumulate;font-family:Bitstream Charter;-inkscape-font-specification:Bitstream Charter"
       d="m 34.845118,4.0954906 c -2.457741,0.03277 -4.885256,1.060337 -6.623785,2.968205 -1.912483,2.097734 -2.709464,5.0090444 -2.187099,7.8110664 -0.02361,0.293317 -1.502042,2.45017 -2.811984,4.342953 l 1.218527,1.218527 c 1.621872,-0.491609 3.443207,-0.335954 4.749128,0.968572 l 1.780924,1.780923 c 1.114004,-0.595793 2.013263,-1.081998 2.218342,-1.062305 0,0 0.272169,0.03259 0.499909,0.06249 1.375332,0.193671 2.283454,0.176054 3.561846,-0.21871 2.36479,-0.889213 3.99714,-1.955102 5.217793,-3.905533 0.913615,-1.333464 1.458762,-2.924175 1.530969,-4.780373 -0.01027,-0.222309 -0.12927,-0.405515 -0.312443,-0.531153 -0.211265,-0.145443 -0.4885,-0.174677 -0.718618,-0.06249 0,0 -5.187226,2.522615 -5.655212,2.749495 -0.04437,-0.05481 -2.368433,-2.954334 -2.530786,-3.155671 0.01416,-0.227729 0.139304,-2.5433604 0.156221,-2.8119844 0.723026,-0.527245 4.311709,-3.155671 4.311709,-3.155671 0.194072,-0.141634 0.324421,-0.365464 0.312443,-0.624885 -0.0179,-0.248062 -0.154329,-0.44707 -0.374931,-0.562397 -1.373657,-0.718614 -2.868308,-1.050727 -4.342953,-1.03106 z M 7.1314542,4.8765966 c -0.09467,0.01181 -0.179884,0.05584 -0.249954,0.124977 l -1.874656,1.874656 c -0.138284,0.140141 -0.139037,0.366404 -0.03124,0.531153 l 2.905717,4.2804644 c 0.05954,0.0803 0.152932,0.16339 0.249954,0.187466 l 1.68719,0.43742 11.6541108,11.685355 c -0.71464,1.439441 -0.577754,3.204088 0.624885,4.405442 l 13.591256,13.560011 c 0.759445,0.758634 1.728338,1.153539 2.718251,1.156038 0.993908,0.0025 1.988926,-0.403776 2.749495,-1.156038 l 0.812351,-0.812351 c 1.521218,-1.504605 1.547299,-3.92207 0.03124,-5.436502 L 28.408799,22.123432 C 27.203215,20.919137 25.45369,20.785553 24.003357,21.498547 L 12.318003,9.8131906 11.849339,8.1260006 c -0.02408,-0.09702 -0.07592,-0.159171 -0.156222,-0.21871 L 7.4126532,4.9390856 c -0.08237,-0.0539 -0.186522,-0.0743 -0.281199,-0.06249 z M 19.19174,23.06076 C 15.191003,26.695905 6.3758002,34.707585 5.1318212,36.120863 c -0.785173,0.892723 -1.191171,2.068234 -1.124793,3.280648 0.06932,1.260556 0.621524,2.424741 1.562213,3.280648 0.955062,0.869012 2.164632,1.269507 3.343137,1.218527 1.1785038,-0.05098 2.3259458,-0.553451 3.1556698,-1.499725 L 22.659854,30.340674 21.441327,29.122148 C 20.133956,27.816174 20.007334,25.995217 20.503999,24.373019 L 19.19174,23.06076 z M 8.5374462,37.714321 c 0.369597,-0.01797 0.76647,0.133046 1.062305,0.406176 0.295869,0.273841 0.4498078,0.622346 0.4686638,0.999816 0.01887,0.377468 -0.1074188,0.761006 -0.3749308,1.062305 -0.334846,0.376421 -0.815626,0.537941 -1.281015,0.468664 -0.279231,-0.04156 -0.559325,-0.169275 -0.781106,-0.374931 -0.590332,-0.548107 -0.628468,-1.460968 -0.09373,-2.062122 0.267366,-0.300575 0.63022,-0.481941 0.999816,-0.499908 z"
       id="rect5288" />
    <path
       style="fill:url(#linearGradient3736);fill-opacity:1;stroke:none"
       d="m 24.003669,29.656791 c -0.223008,0 -0.434576,-0.02806 -0.656129,-0.03124 L 22.097769,28.40702 C 20.89513,27.205667 20.758244,25.441019 21.472884,24.001579 L 9.8187732,12.316223 l -1.68719,-0.43742 c -0.09702,-0.02407 -0.190415,-0.10717 -0.249954,-0.187465 L 4.9759122,7.4108726 c -0.107793,-0.164749 -0.10704,-0.391011 0.03124,-0.531152 l 1.874656,-1.874656 c 0.07007,-0.06914 0.155282,-0.11317 0.249954,-0.124977 0.09467,-0.01181 0.198824,0.0086 0.281199,0.06249 l 4.2804638,2.968205 c 0.0803,0.05954 0.132146,0.121688 0.156221,0.21871 l 0.468664,1.687191 11.685355,11.6853554 c 1.450333,-0.712994 3.199858,-0.579409 4.405442,0.624886 l 6.217609,6.217609 c -3.204864,0.83718 -6.806252,1.312259 -10.623051,1.312259 z m -2.437053,-0.06249 c -2.899975,-0.155442 -5.652839,-0.598457 -8.154752,-1.24977 2.099958,-1.921413 4.346683,-3.977773 5.780188,-5.280281 l 1.312259,1.312259 c -0.496665,1.622197 -0.370043,3.443155 0.937328,4.749128 l 0.468664,0.468664 c -0.114101,-0.0053 -0.230048,0.0061 -0.343687,0 z m 9.404524,-6.405074 -1.780923,-1.780924 c -1.305921,-1.304525 -3.127256,-1.460181 -4.749128,-0.968572 l -1.218527,-1.218526 c 1.309942,-1.892784 2.788369,-4.049637 2.811984,-4.342953 -0.522365,-2.802023 0.274616,-5.7133334 2.187099,-7.8110674 1.738529,-1.907868 4.166044,-2.935431 6.623785,-2.968205 1.474645,-0.01967 2.969296,0.312447 4.342953,1.031061 0.220602,0.115326 0.357034,0.314334 0.374931,0.562396 0.01198,0.259422 -0.118372,0.483252 -0.312443,0.624886 0,0 -3.588683,2.628425 -4.311709,3.155671 -0.01692,0.268623 -0.142064,2.5842544 -0.156221,2.8119844 0.162353,0.201337 2.486414,3.100861 2.530786,3.155671 0.467986,-0.226881 5.655212,-2.749496 5.655212,-2.749496 0.230118,-0.112188 0.507353,-0.08296 0.718618,0.06249 0.183173,0.125638 0.302174,0.308843 0.312443,0.531152 -0.07221,1.856199 -0.617354,3.44691 -1.53097,4.780373 -1.220653,1.950431 -2.853002,3.01632 -5.217792,3.905533 -1.278392,0.394765 -2.186514,0.412382 -3.561846,0.21871 -0.227741,-0.02989 -0.499909,-0.06249 -0.499909,-0.06249 -0.205079,-0.0197 -1.104338,0.466511 -2.218343,1.062305 z"
       id="path3721" />
  </g>
</svg>
