<?xml version="1.0" encoding="UTF-8" standalone="no"?>
<!-- Created with Inkscape (http://www.inkscape.org/) -->
<svg
   xmlns:dc="http://purl.org/dc/elements/1.1/"
   xmlns:cc="http://creativecommons.org/ns#"
   xmlns:rdf="http://www.w3.org/1999/02/22-rdf-syntax-ns#"
   xmlns:svg="http://www.w3.org/2000/svg"
   xmlns="http://www.w3.org/2000/svg"
   xmlns:xlink="http://www.w3.org/1999/xlink"
   xmlns:sodipodi="http://sodipodi.sourceforge.net/DTD/sodipodi-0.dtd"
   xmlns:inkscape="http://www.inkscape.org/namespaces/inkscape"
   width="48px"
   height="48px"
   id="svg4289"
   sodipodi:version="0.32"
   inkscape:version="0.46"
   sodipodi:docbase="/home/lapo/Icone/cvs/gnome-icon-theme/scalable/categories"
   sodipodi:docname="access.svg"
   inkscape:output_extension="org.inkscape.output.svg.inkscape">
  <defs
     id="defs4291">
    <linearGradient
       id="linearGradient3155"
       inkscape:collect="always">
      <stop
         id="stop3157"
         offset="0"
         style="stop-color:#4d4d4d;stop-opacity:1;" />
      <stop
         id="stop3159"
         offset="1"
         style="stop-color:#4d4d4d;stop-opacity:0;" />
    </linearGradient>
    <linearGradient
       inkscape:collect="always"
       xlink:href="#linearGradient3155"
       id="linearGradient3356"
       gradientUnits="userSpaceOnUse"
       gradientTransform="matrix(0.1721311,0,0,0.1721311,-32.065571,-63.312822)"
       x1="325.71429"
       y1="369.50507"
       x2="325.71429"
       y2="546.64789" />
  </defs>
  <sodipodi:namedview
     id="base"
     pagecolor="#ffffff"
     bordercolor="#666"
     borderopacity="0.31372549"
     inkscape:pageopacity="0.0"
     inkscape:pageshadow="2"
     inkscape:zoom="5.656854"
     inkscape:cx="37.838038"
     inkscape:cy="16.200279"
     inkscape:current-layer="layer1"
     showgrid="true"
     inkscape:grid-bbox="true"
     inkscape:document-units="px"
     inkscape:window-width="1019"
     inkscape:window-height="732"
     inkscape:window-x="259"
     inkscape:window-y="24"
     inkscape:showpageshadow="false" />
  <metadata
     id="metadata4294">
    <rdf:RDF>
      <cc:Work
         rdf:about="">
        <dc:format>image/svg+xml</dc:format>
        <dc:type
           rdf:resource="http://purl.org/dc/dcmitype/StillImage" />
        <dc:title>System Preferences</dc:title>
        <dc:creator>
          <cc:Agent>
            <dc:title>Andreas Nilsson</dc:title>
          </cc:Agent>
        </dc:creator>
        <dc:subject>
          <rdf:Bag>
            <rdf:li>category</rdf:li>
            <rdf:li>system</rdf:li>
            <rdf:li>preferences</rdf:li>
            <rdf:li>settings</rdf:li>
            <rdf:li>control center</rdf:li>
          </rdf:Bag>
        </dc:subject>
        <dc:contributor>
          <cc:Agent>
            <dc:title>Jakub Steiner</dc:title>
          </cc:Agent>
        </dc:contributor>
        <cc:license
           rdf:resource="http://creativecommons.org/licenses/GPL/2.0/" />
      </cc:Work>
      <cc:License
         rdf:about="http://creativecommons.org/licenses/GPL/2.0/">
        <cc:permits
           rdf:resource="http://web.resource.org/cc/Reproduction" />
        <cc:permits
           rdf:resource="http://web.resource.org/cc/Distribution" />
        <cc:requires
           rdf:resource="http://web.resource.org/cc/Notice" />
        <cc:permits
           rdf:resource="http://web.resource.org/cc/DerivativeWorks" />
        <cc:requires
           rdf:resource="http://web.resource.org/cc/ShareAlike" />
        <cc:requires
           rdf:resource="http://web.resource.org/cc/SourceCode" />
      </cc:License>
    </rdf:RDF>
  </metadata>
  <g
     id="layer1"
     inkscape:label="Layer 1"
     inkscape:groupmode="layer">
    <g
       id="g2453"
       inkscape:label="Calque 1"
       transform="matrix(0.1337942,0,0,0.1337942,-18.472238,-41.04701)" />
    <path
       style="fill:#000000;fill-opacity:1;stroke:none;stroke-width:0.84533012;stroke-linecap:round;stroke-linejoin:miter;stroke-miterlimit:4;stroke-dasharray:none;stroke-opacity:1"
       d="M 21.549544,4 C 18.836549,4 16.634139,6.1298738 16.634139,8.7535213 L 16.634139,29.246479 C 16.643972,29.49524 16.850241,29.694715 17.107475,29.704225 L 27.739312,29.704225 L 34.475237,36.253521 C 34.632155,36.398592 34.868789,36.427197 35.057805,36.323944 L 40.009619,33.507043 C 40.235641,33.37673 40.315814,33.097616 40.191671,32.87324 L 38.662434,30.478874 C 38.527684,30.260295 38.239065,30.182763 38.007047,30.302818 L 35.895244,31.5 L 29.268549,25.12676 C 29.172576,25.033094 29.040741,24.982098 28.904445,24.985915 L 21.513132,24.985915 L 21.513132,23.049296 L 27.957775,23.049296 C 28.215006,23.039786 28.421276,22.84031 28.43111,22.591549 L 28.43111,18.753521 C 28.421276,18.50476 28.215006,18.305285 27.957775,18.295775 L 21.513132,18.295775 L 21.585954,13.471831 C 22.920017,13.36631 24.122967,12.976537 24.972122,12.239436 C 25.932939,11.405409 26.464947,10.163632 26.464947,8.7535213 C 26.46495,5.9457225 24.234139,4 21.549544,4 z M 15.651057,19.880281 L 14.92285,20.267606 C 10.674679,22.36757 7.75,26.5775 7.75,31.429578 C 7.749999,38.379966 13.711317,44.000002 21.039797,44 C 25.882259,43.999997 30.147965,41.548656 32.472666,37.87324 L 32.654717,37.556337 L 32.399845,37.274647 L 29.450601,34.492958 L 28.977266,34 L 28.649572,34.633803 C 27.343775,37.394082 24.452256,39.316901 21.039797,39.316901 C 16.40739,39.316902 12.665405,35.795663 12.665405,31.429578 C 12.665404,29.093521 13.75997,27.000915 15.469006,25.549296 L 15.651057,25.408451 L 15.651057,25.197183 L 15.651057,20.690141 L 15.651057,19.880281 z"
       id="path6720" />
    <path
       style="fill:url(#linearGradient3356);fill-opacity:1"
       d="M 21.539687,4 C 18.826692,4 16.617812,6.1419775 16.617812,8.765625 L 16.617812,29.234375 C 16.627651,29.483135 16.868391,29.693615 17.125625,29.703125 L 27.750625,29.703125 L 28.649062,30.601563 C 30.5617,30.448634 32.420879,30.187559 34.195937,29.859375 L 29.274062,25.132813 C 29.178094,25.039148 29.058796,24.972745 28.9225,24.976563 L 21.500625,24.976563 L 21.500625,23.0625 L 27.945937,23.0625 C 28.203166,23.05299 28.404854,22.842511 28.414687,22.59375 L 28.414687,18.765625 C 28.40485,18.516865 28.203169,18.306385 27.945937,18.296875 L 21.500625,18.296875 L 21.57875,13.453125 C 22.912812,13.347604 24.128032,12.979289 24.977187,12.242187 C 25.938007,11.40816 26.461562,10.175736 26.461562,8.765625 C 26.46157,5.9578259 24.224282,4 21.539687,4 z M 15.64125,19.898438 L 14.938125,20.25 C 11.587902,21.906086 9.059889,24.892451 8.14125,28.453125 C 9.63226,28.928513 11.21669,29.326169 12.867812,29.664063 C 13.265886,28.051659 14.222032,26.635238 15.485,25.5625 L 15.64125,25.40625 L 15.64125,25.210938 L 15.64125,20.679688 L 15.64125,19.898438 z"
       id="path3349" />
  </g>
</svg>
