<?xml version="1.0" encoding="UTF-8" standalone="no"?>
<!-- Created with Inkscape (http://www.inkscape.org/) -->
<svg
   xmlns:dc="http://purl.org/dc/elements/1.1/"
   xmlns:cc="http://creativecommons.org/ns#"
   xmlns:rdf="http://www.w3.org/1999/02/22-rdf-syntax-ns#"
   xmlns:svg="http://www.w3.org/2000/svg"
   xmlns="http://www.w3.org/2000/svg"
   xmlns:xlink="http://www.w3.org/1999/xlink"
   xmlns:sodipodi="http://sodipodi.sourceforge.net/DTD/sodipodi-0.dtd"
   xmlns:inkscape="http://www.inkscape.org/namespaces/inkscape"
   width="48px"
   height="48px"
   id="svg4289"
   sodipodi:version="0.32"
   inkscape:version="0.46"
   sodipodi:docbase="/home/lapo/Icone/cvs/gnome-icon-theme/scalable/categories"
   sodipodi:docname="network-workgroup.svg"
   inkscape:output_extension="org.inkscape.output.svg.inkscape">
  <defs
     id="defs4291">
    <linearGradient
       id="linearGradient3155"
       inkscape:collect="always">
      <stop
         id="stop3157"
         offset="0"
         style="stop-color:#4d4d4d;stop-opacity:1;" />
      <stop
         id="stop3159"
         offset="1"
         style="stop-color:#4d4d4d;stop-opacity:0;" />
    </linearGradient>
    <linearGradient
       inkscape:collect="always"
       xlink:href="#linearGradient3155"
       id="linearGradient2454"
       gradientUnits="userSpaceOnUse"
       x1="325.71429"
       y1="369.50507"
       x2="325.71429"
       y2="546.64789"
       gradientTransform="matrix(0.1377049,0,0,0.1377049,-20.852457,-45.850258)" />
    <linearGradient
       gradientTransform="matrix(1.1289635,0,0,1.1289635,-1.7181492,-1.6722533)"
       gradientUnits="userSpaceOnUse"
       y2="38.067001"
       x2="28.242586"
       y1="9.036231"
       x1="28.125526"
       id="linearGradient3648"
       xlink:href="#linearGradient3642"
       inkscape:collect="always" />
    <linearGradient
       gradientTransform="matrix(0.2638633,0,0,0.2638633,13.711783,13.635558)"
       y2="103.95982"
       x2="62.562"
       y1="-18.307281"
       x1="62.562"
       gradientUnits="userSpaceOnUse"
       id="linearGradient3474"
       xlink:href="#linearGradient3171"
       inkscape:collect="always" />
    <linearGradient
       gradientTransform="matrix(1.1289635,0,0,1.1289635,-1.7181492,-1.6722533)"
       gradientUnits="userSpaceOnUse"
       y2="37.734375"
       x2="28.90625"
       y1="9.28125"
       x1="28.90625"
       id="linearGradient3471"
       xlink:href="#linearGradient3465"
       inkscape:collect="always" />
    <linearGradient
       inkscape:collect="always"
       id="linearGradient3171">
      <stop
         style="stop-color:#4d4d4d;stop-opacity:1;"
         offset="0"
         id="stop3173" />
      <stop
         style="stop-color:#4d4d4d;stop-opacity:0;"
         offset="1"
         id="stop3175" />
    </linearGradient>
    <linearGradient
       id="linearGradient3465"
       inkscape:collect="always">
      <stop
         id="stop3467"
         offset="0"
         style="stop-color:#4d4d4d;stop-opacity:1;" />
      <stop
         id="stop3469"
         offset="1"
         style="stop-color:#4d4d4d;stop-opacity:0;" />
    </linearGradient>
    <linearGradient
       id="linearGradient3642"
       inkscape:collect="always">
      <stop
         id="stop3644"
         offset="0"
         style="stop-color:#4d4d4d;stop-opacity:1;" />
      <stop
         id="stop3646"
         offset="1"
         style="stop-color:#4d4d4d;stop-opacity:0;" />
    </linearGradient>
    <linearGradient
       inkscape:collect="always"
       xlink:href="#linearGradient3642"
       id="linearGradient2944"
       gradientUnits="userSpaceOnUse"
       gradientTransform="matrix(1.0388222,0,0,1.0421823,12.28988,5.2618068)"
       x1="28.125526"
       y1="9.036231"
       x2="28.242586"
       y2="38.067001" />
    <linearGradient
       inkscape:collect="always"
       xlink:href="#linearGradient3171"
       id="linearGradient2948"
       gradientUnits="userSpaceOnUse"
       gradientTransform="matrix(0.2427953,0,0,0.2435807,26.48782,19.392937)"
       x1="62.562"
       y1="-18.307281"
       x2="62.562"
       y2="103.95982" />
    <linearGradient
       inkscape:collect="always"
       xlink:href="#linearGradient3465"
       id="linearGradient2954"
       gradientUnits="userSpaceOnUse"
       gradientTransform="matrix(1.0388222,0,0,1.0421823,12.28988,5.2618068)"
       x1="28.90625"
       y1="9.28125"
       x2="28.90625"
       y2="37.734375" />
    <linearGradient
       inkscape:collect="always"
       xlink:href="#linearGradient3155"
       id="linearGradient2972"
       gradientUnits="userSpaceOnUse"
       gradientTransform="matrix(0.1377049,0,0,0.1377049,29.147543,-45.850258)"
       x1="325.71429"
       y1="369.50507"
       x2="325.71429"
       y2="546.64789" />
    <linearGradient
       inkscape:collect="always"
       xlink:href="#linearGradient3155"
       id="linearGradient2975"
       gradientUnits="userSpaceOnUse"
       gradientTransform="matrix(0.1377049,0,0,0.1377049,-20.852707,-45.850258)"
       x1="325.71429"
       y1="369.50507"
       x2="325.71429"
       y2="546.64789" />
  </defs>
  <sodipodi:namedview
     id="base"
     pagecolor="#ffffff"
     bordercolor="#666"
     borderopacity="0.31372549"
     inkscape:pageopacity="0.0"
     inkscape:pageshadow="2"
     inkscape:zoom="5.656854"
     inkscape:cx="37.533214"
     inkscape:cy="19.31447"
     inkscape:current-layer="layer1"
     showgrid="true"
     inkscape:grid-bbox="true"
     inkscape:document-units="px"
     inkscape:window-width="1019"
     inkscape:window-height="732"
     inkscape:window-x="259"
     inkscape:window-y="19"
     inkscape:showpageshadow="false" />
  <metadata
     id="metadata4294">
    <rdf:RDF>
      <cc:Work
         rdf:about="">
        <dc:format>image/svg+xml</dc:format>
        <dc:type
           rdf:resource="http://purl.org/dc/dcmitype/StillImage" />
        <dc:title>System Preferences</dc:title>
        <dc:creator>
          <cc:Agent>
            <dc:title>Andreas Nilsson</dc:title>
          </cc:Agent>
        </dc:creator>
        <dc:subject>
          <rdf:Bag>
            <rdf:li>category</rdf:li>
            <rdf:li>system</rdf:li>
            <rdf:li>preferences</rdf:li>
            <rdf:li>settings</rdf:li>
            <rdf:li>control center</rdf:li>
          </rdf:Bag>
        </dc:subject>
        <dc:contributor>
          <cc:Agent>
            <dc:title>Jakub Steiner</dc:title>
          </cc:Agent>
        </dc:contributor>
        <cc:license
           rdf:resource="http://creativecommons.org/licenses/GPL/2.0/" />
      </cc:Work>
      <cc:License
         rdf:about="http://creativecommons.org/licenses/GPL/2.0/">
        <cc:permits
           rdf:resource="http://web.resource.org/cc/Reproduction" />
        <cc:permits
           rdf:resource="http://web.resource.org/cc/Distribution" />
        <cc:requires
           rdf:resource="http://web.resource.org/cc/Notice" />
        <cc:permits
           rdf:resource="http://web.resource.org/cc/DerivativeWorks" />
        <cc:requires
           rdf:resource="http://web.resource.org/cc/ShareAlike" />
        <cc:requires
           rdf:resource="http://web.resource.org/cc/SourceCode" />
      </cc:License>
    </rdf:RDF>
  </metadata>
  <g
     id="layer1"
     inkscape:label="Layer 1"
     inkscape:groupmode="layer">
    <g
       id="g2453"
       inkscape:label="Calque 1"
       transform="matrix(0.1337942,0,0,0.1337942,-18.472238,-41.04701)" />
    <g
       id="g2299"
       inkscape:label="Shadow"
       transform="matrix(0.9201557,0,0,0.923132,-29.358817,18.941868)" />
    <g
       transform="matrix(0.9201557,0,0,0.923132,-29.358817,32.849775)"
       inkscape:label="Shadow"
       id="g2301" />
    <g
       transform="matrix(0.9201557,0,0,0.923132,-29.358817,32.849775)"
       style="display:inline"
       inkscape:label="Lavoro"
       id="g2303" />
    <g
       id="layer3"
       inkscape:label="tastiera"
       style="display:inline"
       transform="matrix(0.9201557,0,0,0.923132,64.497064,6.7741579)">
      <g
         id="g3270"
         inkscape:label="Shadow"
         transform="translate(-54,0.18088)" />
      <g
         transform="translate(-54,15.2469)"
         inkscape:label="Shadow"
         id="g2611" />
      <g
         transform="translate(-54,15.2469)"
         style="display:inline"
         inkscape:label="Lavoro"
         id="g2613" />
    </g>
    <path
       style="fill:#000000;fill-opacity:1;stroke:none;stroke-width:0.5;stroke-linecap:round;stroke-linejoin:miter;stroke-miterlimit:4;stroke-dasharray:none;stroke-dashoffset:0;stroke-opacity:1"
       d="M 7.3125,9 C 6.809489,9 6.40625,9.401611 6.40625,9.90625 L 6.40625,25.625 C 6.406251,26.129638 6.809489,26.562501 7.3125,26.5625 L 14.75,26.5625 L 14.75,28.65625 L 12.84375,28.65625 L 12.84375,28.3125 C 12.84375,27.984631 12.571132,27.6875 12.21875,27.6875 L 4.59375,27.6875 C 4.252825,27.6875 4,27.939222 4,28.28125 L 4,38.375 C 4,38.717029 4.252824,38.999998 4.59375,39 L 9.25,39 L 12.21875,39 L 38.375,39 L 38.375,38.34375 L 35.21875,38.34375 L 35.21875,35.90625 L 42.9375,35.90625 C 43.518407,35.90625 44,35.457786 44,34.875 L 44,16.6875 C 43.999999,16.104712 43.518407,15.625 42.9375,15.625 L 30.5,15.625 L 30.5,9.90625 C 30.500001,9.401611 30.096762,9 29.59375,9 L 7.3125,9 z M 8.6875,10.53125 L 28.34375,10.53125 C 28.786903,10.53125 29.125,10.862909 29.125,11.28125 L 29.125,15.625 L 17.1875,15.625 C 16.606591,15.624999 16.15625,16.104713 16.15625,16.6875 L 16.15625,25.09375 L 8.6875,25.09375 C 8.244348,25.09375 7.875,24.76209 7.875,24.34375 L 7.875,11.28125 C 7.875001,10.862909 8.244349,10.53125 8.6875,10.53125 z M 18.78125,17.40625 L 29.125,17.40625 L 30.5,17.40625 L 41.4375,17.40625 C 41.949279,17.406251 42.375,17.798127 42.375,18.28125 L 42.375,33.34375 C 42.374998,33.826874 41.949279,34.21875 41.4375,34.21875 L 18.78125,34.21875 C 18.269472,34.21875 17.84375,33.826874 17.84375,33.34375 L 17.84375,18.28125 C 17.84375,17.798127 18.269472,17.40625 18.78125,17.40625 z M 12.84375,29.21875 L 16.15625,29.21875 L 16.15625,34.875 C 16.156251,35.457785 16.606592,35.906251 17.1875,35.90625 L 25.78125,35.90625 L 25.78125,38.34375 L 12.8125,38.34375 L 12.84375,29.21875 z"
       id="rect2160" />
    <g
       id="g4139"
       inkscape:label="Shadow"
       transform="matrix(0.9201557,0,0,0.923132,-74.580737,16.44329)" />
    <g
       transform="matrix(0.9201557,0,0,0.923132,-74.580737,30.351197)"
       inkscape:label="Shadow"
       id="g4141" />
    <g
       transform="matrix(0.9201557,0,0,0.923132,-74.580737,30.351197)"
       style="display:inline"
       inkscape:label="Lavoro"
       id="g4143" />
    <g
       id="g4145"
       inkscape:label="tastiera"
       style="display:inline"
       transform="matrix(0.9201557,0,0,0.923132,19.275144,4.2755805)">
      <g
         id="g4147"
         inkscape:label="Shadow"
         transform="translate(-54,0.18088)" />
      <g
         transform="translate(-54,15.2469)"
         inkscape:label="Shadow"
         id="g4149" />
      <g
         transform="translate(-54,15.2469)"
         style="display:inline"
         inkscape:label="Lavoro"
         id="g4151" />
    </g>
    <g
       id="g4307"
       inkscape:label="Shadow"
       transform="matrix(0.9201557,0,0,0.923132,-75.847711,19.285856)" />
    <g
       transform="matrix(0.9201557,0,0,0.923132,-75.847711,33.193762)"
       inkscape:label="Shadow"
       id="g4309" />
    <g
       transform="matrix(0.9201557,0,0,0.923132,-75.847711,33.193762)"
       style="display:inline"
       inkscape:label="Lavoro"
       id="g4311" />
    <g
       id="g4313"
       inkscape:label="tastiera"
       style="display:inline"
       transform="matrix(0.9201557,0,0,0.923132,18.008171,7.1181459)">
      <g
         id="g4315"
         inkscape:label="Shadow"
         transform="translate(-54,0.18088)" />
      <g
         transform="translate(-54,15.2469)"
         inkscape:label="Shadow"
         id="g4317" />
      <g
         transform="translate(-54,15.2469)"
         style="display:inline"
         inkscape:label="Lavoro"
         id="g4319" />
    </g>
    <g
       inkscape:label="Layer 1"
       id="g2911"
       transform="matrix(0.5665619,0,0,0.5683945,-62.64079,52.135078)" />
    <g
       id="g5318"
       transform="matrix(0.4902136,0,0,0.4914365,-60.405257,54.280467)" />
    <path
       style="fill:url(#linearGradient2975);fill-opacity:1"
       d="M 7.31225,9 C 6.809239,9 6.406,9.401611 6.406,9.90625 L 6.406,25.5 C 7.087775,25.875501 7.793715,26.232813 8.56225,26.5625 L 14.74975,26.5625 L 14.74975,28.46875 C 15.748228,28.682231 16.781973,28.856124 17.8435,29 L 17.8435,18.28125 C 17.8435,17.798127 18.269222,17.40625 18.781,17.40625 L 29.12475,17.40625 L 30.49975,17.40625 L 41.43725,17.40625 C 41.949029,17.406251 42.37475,17.798127 42.37475,18.28125 L 42.37475,25.0625 C 42.955672,24.710339 43.498619,24.352952 43.99975,23.96875 L 43.99975,16.6875 C 43.999749,16.104712 43.518157,15.625 42.93725,15.625 L 30.49975,15.625 L 30.49975,9.90625 C 30.499751,9.401611 30.096512,9 29.5935,9 L 7.31225,9 z M 8.68725,10.53125 L 28.3435,10.53125 C 28.786653,10.53125 29.12475,10.862909 29.12475,11.28125 L 29.12475,15.625 L 17.18725,15.625 C 16.606341,15.624999 16.156,16.104713 16.156,16.6875 L 16.156,25.09375 L 8.68725,25.09375 C 8.244098,25.09375 7.87475,24.76209 7.87475,24.34375 L 7.87475,11.28125 C 7.874751,10.862909 8.244099,10.53125 8.68725,10.53125 z M 11.68725,27.6875 C 12.03551,27.794107 12.390316,27.902284 12.74975,28 C 12.643647,27.81201 12.45568,27.6875 12.2185,27.6875 L 11.68725,27.6875 z"
       id="path2968" />
  </g>
</svg>
