<?xml version="1.0" encoding="UTF-8" standalone="no"?>
<!-- Created with Inkscape (http://www.inkscape.org/) -->
<svg
   xmlns:dc="http://purl.org/dc/elements/1.1/"
   xmlns:cc="http://creativecommons.org/ns#"
   xmlns:rdf="http://www.w3.org/1999/02/22-rdf-syntax-ns#"
   xmlns:svg="http://www.w3.org/2000/svg"
   xmlns="http://www.w3.org/2000/svg"
   xmlns:xlink="http://www.w3.org/1999/xlink"
   xmlns:sodipodi="http://sodipodi.sourceforge.net/DTD/sodipodi-0.dtd"
   xmlns:inkscape="http://www.inkscape.org/namespaces/inkscape"
   width="48px"
   height="48px"
   id="svg4289"
   sodipodi:version="0.32"
   inkscape:version="0.46"
   sodipodi:docbase="/home/lapo/Icone/cvs/gnome-icon-theme/scalable/categories"
   sodipodi:docname="battery.svg"
   inkscape:output_extension="org.inkscape.output.svg.inkscape">
  <defs
     id="defs4291">
    <linearGradient
       id="linearGradient3155"
       inkscape:collect="always">
      <stop
         id="stop3157"
         offset="0"
         style="stop-color:#4d4d4d;stop-opacity:1;" />
      <stop
         id="stop3159"
         offset="1"
         style="stop-color:#4d4d4d;stop-opacity:0;" />
    </linearGradient>
    <linearGradient
       inkscape:collect="always"
       xlink:href="#linearGradient3155"
       id="linearGradient2454"
       gradientUnits="userSpaceOnUse"
       x1="325.71429"
       y1="369.50507"
       x2="325.71429"
       y2="546.64789"
       gradientTransform="matrix(0.1377049,0,0,0.1377049,-20.852457,-45.850258)" />
    <linearGradient
       inkscape:collect="always"
       xlink:href="#linearGradient3155"
       id="linearGradient2518"
       gradientUnits="userSpaceOnUse"
       gradientTransform="matrix(0.1377049,0,0,0.1377049,29.147543,-45.850258)"
       x1="325.71429"
       y1="369.50507"
       x2="325.71429"
       y2="546.64789" />
    <linearGradient
       inkscape:collect="always"
       xlink:href="#linearGradient3155"
       id="linearGradient2541"
       gradientUnits="userSpaceOnUse"
       gradientTransform="matrix(0.1377049,0,0,0.1377049,79.147543,-45.850258)"
       x1="325.71429"
       y1="369.50507"
       x2="325.71429"
       y2="546.64789" />
    <linearGradient
       inkscape:collect="always"
       xlink:href="#linearGradient3155"
       id="linearGradient2553"
       gradientUnits="userSpaceOnUse"
       gradientTransform="matrix(0.1377049,0,0,0.1377049,129.14754,-45.850258)"
       x1="325.71429"
       y1="369.50507"
       x2="325.71429"
       y2="546.64789" />
    <linearGradient
       inkscape:collect="always"
       xlink:href="#linearGradient3155"
       id="linearGradient2557"
       gradientUnits="userSpaceOnUse"
       gradientTransform="matrix(0.1377049,0,0,0.1377049,29.14754,-45.850258)"
       x1="325.71429"
       y1="369.50507"
       x2="325.71429"
       y2="546.64789" />
    <linearGradient
       inkscape:collect="always"
       xlink:href="#linearGradient3155"
       id="linearGradient2560"
       gradientUnits="userSpaceOnUse"
       gradientTransform="matrix(0.1377049,0,0,0.1377049,29.147543,-45.850258)"
       x1="325.71429"
       y1="369.50507"
       x2="325.71429"
       y2="546.64789" />
    <linearGradient
       inkscape:collect="always"
       xlink:href="#linearGradient3155"
       id="linearGradient2562"
       gradientUnits="userSpaceOnUse"
       gradientTransform="matrix(0.1377049,0,0,0.1377049,29.147543,-45.850258)"
       x1="325.71429"
       y1="369.50507"
       x2="325.71429"
       y2="546.64789" />
    <linearGradient
       inkscape:collect="always"
       xlink:href="#linearGradient3155"
       id="linearGradient2565"
       gradientUnits="userSpaceOnUse"
       gradientTransform="matrix(0.1377049,0,0,0.1377049,29.147543,-45.850258)"
       x1="325.71429"
       y1="369.50507"
       x2="325.71429"
       y2="546.64789" />
    <linearGradient
       inkscape:collect="always"
       xlink:href="#linearGradient3155"
       id="linearGradient2568"
       gradientUnits="userSpaceOnUse"
       gradientTransform="matrix(0.1377049,0,0,0.1377049,-20.852457,-45.850258)"
       x1="325.71429"
       y1="369.50507"
       x2="325.71429"
       y2="546.64789" />
  </defs>
  <sodipodi:namedview
     id="base"
     pagecolor="#ffffff"
     bordercolor="#666"
     borderopacity="0.31372549"
     inkscape:pageopacity="0.0"
     inkscape:pageshadow="2"
     inkscape:zoom="5.656854"
     inkscape:cx="35.067149"
     inkscape:cy="19.31447"
     inkscape:current-layer="layer1"
     showgrid="true"
     inkscape:grid-bbox="true"
     inkscape:document-units="px"
     inkscape:window-width="1019"
     inkscape:window-height="732"
     inkscape:window-x="259"
     inkscape:window-y="19"
     inkscape:showpageshadow="false" />
  <metadata
     id="metadata4294">
    <rdf:RDF>
      <cc:Work
         rdf:about="">
        <dc:format>image/svg+xml</dc:format>
        <dc:type
           rdf:resource="http://purl.org/dc/dcmitype/StillImage" />
        <dc:title>System Preferences</dc:title>
        <dc:creator>
          <cc:Agent>
            <dc:title>Andreas Nilsson</dc:title>
          </cc:Agent>
        </dc:creator>
        <dc:subject>
          <rdf:Bag>
            <rdf:li>category</rdf:li>
            <rdf:li>system</rdf:li>
            <rdf:li>preferences</rdf:li>
            <rdf:li>settings</rdf:li>
            <rdf:li>control center</rdf:li>
          </rdf:Bag>
        </dc:subject>
        <dc:contributor>
          <cc:Agent>
            <dc:title>Jakub Steiner</dc:title>
          </cc:Agent>
        </dc:contributor>
        <cc:license
           rdf:resource="http://creativecommons.org/licenses/GPL/2.0/" />
      </cc:Work>
      <cc:License
         rdf:about="http://creativecommons.org/licenses/GPL/2.0/">
        <cc:permits
           rdf:resource="http://web.resource.org/cc/Reproduction" />
        <cc:permits
           rdf:resource="http://web.resource.org/cc/Distribution" />
        <cc:requires
           rdf:resource="http://web.resource.org/cc/Notice" />
        <cc:permits
           rdf:resource="http://web.resource.org/cc/DerivativeWorks" />
        <cc:requires
           rdf:resource="http://web.resource.org/cc/ShareAlike" />
        <cc:requires
           rdf:resource="http://web.resource.org/cc/SourceCode" />
      </cc:License>
    </rdf:RDF>
  </metadata>
  <g
     id="layer1"
     inkscape:label="Layer 1"
     inkscape:groupmode="layer">
    <g
       id="g2453"
       inkscape:label="Calque 1"
       transform="matrix(0.1337942,0,0,0.1337942,-18.472238,-41.04701)" />
    <g
       inkscape:label="Layer 1"
       id="g2478">
      <g
         transform="matrix(0.1337942,0,0,0.1337942,-18.472238,-41.04701)"
         inkscape:label="Calque 1"
         id="g2480" />
      <g
         inkscape:label="Emblem"
         id="g4438"
         transform="translate(-97.856155,-41.263546)" />
      <g
         transform="translate(-107.26937,-40.105904)"
         id="g3830"
         inkscape:label="Emblem" />
      <path
         id="path3832"
         d="M 20.727218,4.0000001 C 19.954491,4.0155183 19.291008,4.4233873 18.884293,4.9119462 C 18.477577,5.4005051 18.25074,5.9782444 18.248801,6.5786063 L 18.248801,7.459106 L 14.91247,7.459106 C 12.611698,7.459106 10.75,9.3299476 10.75,11.610033 L 10.75,39.848916 C 10.75,42.106594 12.577526,43.964101 14.848921,43.999843 C 14.871464,44.000197 14.889907,43.999841 14.91247,43.999843 L 33.08753,43.999843 C 35.388303,43.999843 37.249999,42.129001 37.25,39.848916 L 37.25,11.610033 C 37.25,9.3299468 35.388302,7.459106 33.08753,7.459106 L 29.910072,7.459106 L 29.910072,6.4842671 L 29.910072,6.4528207 C 29.87217,5.1704547 28.861586,4.0522595 27.495204,4.0628929 L 20.727218,4.0000001 z M 20.758993,6.0125708 L 27.495204,6.0440172 C 27.677959,6.0425951 27.901012,6.2700293 27.908273,6.5157135 L 27.908273,8.4653914 L 27.908273,9.4716767 L 28.92506,9.4716767 L 33.08753,9.4716767 C 34.302536,9.4716767 35.248202,10.394739 35.248202,11.610033 L 35.248202,39.848916 C 35.248201,41.064208 34.302535,42.018719 33.08753,42.018719 L 14.91247,42.018719 C 14.900478,42.018718 14.892571,42.018906 14.880695,42.018719 C 13.684411,41.999894 12.751798,41.052268 12.751798,39.848916 L 12.751798,11.610033 C 12.751798,10.394738 13.697466,9.4716767 14.91247,9.4716767 L 19.233813,9.4716767 L 20.218825,9.4716767 L 20.2506,8.4968378 L 20.282374,6.5786063 C 20.282667,6.4878703 20.344886,6.2855553 20.441247,6.1698029 C 20.537609,6.0540505 20.598539,6.0157931 20.758993,6.0125708 z"
         style="fill:#000000;fill-opacity:1;stroke:none;stroke-width:1.98057437;stroke-linecap:round;stroke-miterlimit:4;stroke-opacity:1" />
      <path
         sodipodi:nodetypes="ccccccc"
         id="path3834"
         d="M 33.508961,31.663795 L 33.508961,37.921903 C 33.508961,39.544635 32.802312,40.401557 31.527342,40.401557 L 16.328421,40.382276 C 14.965158,40.382276 14.308541,39.651966 14.308541,37.84478 L 14.308541,31.74092 L 33.508961,31.663795 z"
         style="fill:#000000;fill-opacity:1;stroke:none;stroke-width:2;stroke-linecap:round;stroke-miterlimit:4;stroke-opacity:1" />
      <rect
         transform="scale(1,-1)"
         ry="0"
         rx="0"
         y="-30.117836"
         x="14.323517"
         height="8.7377615"
         width="19.157032"
         id="rect3836"
         style="fill:#000000;fill-opacity:1;stroke:none;stroke-width:2.5;stroke-linecap:round;stroke-miterlimit:4;stroke-dasharray:none;stroke-opacity:1" />
      <path
         sodipodi:nodetypes="ccccccc"
         id="path3838"
         d="M 33.553859,19.823163 L 33.553859,13.565053 C 33.553859,11.942322 32.847212,11.085401 31.572244,11.085401 L 16.37332,11.104684 C 15.010057,11.104684 14.35344,11.834992 14.35344,13.642178 L 14.35344,19.746036 L 33.553859,19.823163 z"
         style="fill:#000000;fill-opacity:1;stroke:none;stroke-width:2;stroke-linecap:round;stroke-miterlimit:4;stroke-opacity:1" />
      <g
         inkscape:label="Emblem"
         id="g3840"
         transform="translate(-53.276554,-8.4645235)" />
      <g
         transform="translate(-134.6637,-42.225014)"
         id="g4285"
         inkscape:label="Emblem" />
      <g
         inkscape:label="Emblem"
         id="g4306"
         transform="translate(-80.670879,-10.583634)" />
      <g
         transform="translate(-43.863335,-9.6221659)"
         id="layer2"
         inkscape:label="Emblem" />
    </g>
    <path
       style="fill:url(#linearGradient2568);fill-opacity:1"
       d="M 20.71875,4 C 19.94602,4.0155183 19.28172,4.4176911 18.875,4.90625 C 18.46829,5.3948088 18.25194,5.9933881 18.25,6.59375 L 18.25,7.46875 L 14.90625,7.46875 C 12.60547,7.46875 10.75,9.3449146 10.75,11.625 L 10.75,27.40625 C 11.38741,27.621771 12.07189,27.815649 12.75,28 L 12.75,11.625 C 12.75,10.409705 13.69125,9.46875 14.90625,9.46875 L 19.21875,9.46875 L 20.21875,9.46875 L 20.25,8.5 L 20.28125,6.59375 C 20.28156,6.5030142 20.34114,6.2720024 20.4375,6.15625 C 20.53386,6.0404978 20.58955,6.0032223 20.75,6 L 27.5,6.03125 C 27.68277,6.0298278 27.89899,6.2855658 27.90625,6.53125 L 27.90625,8.46875 L 27.90625,9.46875 L 28.9375,9.46875 L 33.09375,9.46875 C 34.30877,9.4687499 35.25,10.409706 35.25,11.625 L 35.25,28 C 35.92811,27.815649 36.61259,27.621771 37.25,27.40625 L 37.25,11.625 C 37.25,9.3449138 35.39452,7.46875 33.09375,7.46875 L 29.90625,7.46875 L 29.90625,6.46875 L 29.90625,6.4375 C 29.86836,5.1551339 28.86639,4.0518666 27.5,4.0625 L 20.71875,4 z M 16.375,11.09375 C 15.011735,11.09375 14.34375,11.849064 14.34375,13.65625 L 14.34375,19.75 L 33.5625,19.8125 L 33.5625,13.5625 C 33.562503,11.939769 32.837468,11.09375 31.5625,11.09375 L 16.375,11.09375 z M 14.3125,21.375 L 14.3125,28.375 C 17.28173,29.046195 20.54472,29.4375 24,29.4375 C 27.36799,29.4375 30.55904,29.077017 33.46875,28.4375 L 33.46875,21.375 L 14.3125,21.375 z"
       id="path2492" />
    <g
       transform="matrix(0.1337942,0,0,0.1337942,31.527762,-41.04701)"
       inkscape:label="Calque 1"
       id="g2496" />
    <g
       inkscape:label="Emblem"
       id="g2498"
       transform="translate(-47.856155,-41.263546)" />
    <g
       transform="translate(-57.26937,-40.105904)"
       id="g2500"
       inkscape:label="Emblem" />
    <g
       inkscape:label="Emblem"
       id="g2510"
       transform="translate(-3.276554,-8.4645235)" />
    <g
       transform="translate(-84.6637,-42.225014)"
       id="g2512"
       inkscape:label="Emblem" />
    <g
       inkscape:label="Emblem"
       id="g2514"
       transform="translate(-30.670879,-10.583634)" />
    <g
       transform="translate(6.136665,-9.6221659)"
       id="g2516"
       inkscape:label="Emblem" />
  </g>
</svg>
