<?xml version="1.0" encoding="UTF-8" standalone="no"?>
<!-- Created with Inkscape (http://www.inkscape.org/) -->
<svg
   xmlns:dc="http://purl.org/dc/elements/1.1/"
   xmlns:cc="http://creativecommons.org/ns#"
   xmlns:rdf="http://www.w3.org/1999/02/22-rdf-syntax-ns#"
   xmlns:svg="http://www.w3.org/2000/svg"
   xmlns="http://www.w3.org/2000/svg"
   xmlns:xlink="http://www.w3.org/1999/xlink"
   xmlns:sodipodi="http://sodipodi.sourceforge.net/DTD/sodipodi-0.dtd"
   xmlns:inkscape="http://www.inkscape.org/namespaces/inkscape"
   width="48px"
   height="48px"
   id="svg4289"
   sodipodi:version="0.32"
   inkscape:version="0.46"
   sodipodi:docbase="/home/lapo/Icone/cvs/gnome-icon-theme/scalable/categories"
   sodipodi:docname="camera-video.svg"
   inkscape:output_extension="org.inkscape.output.svg.inkscape">
  <defs
     id="defs4291">
    <linearGradient
       id="linearGradient3155"
       inkscape:collect="always">
      <stop
         id="stop3157"
         offset="0"
         style="stop-color:#4d4d4d;stop-opacity:1;" />
      <stop
         id="stop3159"
         offset="1"
         style="stop-color:#4d4d4d;stop-opacity:0;" />
    </linearGradient>
    <linearGradient
       inkscape:collect="always"
       xlink:href="#linearGradient3155"
       id="linearGradient2517"
       gradientUnits="userSpaceOnUse"
       gradientTransform="matrix(0.1721311,0,0,0.1721311,-32.065571,-63.312822)"
       x1="325.71429"
       y1="369.50507"
       x2="325.71429"
       y2="546.64789" />
  </defs>
  <sodipodi:namedview
     id="base"
     pagecolor="#ffffff"
     bordercolor="#666"
     borderopacity="0.31372549"
     inkscape:pageopacity="0.0"
     inkscape:pageshadow="2"
     inkscape:zoom="5.656854"
     inkscape:cx="29.702185"
     inkscape:cy="18.848489"
     inkscape:current-layer="layer1"
     showgrid="true"
     inkscape:grid-bbox="true"
     inkscape:document-units="px"
     inkscape:window-width="1019"
     inkscape:window-height="732"
     inkscape:window-x="259"
     inkscape:window-y="19"
     inkscape:showpageshadow="false" />
  <metadata
     id="metadata4294">
    <rdf:RDF>
      <cc:Work
         rdf:about="">
        <dc:format>image/svg+xml</dc:format>
        <dc:type
           rdf:resource="http://purl.org/dc/dcmitype/StillImage" />
        <dc:title>System Preferences</dc:title>
        <dc:creator>
          <cc:Agent>
            <dc:title>Andreas Nilsson</dc:title>
          </cc:Agent>
        </dc:creator>
        <dc:subject>
          <rdf:Bag>
            <rdf:li>category</rdf:li>
            <rdf:li>system</rdf:li>
            <rdf:li>preferences</rdf:li>
            <rdf:li>settings</rdf:li>
            <rdf:li>control center</rdf:li>
          </rdf:Bag>
        </dc:subject>
        <dc:contributor>
          <cc:Agent>
            <dc:title>Jakub Steiner</dc:title>
          </cc:Agent>
        </dc:contributor>
        <cc:license
           rdf:resource="http://creativecommons.org/licenses/GPL/2.0/" />
      </cc:Work>
      <cc:License
         rdf:about="http://creativecommons.org/licenses/GPL/2.0/">
        <cc:permits
           rdf:resource="http://web.resource.org/cc/Reproduction" />
        <cc:permits
           rdf:resource="http://web.resource.org/cc/Distribution" />
        <cc:requires
           rdf:resource="http://web.resource.org/cc/Notice" />
        <cc:permits
           rdf:resource="http://web.resource.org/cc/DerivativeWorks" />
        <cc:requires
           rdf:resource="http://web.resource.org/cc/ShareAlike" />
        <cc:requires
           rdf:resource="http://web.resource.org/cc/SourceCode" />
      </cc:License>
    </rdf:RDF>
  </metadata>
  <g
     id="layer1"
     inkscape:label="Layer 1"
     inkscape:groupmode="layer">
    <g
       id="g2453"
       inkscape:label="Calque 1"
       transform="matrix(0.1337942,0,0,0.1337942,-18.472238,-41.04701)" />
    <path
       style="fill:#000000;fill-opacity:1;fill-rule:nonzero;stroke:none;stroke-width:1;stroke-linecap:butt;stroke-linejoin:miter;stroke-miterlimit:4;stroke-dasharray:none;stroke-dashoffset:0;stroke-opacity:1"
       d="M 6.094966,5.25 C 4.9331688,5.2499975 4,6.18213 4,7.3426338 L 4,40.657366 C 3.9999988,41.817868 4.9331688,42.75 6.094966,42.75 L 17.910577,42.75 C 19.045289,42.749999 19.96329,41.863829 20.005544,40.741071 C 20.00588,40.732229 20.005321,40.722039 20.005544,40.713169 C 20.006001,40.695146 20.005544,40.6755 20.005544,40.657366 L 20.005544,31.449776 L 21.541852,31.449776 C 21.541852,32.045106 21.541852,32.640059 21.541852,33.235491 C 21.542072,33.244358 21.541519,33.25455 21.541852,33.263393 C 21.584104,34.386149 22.502109,35.27232 23.636819,35.272321 L 28.078147,35.272321 L 37.463596,35.272321 L 41.904925,35.272321 C 43.039635,35.272319 43.95764,34.38615 43.999891,33.263393 C 44.000222,33.254549 43.999669,33.244359 43.999891,33.235491 C 43.999891,27.169515 43.999891,21.109501 43.999891,15.043526 C 43.999891,13.883023 43.066719,12.950893 41.904925,12.950893 L 37.463596,12.950893 L 28.078147,12.950893 L 23.636819,12.950893 C 22.475019,12.950893 21.541852,13.883023 21.541852,15.043526 C 21.541852,15.908765 21.541852,16.773361 21.541852,17.638394 L 20.005544,17.638394 L 20.005544,7.3426338 C 20.005546,6.1821313 19.072372,5.25 17.910577,5.25 L 6.094966,5.25 z M 12.016738,6.8404013 C 15.5631,6.8404013 18.441301,9.7154013 18.441301,13.257812 C 18.441305,16.800223 15.563097,19.675223 12.016738,19.675223 C 8.470381,19.675223 5.592175,16.800223 5.592175,13.257812 C 5.5921738,9.7154013 8.470379,6.8404013 12.016738,6.8404013 z M 11.569813,8.9051338 C 9.345231,9.131025 7.603343,11.032226 7.603343,13.313616 C 7.603341,15.747098 9.580544,17.722099 12.016738,17.722098 C 14.452935,17.722098 16.430134,15.747098 16.430134,13.313616 C 16.430136,10.880134 14.452932,8.9051338 12.016738,8.9051338 C 11.864479,8.9051338 11.718118,8.8900738 11.569813,8.9051338 z"
       id="path1373" />
    <path
       style="fill:url(#linearGradient2517);fill-opacity:1"
       d="M 6.109375,5.25 C 4.9475788,5.2499975 4,6.1988713 4,7.359375 L 4,26.890625 C 9.311536,29.318836 16.30782,30.796875 24,30.796875 C 31.692179,30.796875 38.688464,29.318838 44,26.890625 C 44,22.939721 44,19.007355 44,15.054688 C 43.999996,13.894183 43.052419,12.945312 41.890625,12.945312 L 37.476562,12.945312 L 28.0625,12.945312 L 23.648437,12.945312 C 22.486635,12.945312 21.539062,13.894184 21.539062,15.054688 C 21.539059,15.919925 21.539062,16.76778 21.539062,17.632813 L 20.015625,17.632813 L 20.015625,7.359375 C 20.015626,6.198873 19.068045,5.25 17.90625,5.25 L 6.109375,5.25 z M 12.007812,6.8515625 C 15.554174,6.8515625 18.453125,9.7154013 18.453125,13.257812 C 18.45313,16.800223 15.554172,19.664063 12.007812,19.664063 C 8.461455,19.664063 5.6015625,16.800223 5.6015625,13.257812 C 5.6015625,9.7154013 8.461454,6.8515625 12.007812,6.8515625 z M 11.578125,8.921875 C 9.353548,9.1477663 7.59375,11.015485 7.59375,13.296875 C 7.593748,15.730356 9.571619,17.710939 12.007812,17.710938 C 14.444009,17.710938 16.421875,15.730356 16.421875,13.296875 C 16.421877,10.863392 14.444007,8.921875 12.007812,8.921875 C 11.855553,8.921875 11.72643,8.906815 11.578125,8.921875 z"
       id="path2504" />
  </g>
</svg>
