<?xml version="1.0" encoding="UTF-8" standalone="no"?>
<!-- Created with Inkscape (http://www.inkscape.org/) -->
<svg
   xmlns:dc="http://purl.org/dc/elements/1.1/"
   xmlns:cc="http://creativecommons.org/ns#"
   xmlns:rdf="http://www.w3.org/1999/02/22-rdf-syntax-ns#"
   xmlns:svg="http://www.w3.org/2000/svg"
   xmlns="http://www.w3.org/2000/svg"
   xmlns:xlink="http://www.w3.org/1999/xlink"
   xmlns:sodipodi="http://sodipodi.sourceforge.net/DTD/sodipodi-0.dtd"
   xmlns:inkscape="http://www.inkscape.org/namespaces/inkscape"
   width="48px"
   height="48px"
   id="svg4289"
   sodipodi:version="0.32"
   inkscape:version="0.46"
   sodipodi:docbase="/home/lapo/Icone/cvs/gnome-icon-theme/scalable/categories"
   sodipodi:docname="camera-web.svg"
   inkscape:output_extension="org.inkscape.output.svg.inkscape">
  <defs
     id="defs4291">
    <linearGradient
       id="linearGradient3155"
       inkscape:collect="always">
      <stop
         id="stop3157"
         offset="0"
         style="stop-color:#4d4d4d;stop-opacity:1;" />
      <stop
         id="stop3159"
         offset="1"
         style="stop-color:#4d4d4d;stop-opacity:0;" />
    </linearGradient>
    <linearGradient
       inkscape:collect="always"
       xlink:href="#linearGradient3155"
       id="linearGradient2504"
       gradientUnits="userSpaceOnUse"
       gradientTransform="matrix(0.1721311,0,0,0.1721311,-32.065571,-63.312822)"
       x1="325.71429"
       y1="369.50507"
       x2="325.71429"
       y2="546.64789" />
  </defs>
  <sodipodi:namedview
     id="base"
     pagecolor="#ffffff"
     bordercolor="#666"
     borderopacity="0.31372549"
     inkscape:pageopacity="0.0"
     inkscape:pageshadow="2"
     inkscape:zoom="3.9999998"
     inkscape:cx="-5.8750045"
     inkscape:cy="12.416407"
     inkscape:current-layer="layer1"
     showgrid="true"
     inkscape:grid-bbox="true"
     inkscape:document-units="px"
     inkscape:window-width="1019"
     inkscape:window-height="732"
     inkscape:window-x="259"
     inkscape:window-y="19"
     inkscape:showpageshadow="false" />
  <metadata
     id="metadata4294">
    <rdf:RDF>
      <cc:Work
         rdf:about="">
        <dc:format>image/svg+xml</dc:format>
        <dc:type
           rdf:resource="http://purl.org/dc/dcmitype/StillImage" />
        <dc:title>System Preferences</dc:title>
        <dc:creator>
          <cc:Agent>
            <dc:title>Andreas Nilsson</dc:title>
          </cc:Agent>
        </dc:creator>
        <dc:subject>
          <rdf:Bag>
            <rdf:li>category</rdf:li>
            <rdf:li>system</rdf:li>
            <rdf:li>preferences</rdf:li>
            <rdf:li>settings</rdf:li>
            <rdf:li>control center</rdf:li>
          </rdf:Bag>
        </dc:subject>
        <dc:contributor>
          <cc:Agent>
            <dc:title>Jakub Steiner</dc:title>
          </cc:Agent>
        </dc:contributor>
        <cc:license
           rdf:resource="http://creativecommons.org/licenses/GPL/2.0/" />
      </cc:Work>
      <cc:License
         rdf:about="http://creativecommons.org/licenses/GPL/2.0/">
        <cc:permits
           rdf:resource="http://web.resource.org/cc/Reproduction" />
        <cc:permits
           rdf:resource="http://web.resource.org/cc/Distribution" />
        <cc:requires
           rdf:resource="http://web.resource.org/cc/Notice" />
        <cc:permits
           rdf:resource="http://web.resource.org/cc/DerivativeWorks" />
        <cc:requires
           rdf:resource="http://web.resource.org/cc/ShareAlike" />
        <cc:requires
           rdf:resource="http://web.resource.org/cc/SourceCode" />
      </cc:License>
    </rdf:RDF>
  </metadata>
  <g
     id="layer1"
     inkscape:label="Layer 1"
     inkscape:groupmode="layer">
    <g
       id="g2453"
       inkscape:label="Calque 1"
       transform="matrix(0.1337942,0,0,0.1337942,-18.472238,-41.04701)" />
    <path
       style="fill:#000000"
       d="M 24,4 C 14.34,4 6.5,11.728302 6.5,21.250674 C 6.5,28.460869 10.988155,34.630688 17.364583,37.207547 L 13.5,44 C 20.5,44 27.5,44 34.5,44 L 30.635416,37.207547 C 37.011845,34.630688 41.5,28.460869 41.5,21.250674 C 41.5,11.728302 33.66,4 24,4 z M 15.359375,9.6064687 C 16.327042,9.6064687 17.109375,10.377644 17.109375,11.331536 C 17.109375,12.28543 16.327055,13.056604 15.359375,13.056604 C 14.391695,13.056604 13.609375,12.28543 13.609375,11.331536 C 13.609375,10.377644 14.391695,9.6064687 15.359375,9.6064687 z M 24,13.20036 C 28.508,13.20036 32.166666,16.8069 32.166666,21.250674 C 32.166666,25.694447 28.508,29.300989 24,29.300989 C 19.492,29.300989 15.833333,25.694447 15.833333,21.250674 C 15.833333,16.8069 19.492,13.20036 24,13.20036 z M 24,15.50045 C 20.78,15.50045 18.166668,18.07655 18.166668,21.250674 C 18.166668,24.424798 20.78,27.000899 24,27.000899 C 27.22,27.000899 29.833332,24.424798 29.833332,21.250674 C 29.833332,18.07655 27.22,15.50045 24,15.50045 z"
       id="path2504"
       sodipodi:nodetypes="csccccsccsssccsssccsssc" />
    <path
       style="fill:url(#linearGradient2504);fill-opacity:1"
       d="M 24,4 C 14.34,4 6.5,11.743254 6.5,21.265625 C 6.5,23.833709 7.080303,26.264341 8.101562,28.453125 C 12.715171,29.928586 18.15548,30.796875 24,30.796875 C 29.844519,30.796875 35.284829,29.928586 39.898438,28.453125 C 40.919697,26.264341 41.5,23.833709 41.5,21.265625 C 41.5,11.743254 33.66,4 24,4 z M 15.015625,9.625 C 15.129626,9.60205 15.246227,9.625 15.367188,9.625 C 16.334853,9.625 17.125,10.389857 17.125,11.34375 C 17.124996,12.297644 16.334868,13.0625 15.367188,13.0625 C 14.399505,13.0625 13.609375,12.297644 13.609375,11.34375 C 13.609375,10.509095 14.217614,9.7856488 15.015625,9.625 z M 24,13.21875 C 28.508,13.21875 32.164062,16.821851 32.164062,21.265625 C 32.164062,25.709399 28.508,29.3125 24,29.3125 C 19.492,29.3125 15.835938,25.709399 15.835938,21.265625 C 15.835936,16.821851 19.492,13.21875 24,13.21875 z M 24,15.484375 C 20.78,15.484376 18.179688,18.091501 18.179688,21.265625 C 18.179685,24.439749 20.78,27.007812 24,27.007812 C 27.22,27.007812 29.820312,24.439749 29.820312,21.265625 C 29.820315,18.091501 27.22,15.484375 24,15.484375 z"
       id="path2497" />
  </g>
</svg>
