<?xml version="1.0" encoding="UTF-8" standalone="no"?>
<!-- Created with Inkscape (http://www.inkscape.org/) -->

<svg
   xmlns:dc="http://purl.org/dc/elements/1.1/"
   xmlns:cc="http://creativecommons.org/ns#"
   xmlns:rdf="http://www.w3.org/1999/02/22-rdf-syntax-ns#"
   xmlns:svg="http://www.w3.org/2000/svg"
   xmlns="http://www.w3.org/2000/svg"
   xmlns:xlink="http://www.w3.org/1999/xlink"
   xmlns:sodipodi="http://sodipodi.sourceforge.net/DTD/sodipodi-0.dtd"
   xmlns:inkscape="http://www.inkscape.org/namespaces/inkscape"
   width="48px"
   height="48px"
   id="svg4289"
   sodipodi:version="0.32"
   inkscape:version="0.47 r22583"
   sodipodi:docname="computer.svg"
   inkscape:output_extension="org.inkscape.output.svg.inkscape"
   version="1.1">
  <defs
     id="defs4291">
    <linearGradient
       id="linearGradient3155"
       inkscape:collect="always">
      <stop
         id="stop3157"
         offset="0"
         style="stop-color:#4d4d4d;stop-opacity:1;" />
      <stop
         id="stop3159"
         offset="1"
         style="stop-color:#4d4d4d;stop-opacity:0;" />
    </linearGradient>
    <linearGradient
       inkscape:collect="always"
       xlink:href="#linearGradient3155"
       id="linearGradient2541"
       gradientUnits="userSpaceOnUse"
       gradientTransform="matrix(0.1721311,0,0,0.17340619,-32.065572,-63.959583)"
       x1="325.71429"
       y1="369.50507"
       x2="325.71429"
       y2="546.64789" />
  </defs>
  <sodipodi:namedview
     id="base"
     pagecolor="#ffffff"
     bordercolor="#666"
     borderopacity="0.31372549"
     inkscape:pageopacity="0.0"
     inkscape:pageshadow="2"
     inkscape:zoom="5.656854"
     inkscape:cx="37.533214"
     inkscape:cy="12.243402"
     inkscape:current-layer="layer1"
     showgrid="true"
     inkscape:grid-bbox="true"
     inkscape:document-units="px"
     inkscape:window-width="1019"
     inkscape:window-height="721"
     inkscape:window-x="259"
     inkscape:window-y="23"
     inkscape:showpageshadow="false"
     inkscape:window-maximized="0" />
  <metadata
     id="metadata4294">
    <rdf:RDF>
      <cc:Work
         rdf:about="">
        <dc:format>image/svg+xml</dc:format>
        <dc:type
           rdf:resource="http://purl.org/dc/dcmitype/StillImage" />
        <dc:title>System Preferences</dc:title>
        <dc:creator>
          <cc:Agent>
            <dc:title>Andreas Nilsson</dc:title>
          </cc:Agent>
        </dc:creator>
        <dc:subject>
          <rdf:Bag>
            <rdf:li>category</rdf:li>
            <rdf:li>system</rdf:li>
            <rdf:li>preferences</rdf:li>
            <rdf:li>settings</rdf:li>
            <rdf:li>control center</rdf:li>
          </rdf:Bag>
        </dc:subject>
        <dc:contributor>
          <cc:Agent>
            <dc:title>Jakub Steiner</dc:title>
          </cc:Agent>
        </dc:contributor>
        <cc:license
           rdf:resource="http://creativecommons.org/licenses/GPL/2.0/" />
      </cc:Work>
      <cc:License
         rdf:about="http://creativecommons.org/licenses/GPL/2.0/">
        <cc:permits
           rdf:resource="http://web.resource.org/cc/Reproduction" />
        <cc:permits
           rdf:resource="http://web.resource.org/cc/Distribution" />
        <cc:requires
           rdf:resource="http://web.resource.org/cc/Notice" />
        <cc:permits
           rdf:resource="http://web.resource.org/cc/DerivativeWorks" />
        <cc:requires
           rdf:resource="http://web.resource.org/cc/ShareAlike" />
        <cc:requires
           rdf:resource="http://web.resource.org/cc/SourceCode" />
      </cc:License>
    </rdf:RDF>
  </metadata>
  <g
     id="layer1"
     inkscape:label="Layer 1"
     inkscape:groupmode="layer">
    <g
       id="g2453"
       inkscape:label="Calque 1"
       transform="matrix(0.1337942,0,0,0.1337942,-18.472238,-41.04701)" />
    <g
       id="g2299"
       inkscape:label="Shadow"
       transform="matrix(0.8148913,0,0,0.8221424,-24.235093,28.928246)" />
    <g
       transform="matrix(0.8148913,0,0,0.8221424,-24.235093,41.314643)"
       inkscape:label="Shadow"
       id="g2301" />
    <g
       transform="matrix(0.8148913,0,0,0.8221424,-24.235093,41.314643)"
       style="display:inline"
       inkscape:label="Lavoro"
       id="g2303" />
    <g
       id="layer3"
       inkscape:label="tastiera"
       style="display:inline"
       transform="matrix(0.8148913,0,0,0.8221424,58.88382,18.091669)">
      <g
         id="g3270"
         inkscape:label="Shadow"
         transform="translate(-54,0.18088)" />
      <g
         transform="translate(-54,15.2469)"
         inkscape:label="Shadow"
         id="g2611" />
      <g
         transform="translate(-54,15.2469)"
         style="display:inline"
         inkscape:label="Lavoro"
         id="g2613" />
    </g>
    <path
       style="fill:#000000;fill-opacity:1;stroke:none"
       d="M 5.484375,7 C 4.6496813,6.9999988 4,7.6863631 4,8.5347222 L 4,34.979167 c 0,0.848359 0.6496825,1.534722 1.484375,1.534722 l 12.34375,0 0,3.541666 -4.648437,0 0,0.944445 22.734374,0 0,-0.944445 -4.53125,0 0,-3.541666 11.09375,0 C 43.311256,36.51389 44,35.827525 44,34.979167 L 44,8.5347222 C 43.999999,7.6863631 43.311256,7 42.476562,7 L 5.484375,7 z M 7.75,9.5578703 l 32.617188,0 c 0.735363,0 1.289062,0.5559797 1.289062,1.2592587 l 0,21.918982 c -10e-7,0.703282 -0.553699,1.25926 -1.289062,1.25926 l -32.617188,0 c -0.735361,-10e-7 -1.328125,-0.555979 -1.328125,-1.25926 l 0,-21.918982 c 0,-0.70328 0.592762,-1.2592587 1.328125,-1.2592587 z"
       id="rect2160" />
    <path
       style="fill:url(#linearGradient2541);fill-opacity:1"
       d="M 5.484375,7 C 4.6496813,6.9999988 4,7.6863631 4,8.5347222 L 4,26.872684 c 0.7730375,0.355413 1.5796038,0.709853 2.421875,1.02315 l 0,-17.078705 c 0,-0.70328 0.592762,-1.2592587 1.328125,-1.2592587 l 32.617188,0 c 0.735363,0 1.289062,0.5559797 1.289062,1.2592587 l 0,17.039353 C 42.469074,27.551991 43.252081,27.216549 44,26.872684 L 44,8.5347222 C 43.999999,7.6863631 43.311256,7 42.476562,7 L 5.484375,7 z"
       id="path2531" />
  </g>
</svg>
