<?xml version="1.0" encoding="UTF-8" standalone="no"?>
<!-- Created with Inkscape (http://www.inkscape.org/) -->
<svg
   xmlns:dc="http://purl.org/dc/elements/1.1/"
   xmlns:cc="http://creativecommons.org/ns#"
   xmlns:rdf="http://www.w3.org/1999/02/22-rdf-syntax-ns#"
   xmlns:svg="http://www.w3.org/2000/svg"
   xmlns="http://www.w3.org/2000/svg"
   xmlns:xlink="http://www.w3.org/1999/xlink"
   xmlns:sodipodi="http://sodipodi.sourceforge.net/DTD/sodipodi-0.dtd"
   xmlns:inkscape="http://www.inkscape.org/namespaces/inkscape"
   width="48px"
   height="48px"
   id="svg4289"
   sodipodi:version="0.32"
   inkscape:version="0.46"
   sodipodi:docbase="/home/lapo/Icone/cvs/gnome-icon-theme/scalable/categories"
   sodipodi:docname="drive-removable-media.svg"
   inkscape:output_extension="org.inkscape.output.svg.inkscape">
  <defs
     id="defs4291">
    <linearGradient
       id="linearGradient3155"
       inkscape:collect="always">
      <stop
         id="stop3157"
         offset="0"
         style="stop-color:#4d4d4d;stop-opacity:1;" />
      <stop
         id="stop3159"
         offset="1"
         style="stop-color:#4d4d4d;stop-opacity:0;" />
    </linearGradient>
    <linearGradient
       inkscape:collect="always"
       xlink:href="#linearGradient3155"
       id="linearGradient2628"
       gradientUnits="userSpaceOnUse"
       gradientTransform="matrix(0.1721311,0,0,0.1737704,-32.065569,-64.144362)"
       x1="325.71429"
       y1="369.50507"
       x2="325.71429"
       y2="546.64789" />
  </defs>
  <sodipodi:namedview
     id="base"
     pagecolor="#ffffff"
     bordercolor="#666"
     borderopacity="0.31372549"
     inkscape:pageopacity="0.0"
     inkscape:pageshadow="2"
     inkscape:zoom="5.656854"
     inkscape:cx="37.533214"
     inkscape:cy="19.31447"
     inkscape:current-layer="layer1"
     showgrid="true"
     inkscape:grid-bbox="true"
     inkscape:document-units="px"
     inkscape:window-width="1019"
     inkscape:window-height="732"
     inkscape:window-x="259"
     inkscape:window-y="19"
     inkscape:showpageshadow="false" />
  <metadata
     id="metadata4294">
    <rdf:RDF>
      <cc:Work
         rdf:about="">
        <dc:format>image/svg+xml</dc:format>
        <dc:type
           rdf:resource="http://purl.org/dc/dcmitype/StillImage" />
        <dc:title>System Preferences</dc:title>
        <dc:creator>
          <cc:Agent>
            <dc:title>Andreas Nilsson</dc:title>
          </cc:Agent>
        </dc:creator>
        <dc:subject>
          <rdf:Bag>
            <rdf:li>category</rdf:li>
            <rdf:li>system</rdf:li>
            <rdf:li>preferences</rdf:li>
            <rdf:li>settings</rdf:li>
            <rdf:li>control center</rdf:li>
          </rdf:Bag>
        </dc:subject>
        <dc:contributor>
          <cc:Agent>
            <dc:title>Jakub Steiner</dc:title>
          </cc:Agent>
        </dc:contributor>
        <cc:license
           rdf:resource="http://creativecommons.org/licenses/GPL/2.0/" />
      </cc:Work>
      <cc:License
         rdf:about="http://creativecommons.org/licenses/GPL/2.0/">
        <cc:permits
           rdf:resource="http://web.resource.org/cc/Reproduction" />
        <cc:permits
           rdf:resource="http://web.resource.org/cc/Distribution" />
        <cc:requires
           rdf:resource="http://web.resource.org/cc/Notice" />
        <cc:permits
           rdf:resource="http://web.resource.org/cc/DerivativeWorks" />
        <cc:requires
           rdf:resource="http://web.resource.org/cc/ShareAlike" />
        <cc:requires
           rdf:resource="http://web.resource.org/cc/SourceCode" />
      </cc:License>
    </rdf:RDF>
  </metadata>
  <g
     id="layer1"
     inkscape:label="Layer 1"
     inkscape:groupmode="layer">
    <g
       id="g2453"
       inkscape:label="Calque 1"
       transform="matrix(0.1337942,0,0,0.1337942,-18.472238,-41.04701)" />
    <path
       style="fill:#000000;fill-opacity:1;fill-rule:nonzero;stroke:none;stroke-width:1;stroke-linecap:butt;stroke-linejoin:miter;stroke-miterlimit:4;stroke-dasharray:none;stroke-dashoffset:0;stroke-opacity:1"
       d="M 4,34.638144 C 4.5611262,36.069588 4.8728062,36.922668 6.505259,37.201445 L 17.710669,37.21701 L 18.580342,37.218218 L 41.459446,37.249998 C 42.850671,37.251931 43.96964,36.113254 43.971536,34.693665 L 43.999995,13.361862 C 44.001891,11.942275 42.885959,10.800492 41.494736,10.798561 L 18.615632,10.766778 L 17.745958,10.76557 L 6.540549,10.750005 C 5.1493237,10.748074 4.0303537,11.886751 4.0284587,13.306339 L 4,34.638144 z M 7.86116,23.755733 C 7.922272,23.709214 11.844092,21.884065 11.844092,21.884064 L 11.842271,23.2493 L 25.522905,23.268303 C 25.139794,22.967087 24.773371,22.661242 24.453813,22.31115 C 23.431676,21.191341 22.596389,19.956587 21.414145,19.166881 C 21.385563,19.158011 21.341584,19.140832 21.280394,19.132564 C 21.151161,19.115114 20.961253,19.108358 20.745255,19.09769 C 20.313272,19.076356 19.756694,19.058 19.206648,19.061422 C 18.924648,19.063179 18.701578,19.055315 18.437322,19.060354 L 18.435227,20.630376 L 14.321002,20.62466 L 14.326558,16.460691 L 18.440782,16.466405 L 18.438869,17.899903 C 18.701138,17.895076 18.927553,17.902715 19.208197,17.900973 C 19.769489,17.897477 20.31025,17.879938 20.780298,17.903156 C 21.01532,17.914764 21.233734,17.947721 21.415739,17.972301 C 21.597736,17.99688 21.721118,17.974852 21.95074,18.109567 C 21.95836,18.114517 21.976761,18.138434 21.984144,18.143743 C 23.443586,19.093396 24.335849,20.44661 25.291131,21.493171 C 26.246406,22.539733 27.174091,23.268462 28.800905,23.272856 L 28.80086,23.306986 L 33.851657,23.314002 C 34.098058,21.878367 35.321574,20.788418 36.798537,20.792406 C 38.450114,20.796873 39.776155,22.14894 39.771444,23.834189 C 39.767402,25.519442 38.408519,26.906255 36.756937,26.901788 C 35.320309,26.897912 34.134322,25.85351 33.850108,24.474454 L 33.114231,24.47343 C 33.077633,24.484741 33.053399,24.503693 33.013838,24.507423 C 31.511745,24.647701 30.283288,25.791983 29.163836,27.027765 C 28.604102,27.645657 28.073952,28.266306 27.522512,28.766162 C 26.971067,29.266018 26.380675,29.687074 25.64814,29.685095 C 24.56665,29.682171 23.933901,29.633333 22.905415,29.613023 C 22.666614,30.463865 21.907173,31.080464 20.996865,31.078003 C 19.897859,31.075038 19.022975,30.148816 19.026107,29.027407 C 19.028794,27.905997 19.903277,27.013461 21.002284,27.016426 C 21.889218,27.018824 22.652295,27.59978 22.907009,28.418442 C 23.969648,28.438557 24.584863,28.487639 25.649734,28.490515 C 25.932591,28.491283 26.291757,28.297029 26.75437,27.877691 C 27.21698,27.458358 27.752286,26.843771 28.328704,26.207463 C 28.869095,25.610915 29.479823,24.992661 30.17072,24.469341 L 11.840723,24.409748 L 11.838992,25.706724 C 11.838992,25.706724 7.800041,23.802248 7.86116,23.755733 z"
       id="path1373" />
    <g
       id="g2913"
       inkscape:label="face"
       style="display:inline"
       transform="matrix(7.3298479e-2,0,0,7.3298479e-2,75.290777,20.903604)" />
    <g
       id="g2915"
       inkscape:label="inner stroke"
       style="display:inline"
       transform="matrix(7.3298479e-2,0,0,7.3298479e-2,75.290777,20.903604)" />
    <path
       style="fill:url(#linearGradient2628);fill-opacity:1"
       d="M 6.539062,10.750002 C 5.1478362,10.748072 4.0409575,11.893659 4.0390625,13.313247 L 4,26.918156 C 8.344565,28.923224 13.835146,30.273525 19.898437,30.703869 C 19.374087,30.333231 19.037104,29.709066 19.039062,29.008185 C 19.041745,27.886776 19.893179,26.994059 20.992186,26.997025 C 21.879118,26.999423 22.651535,27.598006 22.906249,28.416668 C 23.968885,28.436783 24.575753,28.492661 25.640624,28.495537 C 25.923484,28.496306 26.310824,28.283922 26.773436,27.864585 C 27.236044,27.445251 27.759519,26.844643 28.335936,26.208335 C 28.876323,25.611785 29.480977,24.996535 30.171873,24.473216 L 11.851562,24.394347 L 11.851562,25.695686 C 11.851562,25.695686 7.806069,23.809909 7.867187,23.763395 C 7.9283,23.716876 11.851562,21.870538 11.851562,21.870537 L 11.851562,23.250745 L 25.523436,23.250745 C 25.140327,22.949532 24.788307,22.654408 24.468749,22.304317 C 23.446611,21.184508 22.604118,19.939262 21.421874,19.149556 C 21.393288,19.140685 21.326814,19.157824 21.265624,19.149556 C 21.136389,19.132107 20.973809,19.12079 20.757811,19.110121 C 20.325832,19.088788 19.745358,19.067265 19.195312,19.070687 C 18.913309,19.072443 18.71738,19.065647 18.453124,19.070687 L 18.453124,20.648068 L 14.312499,20.608633 L 14.312499,16.468008 L 18.453124,16.468008 L 18.453124,17.887651 C 18.715395,17.882826 18.914668,17.889394 19.195312,17.887651 C 19.756605,17.884155 20.326827,17.864433 20.796874,17.887651 C 21.031895,17.899259 21.239869,17.94194 21.421874,17.96652 C 21.603869,17.991099 21.739126,17.989543 21.968749,18.124258 C 23.428194,19.073909 24.333779,20.429632 25.289061,21.476192 C 26.244336,22.522755 27.177872,23.285788 28.804686,23.29018 L 33.843748,23.329614 C 34.090152,21.893979 35.335536,20.801816 36.812498,20.805805 C 38.464075,20.810271 39.785959,22.157014 39.781248,23.842264 C 39.777205,25.527514 38.425018,26.922623 36.773436,26.918156 C 35.336808,26.914282 34.127962,25.852273 33.843748,24.473216 L 33.101561,24.473216 C 33.064959,24.484527 33.062997,24.508922 33.023436,24.51265 C 31.521338,24.652928 30.275701,25.800677 29.156248,27.036459 C 28.596511,27.654351 28.067064,28.271722 27.515624,28.771578 C 26.964182,29.271434 26.373159,29.68055 25.640624,29.678572 C 24.559135,29.675648 23.934735,29.620012 22.906249,29.599703 C 22.76021,30.120025 22.419633,30.565064 21.968749,30.822173 C 22.646021,30.845745 23.311188,30.861607 23.999999,30.861607 C 31.676418,30.861607 38.653303,29.360554 43.960935,26.918156 L 43.999998,13.352681 C 44.001891,11.933094 42.89122,10.791369 41.499998,10.789437 L 18.609374,10.750002 L 17.749999,10.750002 L 6.539062,10.750002 z"
       id="path2621" />
  </g>
</svg>
