<?xml version="1.0" encoding="UTF-8" standalone="no"?>
<!-- Created with Inkscape (http://www.inkscape.org/) -->
<svg
   xmlns:dc="http://purl.org/dc/elements/1.1/"
   xmlns:cc="http://creativecommons.org/ns#"
   xmlns:rdf="http://www.w3.org/1999/02/22-rdf-syntax-ns#"
   xmlns:svg="http://www.w3.org/2000/svg"
   xmlns="http://www.w3.org/2000/svg"
   xmlns:xlink="http://www.w3.org/1999/xlink"
   xmlns:sodipodi="http://sodipodi.sourceforge.net/DTD/sodipodi-0.dtd"
   xmlns:inkscape="http://www.inkscape.org/namespaces/inkscape"
   width="48px"
   height="48px"
   id="svg4289"
   sodipodi:version="0.32"
   inkscape:version="0.46"
   sodipodi:docbase="/home/lapo/Icone/cvs/gnome-icon-theme/scalable/categories"
   sodipodi:docname="modem.svg"
   inkscape:output_extension="org.inkscape.output.svg.inkscape">
  <defs
     id="defs4291">
    <linearGradient
       id="linearGradient3155"
       inkscape:collect="always">
      <stop
         id="stop3157"
         offset="0"
         style="stop-color:#4d4d4d;stop-opacity:1;" />
      <stop
         id="stop3159"
         offset="1"
         style="stop-color:#4d4d4d;stop-opacity:0;" />
    </linearGradient>
    <linearGradient
       inkscape:collect="always"
       xlink:href="#linearGradient3155"
       id="linearGradient2552"
       gradientUnits="userSpaceOnUse"
       gradientTransform="matrix(0.173342,0,0,0.1721311,-32.45748,-63.312822)"
       x1="325.71429"
       y1="369.50507"
       x2="325.71429"
       y2="546.64789" />
  </defs>
  <sodipodi:namedview
     id="base"
     pagecolor="#ffffff"
     bordercolor="#666"
     borderopacity="0.31372549"
     inkscape:pageopacity="0.0"
     inkscape:pageshadow="2"
     inkscape:zoom="3.9999998"
     inkscape:cx="-1.6686057"
     inkscape:cy="18.253165"
     inkscape:current-layer="layer1"
     showgrid="true"
     inkscape:grid-bbox="true"
     inkscape:document-units="px"
     inkscape:window-width="1019"
     inkscape:window-height="732"
     inkscape:window-x="259"
     inkscape:window-y="19"
     inkscape:showpageshadow="false" />
  <metadata
     id="metadata4294">
    <rdf:RDF>
      <cc:Work
         rdf:about="">
        <dc:format>image/svg+xml</dc:format>
        <dc:type
           rdf:resource="http://purl.org/dc/dcmitype/StillImage" />
        <dc:title>System Preferences</dc:title>
        <dc:creator>
          <cc:Agent>
            <dc:title>Andreas Nilsson</dc:title>
          </cc:Agent>
        </dc:creator>
        <dc:subject>
          <rdf:Bag>
            <rdf:li>category</rdf:li>
            <rdf:li>system</rdf:li>
            <rdf:li>preferences</rdf:li>
            <rdf:li>settings</rdf:li>
            <rdf:li>control center</rdf:li>
          </rdf:Bag>
        </dc:subject>
        <dc:contributor>
          <cc:Agent>
            <dc:title>Jakub Steiner</dc:title>
          </cc:Agent>
        </dc:contributor>
        <cc:license
           rdf:resource="http://creativecommons.org/licenses/GPL/2.0/" />
      </cc:Work>
      <cc:License
         rdf:about="http://creativecommons.org/licenses/GPL/2.0/">
        <cc:permits
           rdf:resource="http://web.resource.org/cc/Reproduction" />
        <cc:permits
           rdf:resource="http://web.resource.org/cc/Distribution" />
        <cc:requires
           rdf:resource="http://web.resource.org/cc/Notice" />
        <cc:permits
           rdf:resource="http://web.resource.org/cc/DerivativeWorks" />
        <cc:requires
           rdf:resource="http://web.resource.org/cc/ShareAlike" />
        <cc:requires
           rdf:resource="http://web.resource.org/cc/SourceCode" />
      </cc:License>
    </rdf:RDF>
  </metadata>
  <g
     id="layer1"
     inkscape:label="Layer 1"
     inkscape:groupmode="layer">
    <g
       id="g2453"
       inkscape:label="Calque 1"
       transform="matrix(0.1337942,0,0,0.1337942,-18.472238,-41.04701)" />
    <path
       style="fill:#000000;fill-opacity:1;stroke:none;stroke-width:1.0000037;stroke-linecap:round;stroke-linejoin:miter;stroke-miterlimit:4;stroke-dasharray:none;stroke-dashoffset:0;stroke-opacity:1"
       d="M 24.002508,4 C 14.684564,4 7.0010861,8.0323438 6.2220477,13.179688 C 5.7160747,14.254895 5.6102941,15.501721 5.9466866,16.734375 C 5.9598136,16.782471 5.9712885,16.843194 5.9860239,16.890625 C 5.9923945,16.968511 6.0433292,17.085769 6.0646985,17.164062 L 6.2613851,18.023438 C 6.4504991,18.716412 7.1684401,19.107555 7.8742141,18.921875 L 15.702338,16.890625 C 16.408123,16.704945 16.796209,15.982034 16.607095,15.289062 L 16.410409,14.429688 C 16.386771,14.343065 16.331571,14.233372 16.292397,14.15625 C 16.28071,14.101855 16.267619,14.053327 16.25306,14 C 16.067599,13.320385 15.757408,12.730464 15.348302,12.203125 C 16.575608,9.9724213 19.982888,8.375 24.002508,8.375 C 28.022141,8.375 31.429407,9.9724213 32.656714,12.203125 C 32.249005,12.729634 31.936989,13.321965 31.751957,14 C 31.742098,14.036091 31.761233,14.080572 31.751957,14.117188 C 31.699392,14.209521 31.623824,14.322626 31.594608,14.429688 L 31.397921,15.289062 C 31.208809,15.982035 31.596895,16.704944 32.302679,16.890625 L 40.130802,18.921875 C 40.836582,19.107555 41.554516,18.716412 41.743632,18.023438 L 41.940318,17.164062 C 41.963968,17.077439 42.013645,16.97665 42.018992,16.890625 C 42.033726,16.843195 42.0452,16.78247 42.05833,16.734375 C 42.401764,15.475895 42.275805,14.191805 41.743632,13.101562 C 40.895963,7.9934388 33.270793,4 24.002508,4 z M 14.325532,18.375 C 12.971526,18.463765 11.624066,19.586559 11.611258,20.992188 L 11.611258,41.34375 C 11.623934,42.837231 12.792833,43.998968 14.325532,44 L 33.561473,44 C 35.172039,43.911178 36.235287,42.749439 36.236409,41.34375 L 36.236409,20.992188 C 36.145999,19.410978 34.993079,18.375972 33.561473,18.375 L 14.325532,18.375 z M 16.567758,22.554688 L 19.203357,22.554688 C 19.591205,22.554688 19.911429,22.816192 19.911429,23.179688 L 19.911429,25.875 C 19.91143,26.238495 19.591206,26.5 19.203357,26.5 L 16.567758,26.5 C 16.179925,26.5 15.859687,26.238496 15.859687,25.875 L 15.859687,23.179688 C 15.859687,22.816192 16.179924,22.554688 16.567758,22.554688 z M 22.625703,22.554688 L 25.221965,22.554688 C 25.609807,22.554688 25.930036,22.816192 25.930036,23.179688 L 25.930036,25.875 C 25.930034,26.238495 25.609809,26.5 25.221965,26.5 L 22.625703,26.5 C 22.237867,26.5 21.917631,26.238496 21.917631,25.875 L 21.917631,23.179688 C 21.917629,22.816192 22.237867,22.554688 22.625703,22.554688 z M 28.64431,22.554688 L 31.319246,22.554688 C 31.707083,22.554688 31.987981,22.816192 31.987981,23.179688 L 31.987981,25.875 C 31.987981,26.238495 31.707081,26.5 31.319246,26.5 L 28.64431,26.5 C 28.256464,26.5 27.936238,26.238496 27.936238,25.875 L 27.936238,23.179688 C 27.936238,22.816192 28.256465,22.554688 28.64431,22.554688 z M 16.567758,29.195312 L 19.203357,29.195312 C 19.591205,29.195312 19.911429,29.49588 19.911429,29.859375 L 19.911429,32.515625 C 19.91143,32.87912 19.591206,33.179688 19.203357,33.179688 L 16.567758,33.179688 C 16.179925,33.179686 15.859687,32.87912 15.859687,32.515625 L 15.859687,29.859375 C 15.859687,29.495879 16.179924,29.195312 16.567758,29.195312 z M 22.625703,29.195312 L 25.221965,29.195312 C 25.609807,29.195312 25.930036,29.49588 25.930036,29.859375 L 25.930036,32.515625 C 25.930034,32.87912 25.609809,33.179688 25.221965,33.179688 L 22.625703,33.179688 C 22.237867,33.179686 21.917631,32.87912 21.917631,32.515625 L 21.917631,29.859375 C 21.917629,29.495879 22.237867,29.195312 22.625703,29.195312 z M 28.64431,29.195312 L 31.319246,29.195312 C 31.707083,29.195312 31.987981,29.49588 31.987981,29.859375 L 31.987981,32.515625 C 31.987981,32.87912 31.707081,33.179688 31.319246,33.179688 L 28.64431,33.179688 C 28.256464,33.179686 27.936238,32.87912 27.936238,32.515625 L 27.936238,29.859375 C 27.936238,29.495879 28.256465,29.195312 28.64431,29.195312 z M 16.567758,35.835938 L 19.203357,35.835938 C 19.591205,35.835938 19.911429,36.136505 19.911429,36.5 L 19.911429,39.15625 C 19.91143,39.519745 19.591206,39.820312 19.203357,39.820312 L 16.567758,39.820312 C 16.179925,39.820314 15.859687,39.519745 15.859687,39.15625 L 15.859687,36.5 C 15.859687,36.136506 16.179924,35.835938 16.567758,35.835938 z M 22.625703,35.835938 L 25.221965,35.835938 C 25.609807,35.835938 25.930036,36.136505 25.930036,36.5 L 25.930036,39.15625 C 25.930034,39.519745 25.609809,39.820312 25.221965,39.820312 L 22.625703,39.820312 C 22.237867,39.820314 21.917631,39.519745 21.917631,39.15625 L 21.917631,36.5 C 21.917629,36.136506 22.237867,35.835938 22.625703,35.835938 z M 28.64431,35.835938 L 31.319246,35.835938 C 31.707083,35.835938 31.987981,36.136505 31.987981,36.5 L 31.987981,39.15625 C 31.987981,39.519745 31.707081,39.820312 31.319246,39.820312 L 28.64431,39.820312 C 28.256464,39.820314 27.936238,39.519745 27.936238,39.15625 L 27.936238,36.5 C 27.936238,36.136506 28.256465,35.835938 28.64431,35.835938 z"
       id="rect2814" />
    <rect
       sodipodi:insensitive="true"
       y="51.276859"
       x="-125.11956"
       height="36.250004"
       width="36.250004"
       id="rect1306"
       style="fill:none;fill-opacity:1;fill-rule:nonzero;stroke:none;stroke-width:9.375;stroke-linecap:round;stroke-linejoin:round;stroke-miterlimit:4;stroke-dasharray:none;stroke-dashoffset:0;stroke-opacity:1;display:none" />
    <g
       id="layer2"
       inkscape:label="troiai"
       style="display:none"
       transform="translate(-131.9047,7.8327392)">
      <path
         sodipodi:type="arc"
         style="opacity:0.9;fill:#ef2929;fill-opacity:1;stroke:#a40000;stroke-width:1.21590912;stroke-linecap:round;stroke-linejoin:miter;stroke-miterlimit:4;stroke-dasharray:none;stroke-dashoffset:0;stroke-opacity:1"
         id="path2763"
         sodipodi:cx="11.3125"
         sodipodi:cy="21.4375"
         sodipodi:rx="6.6875"
         sodipodi:ry="6.6875"
         d="M 18,21.4375 A 6.6875,6.6875 0 1 1 4.625,21.4375 A 6.6875,6.6875 0 1 1 18,21.4375 z"
         transform="matrix(0.82243,0,0,0.82243,-68.30374,4.369158)" />
      <path
         sodipodi:type="arc"
         style="opacity:0.9;fill:#ef2929;fill-opacity:1;stroke:#a40000;stroke-width:1.21590912;stroke-linecap:round;stroke-linejoin:miter;stroke-miterlimit:4;stroke-dasharray:none;stroke-dashoffset:0;stroke-opacity:1"
         id="path2765"
         sodipodi:cx="11.3125"
         sodipodi:cy="21.4375"
         sodipodi:rx="6.6875"
         sodipodi:ry="6.6875"
         d="M 18,21.4375 A 6.6875,6.6875 0 1 1 4.625,21.4375 A 6.6875,6.6875 0 1 1 18,21.4375 z"
         transform="matrix(0.82243,0,0,0.82243,-42.30374,4.369158)" />
      <path
         sodipodi:type="arc"
         style="opacity:0.6;fill:#ef2929;fill-opacity:1;stroke:#a40000;stroke-width:0.87122524;stroke-linecap:round;stroke-linejoin:miter;stroke-miterlimit:4;stroke-dasharray:none;stroke-dashoffset:0;stroke-opacity:1"
         id="path2767"
         sodipodi:cx="24.1875"
         sodipodi:cy="21.375"
         sodipodi:rx="16.5625"
         sodipodi:ry="9.75"
         d="M 40.75,21.375 A 16.5625,9.75 0 1 1 7.625,21.375 A 16.5625,9.75 0 1 1 40.75,21.375 z"
         transform="matrix(1.116981,0,0,1.179487,-73.01698,-3.211538)" />
      <path
         sodipodi:type="arc"
         style="opacity:0.6;fill:#ef2929;fill-opacity:1;stroke:#a40000;stroke-width:1.62041819;stroke-linecap:round;stroke-linejoin:miter;stroke-miterlimit:4;stroke-dasharray:none;stroke-dashoffset:0;stroke-opacity:1"
         id="path2769"
         sodipodi:cx="24.1875"
         sodipodi:cy="21.375"
         sodipodi:rx="16.5625"
         sodipodi:ry="9.75"
         d="M 40.75,21.375 A 16.5625,9.75 0 1 1 7.625,21.375 A 16.5625,9.75 0 1 1 40.75,21.375 z"
         transform="matrix(0.573586,0,0,0.663968,-59.87362,7.781372)" />
      <path
         style="opacity:0.6;fill:#ef2929;fill-opacity:1;stroke:#a40000;stroke-width:1;stroke-linecap:round;stroke-linejoin:miter;stroke-miterlimit:4;stroke-dasharray:none;stroke-dashoffset:0;stroke-opacity:1"
         d="M 23.99999,70.5 C 12.959975,70.5 3.9999611,75.652001 3.999961,82 L 13.729705,82 C 13.729624,81.989472 13.729705,81.97929 13.729705,81.96875 C 13.729705,78.395274 18.330782,75.5 23.99999,75.5 C 29.6692,75.5 34.270275,78.395274 34.270275,81.96875 C 34.270275,81.97929 34.270356,81.989472 34.270275,82 L 44.00002,82 C 44.00002,75.652001 35.040006,70.5 23.99999,70.5 z"
         id="path2805" />
      <path
         sodipodi:type="arc"
         style="opacity:0.9;fill:#ef2929;fill-opacity:1;stroke:#a40000;stroke-width:1.11458337;stroke-linecap:round;stroke-linejoin:miter;stroke-miterlimit:4;stroke-dasharray:none;stroke-dashoffset:0;stroke-opacity:1"
         id="path2807"
         sodipodi:cx="11.3125"
         sodipodi:cy="21.4375"
         sodipodi:rx="6.6875"
         sodipodi:ry="6.6875"
         d="M 18,21.4375 A 6.6875,6.6875 0 1 1 4.625,21.4375 A 6.6875,6.6875 0 1 1 18,21.4375 z"
         transform="matrix(0.897196,0,0,0.897196,-0.649528,64.26636)" />
      <path
         sodipodi:type="arc"
         style="opacity:0.9;fill:#ef2929;fill-opacity:1;stroke:#a40000;stroke-width:1.11458337;stroke-linecap:round;stroke-linejoin:miter;stroke-miterlimit:4;stroke-dasharray:none;stroke-dashoffset:0;stroke-opacity:1"
         id="path2809"
         sodipodi:cx="11.3125"
         sodipodi:cy="21.4375"
         sodipodi:rx="6.6875"
         sodipodi:ry="6.6875"
         d="M 18,21.4375 A 6.6875,6.6875 0 1 1 4.625,21.4375 A 6.6875,6.6875 0 1 1 18,21.4375 z"
         transform="matrix(0.897196,0,0,0.897196,28.35047,64.26636)" />
      <path
         style="fill:#ef2929;fill-opacity:1;stroke:#a40000;stroke-width:1.00000012;stroke-linecap:round;stroke-linejoin:miter;stroke-miterlimit:4;stroke-dasharray:none;stroke-dashoffset:0;stroke-opacity:1"
         d="M 7.9557575,-22.292184 C 4.7566116,-21.434975 2.8559071,-18.142859 3.7131155,-14.943714 C 3.8005738,-14.617315 3.927024,-14.299869 4.0624901,-14.002052 L 15.472491,-17.059351 C 15.440899,-17.385001 15.391686,-17.723143 15.304227,-18.049542 C 14.447019,-21.248687 11.154903,-23.149392 7.9557575,-22.292184 z"
         id="path2840"
         inkscape:transform-center-x="0.027159543"
         inkscape:transform-center-y="-1.7187079" />
      <path
         style="fill:#ef2929;fill-opacity:1;stroke:#a40000;stroke-width:1.00000012;stroke-linecap:round;stroke-linejoin:miter;stroke-miterlimit:4;stroke-dasharray:none;stroke-dashoffset:0;stroke-opacity:1"
         d="M 40.051683,-22.294327 C 43.250828,-21.437118 45.151533,-18.145002 44.294325,-14.945857 C 44.206866,-14.619458 44.080416,-14.302012 43.94495,-14.004195 L 32.534949,-17.061494 C 32.566541,-17.387144 32.615754,-17.725286 32.703213,-18.051685 C 33.560421,-21.25083 36.852537,-23.151535 40.051683,-22.294327 z"
         id="path2842"
         inkscape:transform-center-x="0.027159543"
         inkscape:transform-center-y="-1.7187079" />
    </g>
    <path
       style="fill:url(#linearGradient2552);fill-opacity:1"
       d="M 24.000135,4 C 14.682191,4 6.9987131,8.0323438 6.219675,13.179688 C 5.7137016,14.254895 5.6079215,15.501721 5.9443139,16.734375 C 5.9574406,16.782471 5.9689158,16.843194 5.9836512,16.890625 C 5.9900219,16.968511 6.0409566,17.085769 6.0623258,17.164062 L 6.2590121,18.023438 C 6.4481261,18.716412 7.1660671,19.107555 7.8718421,18.921875 L 15.699964,16.890625 C 16.40575,16.704945 16.793836,15.982034 16.604723,15.289062 L 16.408036,14.429688 C 16.384399,14.343065 16.329198,14.233372 16.290024,14.15625 C 16.278338,14.101855 16.265246,14.053327 16.250686,14 C 16.065226,13.320385 15.755034,12.730464 15.345929,12.203125 C 16.573235,9.9724213 19.980515,8.375 24.000135,8.375 C 28.019768,8.375 31.427034,9.9724213 32.654342,12.203125 C 32.246633,12.729634 31.934616,13.321965 31.749583,14 C 31.739724,14.036091 31.75886,14.080572 31.749583,14.117188 C 31.697019,14.209521 31.621451,14.322626 31.592234,14.429688 L 31.395548,15.289062 C 31.206436,15.982035 31.594522,16.704944 32.300306,16.890625 L 40.128429,18.921875 C 40.834209,19.107555 41.552144,18.716412 41.741258,18.023438 L 41.937945,17.164062 C 41.961595,17.077439 42.011272,16.97665 42.01662,16.890625 C 42.031353,16.843195 42.042828,16.78247 42.055956,16.734375 C 42.399391,15.475895 42.273433,14.191805 41.741258,13.101562 C 40.89359,7.9934388 33.268421,4 24.000135,4 z M 14.323159,18.375 C 12.969152,18.463765 11.621693,19.586559 11.608885,20.992188 L 11.608885,29.429688 C 12.978712,29.743181 14.388022,30.002498 15.857313,30.210938 L 15.857313,29.859375 C 15.857313,29.495879 16.177551,29.195312 16.565385,29.195312 L 19.200985,29.195312 C 19.588831,29.195312 19.909056,29.49588 19.909056,29.859375 L 19.909056,30.640625 C 20.573905,30.68659 21.237423,30.73416 21.915258,30.757812 L 21.915258,29.859375 C 21.915257,29.495879 22.235494,29.195312 22.623329,29.195312 L 25.219591,29.195312 C 25.607435,29.195312 25.927663,29.49588 25.927663,29.859375 L 25.927663,30.757812 C 26.605359,30.735951 27.269001,30.684785 27.933866,30.640625 L 27.933866,29.859375 C 27.933866,29.495879 28.254093,29.195312 28.641937,29.195312 L 31.316874,29.195312 C 31.70471,29.195312 31.985607,29.49588 31.985607,29.859375 L 31.985607,30.210938 C 33.451525,30.007193 34.866042,29.776967 36.234036,29.46875 L 36.234036,20.992188 C 36.143626,19.410978 34.990705,18.375972 33.559099,18.375 L 14.323159,18.375 z M 16.565385,22.554688 L 19.200985,22.554688 C 19.588831,22.554688 19.909056,22.816192 19.909056,23.179688 L 19.909056,25.875 C 19.909057,26.238495 19.588833,26.5 19.200985,26.5 L 16.565385,26.5 C 16.177553,26.5 15.857313,26.238496 15.857313,25.875 L 15.857313,23.179688 C 15.857313,22.816192 16.177551,22.554688 16.565385,22.554688 z M 22.623329,22.554688 L 25.219591,22.554688 C 25.607435,22.554688 25.927663,22.816192 25.927663,23.179688 L 25.927663,25.875 C 25.927662,26.238495 25.607436,26.5 25.219591,26.5 L 22.623329,26.5 C 22.235494,26.5 21.915258,26.238496 21.915258,25.875 L 21.915258,23.179688 C 21.915257,22.816192 22.235494,22.554688 22.623329,22.554688 z M 28.641937,22.554688 L 31.316874,22.554688 C 31.70471,22.554688 31.985607,22.816192 31.985607,23.179688 L 31.985607,25.875 C 31.985607,26.238495 31.704709,26.5 31.316874,26.5 L 28.641937,26.5 C 28.254092,26.5 27.933866,26.238496 27.933866,25.875 L 27.933866,23.179688 C 27.933866,22.816192 28.254093,22.554688 28.641937,22.554688 z"
       id="path2545" />
  </g>
</svg>
