<?xml version="1.0" encoding="UTF-8" standalone="no"?>
<!-- Created with Inkscape (http://www.inkscape.org/) -->

<svg
   xmlns:dc="http://purl.org/dc/elements/1.1/"
   xmlns:cc="http://creativecommons.org/ns#"
   xmlns:rdf="http://www.w3.org/1999/02/22-rdf-syntax-ns#"
   xmlns:svg="http://www.w3.org/2000/svg"
   xmlns="http://www.w3.org/2000/svg"
   xmlns:xlink="http://www.w3.org/1999/xlink"
   xmlns:sodipodi="http://sodipodi.sourceforge.net/DTD/sodipodi-0.dtd"
   xmlns:inkscape="http://www.inkscape.org/namespaces/inkscape"
   width="48px"
   height="48px"
   id="svg3784"
   version="1.1"
   inkscape:version="0.47 r22583"
   sodipodi:docname="print.svg">
  <defs
     id="defs3786">
    <linearGradient
       inkscape:collect="always"
       xlink:href="#linearGradient3172-5"
       id="linearGradient3782"
       gradientUnits="userSpaceOnUse"
       gradientTransform="matrix(0.644962,0,0,1.1832362,9.235153,4.016337)"
       x1="22.892584"
       y1="0.90414524"
       x2="22.892584"
       y2="21.132059" />
    <linearGradient
       id="linearGradient3172-5">
      <stop
         id="stop3174-0"
         offset="0"
         style="stop-color:#4d4d4d;stop-opacity:1;" />
      <stop
         id="stop3176-0"
         offset="1"
         style="stop-color:#4d4d4d;stop-opacity:0;" />
    </linearGradient>
  </defs>
  <sodipodi:namedview
     id="base"
     pagecolor="#ffffff"
     bordercolor="#666666"
     borderopacity="1.0"
     inkscape:pageopacity="0.0"
     inkscape:pageshadow="2"
     inkscape:zoom="7"
     inkscape:cx="24"
     inkscape:cy="24"
     inkscape:current-layer="layer1"
     showgrid="true"
     inkscape:grid-bbox="true"
     inkscape:document-units="px"
     inkscape:window-width="1364"
     inkscape:window-height="721"
     inkscape:window-x="0"
     inkscape:window-y="23"
     inkscape:window-maximized="1" />
  <metadata
     id="metadata3789">
    <rdf:RDF>
      <cc:Work
         rdf:about="">
        <dc:format>image/svg+xml</dc:format>
        <dc:type
           rdf:resource="http://purl.org/dc/dcmitype/StillImage" />
        <dc:title></dc:title>
      </cc:Work>
    </rdf:RDF>
  </metadata>
  <g
     id="layer1"
     inkscape:label="Layer 1"
     inkscape:groupmode="layer">
    <path
       style="fill:#000000;fill-opacity:1;fill-rule:nonzero;stroke:none;stroke-width:1.00000012;marker:none;visibility:visible;display:inline;overflow:visible"
       d="M 13.4375,7.25 C 12.63974,7.25 12,7.8270464 12,8.5625004 l 0,5.7187496 0,6.1875 0,5.71875 c 0,0.735454 0.63974,1.3125 1.4375,1.3125 l 21.125,0 C 35.36026,27.5 36,26.922954 36,26.1875 l 0,-5.71875 0,-6.1875 0,-5.7187496 C 36,7.8270464 35.36026,7.25 34.5625,7.25 l -21.125,0 z m -6,12.90625 C 5.617236,20.15625 4,21.693618 4,23.5625 L 4,26.09375 4,37.3125 C 4,39.181382 5.617236,40.75 7.4375,40.75 l 33.125,0 C 42.382764,40.75 44,39.181382 44,37.3125 l 0,-11.21875 0,-2.53125 c 0,-1.868882 -1.617236,-3.40625 -3.4375,-3.40625 l -3.8125,0 0,3.5 0,2.4375 0,0.09375 c 0,1.170383 -1.028074,2.0625 -2.1875,2.0625 l -21.125,0 c -1.159426,0 -2.1875,-0.892117 -2.1875,-2.0625 l 0,-0.09375 0,-2.4375 0,-3.5 -3.8125,0 z m 5.65625,16.40625 21.8125,0 c 0.204089,0 0.390378,0.01437 0.59375,0.125 0.203372,0.110628 0.5,0.389419 0.5,0.8125 l 0,0.5625 c 0,0.423081 -0.296628,0.670622 -0.5,0.78125 C 35.296628,38.95438 35.110339,39 34.90625,39 l -21.8125,0 C 12.889661,39 12.703372,38.95438 12.5,38.84375 12.296628,38.733122 12,38.485581 12,38.0625 L 12,37.5 c 0,-0.423081 0.296628,-0.701872 0.5,-0.8125 0.203372,-0.11063 0.389661,-0.125 0.59375,-0.125 z"
       id="rect1314"
       sodipodi:nodetypes="ccccccccccccccccccccccccccccccccccccsccsccsccsc" />
    <path
       style="fill:url(#linearGradient3782);fill-opacity:1;stroke:none"
       d="m 24,29.65625 c -3.968612,0 -7.7013,-0.537019 -11,-1.4375 0.139072,0.02668 0.292572,0.03125 0.4375,0.03125 l 21.125,0 c 0.144928,0 0.298428,-0.0046 0.4375,-0.03125 -3.2987,0.900481 -7.031388,1.4375 -11,1.4375 z m 11,-1.4375 c 0.973505,-0.186758 1.75,-1.007165 1.75,-2.03125 l 0,-0.09375 0,-2.4375 0,-3.5 3.8125,0 c 1.820264,0 3.4375,1.537368 3.4375,3.40625 l 0,0.40625 c -2.256083,1.791371 -5.358512,3.255945 -9,4.25 z m -22,0 C 9.358512,27.224695 6.256083,25.760121 4,23.96875 L 4,23.5625 c 0,-1.868882 1.617236,-3.40625 3.4375,-3.40625 l 3.8125,0 0,3.5 0,2.4375 0,0.09375 c 0,1.024085 0.776495,1.844492 1.75,2.03125 z M 13.4375,27.5 C 12.63974,27.5 12,26.922954 12,26.1875 l 0,-5.71875 0,-6.1875 0,-5.7187496 C 12,7.8270464 12.63974,7.25 13.4375,7.25 l 21.125,0 C 35.36026,7.25 36,7.8270464 36,8.5625004 l 0,5.7187496 0,6.1875 0,5.71875 C 36,26.922954 35.36026,27.5 34.5625,27.5 l -21.125,0 z"
       id="path3768"
       sodipodi:nodetypes="ccccccccccccccccccccccccccccccccccccc" />
  </g>
</svg>
