<?xml version="1.0" encoding="UTF-8" standalone="no"?>
<!-- Created with Inkscape (http://www.inkscape.org/) -->

<svg
   xmlns:dc="http://purl.org/dc/elements/1.1/"
   xmlns:cc="http://creativecommons.org/ns#"
   xmlns:rdf="http://www.w3.org/1999/02/22-rdf-syntax-ns#"
   xmlns:svg="http://www.w3.org/2000/svg"
   xmlns="http://www.w3.org/2000/svg"
   xmlns:xlink="http://www.w3.org/1999/xlink"
   xmlns:sodipodi="http://sodipodi.sourceforge.net/DTD/sodipodi-0.dtd"
   xmlns:inkscape="http://www.inkscape.org/namespaces/inkscape"
   width="48px"
   height="48px"
   id="svg2875"
   version="1.1"
   inkscape:version="0.47 r22583"
   sodipodi:docname="Nouveau document 2">
  <defs
     id="defs2877">
    <linearGradient
       gradientUnits="userSpaceOnUse"
       y2="21.132059"
       x2="22.892584"
       y1="0.90414524"
       x1="22.892584"
       id="linearGradient3178"
       xlink:href="#linearGradient3172"
       inkscape:collect="always" />
    <linearGradient
       id="linearGradient3172">
      <stop
         id="stop3174"
         offset="0"
         style="stop-color:#4d4d4d;stop-opacity:1;" />
      <stop
         id="stop3176"
         offset="1"
         style="stop-color:#4d4d4d;stop-opacity:0;" />
    </linearGradient>
    <linearGradient
       inkscape:collect="always"
       xlink:href="#linearGradient3172"
       id="linearGradient3006"
       gradientUnits="userSpaceOnUse"
       x1="22.892584"
       y1="0.90414524"
       x2="22.892584"
       y2="21.132059" />
    <linearGradient
       inkscape:collect="always"
       xlink:href="#linearGradient3172"
       id="linearGradient3011"
       gradientUnits="userSpaceOnUse"
       x1="22.892584"
       y1="0.90414524"
       x2="22.892584"
       y2="21.132059"
       gradientTransform="matrix(0.644962,0,0,-1.1832362,59.235153,43.983663)" />
    <linearGradient
       inkscape:collect="always"
       xlink:href="#linearGradient3172"
       id="linearGradient3015"
       gradientUnits="userSpaceOnUse"
       gradientTransform="matrix(0.644962,0,0,1.1832362,9.235153,4.0163369)"
       x1="22.892584"
       y1="0.90414524"
       x2="22.892584"
       y2="21.132059" />
  </defs>
  <sodipodi:namedview
     id="base"
     pagecolor="#ffffff"
     bordercolor="#666666"
     borderopacity="1.0"
     inkscape:pageopacity="0.0"
     inkscape:pageshadow="2"
     inkscape:zoom="7"
     inkscape:cx="24"
     inkscape:cy="24"
     inkscape:current-layer="layer1"
     showgrid="true"
     inkscape:grid-bbox="true"
     inkscape:document-units="px"
     inkscape:window-width="1364"
     inkscape:window-height="719"
     inkscape:window-x="0"
     inkscape:window-y="25"
     inkscape:window-maximized="1" />
  <metadata
     id="metadata2880">
    <rdf:RDF>
      <cc:Work
         rdf:about="">
        <dc:format>image/svg+xml</dc:format>
        <dc:type
           rdf:resource="http://purl.org/dc/dcmitype/StillImage" />
        <dc:title></dc:title>
      </cc:Work>
    </rdf:RDF>
  </metadata>
  <g
     id="layer1"
     inkscape:label="Layer 1"
     inkscape:groupmode="layer">
    <g
       transform="matrix(0.83333333,0,0,0.6984127,4,7.9365079)"
       id="g21841"
       inkscape:label="Layer 1">
      <path
         style="fill:#000000;fill-opacity:1;fill-rule:evenodd;stroke:none"
         d="M 2.46875,7.25 C 1.1143974,7.25 0,8.437427 0,9.9375 l 0,26.125 c 0,1.500073 1.1143975,2.687502 2.46875,2.6875 l 43.0625,0 c 1.354353,0 2.468749,-1.187428 2.46875,-2.6875 L 48,9.9375 C 48,8.4374268 46.885601,7.25 45.53125,7.25 l -43.0625,0 z m 1.15625,5.28125 4.78125,0 0,4 -4.78125,0 0,-4 z m 7.1875,0 4.78125,0 0,4 -4.78125,0 0,-4 z m 7.1875,0 4.8125,0 0,4 -4.8125,0 0,-4 z m 7.1875,0 4.8125,0 0,4 -4.8125,0 0,-4 z m 7.21875,0 4.78125,0 0,4 -4.78125,0 0,-4 z m 7.1875,0 4.78125,0 0,4 -4.78125,0 0,-4 z M 7.21875,21 12,21 l 0,4 -4.78125,0 0,-4 z m 7.1875,0 4.78125,0 0,4 -4.78125,0 0,-4 z m 7.1875,0 4.8125,0 0,4 -4.8125,0 0,-4 z m 7.21875,0 4.78125,0 0,4 -4.78125,0 0,-4 z M 36,21 l 4.78125,0 0,4 L 36,25 36,21 z m -32.375,8.46875 5.96875,0 0,4 -5.96875,0 0,-4 z m 8.375,0 22.78125,0 0,4 -22.78125,0 0,-4 z m 25.1875,0 7.1875,0 0,4 -7.1875,0 0,-4 z"
         id="rect1880" />
    </g>
    <g
       transform="matrix(0.1337942,0,0,-0.1337942,31.527762,89.04701)"
       inkscape:label="Calque 1"
       id="g3002" />
    <g
       transform="matrix(0.1672428,0,0,-0.1672428,38.442916,104.62323)"
       inkscape:label="Calque 1"
       id="g3004" />
    <path
       style="fill:url(#linearGradient3015);fill-opacity:1;stroke:none"
       d="m 32.96875,28.71875 0,-0.1875 -18.8125,0 C 10.011002,27.545468 6.492482,25.947827 4,23.96875 L 4,14.875 C 4,13.82733 4.933872,13 6.0625,13 l 35.875,0 C 43.066126,13 44,13.82733 44,14.875 l 0,9.09375 c -2.666074,2.116911 -6.506258,3.786475 -11.03125,4.75 z M 10,25.40625 l 4,0 0,-2.8125 -4,0 0,2.8125 z m 6,0 4,0 0,-2.8125 -4,0 0,2.8125 z m 6,0 4,0 0,-2.8125 -4,0 0,2.8125 z m 6,0 4,0 0,-2.8125 -4,0 0,2.8125 z m 6,0 3.96875,0 0,-2.8125 -3.96875,0 0,2.8125 z m -26.96875,-5.9375 3.96875,0 0,-2.78125 -3.96875,0 0,2.78125 z m 5.96875,0 4,0 0,-2.78125 -4,0 0,2.78125 z m 6,0 4,0 0,-2.78125 -4,0 0,2.78125 z m 6,0 4,0 0,-2.78125 -4,0 0,2.78125 z m 6,0 4,0 0,-2.78125 -4,0 0,2.78125 z m 6,0 3.96875,0 0,-2.78125 -3.96875,0 0,2.78125 z"
       id="path3000" />
  </g>
</svg>
