<?xml version="1.0" encoding="UTF-8" standalone="no"?>
<!-- Created with Inkscape (http://www.inkscape.org/) -->

<svg
   xmlns:dc="http://purl.org/dc/elements/1.1/"
   xmlns:cc="http://creativecommons.org/ns#"
   xmlns:rdf="http://www.w3.org/1999/02/22-rdf-syntax-ns#"
   xmlns:svg="http://www.w3.org/2000/svg"
   xmlns="http://www.w3.org/2000/svg"
   xmlns:xlink="http://www.w3.org/1999/xlink"
   xmlns:sodipodi="http://sodipodi.sourceforge.net/DTD/sodipodi-0.dtd"
   xmlns:inkscape="http://www.inkscape.org/namespaces/inkscape"
   width="48px"
   height="48px"
   id="svg2823"
   version="1.1"
   inkscape:version="0.47 r22583"
   sodipodi:docname="stock_edit.svg">
  <defs
     id="defs2825">
    <linearGradient
       id="linearGradient4321">
      <stop
         style="stop-color:#000000;stop-opacity:1.0;"
         offset="0"
         id="stop1" />
      <stop
         style="stop-color:#000000;stop-opacity:1.0;"
         offset="1"
         id="stop2" />
    </linearGradient>
    <linearGradient
       inkscape:collect="always"
       xlink:href="#linearGradient4321"
       id="linearGradient3633"
       gradientUnits="userSpaceOnUse"
       gradientTransform="matrix(0.63076692,-0.0024591,0.0024591,0.63076692,2.6362976,14.995133)"
       x1="2"
       y1="2.000001"
       x2="46"
       y2="46.000001" />
    <linearGradient
       gradientUnits="userSpaceOnUse"
       y2="21.132059"
       x2="22.892584"
       y1="0.90414524"
       x1="22.892584"
       id="linearGradient3178"
       xlink:href="#linearGradient3172"
       inkscape:collect="always" />
    <linearGradient
       id="linearGradient3172">
      <stop
         id="stop3174"
         offset="0"
         style="stop-color:#4d4d4d;stop-opacity:1;" />
      <stop
         id="stop3176"
         offset="1"
         style="stop-color:#4d4d4d;stop-opacity:0;" />
    </linearGradient>
    <linearGradient
       inkscape:collect="always"
       xlink:href="#linearGradient3172"
       id="linearGradient3744"
       gradientUnits="userSpaceOnUse"
       x1="22.892584"
       y1="0.90414524"
       x2="22.892584"
       y2="21.132059" />
    <linearGradient
       inkscape:collect="always"
       xlink:href="#linearGradient3172"
       id="linearGradient3749"
       gradientUnits="userSpaceOnUse"
       x1="22.892584"
       y1="0.90414524"
       x2="22.892584"
       y2="21.132059"
       gradientTransform="matrix(0.644962,0,0,-1.1832362,59.235153,43.983663)" />
    <linearGradient
       inkscape:collect="always"
       xlink:href="#linearGradient3172"
       id="linearGradient3752"
       gradientUnits="userSpaceOnUse"
       gradientTransform="matrix(0.644962,0,0,1.1832362,9.234653,4.02211)"
       x1="22.892584"
       y1="0.90414524"
       x2="22.892584"
       y2="21.132059" />
  </defs>
  <sodipodi:namedview
     id="base"
     pagecolor="#ffffff"
     bordercolor="#666666"
     borderopacity="1.0"
     inkscape:pageopacity="0.0"
     inkscape:pageshadow="2"
     inkscape:zoom="2.4748737"
     inkscape:cx="36.635566"
     inkscape:cy="23.851722"
     inkscape:current-layer="layer1"
     showgrid="true"
     inkscape:grid-bbox="true"
     inkscape:document-units="px"
     inkscape:window-width="1364"
     inkscape:window-height="719"
     inkscape:window-x="0"
     inkscape:window-y="25"
     inkscape:window-maximized="1" />
  <metadata
     id="metadata2828">
    <rdf:RDF>
      <cc:Work
         rdf:about="">
        <dc:format>image/svg+xml</dc:format>
        <dc:type
           rdf:resource="http://purl.org/dc/dcmitype/StillImage" />
        <dc:title />
      </cc:Work>
    </rdf:RDF>
  </metadata>
  <g
     id="layer1"
     inkscape:label="Layer 1"
     inkscape:groupmode="layer">
    <g
       id="g2453"
       inkscape:label="Calque 1"
       transform="matrix(0.1337942,0,0,-0.1337942,-18.472238,89.04701)" />
    <g
       id="g2615"
       inkscape:label="Calque 1"
       transform="matrix(0.1672428,0,0,-0.1672428,-11.557084,104.62323)" />
    <g
       transform="matrix(0.1337942,0,0,-0.1337942,31.527762,89.04701)"
       inkscape:label="Calque 1"
       id="g2933" />
    <g
       transform="matrix(0.1672428,0,0,-0.1672428,38.442916,104.62323)"
       inkscape:label="Calque 1"
       id="g2935" />
    <path
       style="font-size:medium;font-style:normal;font-variant:normal;font-weight:normal;font-stretch:normal;text-indent:0;text-align:start;text-decoration:none;line-height:normal;letter-spacing:normal;word-spacing:normal;text-transform:none;direction:ltr;block-progression:tb;writing-mode:lr-tb;text-anchor:start;color:#000000;fill:#000000;fill-opacity:1;fill-rule:nonzero;stroke:none;stroke-width:1.94245255;marker:none;visibility:visible;display:inline;overflow:visible;enable-background:accumulate;font-family:Bitstream Charter;-inkscape-font-specification:Bitstream Charter"
       d="m 36.25,4 c -0.373887,0.0015 -0.715886,0.127905 -1,0.40625 L 7.5,31.78125 c -0.15128,0.161495 -0.250654,0.352583 -0.3125,0.5625 l -3.125,9.8125 C 3.9350944,42.55552 3.986827,42.991735 4.21875,43.34375 4.450669,43.695767 4.82346,43.945231 5.25,44 5.497044,44.02426 5.771911,43.9704 6,43.875 l 8.9375,-3.40625 c 0.176773,-0.07505 0.335302,-0.177151 0.46875,-0.3125 L 28,27.8125 28,19.96875 C 27.9976,18.929534 28.747159,18.103058 29.78125,18 l 0.03125,0 c 0.05268,-0.0025 0.10355,-0.0017 0.15625,0 0.01054,3.37e-4 0.02071,-5.06e-4 0.03125,0 l 8,0 5.625,-5.5 c 0.568578,-0.556354 0.479166,-1.385613 -0.09375,-1.9375 l -6.125,-6.21875 C 37.119979,4.067626 36.623889,3.998543 36.25,4 z M 29.875,19 C 29.40019,19.04732 28.998913,19.491589 29,19.96875 l 0,23.0625 c 0.0013,0.506869 0.461882,0.967409 0.96875,0.96875 l 12.0625,0 C 42.538119,43.9987 42.998659,43.538119 43,43.03125 l 0,-23.0625 C 42.9987,19.461881 42.538119,19.001341 42.03125,19 l -12.0625,0 C 29.93753,18.9985 29.90623,18.9985 29.875,19 z m 0.3125,12.75 11.625,0 0,10.46875 c -0.0062,0.309151 -0.284599,0.587556 -0.59375,0.59375 l -10.4375,0 C 30.472099,42.8063 30.193695,42.527901 30.1875,42.21875 l 0,-10.46875 z M 8.4375,32.96875 11.59375,33.3125 14.375,36 l 0.34375,2.6875 -5.78125,2.53125 -2.3125,-2.375 1.8125,-5.875 z"
       id="rect2831" />
    <path
       style="fill:url(#linearGradient3752);fill-opacity:1;stroke:none"
       d="m 23.9995,29.662023 c -4.561886,0 -8.804629,-0.708283 -12.4375,-1.875 l 23.6875,-23.375 c 0.284114,-0.278345 0.626113,-0.40475 1,-0.40625 0.373889,-0.0015 0.869979,0.06763 1.15625,0.34375 l 6.125,6.21875 c 0.572916,0.551887 0.662328,1.381146 0.09375,1.9375 l -5.625,5.5 -8,0 c -0.01054,-5.06e-4 -0.02071,3.37e-4 -0.03125,0 -0.0527,-0.0017 -0.10357,-0.0025 -0.15625,0 l -0.03125,0 c -1.034091,0.103058 -1.78365,0.929534 -1.78125,1.96875 l 0,7.84375 -1.8125,1.78125 c -0.725968,0.03491 -1.444367,0.0625 -2.1875,0.0625 z m 5,-0.3125 0,-9.375 c -0.0011,-0.477161 0.40019,-0.92143 0.875,-0.96875 0.03123,-0.0015 0.06253,-0.0015 0.09375,0 l 12.0625,0 c 0.506869,0.0013 0.96745,0.461881 0.96875,0.96875 l 0,4.71875 c -3.417894,2.336496 -8.331466,4.022526 -14,4.65625 z"
       id="path3738" />
    <g
       transform="matrix(0.1337942,0,0,-0.1337942,31.527762,89.04701)"
       inkscape:label="Calque 1"
       id="g3740" />
    <g
       transform="matrix(0.1672428,0,0,-0.1672428,38.442916,104.62323)"
       inkscape:label="Calque 1"
       id="g3742" />
  </g>
</svg>
