<?xml version="1.0" encoding="UTF-8" standalone="no"?>
<!-- Created with Inkscape (http://www.inkscape.org/) -->

<svg
   xmlns:dc="http://purl.org/dc/elements/1.1/"
   xmlns:cc="http://creativecommons.org/ns#"
   xmlns:rdf="http://www.w3.org/1999/02/22-rdf-syntax-ns#"
   xmlns:svg="http://www.w3.org/2000/svg"
   xmlns="http://www.w3.org/2000/svg"
   xmlns:xlink="http://www.w3.org/1999/xlink"
   xmlns:sodipodi="http://sodipodi.sourceforge.net/DTD/sodipodi-0.dtd"
   xmlns:inkscape="http://www.inkscape.org/namespaces/inkscape"
   width="48px"
   height="48px"
   id="svg2842"
   version="1.1"
   inkscape:version="0.47 r22583"
   sodipodi:docname="Nouveau document 3">
  <defs
     id="defs2844">
    <linearGradient
       gradientUnits="userSpaceOnUse"
       y2="21.132059"
       x2="22.892584"
       y1="0.90414524"
       x1="22.892584"
       id="linearGradient3178"
       xlink:href="#linearGradient3172"
       inkscape:collect="always" />
    <linearGradient
       id="linearGradient3172">
      <stop
         id="stop3174"
         offset="0"
         style="stop-color:#4d4d4d;stop-opacity:1;" />
      <stop
         id="stop3176"
         offset="1"
         style="stop-color:#4d4d4d;stop-opacity:0;" />
    </linearGradient>
    <linearGradient
       inkscape:collect="always"
       xlink:href="#linearGradient3172"
       id="linearGradient2969"
       gradientUnits="userSpaceOnUse"
       x1="22.892584"
       y1="0.90414524"
       x2="22.892584"
       y2="21.132059" />
    <linearGradient
       inkscape:collect="always"
       xlink:href="#linearGradient3172"
       id="linearGradient2974"
       gradientUnits="userSpaceOnUse"
       x1="22.892584"
       y1="0.90414524"
       x2="22.892584"
       y2="21.132059"
       gradientTransform="matrix(0.644962,0,0,-1.1832362,59.235153,43.983663)" />
    <linearGradient
       inkscape:collect="always"
       xlink:href="#linearGradient3172"
       id="linearGradient2977"
       gradientUnits="userSpaceOnUse"
       gradientTransform="matrix(0.644962,0,0,1.1832362,9.235653,4.016337)"
       x1="22.892584"
       y1="0.90414524"
       x2="22.892584"
       y2="21.132059" />
  </defs>
  <sodipodi:namedview
     id="base"
     pagecolor="#ffffff"
     bordercolor="#666666"
     borderopacity="1.0"
     inkscape:pageopacity="0.0"
     inkscape:pageshadow="2"
     inkscape:zoom="7"
     inkscape:cx="24"
     inkscape:cy="24"
     inkscape:current-layer="layer1"
     showgrid="true"
     inkscape:grid-bbox="true"
     inkscape:document-units="px"
     inkscape:window-width="1364"
     inkscape:window-height="721"
     inkscape:window-x="0"
     inkscape:window-y="23"
     inkscape:window-maximized="1" />
  <metadata
     id="metadata2847">
    <rdf:RDF>
      <cc:Work
         rdf:about="">
        <dc:format>image/svg+xml</dc:format>
        <dc:type
           rdf:resource="http://purl.org/dc/dcmitype/StillImage" />
        <dc:title></dc:title>
      </cc:Work>
    </rdf:RDF>
  </metadata>
  <g
     id="layer1"
     inkscape:label="Layer 1"
     inkscape:groupmode="layer">
    <path
       id="path3252"
       d="M 10.27025,4 C 8.849549,4 7.677,5.137028 7.677,6.557726 l 0,34.849024 C 7.676997,42.827448 8.849553,44 10.27025,44 l 27.460036,0 c 1.420701,0 2.593254,-1.172554 2.59325,-2.59325 l 0,-34.849024 C 40.323539,5.137028 39.150987,4 37.730286,4 L 10.27025,4 z m 1.776199,5.150977 0.248668,0 6.78508,0 0.248668,0 9.271758,0 0.248668,0 6.78508,0 0.248668,0 c 0.52106,1e-6 0.959148,0.402561 0.959148,0.923623 l 0,5.506217 c 0,0.52106 -0.438087,0.959145 -0.959148,0.959147 l -0.248668,0 -6.78508,0 -0.248668,0 -9.271758,0 -0.248668,0 -6.78508,0 -0.248668,0 c -0.521059,2e-6 -0.959144,-0.438087 -0.959147,-0.959147 l 0,-5.506217 c 0,-0.521059 0.43809,-0.923622 0.959147,-0.923623 z m -0.142096,10.976909 3.055063,0 c 0.462211,1e-6 0.817051,0.390365 0.817051,0.852576 l 0,3.019538 c 10e-7,0.462213 -0.354841,0.852573 -0.817051,0.852575 l -3.055063,0 C 11.44214,24.852577 11.087302,24.462211 11.087302,24 l 0,-3.019538 c 0,-0.462212 0.35484,-0.852577 0.817051,-0.852576 z m 7.069272,0 2.984014,0 c 0.462212,1e-6 0.852579,0.390365 0.852576,0.852576 l 0,3.019538 c 1e-6,0.462213 -0.390358,0.852573 -0.852576,0.852575 l -2.984014,0 C 18.511412,24.852575 18.12105,24.462211 18.12105,24 l 0,-3.019538 c 0,-0.462212 0.390368,-0.852577 0.852575,-0.852576 z m 7.033748,0 2.984014,0 c 0.462212,1e-6 0.852579,0.390365 0.852576,0.852576 l 0,3.019538 c 0,0.462213 -0.390359,0.852573 -0.852576,0.852575 l -2.984014,0 C 25.54516,24.852575 25.1548,24.462211 25.154798,24 l 0,-3.019538 c 0,-0.462212 0.390365,-0.852577 0.852575,-0.852576 z m 7.069272,0 2.984014,0 c 0.462212,1e-6 0.852579,0.390363 0.852575,0.852576 l 0,3.019538 c 0,0.462213 -0.390359,0.852577 -0.852575,0.852575 l -2.984014,0 c -0.462213,0 -0.852573,-0.390362 -0.852576,-0.852575 l 0,-3.019538 c 0,-0.462212 0.390366,-0.852578 0.852576,-0.852576 z m -21.172292,7.921848 3.055063,0 c 0.462211,10e-7 0.817051,0.354837 0.817051,0.817051 l 0,3.019538 c 10e-7,0.46221 -0.354841,0.817052 -0.817051,0.817052 l -3.055063,0 c -0.462213,0 -0.817051,-0.354842 -0.817051,-0.817052 l 0,-3.019538 c 0,-0.462212 0.35484,-0.817054 0.817051,-0.817051 z m 7.069272,0 2.984014,0 c 0.462212,10e-7 0.852579,0.354837 0.852576,0.817051 l 0,3.019538 c 1e-6,0.46221 -0.390358,0.817052 -0.852576,0.817052 l -2.984014,0 c -0.462213,0 -0.852575,-0.354842 -0.852575,-0.817052 l 0,-3.019538 c 0,-0.462212 0.390368,-0.817054 0.852575,-0.817051 z m 7.033748,0 2.984014,0 c 0.462212,10e-7 0.852579,0.354837 0.852576,0.817051 l 0,3.019538 c 0,0.46221 -0.390359,0.817052 -0.852576,0.817052 l -2.984014,0 c -0.462213,0 -0.852573,-0.354842 -0.852575,-0.817052 l 0,-3.019538 c 0,-0.462212 0.390365,-0.817054 0.852575,-0.817051 z m 7.069272,0 2.984014,0 c 0.462212,10e-7 0.852579,0.35484 0.852575,0.817051 l 0,3.019538 c 0,0.46221 -0.390359,0.817052 -0.852575,0.817052 l -2.984014,0 c -0.462213,0 -0.852573,-0.354842 -0.852576,-0.817052 l 0,-3.019538 c 0,-0.462212 0.390366,-0.817051 0.852576,-0.817051 z m -21.172292,7.779751 3.055063,0 c 0.462211,1e-6 0.817051,0.390361 0.817051,0.852575 l 0,3.019539 c 10e-7,0.462213 -0.354841,0.852569 -0.817051,0.852575 l -3.055063,0 c -0.462213,10e-7 -0.817051,-0.390368 -0.817051,-0.852575 l 0,-3.019539 c 0,-0.462211 0.35484,-0.85258 0.817051,-0.852575 z m 7.069272,0 2.984014,0 c 0.462212,1e-6 0.852579,0.390361 0.852576,0.852575 l 0,3.019539 c 1e-6,0.462213 -0.390358,0.852569 -0.852576,0.852575 l -2.984014,0 c -0.462213,0 -0.852575,-0.390368 -0.852575,-0.852575 l 0,-3.019539 c 0,-0.462211 0.390368,-0.85258 0.852575,-0.852575 z m 7.033748,0 2.984014,0 c 0.462212,1e-6 0.852579,0.390361 0.852576,0.852575 l 0,3.019539 c 0,0.462213 -0.390359,0.852569 -0.852576,0.852575 l -2.984014,0 c -0.462213,0 -0.852573,-0.390368 -0.852575,-0.852575 l 0,-3.019539 c 0,-0.462211 0.390365,-0.85258 0.852575,-0.852575 z m 7.069272,0 2.984014,0 c 0.462212,1e-6 0.852579,0.390359 0.852575,0.852575 l 0,3.019539 c 0,0.462213 -0.390359,0.852573 -0.852575,0.852575 l -2.984014,0 c -0.462213,0 -0.852573,-0.390366 -0.852576,-0.852575 l 0,-3.019539 c 0,-0.462211 0.390366,-0.852581 0.852576,-0.852575 z"
       style="fill:#000000;fill-opacity:1;fill-rule:evenodd;stroke:none" />
    <path
       style="fill:url(#linearGradient2977);fill-opacity:1;stroke:none"
       d="m 24.0005,29.65625 c -0.403392,0 -0.78897,-0.02086 -1.1875,-0.03125 l 0,-0.75 c 3e-6,-0.462214 -0.381538,-0.812499 -0.84375,-0.8125 l -3,0 c -0.462207,-3e-6 -0.84375,0.350288 -0.84375,0.8125 l 0,0.34375 c -0.797994,-0.106237 -1.579742,-0.19652 -2.34375,-0.34375 0,-0.462214 -0.350289,-0.812499 -0.8125,-0.8125 l -2.59375,0 C 10.669543,27.562847 9.106845,26.945497 7.688,26.25 l 0,-19.6875 C 7.688,5.141802 8.861049,4 10.28175,4 l 27.4375,0 c 1.420701,0 2.593753,1.141802 2.59375,2.5625 l 0,19.6875 c -1.418845,0.695497 -2.981543,1.312847 -4.6875,1.8125 l -2.5625,0 c -0.46221,0 -0.84375,0.350288 -0.84375,0.8125 -0.77525,0.149397 -1.564791,0.26783 -2.375,0.375 l 0,-0.375 c 3e-6,-0.462214 -0.381538,-0.812499 -0.84375,-0.8125 l -3,0 c -0.46221,-3e-6 -0.84375,0.350288 -0.84375,0.8125 l 0,0.75 c -0.38818,0.0099 -0.763467,0.03125 -1.15625,0.03125 z m -12.09375,-4.8125 3.0625,0 c 0.46221,-2e-6 0.812501,-0.381537 0.8125,-0.84375 l 0,-3.03125 c 0,-0.462211 -0.350289,-0.843749 -0.8125,-0.84375 l -3.0625,0 c -0.462211,-1e-6 -0.8125,0.381538 -0.8125,0.84375 l 0,3.03125 c 0,0.462211 0.350287,0.843752 0.8125,0.84375 z m 7.0625,0 3,0 C 22.431468,24.843748 22.813001,24.462213 22.813,24 l 0,-3.03125 c 3e-6,-0.462211 -0.381538,-0.843749 -0.84375,-0.84375 l -3,0 c -0.462207,-1e-6 -0.84375,0.381538 -0.84375,0.84375 l 0,3.03125 c 0,0.462211 0.381537,0.84375 0.84375,0.84375 z m 7.03125,0 3,0 c 0.462217,-2e-6 0.84375,-0.381537 0.84375,-0.84375 l 0,-3.03125 c 3e-6,-0.462211 -0.381538,-0.843749 -0.84375,-0.84375 l -3,0 c -0.46221,-1e-6 -0.84375,0.381538 -0.84375,0.84375 l 0,3.03125 c 2e-6,0.462211 0.381537,0.84375 0.84375,0.84375 z m 7.0625,0 3,0 c 0.462216,2e-6 0.84375,-0.381537 0.84375,-0.84375 l 0,-3.03125 c 4e-6,-0.462213 -0.381538,-0.843749 -0.84375,-0.84375 l -3,0 c -0.46221,-2e-6 -0.84375,0.381538 -0.84375,0.84375 l 0,3.03125 c 3e-6,0.462213 0.381537,0.84375 0.84375,0.84375 z m -21.03125,-8.3125 0.25,0 6.8125,0 0.25,0 9.25,0 0.25,0 6.78125,0 0.25,0 c 0.521061,-2e-6 0.96875,-0.41644 0.96875,-0.9375 l 0,-5.53125 c 0,-0.521062 -0.44769,-0.906249 -0.96875,-0.90625 l -0.25,0 -6.78125,0 -0.25,0 -9.25,0 -0.25,0 -6.8125,0 -0.25,0 c -0.521057,10e-7 -0.9375,0.385191 -0.9375,0.90625 l 0,5.53125 c 3e-6,0.52106 0.416441,0.937502 0.9375,0.9375 z"
       id="path2963" />
    <g
       transform="matrix(0.1337942,0,0,-0.1337942,31.527762,89.04701)"
       inkscape:label="Calque 1"
       id="g2965" />
    <g
       transform="matrix(0.1672428,0,0,-0.1672428,38.442916,104.62323)"
       inkscape:label="Calque 1"
       id="g2967" />
  </g>
</svg>
