<?xml version="1.0" encoding="UTF-8" standalone="no"?>
<!-- Created with Inkscape (http://www.inkscape.org/) -->

<svg
   xmlns:dc="http://purl.org/dc/elements/1.1/"
   xmlns:cc="http://creativecommons.org/ns#"
   xmlns:rdf="http://www.w3.org/1999/02/22-rdf-syntax-ns#"
   xmlns:svg="http://www.w3.org/2000/svg"
   xmlns="http://www.w3.org/2000/svg"
   xmlns:xlink="http://www.w3.org/1999/xlink"
   xmlns:sodipodi="http://sodipodi.sourceforge.net/DTD/sodipodi-0.dtd"
   xmlns:inkscape="http://www.inkscape.org/namespaces/inkscape"
   width="48px"
   height="48px"
   id="svg3634"
   version="1.1"
   inkscape:version="0.47 r22583"
   sodipodi:docname="Nouveau document 3">
  <defs
     id="defs3636">
    <linearGradient
       gradientUnits="userSpaceOnUse"
       y2="21.132059"
       x2="22.892584"
       y1="0.90414524"
       x1="22.892584"
       id="linearGradient3178"
       xlink:href="#linearGradient3172"
       inkscape:collect="always" />
    <linearGradient
       id="linearGradient3172">
      <stop
         id="stop3174"
         offset="0"
         style="stop-color:#4d4d4d;stop-opacity:1;" />
      <stop
         id="stop3176"
         offset="1"
         style="stop-color:#4d4d4d;stop-opacity:0;" />
    </linearGradient>
    <linearGradient
       inkscape:collect="always"
       xlink:href="#linearGradient3172"
       id="linearGradient3778"
       gradientUnits="userSpaceOnUse"
       x1="22.892584"
       y1="0.90414524"
       x2="22.892584"
       y2="21.132059" />
    <linearGradient
       inkscape:collect="always"
       xlink:href="#linearGradient3172"
       id="linearGradient3783"
       gradientUnits="userSpaceOnUse"
       x1="22.892584"
       y1="0.90414524"
       x2="22.892584"
       y2="21.132059"
       gradientTransform="matrix(0.644962,0,0,-1.1832362,59.235153,43.983663)" />
    <linearGradient
       inkscape:collect="always"
       xlink:href="#linearGradient3172"
       id="linearGradient3786"
       gradientUnits="userSpaceOnUse"
       gradientTransform="matrix(0.644962,0,0,1.1832362,9.234903,4.0166564)"
       x1="22.892584"
       y1="0.90414524"
       x2="22.892584"
       y2="21.132059" />
  </defs>
  <sodipodi:namedview
     id="base"
     pagecolor="#ffffff"
     bordercolor="#666666"
     borderopacity="1.0"
     inkscape:pageopacity="0.0"
     inkscape:pageshadow="2"
     inkscape:zoom="7"
     inkscape:cx="24"
     inkscape:cy="24"
     inkscape:current-layer="layer1"
     showgrid="true"
     inkscape:grid-bbox="true"
     inkscape:document-units="px"
     inkscape:window-width="1364"
     inkscape:window-height="721"
     inkscape:window-x="0"
     inkscape:window-y="23"
     inkscape:window-maximized="1" />
  <metadata
     id="metadata3639">
    <rdf:RDF>
      <cc:Work
         rdf:about="">
        <dc:format>image/svg+xml</dc:format>
        <dc:type
           rdf:resource="http://purl.org/dc/dcmitype/StillImage" />
        <dc:title></dc:title>
      </cc:Work>
    </rdf:RDF>
  </metadata>
  <g
     id="layer1"
     inkscape:label="Layer 1"
     inkscape:groupmode="layer">
    <path
       style="fill:#000000"
       d="m 30.558074,9.9282914 c -2.777877,0.02422 -4.934632,0.5017536 -5.967756,1.3747706 l -0.343692,0.312448 0,11.310615 c 0,6.214764 0.0229,11.310615 0.06249,11.310615 0.03949,0 0.2425,-0.0998 0.437427,-0.218714 0.194928,-0.11891 0.812125,-0.375267 1.374771,-0.562406 2.465509,-0.820004 5.615624,-0.884233 10.154558,-0.187469 1.913031,0.293671 4.564419,0.815044 4.655474,0.906099 -0.112731,0.08392 0.265726,-0.02667 0.406182,-0.03124 -0.07509,-0.0253 -0.08552,-3.725639 -0.06249,-10.873188 0.0192,-5.954647 -0.0243,-11.082213 -0.06249,-11.404349 l -0.06249,-0.593651 -0.968589,-0.218714 c -2.410388,-0.581063 -5.594828,-1.01887 -8.373604,-1.1248116 -0.421002,-0.01605 -0.852952,-0.0035 -1.249792,0 z m -13.216548,0.09373 c -1.409507,-0.02272 -2.922527,0.03751 -4.030578,0.156224 -1.990758,0.213275 -4.01685,0.537331 -5.467838,0.874854 l -0.999834,0.218714 0,11.435594 c 0,8.167719 0.03627,11.404349 0.124979,11.404349 0.06819,0 0.989445,-0.190718 2.062157,-0.406182 5.269121,-1.058354 9.1791,-1.245722 11.841776,-0.562406 1.098627,0.281943 2.392351,0.857107 2.249625,0.999833 0.09339,0.17027 0.326856,-0.16188 0.499917,-0.249958 -0.09658,1e-5 -0.124979,-2.889899 -0.124979,-11.216881 l 0,-11.185636 -0.281203,-0.218713 c -0.408212,-0.312704 -1.519157,-0.746572 -2.499584,-0.968585 -0.649277,-0.147025 -1.96493,-0.258489 -3.374438,-0.281203 z M 5.187302,12.709073 c -0.348512,-0.0063 -0.579213,0.08068 -0.812364,0.281203 L 4.06249,13.27148 4.03125,24.332136 4,36.392626 l 0.281203,0.281203 0.281203,0.281203 7.248792,0 c 3.988226,5e-4 7.587356,0.0236 7.998667,0.06249 0.692775,0.06545 0.760173,0.102373 0.874854,0.406182 0.07517,0.199157 0.269945,0.400034 0.499917,0.499917 0.288962,0.125539 0.940253,0.154224 2.718297,0.156224 2.559833,0.0031 2.778107,-0.03493 3.06199,-0.624896 0.162373,-0.337434 0.198717,-0.369438 0.999833,-0.437427 0.462673,-0.03929 4.13898,-0.06249 8.154891,-0.06249 7.01962,0 7.303273,-0.0098 7.56124,-0.218713 L 43.96209,36.517605 43.99333,24.55085 C 44.01446,16.15029 43.98593,13.480445 43.8996,13.27148 43.765593,12.947304 43.355931,12.709073 42.931012,12.709073 l -0.71863,0.03125 c 0.05381,1.237146 0.05119,1.479226 0.06249,2.718297 0.0064,2.070855 0.0096,4.831603 0,7.811198 -0.01152,3.572205 -0.01314,6.311383 0,8.123646 0.0066,0.90542 0.01886,1.580797 0.03124,2.030912 0.01956,0.787407 0.02312,1.838297 -0.499917,1.780953 -0.01638,0.0031 -0.370238,-0.06313 -0.374937,-0.06249 -0.01895,0.0026 -0.02205,-9.58e-4 -0.03124,0 -0.0092,9.57e-4 -0.01951,-0.0012 -0.03124,0 -0.0082,-1.43e-4 -0.06258,-1.1e-5 -0.06249,0 -0.05123,0.0053 -0.113182,0.02564 -0.156224,0.03124 1.55e-4,-2e-5 -0.162701,0.02336 -0.343693,0 0.01725,0.0022 -0.04175,-0.0019 -0.03124,0 0.123472,0.02213 -0.138369,0.01558 -0.343693,-0.09373 -0.02833,-0.01508 -0.04201,-0.01838 -0.06249,-0.03125 -0.05033,-0.01099 -0.07831,-0.01381 -0.156224,-0.03124 -0.294831,-0.06597 -0.691245,-0.166722 -1.124813,-0.249958 -0.890563,-0.17096 -1.992255,-0.354886 -2.93701,-0.499917 -2.42606,-0.415267 -6.768777,-0.895836 -9.717131,0.124979 -0.276503,0.09197 -0.572927,0.197108 -0.78112,0.281204 -0.106534,0.04303 -0.205815,0.08858 -0.281203,0.124979 -0.07539,0.03639 -0.173211,0.09191 -0.124979,0.06249 -0.09569,0.05837 -0.205434,0.117341 -0.343693,0.187469 -0.01104,0.0056 -0.04493,0.02185 -0.06249,0.03125 -0.0035,0.0027 -0.02145,0.02435 -0.03125,0.03124 -0.02245,0.01119 -0.03067,0.01811 -0.06249,0.03124 -0.01624,0.0092 -0.01305,0.02315 -0.03124,0.03124 -0.129998,0.05769 -0.483547,0.03124 -0.624896,0.03124 0,0 0.0095,-0.02694 0,-0.03124 -0.0095,-0.0043 -0.01511,0.0073 -0.03124,0 -0.03227,-0.01466 -0.08201,-0.04296 -0.124979,-0.06249 -0.04297,-0.01953 -0.09269,-0.0478 -0.124979,-0.06249 -0.01614,-0.0073 -0.02175,0.0043 -0.03124,0 -0.0021,-9.5e-4 -0.01848,-0.02275 -0.03125,-0.03124 -0.08984,0.0665 -0.111419,0.113661 -0.281203,0.156224 -0.207365,0.05198 -0.430415,0.0431 -0.687386,-0.06249 -0.131378,-0.05399 -0.142816,-0.140447 -0.218713,-0.218714 -0.0056,-0.0058 -0.02595,0.0058 -0.03125,0 -0.08893,-0.03732 -0.07952,-0.05299 -0.09373,-0.06249 -0.01422,-0.0095 -0.02795,-0.02905 -0.03124,-0.03124 0.0027,0.0018 -0.150977,-0.07061 -0.343693,-0.156224 -0.180932,-0.08038 -0.419252,-0.158408 -0.65614,-0.249959 -0.177237,-0.06818 -0.370755,-0.132142 -0.562407,-0.187468 -0.06434,-0.01428 -0.03376,-0.01792 -0.09373,-0.03124 -0.226196,-0.06215 -0.444586,-0.110101 -0.687386,-0.156224 -0.03734,-0.0083 -0.09521,-0.02464 -0.124979,-0.03124 -3.393397,-0.60401 -8.202511,0.248851 -10.685719,0.71863 -0.53971,0.108405 -1.055803,0.209166 -1.43726,0.281204 -0.177864,0.03359 -0.326098,0.06882 -0.468672,0.09373 -0.08633,0.01508 -0.186519,0.0035 -0.218714,0 -0.05262,0.009 -0.103442,0.03124 -0.156224,0.03124 -6.93e-4,0 -0.499229,-0.124583 -0.499916,-0.124979 -3.4e-4,-2e-4 -0.187127,-0.124682 -0.187469,-0.12498 L 6.2184,34.736656 c -0.05844,-0.06839 -0.03364,-0.05979 -0.03124,-0.06249 -0.0035,-0.0039 -0.02774,0.004 -0.03124,0 0.0018,0.0044 0,-0.03125 0,-0.03125 -0.03762,-0.04452 -0.08814,-0.06797 -0.124979,-0.156224 -0.05126,-0.12283 -0.07229,-0.267845 -0.06249,-0.218714 -0.01131,-0.05681 -0.02195,-0.146477 -0.03124,-0.249958 -0.01158,-0.128197 -0.02275,-0.270022 -0.03125,-0.499917 -0.01665,-0.455399 -0.02125,-1.144676 -0.03124,-2.062156 -0.02,-1.840067 -0.03125,-4.663042 -0.03125,-8.748542 0.103083,-2.448413 -0.0871,-9.699782 -0.09373,-9.967089 l -0.562406,-0.03125 z"
       id="path3595" />
    <path
       style="fill:url(#linearGradient3786);fill-opacity:1;stroke:none"
       d="m 23.531,29.656569 c -6.5305,-0.06714 -12.432669,-1.518927 -16.6875,-3.8125 -0.0024,-1.153676 0,-1.666497 0,-3.125 l 0,-11.4375 1,-0.21875 c 1.450988,-0.337523 3.477992,-0.661725 5.46875,-0.875 1.108051,-0.118714 2.621743,-0.17897 4.03125,-0.15625 1.409508,0.02271 2.725723,0.134225 3.375,0.28125 0.980427,0.222013 2.091788,0.656046 2.5,0.96875 l 0.28125,0.21875 0,11.1875 c 0,3.327819 0.01964,5.215107 0.03125,6.96875 z m 0.71875,0 c -0.0077,-1.924286 0,-4.0988 0,-6.71875 l 0,-11.3125 0.34375,-0.3125 c 1.033124,-0.873017 3.190873,-1.3507796 5.96875,-1.3749996 0.39684,-0.0035 0.828998,-0.01605 1.25,0 2.778776,0.1059416 5.964612,0.5439366 8.375,1.1249996 l 0.96875,0.21875 0.0625,0.59375 c 0.03819,0.322136 0.0817,5.451603 0.0625,11.40625 -0.0035,1.09007 0.0018,1.539847 0,2.46875 -4.312668,2.363148 -10.341439,3.869572 -17.03125,3.90625 z M 5.8435,25.250319 c -0.651477,-0.397255 -1.257536,-0.811914 -1.8125,-1.25 l 0.03125,-10.71875 0.3125,-0.28125 c 0.233151,-0.200523 0.463988,-0.28755 0.8125,-0.28125 l 0.5625,0.03125 c 0.00663,0.267307 0.196833,7.520337 0.09375,9.96875 0,1.181862 -0.00182,1.553926 0,2.53125 z m 36.4375,-0.0625 c 0.0016,-0.745175 -0.0027,-1.068156 0,-1.90625 0.0096,-2.979595 0.0064,-5.741645 0,-7.8125 -0.0113,-1.239071 -0.0087,-1.481604 -0.0625,-2.71875 l 0.71875,-0.03125 c 0.424919,0 0.834743,0.238324 0.96875,0.5625 0.08339,0.20185 0.110885,2.946294 0.09375,10.6875 -0.531804,0.422262 -1.097288,0.834104 -1.71875,1.21875 z"
       id="path3772" />
    <g
       transform="matrix(0.1337942,0,0,-0.1337942,31.527762,89.04701)"
       inkscape:label="Calque 1"
       id="g3774" />
    <g
       transform="matrix(0.1672428,0,0,-0.1672428,38.442916,104.62323)"
       inkscape:label="Calque 1"
       id="g3776" />
  </g>
</svg>
