<?xml version="1.0" encoding="UTF-8" standalone="no"?>
<!-- Created with Inkscape (http://www.inkscape.org/) -->

<svg
   xmlns:dc="http://purl.org/dc/elements/1.1/"
   xmlns:cc="http://creativecommons.org/ns#"
   xmlns:rdf="http://www.w3.org/1999/02/22-rdf-syntax-ns#"
   xmlns:svg="http://www.w3.org/2000/svg"
   xmlns="http://www.w3.org/2000/svg"
   xmlns:xlink="http://www.w3.org/1999/xlink"
   xmlns:sodipodi="http://sodipodi.sourceforge.net/DTD/sodipodi-0.dtd"
   xmlns:inkscape="http://www.inkscape.org/namespaces/inkscape"
   width="48px"
   height="48px"
   id="svg3774"
   version="1.1"
   inkscape:version="0.47 r22583"
   sodipodi:docname="Nouveau document 4">
  <defs
     id="defs3776">
    <linearGradient
       inkscape:collect="always"
       xlink:href="#linearGradient3172-9"
       id="linearGradient3748"
       gradientUnits="userSpaceOnUse"
       gradientTransform="matrix(0.644962,0,0,1.1832362,9.235153,4.016337)"
       x1="22.892584"
       y1="0.90414524"
       x2="22.892584"
       y2="21.132059" />
    <linearGradient
       id="linearGradient3172-9">
      <stop
         id="stop3174-1"
         offset="0"
         style="stop-color:#4d4d4d;stop-opacity:1;" />
      <stop
         id="stop3176-6"
         offset="1"
         style="stop-color:#4d4d4d;stop-opacity:0;" />
    </linearGradient>
    <linearGradient
       id="linearGradient4321">
      <stop
         style="stop-color:#000000;stop-opacity:1.0;"
         offset="0"
         id="stop1" />
      <stop
         style="stop-color:#000000;stop-opacity:1.0;"
         offset="1"
         id="stop2" />
    </linearGradient>
    <linearGradient
       y2="24"
       x2="48"
       y1="24"
       x1="0"
       gradientTransform="matrix(0.29069767,0,0,0.29166667,4,19.471)"
       gradientUnits="userSpaceOnUse"
       id="linearGradient3772"
       xlink:href="#linearGradient4321"
       inkscape:collect="always" />
  </defs>
  <sodipodi:namedview
     id="base"
     pagecolor="#ffffff"
     bordercolor="#666666"
     borderopacity="1.0"
     inkscape:pageopacity="0.0"
     inkscape:pageshadow="2"
     inkscape:zoom="7"
     inkscape:cx="24"
     inkscape:cy="24"
     inkscape:current-layer="layer1"
     showgrid="true"
     inkscape:grid-bbox="true"
     inkscape:document-units="px"
     inkscape:window-width="1366"
     inkscape:window-height="744"
     inkscape:window-x="0"
     inkscape:window-y="24"
     inkscape:window-maximized="1" />
  <metadata
     id="metadata3779">
    <rdf:RDF>
      <cc:Work
         rdf:about="">
        <dc:format>image/svg+xml</dc:format>
        <dc:type
           rdf:resource="http://purl.org/dc/dcmitype/StillImage" />
        <dc:title></dc:title>
      </cc:Work>
    </rdf:RDF>
  </metadata>
  <g
     id="layer1"
     inkscape:label="Layer 1"
     inkscape:groupmode="layer">
    <path
       style="fill:url(#linearGradient3772);fill-opacity:1;fill-rule:nonzero;stroke:none;stroke-width:1;marker:none;visibility:visible;display:inline;overflow:visible;enable-background:accumulate"
       d="M 6.4375,9 C 5.015075,9 4,10.329015 4,11.75 l 0,2.21875 c 0,1.420985 1.015075,2.71875 2.4375,2.71875 l 9.09375,0 c 1.422425,0 2.40625,-1.297765 2.40625,-2.71875 l 0,-2.21875 C 17.9375,10.329015 16.953675,9 15.53125,9 L 6.4375,9 z m 0,1.75 9.09375,0 c 0.290637,0 0.65625,0.363901 0.65625,1 l 0,2.21875 c 0,0.636099 -0.365613,0.96875 -0.65625,0.96875 l -9.09375,0 C 6.146863,14.9375 5.75,14.604849 5.75,13.96875 l 0,-2.21875 c 0,-0.636099 0.396863,-1 0.6875,-1 z M 5.625,19.46875 c -0.895245,0 -1.625,0.726772 -1.625,1.625 l 0,10.75 c 0,0.898228 0.729755,1.625 1.625,1.625 l 10.71875,0 c 0.895245,0 1.625,-0.726772 1.625,-1.625 l 0,-10.75 c 0,-0.898228 -0.729756,-1.625 -1.625,-1.625 l -10.71875,0 z m 15.46875,5.8125 c -0.716196,0 -1.28125,0.562668 -1.28125,1.28125 l 0,8.625 c 0,0.718583 0.565054,1.28125 1.28125,1.28125 l 8.59375,0 c 0.716196,0 1.28125,-0.562667 1.28125,-1.28125 l 0,-8.625 c 0,-0.718582 -0.565055,-1.28125 -1.28125,-1.28125 l -8.59375,0 z m 13.03125,0 c -0.716196,0 -1.28125,0.562668 -1.28125,1.28125 l 0,8.625 c 0,0.718583 0.565054,1.28125 1.28125,1.28125 l 8.59375,0 C 43.434947,36.46875 44,35.906083 44,35.1875 l 0,-8.625 c 0,-0.718582 -0.565054,-1.28125 -1.28125,-1.28125 l -8.59375,0 z M 10.96875,35 l -5,4 10,0 -5,-4 z"
       id="rect2169" />
    <path
       style="fill:url(#linearGradient3748);fill-opacity:1;stroke:none"
       d="m 24,29.65625 c -1.430094,0 -2.825962,-0.0921 -4.1875,-0.21875 l 0,-2.875 c 0,-0.718582 0.565054,-1.28125 1.28125,-1.28125 l 8.59375,0 c 0.716195,0 1.28125,0.562668 1.28125,1.28125 l 0,2.53125 C 28.760203,29.447469 26.426807,29.65625 24,29.65625 z m -6.03125,-0.4375 C 12.174371,28.425507 7.225207,26.529624 4,23.96875 l 0,-2.875 c 0,-0.898228 0.729756,-1.625 1.625,-1.625 l 10.71875,0 c 0.895244,0 1.625,0.726772 1.625,1.625 l 0,8.125 z m 14.875,-0.46875 0,-2.1875 c 0,-0.718582 0.565054,-1.28125 1.28125,-1.28125 l 7.96875,0 c -2.496228,1.510855 -5.660364,2.716696 -9.25,3.46875 z M 6.4375,16.6875 C 5.015075,16.6875 4,15.389735 4,13.96875 L 4,11.75 C 4,10.329015 5.015075,9 6.4375,9 l 9.09375,0 c 1.422425,0 2.40625,1.329015 2.40625,2.75 l 0,2.21875 c 0,1.420985 -0.983825,2.71875 -2.40625,2.71875 l -9.09375,0 z m 0,-1.75 9.09375,0 c 0.290637,0 0.65625,-0.332651 0.65625,-0.96875 l 0,-2.21875 c 0,-0.636099 -0.365613,-1 -0.65625,-1 l -9.09375,0 c -0.290637,0 -0.6875,0.363901 -0.6875,1 l 0,2.21875 c 0,0.636099 0.396863,0.96875 0.6875,0.96875 z"
       id="path3732" />
  </g>
</svg>
