<?xml version="1.0" encoding="UTF-8" standalone="no"?>
<!-- Created with Inkscape (http://www.inkscape.org/) -->
<svg
   xmlns:dc="http://purl.org/dc/elements/1.1/"
   xmlns:cc="http://creativecommons.org/ns#"
   xmlns:rdf="http://www.w3.org/1999/02/22-rdf-syntax-ns#"
   xmlns:svg="http://www.w3.org/2000/svg"
   xmlns="http://www.w3.org/2000/svg"
   xmlns:xlink="http://www.w3.org/1999/xlink"
   xmlns:sodipodi="http://sodipodi.sourceforge.net/DTD/sodipodi-0.dtd"
   xmlns:inkscape="http://www.inkscape.org/namespaces/inkscape"
   width="48px"
   height="48px"
   id="svg4289"
   sodipodi:version="0.32"
   inkscape:version="0.46"
   sodipodi:docbase="/home/lapo/Icone/cvs/gnome-icon-theme/scalable/categories"
   sodipodi:docname="baobab.svg"
   inkscape:output_extension="org.inkscape.output.svg.inkscape">
  <defs
     id="defs4291">
    <linearGradient
       id="linearGradient3155"
       inkscape:collect="always">
      <stop
         id="stop3157"
         offset="0"
         style="stop-color:#4d4d4d;stop-opacity:1;" />
      <stop
         id="stop3159"
         offset="1"
         style="stop-color:#4d4d4d;stop-opacity:0;" />
    </linearGradient>
    <linearGradient
       inkscape:collect="always"
       xlink:href="#linearGradient3155"
       id="linearGradient2593"
       gradientUnits="userSpaceOnUse"
       gradientTransform="matrix(0.1721084,0,0,0.172129,-32.0555,-63.311705)"
       x1="325.71429"
       y1="369.50507"
       x2="325.71429"
       y2="546.64789" />
  </defs>
  <sodipodi:namedview
     id="base"
     pagecolor="#ffffff"
     bordercolor="#666"
     borderopacity="0.31372549"
     inkscape:pageopacity="0.0"
     inkscape:pageshadow="2"
     inkscape:zoom="5.656854"
     inkscape:cx="37.533214"
     inkscape:cy="19.31447"
     inkscape:current-layer="layer1"
     showgrid="true"
     inkscape:grid-bbox="true"
     inkscape:document-units="px"
     inkscape:window-width="1019"
     inkscape:window-height="732"
     inkscape:window-x="259"
     inkscape:window-y="24"
     inkscape:showpageshadow="false" />
  <metadata
     id="metadata4294">
    <rdf:RDF>
      <cc:Work
         rdf:about="">
        <dc:format>image/svg+xml</dc:format>
        <dc:type
           rdf:resource="http://purl.org/dc/dcmitype/StillImage" />
        <dc:title>System Preferences</dc:title>
        <dc:creator>
          <cc:Agent>
            <dc:title>Andreas Nilsson</dc:title>
          </cc:Agent>
        </dc:creator>
        <dc:subject>
          <rdf:Bag>
            <rdf:li>category</rdf:li>
            <rdf:li>system</rdf:li>
            <rdf:li>preferences</rdf:li>
            <rdf:li>settings</rdf:li>
            <rdf:li>control center</rdf:li>
          </rdf:Bag>
        </dc:subject>
        <dc:contributor>
          <cc:Agent>
            <dc:title>Jakub Steiner</dc:title>
          </cc:Agent>
        </dc:contributor>
        <cc:license
           rdf:resource="http://creativecommons.org/licenses/GPL/2.0/" />
      </cc:Work>
      <cc:License
         rdf:about="http://creativecommons.org/licenses/GPL/2.0/">
        <cc:permits
           rdf:resource="http://web.resource.org/cc/Reproduction" />
        <cc:permits
           rdf:resource="http://web.resource.org/cc/Distribution" />
        <cc:requires
           rdf:resource="http://web.resource.org/cc/Notice" />
        <cc:permits
           rdf:resource="http://web.resource.org/cc/DerivativeWorks" />
        <cc:requires
           rdf:resource="http://web.resource.org/cc/ShareAlike" />
        <cc:requires
           rdf:resource="http://web.resource.org/cc/SourceCode" />
      </cc:License>
    </rdf:RDF>
  </metadata>
  <g
     id="layer1"
     inkscape:label="Layer 1"
     inkscape:groupmode="layer">
    <g
       id="g2453"
       inkscape:label="Calque 1"
       transform="matrix(0.1337942,0,0,0.1337942,-18.472238,-41.04701)" />
    <path
       style="fill:#000000;fill-opacity:1;fill-rule:nonzero;stroke:none;stroke-width:3;stroke-linecap:round;stroke-linejoin:round;marker:none;stroke-miterlimit:4;stroke-dasharray:none;stroke-dashoffset:0;stroke-opacity:1;visibility:visible;display:inline;overflow:visible;enable-background:accumulate"
       d="M 24.002133,4.0002737 C 16.712208,4.0373657 9.9429033,8.156974 6.4263353,14.742326 L 24.392706,22.476604 L 43.999485,22.671914 C 43.509037,14.793238 38.686317,7.9559753 30.91528,5.172134 C 28.622908,4.3509318 26.299927,3.9885836 24.002133,4.0002737 z M 5.0983861,17.515729 C 1.8131949,26.997995 6.1149013,37.34019 15.097062,41.812299 L 22.088324,24.820325 L 5.0983861,17.515729 z M 29.509216,25.601565 L 41.73416,33.335843 C 43.044059,30.9343 43.782648,28.480712 43.999485,25.757813 L 29.509216,25.601565 z M 27.517292,27.828099 L 33.649293,41.421679 C 36.426364,39.94572 38.613884,38.019318 40.40621,35.445191 L 27.517292,27.828099 z M 24.158362,27.906223 L 17.987304,42.984159 C 22.249403,44.394976 26.60547,44.34216 30.837165,42.788849 L 24.158362,27.906223 z"
       id="path2160" />
    <path
       style="fill:url(#linearGradient2593);fill-opacity:1"
       d="M 24.002648,4.0002737 C 16.712723,4.0373657 9.9434183,8.156974 6.4268493,14.742326 L 24.393221,22.476604 L 44,22.671914 C 43.509552,14.793238 38.686831,7.9559753 30.915795,5.172134 C 28.623423,4.3509318 26.300442,3.9885836 24.002648,4.0002737 z M 5.0989006,17.515729 C 4.0071126,20.667029 3.7622039,23.913572 4.2396394,27.007797 C 8.4966973,28.912609 13.834449,30.168202 19.706341,30.601502 L 22.088839,24.820325 L 5.0989006,17.515729 z M 29.509731,25.601565 L 35.758903,29.546828 C 38.729215,28.898863 41.457709,28.044092 43.84377,26.968735 C 43.900902,26.56707 43.967086,26.171129 44,25.757813 L 29.509731,25.601565 z M 27.517807,27.828099 L 28.767641,30.601502 C 29.746103,30.52124 30.713404,30.37729 31.657884,30.249944 L 27.517807,27.828099 z M 24.158877,27.906223 L 22.987157,30.75775 C 23.328893,30.763641 23.658119,30.796812 24.002648,30.796812 C 24.492797,30.796812 24.963355,30.769632 25.447769,30.75775 L 24.158877,27.906223 z"
       id="path2586" />
  </g>
</svg>
