<?xml version="1.0" encoding="UTF-8" standalone="no"?>
<!-- Created with Inkscape (http://www.inkscape.org/) -->

<svg
   xmlns:dc="http://purl.org/dc/elements/1.1/"
   xmlns:cc="http://creativecommons.org/ns#"
   xmlns:rdf="http://www.w3.org/1999/02/22-rdf-syntax-ns#"
   xmlns:svg="http://www.w3.org/2000/svg"
   xmlns="http://www.w3.org/2000/svg"
   xmlns:xlink="http://www.w3.org/1999/xlink"
   xmlns:sodipodi="http://sodipodi.sourceforge.net/DTD/sodipodi-0.dtd"
   xmlns:inkscape="http://www.inkscape.org/namespaces/inkscape"
   width="48px"
   height="48px"
   id="svg3001"
   version="1.1"
   inkscape:version="0.47 r22583"
   sodipodi:docname="Nouveau document 4">
  <defs
     id="defs3003">
    <linearGradient
       gradientUnits="userSpaceOnUse"
       y2="21.132059"
       x2="22.892584"
       y1="0.90414524"
       x1="22.892584"
       id="linearGradient3178"
       xlink:href="#linearGradient3172"
       inkscape:collect="always" />
    <linearGradient
       id="linearGradient3172">
      <stop
         id="stop3174"
         offset="0"
         style="stop-color:#4d4d4d;stop-opacity:1;" />
      <stop
         id="stop3176"
         offset="1"
         style="stop-color:#4d4d4d;stop-opacity:0;" />
    </linearGradient>
    <linearGradient
       inkscape:collect="always"
       xlink:href="#linearGradient3172"
       id="linearGradient3167"
       gradientUnits="userSpaceOnUse"
       x1="22.892584"
       y1="0.90414524"
       x2="22.892584"
       y2="21.132059" />
    <linearGradient
       inkscape:collect="always"
       xlink:href="#linearGradient3172"
       id="linearGradient3173"
       gradientUnits="userSpaceOnUse"
       x1="22.892584"
       y1="0.90414524"
       x2="22.892584"
       y2="21.132059"
       gradientTransform="matrix(0.644962,0,0,-1.1832362,59.235153,43.983663)" />
    <linearGradient
       inkscape:collect="always"
       xlink:href="#linearGradient3172"
       id="linearGradient3176"
       gradientUnits="userSpaceOnUse"
       gradientTransform="matrix(0.644962,0,0,1.1832362,9.235153,4.016337)"
       x1="22.892584"
       y1="0.90414524"
       x2="22.892584"
       y2="21.132059" />
  </defs>
  <sodipodi:namedview
     id="base"
     pagecolor="#ffffff"
     bordercolor="#666666"
     borderopacity="1.0"
     inkscape:pageopacity="0.0"
     inkscape:pageshadow="2"
     inkscape:zoom="7"
     inkscape:cx="24"
     inkscape:cy="24"
     inkscape:current-layer="layer1"
     showgrid="true"
     inkscape:grid-bbox="true"
     inkscape:document-units="px"
     inkscape:window-width="1364"
     inkscape:window-height="721"
     inkscape:window-x="0"
     inkscape:window-y="23"
     inkscape:window-maximized="1" />
  <metadata
     id="metadata3006">
    <rdf:RDF>
      <cc:Work
         rdf:about="">
        <dc:format>image/svg+xml</dc:format>
        <dc:type
           rdf:resource="http://purl.org/dc/dcmitype/StillImage" />
        <dc:title></dc:title>
      </cc:Work>
    </rdf:RDF>
  </metadata>
  <g
     id="layer1"
     inkscape:label="Layer 1"
     inkscape:groupmode="layer">
    <path
       style="fill:#000000;fill-opacity:1;stroke:none"
       d="M 5.5,7 C 4.665306,6.999999 4,7.682891 4,8.53125 l 0,26.4375 C 4,35.817109 4.665308,36.5 5.5,36.5 l 12.3125,0 0,3.5625 -4.625,0 0,0.9375 22.71875,0 0,-0.9375 -4.53125,0 0,-3.5625 11.09375,0 C 43.303444,36.500001 44,35.817108 44,34.96875 L 44,8.53125 C 43.999999,7.682891 43.303444,7 42.46875,7 L 5.5,7 z m 2.25,2.5625 32.625,0 c 0.735363,0 1.28125,0.546721 1.28125,1.25 l 0,21.9375 C 41.656249,33.453282 41.110363,34 40.375,34 L 7.75,34 c -0.735361,-10e-7 -1.3125,-0.546719 -1.3125,-1.25 l 0,-21.9375 c 0,-0.70328 0.577137,-1.25 1.3125,-1.25 z m 23.65625,3.90625 c -0.5802,0.104642 -1.122638,0.56479 -1.75,1.28125 0,0 -5.185891,7.379417 -7.09375,9.84375 L 18.21875,20.1875 c -1.332827,-1.167231 -2.695291,-1.336573 -3.75,-0.25 -1.158654,1.123172 -1.059232,2.218963 0.15625,3.5 1.935047,2.006822 3.880092,3.990318 5.84375,5.96875 0.693768,0.704095 1.570291,0.875 2.4375,0.875 0.867209,0 1.729674,-0.514656 2.25,-1.21875 L 33.375,18.09375 c 1.147548,-1.562304 1.414974,-2.72744 0,-3.90625 -0.762881,-0.584954 -1.38855,-0.823392 -1.96875,-0.71875 z"
       id="rect2160" />
    <path
       style="fill:url(#linearGradient3176);fill-opacity:1;stroke:none"
       d="m 24,29.65625 c -1.161527,0 -2.288661,-0.07202 -3.40625,-0.15625 -0.03909,-0.03545 -0.08698,-0.05516 -0.125,-0.09375 -1.963658,-1.978432 -3.908703,-3.961928 -5.84375,-5.96875 -1.215482,-1.281037 -1.314904,-2.376828 -0.15625,-3.5 1.054709,-1.086573 2.417173,-0.917231 3.75,0.25 l 4.34375,4.40625 C 24.470359,22.129417 29.65625,14.75 29.65625,14.75 c 0.627362,-0.71646 1.1698,-1.176608 1.75,-1.28125 0.5802,-0.104642 1.205869,0.133796 1.96875,0.71875 1.414974,1.17881 1.147548,2.343946 0,3.90625 L 25.15625,29.0625 c -0.1601,0.216644 -0.347445,0.422449 -0.5625,0.59375 -0.200375,0.0026 -0.39219,0 -0.59375,0 z M 6.4375,25.59375 C 5.546079,25.088396 4.726687,24.545753 4,23.96875 L 4,8.53125 C 4,7.682891 4.665306,6.999999 5.5,7 L 42.46875,7 C 43.303444,7 43.999999,7.682891 44,8.53125 l 0,15.4375 c -0.700141,0.555925 -1.490353,1.072906 -2.34375,1.5625 l 0,-14.71875 c 0,-0.703279 -0.545887,-1.25 -1.28125,-1.25 l -32.625,0 c -0.735363,0 -1.3125,0.54672 -1.3125,1.25 l 0,14.78125 z"
       id="path3161" />
    <g
       transform="matrix(0.1337942,0,0,-0.1337942,31.527762,89.04701)"
       inkscape:label="Calque 1"
       id="g3163" />
    <g
       transform="matrix(0.1672428,0,0,-0.1672428,38.442916,104.62323)"
       inkscape:label="Calque 1"
       id="g3165" />
  </g>
</svg>
