<?xml version="1.0" encoding="UTF-8" standalone="no"?>
<!-- Created with Inkscape (http://www.inkscape.org/) -->

<svg
   xmlns:dc="http://purl.org/dc/elements/1.1/"
   xmlns:cc="http://creativecommons.org/ns#"
   xmlns:rdf="http://www.w3.org/1999/02/22-rdf-syntax-ns#"
   xmlns:svg="http://www.w3.org/2000/svg"
   xmlns="http://www.w3.org/2000/svg"
   xmlns:xlink="http://www.w3.org/1999/xlink"
   xmlns:sodipodi="http://sodipodi.sourceforge.net/DTD/sodipodi-0.dtd"
   xmlns:inkscape="http://www.inkscape.org/namespaces/inkscape"
   width="48px"
   height="48px"
   id="svg3791"
   version="1.1"
   inkscape:version="0.47 r22583"
   sodipodi:docname="Nouveau document 4">
  <defs
     id="defs3793">
    <linearGradient
       inkscape:collect="always"
       xlink:href="#linearGradient3172-6"
       id="linearGradient3771"
       gradientUnits="userSpaceOnUse"
       gradientTransform="matrix(0.644962,0,0,1.1832362,9.2351662,4.016337)"
       x1="22.892584"
       y1="0.90414524"
       x2="22.892584"
       y2="21.132059" />
    <linearGradient
       id="linearGradient3172-6">
      <stop
         id="stop3174-4"
         offset="0"
         style="stop-color:#4d4d4d;stop-opacity:1;" />
      <stop
         id="stop3176-9"
         offset="1"
         style="stop-color:#4d4d4d;stop-opacity:0;" />
    </linearGradient>
  </defs>
  <sodipodi:namedview
     id="base"
     pagecolor="#ffffff"
     bordercolor="#666666"
     borderopacity="1.0"
     inkscape:pageopacity="0.0"
     inkscape:pageshadow="2"
     inkscape:zoom="7"
     inkscape:cx="24"
     inkscape:cy="24"
     inkscape:current-layer="layer1"
     showgrid="true"
     inkscape:grid-bbox="true"
     inkscape:document-units="px"
     inkscape:window-width="596"
     inkscape:window-height="502"
     inkscape:window-x="768"
     inkscape:window-y="24"
     inkscape:window-maximized="0" />
  <metadata
     id="metadata3796">
    <rdf:RDF>
      <cc:Work
         rdf:about="">
        <dc:format>image/svg+xml</dc:format>
        <dc:type
           rdf:resource="http://purl.org/dc/dcmitype/StillImage" />
        <dc:title></dc:title>
      </cc:Work>
    </rdf:RDF>
  </metadata>
  <g
     id="layer1"
     inkscape:label="Layer 1"
     inkscape:groupmode="layer">
    <path
       style="font-size:medium;font-style:normal;font-variant:normal;font-weight:normal;font-stretch:normal;text-indent:0;text-align:start;text-decoration:none;line-height:normal;letter-spacing:normal;word-spacing:normal;text-transform:none;direction:ltr;block-progression:tb;writing-mode:lr-tb;text-anchor:start;color:#000000;fill:#000000;fill-opacity:1;stroke:none;stroke-width:108.3347702;marker:none;visibility:visible;display:inline;overflow:visible;enable-background:accumulate;font-family:Bitstream Charter;-inkscape-font-specification:Bitstream Charter"
       d="m 23.875,4 c -3.4432,0 -6.69736,0.90465 -9.53125,2.46875 0.65261,3.33386 1.69621,6.25298 2.9375,8.46875 0.31425,0.56096 0.63147,1.06645 0.96875,1.53125 1.54986,-1.17262 3.49688,-1.84375 5.625,-1.84375 2.37131,0 4.50088,0.85454 6.125,2.28125 l 0.375,0.0625 10.84375,1.625 -2.40625,-7.375 0.21875,-0.125 C 35.37634,6.76448 29.93666,4 23.875,4 z M 13.4375,7 c -0.04449,0.02765 -0.08074,0.06576 -0.125,0.09375 -0.183665,0.116119 -0.38292,0.221866 -0.5625,0.34375 -0.117751,0.08004 -0.227808,0.167534 -0.34375,0.25 -0.297956,0.211587 -0.589395,0.429053 -0.875,0.65625 -0.191213,0.152238 -0.377075,0.30976 -0.5625,0.46875 -0.106679,0.09143 -0.207783,0.187628 -0.3125,0.28125 -0.190706,0.17056 -0.378483,0.353613 -0.5625,0.53125 -0.1221551,0.11788 -0.2558681,0.222829 -0.3750001,0.34375 -0.209632,0.21269 -0.393759,0.43443 -0.59375,0.65625 -0.069952,0.07772 -0.150008,0.139941 -0.21875,0.21875 -0.054605,0.06251 -0.102416,0.124316 -0.15625,0.1875 -0.2041249,0.239753 -0.4009699,0.500747 -0.5937499,0.75 -0.259688,0.33576 -0.511771,0.679126 -0.75,1.03125 -0.159617,0.235847 -0.319146,0.475933 -0.46875,0.71875 -0.103402,0.168073 -0.214011,0.328716 -0.3125,0.5 -0.065295,0.11335 -0.1243961,0.229026 -0.1875001,0.34375 -0.129389,0.235563 -0.255023,0.477596 -0.375,0.71875 -0.122236,0.245593 -0.231546,0.498862 -0.34375,0.75 -0.069894,0.156291 -0.152822,0.310395 -0.21875,0.46875 -0.0074,0.01779 0.00735,0.04468 0,0.0625 -0.156248,0.378929 -0.304566,0.766191 -0.4375,1.15625 C 4.801009,18.299473 4.572358,19.099993 4.40625,19.90625 4.343685,20.209927 4.298385,20.504078 4.25,20.8125 c -0.020002,0.127501 -0.044964,0.246731 -0.0625,0.375 -0.0028,0.02046 0.00273,0.04202 0,0.0625 C 4.131566,21.66881 4.06033,22.104879 4.03125,22.53125 4.000798,22.978024 4,23.42086 4,23.875 c 0,0.443367 0.00212,0.876084 0.03125,1.3125 6.98e-4,0.01042 -7.15e-4,0.02084 0,0.03125 0.029099,0.426 0.100285,0.862782 0.15625,1.28125 0.028057,0.208819 0.059161,0.418221 0.09375,0.625 0.035525,0.212117 0.051473,0.415148 0.09375,0.625 0.00835,0.04163 0.022642,0.08346 0.03125,0.125 0.078504,0.376894 0.181479,0.75605 0.28125,1.125 0.013709,0.05085 0.017144,0.105554 0.03125,0.15625 0.09988,0.357859 0.224468,0.712887 0.3437499,1.0625 0.136218,0.399249 0.276862,0.799882 0.4375,1.1875 0.073529,0.177049 0.140267,0.356772 0.21875,0.53125 0.124657,0.277131 0.26939,0.542147 0.40625,0.8125 0.193732,0.382699 0.40769,0.756749 0.6250001,1.125 0.21731,0.368251 0.447637,0.740963 0.6875,1.09375 0.239863,0.352787 0.488609,0.694941 0.75,1.03125 0.236485,0.304584 0.4653989,0.615965 0.7187499,0.90625 0.136619,0.156542 0.296151,0.285282 0.4375,0.4375 0.085613,0.09221 0.162684,0.190659 0.25,0.28125 0.093235,0.09668 0.186109,0.186445 0.28125,0.28125 0.3013731,0.300307 0.6176731,0.594217 0.9375001,0.875 0.319827,0.280783 0.631493,0.552256 0.96875,0.8125 0.276278,0.213357 0.556368,0.426051 0.84375,0.625 0.264366,0.182781 0.539227,0.361111 0.8125,0.53125 l 0.0625,-4.96875 0,-0.625 0.53125,-0.28125 5.53125,-2.8125 C 19.48319,32.02143 19.421639,31.949497 19.34375,31.90625 19.077298,31.758365 18.811323,31.609941 18.5625,31.4375 18.322272,31.271298 18.097401,31.09388 17.875,30.90625 17.85753,30.8915 17.82985,30.88987 17.8125,30.875 17.488042,30.597052 17.188267,30.289109 16.90625,29.96875 16.703182,29.738074 16.522822,29.500768 16.34375,29.25 16.226212,29.084663 16.106543,28.923457 16,28.75 15.9926,28.73804 15.97606,28.73074 15.96875,28.71875 15.764673,28.383061 15.5667,28.019551 15.40625,27.65625 15.3839,27.6055 15.36521,27.551249 15.34375,27.5 c -0.138102,-0.329121 -0.274974,-0.651551 -0.375,-1 -0.03411,-0.118639 -0.033,-0.254293 -0.0625,-0.375 -0.07409,-0.303569 -0.14361,-0.621962 -0.1875,-0.9375 C 14.65861,24.755136 14.625,24.326521 14.625,23.875 c 0,-0.335546 0.02897,-0.674345 0.0625,-1 0.0022,-0.02131 -0.0023,-0.04124 0,-0.0625 0.01419,-0.129664 0.04317,-0.247113 0.0625,-0.375 0.03084,-0.203049 0.05027,-0.395542 0.09375,-0.59375 0.0093,-0.04268 0.02136,-0.08255 0.03125,-0.125 0.0686,-0.293521 0.154741,-0.593566 0.25,-0.875 0.08213,-0.242149 0.180352,-0.486516 0.28125,-0.71875 0.0093,-0.02131 0.02183,-0.04128 0.03125,-0.0625 0.0564,-0.127207 0.125652,-0.251025 0.1875,-0.375 0.103705,-0.207645 0.194056,-0.426976 0.3125,-0.625 0.06567,-0.109913 0.148703,-0.205718 0.21875,-0.3125 0.06167,-0.09401 0.122532,-0.189748 0.1875,-0.28125 0.168895,-0.237607 0.341014,-0.467851 0.53125,-0.6875 0.198478,-0.229166 0.404848,-0.448216 0.625,-0.65625 L 17.4375,17.0625 C 17.072857,16.559992 16.735551,16.025327 16.40625,15.4375 15.143263,13.183001 14.10985,10.279947 13.4375,7 z m 26.875,5.6875 1.84375,5.59375 0.5,1.53125 L 41.0625,19.59375 31.25,18.125 c 1.348041,1.606664 2.125,3.698505 2.125,6 0,5.17328 -4.07672,9.25 -9.25,9.25 -1.26577,0 -2.47143,-0.2428 -3.5625,-0.6875 L 14.5,35.78125 14.4375,41.4375 C 17.31344,43.06366 20.60924,44 24.125,44 35.03469,44 44,35.03469 44,24.125 44,19.868528 42.623486,15.931374 40.3125,12.6875 z M 24,15.625 c -4.613308,0 -8.375,3.761692 -8.375,8.375 0,4.613308 3.761692,8.375 8.375,8.375 4.613308,0 8.375,-3.761692 8.375,-8.375 0,-4.613308 -3.761692,-8.375 -8.375,-8.375 z"
       id="path3623" />
    <path
       style="fill:url(#linearGradient3771);fill-opacity:1;stroke:none"
       d="m 24.000013,29.65625 c -2.291679,0 -4.494181,-0.214496 -6.59375,-0.53125 -1.109134,-1.420715 -1.78125,-3.189717 -1.78125,-5.125 0,-4.613308 3.761692,-8.375 8.375,-8.375 4.613308,0 8.375,3.761692 8.375,8.375 0,1.935283 -0.672116,3.704285 -1.78125,5.125 -2.099568,0.316754 -4.302071,0.53125 -6.59375,0.53125 z m -7.875,-0.71875 C 11.128948,28.020122 6.8769103,26.253059 4.0000133,23.96875 c -3e-5,-0.03155 0,-0.0621 0,-0.09375 0,-0.45414 7.98e-4,-0.896976 0.03125,-1.34375 0.02908,-0.426371 0.10032,-0.86244 0.15625,-1.28125 0.0027,-0.02048 -0.0028,-0.04204 0,-0.0625 0.01754,-0.128269 0.0425,-0.247499 0.0625,-0.375 0.048385,-0.308422 0.09369,-0.602573 0.15625,-0.90625 0.166108,-0.806257 0.394759,-1.606777 0.6562499,-2.375 0.132934,-0.390059 0.281252,-0.777321 0.4375,-1.15625 0.0074,-0.01782 -0.0074,-0.04471 0,-0.0625 0.065928,-0.158355 0.14886,-0.312459 0.21875,-0.46875 0.112204,-0.251138 0.221514,-0.504407 0.34375,-0.75 0.119977,-0.241154 0.245611,-0.483187 0.375,-0.71875 0.063104,-0.114724 0.12221,-0.2304 0.1875001,-0.34375 0.098489,-0.171284 0.209098,-0.331927 0.3125,-0.5 0.149604,-0.242817 0.309133,-0.482903 0.46875,-0.71875 0.238229,-0.352124 0.490312,-0.69549 0.75,-1.03125 0.19278,-0.249253 0.389625,-0.510247 0.5937499,-0.75 0.053834,-0.06318 0.10164,-0.12499 0.15625,-0.1875 0.068742,-0.07881 0.1488,-0.14103 0.21875,-0.21875 0.199991,-0.22182 0.384118,-0.44356 0.59375,-0.65625 0.119132,-0.120921 0.252845,-0.22587 0.3749998,-0.34375 0.184017,-0.177637 0.371794,-0.36069 0.5625,-0.53125 0.104717,-0.09362 0.205821,-0.18982 0.3125,-0.28125 0.185425,-0.15899 0.371287,-0.316512 0.5625,-0.46875 0.285605,-0.227197 0.577044,-0.444663 0.875,-0.65625 0.115942,-0.08247 0.225999,-0.16996 0.34375,-0.25 0.17958,-0.121884 0.378835,-0.227631 0.5625,-0.34375 0.04426,-0.02799 0.08051,-0.0661 0.125,-0.09375 0.67235,3.279947 1.705763,6.183001 2.96875,8.4375 0.329301,0.587827 0.666607,1.122492 1.03125,1.625 l 0.0625,0.0625 c -0.220152,0.208034 -0.426522,0.427084 -0.625,0.65625 -0.190236,0.219649 -0.362355,0.449893 -0.53125,0.6875 -0.06497,0.0915 -0.12583,0.18724 -0.1875,0.28125 -0.07005,0.106782 -0.15308,0.202587 -0.21875,0.3125 -0.118444,0.198024 -0.208795,0.417355 -0.3125,0.625 -0.06185,0.123975 -0.1311,0.247793 -0.1875,0.375 -0.0094,0.02122 -0.02195,0.04119 -0.03125,0.0625 -0.100898,0.232234 -0.19912,0.476601 -0.28125,0.71875 -0.09526,0.281434 -0.1814,0.581479 -0.25,0.875 -0.0099,0.04245 -0.02195,0.08232 -0.03125,0.125 -0.04348,0.198208 -0.06291,0.390701 -0.09375,0.59375 -0.01933,0.127887 -0.04831,0.245336 -0.0625,0.375 -0.0023,0.02126 0.0022,0.04119 0,0.0625 -0.03353,0.325655 -0.0625,0.664454 -0.0625,1 0,0.451521 0.03361,0.880136 0.09375,1.3125 0.04389,0.315538 0.11341,0.633931 0.1875,0.9375 0.0295,0.120707 0.02839,0.256361 0.0625,0.375 0.100026,0.348449 0.236898,0.670879 0.375,1 0.02146,0.05125 0.04015,0.1055 0.0625,0.15625 0.16045,0.363301 0.358423,0.726811 0.5625,1.0625 0.0073,0.01199 0.02385,0.01929 0.03125,0.03125 0.03956,0.06441 0.0826,0.125626 0.125,0.1875 z m 15.9375,-0.0625 c 0.822789,-1.386719 1.3125,-2.994088 1.3125,-4.75 0,-2.301495 -0.776959,-4.393336 -2.125,-6 l 9.8125,1.46875 1.59375,0.21875 -0.5,-1.53125 -1.84375,-5.59375 c 2.288364,3.21212 3.660857,7.10392 3.6875,11.3125 -2.839557,2.248545 -7.034427,3.949791 -11.9375,4.875 z m 9.15625,-10.28125 -10.84375,-1.625 -0.375,-0.0625 c -1.62412,-1.42671 -3.75369,-2.28125 -6.125,-2.28125 -2.12812,0 -4.07514,0.67113 -5.625,1.84375 -0.33728,-0.4648 -0.6545,-0.97029 -0.96875,-1.53125 -1.24129,-2.21577 -2.28489,-5.13489 -2.9375,-8.46875 C 17.177653,4.90465 20.431813,4 23.875013,4 c 6.06166,0 11.50134,2.76448 15.15625,7.09375 l -0.21875,0.125 2.40625,7.375 z"
       id="path3757" />
  </g>
</svg>
