<?xml version="1.0" encoding="UTF-8" standalone="no"?>
<!-- Created with Inkscape (http://www.inkscape.org/) -->

<svg
   xmlns:dc="http://purl.org/dc/elements/1.1/"
   xmlns:cc="http://creativecommons.org/ns#"
   xmlns:rdf="http://www.w3.org/1999/02/22-rdf-syntax-ns#"
   xmlns:svg="http://www.w3.org/2000/svg"
   xmlns="http://www.w3.org/2000/svg"
   xmlns:xlink="http://www.w3.org/1999/xlink"
   xmlns:sodipodi="http://sodipodi.sourceforge.net/DTD/sodipodi-0.dtd"
   xmlns:inkscape="http://www.inkscape.org/namespaces/inkscape"
   width="48px"
   height="48px"
   id="svg3000"
   version="1.1"
   inkscape:version="0.47 r22583"
   sodipodi:docname="Nouveau document 4">
  <defs
     id="defs3002">
    <linearGradient
       inkscape:collect="always"
       xlink:href="#linearGradient3172-5"
       id="linearGradient2980"
       gradientUnits="userSpaceOnUse"
       gradientTransform="matrix(0.644962,0,0,1.1832362,9.235153,4.016337)"
       x1="22.892584"
       y1="0.90414524"
       x2="22.892584"
       y2="21.132059" />
    <linearGradient
       id="linearGradient3172-5">
      <stop
         id="stop3174-0"
         offset="0"
         style="stop-color:#4d4d4d;stop-opacity:1;" />
      <stop
         id="stop3176-0"
         offset="1"
         style="stop-color:#4d4d4d;stop-opacity:0;" />
    </linearGradient>
  </defs>
  <sodipodi:namedview
     id="base"
     pagecolor="#ffffff"
     bordercolor="#666666"
     borderopacity="1.0"
     inkscape:pageopacity="0.0"
     inkscape:pageshadow="2"
     inkscape:zoom="7"
     inkscape:cx="24"
     inkscape:cy="24"
     inkscape:current-layer="layer1"
     showgrid="true"
     inkscape:grid-bbox="true"
     inkscape:document-units="px"
     inkscape:window-width="1366"
     inkscape:window-height="744"
     inkscape:window-x="0"
     inkscape:window-y="24"
     inkscape:window-maximized="1" />
  <metadata
     id="metadata3005">
    <rdf:RDF>
      <cc:Work
         rdf:about="">
        <dc:format>image/svg+xml</dc:format>
        <dc:type
           rdf:resource="http://purl.org/dc/dcmitype/StillImage" />
        <dc:title></dc:title>
      </cc:Work>
    </rdf:RDF>
  </metadata>
  <g
     id="layer1"
     inkscape:label="Layer 1"
     inkscape:groupmode="layer">
    <path
       style="font-size:medium;font-style:normal;font-variant:normal;font-weight:normal;font-stretch:normal;text-indent:0;text-align:start;text-decoration:none;line-height:normal;letter-spacing:normal;word-spacing:normal;text-transform:none;direction:ltr;block-progression:tb;writing-mode:lr-tb;text-anchor:start;color:#000000;fill:#000000;fill-opacity:1;fill-rule:nonzero;stroke:none;stroke-width:2.20385528;marker:none;visibility:visible;display:inline;overflow:visible;enable-background:accumulate;font-family:Bitstream Charter;-inkscape-font-specification:Bitstream Charter"
       d="M 9.1875,3.998875 C 8.5661224,4.003475 8.00462,4.565003 8,5.186375 l 0,4.8125 32,0 0,-4.8125 c -0.0046,-0.621372 -0.566132,-1.18288 -1.1875,-1.1875 l -29.625,0 z m 1.8125,3 3,0 0,2 -3,0 0,-2 z m -3,5 0,30.8125 c 0.00189,0.589052 0.5072233,1.132978 1.09375,1.1875 0.033909,0.0015 0.059832,0.0015 0.09375,0 l 29.625,0 c 0.621368,-0.0046 1.1829,-0.566128 1.1875,-1.1875 l 0,-30.8125 -32,0 z m 16,4 c 6.075132,0 11,4.924868 11,11 0,6.075132 -4.924868,11 -11,11 -6.075132,0 -11,-4.924868 -11,-11 0,-6.075132 4.924868,-11 11,-11 z m 0,1 c -5.522848,0 -10,4.477154 -10,10 6.259888,-2.644068 13.333333,2.440678 20,0 0,-5.522846 -4.477152,-10 -10,-10 z"
       id="path3608" />
    <path
       style="fill:url(#linearGradient2980);fill-opacity:1;stroke:none"
       d="M 13.09375,28.25 C 11.240032,27.749453 9.535762,27.133033 8,26.40625 L 8,12 40,12 40,26.40625 C 38.464238,27.133033 36.759968,27.749453 34.90625,28.25 34.95289,27.838733 35,27.42374 35,27 35,20.924868 30.075132,16 24,16 c -6.075132,0 -11,4.924868 -11,11 0,0.42374 0.04711,0.838733 0.09375,1.25 z m 17.125,-0.5625 C 24.713001,27.813377 19.086159,24.851695 14,27 c 0,-5.522846 4.477152,-10 10,-10 5.522848,0 10,4.477154 10,10 -1.25,0.457627 -2.510693,0.658451 -3.78125,0.6875 z M 8,10 8,5.1875 C 8.0046,4.566128 8.566123,4.004638 9.1875,4 l 29.625,0 C 39.433868,4.0046 39.9954,4.566128 40,5.1875 L 40,10 8,10 z m 3,-1 3,0 0,-2 -3,0 0,2 z"
       id="path2966" />
  </g>
</svg>
