<?xml version="1.0" encoding="UTF-8" standalone="no"?>
<!-- Created with Inkscape (http://www.inkscape.org/) -->

<svg
   xmlns:dc="http://purl.org/dc/elements/1.1/"
   xmlns:cc="http://creativecommons.org/ns#"
   xmlns:rdf="http://www.w3.org/1999/02/22-rdf-syntax-ns#"
   xmlns:svg="http://www.w3.org/2000/svg"
   xmlns="http://www.w3.org/2000/svg"
   xmlns:xlink="http://www.w3.org/1999/xlink"
   xmlns:sodipodi="http://sodipodi.sourceforge.net/DTD/sodipodi-0.dtd"
   xmlns:inkscape="http://www.inkscape.org/namespaces/inkscape"
   width="48px"
   height="48px"
   id="svg2833"
   version="1.1"
   inkscape:version="0.47 r22583"
   sodipodi:docname="Nouveau document 3">
  <defs
     id="defs2835">
    <linearGradient
       gradientUnits="userSpaceOnUse"
       y2="21.132059"
       x2="22.892584"
       y1="0.90414524"
       x1="22.892584"
       id="linearGradient3178"
       xlink:href="#linearGradient3172"
       inkscape:collect="always" />
    <linearGradient
       id="linearGradient3172">
      <stop
         id="stop3174"
         offset="0"
         style="stop-color:#4d4d4d;stop-opacity:1;" />
      <stop
         id="stop3176"
         offset="1"
         style="stop-color:#4d4d4d;stop-opacity:0;" />
    </linearGradient>
    <linearGradient
       inkscape:collect="always"
       xlink:href="#linearGradient3172"
       id="linearGradient2956"
       gradientUnits="userSpaceOnUse"
       x1="22.892584"
       y1="0.90414524"
       x2="22.892584"
       y2="21.132059" />
    <linearGradient
       inkscape:collect="always"
       xlink:href="#linearGradient3172"
       id="linearGradient2961"
       gradientUnits="userSpaceOnUse"
       x1="22.892584"
       y1="0.90414524"
       x2="22.892584"
       y2="21.132059"
       gradientTransform="matrix(0.644962,0,0,-1.1832362,59.235153,43.983663)" />
    <linearGradient
       inkscape:collect="always"
       xlink:href="#linearGradient3172"
       id="linearGradient2964"
       gradientUnits="userSpaceOnUse"
       gradientTransform="matrix(0.644962,0,0,1.1832362,9.235403,4.0163146)"
       x1="22.892584"
       y1="0.90414524"
       x2="22.892584"
       y2="21.132059" />
  </defs>
  <sodipodi:namedview
     id="base"
     pagecolor="#ffffff"
     bordercolor="#666666"
     borderopacity="1.0"
     inkscape:pageopacity="0.0"
     inkscape:pageshadow="2"
     inkscape:zoom="7"
     inkscape:cx="24"
     inkscape:cy="22.204097"
     inkscape:current-layer="layer1"
     showgrid="true"
     inkscape:grid-bbox="true"
     inkscape:document-units="px"
     inkscape:window-width="1364"
     inkscape:window-height="720"
     inkscape:window-x="0"
     inkscape:window-y="24"
     inkscape:window-maximized="1" />
  <metadata
     id="metadata2838">
    <rdf:RDF>
      <cc:Work
         rdf:about="">
        <dc:format>image/svg+xml</dc:format>
        <dc:type
           rdf:resource="http://purl.org/dc/dcmitype/StillImage" />
        <dc:title></dc:title>
      </cc:Work>
    </rdf:RDF>
  </metadata>
  <g
     id="layer1"
     inkscape:label="Layer 1"
     inkscape:groupmode="layer">
    <path
       style="fill:#000000"
       d="m 22.100036,43.958814 c -0.190003,-0.0268 -0.811826,-0.10729 -1.381822,-0.17881 -1.371263,-0.17208 -3.778404,-0.80811 -5.066681,-1.33876 -1.970693,-0.81174 -3.677918,-1.83083 -5.563311,-3.3209 l -0.9572368,-0.75653 -0.8050408,0.7927 c -0.4707747,0.46356 -0.8472787,0.749 -0.9067629,0.68746 C 7.300125,39.720814 5,31.049384 5,30.723714 c 0,-0.15543 0.059416,-0.202 0.2015126,-0.15794 0.3369134,0.10447 8.8079174,2.41974 8.8532324,2.41974 0.193268,0 -0.07393,0.40685 -0.670149,1.02041 l -0.712388,0.73311 0.222573,0.25085 c 0.692347,0.78028 3.495994,2.39354 5.2684,3.03149 0.801638,0.28855 2.996365,0.83651 3.350397,0.83651 0.03755,0 0.06824,-3.85814 0.06824,-8.57366 l 0,-8.57366 -2.303027,0 -2.303037,0 0,-2.46639 0,-2.4664 2.303037,0 2.303027,0 0,-1.32902 0,-1.32901 -0.439821,-0.25213 c -0.635963,-0.36455 -1.601484,-1.4543 -1.921857,-2.16913 -0.92392,-2.0614404 -0.476402,-4.5006304 1.12409,-6.1268304 0.876193,-0.89026 1.749797,-1.34544 2.909183,-1.5158 2.16343,-0.31788 4.237434,0.73728 5.383525,2.73889 1.261982,2.20403 0.661611,5.2749104 -1.321818,6.7610804 -0.39831,0.29845 -0.759421,0.63018 -0.802462,0.73718 -0.09831,0.24435 -0.114733,1.86717 -0.02245,2.2183 0.06833,0.25985 0.0903,0.26231 2.618135,0.29362 l 2.549259,0.0316 0.03118,2.43703 0.03108,2.43703 -2.588036,0 -2.588026,0 -0.06765,0.38171 c -0.08432,0.47586 -0.02383,16.60478 0.06255,16.69287 0.09638,0.0982 2.012058,-0.33068 3.046123,-0.68204 1.751159,-0.59502 3.925002,-1.80972 5.309579,-2.9669 l 0.448009,-0.37443 -0.719702,-0.74448 c -0.607794,-0.62872 -0.870742,-1.03178 -0.673131,-1.03178 0.04471,0 8.434501,-2.29553 8.848909,-2.42114 0.143054,-0.0434 0.201512,0.005 0.201512,0.16587 0,0.19345 -2.192342,8.69548 -2.366413,9.17709 -0.04245,0.11757 -0.318755,-0.0926 -0.912832,-0.6945 -0.782274,-0.79254 -0.869868,-0.84951 -1.071684,-0.6971 -0.120891,0.0913 -0.74492,0.57201 -1.386745,1.06827 -2.720141,2.10319 -5.864143,3.48269 -9.347204,4.1013 -1.261424,0.22403 -4.939988,0.39705 -5.815161,0.27351 z m 2.837149,-33.29987 c 0.171374,-0.12446 0.397427,-0.45556 0.502356,-0.7357704 0.509335,-1.36026 -0.779815,-2.59237 -2.054091,-1.96321 -0.598684,0.2956 -0.882389,0.76408 -0.882389,1.4571 0,1.2573804 1.417197,1.9804304 2.434124,1.2418804 z"
       id="path2818" />
    <path
       style="fill:url(#linearGradient2964);fill-opacity:1;stroke:none"
       d="m 24.00025,29.656228 c -0.817392,0 -1.609801,-0.02036 -2.40625,-0.0625 l 0,-7.875 -2.3125,0 -2.3125,0 0,-2.46875 0,-2.46875 2.3125,0 2.3125,0 0,-1.34375 0,-1.3125 -0.4375,-0.25 c -0.635963,-0.36455 -1.617127,-1.47267 -1.9375,-2.1875 -0.92392,-2.0614404 -0.475492,-4.4988004 1.125,-6.1250004 0.876193,-0.89026 1.746864,-1.32964 2.90625,-1.5 2.16343,-0.31788 4.228909,0.71714 5.375,2.71875 1.261982,2.20403 0.670929,5.2950804 -1.3125,6.7812504 -0.39831,0.29845 -0.769459,0.61175 -0.8125,0.71875 -0.09831,0.24435 -0.09228,1.86762 0,2.21875 0.06833,0.25985 0.06592,0.28119 2.59375,0.3125 l 2.5625,0.03125 0.03125,2.4375 0.03125,2.4375 -2.59375,0 -2.59375,0 -0.0625,0.375 c -0.03847,0.217127 -0.04178,3.775886 -0.03125,7.5 -0.806484,0.04323 -1.6095,0.0625 -2.4375,0.0625 z m 0.125,-18.6875 c 0.275868,-0.01643 0.558268,-0.127862 0.8125,-0.3125 0.171374,-0.12446 0.395071,-0.43854 0.5,-0.7187504 0.509335,-1.36026 -0.788224,-2.59791 -2.0625,-1.96875 -0.598684,0.2956 -0.875,0.74448 -0.875,1.4375 0,0.9430354 0.797397,1.6117784 1.625,1.5625004 z"
       id="path2950" />
    <g
       transform="matrix(0.1337942,0,0,-0.1337942,31.527762,89.04701)"
       inkscape:label="Calque 1"
       id="g2952" />
    <g
       transform="matrix(0.1672428,0,0,-0.1672428,38.442916,104.62323)"
       inkscape:label="Calque 1"
       id="g2954" />
  </g>
</svg>
