<?xml version="1.0" encoding="UTF-8" standalone="no"?>
<!-- Created with Inkscape (http://www.inkscape.org/) -->

<svg
   xmlns:dc="http://purl.org/dc/elements/1.1/"
   xmlns:cc="http://creativecommons.org/ns#"
   xmlns:rdf="http://www.w3.org/1999/02/22-rdf-syntax-ns#"
   xmlns:svg="http://www.w3.org/2000/svg"
   xmlns="http://www.w3.org/2000/svg"
   xmlns:xlink="http://www.w3.org/1999/xlink"
   xmlns:sodipodi="http://sodipodi.sourceforge.net/DTD/sodipodi-0.dtd"
   xmlns:inkscape="http://www.inkscape.org/namespaces/inkscape"
   width="48px"
   height="48px"
   id="svg3049"
   version="1.1"
   inkscape:version="0.47 r22583"
   sodipodi:docname="Nouveau document 4">
  <defs
     id="defs3051">
    <inkscape:perspective
       sodipodi:type="inkscape:persp3d"
       inkscape:vp_x="0 : 24 : 1"
       inkscape:vp_y="0 : 1000 : 0"
       inkscape:vp_z="48 : 24 : 1"
       inkscape:persp3d-origin="24 : 16 : 1"
       id="perspective3057" />
    <inkscape:perspective
       id="perspective3039"
       inkscape:persp3d-origin="0.5 : 0.33333333 : 1"
       inkscape:vp_z="1 : 0.5 : 1"
       inkscape:vp_y="0 : 1000 : 0"
       inkscape:vp_x="0 : 0.5 : 1"
       sodipodi:type="inkscape:persp3d" />
    <linearGradient
       inkscape:collect="always"
       xlink:href="#linearGradient3172-4"
       id="linearGradient3029"
       gradientUnits="userSpaceOnUse"
       gradientTransform="matrix(0.644962,0,0,1.1832362,9.235153,4.016337)"
       x1="22.892584"
       y1="0.90414524"
       x2="22.892584"
       y2="21.132059" />
    <linearGradient
       id="linearGradient3172-4">
      <stop
         id="stop3174-2"
         offset="0"
         style="stop-color:#4d4d4d;stop-opacity:1;" />
      <stop
         id="stop3176-2"
         offset="1"
         style="stop-color:#4d4d4d;stop-opacity:0;" />
    </linearGradient>
  </defs>
  <sodipodi:namedview
     id="base"
     pagecolor="#ffffff"
     bordercolor="#666666"
     borderopacity="1.0"
     inkscape:pageopacity="0.0"
     inkscape:pageshadow="2"
     inkscape:zoom="7"
     inkscape:cx="24"
     inkscape:cy="24"
     inkscape:current-layer="layer1"
     showgrid="true"
     inkscape:grid-bbox="true"
     inkscape:document-units="px"
     inkscape:window-width="1366"
     inkscape:window-height="744"
     inkscape:window-x="0"
     inkscape:window-y="24"
     inkscape:window-maximized="1" />
  <metadata
     id="metadata3054">
    <rdf:RDF>
      <cc:Work
         rdf:about="">
        <dc:format>image/svg+xml</dc:format>
        <dc:type
           rdf:resource="http://purl.org/dc/dcmitype/StillImage" />
        <dc:title></dc:title>
      </cc:Work>
    </rdf:RDF>
  </metadata>
  <g
     id="layer1"
     inkscape:label="Layer 1"
     inkscape:groupmode="layer">
    <path
       style="fill:#000000;fill-opacity:1;stroke:none"
       d="M 9.5625,7.75 C 6.473494,7.75 4,10.223494 4,13.3125 l 0,21.375 C 4,37.776506 6.473494,40.25 9.5625,40.25 l 28.875,0 C 41.526508,40.25 44,37.776506 44,34.6875 l 0,-21.375 C 44,10.223492 41.526506,7.75 38.4375,7.75 l -28.875,0 z M 24.03125,12 c 1.175984,0.0098 2.272884,0.636655 2.90625,1.6875 0.797041,1.322417 0.408942,3.139548 -0.84375,4.03125 -0.251564,0.17907 -0.472817,0.40455 -0.5,0.46875 -0.06209,0.14661 -0.08953,1.101822 -0.03125,1.3125 0.04316,0.15591 0.05972,0.168714 1.65625,0.1875 l 1.625,0 0,1.46875 0.03125,1.46875 -1.625,0 -1.65625,0 -0.03125,0.21875 c -0.05325,0.285516 -0.02331,9.978396 0.03125,10.03125 0.06087,0.05892 1.284406,-0.195434 1.9375,-0.40625 1.105995,-0.357011 2.46928,-1.086942 3.34375,-1.78125 L 31.15625,30.46875 30.71875,30 c -0.38387,-0.377232 -0.562306,-0.59375 -0.4375,-0.59375 0.02824,0 5.332019,-1.393384 5.59375,-1.46875 0.09035,-0.02604 0.125,-0.0028 0.125,0.09375 0,0.11607 -1.390061,5.211034 -1.5,5.5 -0.02681,0.07054 -0.187294,-0.04511 -0.5625,-0.40625 -0.494068,-0.475524 -0.560038,-0.497696 -0.6875,-0.40625 -0.07635,0.05478 -0.469636,0.327244 -0.875,0.625 -1.717984,1.261913 -3.706422,2.097584 -5.90625,2.46875 -0.796689,0.134418 -3.103509,0.230374 -3.65625,0.15625 -0.120002,-0.01608 -0.515002,-0.05083 -0.875,-0.09375 -0.86606,-0.103248 -2.405101,-0.49411 -3.21875,-0.8125 -1.244648,-0.487044 -2.309224,-1.105958 -3.5,-2 l -0.625,-0.4375 -0.5,0.46875 C 13.796419,33.371886 13.56882,33.536924 13.53125,33.5 13.45606,33.4261 12,28.226652 12,28.03125 c 0,-0.09326 0.03526,-0.12019 0.125,-0.09375 0.212786,0.06268 5.56513,1.46875 5.59375,1.46875 0.122065,0 -0.06094,0.225614 -0.4375,0.59375 L 16.84375,30.4375 17,30.59375 c 0.437271,0.468168 2.193086,1.429731 3.3125,1.8125 0.506298,0.17313 1.901401,0.5 2.125,0.5 0.02372,0 0.03125,-2.29569 0.03125,-5.125 l 0,-5.15625 -1.4375,0 -1.46875,0 0,-1.46875 0,-1.5 1.46875,0 1.4375,0 0,-0.78125 0,-0.8125 -0.28125,-0.15625 c -0.401662,-0.21873 -1.016409,-0.852352 -1.21875,-1.28125 -0.583528,-1.236863 -0.292088,-2.71178 0.71875,-3.6875 0.553384,-0.534156 1.111505,-0.804034 1.84375,-0.90625 0.170797,-0.02384 0.332002,-0.03265 0.5,-0.03125 z m -0.125,2.28125 c -0.09866,0.01432 -0.180649,0.04656 -0.28125,0.09375 -0.378116,0.177359 -0.5625,0.459188 -0.5625,0.875 0,0.754428 0.88898,1.193129 1.53125,0.75 0.108237,-0.07468 0.246229,-0.269374 0.3125,-0.4375 0.281475,-0.714136 -0.309398,-1.381485 -1,-1.28125 z"
       id="rect2386" />
    <path
       style="fill:url(#linearGradient3029);fill-opacity:1;stroke:none"
       d="m 22.46875,29.625 c -2.49547,-0.08391 -4.893983,-0.387584 -7.125,-0.84375 -1.532308,-0.401811 -3.096322,-0.807687 -3.21875,-0.84375 -0.04487,-0.01322 -0.07372,-0.01508 -0.09375,0 C 8.810631,26.955976 6.052088,25.598146 4,23.96875 L 4,13.3125 C 4,10.223494 6.473494,7.75 9.5625,7.75 l 28.875,0 C 41.526506,7.75 44,10.223492 44,13.3125 l 0,10.65625 c -2.052088,1.629396 -4.810631,2.987226 -8.03125,3.96875 -0.01996,-0.01462 -0.04857,-0.01302 -0.09375,0 -0.150589,0.04336 -1.69509,0.444189 -3.21875,0.84375 -2.221682,0.454257 -4.609583,0.758519 -7.09375,0.84375 -0.02148,-2.908323 -0.03572,-6.589698 0,-6.78125 l 0.03125,-0.21875 1.65625,0 1.625,0 -0.03125,-1.46875 0,-1.46875 -1.625,0 C 25.62222,19.66871 25.60566,19.65591 25.5625,19.5 c -0.05828,-0.210678 -0.03084,-1.16589 0.03125,-1.3125 0.02718,-0.0642 0.248436,-0.28968 0.5,-0.46875 1.252692,-0.891702 1.640791,-2.708833 0.84375,-4.03125 C 26.304134,12.636655 25.207234,12.0098 24.03125,12 c -0.167998,-0.0014 -0.329203,0.0074 -0.5,0.03125 -0.732245,0.102216 -1.290366,0.372094 -1.84375,0.90625 -1.010838,0.97572 -1.302278,2.450637 -0.71875,3.6875 0.202341,0.428898 0.817088,1.06252 1.21875,1.28125 l 0.28125,0.15625 0,0.8125 0,0.78125 -1.4375,0 -1.46875,0 0,1.5 0,1.46875 1.46875,0 1.4375,0 0,5.15625 c 0,1.017824 0.0024,1.046078 0,1.84375 z m 1.625,-13.4375 C 23.572767,16.2157 23.0625,15.815821 23.0625,15.25 c 0,-0.415812 0.184384,-0.697641 0.5625,-0.875 0.100601,-0.04719 0.18259,-0.07943 0.28125,-0.09375 0.690602,-0.100235 1.281475,0.567114 1,1.28125 -0.06627,0.168126 -0.204263,0.36282 -0.3125,0.4375 -0.160567,0.110782 -0.326339,0.178101 -0.5,0.1875 z"
       id="path3015" />
  </g>
</svg>
