<?xml version="1.0" encoding="UTF-8" standalone="no"?>
<!-- Created with Inkscape (http://www.inkscape.org/) -->

<svg
   xmlns:dc="http://purl.org/dc/elements/1.1/"
   xmlns:cc="http://creativecommons.org/ns#"
   xmlns:rdf="http://www.w3.org/1999/02/22-rdf-syntax-ns#"
   xmlns:svg="http://www.w3.org/2000/svg"
   xmlns="http://www.w3.org/2000/svg"
   xmlns:xlink="http://www.w3.org/1999/xlink"
   xmlns:sodipodi="http://sodipodi.sourceforge.net/DTD/sodipodi-0.dtd"
   xmlns:inkscape="http://www.inkscape.org/namespaces/inkscape"
   width="48px"
   height="48px"
   id="svg3615"
   version="1.1"
   inkscape:version="0.47 r22583"
   sodipodi:docname="Nouveau document 3">
  <defs
     id="defs3617">
    <linearGradient
       gradientUnits="userSpaceOnUse"
       y2="21.132059"
       x2="22.892584"
       y1="0.90414524"
       x1="22.892584"
       id="linearGradient3178"
       xlink:href="#linearGradient3172"
       inkscape:collect="always" />
    <linearGradient
       id="linearGradient3172">
      <stop
         id="stop3174"
         offset="0"
         style="stop-color:#4d4d4d;stop-opacity:1;" />
      <stop
         id="stop3176"
         offset="1"
         style="stop-color:#4d4d4d;stop-opacity:0;" />
    </linearGradient>
    <linearGradient
       inkscape:collect="always"
       xlink:href="#linearGradient3172"
       id="linearGradient3759"
       gradientUnits="userSpaceOnUse"
       x1="22.892584"
       y1="0.90414524"
       x2="22.892584"
       y2="21.132059" />
    <linearGradient
       inkscape:collect="always"
       xlink:href="#linearGradient3172"
       id="linearGradient3764"
       gradientUnits="userSpaceOnUse"
       x1="22.892584"
       y1="0.90414524"
       x2="22.892584"
       y2="21.132059"
       gradientTransform="matrix(0.644962,0,0,-1.1832362,59.235153,43.983663)" />
    <linearGradient
       inkscape:collect="always"
       xlink:href="#linearGradient3172"
       id="linearGradient3767"
       gradientUnits="userSpaceOnUse"
       gradientTransform="matrix(0.644962,0,0,1.1832362,9.2347089,4.0163294)"
       x1="22.892584"
       y1="0.90414524"
       x2="22.892584"
       y2="21.132059" />
  </defs>
  <sodipodi:namedview
     id="base"
     pagecolor="#ffffff"
     bordercolor="#666666"
     borderopacity="1.0"
     inkscape:pageopacity="0.0"
     inkscape:pageshadow="2"
     inkscape:zoom="7"
     inkscape:cx="24"
     inkscape:cy="27.604336"
     inkscape:current-layer="layer1"
     showgrid="true"
     inkscape:grid-bbox="true"
     inkscape:document-units="px"
     inkscape:window-width="1364"
     inkscape:window-height="719"
     inkscape:window-x="0"
     inkscape:window-y="25"
     inkscape:window-maximized="1" />
  <metadata
     id="metadata3620">
    <rdf:RDF>
      <cc:Work
         rdf:about="">
        <dc:format>image/svg+xml</dc:format>
        <dc:type
           rdf:resource="http://purl.org/dc/dcmitype/StillImage" />
        <dc:title></dc:title>
      </cc:Work>
    </rdf:RDF>
  </metadata>
  <g
     id="layer1"
     inkscape:label="Layer 1"
     inkscape:groupmode="layer">
    <path
       style="fill:#000000"
       d="m 37.75,4.0018064 c -1.432439,0.145897 -7.779728,5.982815 -8.875,9.0937496 -0.869725,2.879285 -1.275918,6.080049 -3.21875,7.59375 l -1.90625,1.4375 c -4.63138,3.656428 -9.26806,7.30446 -13.34375,11.53125 -4.9432104,5.126473 -6.329514,7.345296 -6.3125,8.40625 0.00487,0.293461 0.2051554,0.732006 0.5,1.125 l -0.03125,0.03125 c 0.051334,0.04907 0.1321454,0.07857 0.1875,0.125 0.046743,0.0551 0.075641,0.136436 0.125,0.1875 l 0.03125,-0.03125 c 0.3946889,0.292568 0.8315188,0.497036 1.125,0.5 1.0610107,0.01086 3.0174475,-1.10963 8.40625,-6.375 4.199755,-4.103557 7.65226,-8.87778 11.40625,-13.40625 l 1.46875,-1.90625 c 1.502457,-1.951537 4.657037,-2.363656 7.53125,-3.25 3.311503,-1.187464 9.698815,-8.37886 9,-9.1562496 C 43.144909,9.1306424 36.386572,16.698348 35.75,16.001806 35.113443,15.305265 43.021908,8.7126944 42.1875,7.8768064 41.370704,7.0585544 34.87538,14.803909 33.75,14.189306 33.128905,13.067491 40.822954,6.5326154 40,5.7205564 39.159306,4.8909914 32.637703,12.82183 31.9375,12.189306 c -0.700211,-0.632535 6.812687,-7.4306626 6.03125,-8.1249996 -0.04884,-0.0434 -0.123254,-0.07223 -0.21875,-0.0625 z m -29.03125,0.25 c -0.9159047,0.05823 -1.7996866,0.368723 -2.5625,0.96875 -5.28949329,4.160716 0.8672519,13.9062496 8.78125,13.9062496 1.866812,0 2.856141,0.505626 4.21875,2.125 l 1.78125,2.125 0.09375,0.0625 c 0.767766,-0.608765 1.512615,-1.236919 2.28125,-1.84375 l 0.4375,-0.34375 -2.875,-2.53125 c -1.258883,-1.20608 -2.172246,-2.96618 -2.4375,-4.625 C 17.536495,8.4609744 12.687681,3.9994854 8.71875,4.2518064 z m 18.1875,19.7499996 -0.5,0.65625 -0.03125,0 c -0.690438,0.832879 -1.351392,1.684669 -2.03125,2.53125 l 7,7.84375 c 4.442201,4.655486 8.424115,8.473619 8.875,8.46875 1.189596,-0.01276 3,-2.015907 3,-3.3125 0,-1.176976 -6.775395,-8.161869 -13.1875,-13.5625 l -3.125,-2.625 z"
       id="path3611" />
    <path
       style="fill:url(#linearGradient3767);fill-opacity:1;stroke:none"
       d="m 21.530806,29.593742 c -2.090483,-0.113503 -4.103234,-0.402938 -6,-0.78125 2.655556,-2.309589 5.445398,-4.497967 8.21875,-6.6875 l 1.90625,-1.4375 c 1.942832,-1.513701 2.349025,-4.714465 3.21875,-7.59375 1.095272,-3.1109346 7.442561,-8.9478526 8.875,-9.0937496 0.0955,-0.0097 0.16991,0.0191 0.21875,0.0625 0.781437,0.694337 -6.731461,7.4924646 -6.03125,8.1249996 0.700203,0.632524 7.221806,-7.2983146 8.0625,-6.4687496 0.822954,0.812059 -6.871095,7.3469346 -6.25,8.4687496 1.12538,0.614603 7.620704,-7.1307516 8.4375,-6.3124996 0.834408,0.835888 -7.074057,7.4284586 -6.4375,8.1249996 0.636572,0.696542 7.394909,-6.8711636 8.09375,-6.0937496 0.698815,0.7773896 -5.688497,7.9687856 -9,9.1562496 -2.874213,0.886344 -6.028793,1.298463 -7.53125,3.25 l -1.46875,1.90625 c -1.464972,1.767208 -2.877028,3.587404 -4.3125,5.375 z m 4.96875,0 -2.15625,-2.40625 c 0.679858,-0.846581 1.340812,-1.698371 2.03125,-2.53125 l 0.03125,0 0.5,-0.65625 3.125,2.625 c 0.834807,0.703121 1.668631,1.446986 2.5,2.1875 -1.904858,0.38301 -3.929971,0.665703 -6.03125,0.78125 z m -5.46875,-6.15625 -0.09375,-0.0625 -1.78125,-2.125 c -1.362609,-1.619374 -2.351938,-2.125 -4.21875,-2.125 -7.9139981,0 -14.07074311,-9.7455336 -8.7812501,-13.9062496 0.762813,-0.600027 1.646595,-0.91052 2.5625,-0.96875 3.9689311,-0.252321 8.8177451,4.209168 9.7187501,9.8437496 0.265254,1.65882 1.178617,3.41892 2.4375,4.625 l 2.875,2.53125 -0.4375,0.34375 c -0.768635,0.606831 -1.513484,1.234985 -2.28125,1.84375 z"
       id="path3753" />
    <g
       transform="matrix(0.1337942,0,0,-0.1337942,31.527762,89.04701)"
       inkscape:label="Calque 1"
       id="g3755" />
    <g
       transform="matrix(0.1672428,0,0,-0.1672428,38.442916,104.62323)"
       inkscape:label="Calque 1"
       id="g3757" />
  </g>
</svg>
