<?xml version="1.0" encoding="UTF-8" standalone="no"?>
<!-- Created with Inkscape (http://www.inkscape.org/) -->

<svg
   xmlns:dc="http://purl.org/dc/elements/1.1/"
   xmlns:cc="http://creativecommons.org/ns#"
   xmlns:rdf="http://www.w3.org/1999/02/22-rdf-syntax-ns#"
   xmlns:svg="http://www.w3.org/2000/svg"
   xmlns="http://www.w3.org/2000/svg"
   xmlns:xlink="http://www.w3.org/1999/xlink"
   xmlns:sodipodi="http://sodipodi.sourceforge.net/DTD/sodipodi-0.dtd"
   xmlns:inkscape="http://www.inkscape.org/namespaces/inkscape"
   width="48px"
   height="48px"
   id="svg3977"
   version="1.1"
   inkscape:version="0.47 r22583"
   sodipodi:docname="Nouveau document 10">
  <defs
     id="defs3979">
    <linearGradient
       inkscape:collect="always"
       xlink:href="#linearGradient3172-6"
       id="linearGradient3957"
       gradientUnits="userSpaceOnUse"
       gradientTransform="matrix(0.644962,0,0,1.1832362,9.235153,4.0163371)"
       x1="22.892584"
       y1="0.90414524"
       x2="22.892584"
       y2="21.132059" />
    <linearGradient
       id="linearGradient3172-6">
      <stop
         id="stop3174-0"
         offset="0"
         style="stop-color:#4d4d4d;stop-opacity:1;" />
      <stop
         id="stop3176-7"
         offset="1"
         style="stop-color:#4d4d4d;stop-opacity:0;" />
    </linearGradient>
  </defs>
  <sodipodi:namedview
     id="base"
     pagecolor="#ffffff"
     bordercolor="#666666"
     borderopacity="1.0"
     inkscape:pageopacity="0.0"
     inkscape:pageshadow="2"
     inkscape:zoom="7"
     inkscape:cx="24"
     inkscape:cy="24"
     inkscape:current-layer="layer1"
     showgrid="true"
     inkscape:grid-bbox="true"
     inkscape:document-units="px"
     inkscape:window-width="1364"
     inkscape:window-height="719"
     inkscape:window-x="0"
     inkscape:window-y="25"
     inkscape:window-maximized="1" />
  <metadata
     id="metadata3982">
    <rdf:RDF>
      <cc:Work
         rdf:about="">
        <dc:format>image/svg+xml</dc:format>
        <dc:type
           rdf:resource="http://purl.org/dc/dcmitype/StillImage" />
        <dc:title></dc:title>
      </cc:Work>
    </rdf:RDF>
  </metadata>
  <g
     id="layer1"
     inkscape:label="Layer 1"
     inkscape:groupmode="layer">
    <path
       style="fill:#000000;fill-opacity:1;stroke:none"
       d="M 32.125,3.9901021 4,13.865102 l 9.78125,28.1875 9.8125,-3.46875 c -2.868664,-0.376405 -5.436347,-1.668118 -7.4375,-3.5625 l -2.4375,0.875 L 6.5,15.083852 30.90625,6.4588521 33.875,14.990102 c 1.660147,1.362981 2.991986,3.093614 3.84375,5.09375 L 32.125,3.9901021 z m -6.78125,8.9374999 c -6.863625,0 -12.406249,5.533522 -12.40625,12.375 0,6.841476 5.542622,12.40625 12.40625,12.40625 3.070776,0 5.889393,-1.098005 8.0625,-2.9375 l 0.875,2.9375 5.46875,5.8125 c 0.374943,0.400429 2.094963,0.994356 3.46875,-0.375 1.165696,-1.161934 0.789458,-3.114411 0.375,-3.5 l -5.8125,-5.4375 -2.90625,-0.875 c 1.834844,-2.157419 2.90625,-4.984452 2.90625,-8.03125 0,-6.84148 -5.573878,-12.375 -12.4375,-12.375 z m 0,3.09375 c 5.147716,0 9.34375,4.150141 9.34375,9.28125 0,5.131107 -4.196036,9.312499 -9.34375,9.3125 C 20.196032,34.615101 16,30.43371 16,25.302602 c 0,-5.131109 4.196028,-9.28125 9.34375,-9.28125 z M 38.25,21.615102 c 0.340253,1.175453 0.53125,2.40351 0.53125,3.6875 0,2.770234 -0.953164,5.292644 -2.40625,7.4375 l 1.71875,0.53125 0.21875,0.0625 0.03125,0.03125 3.5625,-1.25 -3.65625,-10.5 z m -5.53125,7.5625 -10.625,3.78125 c 0.998245,0.420943 2.0979,0.65625 3.25,0.65625 3.202571,-10e-7 5.976339,-1.800292 7.375,-4.4375 z"
       id="path4119" />
    <path
       style="fill:url(#linearGradient3957);fill-opacity:1;stroke:none"
       d="m 16.8125,29.0625 c -1.211943,-0.200794 -2.37922,-0.454961 -3.5,-0.75 -0.238926,-0.961411 -0.375,-1.96536 -0.375,-3 10e-7,-6.841478 5.542625,-12.375 12.40625,-12.375 6.863622,0 12.4375,5.53352 12.4375,12.375 0,0.706766 -0.04479,1.385 -0.15625,2.0625 -1.10694,0.404315 -2.268819,0.790729 -3.5,1.09375 0.36023,-0.988815 0.5625,-2.045691 0.5625,-3.15625 0,-5.131109 -4.196034,-9.28125 -9.34375,-9.28125 -5.147722,0 -9.34375,4.150141 -9.34375,9.28125 0,1.332837 0.303123,2.601965 0.8125,3.75 z m -6,-1.53125 C 9.97112,27.238204 9.169116,26.938782 8.40625,26.59375 L 4,13.875 32.125,4.0000001 37.71875,20.09375 C 36.866986,18.093614 35.535147,16.362981 33.875,15 L 30.90625,6.4687501 6.5,15.09375 l 4.3125,12.4375 z m 27.84375,-0.5625 c 0.07503,-0.54178 0.125,-1.09288 0.125,-1.65625 0,-1.28399 -0.190997,-2.512047 -0.53125,-3.6875 l 1.6875,4.8125 c -0.41111,0.193186 -0.845535,0.353138 -1.28125,0.53125 z"
       id="path3943" />
  </g>
</svg>
