<?xml version="1.0" encoding="UTF-8" standalone="no"?>
<!-- Created with Inkscape (http://www.inkscape.org/) -->

<svg
   xmlns:dc="http://purl.org/dc/elements/1.1/"
   xmlns:cc="http://creativecommons.org/ns#"
   xmlns:rdf="http://www.w3.org/1999/02/22-rdf-syntax-ns#"
   xmlns:svg="http://www.w3.org/2000/svg"
   xmlns="http://www.w3.org/2000/svg"
   xmlns:xlink="http://www.w3.org/1999/xlink"
   xmlns:sodipodi="http://sodipodi.sourceforge.net/DTD/sodipodi-0.dtd"
   xmlns:inkscape="http://www.inkscape.org/namespaces/inkscape"
   width="48px"
   height="48px"
   id="svg2965"
   version="1.1"
   inkscape:version="0.47 r22583"
   sodipodi:docname="Nouveau document 3">
  <defs
     id="defs2967">
    <linearGradient
       inkscape:collect="always"
       xlink:href="#linearGradient3172-4"
       id="linearGradient2945"
       gradientUnits="userSpaceOnUse"
       gradientTransform="matrix(0.644962,0,0,1.1832362,9.234653,3.516337)"
       x1="22.892584"
       y1="0.90414524"
       x2="22.892584"
       y2="21.132059" />
    <linearGradient
       id="linearGradient3172-4">
      <stop
         id="stop3174-8"
         offset="0"
         style="stop-color:#4d4d4d;stop-opacity:1;" />
      <stop
         id="stop3176-8"
         offset="1"
         style="stop-color:#4d4d4d;stop-opacity:0;" />
    </linearGradient>
  </defs>
  <sodipodi:namedview
     id="base"
     pagecolor="#ffffff"
     bordercolor="#666666"
     borderopacity="1.0"
     inkscape:pageopacity="0.0"
     inkscape:pageshadow="2"
     inkscape:zoom="7"
     inkscape:cx="24"
     inkscape:cy="24"
     inkscape:current-layer="layer1"
     showgrid="true"
     inkscape:grid-bbox="true"
     inkscape:document-units="px"
     inkscape:window-width="596"
     inkscape:window-height="502"
     inkscape:window-x="48"
     inkscape:window-y="194"
     inkscape:window-maximized="0" />
  <metadata
     id="metadata2970">
    <rdf:RDF>
      <cc:Work
         rdf:about="">
        <dc:format>image/svg+xml</dc:format>
        <dc:type
           rdf:resource="http://purl.org/dc/dcmitype/StillImage" />
        <dc:title></dc:title>
      </cc:Work>
    </rdf:RDF>
  </metadata>
  <g
     id="layer1"
     inkscape:label="Layer 1"
     inkscape:groupmode="layer">
    <path
       style="fill:#000000;fill-opacity:1;fill-rule:nonzero;stroke:none;stroke-width:1;marker:none;visibility:visible;display:inline;overflow:visible;enable-background:accumulate"
       d="m 14.71875,4 c -0.911524,0 -1.625,0.580078 -1.625,1.28125 l 0,6.5625 c 0,0.701172 0.713476,1.25 1.625,1.25 l 0.375,0 c 0.911524,0 1.625,-0.548828 1.625,-1.25 l 0,-6.5625 C 16.71875,4.580078 16.005274,4 15.09375,4 l -0.375,0 z M 32.9375,4 c -0.911524,0 -1.65625,0.580078 -1.65625,1.28125 l 0,6.5625 c 0,0.701172 0.744726,1.25 1.65625,1.25 l 0.34375,0 c 0.911524,0 1.625,-0.548828 1.625,-1.25 l 0,-6.5625 C 34.90625,4.580078 34.192774,4 33.28125,4 L 32.9375,4 z M 8.28125,8.125 c -1.0955686,0 -1.96875,0.873181 -1.96875,1.96875 l 0,7.53125 35.375,0 0,-7.53125 C 41.6875,8.998181 40.81432,8.125 39.71875,8.125 l -3.84375,0 0,3.6875 c 0,0.684336 -0.34262,1.302015 -0.84375,1.6875 L 35,13.5 c -0.484767,0.36353 -1.08394,0.5625 -1.71875,0.5625 l -0.34375,0 c -0.645253,0 -1.26152,-0.186746 -1.75,-0.5625 -0.501131,-0.385485 -0.875,-1.003164 -0.875,-1.6875 l 0,-3.6875 -12.625,0 0,3.6875 c 0,0.684336 -0.342619,1.302015 -0.84375,1.6875 -0.488479,0.375754 -1.135996,0.5625 -1.78125,0.5625 l -0.3125,0 c -0.645254,0 -1.29277,-0.186747 -1.78125,-0.5625 C 12.46762,13.114515 12.125,12.496836 12.125,11.8125 l 0,-3.6875 -3.84375,0 z m -1.96875,10.46875 0,22.9375 c 0,1.100328 0.8684232,1.96875 1.96875,1.96875 l 31.4375,0 c 1.100326,0 1.96875,-0.868422 1.96875,-1.96875 l 0,-22.9375 -35.375,0 z m 11.53125,4.96875 c 0.841585,1.6e-5 1.600342,0.11575 2.25,0.3125 0.64964,0.189493 1.182047,0.440847 1.625,0.8125 0.442933,0.371683 0.771134,0.835731 1,1.375 0.228842,0.532009 0.343738,1.127476 0.34375,1.8125 -1.2e-5,0.721484 -0.149597,1.385751 -0.4375,1.96875 -0.287923,0.583018 -0.643435,1.12945 -1.09375,1.625 -0.450335,0.488277 -0.94633,0.945038 -1.5,1.375 -0.546304,0.429976 -1.07699,0.841899 -1.59375,1.25 -0.516773,0.408111 -1.009328,0.83461 -1.4375,1.25 -0.420801,0.415398 -0.730798,0.838808 -0.9375,1.3125 l 7.25,0 0,2.53125 -10.90625,0 0,-2.125 C 12.760604,36.297304 13.178113,35.612163 13.6875,35 c 0.509382,-0.619443 1.040068,-1.177361 1.59375,-1.6875 0.561057,-0.517414 1.109948,-1.000237 1.65625,-1.4375 0.553673,-0.444537 1.064433,-0.873136 1.5,-1.28125 0.442936,-0.415385 0.789344,-0.834597 1.0625,-1.25 0.27314,-0.415384 0.406242,-0.846082 0.40625,-1.3125 -8e-6,-0.685023 -0.153036,-1.172045 -0.5,-1.5 C 19.059271,26.203321 18.546789,26.000013 17.875,26 c -0.66442,1.3e-5 -1.20815,0.17417 -1.5625,0.53125 -0.346976,0.349817 -0.521651,0.886863 -0.625,1.59375 l -3.15625,-0.15625 c 0.07382,-0.60486 0.208645,-1.186742 0.4375,-1.71875 0.228852,-0.531982 0.579201,-0.974167 1,-1.375 0.428176,-0.400804 0.958862,-0.742819 1.59375,-0.96875 0.642262,-0.233189 1.395358,-0.343734 2.28125,-0.34375 z m 12.65625,0 c 0.908026,1.6e-5 1.717959,0.108463 2.375,0.3125 0.664405,0.196781 1.196812,0.479384 1.625,0.84375 0.428167,0.357107 0.762033,0.778419 0.96875,1.28125 0.206695,0.502858 0.312489,1.05139 0.3125,1.65625 -1.1e-5,0.40083 -0.08588,0.777305 -0.21875,1.15625 -0.125511,0.371679 -0.318893,0.72518 -0.5625,1.03125 -0.24363,0.30609 -0.520656,0.569918 -0.875,0.78125 -0.346982,0.21135 -0.744566,0.350057 -1.1875,0.4375 l 0,0.0625 c 0.457699,0.07288 0.889974,0.209492 1.28125,0.40625 0.398638,0.189486 0.712076,0.43664 1,0.75 0.287902,0.306086 0.525076,0.687749 0.6875,1.125 0.162401,0.429974 0.249988,0.890934 0.25,1.4375 -1.2e-5,0.663177 -0.09104,1.282607 -0.3125,1.84375 -0.221483,0.553861 -0.573553,1.060645 -1.03125,1.46875 -0.457718,0.400819 -1.048683,0.711584 -1.75,0.9375 -0.701335,0.225916 -1.532915,0.34375 -2.5,0.34375 -0.959715,0 -1.791296,-0.117834 -2.5,-0.34375 -0.70133,-0.225916 -1.284912,-0.536681 -1.75,-0.9375 -0.457709,-0.408105 -0.80978,-0.914889 -1.03125,-1.46875 -0.221472,-0.553855 -0.343751,-1.156611 -0.34375,-1.8125 -1e-6,-0.561141 0.104072,-1.038776 0.28125,-1.46875 0.177176,-0.437251 0.423453,-0.842875 0.71875,-1.15625 0.295293,-0.313359 0.647364,-0.536552 1.03125,-0.71875 0.383881,-0.18947 0.750216,-0.309403 1.15625,-0.375 l 0,-0.0625 C 27.689437,30.99902 27.315719,30.843637 26.96875,30.625 26.621775,30.406381 26.337366,30.14984 26.09375,29.84375 25.85013,29.53768 25.632881,29.184179 25.5,28.8125 c -0.125502,-0.378945 -0.187501,-0.748133 -0.1875,-1.15625 -1e-6,-0.612148 0.122277,-1.184642 0.34375,-1.6875 0.228852,-0.502832 0.564437,-0.955393 1,-1.3125 0.435557,-0.357078 0.982729,-0.591757 1.625,-0.78125 0.649645,-0.19675 1.369771,-0.312484 2.21875,-0.3125 z m 0,2.15625 c -0.38389,1.3e-5 -0.710372,0.07821 -0.96875,0.1875 -0.258389,0.10204 -0.469974,0.216786 -0.625,0.40625 C 28.751216,26.494704 28.660187,26.737658 28.59375,27 28.5273,27.255079 28.5,27.506432 28.5,27.8125 c -4e-6,0.269653 0.04207,0.550157 0.09375,0.8125 0.05906,0.262365 0.164848,0.507419 0.3125,0.71875 0.147643,0.204064 0.35923,0.368833 0.625,0.5 0.265761,0.131186 0.579199,0.18751 1,0.1875 0.442937,10e-6 0.796727,-0.05632 1.0625,-0.1875 0.27314,-0.131167 0.484727,-0.288649 0.625,-0.5 C 32.359007,29.132419 32.455698,28.887365 32.5,28.625 32.54429,28.362657 32.56249,28.074866 32.5625,27.8125 32.562491,27.506432 32.53519,27.255079 32.46875,27 32.4023,26.737658 32.280021,26.494704 32.125,26.3125 31.969963,26.123036 31.765759,26.00829 31.5,25.90625 c -0.258391,-0.1093 -0.601358,-0.187487 -1,-0.1875 z m 0,6.46875 c -0.442949,7e-6 -0.822328,0.08029 -1.125,0.21875 -0.295301,0.131184 -0.534195,0.305341 -0.71875,0.53125 -0.177181,0.225923 -0.293798,0.482463 -0.375,0.78125 -0.07383,0.29151 -0.125004,0.609563 -0.125,0.9375 -4e-6,0.386248 0.05117,0.710598 0.125,1.03125 0.0812,0.320657 0.190436,0.641799 0.375,0.875 0.191937,0.225919 0.439935,0.376113 0.75,0.5 0.310055,0.123892 0.691154,0.187502 1.15625,0.1875 0.465083,2e-6 0.884815,-0.06361 1.1875,-0.1875 0.302671,-0.131175 0.510315,-0.298045 0.6875,-0.53125 0.177169,-0.233201 0.30855,-0.523093 0.375,-0.84375 0.07381,-0.327939 0.124991,-0.668965 0.125,-1.0625 -9e-6,-0.313363 -0.05118,-0.61474 -0.125,-0.90625 C 32.74605,33.427251 32.622051,33.156135 32.4375,32.9375 32.260316,32.711591 32.036185,32.537434 31.71875,32.40625 31.4013,32.267792 30.987231,32.187507 30.5,32.1875 z"
       id="rect3483" />
    <path
       style="fill:url(#linearGradient2945);fill-opacity:1;stroke:none"
       d="m 23.9995,29.15625 c -0.382175,0 -0.747178,-0.02192 -1.125,-0.03125 0.108869,-0.392228 0.187493,-0.809683 0.1875,-1.25 -1.2e-5,-0.685024 -0.114908,-1.280491 -0.34375,-1.8125 -0.228866,-0.539269 -0.557067,-1.003317 -1,-1.375 -0.442953,-0.371653 -0.97536,-0.623007 -1.625,-0.8125 -0.649658,-0.19675 -1.408415,-0.312484 -2.25,-0.3125 -0.885892,1.6e-5 -1.638988,0.110561 -2.28125,0.34375 -0.634888,0.225931 -1.165574,0.567946 -1.59375,0.96875 -0.420799,0.400833 -0.771148,0.843018 -1,1.375 -0.183876,0.427448 -0.295397,0.89711 -0.375,1.375 C 10.230613,26.950171 8.113232,26.06758 6.312,25.03125 l 0,-6.4375 35.375,0 0,6.4375 C 39.984475,26.010789 37.988964,26.841251 35.78075,27.5 35.76375,26.957523 35.6567,26.45847 35.46825,26 35.261533,25.497169 34.927667,25.075857 34.4995,24.71875 34.071312,24.354384 33.538905,24.071781 32.8745,23.875 c -0.657041,-0.204037 -1.466974,-0.312484 -2.375,-0.3125 -0.848979,1.6e-5 -1.569105,0.11575 -2.21875,0.3125 -0.642271,0.189493 -1.189443,0.424172 -1.625,0.78125 -0.435563,0.357107 -0.771148,0.809668 -1,1.3125 -0.221473,0.502858 -0.343751,1.075352 -0.34375,1.6875 -1e-6,0.408117 0.062,0.777305 0.1875,1.15625 0.03953,0.110556 0.103322,0.20593 0.15625,0.3125 -0.552886,0.02011 -1.093732,0.03125 -1.65625,0.03125 z M 19.71825,28.9375 c -1.910859,-0.181785 -3.743524,-0.469597 -5.46875,-0.875 l 1.4375,0.0625 c 0.103349,-0.706887 0.278024,-1.243933 0.625,-1.59375 0.35435,-0.35708 0.89808,-0.531237 1.5625,-0.53125 0.671789,1.3e-5 1.184271,0.203321 1.53125,0.53125 0.346964,0.327955 0.499992,0.814977 0.5,1.5 -5e-6,0.315636 -0.06344,0.617006 -0.1875,0.90625 z M 28.687,28.875 c -0.03039,-0.08397 -0.07382,-0.161452 -0.09375,-0.25 -0.05168,-0.262343 -0.09375,-0.542847 -0.09375,-0.8125 -4e-6,-0.306068 0.0273,-0.557421 0.09375,-0.8125 0.06644,-0.262342 0.157466,-0.505296 0.3125,-0.6875 0.155026,-0.189464 0.366611,-0.30421 0.625,-0.40625 0.258378,-0.10929 0.58486,-0.187487 0.96875,-0.1875 0.398642,1.3e-5 0.741609,0.0782 1,0.1875 0.265759,0.10204 0.469963,0.216786 0.625,0.40625 0.155021,0.182204 0.2773,0.425158 0.34375,0.6875 0.06644,0.255079 0.09374,0.506432 0.09375,0.8125 -6e-6,0.161278 -0.01566,0.331324 -0.03125,0.5 -1.240181,0.249363 -2.515025,0.423723 -3.84375,0.5625 z m -22.375,-11.25 0,-7.53125 C 6.312,8.998181 7.185181,8.125 8.28075,8.125 l 3.84375,0 0,3.6875 c 0,0.684336 0.34262,1.302015 0.84375,1.6875 0.48848,0.375753 1.135996,0.5625 1.78125,0.5625 l 0.3125,0 c 0.645254,0 1.292771,-0.186746 1.78125,-0.5625 0.501131,-0.385485 0.84375,-1.003164 0.84375,-1.6875 l 0,-3.6875 12.625,0 0,3.6875 c 0,0.684336 0.373869,1.302015 0.875,1.6875 0.48848,0.375754 1.104747,0.5625 1.75,0.5625 l 0.34375,0 c 0.63481,0 1.233983,-0.19897 1.71875,-0.5625 l 0.03125,0 c 0.50113,-0.385485 0.84375,-1.003164 0.84375,-1.6875 l 0,-3.6875 3.84375,0 c 1.09557,0 1.96875,0.873181 1.96875,1.96875 l 0,7.53125 -35.375,0 z m 8.40625,-4.53125 c -0.911524,0 -1.625,-0.548828 -1.625,-1.25 l 0,-6.5625 C 13.09325,4.580078 13.806726,4 14.71825,4 l 0.375,0 c 0.911524,0 1.625,0.580078 1.625,1.28125 l 0,6.5625 c 0,0.701172 -0.713476,1.25 -1.625,1.25 l -0.375,0 z m 18.21875,0 c -0.911524,0 -1.65625,-0.548828 -1.65625,-1.25 l 0,-6.5625 C 31.28075,4.580078 32.025476,4 32.937,4 l 0.34375,0 c 0.911524,0 1.625,0.580078 1.625,1.28125 l 0,6.5625 c 0,0.701172 -0.713476,1.25 -1.625,1.25 l -0.34375,0 z"
       id="path2931" />
  </g>
</svg>
