<?xml version="1.0" encoding="UTF-8" standalone="no"?>
<!-- Created with Inkscape (http://www.inkscape.org/) -->

<svg
   xmlns:dc="http://purl.org/dc/elements/1.1/"
   xmlns:cc="http://creativecommons.org/ns#"
   xmlns:rdf="http://www.w3.org/1999/02/22-rdf-syntax-ns#"
   xmlns:svg="http://www.w3.org/2000/svg"
   xmlns="http://www.w3.org/2000/svg"
   xmlns:xlink="http://www.w3.org/1999/xlink"
   xmlns:sodipodi="http://sodipodi.sourceforge.net/DTD/sodipodi-0.dtd"
   xmlns:inkscape="http://www.inkscape.org/namespaces/inkscape"
   width="48px"
   height="48px"
   id="svg3080"
   version="1.1"
   inkscape:version="0.47 r22583"
   sodipodi:docname="Nouveau document 4">
  <defs
     id="defs3082">
    <linearGradient
       inkscape:collect="always"
       xlink:href="#linearGradient3172-0"
       id="linearGradient3060"
       gradientUnits="userSpaceOnUse"
       gradientTransform="matrix(0.644962,0,0,1.1832362,9.235153,4.016337)"
       x1="22.892584"
       y1="0.90414524"
       x2="22.892584"
       y2="21.132059" />
    <linearGradient
       id="linearGradient3172-0">
      <stop
         id="stop3174-51"
         offset="0"
         style="stop-color:#4d4d4d;stop-opacity:1;" />
      <stop
         id="stop3176-1"
         offset="1"
         style="stop-color:#4d4d4d;stop-opacity:0;" />
    </linearGradient>
  </defs>
  <sodipodi:namedview
     id="base"
     pagecolor="#ffffff"
     bordercolor="#666666"
     borderopacity="1.0"
     inkscape:pageopacity="0.0"
     inkscape:pageshadow="2"
     inkscape:zoom="7"
     inkscape:cx="24"
     inkscape:cy="24"
     inkscape:current-layer="layer1"
     showgrid="true"
     inkscape:grid-bbox="true"
     inkscape:document-units="px"
     inkscape:window-width="596"
     inkscape:window-height="502"
     inkscape:window-x="768"
     inkscape:window-y="242"
     inkscape:window-maximized="0" />
  <metadata
     id="metadata3085">
    <rdf:RDF>
      <cc:Work
         rdf:about="">
        <dc:format>image/svg+xml</dc:format>
        <dc:type
           rdf:resource="http://purl.org/dc/dcmitype/StillImage" />
        <dc:title></dc:title>
      </cc:Work>
    </rdf:RDF>
  </metadata>
  <g
     id="layer1"
     inkscape:label="Layer 1"
     inkscape:groupmode="layer">
    <path
       style="fill:#000000;fill-opacity:1;fill-rule:evenodd;stroke:none"
       d="M 4,7.692716 7.6253268,26.461816 26.368886,22.724811 22.713872,4 4,7.692716 z M 21.734183,5.461536 24.426069,19.303516 8.160433,22.551566 5.4685487,8.709585 21.734183,5.461536 z m 3.56409,5.40723 0.336137,1.509339 9.720526,3.308499 -4.536855,13.231554 -10.680603,-3.695515 -7.137898,1.408486 17.734498,6.146694 6.167889,-17.819229 -11.603694,-4.089828 z m 10.667829,11.422646 -0.484305,1.440647 6.766369,7.811381 -10.522002,9.185972 -7.466553,-8.63399 L 17.338555,29.733324 29.758489,44 44,31.658929 35.966102,22.291412 z"
       id="path3671" />
    <path
       style="fill:url(#linearGradient3060);fill-opacity:1;stroke:none"
       d="m 24,29.65625 c -0.828,0 -1.631016,-0.01927 -2.4375,-0.0625 l -0.03125,0 L 13,26.625 20.125,25.21875 30.8125,28.90625 35.34375,15.6875 25.625,12.375 25.3125,10.875 36.90625,14.96875 32.0625,28.875 C 29.537078,29.351547 26.834907,29.65625 24,29.65625 z m 14.40625,-2.5625 -2.9375,-3.375 0.5,-1.4375 3.65625,4.28125 c -0.396322,0.180009 -0.800533,0.364993 -1.21875,0.53125 z M 8,26.40625 C 7.852956,26.336663 7.706236,26.258954 7.5625,26.1875 L 4,7.6875 22.71875,4 26.375,22.71875 8,26.40625 z m 0.15625,-3.84375 16.28125,-3.25 -2.71875,-13.84375 -16.25,3.25 2.6875,13.84375 z"
       id="path3046" />
  </g>
</svg>
