<?xml version="1.0" encoding="UTF-8" standalone="no"?>
<!-- Created with Inkscape (http://www.inkscape.org/) -->

<svg
   xmlns:dc="http://purl.org/dc/elements/1.1/"
   xmlns:cc="http://creativecommons.org/ns#"
   xmlns:rdf="http://www.w3.org/1999/02/22-rdf-syntax-ns#"
   xmlns:svg="http://www.w3.org/2000/svg"
   xmlns="http://www.w3.org/2000/svg"
   xmlns:xlink="http://www.w3.org/1999/xlink"
   xmlns:sodipodi="http://sodipodi.sourceforge.net/DTD/sodipodi-0.dtd"
   xmlns:inkscape="http://www.inkscape.org/namespaces/inkscape"
   width="48px"
   height="48px"
   id="svg3724"
   version="1.1"
   inkscape:version="0.47 r22583"
   sodipodi:docname="Nouveau document 6">
  <defs
     id="defs3726">
    <linearGradient
       gradientUnits="userSpaceOnUse"
       y2="21.132059"
       x2="22.892584"
       y1="0.90414524"
       x1="22.892584"
       id="linearGradient3178"
       xlink:href="#linearGradient3172"
       inkscape:collect="always" />
    <linearGradient
       id="linearGradient3172">
      <stop
         id="stop3174"
         offset="0"
         style="stop-color:#4d4d4d;stop-opacity:1;" />
      <stop
         id="stop3176"
         offset="1"
         style="stop-color:#4d4d4d;stop-opacity:0;" />
    </linearGradient>
    <linearGradient
       inkscape:collect="always"
       xlink:href="#linearGradient3172"
       id="linearGradient3854"
       gradientUnits="userSpaceOnUse"
       x1="22.892584"
       y1="0.90414524"
       x2="22.892584"
       y2="21.132059" />
    <linearGradient
       inkscape:collect="always"
       xlink:href="#linearGradient3172"
       id="linearGradient3859"
       gradientUnits="userSpaceOnUse"
       x1="22.892584"
       y1="0.90414524"
       x2="22.892584"
       y2="21.132059"
       gradientTransform="matrix(0.644962,0,0,-1.1832362,59.235153,43.983663)" />
    <linearGradient
       inkscape:collect="always"
       xlink:href="#linearGradient3172"
       id="linearGradient3862"
       gradientUnits="userSpaceOnUse"
       gradientTransform="matrix(0.644962,0,0,1.1832362,9.234903,4.021211)"
       x1="22.892584"
       y1="0.90414524"
       x2="22.892584"
       y2="21.132059" />
  </defs>
  <sodipodi:namedview
     id="base"
     pagecolor="#ffffff"
     bordercolor="#666666"
     borderopacity="1.0"
     inkscape:pageopacity="0.0"
     inkscape:pageshadow="2"
     inkscape:zoom="7"
     inkscape:cx="24"
     inkscape:cy="24"
     inkscape:current-layer="layer1"
     showgrid="true"
     inkscape:grid-bbox="true"
     inkscape:document-units="px"
     inkscape:window-width="1364"
     inkscape:window-height="721"
     inkscape:window-x="0"
     inkscape:window-y="23"
     inkscape:window-maximized="1" />
  <metadata
     id="metadata3729">
    <rdf:RDF>
      <cc:Work
         rdf:about="">
        <dc:format>image/svg+xml</dc:format>
        <dc:type
           rdf:resource="http://purl.org/dc/dcmitype/StillImage" />
        <dc:title></dc:title>
      </cc:Work>
    </rdf:RDF>
  </metadata>
  <g
     id="layer1"
     inkscape:label="Layer 1"
     inkscape:groupmode="layer">
    <path
       style="fill:#000000"
       d="m 24,4 c -0.451156,0 -0.868891,0.0016 -1.3125,0.03125 -0.0088,0.0058 -0.05368,-0.0058 -0.0625,0 -4.166719,0.28686 -7.982024,1.886799 -11.0625,4.34375 0.01439,0.314374 0.02476,0.634317 0.0625,0.9375 0.11883,0.951171 0.23501,1.2853 0.21875,1.3125 0.07939,0.0056 0.110514,0.03125 0.28125,0.03125 0.502314,0 1.140206,-0.296865 2.34375,-1.40625 1.039104,-0.957814 2.255453,-1.787763 3.4375,-2.40625 1.182047,-0.618487 2.287318,-1.05242 3.34375,-1.0625 l 0.9375,0 2.03125,0 L 23,7.375 22.28125,8.34375 C 22.517166,8.081731 22.751238,7.799384 23,7.5625 23.332802,7.54239 23.661804,7.5 24,7.5 c 0.338196,0 0.667198,0.04239 1,0.0625 1.491994,1.420755 2.756593,3.298085 3.75,5.5 -1.491692,0.226862 -3.084573,0.34375 -4.75,0.34375 -1.53075,0 -2.98693,-0.119306 -4.375,-0.3125 -0.0039,0.01729 -0.02542,0.03881 -0.03125,0.0625 0.06579,0.02597 0.05049,0.03399 0.15625,0.0625 0.547113,0.147505 1.574136,0.27935 3.0625,0.375 0.865545,0.05562 1.617019,0.243267 2.15625,0.78125 0.507112,0.505939 0.644252,1.320129 0.46875,1.96875 1.538032,-0.054 3.031122,-0.19551 4.4375,-0.40625 0.60897,2.02353 1.002737,4.27132 1.125,6.59375 l -7,0 -3.28125,0 c -0.02135,0.43437 -0.102074,0.82611 -0.375,1.25 -0.119042,0.18489 -0.317335,0.38416 -0.59375,0.5 -0.276415,0.1158 -0.587525,0.1194 -0.8125,0.0625 -0.449949,-0.11376 -0.689833,-0.3311 -0.9375,-0.5625 0.05347,0.0499 -0.09461,-0.0961 -0.28125,-0.1875 -0.02735,-0.0134 -0.06471,-0.01785 -0.09375,-0.03125 0.07752,0.35572 0.242597,0.82347 0.71875,1.25 0.363578,0.32569 0.805127,0.55549 1.21875,0.6875 l 1.25,0 c 0.186593,-0.0431 0.373036,-0.0818 0.59375,-0.15625 0.604981,-0.20405 1.324038,-0.50282 1.9375,-0.8125 1.43593,-0.72485 2.380767,-1.1595 3.34375,-1.25 0.962983,-0.0905 1.879715,0.38037 2.46875,1.03125 0.32461,0.35869 0.55494,0.76235 0.6875,1.1875 L 31,25.5 c -0.09959,1.8917 -0.381146,3.70213 -0.8125,5.40625 1.754044,-1.05691 2.965312,-2.424 3.65625,-3.96875 0.04253,-0.48274 0.103198,-0.94587 0.125,-1.4375 l 0.34375,0 c 0.215785,-0.95295 0.258124,-1.93714 0.09375,-2.96875 l -0.4375,0 C 33.9356,21.78364 33.862067,21.03872 33.78125,20.3125 33.68787,20.09225 33.580313,19.87742 33.46875,19.65625 33.139285,19.00308 32.894848,18.40444 32.71875,17.9375 32.6307,17.70403 32.5447,17.4995 32.5,17.28125 c -0.02235,-0.10912 -0.0268,-0.20124 0,-0.4375 0.0134,-0.11813 0.02183,-0.27581 0.1875,-0.5 0.0679,-0.0919 0.196571,-0.17571 0.3125,-0.25 -0.06188,-0.240158 -0.119999,-0.483046 -0.1875,-0.71875 1.02333,-0.250805 2.009884,-0.547529 2.90625,-0.875 -0.348735,-1.037287 -0.772995,-2.045098 -1.25,-3 -0.802319,0.346729 -1.700505,0.64131 -2.65625,0.90625 C 31.228429,11.005192 30.523106,9.722789 29.75,8.5625 c 1.663866,0.624949 3.198409,1.526307 4.5625,2.625 C 33.793926,10.19049 33.228923,9.262515 32.625,8.5 l -1.3125,-1.65625 0.90625,-1.0625 c -2.116918,-0.964341 -4.413982,-1.582722 -6.84375,-1.75 -0.0088,-0.0058 -0.02242,0.0058 -0.03125,0 C 24.900138,4.00158 24.451156,4 24,4 z M 10.625,5.75 C 10.21617,5.625095 8.2393063,8.079089 7,10.4375 5.22652,13.812422 4.41791,17.13982 4.09375,22.375 c -0.31199,5.0389 0.1986,8.01732 2.0625,11.8125 2.2725194,4.62721 6.51268,7.949503 11.84375,9.25 l 0.03125,0 c 3.036289,0.727558 9.056913,0.762929 11.6875,0.0625 5.132468,-1.36657 9.799405,-5.47249 12.53125,-11 1.33574,-2.70269 1.570504,-3.55558 1.71875,-6.65625 0.195507,-4.08922 -0.318557,-6.842064 -1.8125,-10 C 40.793406,12.962934 36.987346,8.8961 34.25,7.40625 l -2.15625,-1.1875 1.3125,1.65625 c 2.024484,2.556119 3.669524,6.474612 4.1875,9.96875 0.257286,1.73562 0.326554,3.27913 0.15625,3.4375 -0.170304,0.15837 -0.387407,0.03664 -0.5,-0.28125 -0.253168,-0.71476 -3.350826,-4.09375 -3.75,-4.09375 -0.159982,0 0.240996,1.02433 0.875,2.28125 2.581405,5.11767 0.738258,10.44492 -4.5625,13.09375 -3.026354,1.51228 -6.446937,1.68486 -9.125,0.46875 -2.36657,-1.07466 -2.56609,-1.65625 -0.59375,-1.65625 2.191552,0 3.625729,-0.59989 5.3125,-2.21875 0.779877,-0.74848 1.851471,-1.4262 2.40625,-1.5 1.251376,-0.16655 1.547071,-1.3216 0.59375,-2.375 -0.96373,-1.06491 -1.812397,-0.98229 -4.625,0.4375 -1.324222,0.66847 -2.93602,1.1875 -3.59375,1.1875 -1.71075,0 -3.6875,-1.74879 -3.6875,-3.28125 0,-1.06288 0.10332,-1.18009 0.90625,-0.9375 0.50135,0.15147 1.06957,0.42723 1.28125,0.625 0.77298,0.72222 1.03125,0.32904 1.03125,-1.59375 0,-1.89504 0.05167,-1.99212 1.59375,-2.6875 3.515141,-1.58511 4.341479,-3.969627 1.4375,-4.15625 -3.03144,-0.194813 -4.25,-0.533767 -4.25,-1.15625 0,-0.796457 1.477,-3.687525 2.71875,-5.34375 l 0.96875,-1.3125 -0.90625,0 c -1.49822,0.0143 -4.19388,1.438703 -6.125,3.21875 -1.27177,1.172273 -2.16176,1.65625 -3.03125,1.65625 -1.18036,0 -1.2322,-0.07522 -1.5,-2.21875 -0.15227,-1.223219 -0.15362,-2.6526 0,-3.15625 0.102034,-0.334531 0.09435,-0.502425 0,-0.53125 z M 24,31.625 c -0.511989,0 -1.029504,0.01255 -1.53125,0.03125 -0.01941,0.005 -0.04303,-0.005 -0.0625,0 -0.363383,0.091 -0.74168,0.16805 -1.125,0.21875 2.015552,0.85398 4.534831,0.85567 6.9375,-0.03125 C 26.86626,31.70109 25.448651,31.625 24,31.625 z"
       id="path2818" />
    <path
       style="fill:url(#linearGradient3862);fill-opacity:1;stroke:none"
       d="m 23.99975,29.661124 c -8.326418,0 -15.663971,-2.258078 -19.96875,-5.65625 0.013396,-0.525346 0.026918,-1.050321 0.0625,-1.625 0.32416,-5.23518 1.13277,-8.562578 2.90625,-11.9375 1.239306,-2.358411 3.21617,-4.812405 3.625,-4.6875 0.09435,0.02882 0.102034,0.196719 0,0.53125 -0.15362,0.50365 -0.15227,1.933031 0,3.15625 0.2678,2.14353 0.31964,2.21875 1.5,2.21875 0.86949,0 1.75948,-0.483977 3.03125,-1.65625 1.93112,-1.780047 4.62678,-3.20445 6.125,-3.21875 l 0.90625,0 -0.96875,1.3125 c -1.24175,1.656225 -2.71875,4.547293 -2.71875,5.34375 0,0.622483 1.21856,0.961437 4.25,1.15625 2.903979,0.186623 2.077641,2.57114 -1.4375,4.15625 -1.54208,0.69538 -1.59375,0.79246 -1.59375,2.6875 0,1.92279 -0.25827,2.31597 -1.03125,1.59375 -0.21168,-0.19777 -0.7799,-0.47353 -1.28125,-0.625 -0.80293,-0.24259 -0.90625,-0.12538 -0.90625,0.9375 0,1.53246 1.97675,3.28125 3.6875,3.28125 0.65773,0 2.269528,-0.51903 3.59375,-1.1875 2.812603,-1.41979 3.66127,-1.50241 4.625,-0.4375 0.953321,1.0534 0.657626,2.20845 -0.59375,2.375 -0.554779,0.0738 -1.626373,0.75152 -2.40625,1.5 -0.303317,0.291105 -0.582146,0.553606 -0.875,0.78125 -0.179397,0.0021 -0.350907,0 -0.53125,0 z m 6.5625,-0.53125 c 0.21531,-1.171438 0.371715,-2.375422 0.4375,-3.625 l -1.15625,0 c -0.13256,-0.42515 -0.36289,-0.82881 -0.6875,-1.1875 -0.589035,-0.65088 -1.505767,-1.12175 -2.46875,-1.03125 -0.962983,0.0905 -1.90782,0.52515 -3.34375,1.25 -0.613462,0.30968 -1.332519,0.60845 -1.9375,0.8125 -0.220714,0.07445 -0.407157,0.11315 -0.59375,0.15625 l -1.25,0 c -0.413623,-0.13201 -0.855172,-0.36181 -1.21875,-0.6875 -0.476153,-0.42653 -0.64123,-0.89428 -0.71875,-1.25 0.02904,0.0134 0.0664,0.01785 0.09375,0.03125 0.18664,0.0914 0.33472,0.2374 0.28125,0.1875 0.247667,0.2314 0.487551,0.44874 0.9375,0.5625 0.224975,0.0569 0.536085,0.0533 0.8125,-0.0625 0.276415,-0.11584 0.474708,-0.31511 0.59375,-0.5 0.272926,-0.42389 0.35365,-0.81563 0.375,-1.25 l 3.28125,0 7,0 c -0.122263,-2.32243 -0.51603,-4.57022 -1.125,-6.59375 -1.406378,0.21074 -2.899468,0.35225 -4.4375,0.40625 0.175502,-0.648621 0.03836,-1.462811 -0.46875,-1.96875 -0.539231,-0.537983 -1.290705,-0.72563 -2.15625,-0.78125 -1.488364,-0.09565 -2.515387,-0.227495 -3.0625,-0.375 -0.10576,-0.02851 -0.09046,-0.03653 -0.15625,-0.0625 0.0058,-0.02369 0.02735,-0.04521 0.03125,-0.0625 1.38807,0.193194 2.84425,0.3125 4.375,0.3125 1.665427,0 3.258308,-0.116888 4.75,-0.34375 -0.993407,-2.201915 -2.258006,-4.079245 -3.75,-5.5 -0.332802,-0.02011 -0.661804,-0.0625 -1,-0.0625 -0.338196,0 -0.667198,0.04239 -1,0.0625 -0.248762,0.236884 -0.482834,0.519231 -0.71875,0.78125 l 0.71875,-0.96875 1.21875,-1.59375 -2.03125,0 -0.9375,0 c -1.056432,0.01008 -2.161703,0.444013 -3.34375,1.0625 -1.182047,0.618487 -2.398396,1.448436 -3.4375,2.40625 -1.203544,1.109385 -1.841436,1.40625 -2.34375,1.40625 -0.170736,0 -0.20186,-0.02565 -0.28125,-0.03125 0.01626,-0.0272 -0.09992,-0.361329 -0.21875,-1.3125 -0.03774,-0.303183 -0.04811,-0.623126 -0.0625,-0.9375 3.080476,-2.456951 6.895781,-4.05689 11.0625,-4.34375 0.0088,-0.0058 0.0537,0.0058 0.0625,0 0.443609,-0.02965 0.861344,-0.03125 1.3125,-0.03125 0.451156,0 0.900138,0.0016 1.34375,0.03125 0.0088,0.0058 0.02245,-0.0058 0.03125,0 2.429768,0.167278 4.726832,0.785659 6.84375,1.75 l -0.90625,1.0625 1.3125,1.65625 c 0.603923,0.762515 1.168926,1.69049 1.6875,2.6875 -1.364091,-1.098693 -2.898634,-2.000051 -4.5625,-2.625 0.773106,1.160289 1.478429,2.442692 2.0625,3.84375 0.955745,-0.26494 1.853931,-0.559521 2.65625,-0.90625 0.477005,0.954902 0.901265,1.962713 1.25,3 -0.896366,0.327471 -1.88292,0.624195 -2.90625,0.875 0.0675,0.235704 0.12562,0.478592 0.1875,0.71875 -0.115929,0.07429 -0.2446,0.1581 -0.3125,0.25 -0.16567,0.22419 -0.1741,0.38187 -0.1875,0.5 -0.0268,0.23626 -0.02235,0.32838 0,0.4375 0.0447,0.21825 0.1307,0.42278 0.21875,0.65625 0.176098,0.46694 0.420535,1.06558 0.75,1.71875 0.111563,0.22117 0.21912,0.436 0.3125,0.65625 0.08082,0.72622 0.15435,1.47114 0.1875,2.21875 l 0.4375,0 c 0.164374,1.03161 0.122035,2.0158 -0.09375,2.96875 l -0.34375,0 c -0.0218,0.49163 -0.08247,0.95476 -0.125,1.4375 -0.290821,0.650196 -0.679389,1.266385 -1.15625,1.84375 -0.691395,0.141929 -1.404286,0.235568 -2.125,0.34375 z m 3.625,-0.6875 c 1.683842,-2.679971 1.827532,-5.998614 0.1875,-9.25 -0.634004,-1.25692 -1.034982,-2.28125 -0.875,-2.28125 0.399174,0 3.496832,3.37899 3.75,4.09375 0.112593,0.31789 0.329696,0.43962 0.5,0.28125 0.170304,-0.15837 0.101036,-1.70188 -0.15625,-3.4375 -0.517976,-3.494138 -2.163016,-7.412631 -4.1875,-9.96875 l -1.3125,-1.65625 2.15625,1.1875 c 2.737346,1.48985 6.543406,5.556684 7.90625,8.4375 1.256297,2.655593 1.812568,5.03799 1.84375,8.15625 -2.421045,1.91714 -5.827952,3.448913 -9.8125,4.4375 z"
       id="path3848" />
    <g
       transform="matrix(0.1337942,0,0,-0.1337942,31.527762,89.04701)"
       inkscape:label="Calque 1"
       id="g3850" />
    <g
       transform="matrix(0.1672428,0,0,-0.1672428,38.442916,104.62323)"
       inkscape:label="Calque 1"
       id="g3852" />
  </g>
</svg>
