<?xml version="1.0" encoding="UTF-8" standalone="no"?>
<!-- Created with Inkscape (http://www.inkscape.org/) -->

<svg
   xmlns:dc="http://purl.org/dc/elements/1.1/"
   xmlns:cc="http://creativecommons.org/ns#"
   xmlns:rdf="http://www.w3.org/1999/02/22-rdf-syntax-ns#"
   xmlns:svg="http://www.w3.org/2000/svg"
   xmlns="http://www.w3.org/2000/svg"
   xmlns:xlink="http://www.w3.org/1999/xlink"
   xmlns:sodipodi="http://sodipodi.sourceforge.net/DTD/sodipodi-0.dtd"
   xmlns:inkscape="http://www.inkscape.org/namespaces/inkscape"
   width="48px"
   height="48px"
   id="svg3278"
   version="1.1"
   inkscape:version="0.47 r22583"
   sodipodi:docname="Nouveau document 9">
  <defs
     id="defs3280">
    <linearGradient
       gradientUnits="userSpaceOnUse"
       y2="21.132059"
       x2="22.892584"
       y1="0.90414524"
       x1="22.892584"
       id="linearGradient3178"
       xlink:href="#linearGradient3172"
       inkscape:collect="always" />
    <linearGradient
       id="linearGradient3172">
      <stop
         id="stop3174"
         offset="0"
         style="stop-color:#4d4d4d;stop-opacity:1;" />
      <stop
         id="stop3176"
         offset="1"
         style="stop-color:#4d4d4d;stop-opacity:0;" />
    </linearGradient>
    <linearGradient
       inkscape:collect="always"
       xlink:href="#linearGradient3172"
       id="linearGradient3405"
       gradientUnits="userSpaceOnUse"
       x1="22.892584"
       y1="0.90414524"
       x2="22.892584"
       y2="21.132059" />
    <linearGradient
       inkscape:collect="always"
       xlink:href="#linearGradient3172"
       id="linearGradient3410"
       gradientUnits="userSpaceOnUse"
       x1="22.892584"
       y1="0.90414524"
       x2="22.892584"
       y2="21.132059"
       gradientTransform="matrix(0.644962,0,0,-1.1832362,59.235153,43.983663)" />
    <linearGradient
       inkscape:collect="always"
       xlink:href="#linearGradient3172"
       id="linearGradient3413"
       gradientUnits="userSpaceOnUse"
       gradientTransform="matrix(0.644962,0,0,1.1832362,9.235403,4.016337)"
       x1="22.892584"
       y1="0.90414524"
       x2="22.892584"
       y2="21.132059" />
  </defs>
  <sodipodi:namedview
     id="base"
     pagecolor="#ffffff"
     bordercolor="#666666"
     borderopacity="1.0"
     inkscape:pageopacity="0.0"
     inkscape:pageshadow="2"
     inkscape:zoom="7"
     inkscape:cx="24"
     inkscape:cy="21.51436"
     inkscape:current-layer="layer1"
     showgrid="true"
     inkscape:grid-bbox="true"
     inkscape:document-units="px"
     inkscape:window-width="1364"
     inkscape:window-height="719"
     inkscape:window-x="0"
     inkscape:window-y="25"
     inkscape:window-maximized="1" />
  <metadata
     id="metadata3283">
    <rdf:RDF>
      <cc:Work
         rdf:about="">
        <dc:format>image/svg+xml</dc:format>
        <dc:type
           rdf:resource="http://purl.org/dc/dcmitype/StillImage" />
        <dc:title></dc:title>
      </cc:Work>
    </rdf:RDF>
  </metadata>
  <g
     id="layer1"
     inkscape:label="Layer 1"
     inkscape:groupmode="layer">
    <path
       style="fill:#000000;fill-opacity:1;stroke:none"
       d="m 8.844,6.5 c -2.2262836,0 -4,1.821255 -4,4.09375 l 0,26.84375 c 0,2.272489 1.7737164,4.062495 4,4.0625 l 30.3125,0 c 2.226285,0 3.999995,-1.79001 4,-4.0625 l 0,-26.84375 C 43.1565,8.321255 41.382785,6.5 39.1565,6.5 L 8.844,6.5 z m 0.34375,4.4375 29.96875,0 0,4.3125 -29.96875,0 0,-4.3125 z m 23.625,7.5625 1.1875,1.1875 -5.5625,5.5625 c 1.278715,1.840831 1.115072,4.367009 -0.53125,6 -0.06994,0.06937 -0.144594,0.153902 -0.21875,0.21875 L 24.594,27.90625 21.2815,24.5625 c 1.635733,-1.622493 4.141022,-1.766661 5.96875,-0.5 L 32.81275,18.5 z m -5.5625,5.5625 -0.3125,0.3125 1.1875,1.1875 0.3125,-0.3125 c -0.154486,-0.222397 -0.302713,-0.457353 -0.5,-0.65625 -0.207786,-0.209482 -0.45343,-0.369034 -0.6875,-0.53125 z m -6.9375,1.46875 3.09375,3.5625 3.3125,3.34375 c -1.635732,1.622493 -4.141022,1.766661 -5.96875,0.5 l -5.5625,5.5625 -1.1875,-1.1875 5.5625,-5.5625 c -1.278715,-1.840831 -1.115064,-4.36701 0.53125,-6 0.06994,-0.06937 0.144595,-0.153902 0.21875,-0.21875 z m -0.75,6.21875 c 0.154486,0.222397 0.302713,0.457353 0.5,0.65625 0.207786,0.209482 0.45343,0.369034 0.6875,0.53125 l 0.3125,-0.3125 -1.1875,-1.1875 -0.3125,0.3125 z"
       id="path2824" />
    <path
       style="fill:url(#linearGradient3413);fill-opacity:1;stroke:none"
       d="m 23.969,29.65625 -0.5625,-0.5625 -3.09375,-3.5625 c -0.07416,0.06485 -0.14881,0.14938 -0.21875,0.21875 -0.987854,0.979859 -1.414849,2.280491 -1.34375,3.5625 C 13.105119,28.647233 8.21614,26.948916 4.844,24.59375 l 0,-14 C 4.844,8.321255 6.617716,6.5 8.844,6.5 l 30.3125,0 c 2.226285,0 4,1.821255 4,4.09375 l 0,14 c -3.410389,2.38188 -8.367517,4.101321 -14.09375,4.75 0.426646,-1.359687 0.220151,-2.877076 -0.625,-4.09375 l 5.5625,-5.5625 -1.1875,-1.1875 -5.5625,5.5625 c -1.827728,-1.266661 -4.333017,-1.122493 -5.96875,0.5 l 3.3125,3.34375 1.46875,1.6875 c -0.685513,0.03108 -1.361801,0.0625 -2.0625,0.0625 -0.01061,0 -0.02065,7e-6 -0.03125,0 z m 3.28125,-5.59375 c 0.23407,0.162216 0.479714,0.321768 0.6875,0.53125 0.197287,0.198897 0.345514,0.433853 0.5,0.65625 l -0.3125,0.3125 -1.1875,-1.1875 0.3125,-0.3125 z M 9.18775,15.25 l 29.96875,0 0,-4.3125 -29.96875,0 0,4.3125 z"
       id="path3399" />
    <g
       transform="matrix(0.1337942,0,0,-0.1337942,31.527762,89.04701)"
       inkscape:label="Calque 1"
       id="g3401" />
    <g
       transform="matrix(0.1672428,0,0,-0.1672428,38.442916,104.62323)"
       inkscape:label="Calque 1"
       id="g3403" />
  </g>
</svg>
