<?xml version="1.0" encoding="UTF-8" standalone="no"?>
<!-- Created with Inkscape (http://www.inkscape.org/) -->

<svg
   xmlns:dc="http://purl.org/dc/elements/1.1/"
   xmlns:cc="http://creativecommons.org/ns#"
   xmlns:rdf="http://www.w3.org/1999/02/22-rdf-syntax-ns#"
   xmlns:svg="http://www.w3.org/2000/svg"
   xmlns="http://www.w3.org/2000/svg"
   xmlns:xlink="http://www.w3.org/1999/xlink"
   xmlns:sodipodi="http://sodipodi.sourceforge.net/DTD/sodipodi-0.dtd"
   xmlns:inkscape="http://www.inkscape.org/namespaces/inkscape"
   width="48px"
   height="48px"
   id="svg3667"
   version="1.1"
   inkscape:version="0.47 r22583"
   sodipodi:docname="Nouveau document 3">
  <defs
     id="defs3669">
    <inkscape:perspective
       sodipodi:type="inkscape:persp3d"
       inkscape:vp_x="0 : 24 : 1"
       inkscape:vp_y="0 : 1000 : 0"
       inkscape:vp_z="48 : 24 : 1"
       inkscape:persp3d-origin="24 : 16 : 1"
       id="perspective3675" />
    <inkscape:perspective
       id="perspective3685"
       inkscape:persp3d-origin="0.5 : 0.33333333 : 1"
       inkscape:vp_z="1 : 0.5 : 1"
       inkscape:vp_y="0 : 1000 : 0"
       inkscape:vp_x="0 : 0.5 : 1"
       sodipodi:type="inkscape:persp3d" />
    <linearGradient
       gradientUnits="userSpaceOnUse"
       y2="21.132059"
       x2="22.892584"
       y1="0.90414524"
       x1="22.892584"
       id="linearGradient3178"
       xlink:href="#linearGradient3172"
       inkscape:collect="always" />
    <linearGradient
       y2="546.64789"
       x2="325.71429"
       y1="369.50507"
       x1="325.71429"
       gradientTransform="matrix(0.1377049,0,0,0.1377049,-20.852457,-45.850258)"
       gradientUnits="userSpaceOnUse"
       id="linearGradient2678"
       xlink:href="#linearGradient3155"
       inkscape:collect="always" />
    <linearGradient
       y2="546.64789"
       x2="325.71429"
       y1="369.50507"
       x1="325.71429"
       gradientTransform="matrix(0.1377049,0,0,0.1377049,29.147543,-45.850258)"
       gradientUnits="userSpaceOnUse"
       id="linearGradient2660"
       xlink:href="#linearGradient3155"
       inkscape:collect="always" />
    <linearGradient
       y2="546.64789"
       x2="325.71429"
       y1="369.50507"
       x1="325.71429"
       gradientTransform="matrix(0.1721311,0,0,0.1721311,-14.532357,-62.627292)"
       gradientUnits="userSpaceOnUse"
       id="linearGradient2628"
       xlink:href="#linearGradient3155"
       inkscape:collect="always" />
    <linearGradient
       inkscape:collect="always"
       xlink:href="#linearGradient3155"
       id="linearGradient2735"
       gradientUnits="userSpaceOnUse"
       gradientTransform="matrix(0.1377049,0,0,0.1377049,-20.852457,-45.850258)"
       x1="325.71429"
       y1="369.50507"
       x2="325.71429"
       y2="546.64789" />
    <linearGradient
       gradientTransform="matrix(0.1377049,0,0,0.1377049,-20.852457,-45.850258)"
       y2="546.64789"
       x2="325.71429"
       y1="369.50507"
       x1="325.71429"
       gradientUnits="userSpaceOnUse"
       id="linearGradient2454"
       xlink:href="#linearGradient3155"
       inkscape:collect="always" />
    <linearGradient
       id="linearGradient3155">
      <stop
         style="stop-color:#4d4d4d;stop-opacity:1;"
         offset="0"
         id="stop3157" />
      <stop
         style="stop-color:#4d4d4d;stop-opacity:0;"
         offset="1"
         id="stop3159" />
    </linearGradient>
    <inkscape:perspective
       id="perspective27"
       inkscape:persp3d-origin="24 : 16 : 1"
       inkscape:vp_z="48 : 24 : 1"
       inkscape:vp_y="0 : 1000 : 0"
       inkscape:vp_x="0 : 24 : 1"
       sodipodi:type="inkscape:persp3d" />
    <linearGradient
       id="linearGradient3172">
      <stop
         id="stop3174"
         offset="0"
         style="stop-color:#4d4d4d;stop-opacity:1;" />
      <stop
         id="stop3176"
         offset="1"
         style="stop-color:#4d4d4d;stop-opacity:0;" />
    </linearGradient>
    <linearGradient
       inkscape:collect="always"
       xlink:href="#linearGradient3172"
       id="linearGradient3807"
       gradientUnits="userSpaceOnUse"
       x1="22.892584"
       y1="0.90414524"
       x2="22.892584"
       y2="21.132059" />
    <linearGradient
       inkscape:collect="always"
       xlink:href="#linearGradient3172"
       id="linearGradient3812"
       gradientUnits="userSpaceOnUse"
       x1="22.892584"
       y1="0.90414524"
       x2="22.892584"
       y2="21.132059"
       gradientTransform="matrix(0.644962,0,0,-1.1832362,59.235153,43.983663)" />
    <linearGradient
       inkscape:collect="always"
       xlink:href="#linearGradient3172"
       id="linearGradient3815"
       gradientUnits="userSpaceOnUse"
       gradientTransform="matrix(0.644962,0,0,1.1832362,9.235153,4.0242441)"
       x1="22.892584"
       y1="0.90414524"
       x2="22.892584"
       y2="21.132059" />
  </defs>
  <sodipodi:namedview
     id="base"
     pagecolor="#ffffff"
     bordercolor="#666666"
     borderopacity="1.0"
     inkscape:pageopacity="0.0"
     inkscape:pageshadow="2"
     inkscape:zoom="7"
     inkscape:cx="24"
     inkscape:cy="23.6705"
     inkscape:current-layer="layer1"
     showgrid="true"
     inkscape:grid-bbox="true"
     inkscape:document-units="px"
     inkscape:window-width="1364"
     inkscape:window-height="721"
     inkscape:window-x="0"
     inkscape:window-y="23"
     inkscape:window-maximized="1" />
  <metadata
     id="metadata3672">
    <rdf:RDF>
      <cc:Work
         rdf:about="">
        <dc:format>image/svg+xml</dc:format>
        <dc:type
           rdf:resource="http://purl.org/dc/dcmitype/StillImage" />
        <dc:title></dc:title>
      </cc:Work>
    </rdf:RDF>
  </metadata>
  <g
     id="layer1"
     inkscape:label="Layer 1"
     inkscape:groupmode="layer">
    <path
       style="font-size:medium;font-style:normal;font-variant:normal;font-weight:normal;font-stretch:normal;text-indent:0;text-align:start;text-decoration:none;line-height:normal;letter-spacing:normal;word-spacing:normal;text-transform:none;direction:ltr;block-progression:tb;writing-mode:lr-tb;text-anchor:start;color:#000000;fill:#000000;fill-opacity:1;stroke:none;stroke-width:2.06644011;marker:none;visibility:visible;display:inline;overflow:visible;enable-background:accumulate;font-family:Bitstream Charter;-inkscape-font-specification:Bitstream Charter"
       d="m 22.963832,5.6399071 c -1.958721,0 -3.607125,1.414722 -3.98827,3.264907 C 13.993927,10.204643 9.874821,13.29404 7.616813,17.331012 5.590149,17.558836 4,19.292986 4,21.377933 c 0,1.373903 0.689526,2.585666 1.73998,3.323558 0.09071,4.179735 2.001506,7.940958 5.043989,10.752688 -0.726171,0.736025 -1.173021,1.745023 -1.173021,2.85435 0,2.238539 1.827933,4.066471 4.066471,4.066471 1.846795,0 3.417239,-1.239305 3.910069,-2.932551 2.08907,0.710739 4.341613,1.114369 6.705767,1.114369 2.407083,0 4.702652,-0.400587 6.823069,-1.13392 0.54955,0.277843 1.16327,0.430108 1.818182,0.430108 2.105233,0 3.84654,-1.620586 4.046921,-3.675464 3.603564,-2.937308 5.865103,-7.113012 5.865103,-11.788857 0,-1.080828 -0.11985,-2.128614 -0.351906,-3.147605 C 43.412203,20.493226 44,19.342897 44,18.073925 c 0,-2.238539 -1.827932,-4.066471 -4.066471,-4.066471 -0.42621,0 -0.844811,0.07256 -1.231672,0.195503 C 35.786882,11.080649 31.558561,8.9416831 26.795699,8.3769551 26.235994,6.7962641 24.730094,5.6399071 22.963832,5.6399071 z m 0,1.231672 c 1.571376,0 2.834799,1.263423 2.834799,2.834799 0,1.5713769 -1.263423,2.8347999 -2.834799,2.8347999 -1.571376,0 -2.8348,-1.263423 -2.8348,-2.8347999 0,-1.571376 1.263424,-2.834799 2.8348,-2.834799 z m 3.695014,4.5356789 c 3.92771,0.512417 7.334225,2.267103 9.67742,4.789834 -0.296963,0.564124 -0.469208,1.198181 -0.469208,1.876833 0,2.071582 1.569666,3.781894 3.577712,4.02737 0.155465,0.746506 0.234604,1.506633 0.234604,2.28739 0,3.279925 -1.422966,6.30266 -3.773216,8.621701 -0.743948,-0.79421 -1.804195,-1.290322 -2.971652,-1.290322 -2.238538,0 -4.066471,1.827932 -4.066471,4.066471 0,0.385711 0.0745,0.760119 0.175953,1.114369 -1.495299,0.41339 -3.082557,0.645161 -4.750733,0.645161 -2.645483,0 -5.11564,-0.571281 -7.272727,-1.564027 -0.655401,-0.933022 -1.687701,-1.587085 -2.8739,-1.72043 -2.941775,-2.222781 -4.88425,-5.385167 -5.180841,-8.914956 1.811485,-0.410755 3.186706,-2.037594 3.186706,-3.968719 0,-1.239191 -0.565902,-2.360452 -1.446726,-3.108505 1.842884,-2.988921 4.990324,-5.307504 8.836755,-6.373411 0.724494,1.133608 1.983552,1.896383 3.42131,1.896383 1.632268,0 3.047854,-0.989859 3.695014,-2.385142 z m 13.274683,3.831867 c 1.571376,0 2.834799,1.263424 2.834799,2.8348 0,1.571376 -1.263423,2.834799 -2.834799,2.834799 -1.571376,0 -2.8348,-1.263423 -2.8348,-2.834799 0,-1.571376 1.263424,-2.8348 2.8348,-2.8348 z M 8.066471,18.543133 c 1.571377,0 2.8348,1.263424 2.8348,2.8348 0,1.571376 -1.263423,2.834799 -2.8348,2.834799 -1.571376,0 -2.834799,-1.263423 -2.834799,-2.834799 0,-1.571376 1.263423,-2.8348 2.834799,-2.8348 z m 24.868035,14.408602 c 1.571377,0 2.8348,1.263424 2.8348,2.8348 0,1.571376 -1.263423,2.834799 -2.8348,2.834799 -1.571376,0 -2.834799,-1.263423 -2.834799,-2.834799 0,-1.571376 1.263423,-2.8348 2.834799,-2.8348 z m -19.257087,2.521994 c 1.571377,0 2.8348,1.263424 2.8348,2.8348 0,1.571376 -1.263423,2.834799 -2.8348,2.834799 -1.571375,0 -2.834799,-1.263423 -2.834799,-2.834799 0,-1.571376 1.263424,-2.8348 2.834799,-2.8348 z"
       id="path5052" />
    <path
       style="fill:url(#linearGradient3815);fill-opacity:1;stroke:none"
       d="M 9.21875,26.945407 C 7.976916,26.431261 6.808771,25.8579 5.78125,25.226657 5.770874,25.050583 5.753855,24.873033 5.75,24.695407 4.699546,23.957515 4,22.75681 4,21.382907 c 0,-2.084947 1.598336,-3.834676 3.625,-4.0625 2.258008,-4.036972 6.362115,-7.106421 11.34375,-8.4062499 0.381145,-1.850185 2.041279,-3.28125 4,-3.28125 1.766262,0 3.252795,1.169309 3.8125,2.75 4.762862,0.564728 8.991275,2.6901919 11.90625,5.8124999 0.386861,-0.122943 0.82379,-0.1875 1.25,-0.1875 2.238539,0 4.0625,1.823961 4.0625,4.0625 0,1.268972 -0.582421,2.408396 -1.5,3.15625 0.232056,1.018991 0.34375,2.075422 0.34375,3.15625 0,0.146306 -0.02685,0.292196 -0.03125,0.4375 -1.003064,0.667839 -2.140559,1.294891 -3.375,1.84375 0.15286,-0.741582 0.25,-1.504932 0.25,-2.28125 0,-0.780757 -0.09454,-1.534744 -0.25,-2.28125 -2.008046,-0.245476 -3.5625,-1.959668 -3.5625,-4.03125 0,-0.678652 0.171787,-1.310876 0.46875,-1.875 -2.343195,-2.522731 -5.75979,-4.268833 -9.6875,-4.78125 -0.64716,1.395283 -2.055232,2.375 -3.6875,2.375 -1.437758,0 -2.713006,-0.772642 -3.4375,-1.90625 -3.846431,1.065907 -6.969616,3.386079 -8.8125,6.375 0.880824,0.748053 1.4375,1.885809 1.4375,3.125 0,1.931125 -1.376015,3.557995 -3.1875,3.96875 0.045303,0.539159 0.1302,1.073774 0.25,1.59375 z M 8.0625,24.226657 c 1.571377,0 2.84375,-1.272374 2.84375,-2.84375 0,-1.571376 -1.272373,-2.84375 -2.84375,-2.84375 -1.571376,0 -2.84375,1.272374 -2.84375,2.84375 0,1.571376 1.272374,2.84375 2.84375,2.84375 z m 31.875,-3.3125 c 1.571376,0 2.84375,-1.272374 2.84375,-2.84375 0,-1.571376 -1.272374,-2.84375 -2.84375,-2.84375 -1.571376,0 -2.84375,1.272374 -2.84375,2.84375 0,1.571376 1.272374,2.84375 2.84375,2.84375 z m -16.96875,-8.375 c 1.571376,0 2.84375,-1.272373 2.84375,-2.8437499 0,-1.571376 -1.272374,-2.8125 -2.84375,-2.8125 -1.571376,0 -2.84375,1.241124 -2.84375,2.8125 0,1.5713769 1.272374,2.8437499 2.84375,2.8437499 z"
       id="path3801" />
    <g
       transform="matrix(0.1337942,0,0,-0.1337942,31.527762,89.04701)"
       inkscape:label="Calque 1"
       id="g3803" />
    <g
       transform="matrix(0.1672428,0,0,-0.1672428,38.442916,104.62323)"
       inkscape:label="Calque 1"
       id="g3805" />
  </g>
</svg>
