<?xml version="1.0" encoding="UTF-8" standalone="no"?>
<!-- Created with Inkscape (http://www.inkscape.org/) -->

<svg
   xmlns:dc="http://purl.org/dc/elements/1.1/"
   xmlns:cc="http://creativecommons.org/ns#"
   xmlns:rdf="http://www.w3.org/1999/02/22-rdf-syntax-ns#"
   xmlns:svg="http://www.w3.org/2000/svg"
   xmlns="http://www.w3.org/2000/svg"
   xmlns:xlink="http://www.w3.org/1999/xlink"
   xmlns:sodipodi="http://sodipodi.sourceforge.net/DTD/sodipodi-0.dtd"
   xmlns:inkscape="http://www.inkscape.org/namespaces/inkscape"
   version="1.0"
   width="48"
   height="48"
   id="svg11300"
   inkscape:version="0.47 r22583"
   sodipodi:docname="gimp.svg">
  <metadata
     id="metadata82">
    <rdf:RDF>
      <cc:Work
         rdf:about="">
        <dc:format>image/svg+xml</dc:format>
        <dc:type
           rdf:resource="http://purl.org/dc/dcmitype/StillImage" />
        <dc:title></dc:title>
      </cc:Work>
    </rdf:RDF>
  </metadata>
  <sodipodi:namedview
     pagecolor="#ffffff"
     bordercolor="#666666"
     borderopacity="1"
     objecttolerance="10"
     gridtolerance="10"
     guidetolerance="10"
     inkscape:pageopacity="0"
     inkscape:pageshadow="2"
     inkscape:window-width="1364"
     inkscape:window-height="721"
     id="namedview80"
     showgrid="false"
     inkscape:zoom="3.4766083"
     inkscape:cx="43.293361"
     inkscape:cy="20.999494"
     inkscape:window-x="0"
     inkscape:window-y="23"
     inkscape:window-maximized="1"
     inkscape:current-layer="svg11300" />
  <defs
     id="defs3">
    <linearGradient
       gradientUnits="userSpaceOnUse"
       y2="21.132059"
       x2="22.892584"
       y1="0.90414524"
       x1="22.892584"
       id="linearGradient3178"
       xlink:href="#linearGradient3172"
       inkscape:collect="always" />
    <linearGradient
       id="linearGradient3172">
      <stop
         id="stop3174"
         offset="0"
         style="stop-color:#4d4d4d;stop-opacity:1;" />
      <stop
         id="stop3176"
         offset="1"
         style="stop-color:#4d4d4d;stop-opacity:0;" />
    </linearGradient>
    <linearGradient
       inkscape:collect="always"
       xlink:href="#linearGradient3172"
       id="linearGradient4310"
       gradientUnits="userSpaceOnUse"
       x1="22.892584"
       y1="0.90414524"
       x2="22.892584"
       y2="21.132059" />
    <linearGradient
       inkscape:collect="always"
       xlink:href="#linearGradient3172"
       id="linearGradient4315"
       gradientUnits="userSpaceOnUse"
       x1="22.892584"
       y1="0.90414524"
       x2="22.892584"
       y2="21.132059"
       gradientTransform="matrix(0.644962,0,0,-1.1832362,59.235153,43.983663)" />
    <linearGradient
       inkscape:collect="always"
       xlink:href="#linearGradient3172"
       id="linearGradient4318"
       gradientUnits="userSpaceOnUse"
       gradientTransform="matrix(0.644962,0,0,1.1832362,9.235403,4.0166561)"
       x1="22.892584"
       y1="0.90414524"
       x2="22.892584"
       y2="21.132059" />
  </defs>
  <path
     style="font-size:medium;font-style:normal;font-variant:normal;font-weight:normal;font-stretch:normal;text-indent:0;text-align:start;text-decoration:none;line-height:normal;letter-spacing:normal;word-spacing:normal;text-transform:none;direction:ltr;block-progression:tb;writing-mode:lr-tb;text-anchor:start;color:#000000;fill:#000000;fill-opacity:1;fill-rule:evenodd;stroke:none;stroke-width:0.9999997;marker:none;visibility:visible;display:inline;overflow:visible;enable-background:accumulate;font-family:Bitstream Charter;-inkscape-font-specification:Bitstream Charter"
     d="m 37.718679,6.8952511 c -0.215312,0.03537 -0.405042,0.166093 -0.53125,0.3125 -0.168277,0.195208 -0.304567,0.444952 -0.40625,0.75 -0.175849,0.527548 -0.827513,2.4704449 -3.15625,4.4062499 -1.758658,1.461916 -4.46952,2.872049 -8.6875,3.5625 -0.764323,-0.443551 -1.627236,-0.71875 -2.53125,-0.71875 -1.153229,0 -2.219646,0.430544 -3.09375,1.125 -5.682725,-0.424977 -8.125,-5.4375 -8.125,-5.4375 l -0.875,-1.8749999 -0.0625,2.0937499 -0.15625,6.75 c -0.2932218,0.514391 -0.5126411,1.094719 -0.5937499,1.6875 0.3680265,0.319145 0.7153099,0.673302 1.0312499,1.0625 -0.03464,-0.183441 -0.06257,-0.375407 -0.0625,-0.5625 -7e-4,-1.826027 1.73647,-3.59375 3.5625,-3.59375 1.4789,0 2.8887,1.151583 3.375,2.5625 -0.067,0.215208 -0.11848,0.432606 -0.15625,0.65625 -0.38845,-0.868962 -1.29375,-1.5 -2.28125,-1.5 -0.3462,0 -0.66494,0.08075 -0.96875,0.21875 a 1.3552869,1.3552869 0 0 1 1.5625,1.34375 1.3552869,1.3552869 0 1 1 -2.6875,0 1.3552869,1.3552869 0 0 1 0.03125,-0.40625 c -0.24802,0.383896 -0.4064,0.838092 -0.40625,1.3125 -4.2e-4,1.328586 1.14016,2.46875 2.46875,2.46875 0.46117,0 0.90524,-0.140051 1.28125,-0.375 -0.62836,0.531422 -1.41586,0.875 -2.21875,0.875 -0.832067,0 -1.642102,-0.372214 -2.28125,-0.9375 0.430447,1.020437 0.648661,2.073027 0.65625,3.09375 0.0119,1.601741 -0.516053,3.180997 -1.78125,4.09375 -0.386091,0.278538 -0.8056373,0.472574 -1.2499999,0.59375 0.575841,0.390888 1.1970899,0.754123 1.8437499,1.125 3.5935,2.060967 8.184386,3.705104 12.65625,3.78125 2.919092,0.04971 5.795767,-0.594223 8.25,-2.21875 -2.739108,-1.487638 -5,-3.09375 -5,-3.09375 l -0.03125,0 c -0.06907,-0.05825 -0.128337,-0.121608 -0.1875,-0.1875 -2.305732,0.987234 -6.03954,0.517984 -10.78125,-1.15625 6.7389,1.347837 10.147766,0.113366 12.15625,-1.4375 -0.53033,-0.68501 -1.4375,-1.4375 -1.4375,-1.4375 0,0 2.358837,0.649119 3.1875,1.71875 0.356807,0.460563 0.449123,0.85105 0.4375,1.25 1.257173,0.434131 2.829003,0.99295 4.46875,1.78125 0.236308,-0.290148 0.467731,-0.585646 0.6875,-0.90625 2.895015,-4.223311 4.312759,-11.033707 3.15625,-21.5312499 l 0,-0.03125 c -0.03678,-0.288254 -0.101975,-0.534355 -0.21875,-0.75 -0.116775,-0.215646 -0.313428,-0.420649 -0.625,-0.46875 -0.07789,-0.01203 -0.146979,-0.01179 -0.21875,0 z m -15.3125,9.3124999 c 2.19584,0 4.28125,2.085415 4.28125,4.28125 0,2.195835 -2.08541,4.28125 -4.28125,4.28125 -2.19584,0 -4.25,-2.085415 -4.25,-4.28125 0,-2.195835 2.05416,-4.28125 4.25,-4.28125 z m -17.9062499,1.90625 c -0.682671,0.0442 -1.328617,0.230823 -1.875,0.625 -1.092765,0.788355 -1.604931,2.195388 -1.59375,3.6875 0.01118,1.492112 0.533982,3.117788 1.53125,4.5 0.997184,1.382096 2.368926,2.393928 3.78125,2.875 1.412325,0.481072 2.907328,0.444538 3.9999999,-0.34375 1.092672,-0.788288 1.573588,-2.195532 1.5625,-3.6875 -0.01109,-1.491968 -0.502943,-3.117812 -1.5,-4.5 -0.9971398,-1.382304 -2.4000679,-2.362544 -3.8124999,-2.84375 -0.706216,-0.240603 -1.411078,-0.356701 -2.09375,-0.3125 z m 19.0312499,0.28125 c -0.29494,0 -0.57441,0.06642 -0.84375,0.15625 a 1.5909903,1.5909903 0 0 1 1.5625,1.5625 1.59375,1.59375 0 0 1 -3.1875,0 1.5909903,1.5909903 0 0 1 0,-0.15625 c -0.19237,0.375213 -0.31263,0.777511 -0.3125,1.21875 -4.4e-4,1.506861 1.27439,2.8125 2.78125,2.8125 1.50686,0 2.81295,-1.305639 2.8125,-2.8125 4.5e-4,-1.506861 -1.30564,-2.78125 -2.8125,-2.78125 z m -19.2187499,1.375 a 1.767767,2.1213202 0 0 1 1.90625,2.125 1.767767,2.1213202 0 1 1 -3.53125,0 1.767767,2.1213202 0 0 1 1.625,-2.125 z m 23.2187499,9.15625 c 0.0019,0.01748 -0.01165,0.172605 0.15625,0.34375 0.01887,0.01923 0.0078,0.01144 0.03125,0.03125 0.05786,0.04105 4.915657,3.412222 8.78125,4.71875 0.11712,-0.357114 0.305031,-0.732551 0.53125,-1.03125 -3.402137,-2.243514 -9.09375,-3.9375 -9.09375,-3.9375 l -0.03125,-0.03125 -0.03125,0 c -0.193914,-0.09035 -0.29321,-0.09855 -0.34375,-0.09375 z m 9.9375,4.40625 c -0.120461,0.147714 -0.21415,0.222277 -0.3125,0.40625 -0.09347,0.174862 -0.08299,0.247387 -0.125,0.40625 l 0.15625,0.15625 0.15625,0.15625 3,1.09375 c -0.379411,1.193312 0.191339,2.76666 1.78125,3.375 2.514635,0.962164 4.84375,2.1875 4.84375,2.1875 -1.199509,-4.071724 -1.615288,-7.318932 -4.75,-7.03125 -0.78942,0.07245 -1.338887,0.481367 -1.65625,1.03125 l -2.75,-1.75 -0.125,0 -0.21875,-0.03125 z m 5.125,1.03125 a 1.0515869,1.0515869 0 0 1 0.40625,2.0625 1.0515869,1.0515869 0 1 1 -0.59375,-2 1.0515869,1.0515869 0 0 1 0.1875,-0.0625 z"
     id="path4323" />
  <path
     style="fill:url(#linearGradient4318);fill-opacity:1;stroke:none"
     d="m 27.93775,29.469069 c -0.04427,-0.03037 -0.214917,-0.153531 -0.21875,-0.15625 -0.02345,-0.01981 -0.01238,-0.01202 -0.03125,-0.03125 -0.1679,-0.171145 -0.15435,-0.32627 -0.15625,-0.34375 0.05054,-0.0048 0.149836,0.0034 0.34375,0.09375 l 0.03125,0 0.03125,0.03125 c 0,0 0.383778,0.108209 1,0.3125 -0.325489,0.03587 -0.669828,0.06491 -1,0.09375 z m -7.34375,-0.1875 c -1.298622,-0.04958 -2.784025,-0.225541 -4.46875,-0.5625 0.440509,0.155538 0.858475,0.271713 1.28125,0.40625 -1.899279,-0.286537 -3.699532,-0.67688 -5.375,-1.1875 0.255155,-0.677761 0.380611,-1.400968 0.375,-2.15625 -0.0076,-1.020723 -0.225803,-2.073313 -0.65625,-3.09375 0.639148,0.565286 1.449183,0.9375 2.28125,0.9375 0.80289,0 1.59039,-0.343578 2.21875,-0.875 -0.37601,0.234949 -0.82008,0.375 -1.28125,0.375 -1.32859,0 -2.46917,-1.140164 -2.46875,-2.46875 -1.5e-4,-0.474408 0.15823,-0.928604 0.40625,-1.3125 a 1.3552869,1.3552869 0 0 0 -0.03125,0.40625 1.3552869,1.3552869 0 1 0 2.6875,0 1.3552869,1.3552869 0 0 0 -1.4375,-1.375 c 0.26887,-0.107577 0.541322,-0.1875 0.84375,-0.1875 0.9875,0 1.8928,0.631038 2.28125,1.5 0.03777,-0.223644 0.08925,-0.441042 0.15625,-0.65625 -0.4863,-1.410917 -1.8961,-2.5625 -3.375,-2.5625 -1.82603,0 -3.5632,1.767723 -3.5625,3.59375 -7e-5,0.187093 0.02786,0.379059 0.0625,0.5625 -0.31594,-0.389198 -0.663223,-0.743355 -1.03125,-1.0625 0.081109,-0.592781 0.300528,-1.173109 0.59375,-1.6875 l 0.15625,-6.75 0.0625,-2.0937499 0.875,1.8749999 c 0,0 2.442275,5.012523 8.125,5.4375 0.874104,-0.694456 1.940521,-1.125 3.09375,-1.125 0.904014,0 1.766927,0.275199 2.53125,0.71875 4.21798,-0.690451 6.928842,-2.100584 8.6875,-3.5625 2.328737,-1.935805 2.980401,-3.8787019 3.15625,-4.4062499 0.101683,-0.305048 0.237973,-0.554792 0.40625,-0.75 0.126208,-0.146407 0.315938,-0.27713 0.53125,-0.3125 0.07177,-0.01179 0.14086,-0.01203 0.21875,0 0.311572,0.0481 0.508225,0.253104 0.625,0.46875 0.116775,0.215645 0.18197,0.461746 0.21875,0.75 l 0,0.03125 c 0.989779,8.9841469 0.0936,15.2588289 -2,19.5312499 -1.739551,0.579657 -3.62203,1.044717 -5.625,1.375 -0.009,-0.0032 -0.02232,0.0031 -0.03125,0 -0.213152,-0.07515 -0.457808,-0.181473 -0.65625,-0.25 0.01162,-0.39895 -0.08069,-0.789437 -0.4375,-1.25 -0.828663,-1.069631 -3.1875,-1.71875 -3.1875,-1.71875 0,0 0.90717,0.75249 1.4375,1.4375 -1.506363,1.163149 -3.791635,2.148727 -7.6875,2 z m -9.03125,-1.5 C 8.628904,26.839348 6.087054,25.587673 4.1565,24.094069 a 1.767767,2.1213202 0 0 0 2.0625,-2.1875 1.767767,2.1213202 0 0 0 -1.90625,-2.125 1.767767,2.1213202 0 0 0 -1.625,2.125 1.767767,2.1213202 0 0 0 0.21875,1.09375 c -0.672597,-0.654858 -1.239873,-1.344598 -1.6875,-2.0625 0.233841,-0.896435 0.691026,-1.671515 1.40625,-2.1875 0.546383,-0.394177 1.192329,-0.5808 1.875,-0.625 0.682672,-0.0442 1.387534,0.0719 2.09375,0.3125 1.412432,0.481206 2.81536,1.461446 3.8125,2.84375 0.997057,1.382188 1.48891,3.008032 1.5,4.5 0.0053,0.711495 -0.112269,1.384979 -0.34375,2 z m 10.84375,-3 c 2.19584,0 4.28125,-2.085415 4.28125,-4.28125 0,-2.195835 -2.08541,-4.28125 -4.28125,-4.28125 -2.19584,0 -4.25,2.085415 -4.25,4.28125 0,2.195835 2.05416,4.28125 4.25,4.28125 z m 1.125,-0.78125 c -1.50686,0 -2.78169,-1.305639 -2.78125,-2.8125 -1.3e-4,-0.441239 0.12013,-0.843537 0.3125,-1.21875 a 1.5909903,1.5909903 0 0 0 0,0.15625 1.59375,1.59375 0 0 0 3.1875,0 1.5909903,1.5909903 0 0 0 -1.5625,-1.5625 c 0.26934,-0.08983 0.54881,-0.15625 0.84375,-0.15625 1.50686,0 2.81295,1.274389 2.8125,2.78125 4.5e-4,1.506861 -1.30564,2.8125 -2.8125,2.8125 z"
     id="path4304" />
  <g
     transform="matrix(0.1337942,0,0,-0.1337942,31.527762,89.04701)"
     inkscape:label="Calque 1"
     id="g4306" />
  <g
     transform="matrix(0.1672428,0,0,-0.1672428,38.442916,104.62323)"
     inkscape:label="Calque 1"
     id="g4308" />
</svg>
