<?xml version="1.0" encoding="UTF-8" standalone="no"?>
<!-- Created with Inkscape (http://www.inkscape.org/) -->

<svg
   xmlns:dc="http://purl.org/dc/elements/1.1/"
   xmlns:cc="http://creativecommons.org/ns#"
   xmlns:rdf="http://www.w3.org/1999/02/22-rdf-syntax-ns#"
   xmlns:svg="http://www.w3.org/2000/svg"
   xmlns="http://www.w3.org/2000/svg"
   xmlns:xlink="http://www.w3.org/1999/xlink"
   xmlns:sodipodi="http://sodipodi.sourceforge.net/DTD/sodipodi-0.dtd"
   xmlns:inkscape="http://www.inkscape.org/namespaces/inkscape"
   width="48px"
   height="48px"
   id="svg2820"
   version="1.1"
   inkscape:version="0.47 r22583"
   sodipodi:docname="apparence.svg">
  <defs
     id="defs2822">
    <linearGradient
       id="linearGradient3172">
      <stop
         id="stop3174"
         offset="0"
         style="stop-color:#4d4d4d;stop-opacity:1;" />
      <stop
         id="stop3176"
         offset="1"
         style="stop-color:#4d4d4d;stop-opacity:0;" />
    </linearGradient>
    <linearGradient
       inkscape:collect="always"
       xlink:href="#linearGradient3172"
       id="linearGradient2985"
       gradientUnits="userSpaceOnUse"
       gradientTransform="matrix(0.644962,0,0,1.1832362,9.2354925,4.0163402)"
       x1="22.892584"
       y1="0.90414524"
       x2="22.892584"
       y2="21.132059" />
  </defs>
  <sodipodi:namedview
     id="base"
     pagecolor="#ffffff"
     bordercolor="#666666"
     borderopacity="1.0"
     inkscape:pageopacity="0.0"
     inkscape:pageshadow="2"
     inkscape:zoom="4.9497475"
     inkscape:cx="23.847963"
     inkscape:cy="14.212439"
     inkscape:current-layer="layer1"
     showgrid="true"
     inkscape:grid-bbox="true"
     inkscape:document-units="px"
     inkscape:window-width="1364"
     inkscape:window-height="721"
     inkscape:window-x="0"
     inkscape:window-y="23"
     inkscape:window-maximized="1" />
  <metadata
     id="metadata2825">
    <rdf:RDF>
      <cc:Work
         rdf:about="">
        <dc:format>image/svg+xml</dc:format>
        <dc:type
           rdf:resource="http://purl.org/dc/dcmitype/StillImage" />
        <dc:title />
      </cc:Work>
    </rdf:RDF>
  </metadata>
  <g
     id="layer1"
     inkscape:label="Layer 1"
     inkscape:groupmode="layer">
    <path
       style="fill:#000000"
       d="m 23.318236,43.898272 c -0.09661,-0.054 -0.544557,-0.17998 -0.995427,-0.28003 -1.004364,-0.22286 -2.501473,-0.84542 -3.615598,-1.50352 -1.179646,-0.69679 -3.214257,-2.7627 -4.194911,-4.25943 -1.348745,-2.05854 -2.249775,-4.08952 -2.717615,-6.12566 -0.16003,-0.69651 -0.22955,-0.7978 -1.2191,-1.77611 -1.2074202,-1.19369 -1.5208502,-1.74585 -1.9628402,-3.45781 -0.59274,-2.29586 -0.37681,-3.72177 0.93966,-6.20513 0.34193,-0.64501 0.6540002,-1.31238 0.6934902,-1.48305 0.0395,-0.17067 -0.086,-2.06387 -0.2788702,-4.2071 -0.31811,-3.53484 -0.33402,-3.92222 -0.17123,-4.17066 0.4540102,-0.6929098 3.8017282,-3.1581198 5.4435952,-4.0085798 4.220123,-2.18597 7.984525,-2.89145 11.299344,-2.11761 2.204836,0.51471 4.505943,1.46611 7.497882,3.1 3.16044,1.72591 3.672421,2.11388 4.05057,3.0694698 0.08805,0.22251 0.129789,1.76096 0.128093,4.72164 l -0.0025,4.39159 0.389387,0.87832 c 0.446424,1.00697 0.787746,2.01782 0.996888,2.95237 0.194679,0.86992 0.1021,2.48709 -0.172898,3.02019 -0.116292,0.22543 -0.797472,0.98957 -1.513735,1.69808 l -1.302294,1.2882 -1.216512,2.63495 c -1.946481,4.21606 -3.114464,6.21829 -4.657853,7.98478 -0.993234,1.13681 -1.608129,1.57402 -3.983672,2.83253 -1.853802,0.9821 -2.201797,1.12735 -2.693508,1.12425 -0.310566,-0.002 -0.643715,-0.0477 -0.740329,-0.10168 l -1.7e-5,0 z m 4.841146,-2.98191 c 1.468083,-1.05087 2.58724,-2.43719 4.105336,-5.08535 1.226637,-2.13974 1.599571,-2.90365 2.426844,-4.97106 0.954295,-2.38485 0.953949,-2.38427 1.639034,-2.73143 0.796669,-0.4037 1.514903,-1.08584 1.8651,-1.77138 0.25499,-0.49915 0.287934,-0.71236 0.286203,-1.85228 -0.0023,-1.50956 -0.231242,-2.35007 -1.060358,-3.89276 l -0.518658,-0.96504 -0.002,-3.54366 c -0.0022,-3.75269 -0.0934,-4.63919 -0.581222,-5.64689 -0.196658,-0.40624 -0.41394,-0.5926598 -1.261742,-1.0825098 -0.563291,-0.32547 -1.52481,-0.89707 -2.136705,-1.27023 -2.515493,-1.53406 -5.776867,-2.82883 -7.699919,-3.0569 l -0.614822,-0.0729 -0.0037,0.63094 c -0.0021,0.34702 -0.01524,3.2132 -0.02928,6.3692898 l -0.02553,5.73835 0.01504,11.76945 0.760095,0 c 0.502363,0 2.846727,-0.91642 3.595533,-1.4055 0.36576,-0.2389 0.910264,-0.6528 1.210009,-0.91976 l 0.54499,-0.48541 -0.348967,-0.64429 c -0.384509,-0.70992 -0.519703,-1.9057 -0.246477,-2.18006 0.222036,-0.22296 0.713758,0.0535 0.798555,0.44897 0.233692,1.08989 0.685239,1.719 1.738809,2.42258 0.3703,0.24729 0.593797,0.30418 1.194856,0.30418 1.174302,0 1.711497,0.37913 1.225633,0.865 -0.195344,0.19534 -0.429713,0.24497 -1.346213,0.28505 l -1.109691,0.0485 -0.415013,1.24518 c -0.228258,0.68485 -0.612622,1.56434 -0.854143,1.95442 -1.556508,2.51395 -2.568458,3.18953 -4.947828,3.30321 -0.953604,0.05584 -1.679923,0.237944 -1.800151,1.07665 l 0,6.769648 0.511951,-0.104108 1.181486,-0.51672 c 0.649817,-0.2842 1.506177,-0.74914 1.903022,-1.0332 l -7.7e-5,2e-5 z m 3.05634,-21.39166 c -0.803753,-0.15945 -1.900614,-0.66172 -2.716509,-1.24393 -1.319105,-0.94129 -2.838797,-2.48885 -2.838797,-2.89084 0,-0.0934 1.458817,-1.00123 1.913343,-1.19072 2.116854,-0.88248 4.505689,-0.0354 6.480203,2.29783 0.672703,0.79492 1.380111,2.02944 1.26741,2.21179 -0.299605,0.48478 -3.034809,1.02831 -4.10565,0.81587 z m 2.406922,-1.43563 c 9.37e-4,-0.25142 -0.230986,-0.56695 -1.012553,-1.3777 -1.333724,-1.38353 -2.147556,-1.81137 -3.433941,-1.80528 -0.678149,0.003 -1.008755,0.0668 -1.437049,0.2764 -0.305947,0.14972 -0.556267,0.32029 -0.556267,0.37904 0,0.2212 0.976465,1.1537 1.81536,1.73362 1.435374,0.99228 1.967605,1.16326 3.541191,1.13765 l 1.082074,-0.0176 0.0012,-0.32612 -1.5e-5,-10e-6 z m -12.352038,15.3002 c 0.921873,-0.42205 1.788008,-0.41619 3.160165,0.0214 1.476354,0.47079 2.671614,0.47525 3.554935,0.0133 1.230686,-0.64366 2.258596,-2.04019 2.940378,-3.99483 0.530235,-1.52016 0.491432,-1.5647 -0.698416,-0.80159 -1.438759,0.92275 -2.699891,1.53441 -3.602499,1.74724 -1.061801,0.25038 -3.556543,0.15809 -4.924601,-0.18216 -1.194107,-0.29699 -1.38249,-0.29946 -1.894512,-0.0249 -0.639202,0.3428 -0.937963,1.03177 -0.937963,2.163 0,0.82692 0.155342,2.18311 0.302211,2.6384 0.03273,0.10145 0.299883,-0.0995 0.740981,-0.55734 0.440985,-0.45773 0.931301,-0.82655 1.359321,-1.0225 l 0,-2e-5 z m -3.949409,-15.09173 c 1.694658,-0.77584 3.301962,-2.29995 3.303093,-3.13213 l 4.68e-4,-0.32205 -0.915616,0 c -1.132195,0 -1.883499,0.21556 -2.781992,0.79817 -1.333397,0.86461 -2.901248,2.48698 -2.648077,2.74015 0.401437,0.40144 2.083112,0.35493 3.042155,-0.0841 l -3.1e-5,-4e-5 z"
       id="path2818"
       sodipodi:nodetypes="csssssssssssssscccsscccssscccssssscccssscccccccscccssssscccsccccccccsssssccssssscccccssssssssssccccccsscc" />
    <path
       style="fill:url(#linearGradient2985);fill-opacity:1;stroke:none"
       d="m 24.00034,29.656253 c -5.826426,0 -11.153936,-1.114684 -15.3125005,-2.9375 -0.021585,-0.08002 -0.0404,-0.133152 -0.0625,-0.21875 -0.59274,-2.29586 -0.37897,-3.73539 0.9375,-6.21875 0.34193,-0.64501 0.6480105,-1.29808 0.6875005,-1.46875 0.0395,-0.17067 -0.08838,-2.07552 -0.2812505,-4.21875 -0.31811,-3.53484 -0.35029,-3.90781 -0.1875,-4.15625 C 10.2356,9.7445932 13.608473,7.2567132 15.25034,6.4062532 c 4.220123,-2.18597 7.966431,-2.86759 11.28125,-2.09375 2.204836,0.51471 4.508061,1.45986 7.5,3.09375 3.16044,1.72591 3.684351,2.10691 4.0625,3.0624998 0.08805,0.22251 0.126696,1.75807 0.125,4.71875 l 0,4.40625 0.375,0.875 c 0.446424,1.00697 0.790858,2.00295 1,2.9375 0.194679,0.86992 0.118748,2.49815 -0.15625,3.03125 -0.03059,0.05929 -0.182149,0.220741 -0.28125,0.34375 -0.622105,0.268129 -1.265771,0.515342 -1.9375,0.75 0.416827,-0.351221 0.757007,-0.772996 0.96875,-1.1875 0.25499,-0.49915 0.282981,-0.70383 0.28125,-1.84375 -0.0023,-1.50956 -0.233384,-2.33231 -1.0625,-3.875 l -0.5,-0.96875 0,-3.5625 c -0.0022,-3.75269 -0.105928,-4.6173 -0.59375,-5.625 -0.196658,-0.40624 -0.402198,-0.6038998 -1.25,-1.0937498 -0.563291,-0.32547 -1.544355,-0.90809 -2.15625,-1.28125 -2.515493,-1.53406 -5.764448,-2.83443 -7.6875,-3.0625 l -0.625,-0.0625 0,0.625 c -0.0021,0.34702 -0.01721,3.21891 -0.03125,6.3749998 l 0,5.75 1.6e-4,11.75 0.74984,0 c 0.502363,0 2.844944,-0.91717 3.59375,-1.40625 0.36576,-0.2389 0.919005,-0.63929 1.21875,-0.90625 l 0.5625,-0.5 -0.375,-0.625 c -0.384509,-0.70992 -0.491976,-1.91314 -0.21875,-2.1875 0.222036,-0.22296 0.696453,0.04203 0.78125,0.4375 0.233692,1.08989 0.69643,1.73392 1.75,2.4375 0.3703,0.24729 0.586441,0.3125 1.1875,0.3125 1.174302,0 1.704614,0.35788 1.21875,0.84375 -0.195344,0.19534 -0.42725,0.27242 -1.34375,0.3125 l -1.09375,0.03125 -0.21875,0.625 c -0.432047,0.08506 -0.8691,0.146665 -1.3125,0.21875 0.358019,-1.080425 0.218172,-1.118565 -0.84375,-0.4375 -0.427887,0.274426 -0.827042,0.501662 -1.21875,0.71875 -1.611858,0.180201 -3.286807,0.3125 -5,0.3125 z m 7.6875,-10.09375 c -0.177859,-0.0045 -0.334895,-0.0047 -0.46875,-0.03125 -0.803753,-0.15945 -1.902855,-0.66779 -2.71875,-1.25 -1.319105,-0.94129 -2.84375,-2.50426 -2.84375,-2.90625 0,-0.0934 1.451724,-0.99801 1.90625,-1.1875 2.116854,-0.88248 4.525486,-0.02073 6.5,2.3125 0.672703,0.79492 1.362701,2.0364 1.25,2.21875 -0.262154,0.424183 -2.379989,0.875405 -3.625,0.84375 z m -16.09375,-0.90625 c 0.590479,-0.01633 1.239228,-0.124235 1.71875,-0.34375 1.694658,-0.77584 3.311369,-2.32407 3.3125,-3.15625 l 0,-0.3125 -0.90625,0 c -1.132195,0 -1.882757,0.22989 -2.78125,0.8125 -1.333397,0.86461 -2.909421,2.46558 -2.65625,2.71875 0.200718,0.20072 0.722021,0.297576 1.3125,0.28125 z m 16.9375,-0.21875 1.09375,-0.03125 0,-0.3125 c 9.37e-4,-0.25142 -0.218433,-0.56425 -1,-1.375 -1.333724,-1.38353 -2.151115,-1.81859 -3.4375,-1.8125 -0.678149,0.003 -1.009206,0.07165 -1.4375,0.28125 -0.305947,0.14972 -0.5625,0.31625 -0.5625,0.375 0,0.2212 0.973605,1.13883 1.8125,1.71875 1.435374,0.99228 1.957664,1.18186 3.53125,1.15625 z"
       id="path2971"
       sodipodi:nodetypes="ccssssssssscccssccsscccssscccccccscccsssssccccscccssssssccscccssccccsssssc" />
    <g
       transform="matrix(0.1337942,0,0,-0.1337942,31.527762,89.04701)"
       inkscape:label="Calque 1"
       id="g2973" />
    <g
       transform="matrix(0.1672428,0,0,-0.1672428,38.442916,104.62323)"
       inkscape:label="Calque 1"
       id="g2975" />
  </g>
</svg>
