<?xml version="1.0" encoding="UTF-8" standalone="no"?>
<!-- Created with Inkscape (http://www.inkscape.org/) -->

<svg
   xmlns:dc="http://purl.org/dc/elements/1.1/"
   xmlns:cc="http://creativecommons.org/ns#"
   xmlns:rdf="http://www.w3.org/1999/02/22-rdf-syntax-ns#"
   xmlns:svg="http://www.w3.org/2000/svg"
   xmlns="http://www.w3.org/2000/svg"
   xmlns:xlink="http://www.w3.org/1999/xlink"
   xmlns:sodipodi="http://sodipodi.sourceforge.net/DTD/sodipodi-0.dtd"
   xmlns:inkscape="http://www.inkscape.org/namespaces/inkscape"
   width="48px"
   height="48px"
   id="svg3367"
   version="1.1"
   inkscape:version="0.47 r22583"
   sodipodi:docname="Nouveau document 1">
  <defs
     id="defs3369">
    <linearGradient
       inkscape:collect="always"
       xlink:href="#linearGradient3172"
       id="linearGradient11137"
       gradientUnits="userSpaceOnUse"
       gradientTransform="matrix(0.644962,0,0,1.1832362,9.235153,4.016338)"
       x1="22.892584"
       y1="0.90414524"
       x2="22.892584"
       y2="21.132059" />
    <linearGradient
       id="linearGradient3172">
      <stop
         style="stop-color:#4d4d4d;stop-opacity:1;"
         offset="0"
         id="stop3174" />
      <stop
         style="stop-color:#4d4d4d;stop-opacity:0;"
         offset="1"
         id="stop3176" />
    </linearGradient>
  </defs>
  <sodipodi:namedview
     id="base"
     pagecolor="#ffffff"
     bordercolor="#666666"
     borderopacity="1.0"
     inkscape:pageopacity="0.0"
     inkscape:pageshadow="2"
     inkscape:zoom="7"
     inkscape:cx="24"
     inkscape:cy="24"
     inkscape:current-layer="layer1"
     showgrid="true"
     inkscape:grid-bbox="true"
     inkscape:document-units="px"
     inkscape:window-width="904"
     inkscape:window-height="650"
     inkscape:window-x="0"
     inkscape:window-y="23"
     inkscape:window-maximized="0" />
  <metadata
     id="metadata3372">
    <rdf:RDF>
      <cc:Work
         rdf:about="">
        <dc:format>image/svg+xml</dc:format>
        <dc:type
           rdf:resource="http://purl.org/dc/dcmitype/StillImage" />
        <dc:title></dc:title>
      </cc:Work>
    </rdf:RDF>
  </metadata>
  <g
     id="layer1"
     inkscape:label="Layer 1"
     inkscape:groupmode="layer">
    <path
       style="fill:#000000;fill-opacity:1;stroke:none"
       d="M 5.5022091,7 C 4.6674726,7.000001 4,7.678224 4,8.526408 l 0,26.427818 c 2e-7,0.848181 0.6674725,1.556339 1.5022091,1.556338 l 12.3416789,0 0,3.531689 -4.653903,0 0,0.957747 22.739323,0 0,-0.957747 -4.536083,0 0,-3.531689 11.104566,0 C 43.332525,36.510561 44,35.802409 44,34.954226 L 44,8.526408 C 44,7.678223 43.332527,7 42.497791,7 L 5.5022091,7 z m 2.2680413,2.544014 32.6067746,0 c 0.735402,-2e-6 1.296024,0.583836 1.296024,1.286972 l 0,21.908451 c 0,0.703136 -0.560622,1.286971 -1.296024,1.286971 l -32.6067746,0 c -0.7354001,-2e-6 -1.3254787,-0.583836 -1.3254787,-1.286971 l 0,-21.908451 c 0,-0.703136 0.5900783,-1.286972 1.3254787,-1.286972 z m -0.1767305,0.508803 0,22.985915 29.3961711,0 L 7.5935199,10.052817 z m 4.5066271,9.966549 11.310751,8.410211 -11.310751,0 0,-8.410211 z"
       id="rect2160" />
    <path
       style="fill:url(#linearGradient11137);fill-opacity:1;stroke:none"
       d="M 5.5,7 C 4.665264,7.000001 4,7.683066 4,8.53125 l 0,15.4375 c 0.726687,0.577003 1.546079,1.119646 2.4375,1.625 l 0,-14.75 c 1e-6,-0.703136 0.608349,-1.3125 1.34375,-1.3125 l 32.59375,0 c 0.735405,-2e-6 1.3125,0.609364 1.3125,1.3125 l 0,14.6875 C 42.531815,25.045477 43.30624,24.519608 44,23.96875 L 44,8.53125 C 44,7.683065 43.334736,7 42.5,7 l -37,0 z m 2.09375,3.0625 0,16.15625 c 1.361206,0.673856 2.869762,1.256853 4.5,1.75 l 0,-7.9375 11.3125,8.40625 -9.625,0 c 3.103426,0.772712 6.561028,1.21875 10.21875,1.21875 2.729221,0 5.336073,-0.275598 7.78125,-0.71875 L 7.59375,10.0625 z"
       id="path11130" />
  </g>
</svg>
