<?xml version="1.0" encoding="UTF-8" standalone="no"?>
<!-- Created with Inkscape (http://www.inkscape.org/) -->

<svg
   xmlns:dc="http://purl.org/dc/elements/1.1/"
   xmlns:cc="http://creativecommons.org/ns#"
   xmlns:rdf="http://www.w3.org/1999/02/22-rdf-syntax-ns#"
   xmlns:svg="http://www.w3.org/2000/svg"
   xmlns="http://www.w3.org/2000/svg"
   xmlns:xlink="http://www.w3.org/1999/xlink"
   xmlns:sodipodi="http://sodipodi.sourceforge.net/DTD/sodipodi-0.dtd"
   xmlns:inkscape="http://www.inkscape.org/namespaces/inkscape"
   width="48px"
   height="48px"
   id="svg4046"
   version="1.1"
   inkscape:version="0.47 r22583"
   sodipodi:docname="Nouveau document 7">
  <defs
     id="defs4048">
    <linearGradient
       inkscape:collect="always"
       xlink:href="#linearGradient3172-41"
       id="linearGradient4005"
       gradientUnits="userSpaceOnUse"
       gradientTransform="matrix(0.644962,0,0,1.1832362,9.235153,4.016337)"
       x1="22.892584"
       y1="0.90414524"
       x2="22.892584"
       y2="21.132059" />
    <linearGradient
       id="linearGradient3172-41">
      <stop
         id="stop3174-79"
         offset="0"
         style="stop-color:#4d4d4d;stop-opacity:1;" />
      <stop
         id="stop3176-3"
         offset="1"
         style="stop-color:#4d4d4d;stop-opacity:0;" />
    </linearGradient>
  </defs>
  <sodipodi:namedview
     id="base"
     pagecolor="#ffffff"
     bordercolor="#666666"
     borderopacity="1.0"
     inkscape:pageopacity="0.0"
     inkscape:pageshadow="2"
     inkscape:zoom="7"
     inkscape:cx="24"
     inkscape:cy="24"
     inkscape:current-layer="layer1"
     showgrid="true"
     inkscape:grid-bbox="true"
     inkscape:document-units="px"
     inkscape:window-width="1364"
     inkscape:window-height="721"
     inkscape:window-x="0"
     inkscape:window-y="23"
     inkscape:window-maximized="1" />
  <metadata
     id="metadata4051">
    <rdf:RDF>
      <cc:Work
         rdf:about="">
        <dc:format>image/svg+xml</dc:format>
        <dc:type
           rdf:resource="http://purl.org/dc/dcmitype/StillImage" />
        <dc:title></dc:title>
      </cc:Work>
    </rdf:RDF>
  </metadata>
  <g
     id="layer1"
     inkscape:label="Layer 1"
     inkscape:groupmode="layer">
    <path
       style="fill:#000000;fill-opacity:1;fill-rule:evenodd;stroke:none"
       d="M 10.145833,6.5 C 8.126692,6.5 6.5,8.126693 6.5,10.145833 l 0,27.708334 c 0,2.019139 1.626692,3.645832 3.645833,3.645833 l 27.708334,0 C 39.873307,41.5 41.5,39.873306 41.5,37.854167 l 0,-27.708334 C 41.5,8.126693 39.873307,6.5 37.854167,6.5 l -27.708334,0 z m 0.364584,2.1875 c 1.006769,0 1.822916,0.816148 1.822916,1.822917 0,1.006769 -0.816147,1.822916 -1.822916,1.822916 -1.00677,0 -1.822917,-0.816147 -1.822917,-1.822916 0,-1.006769 0.816147,-1.822917 1.822917,-1.822917 z m 26.979166,0 c 1.006769,0 1.822917,0.816148 1.822917,1.822917 0,1.006769 -0.816148,1.822916 -1.822917,1.822916 -1.006769,0 -1.822916,-0.816147 -1.822916,-1.822916 0,-1.006769 0.816147,-1.822917 1.822916,-1.822917 z M 24,9.416667 C 32.024872,9.416667 38.583332,15.975129 38.583333,24 38.583335,32.024874 32.025673,38.583333 24,38.583333 15.974326,38.583333 9.416666,32.025675 9.416666,24 9.416666,15.974326 15.975128,9.416667 24,9.416667 z m -0.02279,1.914062 c -6.982875,0 -12.623698,5.686396 -12.623698,12.669271 0,6.982874 5.640823,12.669271 12.623698,12.669271 6.982874,0 12.66927,-5.686397 12.66927,-12.669271 0,-6.982875 -5.686396,-12.669271 -12.66927,-12.669271 z M 24,18.166667 c 3.208989,0 5.833333,2.624345 5.833333,5.833333 0,0.545443 -0.08625,1.07062 -0.227864,1.572266 1.876712,0.507088 3.501871,1.245562 4.671224,2.164713 -1.490694,4.254472 -5.540468,7.291667 -10.299479,7.291667 -4.759925,0 -8.797606,-3.035243 -10.276693,-7.291667 1.173076,-0.925733 2.802738,-1.681697 4.69401,-2.1875 C 18.256623,25.053932 18.166667,24.538054 18.166667,24 c 0,-3.20929 2.624357,-5.833333 5.833333,-5.833333 z m 0,1.09375 c -2.612404,0 -4.739583,2.126479 -4.739583,4.739583 0,2.613103 2.127179,4.739583 4.739583,4.739583 2.612404,0 4.739583,-2.127179 4.739583,-4.739583 0,-2.612404 -2.127179,-4.739583 -4.739583,-4.739583 z m -13.489583,16.40625 c 1.006769,0 1.822916,0.816147 1.822916,1.822916 0,1.006769 -0.816147,1.822917 -1.822916,1.822917 -1.00677,0 -1.822917,-0.816148 -1.822917,-1.822917 0,-1.006769 0.816147,-1.822916 1.822917,-1.822916 z m 26.979166,0 c 1.006769,0 1.822917,0.816147 1.822917,1.822916 0,1.006769 -0.816148,1.822917 -1.822917,1.822917 -1.006769,0 -1.822916,-0.816148 -1.822916,-1.822917 0,-1.006769 0.816147,-1.822916 1.822916,-1.822916 z"
       id="rect3938" />
    <path
       style="fill:url(#linearGradient4005);fill-opacity:1;stroke:none"
       d="m 24,28.75 c -2.612404,0 -4.75,-2.136897 -4.75,-4.75 0,-2.613104 2.137596,-4.75 4.75,-4.75 2.612404,0 4.75,2.137596 4.75,4.75 0,2.612404 -2.137596,4.75 -4.75,4.75 z M 13.96875,28.5 c -0.687355,-0.167211 -1.34953,-0.362995 -2,-0.5625 -0.405974,-1.242829 -0.625,-2.560086 -0.625,-3.9375 0,-6.982875 5.642125,-12.65625 12.625,-12.65625 6.982874,0 12.6875,5.673375 12.6875,12.65625 0,1.378014 -0.247088,2.694203 -0.65625,3.9375 -0.660238,0.201858 -1.333161,0.393899 -2.03125,0.5625 0.108187,-0.24747 0.222544,-0.493265 0.3125,-0.75 -1.169353,-0.919151 -2.810788,-1.680412 -4.6875,-2.1875 0.141614,-0.501646 0.25,-1.017057 0.25,-1.5625 0,-3.208988 -2.634761,-5.84375 -5.84375,-5.84375 -3.208976,0 -5.84375,2.63446 -5.84375,5.84375 0,0.538054 0.112092,1.066953 0.25,1.5625 -1.891272,0.505803 -3.545674,1.261767 -4.71875,2.1875 0.08798,0.253184 0.175551,0.50584 0.28125,0.75 z M 9.78125,27.15625 C 8.604661,26.697737 7.498395,26.186838 6.5,25.625 l 0,-15.46875 C 6.5,8.13711 8.13711,6.5 10.15625,6.5 l 27.6875,0 C 39.86289,6.5 41.5,8.13711 41.5,10.15625 l 0,15.46875 c -0.998395,0.561838 -2.104661,1.072737 -3.28125,1.53125 0.226591,-1.017565 0.375,-2.072677 0.375,-3.15625 C 38.593749,15.975129 32.024872,9.40625 24,9.40625 15.975128,9.40625 9.40625,15.974326 9.40625,24 c 0,1.083681 0.148409,2.13863 0.375,3.15625 z M 10.5,12.34375 c 1.006769,0 1.84375,-0.836981 1.84375,-1.84375 0,-1.006769 -0.836981,-1.8125 -1.84375,-1.8125 -1.006769,0 -1.8125,0.805731 -1.8125,1.8125 0,1.006769 0.805731,1.84375 1.8125,1.84375 z m 27,0 c 1.006769,0 1.8125,-0.836981 1.8125,-1.84375 0,-1.006769 -0.805731,-1.8125 -1.8125,-1.8125 -1.006769,0 -1.84375,0.805731 -1.84375,1.8125 0,1.006769 0.836981,1.84375 1.84375,1.84375 z"
       id="path3991" />
  </g>
</svg>
