<?xml version="1.0" encoding="UTF-8" standalone="no"?>
<!-- Created with Inkscape (http://www.inkscape.org/) -->

<svg
   xmlns:dc="http://purl.org/dc/elements/1.1/"
   xmlns:cc="http://creativecommons.org/ns#"
   xmlns:rdf="http://www.w3.org/1999/02/22-rdf-syntax-ns#"
   xmlns:svg="http://www.w3.org/2000/svg"
   xmlns="http://www.w3.org/2000/svg"
   xmlns:xlink="http://www.w3.org/1999/xlink"
   xmlns:sodipodi="http://sodipodi.sourceforge.net/DTD/sodipodi-0.dtd"
   xmlns:inkscape="http://www.inkscape.org/namespaces/inkscape"
   width="48px"
   height="48px"
   id="svg8078"
   version="1.1"
   inkscape:version="0.47 r22583"
   sodipodi:docname="Nouveau document 5">
  <defs
     id="defs8080">
    <linearGradient
       gradientUnits="userSpaceOnUse"
       y2="21.132059"
       x2="22.892584"
       y1="0.90414524"
       x1="22.892584"
       id="linearGradient3178"
       xlink:href="#linearGradient3172"
       inkscape:collect="always" />
    <linearGradient
       id="linearGradient3172">
      <stop
         id="stop3174"
         offset="0"
         style="stop-color:#4d4d4d;stop-opacity:1;" />
      <stop
         id="stop3176"
         offset="1"
         style="stop-color:#4d4d4d;stop-opacity:0;" />
    </linearGradient>
    <linearGradient
       inkscape:collect="always"
       xlink:href="#linearGradient3172"
       id="linearGradient8366"
       gradientUnits="userSpaceOnUse"
       x1="22.892584"
       y1="0.90414524"
       x2="22.892584"
       y2="21.132059" />
    <linearGradient
       inkscape:collect="always"
       xlink:href="#linearGradient3172"
       id="linearGradient8371"
       gradientUnits="userSpaceOnUse"
       x1="22.892584"
       y1="0.90414524"
       x2="22.892584"
       y2="21.132059"
       gradientTransform="matrix(0.644962,0,0,-1.1832362,59.235153,43.983663)" />
    <linearGradient
       inkscape:collect="always"
       xlink:href="#linearGradient3172"
       id="linearGradient8374"
       gradientUnits="userSpaceOnUse"
       gradientTransform="matrix(0.644962,0,0,1.1832362,9.235153,4.016337)"
       x1="22.892584"
       y1="0.90414524"
       x2="22.892584"
       y2="21.132059" />
  </defs>
  <sodipodi:namedview
     id="base"
     pagecolor="#ffffff"
     bordercolor="#666666"
     borderopacity="1.0"
     inkscape:pageopacity="0.0"
     inkscape:pageshadow="2"
     inkscape:zoom="7"
     inkscape:cx="24"
     inkscape:cy="24"
     inkscape:current-layer="layer1"
     showgrid="true"
     inkscape:grid-bbox="true"
     inkscape:document-units="px"
     inkscape:window-width="1364"
     inkscape:window-height="720"
     inkscape:window-x="0"
     inkscape:window-y="24"
     inkscape:window-maximized="1" />
  <metadata
     id="metadata8083">
    <rdf:RDF>
      <cc:Work
         rdf:about="">
        <dc:format>image/svg+xml</dc:format>
        <dc:type
           rdf:resource="http://purl.org/dc/dcmitype/StillImage" />
        <dc:title></dc:title>
      </cc:Work>
    </rdf:RDF>
  </metadata>
  <g
     id="layer1"
     inkscape:label="Layer 1"
     inkscape:groupmode="layer">
    <path
       style="fill:#000000;fill-opacity:1;stroke:none"
       d="M 5.502209,7 C 4.667473,7 4,7.678224 4,8.526408 l 0,26.457747 c 0,0.848184 0.667473,1.526411 1.502209,1.526409 l 12.312224,0 0,3.531689 -4.653903,0 0,0.957747 22.739323,0 0,-0.957747 -4.506628,0 0,-3.531689 11.104566,0 C 43.332527,36.510564 44,35.832338 44,34.984155 L 44,8.526408 C 44,7.678224 43.332527,7 42.497791,7 L 5.502209,7 z m 2.268041,2.544014 32.57732,0 c 0.735401,0 1.325479,0.583836 1.325479,1.286972 l 0,21.908451 c 0,0.703136 -0.590078,1.286971 -1.325479,1.286971 l -32.57732,0 c -0.7354,10e-7 -1.325478,-0.583836 -1.325478,-1.286971 l 0,-21.908451 c 0,-0.703136 0.590078,-1.286972 1.325478,-1.286972 z m 21.296024,3.471831 c -0.818395,0 -1.472754,0.6649 -1.472754,1.496479 l 0,6.614436 c 0,0.831579 0.654359,1.496479 1.472754,1.496479 l 8.070692,0 c 0.818395,0 1.502209,-0.6649 1.502209,-1.496479 l 0,-6.614436 c 0,-0.831579 -0.683814,-1.496479 -1.502209,-1.496479 l -8.070692,0 z m 0.11782,1.616198 8.011782,0 0,1.586267 -8.011782,0 0,-1.586267 z M 10.156112,16.21831 c -0.8183951,0 -1.472754,0.6649 -1.472754,1.496479 l 0,9.816902 c 0,0.831578 0.6543589,1.496476 1.472754,1.496478 l 11.134021,0 c 0.818395,0 1.472752,-0.664899 1.472754,-1.496478 l 0,-9.816902 c 0,-0.831579 -0.654359,-1.496479 -1.472754,-1.496479 l -11.134021,0 z m 0.11782,1.616197 11.016201,0 0,1.586268 -11.016201,0 0,-1.586268 z"
       id="rect2160" />
    <path
       style="fill:url(#linearGradient8374);fill-opacity:1;stroke:none"
       d="M 16.71875,29.03125 C 13.747664,28.531591 11.031386,27.746142 8.6875,26.71875 l 0,-9 c 0,-0.831579 0.650355,-1.5 1.46875,-1.5 l 11.125,0 c 0.818395,0 1.46875,0.668421 1.46875,1.5 l 0,9.8125 c -2e-6,0.831579 -0.650355,1.5 -1.46875,1.5 l -4.5625,0 z M 6.4375,25.59375 C 5.546079,25.088396 4.726687,24.545753 4,23.96875 L 4,8.53125 C 4,7.683066 4.665264,7 5.5,7 l 37,0 C 43.334736,7 44,7.683066 44,8.53125 l 0,15.4375 c -0.69376,0.550858 -1.468185,1.076727 -2.3125,1.5625 l 0,-14.6875 c 0,-0.703136 -0.608349,-1.3125 -1.34375,-1.3125 l -32.5625,0 c -0.7354,0 -1.34375,0.609364 -1.34375,1.3125 l 0,14.75 z M 29.0625,22.625 c -0.818395,0 -1.46875,-0.668421 -1.46875,-1.5 l 0,-6.625 c 0,-0.831579 0.650355,-1.46875 1.46875,-1.46875 l 8.0625,0 c 0.818395,0 1.5,0.637171 1.5,1.46875 l 0,6.625 c 0,0.831579 -0.681605,1.5 -1.5,1.5 l -8.0625,0 z m -18.78125,-3.21875 11,0 0,-1.5625 -11,0 0,1.5625 z m 18.90625,-3.1875 8,0 0,-1.59375 -8,0 0,1.59375 z"
       id="path8360" />
    <g
       transform="matrix(0.1337942,0,0,-0.1337942,31.527762,89.04701)"
       inkscape:label="Calque 1"
       id="g8362" />
    <g
       transform="matrix(0.1672428,0,0,-0.1672428,38.442916,104.62323)"
       inkscape:label="Calque 1"
       id="g8364" />
  </g>
</svg>
