<?xml version="1.0" encoding="UTF-8" standalone="no"?>
<!-- Created with Inkscape (http://www.inkscape.org/) -->

<svg
   xmlns:dc="http://purl.org/dc/elements/1.1/"
   xmlns:cc="http://creativecommons.org/ns#"
   xmlns:rdf="http://www.w3.org/1999/02/22-rdf-syntax-ns#"
   xmlns:svg="http://www.w3.org/2000/svg"
   xmlns="http://www.w3.org/2000/svg"
   xmlns:xlink="http://www.w3.org/1999/xlink"
   xmlns:sodipodi="http://sodipodi.sourceforge.net/DTD/sodipodi-0.dtd"
   xmlns:inkscape="http://www.inkscape.org/namespaces/inkscape"
   width="48px"
   height="48px"
   id="svg2996"
   version="1.1"
   inkscape:version="0.47 r22583"
   sodipodi:docname="Nouveau document 3">
  <defs
     id="defs2998">
    <linearGradient
       inkscape:collect="always"
       xlink:href="#linearGradient3172"
       id="linearGradient2976"
       gradientUnits="userSpaceOnUse"
       gradientTransform="matrix(0.644962,0,0,1.1832362,9.235153,4.016087)"
       x1="22.892584"
       y1="0.90414524"
       x2="22.892584"
       y2="21.132059" />
    <linearGradient
       id="linearGradient3172">
      <stop
         id="stop3174"
         offset="0"
         style="stop-color:#4d4d4d;stop-opacity:1;" />
      <stop
         id="stop3176"
         offset="1"
         style="stop-color:#4d4d4d;stop-opacity:0;" />
    </linearGradient>
  </defs>
  <sodipodi:namedview
     id="base"
     pagecolor="#ffffff"
     bordercolor="#666666"
     borderopacity="1.0"
     inkscape:pageopacity="0.0"
     inkscape:pageshadow="2"
     inkscape:zoom="7"
     inkscape:cx="24"
     inkscape:cy="24"
     inkscape:current-layer="layer1"
     showgrid="true"
     inkscape:grid-bbox="true"
     inkscape:document-units="px"
     inkscape:window-width="596"
     inkscape:window-height="502"
     inkscape:window-x="0"
     inkscape:window-y="25"
     inkscape:window-maximized="0" />
  <metadata
     id="metadata3001">
    <rdf:RDF>
      <cc:Work
         rdf:about="">
        <dc:format>image/svg+xml</dc:format>
        <dc:type
           rdf:resource="http://purl.org/dc/dcmitype/StillImage" />
        <dc:title></dc:title>
      </cc:Work>
    </rdf:RDF>
  </metadata>
  <g
     id="layer1"
     inkscape:label="Layer 1"
     inkscape:groupmode="layer">
    <path
       style="font-size:medium;font-style:normal;font-variant:normal;font-weight:normal;font-stretch:normal;text-indent:0;text-align:start;text-decoration:none;line-height:normal;letter-spacing:normal;word-spacing:normal;text-transform:none;direction:ltr;block-progression:tb;writing-mode:lr-tb;text-anchor:start;color:#000000;fill:#000000;fill-opacity:1;fill-rule:nonzero;stroke:none;stroke-width:5.38399982;marker:none;visibility:visible;display:inline;overflow:visible;enable-background:accumulate;font-family:Bitstream Charter;-inkscape-font-specification:Bitstream Charter"
       d="M 7.5,8.0935 C 5.619013,8.0935 4,9.714133 4,11.68725 L 4,36.3435 c 0,1.973116 1.625201,3.5625 3.5,3.5625 l 33,0 c 1.874799,0 3.5,-1.589383 3.5,-3.5625 L 44,11.68725 C 44,9.714133 42.380988,8.0935 40.5,8.0935 l -33,0 z m 0,1 33,0 c 1.323556,0 2.53125,1.194477 2.53125,2.59375 l 0,24.65625 c 0,1.399271 -1.201504,2.5625 -2.53125,2.5625 l -33,0 c -1.329745,0 -2.53125,-1.163228 -2.53125,-2.5625 l 0,-24.65625 C 4.96875,10.287977 6.176443,9.0935 7.5,9.0935 z m 1.3125,1.03125 c -1.478096,0 -2.78125,1.263674 -2.78125,2.78125 l 0,22.1875 c 0,1.517574 1.303154,2.78125 2.78125,2.78125 l 30.4375,0 c 1.478096,0 2.78125,-1.263676 2.78125,-2.78125 l 0,-22.1875 c 0,-1.517576 -1.303154,-2.78125 -2.78125,-2.78125 l -30.4375,0 z m 10.78125,3.21875 0.4375,0 0,1.03125 c 0.272458,0.01173 0.526364,0.04688 0.78125,0.09375 0.254879,0.04395 0.506832,0.108404 0.75,0.1875 l 0,0.75 c -0.243168,-0.123042 -0.492192,-0.213862 -0.75,-0.28125 -0.254886,-0.06738 -0.511722,-0.113276 -0.78125,-0.125 l 0,1.875 c 0.665035,0.102542 1.155269,0.298831 1.46875,0.5625 0.313472,0.263674 0.468745,0.605471 0.46875,1.0625 -5e-6,0.495118 -0.16602,0.900391 -0.5,1.1875 -0.331059,0.28418 -0.810551,0.456055 -1.4375,0.5 l 0,1.3125 -0.4375,0 -0.03125,-1.3125 c -0.307619,-0.0059 -0.598635,-0.0293 -0.90625,-0.09375 -0.307619,-0.06738 -0.626954,-0.180664 -0.9375,-0.3125 l 0,-0.78125 c 0.298827,0.187501 0.601561,0.309571 0.90625,0.40625 0.307615,0.09375 0.643552,0.153321 0.96875,0.15625 l 0,-2 c -0.647463,-0.105466 -1.141603,-0.279294 -1.4375,-0.53125 -0.29297,-0.25195 -0.437501,-0.591793 -0.4375,-1.03125 -1e-6,-0.477534 0.180663,-0.880854 0.5,-1.15625 0.319334,-0.275385 0.777342,-0.427729 1.375,-0.46875 l 0,-1.03125 z m 0,1.65625 c -0.339846,0.03809 -0.602541,0.125982 -0.78125,0.28125 -0.178713,0.155278 -0.281252,0.367192 -0.28125,0.625 -2e-6,0.251957 0.08594,0.453129 0.25,0.59375 0.16699,0.140629 0.446287,0.25098 0.8125,0.3125 l 0,-1.8125 z m -3.5625,1.59375 0,0.78125 c -0.307623,0.231448 -0.611334,0.400393 -0.875,0.5 -0.260748,0.09961 -0.528326,0.156252 -0.8125,0.15625 -0.32227,2e-6 -0.69727,-0.07715 -1.125,-0.25 -0.03223,-0.01172 -0.04786,-0.02539 -0.0625,-0.03125 -0.02051,-0.0088 -0.04981,-0.0166 -0.09375,-0.03125 -0.454105,-0.181638 -0.818362,-0.281247 -1.09375,-0.28125 -0.257815,3e-6 -0.529299,0.042 -0.78125,0.15625 -0.251955,0.111331 -0.494142,0.288088 -0.78125,0.53125 l 0,-0.78125 c 0.307616,-0.231442 0.583006,-0.400387 0.84375,-0.5 0.26367,-0.102536 0.528318,-0.156247 0.8125,-0.15625 0.322262,3e-6 0.694333,0.105472 1.125,0.28125 0.02929,0.01172 0.04785,0.02539 0.0625,0.03125 0.02343,0.0088 0.05273,0.0166 0.09375,0.03125 0.454097,0.181644 0.818355,0.281253 1.09375,0.28125 0.251948,3e-6 0.503901,-0.07617 0.75,-0.1875 0.249017,-0.111325 0.541986,-0.285153 0.84375,-0.53125 z m 4,1.0625 0,1.90625 c 0.372067,-0.0498 0.624996,-0.182616 0.8125,-0.34375 0.190426,-0.161132 0.312496,-0.361327 0.3125,-0.625 -4e-6,-0.257811 -0.09961,-0.472654 -0.28125,-0.625 -0.178715,-0.152341 -0.454105,-0.242185 -0.84375,-0.3125 z"
       id="rect2904" />
    <path
       style="fill:url(#linearGradient2976);fill-opacity:1;stroke:none"
       d="m 24,29.656 c -7.157082,0 -13.57037,-1.689622 -17.96875,-4.3125 l 0,-12.4375 c 0,-1.517576 1.303154,-2.78125 2.78125,-2.78125 l 30.4375,0 c 1.478096,0 2.78125,1.263674 2.78125,2.78125 l 0,12.40625 C 37.631467,27.95552 31.189052,29.656 24,29.656 z M 4.96875,24.68725 C 4.629596,24.454705 4.308441,24.213408 4,23.9685 L 4,11.68725 C 4,9.714133 5.619013,8.0935 7.5,8.0935 l 33,0 c 1.880988,0 3.5,1.620633 3.5,3.59375 l 0,12.28125 c -0.308441,0.244908 -0.629596,0.486205 -0.96875,0.71875 l 0,-13 C 43.03125,10.287977 41.823556,9.0935 40.5,9.0935 l -33,0 c -1.323557,0 -2.53125,1.194477 -2.53125,2.59375 l 0,13 z m 14.625,-3.1875 0.4375,0 0,-1.3125 c 0.626949,-0.04395 1.106441,-0.21582 1.4375,-0.5 0.33398,-0.287109 0.499995,-0.692382 0.5,-1.1875 -5e-6,-0.457029 -0.155278,-0.798826 -0.46875,-1.0625 -0.313481,-0.263669 -0.803715,-0.459958 -1.46875,-0.5625 l 0,-1.875 c 0.269528,0.01172 0.526364,0.05762 0.78125,0.125 0.257808,0.06739 0.506832,0.158208 0.75,0.28125 l 0,-0.75 c -0.243168,-0.0791 -0.495121,-0.14355 -0.75,-0.1875 -0.254886,-0.04687 -0.508792,-0.08202 -0.78125,-0.09375 l 0,-1.03125 -0.4375,0 0,1.03125 c -0.597658,0.04102 -1.055666,0.193365 -1.375,0.46875 -0.319337,0.275396 -0.500001,0.678716 -0.5,1.15625 -1e-6,0.439457 0.14453,0.7793 0.4375,1.03125 0.295897,0.251956 0.790037,0.425784 1.4375,0.53125 l 0,2 C 19.268552,19.55935 18.932615,19.49975 18.625,19.406 18.320311,19.30932 18.017577,19.187251 17.71875,18.99975 l 0,0.78125 c 0.310546,0.131836 0.629881,0.24512 0.9375,0.3125 0.307615,0.06445 0.598631,0.08785 0.90625,0.09375 l 0.03125,1.3125 z m 0.4375,-1.9375 0,-1.90625 c 0.389645,0.07032 0.665035,0.160159 0.84375,0.3125 0.18164,0.152346 0.281246,0.367189 0.28125,0.625 -4e-6,0.263673 -0.122074,0.463868 -0.3125,0.625 -0.187504,0.161134 -0.440433,0.29395 -0.8125,0.34375 z m -9.625,-1.4375 c 0.287108,-0.243162 0.529295,-0.419919 0.78125,-0.53125 0.251951,-0.11425 0.523435,-0.156247 0.78125,-0.15625 0.275388,3e-6 0.639645,0.09961 1.09375,0.28125 0.04394,0.01465 0.07324,0.02245 0.09375,0.03125 0.01464,0.0059 0.03027,0.01953 0.0625,0.03125 0.42773,0.17285 0.80273,0.250002 1.125,0.25 0.284174,2e-6 0.551752,-0.05664 0.8125,-0.15625 0.263666,-0.09961 0.567377,-0.268552 0.875,-0.5 l 0,-0.78125 c -0.301764,0.246097 -0.594733,0.419925 -0.84375,0.53125 -0.246099,0.11133 -0.498052,0.187503 -0.75,0.1875 -0.275395,3e-6 -0.639653,-0.09961 -1.09375,-0.28125 -0.04102,-0.01465 -0.07032,-0.02245 -0.09375,-0.03125 -0.01465,-0.0059 -0.03321,-0.01953 -0.0625,-0.03125 -0.430667,-0.175778 -0.802738,-0.281247 -1.125,-0.28125 -0.284182,3e-6 -0.54883,0.05371 -0.8125,0.15625 -0.260744,0.09961 -0.536134,0.268558 -0.84375,0.5 l 0,0.78125 z m 9.1875,-1.3125 c -0.366213,-0.06152 -0.64551,-0.171871 -0.8125,-0.3125 -0.16406,-0.140621 -0.250002,-0.341793 -0.25,-0.59375 -2e-6,-0.257808 0.102537,-0.469722 0.28125,-0.625 0.178709,-0.155268 0.441404,-0.24316 0.78125,-0.28125 l 0,1.8125 z"
       id="path2971" />
  </g>
</svg>
