<?xml version="1.0" encoding="UTF-8" standalone="no"?>
<!-- Created with Inkscape (http://www.inkscape.org/) -->

<svg
   xmlns:dc="http://purl.org/dc/elements/1.1/"
   xmlns:cc="http://creativecommons.org/ns#"
   xmlns:rdf="http://www.w3.org/1999/02/22-rdf-syntax-ns#"
   xmlns:svg="http://www.w3.org/2000/svg"
   xmlns="http://www.w3.org/2000/svg"
   xmlns:xlink="http://www.w3.org/1999/xlink"
   xmlns:sodipodi="http://sodipodi.sourceforge.net/DTD/sodipodi-0.dtd"
   xmlns:inkscape="http://www.inkscape.org/namespaces/inkscape"
   width="48px"
   height="48px"
   id="svg3621"
   version="1.1"
   inkscape:version="0.47 r22583"
   sodipodi:docname="Nouveau document 4">
  <defs
     id="defs3623">
    <linearGradient
       gradientUnits="userSpaceOnUse"
       y2="21.132059"
       x2="22.892584"
       y1="0.90414524"
       x1="22.892584"
       id="linearGradient3178"
       xlink:href="#linearGradient3172"
       inkscape:collect="always" />
    <linearGradient
       id="linearGradient3172">
      <stop
         id="stop3174"
         offset="0"
         style="stop-color:#4d4d4d;stop-opacity:1;" />
      <stop
         id="stop3176"
         offset="1"
         style="stop-color:#4d4d4d;stop-opacity:0;" />
    </linearGradient>
    <linearGradient
       inkscape:collect="always"
       xlink:href="#linearGradient3172"
       id="linearGradient3748"
       gradientUnits="userSpaceOnUse"
       x1="22.892584"
       y1="0.90414524"
       x2="22.892584"
       y2="21.132059" />
    <linearGradient
       inkscape:collect="always"
       xlink:href="#linearGradient3172"
       id="linearGradient3753"
       gradientUnits="userSpaceOnUse"
       x1="22.892584"
       y1="0.90414524"
       x2="22.892584"
       y2="21.132059"
       gradientTransform="matrix(0.644962,0,0,-1.1832362,59.235153,43.983663)" />
    <linearGradient
       inkscape:collect="always"
       xlink:href="#linearGradient3172"
       id="linearGradient3756"
       gradientUnits="userSpaceOnUse"
       gradientTransform="matrix(0.644962,0,0,1.1832362,9.235153,4.016337)"
       x1="22.892584"
       y1="0.90414524"
       x2="22.892584"
       y2="21.132059" />
  </defs>
  <sodipodi:namedview
     id="base"
     pagecolor="#ffffff"
     bordercolor="#666666"
     borderopacity="1.0"
     inkscape:pageopacity="0.0"
     inkscape:pageshadow="2"
     inkscape:zoom="7"
     inkscape:cx="24"
     inkscape:cy="24"
     inkscape:current-layer="layer1"
     showgrid="true"
     inkscape:grid-bbox="true"
     inkscape:document-units="px"
     inkscape:window-width="1364"
     inkscape:window-height="721"
     inkscape:window-x="0"
     inkscape:window-y="23"
     inkscape:window-maximized="1" />
  <metadata
     id="metadata3626">
    <rdf:RDF>
      <cc:Work
         rdf:about="">
        <dc:format>image/svg+xml</dc:format>
        <dc:type
           rdf:resource="http://purl.org/dc/dcmitype/StillImage" />
        <dc:title></dc:title>
      </cc:Work>
    </rdf:RDF>
  </metadata>
  <g
     id="layer1"
     inkscape:label="Layer 1"
     inkscape:groupmode="layer">
    <path
       style="fill:#000000"
       d="M 9,44 9,6.7375 C 9,5.22257 10.473173,4 12.30195,4 l 12.326831,0 c 1.828778,0 3.30195,1.22257 3.30195,2.7375 l 0,13.86875 c 1.953913,0.0965 2.514015,0.31979 3.3692,1.225 0.944467,0.99968 1.013373,1.69088 0.948218,10.24375 l -0.06725,7.7125 0.450572,0.44375 c 1.015454,1.00798 2.691892,0.96512 3.644922,-0.0875 0.651978,-0.72011 0.632143,-1.08503 -0.349697,-5.98125 -1.174503,-5.85697 -1.245794,-6.62481 -1.082717,-11.49375 l 0.141224,-4.2125 -0.659045,0 c -0.842398,1.7e-4 -2.199624,-0.63601 -2.696705,-1.26875 -0.343351,-0.43706 -0.390294,-0.78649 -0.443846,-3.28125 l -0.0538,-2.79375 -1.392064,-1.45 C 28.976425,8.86516 28.354403,8.1408 28.354403,8.05 c 0,-0.0908 0.315483,-0.37005 0.699395,-0.6125 L 29.753193,7 32.900469,9.90625 c 2.089974,1.92864 3.292238,3.1757 3.557498,3.69375 0.383085,0.74816 0.400669,1.08587 0.504371,8.06875 l 0.114324,7.29375 0.961668,4.95 c 0.530746,2.72153 0.961022,5.21084 0.961667,5.525 0.0032,2.06908 -3.009445,3.98686 -5.467383,3.48125 -1.446146,-0.29748 -2.544314,-1.11704 -3.140551,-2.325 -0.316748,-0.64172 -0.352631,-1.30882 -0.356423,-8.8 l 0,-8.10625 L 29.585069,23.2 C 29.21988,22.80517 29.066722,22.72449 27.930731,22.675 l 0,21.325 L 9,44 z m 5.158036,-26.5625 8.61466,0 c 1.189983,0 2.151983,-0.79903 2.151983,-1.79375 l 0,-7.05 c 0,-0.99472 -0.962,-1.8 -2.151983,-1.8 l -8.61466,0 c -1.189983,0 -2.151984,0.80528 -2.151984,1.8 l 0,7.05 c 0,0.99472 0.962001,1.79375 2.151984,1.79375 z m 20.275721,-0.41875 c 0.296012,0.0265 0.30063,-0.27105 0.248823,-1.33125 -0.07505,-1.53597 -0.261946,-1.83744 -1.23739,-2.01875 l -0.611971,-0.1125 0,1.125 c 0,1.20898 0.382231,1.91278 1.197041,2.21875 0.171302,0.0643 0.304826,0.10992 0.403497,0.11875 z"
       id="path2818" />
    <path
       style="fill:url(#linearGradient3756);fill-opacity:1;stroke:none"
       d="m 24,29.65625 c -5.684292,0 -10.886882,-1.068935 -15,-2.8125 L 9,6.75 C 9,5.23507 10.483723,4 12.3125,4 L 24.625,4 c 1.828778,0 3.3125,1.23507 3.3125,2.75 l 0,13.84375 c 1.953913,0.0965 2.519815,0.34479 3.375,1.25 0.794343,0.84078 0.940698,1.734983 0.9375,7 -0.725891,0.140575 -1.46197,0.271398 -2.21875,0.375 l 0,-5.53125 -0.4375,-0.5 c -0.365189,-0.39483 -0.520259,-0.45051 -1.65625,-0.5 l 0,6.78125 C 26.653676,29.580869 25.343803,29.65625 24,29.65625 z M 34.90625,28.25 c -0.166674,-1.61563 -0.147704,-3.049839 -0.0625,-5.59375 L 35,18.46875 l -0.6875,0 C 33.470102,18.46892 32.122081,17.82024 31.625,17.1875 31.281649,16.75044 31.241052,16.40101 31.1875,13.90625 L 31.125,11.125 29.75,9.65625 C 28.986682,8.85891 28.34375,8.1533 28.34375,8.0625 c 0,-0.0908 0.334838,-0.38255 0.71875,-0.625 L 29.75,7 32.90625,9.90625 c 2.089974,1.92864 3.29724,3.16945 3.5625,3.6875 0.383085,0.74816 0.396298,1.07962 0.5,8.0625 l 0.0625,5.9375 c -0.686871,0.235203 -1.392125,0.458357 -2.125,0.65625 z m -20.75,-10.8125 8.625,0 c 1.189983,0 2.15625,-0.78653 2.15625,-1.78125 l 0,-7.0625 c 0,-0.99472 -0.966267,-1.8125 -2.15625,-1.8125 l -8.625,0 C 12.966267,6.78125 12,7.59903 12,8.59375 l 0,7.0625 c 0,0.99472 0.966267,1.78125 2.15625,1.78125 z M 34.4375,17.03125 c 0.296012,0.0265 0.301807,-0.28355 0.25,-1.34375 -0.07505,-1.53597 -0.274556,-1.84994 -1.25,-2.03125 l -0.59375,-0.09375 0,1.125 c 0,1.20898 0.37269,1.91278 1.1875,2.21875 0.171302,0.0643 0.307579,0.11617 0.40625,0.125 z"
       id="path3742" />
    <g
       transform="matrix(0.1337942,0,0,-0.1337942,31.527762,89.04701)"
       inkscape:label="Calque 1"
       id="g3744" />
    <g
       transform="matrix(0.1672428,0,0,-0.1672428,38.442916,104.62323)"
       inkscape:label="Calque 1"
       id="g3746" />
  </g>
</svg>
