<?xml version="1.0" encoding="UTF-8" standalone="no"?>
<!-- Created with Inkscape (http://www.inkscape.org/) -->

<svg
   xmlns:dc="http://purl.org/dc/elements/1.1/"
   xmlns:cc="http://creativecommons.org/ns#"
   xmlns:rdf="http://www.w3.org/1999/02/22-rdf-syntax-ns#"
   xmlns:svg="http://www.w3.org/2000/svg"
   xmlns="http://www.w3.org/2000/svg"
   xmlns:xlink="http://www.w3.org/1999/xlink"
   xmlns:sodipodi="http://sodipodi.sourceforge.net/DTD/sodipodi-0.dtd"
   xmlns:inkscape="http://www.inkscape.org/namespaces/inkscape"
   width="48px"
   height="48px"
   id="svg2847"
   version="1.1"
   inkscape:version="0.47 r22583"
   sodipodi:docname="Nouveau document 2">
  <defs
     id="defs2849">
    <linearGradient
       gradientUnits="userSpaceOnUse"
       y2="21.132059"
       x2="22.892584"
       y1="0.90414524"
       x1="22.892584"
       id="linearGradient3178"
       xlink:href="#linearGradient3172"
       inkscape:collect="always" />
    <linearGradient
       id="linearGradient3172">
      <stop
         id="stop3174"
         offset="0"
         style="stop-color:#4d4d4d;stop-opacity:1;" />
      <stop
         id="stop3176"
         offset="1"
         style="stop-color:#4d4d4d;stop-opacity:0;" />
    </linearGradient>
    <linearGradient
       inkscape:collect="always"
       xlink:href="#linearGradient3172"
       id="linearGradient2987"
       gradientUnits="userSpaceOnUse"
       x1="22.892584"
       y1="0.90414524"
       x2="22.892584"
       y2="21.132059" />
    <linearGradient
       inkscape:collect="always"
       xlink:href="#linearGradient3172"
       id="linearGradient2992"
       gradientUnits="userSpaceOnUse"
       x1="22.892584"
       y1="0.90414524"
       x2="22.892584"
       y2="21.132059"
       gradientTransform="matrix(0.644962,0,0,-1.1832362,59.235153,43.983663)" />
    <linearGradient
       inkscape:collect="always"
       xlink:href="#linearGradient3172"
       id="linearGradient2995"
       gradientUnits="userSpaceOnUse"
       gradientTransform="matrix(0.644962,0,0,1.1832362,9.235153,4.0179238)"
       x1="22.892584"
       y1="0.90414524"
       x2="22.892584"
       y2="21.132059" />
  </defs>
  <sodipodi:namedview
     id="base"
     pagecolor="#ffffff"
     bordercolor="#666666"
     borderopacity="1.0"
     inkscape:pageopacity="0.0"
     inkscape:pageshadow="2"
     inkscape:zoom="4.9497475"
     inkscape:cx="39.737568"
     inkscape:cy="22.999255"
     inkscape:current-layer="layer1"
     showgrid="true"
     inkscape:grid-bbox="true"
     inkscape:document-units="px"
     inkscape:window-width="1364"
     inkscape:window-height="721"
     inkscape:window-x="0"
     inkscape:window-y="23"
     inkscape:window-maximized="1" />
  <metadata
     id="metadata2852">
    <rdf:RDF>
      <cc:Work
         rdf:about="">
        <dc:format>image/svg+xml</dc:format>
        <dc:type
           rdf:resource="http://purl.org/dc/dcmitype/StillImage" />
        <dc:title></dc:title>
      </cc:Work>
    </rdf:RDF>
  </metadata>
  <g
     id="layer1"
     inkscape:label="Layer 1"
     inkscape:groupmode="layer">
    <path
       style="fill:#000000"
       d="m 23.617166,4.0031248 c -0.314064,0.005 -0.623537,0.04283 -0.937696,0.06255 -0.555135,0.03483 -1.10306,0.07476 -1.656596,0.156368 -0.542294,0.07996 -1.086878,0.186199 -1.62534,0.312734 -0.258375,0.06075 -0.524307,0.115887 -0.781413,0.187641 l 0,0.03122 C 13.539657,6.1768458 9.0063236,9.6103828 6.3010447,14.698601 5.1236955,16.913013 4.4166146,19.316477 4.1443436,21.766405 l -0.031257,0 c -0.020014,0.175782 -0.015913,0.354426 -0.031257,0.531649 -0.072676,0.83934 -0.1057741,1.701507 -0.062513,2.626971 0.0025,0.05334 -0.0029,0.102567 0,0.156368 0.020745,0.387881 0.082128,0.770858 0.1250262,1.157118 0.04796,0.430233 0.1128166,0.860976 0.1875392,1.282212 0.04841,0.275236 0.09649,0.539865 0.1562827,0.81311 0.024766,0.112294 0.035828,0.232314 0.062513,0.344008 0.114387,0.482142 0.2563507,0.965114 0.4063351,1.43858 0.09763,0.303327 0.2003579,0.607606 0.3125654,0.90693 0.078227,0.211119 0.1645725,0.416783 0.2500523,0.62547 0.054951,0.13333 0.098431,0.273955 0.1562827,0.406555 0.078387,0.179995 0.1661857,0.353755 0.2500523,0.531649 0.1484621,0.312904 0.301007,0.629102 0.468848,0.938204 0.04964,0.09247 0.105094,0.189662 0.1562828,0.281461 0.018584,0.03292 0.043719,0.06095 0.062513,0.09377 0.042109,0.07446 0.081897,0.144919 0.1250262,0.218914 0.1348902,0.229243 0.2616057,0.462668 0.406335,0.688017 0.028636,0.04473 0.064744,0.08056 0.093769,0.125094 0.1846327,0.282772 0.363478,0.569587 0.5626177,0.844383 0.00851,0.01171 0.022705,0.01962 0.031257,0.03122 0.1781093,0.244703 0.3738013,0.482282 0.5626177,0.719289 0.032486,0.04023 0.060953,0.08506 0.093769,0.125094 0.1904908,0.235447 0.3935584,0.461687 0.5938743,0.688017 0.1136807,0.126785 0.2270725,0.251338 0.3438219,0.375281 0.1254052,0.134661 0.2463935,0.275907 0.3750784,0.406554 0.036427,0.03673 0.088348,0.05744 0.1250262,0.09377 0.2116813,0.211438 0.4054223,0.425919 0.6251303,0.625469 0.03895,0.03543 0.08585,0.05874 0.125027,0.09377 0.26572,0.237449 0.535783,0.466781 0.812669,0.688017 0.235009,0.187781 0.476383,0.355636 0.718901,0.531649 0.03566,0.02612 0.058,0.06795 0.09377,0.09377 0.278904,0.201691 0.559377,0.411429 0.843927,0.594196 0.192275,0.123492 0.398625,0.2274 0.593874,0.344008 0.555761,0.331909 1.137689,0.631284 1.71911,0.90693 0.588283,0.2789 1.195928,0.529928 1.81288,0.750564 0.815025,0.291468 1.630581,0.562132 2.500522,0.750563 1.158222,0.250878 2.220499,0.358019 3.281937,0.406555 l 0,-0.03122 c 0.628085,0.03062 1.245922,0.02792 1.875392,0 l 0,0.03122 c 0.08355,-0.004 0.166395,-0.02642 0.250053,-0.03122 0.880949,-0.05024 1.754651,-0.143808 2.625549,-0.312735 0.136631,-0.02682 0.267209,-0.03242 0.406334,-0.06255 0.312368,-0.06765 0.601384,-0.169177 0.906441,-0.250188 0.41191,-0.109382 0.819869,-0.210438 1.219004,-0.344008 0.022,-0.007 0.04056,-0.02382 0.06252,-0.03122 0.159723,-0.05474 0.311467,-0.129417 0.468848,-0.187641 0.25882,-0.09577 0.529021,-0.176413 0.781414,-0.281461 0.14633,-0.06085 0.292935,-0.123383 0.437591,-0.187641 0.130174,-0.05774 0.24671,-0.127476 0.375079,-0.187641 0.398808,-0.187361 0.801183,-0.380395 1.187748,-0.594196 0.396645,-0.219374 0.803197,-0.441021 1.187749,-0.688016 0.105205,-0.06755 0.208057,-0.148692 0.312565,-0.218914 0.282655,-0.189753 0.541935,-0.391684 0.81267,-0.594196 0.180414,-0.135642 0.354221,-0.263598 0.531361,-0.406555 0.0066,-0.005 0.02467,0.005 0.03125,0 0.265249,-0.214571 0.524914,-0.458234 0.781414,-0.688017 0.258752,-0.231243 0.504965,-0.476047 0.750157,-0.719289 0.104794,-0.103958 0.209874,-0.206455 0.312566,-0.312734 0.143595,-0.148932 0.299006,-0.284874 0.437592,-0.437829 0.05478,-0.06015 0.102222,-0.126825 0.156282,-0.18764 0.180172,-0.203803 0.36007,-0.415032 0.531361,-0.62547 0.182499,-0.222617 0.359395,-0.458724 0.531361,-0.688016 0.03993,-0.05364 0.08565,-0.102397 0.125027,-0.156367 0.208668,-0.286045 0.401005,-0.579605 0.593874,-0.875657 0.07602,-0.116598 0.14545,-0.22605 0.218795,-0.344009 0.03726,-0.05984 0.05716,-0.127465 0.09377,-0.18764 0.0398,-0.06555 0.08605,-0.121652 0.125026,-0.187641 0.18266,-0.309222 0.366655,-0.620806 0.531361,-0.938204 0.021,-0.04043 0.04181,-0.08456 0.06252,-0.125094 0.02145,-0.04173 0.04136,-0.08316 0.06252,-0.125094 0.225136,-0.449007 0.4356,-0.913325 0.625131,-1.376032 0.03892,-0.09427 0.08754,-0.186661 0.125026,-0.281462 0.07719,-0.195196 0.147739,-0.396627 0.218796,-0.594196 0.07751,-0.218123 0.148984,-0.436367 0.218796,-0.656742 0.108956,-0.338935 0.221678,-0.687346 0.312565,-1.032025 0.0217,-0.08226 0.04186,-0.167636 0.06252,-0.250188 0.0079,-0.03222 0.02351,-0.06155 0.03125,-0.09377 0.551697,-2.25211 0.705879,-4.607157 0.437591,-6.973983 l -0.03125,0 C 43.567876,19.316376 42.860795,16.912913 41.683446,14.698501 38.977241,9.6085418 34.450484,6.1813098 29.368369,4.7535378 l 0,-0.03122 c -0.549784,-0.153435 -1.101148,-0.270683 -1.656595,-0.375282 -0.02013,-0.004 -0.04238,0.004 -0.06252,0 -0.169284,-0.03202 -0.330008,-0.06615 -0.500105,-0.09377 -0.268251,-0.04263 -0.543843,-0.09357 -0.81267,-0.125094 -0.102024,-0.01221 -0.210328,-0.02061 -0.312565,-0.03122 -0.358098,-0.03623 -0.704515,-0.04583 -1.062722,-0.06255 -0.02099,-0.001 -0.04152,10e-4 -0.06252,0 -0.272015,-0.01181 -0.541019,-0.03052 -0.812671,-0.03122 -0.157869,-0.001 -0.310814,-0.003 -0.468848,0 l 1.3e-5,-5.1e-5 z m 0.18754,3.565176 c 0.127924,-0.002 0.247424,-0.001 0.375078,0 0.267412,0.003 0.546685,0.01561 0.81267,0.03122 0.04087,0.002 0.0842,-0.003 0.125027,0 0.176091,0.01281 0.354986,0.04413 0.531361,0.06255 0.310706,0.03242 0.626501,0.07496 0.937696,0.125093 0.311194,0.05014 0.626507,0.08847 0.937696,0.156368 0.413165,0.09017 0.809922,0.201931 1.187749,0.312734 0.03158,0.01001 0.06224,0.02152 0.09377,0.03122 2.021914,0.623348 3.95122,1.634527 5.68869,3.0335272 0.935109,0.752945 2.730049,2.794467 3.406963,3.87791 1.09542,1.753305 1.422546,2.800711 1.125235,3.627722 -0.176258,0.490308 -0.426314,0.796568 -0.875183,1.032024 -0.428135,0.224579 -0.981252,0.316278 -4.407172,0.875658 -2.833768,0.462677 -2.516435,0.556287 -3.313193,-0.781837 -0.727029,-1.221026 -1.807014,-2.174032 -3.06314,-2.783339 l -0.687651,-0.312734 c -0.427609,-0.156048 -0.843155,-0.267091 -1.281518,-0.344009 -0.05026,-0.009 -0.105796,-0.02272 -0.156282,-0.03122 -0.01025,-0.002 -0.02102,0.002 -0.03125,0 -0.161066,-0.02652 -0.305896,-0.04603 -0.468848,-0.06255 -0.05224,-0.005 -0.104041,0.004 -0.156283,0 -0.651659,-0.05254 -1.312085,-0.02152 -1.969161,0.09377 -0.162534,0.03002 -0.340237,0.05384 -0.500105,0.09377 -0.05191,0.01271 -0.104512,0.01741 -0.156283,0.03122 -0.155534,0.04233 -0.285338,0.104689 -0.437592,0.156368 -0.07064,0.02342 -0.148545,0.03693 -0.218795,0.06255 l -0.687651,0.312734 c -1.258365,0.608907 -2.336112,1.562313 -3.063141,2.783339 -0.796757,1.338124 -0.479425,1.244514 -3.313193,0.781836 -3.425918,-0.559379 -3.979035,-0.651078 -4.4071694,-0.875657 -0.4488689,-0.235456 -0.6989252,-0.541716 -0.8751831,-1.032024 -0.2973112,-0.827011 0.029816,-1.874417 1.1252345,-3.627722 0.676914,-1.083443 2.471854,-3.124965 3.406963,-3.87791 1.737471,-1.3990002 3.66902,-2.4149322 5.68869,-3.0335272 0.0315,-0.01001 0.06222,-0.02182 0.09377,-0.03122 0.378479,-0.112384 0.774583,-0.222607 1.187748,-0.312734 0.497359,-0.108472 1.003129,-0.187381 1.500314,-0.250188 0.303821,-0.03703 0.600157,-0.07406 0.906439,-0.09377 0.306283,-0.01982 0.629448,-0.02882 0.937697,-0.03122 l 3e-6,5.2e-5 z M 9.3329289,23.79923 c 0.5168722,-0.04944 6.7811641,0.845585 6.9702081,1.000751 0.01654,0.01361 0.05742,0.104098 0.09377,0.218915 0.04529,0.143077 0.08211,0.348741 0.125025,0.562922 0.05187,0.23997 0.109507,0.481962 0.187539,0.71929 0.07353,0.237968 0.153013,0.458784 0.250053,0.688016 0.01339,0.03062 0.01741,0.06315 0.03125,0.09377 0.169931,0.376003 0.374226,0.725145 0.593874,1.063298 0.034,0.05254 0.05844,0.104579 0.09377,0.156368 0.02851,0.04183 0.06453,0.08396 0.09377,0.125093 0.116444,0.163703 0.245393,0.3453 0.375079,0.500376 0.0283,0.03373 0.06494,0.06055 0.09377,0.09377 0.135668,0.156528 0.257414,0.291339 0.406335,0.437829 0.1523,0.150233 0.305329,0.301556 0.468848,0.437828 0.03855,0.03242 0.08577,0.06205 0.125026,0.09377 0.02895,0.02312 0.06451,0.03983 0.09377,0.06255 0.174279,0.137093 0.343902,0.282662 0.531362,0.406555 0.229188,0.14669 0.474873,0.285914 0.7189,0.406555 0.221726,0.114236 0.459149,0.192604 0.687644,0.281461 0.103416,0.04023 0.207431,0.08997 0.312566,0.125094 0.06096,0.02692 0.137435,0.06945 0.187539,0.09377 0.0092,0.003 0.022,-0.003 0.03125,0 0.107934,0.05424 0.176749,0.10656 0.187539,0.125094 0.123184,0.211339 0.03692,6.533742 -0.09377,7.036529 -0.166313,0.63983 -0.475894,1.031694 -0.937696,1.219666 -0.11545,0.04704 -0.238288,0.105198 -0.375079,0.125093 -0.410372,0.05964 -0.908453,-0.01171 -1.53157,-0.18764 -0.301944,-0.08526 -0.607465,-0.173 -0.906439,-0.281462 -0.277067,-0.100515 -0.538984,-0.224238 -0.81267,-0.344008 -0.02131,-0.009 -0.04127,-0.02172 -0.06252,-0.03122 -0.28231,-0.125224 -0.566155,-0.230293 -0.843927,-0.375282 -0.01279,-0.007 -0.01848,-0.02462 -0.03125,-0.03122 -0.290025,-0.152425 -0.591139,-0.327196 -0.875184,-0.500376 -0.378726,-0.230912 -0.761549,-0.485713 -1.125235,-0.750562 -0.363686,-0.264849 -0.717617,-0.548151 -1.062722,-0.844384 -0.02815,-0.02442 -0.06576,-0.03793 -0.09377,-0.06255 -0.315212,-0.275227 -0.609646,-0.576973 -0.90644,-0.875658 -0.260533,-0.262196 -0.505854,-0.535581 -0.750156,-0.81311 -0.231614,-0.270132 -0.473809,-0.530037 -0.687645,-0.81311 -0.08533,-0.112965 -0.167651,-0.229192 -0.250051,-0.344008 -0.03072,-0.04203 -0.06345,-0.08266 -0.09377,-0.125094 C 10.333988,33.189106 10.152644,32.871178 9.9580598,32.555701 9.2450806,31.392128 8.6915318,30.176876 8.3014632,28.927979 8.1813371,28.54347 8.0750949,28.15712 7.9888978,27.770961 c -0.00761,-0.03222 -0.023845,-0.06155 -0.031256,-0.09377 -0.00691,-0.03222 -0.024556,-0.06165 -0.031257,-0.09377 C 7.9006798,27.468415 7.8874168,27.35567 7.8638718,27.239413 7.8148418,26.96893 7.7701928,26.695555 7.7388456,26.426303 7.5390898,24.710425 8.0174179,23.925216 9.332929,23.799331 l 2e-7,-1.01e-4 z m 29.3186321,0 c 1.315512,0.125885 1.79384,0.911094 1.594084,2.626972 -0.01901,0.132329 -0.04034,0.275036 -0.06252,0.406555 -0.04203,0.281881 -0.09529,0.561771 -0.156282,0.844383 -0.0045,0.02012 0.0046,0.04253 0,0.06255 -0.03252,0.147521 -0.08749,0.290378 -0.125027,0.437829 -0.128827,0.500906 -0.293266,0.984749 -0.468848,1.469853 -0.06242,0.169087 -0.118889,0.332419 -0.187539,0.500375 -0.167875,0.410728 -0.358864,0.818424 -0.562618,1.219665 -0.203753,0.401242 -0.418728,0.800531 -0.656387,1.188392 -0.23766,0.387861 -0.480564,0.78655 -0.750157,1.157118 -0.539187,0.741137 -1.157797,1.446796 -1.812879,2.095323 -0.314424,0.311273 -0.634618,0.594176 -0.968953,0.875657 -0.01148,0.01001 -0.01975,0.02162 -0.03125,0.03122 -0.917182,0.723843 -2.416555,1.686615 -3.500733,2.220415 -0.04915,0.02422 -0.109374,0.04033 -0.156282,0.06255 -0.05095,0.02322 -0.104971,0.03983 -0.156283,0.06255 -0.145236,0.06435 -0.289451,0.126916 -0.437592,0.187641 -1.71701,0.693941 -2.742207,0.83949 -3.469476,0.437829 -0.455934,-0.251799 -0.713936,-0.551284 -0.875183,-1.032025 -0.153797,-0.458534 -0.178237,-0.998998 -0.187539,-4.472105 -0.0058,-2.154596 -0.07436,-2.51868 0.500105,-2.814612 0.487435,-0.144938 0.950436,-0.372629 1.406544,-0.625469 0.179591,-0.09207 0.361446,-0.174691 0.531361,-0.281461 0.01226,-0.008 0.01904,-0.02312 0.03125,-0.03122 0.06277,-0.03993 0.126163,-0.08316 0.187539,-0.125093 0.11581,-0.08216 0.233386,-0.162763 0.343822,-0.250188 0.02408,-0.01861 0.03868,-0.04363 0.06252,-0.06255 0.134167,-0.108592 0.280555,-0.228011 0.406335,-0.344008 0.0628,-0.05814 0.126806,-0.127336 0.187539,-0.187641 0.09917,-0.09757 0.187979,-0.179405 0.281309,-0.281461 0.06683,-0.07366 0.123624,-0.142637 0.187539,-0.218915 0.0098,-0.01171 0.02155,-0.01951 0.03125,-0.03122 0.05966,-0.07135 0.130661,-0.145709 0.18754,-0.218914 0.09891,-0.129527 0.19066,-0.270743 0.281308,-0.406555 0.03013,-0.04413 0.06461,-0.08036 0.09377,-0.125094 0.09545,-0.149392 0.16478,-0.313155 0.250052,-0.469102 0.0068,-0.01251 0.0245,-0.01871 0.03125,-0.03122 0.01087,-0.01992 0.02057,-0.04253 0.03125,-0.06255 0.107148,-0.202872 0.223191,-0.41321 0.312565,-0.625469 0.08004,-0.189072 0.154692,-0.367806 0.218796,-0.562922 0.01374,-0.04123 0.01818,-0.08356 0.03125,-0.125094 0.05102,-0.165104 0.08568,-0.331679 0.125026,-0.500376 0.01735,-0.07446 0.04746,-0.143838 0.06252,-0.218914 0.07734,-0.38605 0.181643,-0.751364 0.218796,-0.781837 0.189043,-0.155166 6.453335,-1.050208 6.970207,-1.000751 l 2.1e-5,-1.11e-4 z"
       id="path2818"
       sodipodi:nodetypes="csssccsccssssssssssssssssssssssssssssssssssssccccssssssssssssssssssssssssssssssssssssssccsccsssssssscccssssssssssssssccsssssssssccssssssssssscccssssssssssssssssssssssssssssssssssssssssssssssscccsssssssssssssssssssscssssssssssssssssssssssscc" />
    <path
       style="fill:url(#linearGradient2995);fill-opacity:1;stroke:none"
       d="m 24,29.657837 c -1.905513,0 -3.753579,-0.153378 -5.53125,-0.375 -0.07391,-0.07937 -0.143296,-0.162945 -0.21875,-0.25 -0.02883,-0.03322 -0.06545,-0.06002 -0.09375,-0.09375 -0.129686,-0.155076 -0.258556,-0.336297 -0.375,-0.5 -0.02924,-0.04113 -0.06524,-0.08317 -0.09375,-0.125 -0.03533,-0.05179 -0.05975,-0.10371 -0.09375,-0.15625 C 17.374102,27.819684 17.169931,27.47134 17,27.095337 c -0.01384,-0.03062 -0.01786,-0.06313 -0.03125,-0.09375 -0.09704,-0.229232 -0.17647,-0.449532 -0.25,-0.6875 -0.07803,-0.237328 -0.13563,-0.47878 -0.1875,-0.71875 -0.04292,-0.214181 -0.07971,-0.419423 -0.125,-0.5625 -0.03635,-0.114817 -0.07721,-0.20514 -0.09375,-0.21875 -0.189044,-0.155166 -6.451878,-1.04944 -6.96875,-1 -1.273994,0.121912 -1.776849,0.863651 -1.625,2.46875 C 6.323712,25.601865 5.057381,24.83889 4,24.001587 4.002989,23.417045 4.045853,22.835969 4.09375,22.282837 4.1091,22.105614 4.10499,21.927369 4.125,21.751587 l 0.03125,0 C 4.428521,19.301659 5.13515,16.903499 6.3125,14.689087 9.017779,9.6008688 13.548536,6.1747948 18.625,4.7515868 l 0,-0.03125 c 0.257106,-0.07175 0.522875,-0.12675 0.78125,-0.1875 0.538462,-0.126535 1.082706,-0.23254 1.625,-0.3125 0.553536,-0.08161 1.101115,-0.12142 1.65625,-0.15625 0.314159,-0.01972 0.623436,-0.0575 0.9375,-0.0625 0.158034,-0.003 0.310881,-0.001 0.46875,0 0.271652,7e-4 0.540485,0.01944 0.8125,0.03125 0.021,10e-4 0.04151,-0.001 0.0625,0 0.358207,0.01672 0.704402,0.02627 1.0625,0.0625 0.102237,0.01061 0.210476,0.01904 0.3125,0.03125 0.268827,0.03152 0.544249,0.08237 0.8125,0.125 0.170097,0.02762 0.330716,0.06173 0.5,0.09375 0.02014,0.004 0.04237,-0.004 0.0625,0 0.555447,0.104599 1.106466,0.221565 1.65625,0.375 l 0,0.03125 c 5.082115,1.427772 9.606295,4.847541 12.3125,9.9375002 1.177349,2.214412 1.883958,4.612573 2.15625,7.0625 l 0.03125,0 c 0.08503,0.750149 0.12405,1.50512 0.125,2.25 -1.063729,0.84233 -2.344733,1.597232 -3.75,2.28125 0.152423,-1.606433 -0.319245,-2.346789 -1.59375,-2.46875 -0.516872,-0.04946 -6.779707,0.844834 -6.96875,1 -0.03715,0.03047 -0.14141,0.3952 -0.21875,0.78125 -0.01506,0.07508 -0.04515,0.14429 -0.0625,0.21875 -0.03935,0.168697 -0.07398,0.334896 -0.125,0.5 -0.01307,0.04153 -0.01751,0.08377 -0.03125,0.125 -0.0641,0.195116 -0.13871,0.373428 -0.21875,0.5625 -0.08937,0.212259 -0.205352,0.422128 -0.3125,0.625 -0.01068,0.02002 -0.02038,0.04258 -0.03125,0.0625 -0.0068,0.01251 -0.02445,0.01874 -0.03125,0.03125 -0.08527,0.155947 -0.15455,0.319358 -0.25,0.46875 -0.02916,0.04473 -0.06362,0.08087 -0.09375,0.125 -0.09065,0.135812 -0.18234,0.276723 -0.28125,0.40625 -0.05688,0.07321 -0.12784,0.1474 -0.1875,0.21875 -0.0097,0.01171 -0.02145,0.01954 -0.03125,0.03125 -0.06392,0.07628 -0.12067,0.14509 -0.1875,0.21875 -0.03111,0.03402 -0.06309,0.06289 -0.09375,0.09375 -1.777671,0.221622 -3.625737,0.375 -5.53125,0.375 z m -7.6875,-8.625 c 0.668897,0.02277 0.752027,-0.257423 1.25,-1.09375 0.727029,-1.221026 1.804135,-2.172343 3.0625,-2.78125 l 0.6875,-0.3125 c 0.07025,-0.02562 0.14811,-0.03908 0.21875,-0.0625 0.152254,-0.05168 0.281966,-0.11392 0.4375,-0.15625 0.05177,-0.01381 0.10434,-0.01854 0.15625,-0.03125 0.159868,-0.03993 0.337466,-0.06373 0.5,-0.09375 0.657076,-0.11529 1.317091,-0.14629 1.96875,-0.09375 0.05224,0.004 0.10401,-0.005 0.15625,0 0.162952,0.01652 0.307684,0.03598 0.46875,0.0625 0.01023,0.002 0.021,-0.002 0.03125,0 0.05049,0.0085 0.10599,0.02225 0.15625,0.03125 0.438363,0.07692 0.853641,0.187702 1.28125,0.34375 l 0.6875,0.3125 c 1.256126,0.609307 2.335471,1.560224 3.0625,2.78125 0.796758,1.338124 0.478732,1.243927 3.3125,0.78125 3.42592,-0.55938 3.978115,-0.650421 4.40625,-0.875 0.448869,-0.235456 0.698742,-0.540942 0.875,-1.03125 0.297311,-0.827011 -0.02958,-1.871695 -1.125,-3.625 -0.676914,-1.083443 -2.471141,-3.122055 -3.40625,-3.875 -1.73747,-1.3990002 -3.665586,-2.4079022 -5.6875,-3.0312502 -0.03153,-0.0097 -0.06217,-0.02124 -0.09375,-0.03125 -0.377827,-0.110803 -0.774335,-0.22233 -1.1875,-0.3125 -0.311189,-0.0679 -0.626306,-0.10611 -0.9375,-0.15625 -0.311195,-0.05013 -0.626794,-0.09258 -0.9375,-0.125 -0.176375,-0.01842 -0.355159,-0.04969 -0.53125,-0.0625 -0.04083,-0.003 -0.08413,0.002 -0.125,0 -0.265985,-0.01561 -0.545088,-0.02825 -0.8125,-0.03125 -0.127654,-0.001 -0.247076,-0.002 -0.375,0 -0.308249,0.0024 -0.631217,0.01143 -0.9375,0.03125 -0.306282,0.01971 -0.602429,0.05672 -0.90625,0.09375 -0.497185,0.06281 -1.002641,0.141528 -1.5,0.25 -0.413165,0.090127 -0.809021,0.200116 -1.1875,0.3125 -0.03155,0.0094 -0.06225,0.02124 -0.09375,0.03125 -2.01967,0.618595 -3.950029,1.63225 -5.6875,3.0312502 -0.935109,0.752945 -2.729336,2.791557 -3.40625,3.875 -1.095415,1.753305 -1.422311,2.797989 -1.125,3.625 0.176258,0.490308 0.426131,0.795794 0.875,1.03125 0.428134,0.224579 0.980332,0.315621 4.40625,0.875 1.062663,0.173504 1.661162,0.298835 2.0625,0.3125 z"
       id="path2981" />
    <g
       transform="matrix(0.1337942,0,0,-0.1337942,31.527762,89.04701)"
       inkscape:label="Calque 1"
       id="g2983" />
    <g
       transform="matrix(0.1672428,0,0,-0.1672428,38.442916,104.62323)"
       inkscape:label="Calque 1"
       id="g2985" />
  </g>
</svg>
