<?xml version="1.0" encoding="UTF-8" standalone="no"?>
<!-- Created with Inkscape (http://www.inkscape.org/) -->

<svg
   xmlns:dc="http://purl.org/dc/elements/1.1/"
   xmlns:cc="http://creativecommons.org/ns#"
   xmlns:rdf="http://www.w3.org/1999/02/22-rdf-syntax-ns#"
   xmlns:svg="http://www.w3.org/2000/svg"
   xmlns="http://www.w3.org/2000/svg"
   xmlns:xlink="http://www.w3.org/1999/xlink"
   xmlns:sodipodi="http://sodipodi.sourceforge.net/DTD/sodipodi-0.dtd"
   xmlns:inkscape="http://www.inkscape.org/namespaces/inkscape"
   width="48px"
   height="48px"
   id="svg3624"
   version="1.1"
   inkscape:version="0.47 r22583"
   sodipodi:docname="Nouveau document 3">
  <defs
     id="defs3626">
    <linearGradient
       gradientUnits="userSpaceOnUse"
       y2="21.132059"
       x2="22.892584"
       y1="0.90414524"
       x1="22.892584"
       id="linearGradient3178"
       xlink:href="#linearGradient3172"
       inkscape:collect="always" />
    <linearGradient
       id="linearGradient3172">
      <stop
         id="stop3174"
         offset="0"
         style="stop-color:#4d4d4d;stop-opacity:1;" />
      <stop
         id="stop3176"
         offset="1"
         style="stop-color:#4d4d4d;stop-opacity:0;" />
    </linearGradient>
    <linearGradient
       inkscape:collect="always"
       xlink:href="#linearGradient3172"
       id="linearGradient3751"
       gradientUnits="userSpaceOnUse"
       x1="22.892584"
       y1="0.90414524"
       x2="22.892584"
       y2="21.132059" />
    <linearGradient
       inkscape:collect="always"
       xlink:href="#linearGradient3172"
       id="linearGradient3756"
       gradientUnits="userSpaceOnUse"
       x1="22.892584"
       y1="0.90414524"
       x2="22.892584"
       y2="21.132059"
       gradientTransform="matrix(0.644962,0,0,-1.1832362,59.235153,43.983663)" />
    <linearGradient
       inkscape:collect="always"
       xlink:href="#linearGradient3172"
       id="linearGradient3759"
       gradientUnits="userSpaceOnUse"
       gradientTransform="matrix(0.644962,0,0,1.1832362,9.235153,4.017337)"
       x1="22.892584"
       y1="0.90414524"
       x2="22.892584"
       y2="21.132059" />
  </defs>
  <sodipodi:namedview
     id="base"
     pagecolor="#ffffff"
     bordercolor="#666666"
     borderopacity="1.0"
     inkscape:pageopacity="0.0"
     inkscape:pageshadow="2"
     inkscape:zoom="7"
     inkscape:cx="24"
     inkscape:cy="19.380895"
     inkscape:current-layer="layer1"
     showgrid="true"
     inkscape:grid-bbox="true"
     inkscape:document-units="px"
     inkscape:window-width="1364"
     inkscape:window-height="719"
     inkscape:window-x="0"
     inkscape:window-y="25"
     inkscape:window-maximized="1" />
  <metadata
     id="metadata3629">
    <rdf:RDF>
      <cc:Work
         rdf:about="">
        <dc:format>image/svg+xml</dc:format>
        <dc:type
           rdf:resource="http://purl.org/dc/dcmitype/StillImage" />
        <dc:title></dc:title>
      </cc:Work>
    </rdf:RDF>
  </metadata>
  <g
     id="layer1"
     inkscape:label="Layer 1"
     inkscape:groupmode="layer">
    <path
       style="fill:#000000;fill-opacity:1;stroke:none"
       d="m 15.625,4.313 c -1.843155,0 -3.34375,1.470971 -3.34375,3.34375 l 0,6.15625 20.125,0 c 2.415645,0 4.375,2.01026 4.375,4.4375 l 0,14.875 3.90625,0 c 1.843155,0 3.312496,-1.502224 3.3125,-3.375 L 44,7.65675 C 44,5.783971 42.530655,4.313 40.6875,4.313 l -25.0625,0 z m 0.28125,3.625 24.78125,0 0,3.5625 -24.78125,0 0,-3.5625 z M 7.3125,14.84425 C 5.4693455,14.84425 4,16.34647 4,18.21925 l 0,22.125 c 0,1.872775 1.4693455,3.343746 3.3125,3.34375 l 25.09375,0 c 1.843155,0 3.312496,-1.470974 3.3125,-3.34375 l 0,-22.125 c 0,-1.87278 -1.469345,-3.375 -3.3125,-3.375 l -25.09375,0 z m 0.2812504,3.65625 24.8124996,0 0,3.5625 -24.8124996,0 0,-3.5625 z"
       id="path2824" />
    <path
       style="fill:url(#linearGradient3759);fill-opacity:1;stroke:none"
       d="m 24,29.65725 c -8.349627,0 -15.700208,-2.273387 -20,-5.6875 l 0,-5.75 c 0,-1.87278 1.469345,-3.375 3.3125,-3.375 l 25.09375,0 c 1.843155,0 3.3125,1.50222 3.3125,3.375 l 0,9.8125 c -3.468358,1.026899 -7.460464,1.625 -11.71875,1.625 z m 12.78125,-1.96875 0,-9.4375 c 0,-2.42724 -1.959355,-4.4375 -4.375,-4.4375 l -20.125,0 0,-6.15625 c 0,-1.872779 1.500595,-3.34375 3.34375,-3.34375 l 25.0625,0 C 42.530655,4.3135 44,5.784471 44,7.65725 l 0,16.3125 c -1.87747,1.490745 -4.347153,2.76187 -7.21875,3.71875 z m -29.1875,-5.625 24.8125,0 0,-3.5625 -24.8125,0 0,3.5625 z m 8.3125,-10.5625 24.78125,0 0,-3.5625 -24.78125,0 0,3.5625 z"
       id="path3745" />
    <g
       transform="matrix(0.1337942,0,0,-0.1337942,31.527762,89.04701)"
       inkscape:label="Calque 1"
       id="g3747" />
    <g
       transform="matrix(0.1672428,0,0,-0.1672428,38.442916,104.62323)"
       inkscape:label="Calque 1"
       id="g3749" />
  </g>
</svg>
