<?xml version="1.0" encoding="UTF-8" standalone="no"?>
<!-- Created with Inkscape (http://www.inkscape.org/) -->

<svg
   xmlns:dc="http://purl.org/dc/elements/1.1/"
   xmlns:cc="http://creativecommons.org/ns#"
   xmlns:rdf="http://www.w3.org/1999/02/22-rdf-syntax-ns#"
   xmlns:svg="http://www.w3.org/2000/svg"
   xmlns="http://www.w3.org/2000/svg"
   xmlns:xlink="http://www.w3.org/1999/xlink"
   xmlns:sodipodi="http://sodipodi.sourceforge.net/DTD/sodipodi-0.dtd"
   xmlns:inkscape="http://www.inkscape.org/namespaces/inkscape"
   width="48px"
   height="48px"
   id="svg3047"
   version="1.1"
   inkscape:version="0.47 r22583"
   sodipodi:docname="Nouveau document 4">
  <defs
     id="defs3049">
    <linearGradient
       inkscape:collect="always"
       xlink:href="#linearGradient3172-8"
       id="linearGradient3027"
       gradientUnits="userSpaceOnUse"
       gradientTransform="matrix(0.644962,0,0,1.1832362,9.235153,4.016337)"
       x1="22.892584"
       y1="0.90414524"
       x2="22.892584"
       y2="21.132059" />
    <linearGradient
       id="linearGradient3172-8">
      <stop
         id="stop3174-86"
         offset="0"
         style="stop-color:#4d4d4d;stop-opacity:1;" />
      <stop
         id="stop3176-8"
         offset="1"
         style="stop-color:#4d4d4d;stop-opacity:0;" />
    </linearGradient>
  </defs>
  <sodipodi:namedview
     id="base"
     pagecolor="#ffffff"
     bordercolor="#666666"
     borderopacity="1.0"
     inkscape:pageopacity="0.0"
     inkscape:pageshadow="2"
     inkscape:zoom="7"
     inkscape:cx="24"
     inkscape:cy="24"
     inkscape:current-layer="layer1"
     showgrid="true"
     inkscape:grid-bbox="true"
     inkscape:document-units="px"
     inkscape:window-width="1366"
     inkscape:window-height="744"
     inkscape:window-x="0"
     inkscape:window-y="24"
     inkscape:window-maximized="1" />
  <metadata
     id="metadata3052">
    <rdf:RDF>
      <cc:Work
         rdf:about="">
        <dc:format>image/svg+xml</dc:format>
        <dc:type
           rdf:resource="http://purl.org/dc/dcmitype/StillImage" />
        <dc:title></dc:title>
      </cc:Work>
    </rdf:RDF>
  </metadata>
  <g
     id="layer1"
     inkscape:label="Layer 1"
     inkscape:groupmode="layer">
    <path
       style="fill:#000000;fill-opacity:1;stroke:none"
       d="M 9.5625,7 C 9.23957,7 9,7.252197 9,7.5625 l 0,32.875 c 0,0.310303 0.225071,0.53125 0.5625,0.53125 L 30.15625,41 c 0.01018,-0.0098 0.02202,-0.02239 0.03125,-0.03125 0.0055,-0.0053 -0.005,-0.02646 0,-0.03125 0.01789,-0.02132 0.04763,0.0137 0.0625,0 L 39,32.625 39,7.5625 C 38.999998,7.238267 38.791681,7 38.46875,7 L 9.5625,7 z M 22,14 c 4.418222,0 8,3.564782 8,7.96875 0,1.961273 -0.693881,3.767486 -1.875,5.15625 L 30,27.71875 33.75,31.1875 c 0.266794,0.24821 0.500378,1.502045 -0.25,2.25 -0.884327,0.881477 -2.008643,0.507764 -2.25,0.25 l -3.5,-3.71875 -0.5625,-1.90625 c -1.398864,1.184111 -3.210793,1.90625 -5.1875,1.90625 -4.418226,0 -8,-3.596033 -8,-8 C 14.000001,17.564782 17.581775,14 22,14 z m 0,2 c -3.313669,0 -6.03125,2.665774 -6.03125,5.96875 0,3.302976 2.717582,5.999999 6.03125,6 3.313666,-1e-6 6,-2.697024 6,-6 C 28,18.665775 25.313667,16 22,16 z"
       id="rect3565" />
    <path
       style="fill:url(#linearGradient3027);fill-opacity:1;stroke:none"
       d="m 24.28125,29.65625 c 1.086886,-0.321279 2.064434,-0.881169 2.90625,-1.59375 L 27.59375,29.5 c -1.084625,0.08629 -2.185563,0.149299 -3.3125,0.15625 z m -5.4375,-0.3125 C 15.168809,28.919249 11.833182,28.044746 9,26.84375 L 9,7.5625 C 9,7.252197 9.23957,7 9.5625,7 L 38.46875,7 C 38.791681,7 38.999998,7.238267 39,7.5625 l 0,19.28125 C 36.760762,27.792971 34.199222,28.521116 31.40625,29 L 30,27.71875 28.125,27.125 C 29.306119,25.736236 30,23.930023 30,21.96875 30,17.564782 26.418222,14 22,14 c -4.418225,0 -7.999999,3.564782 -8,7.96875 0,3.292966 1.986324,6.151028 4.84375,7.375 z M 22,27.96875 c -3.313668,-1e-6 -6.03125,-2.697024 -6.03125,-6 C 15.96875,18.665774 18.686331,16 22,16 c 3.313667,0 6,2.665775 6,5.96875 0,3.302976 -2.686334,5.999999 -6,6 z"
       id="path3013" />
  </g>
</svg>
