<?xml version="1.0" encoding="UTF-8" standalone="no"?>
<!-- Created with Inkscape (http://www.inkscape.org/) -->

<svg
   xmlns:dc="http://purl.org/dc/elements/1.1/"
   xmlns:cc="http://creativecommons.org/ns#"
   xmlns:rdf="http://www.w3.org/1999/02/22-rdf-syntax-ns#"
   xmlns:svg="http://www.w3.org/2000/svg"
   xmlns="http://www.w3.org/2000/svg"
   xmlns:xlink="http://www.w3.org/1999/xlink"
   xmlns:sodipodi="http://sodipodi.sourceforge.net/DTD/sodipodi-0.dtd"
   xmlns:inkscape="http://www.inkscape.org/namespaces/inkscape"
   width="48px"
   height="48px"
   id="svg3840"
   version="1.1"
   inkscape:version="0.47 r22583"
   sodipodi:docname="Nouveau document 5">
  <defs
     id="defs3842">
    <linearGradient
       inkscape:collect="always"
       xlink:href="#linearGradient3172"
       id="linearGradient3820"
       gradientUnits="userSpaceOnUse"
       gradientTransform="matrix(0.644962,0,0,1.1832362,9.2351532,4.015396)"
       x1="22.892584"
       y1="0.90414524"
       x2="22.892584"
       y2="21.132059" />
    <linearGradient
       id="linearGradient3172">
      <stop
         id="stop3174"
         offset="0"
         style="stop-color:#4d4d4d;stop-opacity:1;" />
      <stop
         id="stop3176"
         offset="1"
         style="stop-color:#4d4d4d;stop-opacity:0;" />
    </linearGradient>
  </defs>
  <sodipodi:namedview
     id="base"
     pagecolor="#ffffff"
     bordercolor="#666666"
     borderopacity="1.0"
     inkscape:pageopacity="0.0"
     inkscape:pageshadow="2"
     inkscape:zoom="7"
     inkscape:cx="24"
     inkscape:cy="24"
     inkscape:current-layer="layer1"
     showgrid="true"
     inkscape:grid-bbox="true"
     inkscape:document-units="px"
     inkscape:window-width="596"
     inkscape:window-height="502"
     inkscape:window-x="0"
     inkscape:window-y="25"
     inkscape:window-maximized="0" />
  <metadata
     id="metadata3845">
    <rdf:RDF>
      <cc:Work
         rdf:about="">
        <dc:format>image/svg+xml</dc:format>
        <dc:type
           rdf:resource="http://purl.org/dc/dcmitype/StillImage" />
        <dc:title></dc:title>
      </cc:Work>
    </rdf:RDF>
  </metadata>
  <g
     id="layer1"
     inkscape:label="Layer 1"
     inkscape:groupmode="layer">
    <path
       style="fill:#000000;fill-opacity:1;fill-rule:evenodd;stroke:none"
       d="m 43.254649,4.002001 c -0.131583,-0.01356 -0.346922,0.01897 -0.514628,0.114361 -0.01255,0.01125 -0.01735,0.01604 -0.02859,0.02859 -4.930145,3.954067 -9.398073,8.442545 -13.837764,12.922871 -4.439691,4.480326 -8.851378,8.952355 -12.236701,14.352392 -0.01417,0.02261 -0.01876,0.03237 -0.02859,0.05718 -0.188594,-0.06813 -0.310845,-0.251504 -0.514628,-0.285904 -0.843349,-0.142348 -1.826823,0.05149 -2.74468,0.714761 -1.222017,0.883071 -1.533295,2.501005 -2.144282,3.773935 -0.305493,0.636465 -0.665828,1.191116 -1.172207,1.601064 -0.5063798,0.409947 -1.1963898,0.699116 -2.2014628,0.743351 -0.138167,0.0062 -0.260104,0.08944 -0.343085,0.200133 -0.08294,0.110697 -0.118497,0.237234 -0.08577,0.371675 0.152489,0.61784 0.660279,1.067758 1.257979,1.372341 0.5977,0.304582 1.331785,0.481828 2.1442808,0.571808 1.624993,0.179961 3.557947,-0.01926 5.174867,-0.628989 2.919313,-1.100845 3.924955,-3.702025 3.230717,-5.946808 -0.08944,-0.28919 -0.288741,-0.559644 -0.457447,-0.829122 5.076771,-3.809204 9.282624,-8.447581 13.437499,-13.123004 4.154875,-4.675422 8.258769,-9.387891 11.636301,-14.781248 0.0096,-0.01163 0.01942,-0.04495 0.02859,-0.05718 0.08197,-0.109361 0.129321,-0.221739 0.142953,-0.371675 C 44.013161,4.63583 43.939921,4.491266 43.855048,4.373677 43.685299,4.1385 43.479036,4.02513 43.25465,4.002002 z M 4.7433512,11.978728 C 4.3159842,11.978728 4,12.186116 4,12.636308 L 4,42.884974 C 4,43.55101 4.4494372,44 5.0578452,44 l 34.6801818,0 c 0.611948,0 0.857712,-0.420136 0.857712,-1.000665 l 0,-26.47473 c 0,-0.497333 -0.370695,-0.771941 -0.829122,-0.771941 l -2.687499,0 c -1.38415,1.638045 -2.784745,3.264663 -4.202792,4.860371 -3.987019,4.486537 -8.096921,8.970428 -12.980052,12.751328 0.06413,0.126245 0.12148,0.181202 0.171543,0.343085 0.826866,2.67363 -0.474325,5.817583 -3.773936,7.061834 -1.780597,0.67145 -3.826415,0.883 -5.603722,0.68617 -0.8832198,-0.09781 -1.7190038,-0.280597 -2.4587768,-0.657579 -0.73567,-0.374892 -1.474474,-0.996477 -1.715425,-1.972739 -0.09995,-0.41061 0.02044,-0.86561 0.228723,-1.143617 0.20899,-0.27879 0.548984,-0.550199 1.029255,-0.571809 0.848476,-0.03734 1.33283,-0.228037 1.686835,-0.514627 0.357684,-0.289569 0.6411188,-0.716187 0.9148938,-1.286569 0.532576,-1.109569 0.837963,-2.995016 2.430186,-4.145611 1.100737,-0.795427 2.337997,-1.042175 3.43085,-0.857713 0.04212,0.0071 0.0474,0.01848 0.08577,0.02859 3.394455,-5.220694 7.627949,-9.590237 11.893615,-13.894945 0.22774,-0.229824 0.458001,-0.456228 0.68617,-0.68617 l -6.690159,0 c -0.309753,0 -0.64732,-0.178929 -0.829122,-0.428857 l -2.401593,-2.916222 c -0.200243,-0.275282 -0.573716,-0.428856 -0.914894,-0.428856 l -13.3231358,0 z"
       id="path895" />
    <path
       style="fill:url(#linearGradient3820);fill-opacity:1;stroke:none"
       d="m 24.25,29.655309 c 3.078025,-2.86069 5.876743,-5.938675 8.625,-9.03125 1.418047,-1.595708 2.8346,-3.236955 4.21875,-4.875 l 2.6875,0 c 0.458427,0 0.8125,0.283917 0.8125,0.78125 l 0,9.59375 C 36.338285,28.275504 30.591068,29.620543 24.25,29.655309 z m -1.3125,-0.03125 c -1.66317,-0.0388 -3.285091,-0.197572 -4.84375,-0.40625 3.143433,-4.441681 6.959492,-8.299513 10.78125,-12.15625 4.439691,-4.480326 8.913605,-8.952183 13.84375,-12.90625 0.01124,-0.01255 0.0187,-0.02 0.03125,-0.03125 0.167706,-0.09539 0.368417,-0.13856 0.5,-0.125 0.224386,0.02313 0.424001,0.139823 0.59375,0.375 0.08487,0.117589 0.17141,0.270797 0.15625,0.4375 -0.01363,0.149936 -0.07428,0.265639 -0.15625,0.375 -0.0092,0.01223 -0.02165,0.01962 -0.03125,0.03125 -3.377532,5.393357 -7.470125,10.105828 -11.625,14.78125 -2.954514,3.324674 -5.949105,6.622617 -9.25,9.625 z m -5.78125,-0.53125 C 11.713487,28.237813 7.0729972,26.407825 4,23.967809 l 0,-11.34375 c 0,-0.450192 0.3226332,-0.65625 0.7500002,-0.65625 l 13.3124998,0 c 0.341178,0 0.706007,0.162218 0.90625,0.4375 l 2.40625,2.90625 c 0.181802,0.249928 0.533997,0.4375 0.84375,0.4375 l 6.6875,0 c -0.228169,0.229942 -0.45976,0.457676 -0.6875,0.6875 -3.922047,3.957944 -7.82201,7.977497 -11.0625,12.65625 z"
       id="path3806" />
  </g>
</svg>
