<?xml version="1.0" encoding="UTF-8" standalone="no"?>
<!-- Created with Inkscape (http://www.inkscape.org/) -->

<svg
   xmlns:dc="http://purl.org/dc/elements/1.1/"
   xmlns:cc="http://creativecommons.org/ns#"
   xmlns:rdf="http://www.w3.org/1999/02/22-rdf-syntax-ns#"
   xmlns:svg="http://www.w3.org/2000/svg"
   xmlns="http://www.w3.org/2000/svg"
   xmlns:xlink="http://www.w3.org/1999/xlink"
   xmlns:sodipodi="http://sodipodi.sourceforge.net/DTD/sodipodi-0.dtd"
   xmlns:inkscape="http://www.inkscape.org/namespaces/inkscape"
   width="48px"
   height="48px"
   id="svg2824"
   version="1.1"
   inkscape:version="0.47 r22583"
   sodipodi:docname="Nouveau document 1">
  <defs
     id="defs2826">
    <linearGradient
       id="linearGradient4321">
      <stop
         style="stop-color:#000000;stop-opacity:1.0;"
         offset="0"
         id="stop1" />
      <stop
         style="stop-color:#000000;stop-opacity:1.0;"
         offset="1"
         id="stop2" />
    </linearGradient>
    <linearGradient
       gradientUnits="userSpaceOnUse"
       gradientTransform="scale(1.2247449,0.81649659)"
       y2="45.31556"
       x2="35.92585"
       y1="12.655697"
       x1="3.2659863"
       id="linearGradient2852"
       xlink:href="#linearGradient4321"
       inkscape:collect="always" />
    <linearGradient
       gradientUnits="userSpaceOnUse"
       y2="21.132059"
       x2="22.892584"
       y1="0.90414524"
       x1="22.892584"
       id="linearGradient3178"
       xlink:href="#linearGradient3172"
       inkscape:collect="always" />
    <linearGradient
       id="linearGradient3172">
      <stop
         id="stop3174"
         offset="0"
         style="stop-color:#4d4d4d;stop-opacity:1;" />
      <stop
         id="stop3176"
         offset="1"
         style="stop-color:#4d4d4d;stop-opacity:0;" />
    </linearGradient>
    <linearGradient
       inkscape:collect="always"
       xlink:href="#linearGradient4321"
       id="linearGradient2985"
       gradientUnits="userSpaceOnUse"
       gradientTransform="scale(1.2247449,0.81649659)"
       x1="3.2659863"
       y1="12.655697"
       x2="35.92585"
       y2="45.31556" />
    <linearGradient
       inkscape:collect="always"
       xlink:href="#linearGradient3172"
       id="linearGradient2987"
       gradientUnits="userSpaceOnUse"
       x1="22.892584"
       y1="0.90414524"
       x2="22.892584"
       y2="21.132059" />
    <linearGradient
       inkscape:collect="always"
       xlink:href="#linearGradient3172"
       id="linearGradient2992"
       gradientUnits="userSpaceOnUse"
       x1="22.892584"
       y1="0.90414524"
       x2="22.892584"
       y2="21.132059"
       gradientTransform="matrix(0.644962,0,0,-1.1832362,59.235153,43.983663)" />
    <linearGradient
       inkscape:collect="always"
       xlink:href="#linearGradient4321"
       id="linearGradient2995"
       gradientUnits="userSpaceOnUse"
       gradientTransform="matrix(1.2247449,0,0,-0.81649659,50,47.333333)"
       x1="3.2659863"
       y1="12.655697"
       x2="35.92585"
       y2="45.31556" />
    <linearGradient
       inkscape:collect="always"
       xlink:href="#linearGradient3172"
       id="linearGradient2998"
       gradientUnits="userSpaceOnUse"
       gradientTransform="matrix(0.644962,0,0,1.1832362,9.235153,3.34967)"
       x1="22.892584"
       y1="0.90414524"
       x2="22.892584"
       y2="21.132059" />
  </defs>
  <sodipodi:namedview
     id="base"
     pagecolor="#ffffff"
     bordercolor="#666666"
     borderopacity="1.0"
     inkscape:pageopacity="0.0"
     inkscape:pageshadow="2"
     inkscape:zoom="7"
     inkscape:cx="24"
     inkscape:cy="24"
     inkscape:current-layer="layer1"
     showgrid="true"
     inkscape:grid-bbox="true"
     inkscape:document-units="px"
     inkscape:window-width="1364"
     inkscape:window-height="721"
     inkscape:window-x="0"
     inkscape:window-y="23"
     inkscape:window-maximized="1" />
  <metadata
     id="metadata2829">
    <rdf:RDF>
      <cc:Work
         rdf:about="">
        <dc:format>image/svg+xml</dc:format>
        <dc:type
           rdf:resource="http://purl.org/dc/dcmitype/StillImage" />
        <dc:title></dc:title>
      </cc:Work>
    </rdf:RDF>
  </metadata>
  <g
     id="layer1"
     inkscape:label="Layer 1"
     inkscape:groupmode="layer">
    <g
       id="layer1-7">
      <path
         d="M 18.808125,10.333333 44,10.333333 44,37 l -25.191875,0 0,-26.666667 z m 22.071732,17.037599 c 0,0 -25.522948,18.168055 -36.879857,-5.894525 5.1768242,-4.037346 16.552095,-15.1883452 30.626839,0.05647 -3.405179,3.425801 -16.288109,16.500938 -23.722751,0.628063 3.859203,-2.740642 8.51295,-6.680311 15.777335,-0.742256 -2.043107,1.998384 -3.234926,3.140317 -3.234926,3.140317 0,0 -3.291671,-8.050633 -9.080476,-1.941287 1.872849,4.45354 6.753606,9.877727 15.890832,-0.856451 -4.426728,-5.309992 -12.201888,-10.334499 -22.1904145,0.0571 2.2701195,4.853218 8.8534675,19.184487 28.2629955,2.740641 3.064654,1.769997 4.540236,2.797737 4.550423,2.81193 z"
         id="rect3180"
         style="fill:url(#linearGradient2852);fill-opacity:1;fill-rule:evenodd;stroke:none;filter:url(#filter1111)" />
    </g>
    <path
       style="fill:url(#linearGradient2998);fill-opacity:1;stroke:none"
       d="m 24.53125,28.989583 c 4.473214,-1.766668 8.422333,-5.787211 10.09375,-7.46875 -5.8116,-6.294734 -11.167714,-8.065671 -15.8125,-7.71875 l 0,-3.46875 25.1875,0 0,12.96875 c -1.366288,1.084858 -3.051172,2.059789 -4.96875,2.875 -0.70736,-0.43959 -1.544392,-0.964796 -2.6875,-1.625 -1.806412,1.530401 -3.533919,2.78278 -5.125,3.8125 -0.01209,0.002 -0.01915,0.02924 -0.03125,0.03125 -2.108483,0.349332 -4.342227,0.566789 -6.65625,0.59375 z m -5.71875,-15.1875 0,2 c -3.189582,0.221087 -6.796567,1.918282 -10.75,6.03125 0.600303,1.28337 1.514061,3.22917 2.875,5.09375 C 8.950619,26.244674 7.146794,25.411645 5.625,24.458333 5.058496,23.538971 4.512463,22.575369 4,21.489583 c 3.039262,-2.370286 8.208375,-7.194235 14.8125,-7.6875 z m 0,2 c 4.869041,-0.337499 8.762859,2.760439 11.4375,5.96875 -5.042607,5.923924 -8.777784,6.914568 -11.4375,5.875 l 0,-7.28125 c 2.988028,0.227329 4.625,4.1875 4.625,4.1875 0,0 1.206893,-1.126616 3.25,-3.125 -3.036424,-2.482035 -5.618179,-3.223099 -7.875,-3.0625 l 0,-2.5625 z m 0,2.5625 0,2 c -1.25451,-0.09544 -2.725762,0.443479 -4.4375,2.25 0.83927,1.995743 2.277798,4.187116 4.4375,5.03125 l 0,1 c -1.195064,-0.139056 -2.347724,-0.302039 -3.46875,-0.53125 -1.596612,-1.207302 -3.104988,-3.123851 -4.4375,-5.96875 2.246103,-1.595087 4.763819,-3.557629 7.90625,-3.78125 z"
       id="path2979" />
    <g
       transform="matrix(0.1337942,0,0,-0.1337942,31.527762,89.04701)"
       inkscape:label="Calque 1"
       id="g2981" />
    <g
       transform="matrix(0.1672428,0,0,-0.1672428,38.442916,104.62323)"
       inkscape:label="Calque 1"
       id="g2983" />
  </g>
</svg>
