<?xml version="1.0" encoding="UTF-8" standalone="no"?>
<!-- Created with Inkscape (http://www.inkscape.org/) -->

<svg
   xmlns:dc="http://purl.org/dc/elements/1.1/"
   xmlns:cc="http://creativecommons.org/ns#"
   xmlns:rdf="http://www.w3.org/1999/02/22-rdf-syntax-ns#"
   xmlns:svg="http://www.w3.org/2000/svg"
   xmlns="http://www.w3.org/2000/svg"
   xmlns:xlink="http://www.w3.org/1999/xlink"
   xmlns:sodipodi="http://sodipodi.sourceforge.net/DTD/sodipodi-0.dtd"
   xmlns:inkscape="http://www.inkscape.org/namespaces/inkscape"
   width="48px"
   height="48px"
   id="svg4491"
   version="1.1"
   inkscape:version="0.47 r22583"
   sodipodi:docname="Nouveau document 2">
  <defs
     id="defs4493">
    <linearGradient
       inkscape:collect="always"
       xlink:href="#linearGradient3155"
       id="linearGradient8550"
       gradientUnits="userSpaceOnUse"
       gradientTransform="matrix(0.1836065,0,0,0.1868852,-35.803275,-70.796783)"
       x1="325.71429"
       y1="369.50507"
       x2="325.71429"
       y2="546.64789" />
    <linearGradient
       id="linearGradient3155"
       inkscape:collect="always">
      <stop
         id="stop3157"
         offset="0"
         style="stop-color:#4d4d4d;stop-opacity:1;" />
      <stop
         id="stop3159"
         offset="1"
         style="stop-color:#4d4d4d;stop-opacity:0;" />
    </linearGradient>
  </defs>
  <sodipodi:namedview
     id="base"
     pagecolor="#ffffff"
     bordercolor="#666666"
     borderopacity="1.0"
     inkscape:pageopacity="0.0"
     inkscape:pageshadow="2"
     inkscape:zoom="7"
     inkscape:cx="24"
     inkscape:cy="24"
     inkscape:current-layer="layer1"
     showgrid="true"
     inkscape:grid-bbox="true"
     inkscape:document-units="px"
     inkscape:window-width="596"
     inkscape:window-height="502"
     inkscape:window-x="768"
     inkscape:window-y="24"
     inkscape:window-maximized="0" />
  <metadata
     id="metadata4496">
    <rdf:RDF>
      <cc:Work
         rdf:about="">
        <dc:format>image/svg+xml</dc:format>
        <dc:type
           rdf:resource="http://purl.org/dc/dcmitype/StillImage" />
        <dc:title></dc:title>
      </cc:Work>
    </rdf:RDF>
  </metadata>
  <g
     id="layer1"
     inkscape:label="Layer 1"
     inkscape:groupmode="layer">
    <path
       style="fill:#000000;fill-opacity:1;stroke:none"
       d="m 10.74107,4.999996 c -1.742093,-4e-6 -3.124999,1.459056 -3.124999,3.261194 -2e-6,0.377678 0,0.756004 0,1.13433 -2e-6,0.03153 0,0.063 0,0.09453 -2e-6,0.674634 0,1.358609 0,2.032339 l -1.607143,0 C 4.8897541,11.522388 4,12.125673 4,12.893036 c 1e-7,0.767359 0.889757,1.41791 2.008928,1.41791 l 1.607143,0 c -3e-6,0.924381 0,1.816948 0,2.741292 l -1.607143,0 C 4.8897541,17.052236 4,17.70279 4,18.47015 c 1e-7,0.767358 0.889757,1.370649 2.008928,1.370647 l 1.607143,0 c -3e-6,0.924314 0,1.864265 0,2.788557 l -1.607143,0 C 4.8897541,22.629351 4,23.232642 4,24 c 1e-7,0.767359 0.889757,1.37065 2.008928,1.370648 l 1.607143,0 c -3e-6,0.924275 0,1.864294 0,2.788555 l -1.607143,0 C 4.8897541,28.159199 4,28.762491 4,29.529851 c 1e-7,0.767359 0.889757,1.417912 2.008928,1.41791 l 1.607143,0 c -3e-6,0.924261 0,1.81703 0,2.741293 l -1.607143,0 C 4.8897541,33.689056 4,34.339606 4,35.106964 c 1e-7,0.767359 0.889757,1.37065 2.008928,1.370648 l 1.607143,0 c -2e-6,0.563964 0,1.132962 0,1.701494 0,0.409855 0,1.150549 0,1.5597 0,1.80214 1.382908,3.261198 3.124999,3.261194 l 12.276785,0 5.580358,0 12.276785,0 c 1.742085,10e-7 3.124999,-1.459057 3.124999,-3.261194 0,-0.409952 0,-1.150055 0,-1.5597 0,-0.409516 0,-0.81957 0,-1.228856 3e-6,-9.157779 0,-18.300792 0,-27.4602 4e-6,-0.03153 0,-0.063 0,-0.09453 4e-6,-0.378086 0,-0.755911 0,-1.13433 0,-1.802137 -1.382906,-3.261196 -3.124999,-3.261194 l -12.276785,0 -5.580358,0 -12.276785,0 z m 15.625,4.63184 c 2.210252,2.6e-5 4.221051,0.416049 6.026785,1.323384 1.805692,0.896833 3.339876,2.224243 4.553571,3.922886 0.740028,1.033986 1.276804,2.142408 1.651785,3.355721 0.384805,1.202791 0.580332,2.498981 0.580357,3.828357 -2.8e-5,2.859245 -0.80237,5.034318 -2.410713,6.616918 -1.608387,1.582601 -3.899792,2.363181 -6.830357,2.363183 l -0.580357,0 0,-2.410448 c -0.296038,0.7491 -0.767478,1.373993 -1.428571,1.796021 -0.651257,0.411475 -1.443257,0.614428 -2.321429,0.614427 -1.69719,1e-6 -3.041488,-0.676788 -4.107143,-1.985076 -1.055812,-1.31883 -1.56251,-3.041597 -1.5625,-5.15174 -1.2e-5,-2.110126 0.541466,-3.832894 1.607144,-5.151741 1.065651,-1.318825 2.375179,-1.985061 4.062499,-1.985075 0.878169,1.4e-5 1.670173,0.239675 2.321429,0.661691 0.661092,0.422042 1.132535,0.99967 1.428571,1.748758 l 0,-2.079603 3.080357,0 0,10.965175 c 1.223524,-0.200458 2.201188,-0.835476 2.901785,-1.890549 0.700556,-1.065612 1.071407,-2.408211 1.071429,-4.064675 -2e-5,-1.055058 -0.1603,-2.059691 -0.446429,-2.977612 -0.286171,-0.928445 -0.7125,-1.782028 -1.294643,-2.55224 -0.937409,-1.287162 -2.115782,-2.281248 -3.526785,-2.977611 -1.401166,-0.696326 -2.915617,-1.039783 -4.553572,-1.039802 -1.144621,2.1e-5 -2.213009,0.19285 -3.258928,0.519902 -1.045946,0.316541 -2.058385,0.748171 -2.946427,1.370646 -1.460367,1.033979 -2.573882,2.418785 -3.392858,4.064676 -0.809124,1.635365 -1.205362,3.383867 -1.205357,5.293533 -4e-6,1.572061 0.235959,3.06065 0.758929,4.442786 0.532828,1.371591 1.280184,2.584237 2.276786,3.639304 0.98672,1.033964 2.11997,1.77783 3.392857,2.315921 1.282734,0.548633 2.656636,0.850738 4.107142,0.850745 1.243259,-8e-6 2.506706,-0.260343 3.749999,-0.756219 1.24326,-0.49589 2.291432,-1.141024 3.169644,-1.985076 l 1.607142,2.55224 c -1.233429,1.023413 -2.602162,1.825095 -4.062499,2.363184 -1.450504,0.548629 -2.919834,0.803473 -4.419643,0.803483 -1.825463,-7e-6 -3.560347,-0.343465 -5.178572,-1.039801 C 19.569253,36.311716 18.120145,35.291461 16.857142,33.972632 15.594124,32.653797 14.661102,31.16563 14,29.435319 c -0.66111,-1.74086 -0.982144,-3.630295 -0.982143,-5.624377 -10e-7,-1.920214 0.355805,-3.741714 1.026785,-5.482588 0.67097,-1.740846 1.569214,-3.265726 2.8125,-4.584576 1.243268,-1.308265 2.727154,-2.30741 4.375,-3.024876 1.657691,-0.717423 3.357804,-1.087043 5.133928,-1.087066 z m -0.178572,10.067165 c -0.868337,1.4e-5 -1.575263,0.385243 -2.098213,1.134327 -0.513114,0.738561 -0.758944,1.748256 -0.75893,3.024878 -1.6e-5,1.297739 0.245819,2.323044 0.75893,3.072138 0.522948,0.749105 1.210142,1.134332 2.098213,1.13433 0.878171,5e-6 1.619875,-0.385226 2.142857,-1.13433 0.522947,-0.759641 0.71427,-1.784948 0.714286,-3.072138 -1.6e-5,-1.276623 -0.226112,-2.28632 -0.758928,-3.024878 -0.522983,-0.749081 -1.210176,-1.134316 -2.098215,-1.134327 z"
       id="rect2776" />
    <path
       style="fill:url(#linearGradient8550);fill-opacity:1"
       d="m 10.75,4.999996 c -1.742091,-4e-6 -3.125,1.463487 -3.125,3.265625 1e-6,0.377678 0,0.766764 0,1.145089 1e-6,0.03153 0,0.05329 0,0.08482 1e-6,0.674635 0,1.361984 0,2.035715 l -1.625,0 c -1.119172,-1e-6 -2,0.58978 -2,1.357143 1.3e-6,0.76736 0.8808293,1.441964 2,1.441964 l 1.625,0 c 0,0.924381 0,1.789942 0,2.714286 l -1.625,0 c -1.119172,-2e-6 -2,0.674603 -2,1.441964 1.3e-6,0.76736 0.8808293,1.357144 2,1.357143 l 1.625,0 c 0,0.924313 0,1.874816 0,2.799108 l -1.625,0 c -1.119172,-2e-6 -2,0.589784 -2,1.357142 1.3e-6,0.767359 0.8808293,1.357145 2,1.357143 l 1.625,0 c 0,0.924275 0,1.874845 0,2.799107 l -1.625,0 c -0.205685,-10e-7 -0.397244,0.04679 -0.583333,0.08482 2.744466,1.018071 5.787095,1.844306 9.083333,2.375001 -0.18423,-0.377684 -0.346011,-0.784463 -0.5,-1.187501 -0.66111,-1.740858 -1.000002,-3.604131 -1,-5.598214 2e-6,-1.920213 0.370686,-3.772519 1.041666,-5.513392 0.670966,-1.740848 1.590047,-3.261508 2.833334,-4.580358 1.243264,-1.308265 2.727153,-2.293695 4.374999,-3.011161 1.657687,-0.717423 3.348876,-1.102655 5.125,-1.102678 2.210255,2.5e-5 4.194266,0.407396 6,1.314732 1.805695,0.896833 3.369639,2.245554 4.583333,3.944197 0.740023,1.033988 1.250019,2.137133 1.625,3.350445 0.384802,1.202792 0.583308,2.487588 0.583334,3.816965 -2.7e-5,2.859242 -0.808324,5.033472 -2.416667,6.616071 -0.996388,0.980417 -2.239784,1.665794 -3.75,2.035715 4.065155,-0.616888 7.780544,-1.672324 11,-3.011161 0,-6.067907 0,-12.120957 0,-18.194197 2e-6,-0.03153 0,-0.05329 0,-0.08482 2e-6,-0.378086 0,-0.76667 0,-1.145089 -2e-6,-1.802136 -1.382907,-3.265626 -3.125,-3.265624 l -12.291666,0 -5.583334,0 -12.249999,0 z m 15.833333,7.549107 c -1.144622,2.2e-5 -2.204082,0.224287 -3.25,0.551339 -1.045944,0.316542 -2.070291,0.734668 -2.958333,1.357143 -1.460371,1.033977 -2.556024,2.425537 -3.375,4.071429 -0.809122,1.635365 -1.208339,3.391674 -1.208334,5.301339 -6e-6,1.572062 0.22703,3.028578 0.75,4.410714 0.399618,1.028694 0.927722,1.991062 1.583334,2.841518 1.905258,0.183182 3.867626,0.296876 5.874999,0.296876 2.208,0 4.375834,-0.11867 6.458334,-0.339287 -0.1779,0.0061 -0.358778,0 -0.541667,0 l -0.541667,0 0,-2.417411 c -0.296033,0.749102 -0.79724,1.401634 -1.458333,1.823662 -0.651255,0.411474 -1.413495,0.593751 -2.291667,0.593749 -1.697185,3e-6 -3.059345,-0.685016 -4.125,-1.993303 -1.055813,-1.31883 -1.583343,-3.021553 -1.583333,-5.131696 -1.3e-5,-2.110124 0.559322,-3.85526 1.625,-5.174108 1.065647,-1.318825 2.396013,-1.993288 4.083333,-1.993303 0.878174,1.5e-5 1.640411,0.256556 2.291667,0.678572 0.661095,0.422041 1.162297,0.989752 1.458333,1.738839 l 0,-2.078126 3.041667,0 0,10.984376 c 1.223522,-0.200459 2.216069,-0.85341 2.916666,-1.908482 0.700556,-1.065612 1.083311,-2.414964 1.083334,-4.071429 -2.3e-5,-1.055058 -0.172204,-2.050829 -0.458334,-2.968751 -0.28617,-0.928442 -0.709524,-1.774431 -1.291666,-2.544642 -0.937406,-1.287163 -2.130664,-2.272386 -3.541667,-2.96875 -1.401164,-0.696324 -2.903712,-1.060249 -4.541666,-1.060268 z m -0.416667,7.167411 c -0.868339,1.2e-5 -1.560383,0.353594 -2.083333,1.102678 -0.513112,0.738561 -0.750015,1.77695 -0.75,3.053572 -1.4e-5,1.297739 0.236889,2.304477 0.75,3.053571 0.522949,0.749105 1.195262,1.145092 2.083333,1.14509 0.878169,5e-6 1.643684,-0.395986 2.166667,-1.14509 0.522949,-0.759642 0.708317,-1.766381 0.708333,-3.053571 -1.2e-5,-1.276624 -0.217184,-2.315014 -0.75,-3.053572 -0.522985,-0.749081 -1.236961,-1.102668 -2.125,-1.102678 z"
       id="path8540" />
  </g>
</svg>
