<?xml version="1.0" encoding="UTF-8" standalone="no"?>
<!-- Created with Inkscape (http://www.inkscape.org/) -->

<svg
   xmlns:dc="http://purl.org/dc/elements/1.1/"
   xmlns:cc="http://creativecommons.org/ns#"
   xmlns:rdf="http://www.w3.org/1999/02/22-rdf-syntax-ns#"
   xmlns:svg="http://www.w3.org/2000/svg"
   xmlns="http://www.w3.org/2000/svg"
   xmlns:xlink="http://www.w3.org/1999/xlink"
   xmlns:sodipodi="http://sodipodi.sourceforge.net/DTD/sodipodi-0.dtd"
   xmlns:inkscape="http://www.inkscape.org/namespaces/inkscape"
   width="48px"
   height="48px"
   id="svg4367"
   version="1.1"
   inkscape:version="0.47 r22583"
   sodipodi:docname="Nouveau document 20">
  <defs
     id="defs4369">
    <linearGradient
       gradientUnits="userSpaceOnUse"
       y2="21.132059"
       x2="22.892584"
       y1="0.90414524"
       x1="22.892584"
       id="linearGradient3178"
       xlink:href="#linearGradient3172"
       inkscape:collect="always" />
    <linearGradient
       id="linearGradient3172">
      <stop
         id="stop3174"
         offset="0"
         style="stop-color:#4d4d4d;stop-opacity:1;" />
      <stop
         id="stop3176"
         offset="1"
         style="stop-color:#4d4d4d;stop-opacity:0;" />
    </linearGradient>
    <linearGradient
       inkscape:collect="always"
       xlink:href="#linearGradient3172"
       id="linearGradient4998"
       gradientUnits="userSpaceOnUse"
       x1="22.892584"
       y1="0.90414524"
       x2="22.892584"
       y2="21.132059" />
    <linearGradient
       inkscape:collect="always"
       xlink:href="#linearGradient3172"
       id="linearGradient5003"
       gradientUnits="userSpaceOnUse"
       x1="22.892584"
       y1="0.90414524"
       x2="22.892584"
       y2="21.132059"
       gradientTransform="matrix(0.644962,0,0,-1.1832362,59.235153,43.983663)" />
    <linearGradient
       inkscape:collect="always"
       xlink:href="#linearGradient3172"
       id="linearGradient5006"
       gradientUnits="userSpaceOnUse"
       gradientTransform="matrix(0.644962,0,0,1.1832362,9.235153,4.016337)"
       x1="22.892584"
       y1="0.90414524"
       x2="22.892584"
       y2="21.132059" />
  </defs>
  <sodipodi:namedview
     id="base"
     pagecolor="#ffffff"
     bordercolor="#666666"
     borderopacity="1.0"
     inkscape:pageopacity="0.0"
     inkscape:pageshadow="2"
     inkscape:zoom="7"
     inkscape:cx="24"
     inkscape:cy="24"
     inkscape:current-layer="layer1"
     showgrid="true"
     inkscape:grid-bbox="true"
     inkscape:document-units="px"
     inkscape:window-width="1364"
     inkscape:window-height="721"
     inkscape:window-x="0"
     inkscape:window-y="23"
     inkscape:window-maximized="1" />
  <metadata
     id="metadata4372">
    <rdf:RDF>
      <cc:Work
         rdf:about="">
        <dc:format>image/svg+xml</dc:format>
        <dc:type
           rdf:resource="http://purl.org/dc/dcmitype/StillImage" />
        <dc:title></dc:title>
      </cc:Work>
    </rdf:RDF>
  </metadata>
  <g
     id="layer1"
     inkscape:label="Layer 1"
     inkscape:groupmode="layer">
    <path
       style="fill:#000000;fill-opacity:1;fill-rule:evenodd;stroke:none"
       d="m 4,4 0,40 8.703188,0 C 7.554335,35.856664 11.675587,26.507863 13.445992,17.494274 13.919422,17.410844 14.386279,17.343832 14.84494,17.308573 13.095325,26.379234 8.880833,35.80082 14.064995,44 l 0.309502,0 27.855153,0 c -7.81,-12.352162 5.694804,-27.484243 0,-40 L 14.374497,4 14.064995,4 c 0.5521,1.213378 0.92324,2.456378 1.151347,3.71402 C 14.767834,7.73098 14.324977,7.77361 13.879294,7.825441 13.653169,6.529111 13.271744,5.249543 12.703188,4 L 4,4 z m 22.593624,2.401733 c 1.03909,-0.0047 2.206124,0.05729 3.51594,0.198081 -1.923035,0.0041 -7.868645,1.426548 -10.560199,4.048283 C 16.256402,9.18514 11.864112,9.73747 7.033117,11.588982 10.140474,8.420013 14.349321,7.938439 18.843702,8.481585 19.969812,7.637634 22.090896,6.422224 26.593624,6.401733 z m 5.174869,3.689261 c 1.199492,-0.01177 2.49283,0.102455 3.862581,0.396162 -2.357969,0.07238 -9.360774,2.651625 -12.132467,7.093779 -4.171243,-2.087363 -9.089299,-1.47462 -15.165583,1.95605 1.523152,-3.677859 9.908626,-6.453245 14.001857,-5.323429 0.750054,-1.545578 4.235813,-4.071546 9.433612,-4.122562 z m -16.713092,0.359021 c 0.148362,-0.0019 0.296785,-0.0031 0.445682,0 0.02983,0.934242 -0.0191,1.873202 -0.09904,2.822656 -0.459405,0.06305 -0.914132,0.145564 -1.374187,0.247601 0.0942,-1.016112 0.140978,-2.021778 0.11142,-3.020736 0.302993,-0.02356 0.611001,-0.04556 0.916125,-0.04952 z m 2.872176,12.367688 12.640049,0 c 2.518316,0 4.593005,2.07469 4.593005,4.593006 l 0,9.18601 c 0,2.518316 -2.074689,4.605386 -4.593005,4.605386 l -12.640049,0 c -2.518316,0 -4.593006,-2.08707 -4.593006,-4.605386 l 0,-9.18601 c 0,-2.518316 2.07469,-4.593006 4.593006,-4.593006 z m 0,3.51594 c -0.632034,0 -1.089446,0.445032 -1.089446,1.077066 l 0,9.18601 c 0,0.632034 0.457412,1.089446 1.089446,1.089446 l 12.640049,0 c 0.632033,0 1.077066,-0.457412 1.077066,-1.089446 l 0,-9.18601 c 0,-0.632034 -0.445033,-1.077066 -1.077066,-1.077066 l -12.640049,0 z"
       id="path18506" />
    <path
       style="fill:url(#linearGradient5006);fill-opacity:1;stroke:none"
       d="m 24,29.65625 c -2.495284,0 -4.893231,-0.220586 -7.15625,-0.59375 l 0,-1.65625 c 0,-0.632034 0.461716,-1.0625 1.09375,-1.0625 l 12.625,0 c 0.632033,0 1.09375,0.430466 1.09375,1.0625 l 0,1.5625 C 29.247328,29.397342 26.682021,29.65625 24,29.65625 z M 13.34375,28.3125 c -0.324473,-0.08512 -0.652809,-0.157465 -0.96875,-0.25 0.728809,-3.571877 1.782291,-7.191139 2.46875,-10.75 -0.458661,0.03526 -0.93282,0.10407 -1.40625,0.1875 -0.660044,3.360456 -1.663644,6.751197 -2.375,10.125 C 8.25859,26.67447 5.842952,25.432088 4,23.96875 L 4,4 12.71875,4 C 13.287306,5.249543 13.648875,6.51617 13.875,7.8125 14.320683,7.76067 14.770242,7.73571 15.21875,7.71875 14.990643,6.461108 14.6146,5.213378 14.0625,4 L 14.375,4 42.21875,4 C 45.323,10.822367 42.743447,18.434351 41,25.9375 c -5.48e-4,0.0024 -0.0307,-0.0024 -0.03125,0 -1.701392,0.897109 -3.665047,1.653477 -5.8125,2.25 l 0,-0.78125 c 0,-2.518316 -2.075434,-4.59375 -4.59375,-4.59375 l -12.625,0 c -2.518316,0 -4.59375,2.075434 -4.59375,4.59375 l 0,0.90625 z m -5,-8.78125 C 14.420034,16.10058 19.328757,15.506387 23.5,17.59375 26.271693,13.151596 33.267031,10.57238 35.625,10.5 c -1.369751,-0.293707 -2.644258,-0.41802 -3.84375,-0.40625 -5.197799,0.05102 -8.687446,2.579422 -9.4375,4.125 -4.093231,-1.129816 -12.476848,1.634641 -14,5.3125 z m 5.6875,-6 c 0.460055,-0.102037 0.915595,-0.18695 1.375,-0.25 0.07994,-0.949454 0.12358,-1.909508 0.09375,-2.84375 -0.148897,-0.0031 -0.289138,-0.0019 -0.4375,0 -0.305124,0.004 -0.634507,0.03894 -0.9375,0.0625 0.02956,0.998958 4.5e-4,2.015138 -0.09375,3.03125 z m -7,-1.9375 c 4.830995,-1.851512 9.238287,-2.400457 12.53125,-0.9375 2.691554,-2.621735 8.639465,-4.0584 10.5625,-4.0625 -1.309816,-0.140791 -2.49216,-0.1922 -3.53125,-0.1875 -4.502728,0.02049 -6.62389,1.218549 -7.75,2.0625 -4.494381,-0.543146 -8.705143,-0.04397 -11.8125,3.125 z"
       id="path4992" />
    <g
       transform="matrix(0.1337942,0,0,-0.1337942,31.527762,89.04701)"
       inkscape:label="Calque 1"
       id="g4994" />
    <g
       transform="matrix(0.1672428,0,0,-0.1672428,38.442916,104.62323)"
       inkscape:label="Calque 1"
       id="g4996" />
  </g>
</svg>
