<?xml version="1.0" encoding="UTF-8" standalone="no"?>
<!-- Created with Inkscape (http://www.inkscape.org/) -->

<svg
   xmlns:dc="http://purl.org/dc/elements/1.1/"
   xmlns:cc="http://creativecommons.org/ns#"
   xmlns:rdf="http://www.w3.org/1999/02/22-rdf-syntax-ns#"
   xmlns:svg="http://www.w3.org/2000/svg"
   xmlns="http://www.w3.org/2000/svg"
   xmlns:xlink="http://www.w3.org/1999/xlink"
   xmlns:sodipodi="http://sodipodi.sourceforge.net/DTD/sodipodi-0.dtd"
   xmlns:inkscape="http://www.inkscape.org/namespaces/inkscape"
   width="48px"
   height="48px"
   id="svg2932"
   version="1.1"
   inkscape:version="0.47 r22583"
   sodipodi:docname="Nouveau document 2">
  <defs
     id="defs2934">
    <inkscape:perspective
       sodipodi:type="inkscape:persp3d"
       inkscape:vp_x="0 : 24 : 1"
       inkscape:vp_y="0 : 1000 : 0"
       inkscape:vp_z="48 : 24 : 1"
       inkscape:persp3d-origin="24 : 16 : 1"
       id="perspective2940" />
    <inkscape:perspective
       id="perspective2927"
       inkscape:persp3d-origin="0.5 : 0.33333333 : 1"
       inkscape:vp_z="1 : 0.5 : 1"
       inkscape:vp_y="0 : 1000 : 0"
       inkscape:vp_x="0 : 0.5 : 1"
       sodipodi:type="inkscape:persp3d" />
    <linearGradient
       gradientUnits="userSpaceOnUse"
       y2="21.132059"
       x2="22.892584"
       y1="0.90414524"
       x1="22.892584"
       id="linearGradient3178"
       xlink:href="#linearGradient3172"
       inkscape:collect="always" />
    <linearGradient
       y2="546.64789"
       x2="325.71429"
       y1="369.50507"
       x1="325.71429"
       gradientTransform="matrix(0.1377049,0,0,0.1377049,-20.852457,-45.850258)"
       gradientUnits="userSpaceOnUse"
       id="linearGradient2678"
       xlink:href="#linearGradient3155"
       inkscape:collect="always" />
    <linearGradient
       y2="546.64789"
       x2="325.71429"
       y1="369.50507"
       x1="325.71429"
       gradientTransform="matrix(0.1377049,0,0,0.1377049,29.147543,-45.850258)"
       gradientUnits="userSpaceOnUse"
       id="linearGradient2660"
       xlink:href="#linearGradient3155"
       inkscape:collect="always" />
    <linearGradient
       y2="546.64789"
       x2="325.71429"
       y1="369.50507"
       x1="325.71429"
       gradientTransform="matrix(0.1721311,0,0,0.1721311,-14.532357,-62.627292)"
       gradientUnits="userSpaceOnUse"
       id="linearGradient2628"
       xlink:href="#linearGradient3155"
       inkscape:collect="always" />
    <linearGradient
       inkscape:collect="always"
       xlink:href="#linearGradient3155"
       id="linearGradient2735"
       gradientUnits="userSpaceOnUse"
       gradientTransform="matrix(0.1377049,0,0,0.1377049,-20.852457,-45.850258)"
       x1="325.71429"
       y1="369.50507"
       x2="325.71429"
       y2="546.64789" />
    <linearGradient
       gradientTransform="matrix(0.1377049,0,0,0.1377049,-20.852457,-45.850258)"
       y2="546.64789"
       x2="325.71429"
       y1="369.50507"
       x1="325.71429"
       gradientUnits="userSpaceOnUse"
       id="linearGradient2454"
       xlink:href="#linearGradient3155"
       inkscape:collect="always" />
    <linearGradient
       id="linearGradient3155">
      <stop
         style="stop-color:#4d4d4d;stop-opacity:1;"
         offset="0"
         id="stop3157" />
      <stop
         style="stop-color:#4d4d4d;stop-opacity:0;"
         offset="1"
         id="stop3159" />
    </linearGradient>
    <inkscape:perspective
       id="perspective27"
       inkscape:persp3d-origin="24 : 16 : 1"
       inkscape:vp_z="48 : 24 : 1"
       inkscape:vp_y="0 : 1000 : 0"
       inkscape:vp_x="0 : 24 : 1"
       sodipodi:type="inkscape:persp3d" />
    <linearGradient
       id="linearGradient3172">
      <stop
         id="stop3174"
         offset="0"
         style="stop-color:#4d4d4d;stop-opacity:1;" />
      <stop
         id="stop3176"
         offset="1"
         style="stop-color:#4d4d4d;stop-opacity:0;" />
    </linearGradient>
    <linearGradient
       inkscape:collect="always"
       xlink:href="#linearGradient3172"
       id="linearGradient3059"
       gradientUnits="userSpaceOnUse"
       x1="22.892584"
       y1="0.90414524"
       x2="22.892584"
       y2="21.132059" />
    <linearGradient
       inkscape:collect="always"
       xlink:href="#linearGradient3172"
       id="linearGradient3064"
       gradientUnits="userSpaceOnUse"
       x1="22.892584"
       y1="0.90414524"
       x2="22.892584"
       y2="21.132059"
       gradientTransform="matrix(0.644962,0,0,-1.1832362,59.235153,43.983663)" />
    <linearGradient
       inkscape:collect="always"
       xlink:href="#linearGradient3172"
       id="linearGradient3067"
       gradientUnits="userSpaceOnUse"
       gradientTransform="matrix(0.644962,0,0,1.1832362,9.235153,4.016337)"
       x1="22.892584"
       y1="0.90414524"
       x2="22.892584"
       y2="21.132059" />
  </defs>
  <sodipodi:namedview
     id="base"
     pagecolor="#ffffff"
     bordercolor="#666666"
     borderopacity="1.0"
     inkscape:pageopacity="0.0"
     inkscape:pageshadow="2"
     inkscape:zoom="7"
     inkscape:cx="24"
     inkscape:cy="24"
     inkscape:current-layer="layer1"
     showgrid="true"
     inkscape:grid-bbox="true"
     inkscape:document-units="px"
     inkscape:window-width="1364"
     inkscape:window-height="721"
     inkscape:window-x="0"
     inkscape:window-y="23"
     inkscape:window-maximized="1" />
  <metadata
     id="metadata2937">
    <rdf:RDF>
      <cc:Work
         rdf:about="">
        <dc:format>image/svg+xml</dc:format>
        <dc:type
           rdf:resource="http://purl.org/dc/dcmitype/StillImage" />
        <dc:title></dc:title>
      </cc:Work>
    </rdf:RDF>
  </metadata>
  <g
     id="layer1"
     inkscape:label="Layer 1"
     inkscape:groupmode="layer">
    <path
       style="fill:#000000;fill-opacity:1;fill-rule:evenodd;stroke:none"
       d="m 4,4 0,40 8.703188,0 C 7.5543354,35.856664 11.675587,26.507863 13.445992,17.494274 13.91942,17.410844 14.386281,17.343832 14.84494,17.308573 13.095323,26.379234 8.8808332,35.80082 14.064995,44 l 0.309502,0 27.855153,0 c -7.81,-12.352162 5.694804,-27.484243 0,-40 L 14.374497,4 14.064995,4 c 0.5521,1.213378 0.923241,2.456378 1.151347,3.71402 C 14.767833,7.73098 14.324977,7.7736 13.879294,7.825441 13.653167,6.529111 13.271743,5.249543 12.703188,4 L 4,4 z m 22.593624,2.401733 c 1.039092,-0.0047 2.206126,0.05729 3.51594,0.198081 -1.923036,0.0041 -7.868645,1.426548 -10.560198,4.048283 C 16.256403,9.18514 11.864111,9.73747 7.0331167,11.588982 10.140474,8.420013 14.349321,7.938439 18.843702,8.481585 19.969812,7.637634 22.090895,6.422224 26.593624,6.401733 z m 5.174869,3.689261 c 1.199492,-0.01177 2.492832,0.102455 3.862581,0.396162 -2.35797,0.07238 -9.360773,2.651625 -12.132467,7.093779 -4.171244,-2.087363 -9.089299,-1.47462 -15.1655828,1.95605 1.523152,-3.677859 9.9086278,-6.453245 14.0018568,-5.323429 0.750054,-1.545578 4.235812,-4.071546 9.433612,-4.122562 z m -16.713092,0.359021 c 0.148363,-0.0019 0.296784,-0.0031 0.445682,0 0.02984,0.934242 -0.01909,1.873202 -0.09904,2.822656 -0.459406,0.06305 -0.914133,0.145564 -1.374188,0.247601 0.09419,-1.016112 0.14098,-2.021778 0.111421,-3.020736 0.302993,-0.02357 0.610999,-0.04556 0.916125,-0.04952 z m 8.752708,10.015476 c 1.935486,0 3.910021,0.454463 5.52151,1.386567 1.365109,0.789595 2.462247,2.036174 2.835036,3.59022 a 1.2638888,1.2638888 0 0 1 0.123801,0.532343 l 0,0.0619 c 0.0091,0.0897 0.04568,0.168356 0.04952,0.259982 a 1.2638888,1.2638888 0 0 1 -0.04952,0.458062 l -0.01238,8.826989 c 0,1.814628 -1.136317,3.355494 -2.686475,4.357784 -1.550158,1.00229 -3.571691,1.559888 -5.781492,1.559888 -2.209761,0 -4.231346,-0.557598 -5.781492,-1.559888 -1.550145,-1.002291 -2.686475,-2.543156 -2.686475,-4.357784 l -0.01238,-9.173631 a 1.2638888,1.2638888 0 0 1 0.07428,-0.458062 1.2638888,1.2638888 0 0 1 0.01238,-0.01238 c 0.173905,-1.613596 1.195201,-2.995905 2.612194,-3.912102 1.550145,-1.002291 3.571731,-1.559888 5.781492,-1.559888 z m 0,2.525533 c -1.767646,0 -3.349065,0.479492 -4.407304,1.163727 -1.058239,0.684235 -1.535129,1.471311 -1.535129,2.228412 0,0.757101 0.47689,1.544177 1.535129,2.228412 1.058239,0.684235 2.639658,1.163727 4.407304,1.163727 1.767696,0 3.349056,-0.479491 4.407304,-1.163727 1.058249,-0.684235 1.535129,-1.471311 1.535129,-2.228412 a 1.2638888,1.2638888 0 0 1 0.01238,-0.210461 l 0,-0.07428 c -0.144573,-0.788187 -0.692717,-1.474741 -1.69607,-2.055092 -1.131463,-0.654451 -2.744831,-1.052306 -4.258743,-1.052306 z m -5.954813,7.613742 0.01238,4.976788 c 0,0.757102 0.47689,1.544178 1.535129,2.228412 1.058239,0.684234 2.639658,1.163726 4.407304,1.163726 1.767696,0 3.349056,-0.479491 4.407304,-1.163726 1.058249,-0.684235 1.535129,-1.47131 1.535129,-2.228412 l 0.01238,-4.976788 c -0.06077,0.04188 -0.111183,0.096 -0.173321,0.136181 -1.550158,1.002291 -3.571691,1.559889 -5.781492,1.559889 -2.209761,0 -4.231347,-0.557598 -5.781492,-1.559889 -0.06214,-0.04018 -0.112552,-0.0943 -0.173321,-0.136181 z"
       id="path18506" />
    <path
       style="fill:url(#linearGradient3067);fill-opacity:1;stroke:none"
       d="m 24,29.65625 c -0.62644,0 -1.229344,-0.03761 -1.84375,-0.0625 -1.07824,-0.191885 -2.040531,-0.510022 -2.75,-0.96875 -1.058239,-0.684235 -1.53125,-1.492899 -1.53125,-2.25 0,-0.757101 0.473011,-1.534515 1.53125,-2.21875 C 20.464489,23.472015 22.044854,23 23.8125,23 c 1.513912,0 3.118537,0.376799 4.25,1.03125 1.003353,0.580351 1.542927,1.274313 1.6875,2.0625 l 0,0.09375 a 1.2638888,1.2638888 0 0 0 0,0.1875 c 0,0.757101 -0.473001,1.565765 -1.53125,2.25 -0.724212,0.468257 -1.706243,0.811579 -2.8125,1 -0.470774,0.01453 -0.9286,0.03125 -1.40625,0.03125 z m 8.28125,-0.8125 0,-2.09375 a 1.2638888,1.2638888 0 0 0 0.0625,-0.46875 c -0.0038,-0.09163 -0.0534,-0.1603 -0.0625,-0.25 l 0,-0.0625 a 1.2638888,1.2638888 0 0 0 -0.125,-0.53125 c -0.372789,-1.554046 -1.447391,-2.804155 -2.8125,-3.59375 -1.611489,-0.932104 -3.595764,-1.375 -5.53125,-1.375 -2.209761,0 -4.231105,0.560209 -5.78125,1.5625 -1.416993,0.916197 -2.451095,2.292654 -2.625,3.90625 a 1.2638888,1.2638888 0 0 0 -0.09375,0.46875 l 0,2.375 c -1.013111,-0.20797 -1.996477,-0.443136 -2.9375,-0.71875 0.728809,-3.571877 1.78229,-7.191139 2.46875,-10.75 -0.458659,0.03526 -0.932822,0.10407 -1.40625,0.1875 -0.660044,3.360456 -1.663644,6.751197 -2.375,10.125 C 8.25859,26.67447 5.842952,25.432088 4,23.96875 L 4,4 12.71875,4 C 13.287305,5.249543 13.648873,6.51617 13.875,7.8125 14.320683,7.76066 14.770241,7.73571 15.21875,7.71875 14.990644,6.461108 14.6146,5.213378 14.0625,4 L 14.375,4 42.21875,4 C 45.323,10.822367 42.743447,18.434351 41,25.9375 c -5.48e-4,0.0024 -0.0307,-0.0024 -0.03125,0 -2.431723,1.282197 -5.398948,2.266749 -8.6875,2.90625 z M 8.34375,19.53125 C 14.420034,16.10058 19.328756,15.506387 23.5,17.59375 26.271694,13.151596 33.26703,10.57238 35.625,10.5 c -1.369749,-0.293707 -2.644258,-0.41802 -3.84375,-0.40625 -5.1978,0.05102 -8.687446,2.579422 -9.4375,4.125 -4.093229,-1.129816 -12.476848,1.634641 -14,5.3125 z m 5.6875,-6 c 0.460055,-0.102037 0.915594,-0.18695 1.375,-0.25 0.07995,-0.949454 0.12359,-1.909508 0.09375,-2.84375 -0.148898,-0.0031 -0.289137,-0.0019 -0.4375,0 -0.305126,0.004 -0.634507,0.03893 -0.9375,0.0625 0.02956,0.998958 4.4e-4,2.015138 -0.09375,3.03125 z m -7,-1.9375 c 4.830994,-1.851512 9.238287,-2.400457 12.53125,-0.9375 2.691553,-2.621735 8.639464,-4.0584 10.5625,-4.0625 -1.309814,-0.140791 -2.492158,-0.1922 -3.53125,-0.1875 -4.502729,0.02049 -6.62389,1.218549 -7.75,2.0625 -4.494381,-0.543146 -8.705143,-0.04397 -11.8125,3.125 z"
       id="path3053" />
    <g
       transform="matrix(0.1337942,0,0,-0.1337942,31.527762,89.04701)"
       inkscape:label="Calque 1"
       id="g3055" />
    <g
       transform="matrix(0.1672428,0,0,-0.1672428,38.442916,104.62323)"
       inkscape:label="Calque 1"
       id="g3057" />
  </g>
</svg>
