<?xml version="1.0" encoding="UTF-8" standalone="no"?>
<!-- Created with Inkscape (http://www.inkscape.org/) -->

<svg
   xmlns:dc="http://purl.org/dc/elements/1.1/"
   xmlns:cc="http://creativecommons.org/ns#"
   xmlns:rdf="http://www.w3.org/1999/02/22-rdf-syntax-ns#"
   xmlns:svg="http://www.w3.org/2000/svg"
   xmlns="http://www.w3.org/2000/svg"
   xmlns:xlink="http://www.w3.org/1999/xlink"
   xmlns:sodipodi="http://sodipodi.sourceforge.net/DTD/sodipodi-0.dtd"
   xmlns:inkscape="http://www.inkscape.org/namespaces/inkscape"
   width="48px"
   height="48px"
   id="svg4188"
   version="1.1"
   inkscape:version="0.47 r22583"
   sodipodi:docname="Nouveau document 16">
  <defs
     id="defs4190">
    <linearGradient
       gradientUnits="userSpaceOnUse"
       y2="21.132059"
       x2="22.892584"
       y1="0.90414524"
       x1="22.892584"
       id="linearGradient3178"
       xlink:href="#linearGradient3172"
       inkscape:collect="always" />
    <linearGradient
       id="linearGradient3172">
      <stop
         id="stop3174"
         offset="0"
         style="stop-color:#4d4d4d;stop-opacity:1;" />
      <stop
         id="stop3176"
         offset="1"
         style="stop-color:#4d4d4d;stop-opacity:0;" />
    </linearGradient>
    <linearGradient
       inkscape:collect="always"
       xlink:href="#linearGradient3172"
       id="linearGradient4336"
       gradientUnits="userSpaceOnUse"
       x1="22.892584"
       y1="0.90414524"
       x2="22.892584"
       y2="21.132059" />
    <linearGradient
       inkscape:collect="always"
       xlink:href="#linearGradient3172"
       id="linearGradient4341"
       gradientUnits="userSpaceOnUse"
       x1="22.892584"
       y1="0.90414524"
       x2="22.892584"
       y2="21.132059"
       gradientTransform="matrix(0.644962,0,0,-1.1832362,59.235153,43.983663)" />
    <linearGradient
       inkscape:collect="always"
       xlink:href="#linearGradient3172"
       id="linearGradient4344"
       gradientUnits="userSpaceOnUse"
       gradientTransform="matrix(0.644962,0,0,1.1832362,9.235153,4.016337)"
       x1="22.892584"
       y1="0.90414524"
       x2="22.892584"
       y2="21.132059" />
  </defs>
  <sodipodi:namedview
     id="base"
     pagecolor="#ffffff"
     bordercolor="#666666"
     borderopacity="1.0"
     inkscape:pageopacity="0.0"
     inkscape:pageshadow="2"
     inkscape:zoom="7"
     inkscape:cx="24"
     inkscape:cy="24"
     inkscape:current-layer="layer1"
     showgrid="true"
     inkscape:grid-bbox="true"
     inkscape:document-units="px"
     inkscape:window-width="1364"
     inkscape:window-height="721"
     inkscape:window-x="0"
     inkscape:window-y="23"
     inkscape:window-maximized="1" />
  <metadata
     id="metadata4193">
    <rdf:RDF>
      <cc:Work
         rdf:about="">
        <dc:format>image/svg+xml</dc:format>
        <dc:type
           rdf:resource="http://purl.org/dc/dcmitype/StillImage" />
        <dc:title></dc:title>
      </cc:Work>
    </rdf:RDF>
  </metadata>
  <g
     id="layer1"
     inkscape:label="Layer 1"
     inkscape:groupmode="layer">
    <path
       style="fill:#000000;fill-opacity:1;fill-rule:evenodd;stroke:none"
       d="m 4,4 0,40 8.703188,0 C 7.554335,35.856664 11.675587,26.507863 13.445992,17.494274 13.919422,17.410844 14.386279,17.343832 14.84494,17.308573 13.095325,26.379234 8.880833,35.80082 14.064996,44 l 0.309501,0 27.855153,0 c -7.81,-12.352162 5.694804,-27.484243 0,-40 L 14.374497,4 14.064996,4 c 0.552099,1.213379 0.92324,2.456378 1.151346,3.714021 -0.448507,0.01696 -0.891365,0.05958 -1.337047,0.11142 C 13.653169,6.529111 13.271744,5.249543 12.703188,4 L 4,4 z m 22.593624,2.401733 c 1.03909,-0.0047 2.206124,0.05729 3.51594,0.198081 -1.923035,0.0041 -7.868645,1.426548 -10.560199,4.048283 C 16.256402,9.18514 11.864113,9.73747 7.033117,11.588982 10.140474,8.420013 14.349321,7.938439 18.843702,8.481585 c 1.12611,-0.843951 3.247194,-2.05936 7.749922,-2.079852 z m 5.174869,3.689261 c 1.199492,-0.01177 2.49283,0.102456 3.862581,0.396162 -2.357969,0.07238 -9.360774,2.651625 -12.132467,7.093779 -4.171243,-2.087363 -9.089299,-1.47462 -15.165583,1.95605 1.523152,-3.677859 9.908626,-6.453245 14.001857,-5.323429 0.750054,-1.545578 4.235813,-4.071546 9.433612,-4.122562 z m -16.713092,0.359022 c 0.148363,-0.0019 0.296785,-0.0031 0.445682,0 0.02983,0.934242 -0.0191,1.873201 -0.09904,2.822655 -0.459406,0.06305 -0.914132,0.145564 -1.374188,0.247602 0.0942,-1.016113 0.140979,-2.021779 0.111421,-3.020737 0.302993,-0.02356 0.611001,-0.04556 0.916125,-0.04952 z m 5.682451,12.924791 c 0.167497,-0.005 0.32948,-0.0063 0.495203,0 1.325788,0.05056 2.660463,0.481704 3.65212,1.473228 0.991657,0.991523 1.475819,2.520743 1.275147,4.147322 -0.175492,1.42301 -1.034649,2.50459 -1.86939,3.169298 -0.834742,0.664708 -1.674891,1.071723 -2.228413,1.436088 -0.553521,0.364364 -0.69774,0.572961 -0.730424,0.693284 -0.03268,0.120322 -0.07486,0.564684 0.594244,1.683689 0.09639,0.161173 0.494141,0.525871 1.250386,0.792324 0.756246,0.266453 1.806496,0.437918 2.909316,0.470443 2.205645,0.06505 4.671212,-0.514182 5.818632,-1.299907 a 1.6517189,1.6517189 0 1 1 1.869391,2.723615 c -2.133425,1.460919 -5.036679,1.962882 -7.787063,1.88177 -1.375194,-0.04056 -2.709005,-0.248991 -3.899722,-0.668524 -1.190716,-0.419532 -2.309684,-1.05613 -2.995976,-2.203652 -0.911094,-1.523735 -1.294535,-2.944121 -0.940885,-4.246363 0.35365,-1.302242 1.31483,-2.067549 2.104611,-2.587434 0.789781,-0.519886 1.524844,-0.899678 1.980811,-1.262767 0.455967,-0.363089 0.60309,-0.54783 0.656144,-0.978026 0.103331,-0.837561 -0.08414,-1.161243 -0.346642,-1.423708 -0.262501,-0.262464 -0.751603,-0.481479 -1.436088,-0.507582 -1.36897,-0.0522 -3.175161,0.754905 -3.961622,2.290312 a 1.6555072,1.6555072 0 1 1 -2.946456,-1.510368 c 1.355925,-2.64717 4.024208,-3.997646 6.536676,-4.073042 z"
       id="path18506" />
    <path
       style="fill:url(#linearGradient4344);fill-opacity:1;stroke:none"
       d="m 22.1875,29.625 c -1.766175,-0.07031 -3.485869,-0.269987 -5.125,-0.53125 a 1.6555072,1.6555072 0 0 0 0.09375,-0.125 c 0.786461,-1.535407 2.56853,-2.3647 3.9375,-2.3125 0.684485,0.0261 1.174999,0.268786 1.4375,0.53125 0.262502,0.262465 0.478331,0.568689 0.375,1.40625 -0.05305,0.430196 -0.200283,0.605661 -0.65625,0.96875 -0.01872,0.0149 -0.04286,0.04753 -0.0625,0.0625 z m 3.84375,-0.03125 C 26.08518,29.397646 26.13018,29.211426 26.15625,29 26.356922,27.373421 25.866657,25.835273 24.875,24.84375 23.883343,23.852226 22.544538,23.42556 21.21875,23.375 c -0.165723,-0.0063 -0.301253,-0.005 -0.46875,0 -2.512468,0.0754 -5.206575,1.41533 -6.5625,4.0625 A 1.6555072,1.6555072 0 0 0 14.03125,28.5 c -0.563433,-0.136079 -1.11723,-0.279628 -1.65625,-0.4375 0.728809,-3.571877 1.782291,-7.191139 2.46875,-10.75 -0.458661,0.03526 -0.93282,0.10407 -1.40625,0.1875 -0.660044,3.360456 -1.663644,6.751197 -2.375,10.125 C 8.25859,26.67447 5.842952,25.432088 4,23.96875 L 4,4 12.71875,4 C 13.287306,5.249543 13.648874,6.51617 13.875,7.8125 14.320682,7.76066 14.770243,7.73571 15.21875,7.71875 14.990644,6.461107 14.614599,5.213379 14.0625,4 L 14.375,4 42.21875,4 C 45.323,10.822367 42.743447,18.434351 41,25.9375 c -5.48e-4,0.0024 -0.0307,-0.0024 -0.03125,0 -3.89144,2.051876 -9.130097,3.396992 -14.9375,3.65625 z M 8.34375,19.53125 C 14.420034,16.10058 19.328757,15.506387 23.5,17.59375 26.271693,13.151596 33.267031,10.57238 35.625,10.5 c -1.369751,-0.293706 -2.644258,-0.41802 -3.84375,-0.40625 -5.197799,0.05102 -8.687446,2.579422 -9.4375,4.125 -4.093231,-1.129816 -12.476848,1.634641 -14,5.3125 z m 5.6875,-6 c 0.460056,-0.102038 0.915594,-0.18695 1.375,-0.25 0.07994,-0.949454 0.12358,-1.909508 0.09375,-2.84375 -0.148897,-0.0031 -0.289137,-0.0019 -0.4375,0 -0.305124,0.004 -0.634507,0.03894 -0.9375,0.0625 0.02956,0.998958 4.5e-4,2.015137 -0.09375,3.03125 z m -7,-1.9375 c 4.830996,-1.851512 9.238287,-2.400457 12.53125,-0.9375 2.691554,-2.621735 8.639465,-4.0584 10.5625,-4.0625 -1.309816,-0.140791 -2.49216,-0.1922 -3.53125,-0.1875 -4.502728,0.02049 -6.62389,1.218549 -7.75,2.0625 -4.494381,-0.543146 -8.705143,-0.04397 -11.8125,3.125 z"
       id="path4330" />
    <g
       transform="matrix(0.1337942,0,0,-0.1337942,31.527762,89.04701)"
       inkscape:label="Calque 1"
       id="g4332" />
    <g
       transform="matrix(0.1672428,0,0,-0.1672428,38.442916,104.62323)"
       inkscape:label="Calque 1"
       id="g4334" />
  </g>
</svg>
