<?xml version="1.0" encoding="UTF-8" standalone="no"?>
<!-- Created with Inkscape (http://www.inkscape.org/) -->

<svg
   xmlns:dc="http://purl.org/dc/elements/1.1/"
   xmlns:cc="http://creativecommons.org/ns#"
   xmlns:rdf="http://www.w3.org/1999/02/22-rdf-syntax-ns#"
   xmlns:svg="http://www.w3.org/2000/svg"
   xmlns="http://www.w3.org/2000/svg"
   xmlns:xlink="http://www.w3.org/1999/xlink"
   xmlns:sodipodi="http://sodipodi.sourceforge.net/DTD/sodipodi-0.dtd"
   xmlns:inkscape="http://www.inkscape.org/namespaces/inkscape"
   width="48px"
   height="48px"
   id="svg3497"
   version="1.1"
   inkscape:version="0.47 r22583"
   sodipodi:docname="Nouveau document 7">
  <defs
     id="defs3499">
    <linearGradient
       id="linearGradient3172">
      <stop
         id="stop3174"
         offset="0"
         style="stop-color:#4d4d4d;stop-opacity:1;" />
      <stop
         id="stop3176"
         offset="1"
         style="stop-color:#4d4d4d;stop-opacity:0;" />
    </linearGradient>
    <linearGradient
       inkscape:collect="always"
       xlink:href="#linearGradient3172"
       id="linearGradient3666"
       gradientUnits="userSpaceOnUse"
       gradientTransform="matrix(0.644962,0,0,1.1832362,9.23515,4.016337)"
       x1="22.892584"
       y1="0.90414524"
       x2="22.892584"
       y2="21.132059" />
  </defs>
  <sodipodi:namedview
     id="base"
     pagecolor="#ffffff"
     bordercolor="#666666"
     borderopacity="1.0"
     inkscape:pageopacity="0.0"
     inkscape:pageshadow="2"
     inkscape:zoom="7"
     inkscape:cx="34.214286"
     inkscape:cy="24"
     inkscape:current-layer="layer1"
     showgrid="true"
     inkscape:grid-bbox="true"
     inkscape:document-units="px"
     inkscape:window-width="1364"
     inkscape:window-height="721"
     inkscape:window-x="0"
     inkscape:window-y="23"
     inkscape:window-maximized="1" />
  <metadata
     id="metadata3502">
    <rdf:RDF>
      <cc:Work
         rdf:about="">
        <dc:format>image/svg+xml</dc:format>
        <dc:type
           rdf:resource="http://purl.org/dc/dcmitype/StillImage" />
        <dc:title></dc:title>
      </cc:Work>
    </rdf:RDF>
  </metadata>
  <g
     id="layer1"
     inkscape:label="Layer 1"
     inkscape:groupmode="layer">
    <path
       style="fill:#000000;fill-opacity:1;fill-rule:evenodd;stroke:none"
       d="m 4,4 0,40 8.703188,0 C 7.554335,35.856664 11.675587,26.507863 13.445992,17.494274 13.919421,17.410844 14.386279,17.343832 14.844939,17.308573 13.095325,26.379234 8.880833,35.80082 14.064995,44 l 0.309502,0 27.855153,0 c -7.81,-12.352162 5.694804,-27.484243 0,-40 L 14.374497,4 14.064995,4 c 0.5521,1.213378 0.92324,2.456378 1.151347,3.71402 C 14.767834,7.73098 14.324977,7.7736 13.879294,7.825441 13.653169,6.529111 13.271744,5.249543 12.703188,4 L 4,4 z m 22.593624,2.401733 c 1.03909,-0.0047 2.206124,0.05729 3.51594,0.198081 -1.923035,0.0041 -7.868645,1.426548 -10.560198,4.048283 C 16.256402,9.18514 11.864112,9.73747 7.033117,11.588982 10.140474,8.420013 14.349321,7.938439 18.843701,8.481585 19.969812,7.637634 22.090896,6.422224 26.593624,6.401733 z m 5.174869,3.68926 c 1.199492,-0.01177 2.49283,0.102456 3.862581,0.396163 -2.357969,0.07238 -9.360774,2.651625 -12.132467,7.093779 -4.171243,-2.087363 -9.089299,-1.47462 -15.165583,1.95605 1.523152,-3.677859 9.908626,-6.453245 14.001857,-5.323429 0.750054,-1.545578 4.235813,-4.071546 9.433612,-4.122563 z m -16.713092,0.359022 c 0.148362,-0.0019 0.296785,-0.0031 0.445682,0 0.02983,0.934242 -0.0191,1.873202 -0.09904,2.822656 -0.459406,0.06305 -0.914133,0.145564 -1.374188,0.247601 0.09419,-1.016112 0.140978,-2.021778 0.111421,-3.020736 0.302992,-0.02356 0.611001,-0.04556 0.916125,-0.04952 z m -1.126587,12.800991 1.287528,0 18.433921,0 1.275147,0 0,1.287527 0,14.880842 0,1.275147 -1.275147,0 -18.433921,0 -1.287528,0 0,-1.275147 0,-14.880842 0,-1.287527 z m 2.562675,2.562674 0,4.704426 6.561436,0 0,-4.704426 -6.561436,0 z m 9.12411,0 0,4.704426 6.747137,0 0,-4.704426 -6.747137,0 z m -9.12411,7.2671 0,5.051068 6.561436,0 0,-5.051068 -6.561436,0 z m 9.12411,0 0,5.051068 6.747137,0 0,-5.051068 -6.747137,0 z"
       id="path18506" />
    <path
       style="fill:url(#linearGradient3666);fill-opacity:1;stroke:none"
       d="M 23.0625,29.625 C 20.7792,29.578005 18.57668,29.360975 16.5,29 l 0,-3.1875 6.5625,0 0,3.8125 z m 2.5625,0 0,-3.8125 6.75,0 0,3.03125 c -2.12263,0.417902 -4.39234,0.697119 -6.75,0.78125 z M 13.9375,28.46875 c -0.52991,-0.129493 -1.05434,-0.257416 -1.5625,-0.40625 0.72881,-3.571877 1.78229,-7.191139 2.46875,-10.75 -0.45866,0.03526 -0.93282,0.10407 -1.40625,0.1875 -0.66004,3.360456 -1.66364,6.751197 -2.375,10.125 C 8.25859,26.67447 5.84295,25.432088 4,23.96875 L 4,4 12.71875,4 C 13.2873,5.249543 13.64888,6.51617 13.875,7.8125 14.32069,7.76066 14.77024,7.73571 15.21875,7.71875 14.99064,6.461108 14.6146,5.213378 14.0625,4 L 14.375,4 42.21875,4 C 45.323,10.822367 42.74345,18.434351 41,25.9375 c -5.5e-4,0.0024 -0.0307,-0.0024 -0.03125,0 -1.75856,0.92725 -3.79838,1.707547 -6.03125,2.3125 l 0,-3.71875 0,-1.28125 -1.28125,0 -18.4375,0 -1.28125,0 0,1.28125 0,3.9375 z m -5.59375,-8.9375 c 6.07629,-3.43067 10.985,-4.024863 15.15625,-1.9375 2.77169,-4.442154 9.76703,-7.02137 12.125,-7.09375 -1.36975,-0.293707 -2.64426,-0.41802 -3.84375,-0.40625 -5.1978,0.05102 -8.68745,2.579422 -9.4375,4.125 -4.09323,-1.129816 -12.47684,1.634641 -14,5.3125 z m 5.6875,-6 c 0.46005,-0.102037 0.9156,-0.18695 1.375,-0.25 0.0799,-0.949454 0.12355,-1.909508 0.09375,-2.84375 -0.14889,-0.0031 -0.28914,-0.0019 -0.4375,0 -0.30512,0.004 -0.63451,0.03894 -0.9375,0.0625 0.02955,0.998958 4.5e-4,2.015138 -0.09375,3.03125 z m -7,-1.9375 c 4.83099,-1.851512 9.23828,-2.400457 12.53125,-0.9375 2.69155,-2.621735 8.63947,-4.0584 10.5625,-4.0625 -1.30981,-0.140791 -2.49216,-0.1922 -3.53125,-0.1875 -4.50272,0.02049 -6.62389,1.218549 -7.75,2.0625 -4.49438,-0.543146 -8.70515,-0.04397 -11.8125,3.125 z"
       id="path3652" />
    <g
       transform="matrix(0.1337942,0,0,-0.1337942,81.527762,89.04701)"
       inkscape:label="Calque 1"
       id="g3654" />
    <g
       transform="matrix(0.1672428,0,0,-0.1672428,88.442916,104.62323)"
       inkscape:label="Calque 1"
       id="g3656" />
  </g>
</svg>
