<?xml version="1.0" encoding="UTF-8" standalone="no"?>
<!-- Created with Inkscape (http://www.inkscape.org/) -->

<svg
   xmlns:dc="http://purl.org/dc/elements/1.1/"
   xmlns:cc="http://creativecommons.org/ns#"
   xmlns:rdf="http://www.w3.org/1999/02/22-rdf-syntax-ns#"
   xmlns:svg="http://www.w3.org/2000/svg"
   xmlns="http://www.w3.org/2000/svg"
   xmlns:xlink="http://www.w3.org/1999/xlink"
   xmlns:sodipodi="http://sodipodi.sourceforge.net/DTD/sodipodi-0.dtd"
   xmlns:inkscape="http://www.inkscape.org/namespaces/inkscape"
   width="48px"
   height="48px"
   id="svg5529"
   version="1.1"
   inkscape:version="0.47 r22583"
   sodipodi:docname="ooo.svg">
  <defs
     id="defs5531">
    <linearGradient
       gradientUnits="userSpaceOnUse"
       y2="21.132059"
       x2="22.892584"
       y1="0.90414524"
       x1="22.892584"
       id="linearGradient3178-8"
       xlink:href="#linearGradient3172-3"
       inkscape:collect="always" />
    <linearGradient
       id="linearGradient3172-3">
      <stop
         id="stop3174-3"
         offset="0"
         style="stop-color:#4d4d4d;stop-opacity:1;" />
      <stop
         id="stop3176-3"
         offset="1"
         style="stop-color:#4d4d4d;stop-opacity:0;" />
    </linearGradient>
    <linearGradient
       inkscape:collect="always"
       xlink:href="#linearGradient3172-3"
       id="linearGradient3358"
       gradientUnits="userSpaceOnUse"
       x1="22.892584"
       y1="0.90414524"
       x2="22.892584"
       y2="21.132059" />
    <linearGradient
       inkscape:collect="always"
       xlink:href="#linearGradient3172-3"
       id="linearGradient3363"
       gradientUnits="userSpaceOnUse"
       x1="22.892584"
       y1="0.90414524"
       x2="22.892584"
       y2="21.132059"
       gradientTransform="matrix(0.644962,0,0,-1.1832362,-40.764847,43.983663)" />
    <linearGradient
       inkscape:collect="always"
       xlink:href="#linearGradient3172-3"
       id="linearGradient3366"
       gradientUnits="userSpaceOnUse"
       gradientTransform="matrix(0.644962,0,0,1.1832362,9.235153,4.016337)"
       x1="22.892584"
       y1="0.90414524"
       x2="22.892584"
       y2="21.132059" />
  </defs>
  <sodipodi:namedview
     id="base"
     pagecolor="#ffffff"
     bordercolor="#666666"
     borderopacity="1.0"
     inkscape:pageopacity="0.0"
     inkscape:pageshadow="2"
     inkscape:zoom="7"
     inkscape:cx="24"
     inkscape:cy="24"
     inkscape:current-layer="layer1"
     showgrid="true"
     inkscape:grid-bbox="true"
     inkscape:document-units="px"
     inkscape:window-width="1364"
     inkscape:window-height="721"
     inkscape:window-x="0"
     inkscape:window-y="23"
     inkscape:window-maximized="1" />
  <metadata
     id="metadata5534">
    <rdf:RDF>
      <cc:Work
         rdf:about="">
        <dc:format>image/svg+xml</dc:format>
        <dc:type
           rdf:resource="http://purl.org/dc/dcmitype/StillImage" />
        <dc:title></dc:title>
      </cc:Work>
    </rdf:RDF>
  </metadata>
  <g
     id="layer1"
     inkscape:label="Layer 1"
     inkscape:groupmode="layer">
    <path
       style="fill:#000000;fill-opacity:1;fill-rule:evenodd;stroke:none"
       d="m 4,4 0,40 8.71875,0 C 7.569897,35.856664 11.667095,26.513589 13.4375,17.5 13.91093,17.41657 14.385089,17.347759 14.84375,17.3125 13.094135,26.383161 8.878337,35.80082 14.0625,44 l 0.3125,0 27.84375,0 c -7.81,-12.352162 5.694804,-27.484243 0,-40 L 14.375,4 14.0625,4 c 0.552099,1.213378 0.928144,2.461108 1.15625,3.71875 C 14.770243,7.73571 14.320682,7.760669 13.875,7.8125 13.648874,6.51617 13.287306,5.249543 12.71875,4 L 4,4 z m 22.59375,2.40625 c 1.03909,-0.0047 2.221434,0.04671 3.53125,0.1875 -1.923035,0.0041 -7.870946,1.440765 -10.5625,4.0625 -3.292963,-1.462957 -7.700254,-0.914012 -12.53125,0.9375 3.107357,-3.168969 7.318119,-3.668146 11.8125,-3.125 1.12611,-0.843951 3.247272,-2.042009 7.75,-2.0625 z m 5.1875,3.6875 c 1.199492,-0.01177 2.473999,0.112543 3.84375,0.40625 -2.357969,0.07238 -9.353307,2.651596 -12.125,7.09375 -4.171243,-2.087363 -9.079966,-1.49317 -15.15625,1.9375 1.523152,-3.677859 9.906769,-6.442316 14,-5.3125 0.750054,-1.545578 4.239701,-4.073984 9.4375,-4.125 z M 15.0625,10.4375 c 0.148363,-0.0019 0.288603,-0.0031 0.4375,0 0.02983,0.934242 -0.01381,1.894296 -0.09375,2.84375 -0.459406,0.06305 -0.914944,0.147963 -1.375,0.25 0.0942,-1.016112 0.123308,-2.032292 0.09375,-3.03125 0.302993,-0.02356 0.632376,-0.05854 0.9375,-0.0625 z m 3.59375,10.09375 a 1.9312915,1.9312915 0 0 1 0.1875,0 l 14.28125,0 a 1.9375,1.9375 0 0 1 0,3.875 l -10.21875,0 3.8125,4.78125 a 1.9312915,1.9312915 0 0 1 0,2.40625 l -3.9375,5.0625 10.34375,0 a 1.9375,1.9375 0 0 1 0,3.875 l -14.28125,0 a 1.9312915,1.9312915 0 0 1 -1.53125,-3.125 l 5.4375,-7 -5.40625,-6.71875 a 1.9312915,1.9312915 0 0 1 1.3125,-3.15625 z"
       id="path18506" />
    <g
       transform="matrix(0.1337942,0,0,-0.1337942,31.527762,89.04701)"
       inkscape:label="Calque 1"
       id="g5652" />
    <g
       transform="matrix(0.1672428,0,0,-0.1672428,38.442916,104.62323)"
       inkscape:label="Calque 1"
       id="g5654" />
    <path
       style="fill:url(#linearGradient3366);fill-opacity:1;stroke:none"
       d="M 21.5625,29.59375 C 18.259754,29.416718 15.144668,28.8737 12.375,28.0625 c 0.729054,-3.571142 1.782291,-7.191139 2.46875,-10.75 -0.458661,0.03526 -0.93282,0.10407 -1.40625,0.1875 -0.660012,3.360292 -1.667846,6.752356 -2.375,10.125 C 8.25859,26.67447 5.842952,25.432088 4,23.96875 L 4,4 12.71875,4 C 13.287306,5.249543 13.648874,6.51617 13.875,7.8125 14.320682,7.76067 14.770243,7.73571 15.21875,7.71875 14.990644,6.461108 14.614599,5.213378 14.0625,4 L 14.375,4 42.21875,4 C 45.323,10.822367 42.743447,18.434351 41,25.9375 c -5.49e-4,0.0024 -0.0307,-0.0024 -0.03125,0 -3.688458,1.944847 -8.586728,3.272305 -14.03125,3.625 a 1.9312915,1.9312915 0 0 0 -0.21875,-0.375 l -3.8125,-4.78125 10.21875,0 a 1.9375,1.9375 0 0 0 0,-3.875 l -14.28125,0 a 1.9312915,1.9312915 0 0 0 -0.1875,0 1.9312915,1.9312915 0 0 0 -1.3125,3.15625 l 4.75,5.90625 c -0.176752,-0.0074 -0.355593,0.0094 -0.53125,0 z M 8.34375,19.53125 C 14.420034,16.10058 19.328757,15.506387 23.5,17.59375 26.271693,13.151596 33.267031,10.57238 35.625,10.5 c -1.369751,-0.293707 -2.644258,-0.41802 -3.84375,-0.40625 -5.197799,0.05102 -8.687446,2.579422 -9.4375,4.125 -4.093231,-1.129816 -12.476848,1.634641 -14,5.3125 z m 5.6875,-6 c 0.460056,-0.102037 0.915594,-0.18695 1.375,-0.25 0.07994,-0.949454 0.12358,-1.909508 0.09375,-2.84375 -0.148897,-0.0031 -0.289137,-0.0019 -0.4375,0 -0.305124,0.004 -0.634507,0.03894 -0.9375,0.0625 0.02956,0.998958 4.5e-4,2.015138 -0.09375,3.03125 z m -7,-1.9375 c 4.830996,-1.851512 9.238287,-2.400457 12.53125,-0.9375 2.691554,-2.621735 8.639465,-4.0584 10.5625,-4.0625 -1.309816,-0.14079 -2.49216,-0.1922 -3.53125,-0.1875 -4.502728,0.02049 -6.62389,1.218549 -7.75,2.0625 -4.494381,-0.543146 -8.705143,-0.04397 -11.8125,3.125 z"
       id="path3352" />
    <g
       transform="matrix(0.1337942,0,0,-0.1337942,-68.472238,89.04701)"
       inkscape:label="Calque 1"
       id="g3354" />
    <g
       transform="matrix(0.1672428,0,0,-0.1672428,-61.557084,104.62323)"
       inkscape:label="Calque 1"
       id="g3356" />
  </g>
</svg>
