<?xml version="1.0" encoding="UTF-8" standalone="no"?>
<!-- Created with Inkscape (http://www.inkscape.org/) -->
<svg
   xmlns:dc="http://purl.org/dc/elements/1.1/"
   xmlns:cc="http://creativecommons.org/ns#"
   xmlns:rdf="http://www.w3.org/1999/02/22-rdf-syntax-ns#"
   xmlns:svg="http://www.w3.org/2000/svg"
   xmlns="http://www.w3.org/2000/svg"
   xmlns:xlink="http://www.w3.org/1999/xlink"
   xmlns:sodipodi="http://sodipodi.sourceforge.net/DTD/sodipodi-0.dtd"
   xmlns:inkscape="http://www.inkscape.org/namespaces/inkscape"
   width="48px"
   height="48px"
   id="svg4289"
   sodipodi:version="0.32"
   inkscape:version="0.46"
   sodipodi:docbase="/home/lapo/Icone/cvs/gnome-icon-theme/scalable/categories"
   sodipodi:docname="drive-harddisk.svg"
   inkscape:output_extension="org.inkscape.output.svg.inkscape">
  <defs
     id="defs4291">
    <linearGradient
       id="linearGradient3155"
       inkscape:collect="always">
      <stop
         id="stop3157"
         offset="0"
         style="stop-color:#4d4d4d;stop-opacity:1;" />
      <stop
         id="stop3159"
         offset="1"
         style="stop-color:#4d4d4d;stop-opacity:0;" />
    </linearGradient>
    <linearGradient
       inkscape:collect="always"
       xlink:href="#linearGradient3155"
       id="linearGradient2722"
       gradientUnits="userSpaceOnUse"
       gradientTransform="matrix(0.1721311,0,0,0.1737703,-32.065572,-64.144315)"
       x1="325.71429"
       y1="369.50507"
       x2="325.71429"
       y2="546.64789" />
  </defs>
  <sodipodi:namedview
     id="base"
     pagecolor="#ffffff"
     bordercolor="#666"
     borderopacity="0.31372549"
     inkscape:pageopacity="0.0"
     inkscape:pageshadow="2"
     inkscape:zoom="5.656854"
     inkscape:cx="37.533214"
     inkscape:cy="26.385538"
     inkscape:current-layer="layer1"
     showgrid="true"
     inkscape:grid-bbox="true"
     inkscape:document-units="px"
     inkscape:window-width="1019"
     inkscape:window-height="732"
     inkscape:window-x="259"
     inkscape:window-y="19"
     inkscape:showpageshadow="false" />
  <metadata
     id="metadata4294">
    <rdf:RDF>
      <cc:Work
         rdf:about="">
        <dc:format>image/svg+xml</dc:format>
        <dc:type
           rdf:resource="http://purl.org/dc/dcmitype/StillImage" />
        <dc:title>System Preferences</dc:title>
        <dc:creator>
          <cc:Agent>
            <dc:title>Andreas Nilsson</dc:title>
          </cc:Agent>
        </dc:creator>
        <dc:subject>
          <rdf:Bag>
            <rdf:li>category</rdf:li>
            <rdf:li>system</rdf:li>
            <rdf:li>preferences</rdf:li>
            <rdf:li>settings</rdf:li>
            <rdf:li>control center</rdf:li>
          </rdf:Bag>
        </dc:subject>
        <dc:contributor>
          <cc:Agent>
            <dc:title>Jakub Steiner</dc:title>
          </cc:Agent>
        </dc:contributor>
        <cc:license
           rdf:resource="http://creativecommons.org/licenses/GPL/2.0/" />
      </cc:Work>
      <cc:License
         rdf:about="http://creativecommons.org/licenses/GPL/2.0/">
        <cc:permits
           rdf:resource="http://web.resource.org/cc/Reproduction" />
        <cc:permits
           rdf:resource="http://web.resource.org/cc/Distribution" />
        <cc:requires
           rdf:resource="http://web.resource.org/cc/Notice" />
        <cc:permits
           rdf:resource="http://web.resource.org/cc/DerivativeWorks" />
        <cc:requires
           rdf:resource="http://web.resource.org/cc/ShareAlike" />
        <cc:requires
           rdf:resource="http://web.resource.org/cc/SourceCode" />
      </cc:License>
    </rdf:RDF>
  </metadata>
  <g
     id="layer1"
     inkscape:label="Layer 1"
     inkscape:groupmode="layer">
    <g
       id="g2453"
       inkscape:label="Calque 1"
       transform="matrix(0.1337942,0,0,0.1337942,-18.472238,-41.04701)" />
    <path
       style="fill:#000000;fill-opacity:1;fill-rule:nonzero;stroke:none;stroke-width:1;stroke-linecap:butt;stroke-linejoin:miter;stroke-miterlimit:4;stroke-dasharray:none;stroke-dashoffset:0;stroke-opacity:1"
       d="M 4,34.567501 C 4.5576687,35.996192 4.8673137,36.847585 6.497475,37.128987 L 17.690946,37.167776 L 18.559692,37.170787 L 41.414419,37.249985 C 42.804161,37.254801 43.924216,36.121565 43.928945,34.705867 L 43.999985,13.432514 C 44.004715,12.016818 42.89225,10.875844 41.50251,10.871028 L 18.647782,10.791829 L 17.779036,10.788818 L 6.585566,10.75003 C 5.1958237,10.745213 4.0757675,11.87845 4.07104,13.294147 L 4,34.567501 z M 5.708745,23.170774 L 5.7361375,14.967768 C 5.740865,13.552069 6.86092,12.418835 8.250664,12.423649 L 14.432131,12.44507 L 11.815092,15.669589 L 17.957232,27.467938 L 8.963251,19.165595 L 5.708745,23.170774 z M 7.836632,16.336557 C 7.833571,17.253262 8.568532,17.972908 9.46843,17.976025 C 10.368327,17.979142 11.108079,17.26461 11.11114,16.347904 C 11.1142,15.431201 10.379352,14.677517 9.479455,14.6744 C 8.579557,14.671281 7.839694,15.419853 7.836632,16.336557 z M 18.837346,24.067212 C 18.855986,18.485396 23.315386,13.973515 28.794867,13.992504 C 34.274347,14.011492 38.703512,18.554175 38.684872,24.13599 C 38.666232,29.717803 34.206831,34.229685 28.727351,34.210698 C 23.247869,34.191711 18.818706,29.649026 18.837346,24.067212 z M 26.088042,24.092338 C 26.082835,25.651546 27.32129,26.921746 28.851916,26.92705 C 30.382539,26.932355 31.62945,25.670769 31.634657,24.111557 C 31.639865,22.552348 30.401407,21.282151 28.870784,21.276846 C 27.340159,21.271543 26.09325,22.533129 26.088042,24.092338 z"
       id="path1373" />
    <g
       id="g2913"
       inkscape:label="face"
       style="display:inline"
       transform="matrix(7.3298479e-2,0,0,7.3298479e-2,75.290771,27.973668)" />
    <g
       id="g2915"
       inkscape:label="inner stroke"
       style="display:inline"
       transform="matrix(7.3298479e-2,0,0,7.3298479e-2,75.290771,27.973668)" />
    <path
       style="fill:url(#linearGradient2722);fill-opacity:1"
       d="M 6.577812,10.750015 C 5.1880675,10.745198 4.08254,11.89756 4.0778125,13.313257 L 4.03875,26.878726 C 8.72401,29.031112 14.715894,30.481541 21.343437,30.782742 C 19.785475,28.990469 18.834817,26.660353 18.843437,24.078877 C 18.862072,18.497062 23.324894,13.964655 28.804375,13.983644 C 34.283857,14.002632 38.705827,18.536495 38.687187,24.118311 C 38.681024,25.964428 38.173936,27.718531 37.32,29.205362 C 39.739724,28.587702 41.965911,27.833319 43.960625,26.918161 L 43.999687,13.431561 C 44.004421,12.015865 42.889427,10.873135 41.499687,10.868318 L 18.648125,10.789449 L 17.78875,10.789449 L 6.577812,10.750015 z M 8.2575,12.406264 L 14.429375,12.445698 L 11.812187,15.679327 L 17.945,27.470244 L 8.960625,19.149563 L 5.7184375,23.171883 L 5.7184375,14.969506 C 5.7231675,13.553806 6.867756,12.40145 8.2575,12.406264 z M 9.155937,14.693465 C 8.41142,14.84719 7.830491,15.547598 7.827812,16.349714 C 7.824752,17.266418 8.56854,17.963412 9.468437,17.966528 C 10.368335,17.969648 11.106001,17.266419 11.109062,16.349714 C 11.112124,15.433011 10.368335,14.696582 9.468437,14.693465 C 9.35595,14.693076 9.262297,14.671504 9.155937,14.693465 z M 28.8825,21.279027 C 27.351872,21.273723 26.075207,22.519668 26.07,24.078877 C 26.064794,25.638084 27.312811,26.912857 28.843437,26.918161 C 30.374062,26.923466 31.611667,25.677522 31.616875,24.118311 C 31.622081,22.559102 30.413124,21.284332 28.8825,21.279027 z"
       id="path2712" />
  </g>
</svg>
