<?xml version="1.0" encoding="UTF-8" standalone="no"?>
<!-- Created with Inkscape (http://www.inkscape.org/) -->
<svg
   xmlns:dc="http://purl.org/dc/elements/1.1/"
   xmlns:cc="http://creativecommons.org/ns#"
   xmlns:rdf="http://www.w3.org/1999/02/22-rdf-syntax-ns#"
   xmlns:svg="http://www.w3.org/2000/svg"
   xmlns="http://www.w3.org/2000/svg"
   xmlns:xlink="http://www.w3.org/1999/xlink"
   xmlns:sodipodi="http://sodipodi.sourceforge.net/DTD/sodipodi-0.dtd"
   xmlns:inkscape="http://www.inkscape.org/namespaces/inkscape"
   width="48px"
   height="48px"
   id="svg4289"
   sodipodi:version="0.32"
   inkscape:version="0.46"
   sodipodi:docbase="/home/lapo/Icone/cvs/gnome-icon-theme/scalable/categories"
   sodipodi:docname="totem.svg"
   inkscape:output_extension="org.inkscape.output.svg.inkscape">
  <defs
     id="defs4291">
    <linearGradient
       id="linearGradient3155"
       inkscape:collect="always">
      <stop
         id="stop3157"
         offset="0"
         style="stop-color:#4d4d4d;stop-opacity:1;" />
      <stop
         id="stop3159"
         offset="1"
         style="stop-color:#4d4d4d;stop-opacity:0;" />
    </linearGradient>
    <linearGradient
       inkscape:collect="always"
       xlink:href="#linearGradient3155"
       id="linearGradient2570"
       gradientUnits="userSpaceOnUse"
       gradientTransform="matrix(0.1721287,0,0,0.1720945,-32.064528,-63.289976)"
       x1="325.71429"
       y1="369.50507"
       x2="325.71429"
       y2="546.64789" />
  </defs>
  <sodipodi:namedview
     id="base"
     pagecolor="#ffffff"
     bordercolor="#666"
     borderopacity="0.31372549"
     inkscape:pageopacity="0.0"
     inkscape:pageshadow="2"
     inkscape:zoom="5.656854"
     inkscape:cx="5.8688049"
     inkscape:cy="44.134248"
     inkscape:current-layer="layer1"
     showgrid="true"
     inkscape:grid-bbox="true"
     inkscape:document-units="px"
     inkscape:window-width="1019"
     inkscape:window-height="732"
     inkscape:window-x="259"
     inkscape:window-y="24"
     inkscape:showpageshadow="false" />
  <metadata
     id="metadata4294">
    <rdf:RDF>
      <cc:Work
         rdf:about="">
        <dc:format>image/svg+xml</dc:format>
        <dc:type
           rdf:resource="http://purl.org/dc/dcmitype/StillImage" />
        <dc:title>System Preferences</dc:title>
        <dc:creator>
          <cc:Agent>
            <dc:title>Andreas Nilsson</dc:title>
          </cc:Agent>
        </dc:creator>
        <dc:subject>
          <rdf:Bag>
            <rdf:li>category</rdf:li>
            <rdf:li>system</rdf:li>
            <rdf:li>preferences</rdf:li>
            <rdf:li>settings</rdf:li>
            <rdf:li>control center</rdf:li>
          </rdf:Bag>
        </dc:subject>
        <dc:contributor>
          <cc:Agent>
            <dc:title>Jakub Steiner</dc:title>
          </cc:Agent>
        </dc:contributor>
        <cc:license
           rdf:resource="http://creativecommons.org/licenses/GPL/2.0/" />
      </cc:Work>
      <cc:License
         rdf:about="http://creativecommons.org/licenses/GPL/2.0/">
        <cc:permits
           rdf:resource="http://web.resource.org/cc/Reproduction" />
        <cc:permits
           rdf:resource="http://web.resource.org/cc/Distribution" />
        <cc:requires
           rdf:resource="http://web.resource.org/cc/Notice" />
        <cc:permits
           rdf:resource="http://web.resource.org/cc/DerivativeWorks" />
        <cc:requires
           rdf:resource="http://web.resource.org/cc/ShareAlike" />
        <cc:requires
           rdf:resource="http://web.resource.org/cc/SourceCode" />
      </cc:License>
    </rdf:RDF>
  </metadata>
  <g
     id="layer1"
     inkscape:label="Layer 1"
     inkscape:groupmode="layer">
    <g
       id="g2453"
       inkscape:label="Calque 1"
       transform="matrix(0.1337942,0,0,0.1337942,-18.472238,-41.04701)" />
    <g
       id="layer6"
       inkscape:label="Shadow"
       transform="translate(-49.311292,1.8917639)" />
    <g
       style="display:inline"
       inkscape:label="Base"
       id="g2547"
       transform="translate(-49.311292,1.8917639)" />
    <path
       id="rect1440"
       d="M 39.632675,4.0351828 L 6.0648462,11.763383 C 5.502643,11.892914 5.1470031,12.454156 5.2767012,13.015639 L 6.2439698,17.165969 C 6.373669,17.727451 6.935634,18.046853 7.497837,17.917322 L 41.065666,10.189121 C 41.627871,10.05959 41.947683,9.4983469 41.817987,8.9368665 L 40.886543,4.8223139 C 40.756843,4.2608322 40.194878,3.9056516 39.632675,4.0351828 z M 7.497837,17.917322 C 6.920883,17.921601 6.454633,18.37869 6.458919,18.954904 L 6.494744,22.783225 C 6.498148,23.240742 6.803414,23.611032 7.211239,23.749251 L 7.211239,42.962417 C 7.211239,43.538647 7.673185,43.999995 8.250159,44 L 40.922368,44 C 41.499339,44 41.961284,43.538649 41.961287,42.962417 L 41.961287,23.534579 C 42.420445,23.424491 42.753097,23.025283 42.749431,22.532775 L 42.713607,18.668674 C 42.709317,18.092461 42.251645,17.626811 41.674688,17.631091 L 7.497837,17.917322 z M 40.098398,4.428749 C 40.307144,4.570775 40.466776,4.7706612 40.528296,5.0369869 L 41.137316,7.434159 L 40.170047,9.9744493 L 35.476998,11.119367 L 37.626487,5.0012083 L 40.098398,4.428749 z M 33.255862,5.9672326 L 30.927251,12.335843 L 26.628276,13.373426 L 28.956887,6.8616996 L 33.255862,5.9672326 z M 24.478789,7.8992837 L 22.078528,14.160558 L 17.779553,15.198141 L 20.179814,8.8295293 L 24.478789,7.8992837 z M 16.024138,10.046007 L 13.803001,15.770599 L 9.504026,16.951296 L 11.725164,10.976252 L 16.024138,10.046007 z M 37.94891,18.096216 L 41.495564,23.391465 L 37.053291,23.248349 L 33.578284,18.203551 L 37.94891,18.096216 z M 29.42261,18.167773 L 32.79014,23.427242 L 28.383692,23.427242 L 25.016159,18.310888 L 29.42261,18.167773 z M 20.466413,18.239331 L 23.798119,23.427242 L 19.427493,23.427242 L 16.059962,18.346665 L 20.466413,18.239331 z M 9.68315,18.310888 L 11.510214,18.310888 L 14.841919,23.427242 L 10.435472,23.427242 L 9.432375,21.888757 L 9.432375,18.990682 C 9.430345,18.717371 9.513091,18.497411 9.68315,18.310888 z"
       style="fill:#000000;fill-opacity:1;fill-rule:nonzero;stroke:none;stroke-width:0.79491258;stroke-linecap:butt;stroke-linejoin:miter;marker:none;marker-start:none;marker-mid:none;marker-end:none;stroke-miterlimit:4;stroke-dasharray:none;stroke-dashoffset:0;stroke-opacity:1;visibility:visible;display:block" />
    <path
       style="fill:url(#linearGradient2570);fill-opacity:1"
       d="M 40.054695,4.0085159 C 39.920925,3.9846599 39.765565,4.0151873 39.625014,4.0475701 L 6.0708086,11.780299 C 5.5086054,11.90983 5.1598717,12.468549 5.2895698,13.030032 L 6.2270564,17.169776 C 6.356753,17.731258 6.953895,18.041336 7.5161,17.911805 L 41.070306,10.179077 C 41.632508,10.049546 41.942178,9.4908235 41.812482,8.9293431 L 40.874996,4.8286538 C 40.777721,4.4075421 40.456007,4.080084 40.054695,4.0085159 z M 7.5161,17.911805 C 6.939142,17.916084 6.457142,18.390053 6.461428,18.966268 L 6.500489,22.793578 C 6.503895,23.251095 6.795779,23.592659 7.203605,23.730879 L 7.203605,28.183056 C 11.994422,29.834788 17.78463,30.799686 24.000239,30.799686 C 30.745954,30.799686 36.95602,29.631743 41.96873,27.714405 L 41.96873,23.535608 C 42.427886,23.425519 42.753634,23.012707 42.749969,22.520199 L 42.710908,18.653835 C 42.706621,18.077623 42.233192,17.634146 41.656235,17.638426 L 7.5161,17.911805 z M 40.093757,4.438112 C 40.302501,4.5801381 40.461918,4.7575989 40.523438,5.0239247 L 41.148429,7.4452841 L 40.171882,9.983806 L 35.484449,11.116377 L 37.632855,4.9848705 L 40.093757,4.438112 z M 33.257918,5.9612251 L 30.914201,12.327057 L 26.617388,13.38152 L 28.961105,6.8594713 L 33.257918,5.9612251 z M 24.468982,7.9139343 L 22.086204,14.162604 L 17.78939,15.217067 L 20.172169,8.8121805 L 24.468982,7.9139343 z M 16.031603,10.061914 L 13.805073,15.763825 L 9.508258,16.935451 L 11.73479,10.960161 L 16.031603,10.061914 z M 37.94535,18.107076 L 41.499987,23.379391 L 37.046926,23.262228 L 33.570414,18.185185 L 37.94535,18.107076 z M 29.429848,18.185185 L 32.789175,23.418445 L 28.375175,23.418445 L 25.015848,18.302347 L 29.429848,18.185185 z M 20.484664,18.224239 L 23.804929,23.418445 L 19.429991,23.418445 L 16.070664,18.341401 L 20.484664,18.224239 z M 9.664506,18.302347 L 11.500418,18.302347 L 14.859745,23.418445 L 10.445746,23.418445 L 9.430135,21.895332 L 9.430135,19.005322 C 9.428107,18.732012 9.494448,18.48887 9.664506,18.302347 z"
       id="path2563" />
  </g>
</svg>
