<?xml version="1.0" encoding="UTF-8" standalone="no"?>
<!-- Created with Inkscape (http://www.inkscape.org/) -->

<svg
   xmlns:dc="http://purl.org/dc/elements/1.1/"
   xmlns:cc="http://creativecommons.org/ns#"
   xmlns:rdf="http://www.w3.org/1999/02/22-rdf-syntax-ns#"
   xmlns:svg="http://www.w3.org/2000/svg"
   xmlns="http://www.w3.org/2000/svg"
   xmlns:xlink="http://www.w3.org/1999/xlink"
   xmlns:sodipodi="http://sodipodi.sourceforge.net/DTD/sodipodi-0.dtd"
   xmlns:inkscape="http://www.inkscape.org/namespaces/inkscape"
   width="48px"
   height="48px"
   id="svg3363"
   version="1.1"
   inkscape:version="0.47 r22583"
   sodipodi:docname="preferences-desktop-screensaver.svg">
  <defs
     id="defs3365">
    <linearGradient
       inkscape:collect="always"
       xlink:href="#linearGradient3172"
       id="linearGradient3551"
       gradientUnits="userSpaceOnUse"
       gradientTransform="matrix(0.644962,0,0,1.2008964,9.235153,3.7180734)"
       x1="22.892584"
       y1="0.90414524"
       x2="22.892584"
       y2="21.132059" />
    <linearGradient
       id="linearGradient3172">
      <stop
         id="stop3174"
         offset="0"
         style="stop-color:#4d4d4d;stop-opacity:1;" />
      <stop
         id="stop3176"
         offset="1"
         style="stop-color:#4d4d4d;stop-opacity:0;" />
    </linearGradient>
  </defs>
  <sodipodi:namedview
     id="base"
     pagecolor="#ffffff"
     bordercolor="#666666"
     borderopacity="1.0"
     inkscape:pageopacity="0.0"
     inkscape:pageshadow="2"
     inkscape:zoom="7"
     inkscape:cx="24"
     inkscape:cy="24"
     inkscape:current-layer="layer1"
     showgrid="true"
     inkscape:grid-bbox="true"
     inkscape:document-units="px"
     inkscape:window-width="1364"
     inkscape:window-height="721"
     inkscape:window-x="0"
     inkscape:window-y="23"
     inkscape:window-maximized="1" />
  <metadata
     id="metadata3368">
    <rdf:RDF>
      <cc:Work
         rdf:about="">
        <dc:format>image/svg+xml</dc:format>
        <dc:type
           rdf:resource="http://purl.org/dc/dcmitype/StillImage" />
        <dc:title />
      </cc:Work>
    </rdf:RDF>
  </metadata>
  <g
     id="layer1"
     inkscape:label="Layer 1"
     inkscape:groupmode="layer">
    <path
       style="fill:#000000;fill-opacity:1;stroke:none"
       d="M 5.5,7 C 4.665303,7 4,7.6740292 4,8.5223881 L 4,34.973881 c 0,0.848359 0.665303,1.52239 1.5,1.522388 l 12.34375,0 0,3.552238 -4.65625,0 0,0.951493 22.71875,0 0,-0.951493 -4.5,0 0,-3.552238 11.09375,0 c 0.834696,0 1.5,-0.67403 1.5,-1.522388 L 44,8.5223881 C 44,7.6740292 43.334696,7 42.5,7 l -37,0 z m 2.28125,2.5690299 32.5625,0 c 0.735367,0 1.34375,0.5653761 1.34375,1.2686571 l 0,21.916044 c 0,0.703282 -0.608383,1.268657 -1.34375,1.268657 l -32.5625,0 C 7.0458848,34.022389 6.4375,33.457012 6.4375,32.753731 l 0,-21.916044 c 0,-0.703281 0.6083846,-1.2686571 1.34375,-1.2686571 z M 15.46875,11.630597 15,14.485075 12.15625,14.897388 15,15.436567 l 0.5,2.886194 0.4375,-2.886194 2.8125,-0.44403 -2.8125,-0.507462 -0.46875,-2.854478 z m 11.3125,1.902985 -0.46875,2.886194 -2.84375,0.380597 2.84375,0.570896 0.5,2.854477 0.4375,-2.854477 2.8125,-0.44403 -2.8125,-0.507463 -0.46875,-2.886194 z m 7.8125,2.822761 c 0.367002,0.881405 0.5625,1.837685 0.5625,2.854478 0,4.067169 -3.248327,7.389925 -7.25,7.389925 -1.168696,0 -2.240789,-0.292955 -3.21875,-0.79291 1.101004,2.644212 3.686246,4.503731 6.6875,4.503731 4.001673,0 7.25,-3.291039 7.25,-7.358209 0,-2.879344 -1.660622,-5.385096 -4.03125,-6.597015 z m -14.40625,1.014926 -0.46875,2.854477 -2.84375,0.412314 2.84375,0.570895 0.5,2.854478 0.4375,-2.854478 2.8125,-0.44403 -2.8125,-0.539179 -0.46875,-2.854477 z m -8.03125,4.313432 -0.46875,2.854478 -2.8125,0.412314 2.8125,0.570895 0.53125,2.854478 0.40625,-2.854478 2.84375,-0.44403 -2.84375,-0.539179 -0.46875,-2.854478 z"
       id="rect2160" />
    <path
       style="fill:url(#linearGradient3551);fill-opacity:1;stroke:none"
       d="m 28.125,29.518657 c -1.539419,-0.784268 -2.764109,-2.093581 -3.4375,-3.710821 0.977961,0.499955 2.050054,0.79291 3.21875,0.79291 4.001673,0 7.25,-3.322756 7.25,-7.389925 0,-1.016793 -0.195498,-1.973073 -0.5625,-2.854478 2.370628,1.211919 4.03125,3.717671 4.03125,6.597015 0,1.779387 -0.62168,3.422355 -1.65625,4.69403 -0.0095,0.01171 -0.02166,0.02006 -0.03125,0.03172 -2.634148,0.906309 -5.608815,1.541674 -8.8125,1.839553 z M 12.25,28.091418 c -0.03209,-0.0096 -0.06175,-0.02196 -0.09375,-0.03172 l -0.46875,-2.53731 -2.8125,-0.570895 2.8125,-0.412314 0.46875,-2.854478 0.46875,2.854478 2.84375,0.539179 -2.84375,0.44403 -0.375,2.56903 z M 6.4375,25.617537 C 5.546079,25.104641 4.726687,24.553899 4,23.968284 L 4,8.5223881 C 4,7.6740292 4.665303,7 5.5,7 l 37,0 C 43.334696,7 44,7.6740292 44,8.5223881 l 0,15.4458959 c -0.69376,0.559079 -1.468185,1.092797 -2.3125,1.58582 l 0,-14.716417 c 0,-0.703281 -0.608383,-1.2686571 -1.34375,-1.2686571 l -32.5625,0 c -0.735365,0 -1.34375,0.5653761 -1.34375,1.2686571 l 0,14.77985 z m 13.78125,-1.554104 -0.5,-2.854478 -2.84375,-0.570895 2.84375,-0.412314 0.46875,-2.854477 0.46875,2.854477 2.8125,0.539179 -2.8125,0.44403 -0.4375,2.854478 z m 6.59375,-3.837687 -0.5,-2.854477 -2.84375,-0.570896 2.84375,-0.380597 0.46875,-2.886194 0.46875,2.886194 2.8125,0.507463 -2.8125,0.44403 -0.4375,2.854477 z M 15.5,18.322761 15,15.436567 12.15625,14.897388 15,14.485075 l 0.46875,-2.854478 0.46875,2.854478 2.8125,0.507462 -2.8125,0.44403 -0.4375,2.886194 z"
       id="path3537" />
  </g>
</svg>
