<?xml version="1.0" encoding="UTF-8" standalone="no"?>
<!-- Created with Inkscape (http://www.inkscape.org/) -->

<svg
   xmlns:dc="http://purl.org/dc/elements/1.1/"
   xmlns:cc="http://creativecommons.org/ns#"
   xmlns:rdf="http://www.w3.org/1999/02/22-rdf-syntax-ns#"
   xmlns:svg="http://www.w3.org/2000/svg"
   xmlns="http://www.w3.org/2000/svg"
   xmlns:xlink="http://www.w3.org/1999/xlink"
   xmlns:sodipodi="http://sodipodi.sourceforge.net/DTD/sodipodi-0.dtd"
   xmlns:inkscape="http://www.inkscape.org/namespaces/inkscape"
   width="48px"
   height="48px"
   id="svg4275"
   version="1.1"
   inkscape:version="0.47 r22583"
   sodipodi:docname="Nouveau document 7">
  <defs
     id="defs4277">
    <linearGradient
       inkscape:collect="always"
       xlink:href="#linearGradient3172"
       id="linearGradient4255"
       gradientUnits="userSpaceOnUse"
       gradientTransform="matrix(0.644962,0,0,1.1832362,9.2351531,4.0122106)"
       x1="22.892584"
       y1="0.90414524"
       x2="22.892584"
       y2="21.132059" />
    <linearGradient
       id="linearGradient3172">
      <stop
         id="stop3174"
         offset="0"
         style="stop-color:#4d4d4d;stop-opacity:1;" />
      <stop
         id="stop3176"
         offset="1"
         style="stop-color:#4d4d4d;stop-opacity:0;" />
    </linearGradient>
  </defs>
  <sodipodi:namedview
     id="base"
     pagecolor="#ffffff"
     bordercolor="#666666"
     borderopacity="1.0"
     inkscape:pageopacity="0.0"
     inkscape:pageshadow="2"
     inkscape:zoom="7"
     inkscape:cx="24"
     inkscape:cy="24"
     inkscape:current-layer="layer1"
     showgrid="true"
     inkscape:grid-bbox="true"
     inkscape:document-units="px"
     inkscape:window-width="596"
     inkscape:window-height="502"
     inkscape:window-x="768"
     inkscape:window-y="242"
     inkscape:window-maximized="0" />
  <metadata
     id="metadata4280">
    <rdf:RDF>
      <cc:Work
         rdf:about="">
        <dc:format>image/svg+xml</dc:format>
        <dc:type
           rdf:resource="http://purl.org/dc/dcmitype/StillImage" />
        <dc:title></dc:title>
      </cc:Work>
    </rdf:RDF>
  </metadata>
  <g
     id="layer1"
     inkscape:label="Layer 1"
     inkscape:groupmode="layer">
    <path
       style="fill:#000000;fill-opacity:1;stroke:none"
       d="M 12.3125,3.9998686 C 6.0649361,4.1317226 4,8.0623686 4,8.0623686 L 4,33.906119 c 0,0 1.0833171,-0.996764 3.1875001,-1.78125 l 0,-13.96875 0,-0.25 0.125,-0.21875 c 0,0 0.64655,-1.203024 2.09375,-2.3125 1.4471999,-1.109476 3.7636309,-2.21097 7.0937499,-2.28125 3.339841,-0.06945 5.802709,0.730642 8.15625,1.5 2.353541,0.769358 4.596482,1.52094 7.78125,1.5 2.922012,-0.01921 5.455505,-0.616526 7.375,-1.25 l 0,-10.8125004 c 0,0 -4.87671,2.924798 -11.5625,2.96875 -6.687086,0.04396 -9.596861,-3.131854 -15.9375,-3 z M 16.5,14.093619 c -6.247564,0.131854 -8.3124999,4.0625 -8.3124999,4.0625 l 0,25.84375 c 0,0 2.9039519,-2.71875 8.4999999,-2.71875 5.502975,0 8.924599,2.740725 15.75,2.71875 C 39.262901,43.977889 44,41.156119 44,41.156119 l 0,-27.03125 c 0,0 -4.876711,2.924799 -11.5625,2.96875 -6.687086,0.04396 -9.596861,-3.131854 -15.9375,-3 z"
       id="path3621" />
    <path
       style="fill:url(#linearGradient4255);fill-opacity:1;stroke:none"
       d="m 24,29.652124 c -6.069837,0 -11.584636,-1.225989 -15.8124999,-3.1875 l 0,-8.3125 c 0,0 2.0649359,-3.930646 8.3124999,-4.0625 6.340639,-0.131854 9.250414,3.04396 15.9375,3 C 39.123289,17.045674 44,14.120874 44,14.120874 l 0,9.84375 c -4.299791,3.414113 -11.650373,5.6875 -20,5.6875 z M 7.1875001,25.995874 C 5.9979641,25.379131 4.9263161,24.700136 4,23.964624 L 4,8.0583736 c 0,0 2.0649361,-3.930646 8.3125,-4.0625 6.340639,-0.131854 9.250414,3.04396 15.9375,3 6.68579,-0.04395 11.5625,-2.96875 11.5625,-2.96875 l 0,10.8125004 c -1.919495,0.633474 -4.452988,1.23079 -7.375,1.25 -3.184768,0.02094 -5.427709,-0.730642 -7.78125,-1.5 -2.353541,-0.769358 -4.816409,-1.56945 -8.15625,-1.5 -3.330119,0.07028 -5.64655,1.171774 -7.0937499,2.28125 -1.4472,1.109476 -2.09375,2.3125 -2.09375,2.3125 l -0.125,0.21875 0,0.25 0,7.84375 z"
       id="path4241" />
  </g>
</svg>
