<?xml version="1.0" encoding="UTF-8" standalone="no"?>
<!-- Created with Inkscape (http://www.inkscape.org/) -->

<svg
   xmlns:dc="http://purl.org/dc/elements/1.1/"
   xmlns:cc="http://creativecommons.org/ns#"
   xmlns:rdf="http://www.w3.org/1999/02/22-rdf-syntax-ns#"
   xmlns:svg="http://www.w3.org/2000/svg"
   xmlns="http://www.w3.org/2000/svg"
   xmlns:xlink="http://www.w3.org/1999/xlink"
   xmlns:sodipodi="http://sodipodi.sourceforge.net/DTD/sodipodi-0.dtd"
   xmlns:inkscape="http://www.inkscape.org/namespaces/inkscape"
   width="48px"
   height="48px"
   id="svg3022"
   version="1.1"
   inkscape:version="0.47 r22583"
   sodipodi:docname="Nouveau document 4">
  <defs
     id="defs3024">
    <linearGradient
       gradientUnits="userSpaceOnUse"
       y2="21.132059"
       x2="22.892584"
       y1="0.90414524"
       x1="22.892584"
       id="linearGradient3178"
       xlink:href="#linearGradient3172"
       inkscape:collect="always" />
    <linearGradient
       id="linearGradient3172">
      <stop
         id="stop3174"
         offset="0"
         style="stop-color:#4d4d4d;stop-opacity:1;" />
      <stop
         id="stop3176"
         offset="1"
         style="stop-color:#4d4d4d;stop-opacity:0;" />
    </linearGradient>
    <linearGradient
       inkscape:collect="always"
       xlink:href="#linearGradient3172"
       id="linearGradient3226"
       gradientUnits="userSpaceOnUse"
       x1="22.892584"
       y1="0.90414524"
       x2="22.892584"
       y2="21.132059" />
    <linearGradient
       inkscape:collect="always"
       xlink:href="#linearGradient3172"
       id="linearGradient3231"
       gradientUnits="userSpaceOnUse"
       x1="22.892584"
       y1="0.90414524"
       x2="22.892584"
       y2="21.132059"
       gradientTransform="matrix(0.644962,0,0,-1.1832362,59.235153,43.983663)" />
    <linearGradient
       inkscape:collect="always"
       xlink:href="#linearGradient3172"
       id="linearGradient3234"
       gradientUnits="userSpaceOnUse"
       gradientTransform="matrix(0.644962,0,0,1.1832362,9.2348608,4.0179384)"
       x1="22.892584"
       y1="0.90414524"
       x2="22.892584"
       y2="21.132059" />
  </defs>
  <sodipodi:namedview
     id="base"
     pagecolor="#ffffff"
     bordercolor="#666666"
     borderopacity="1.0"
     inkscape:pageopacity="0.0"
     inkscape:pageshadow="2"
     inkscape:zoom="7"
     inkscape:cx="24"
     inkscape:cy="24"
     inkscape:current-layer="layer1"
     showgrid="true"
     inkscape:grid-bbox="true"
     inkscape:document-units="px"
     inkscape:window-width="1364"
     inkscape:window-height="721"
     inkscape:window-x="0"
     inkscape:window-y="23"
     inkscape:window-maximized="1" />
  <metadata
     id="metadata3027">
    <rdf:RDF>
      <cc:Work
         rdf:about="">
        <dc:format>image/svg+xml</dc:format>
        <dc:type
           rdf:resource="http://purl.org/dc/dcmitype/StillImage" />
        <dc:title></dc:title>
      </cc:Work>
    </rdf:RDF>
  </metadata>
  <g
     id="layer1"
     inkscape:label="Layer 1"
     inkscape:groupmode="layer">
    <path
       style="fill:#000000"
       d="m 23.999499,8.6606014 c -10.213286,0 -18.6235533,3.8448166 -19.4774469,8.7539086 -0.5545915,1.025428 -0.6813557,2.232176 -0.3126396,3.407771 0.014387,0.04592 0.046369,0.11109 0.062528,0.15632 0.00695,0.07433 0.039108,0.144194 0.062528,0.218848 L 4.58458,22.041576 c 0.2072859,0.660895 0.9771915,1.05247 1.7507817,0.875391 L 14.93295,20.978601 c 0.773602,-0.177079 1.176469,-0.902303 0.969183,-1.563198 l -0.218848,-0.781599 c -0.02591,-0.08264 -0.08214,-0.207823 -0.125055,-0.281375 -0.01281,-0.05192 -0.04656,-0.105438 -0.06253,-0.15632 -0.203282,-0.64815 -0.520767,-1.185329 -0.969183,-1.688254 1.345236,-2.12746 5.067123,-3.657883 9.47298,-3.657883 4.40587,0 8.127743,1.530423 9.472979,3.657883 -0.446884,0.502134 -0.766372,1.041605 -0.969183,1.688254 -0.01085,0.03442 0.01018,0.09014 0,0.125056 -0.05761,0.08804 -0.15556,0.210534 -0.187583,0.312639 l -0.187584,0.781599 c -0.207284,0.660895 0.195582,1.386119 0.969183,1.563198 l 8.566325,1.938366 c 0.773595,0.177079 1.574758,-0.214496 1.782045,-0.875391 l 0.218848,-0.844127 c 0.02592,-0.08264 0.08794,-0.136801 0.09379,-0.218848 0.01616,-0.04512 0.01687,-0.110449 0.03126,-0.15632 0.376435,-1.200236 0.239405,-2.430525 -0.343904,-3.470299 -0.929117,-4.871685 -9.28733,-8.6913806 -19.446182,-8.6913806 z m 4.408218,8.1286296 c -0.850134,0.03191 -1.274434,0.1577 -1.375614,0.406431 -0.04443,0.109209 -0.09156,0.639115 -0.125056,1.18803 l -0.09379,1.031711 -2.782492,0 -2.845021,0 -0.06253,-0.906655 c -0.1359,-1.727051 -0.188358,-1.733794 -2.376061,-1.688253 -2.056575,0.04282 -1.926489,-0.05603 -2.000893,2.125949 l -0.06253,1.65699 -0.656543,1.03171 c -0.350528,0.564602 -1.467285,2.401883 -2.501117,4.064315 -2.223826,3.575987 -2.586098,4.213021 -3.032604,5.346137 -0.6452007,1.637361 -0.7784542,2.413798 -0.7815986,5.283609 l 0,2.626173 0.2501117,0.187583 c 0.2646049,0.214516 0.6014129,0.216747 14.1313089,0.187584 13.563633,-0.02921 13.847754,-0.03332 14.006254,-0.250112 0.236309,-0.323174 0.238286,-5.37694 0,-6.627959 -0.254076,-1.333915 -0.857561,-2.495604 -3.939259,-7.409558 l -2.782492,-4.408218 -0.06253,-1.688254 c -0.07357,-2.173361 0.0172,-2.106241 -1.907101,-2.157213 -0.385368,-0.0102 -0.71707,-0.01061 -1.000447,0 z m -9.660564,4.908441 1.907102,0 c 0.275009,0 0.500223,0.196758 0.500223,0.437696 l 0,1.782045 c 0,0.240918 -0.225214,0.406432 -0.500223,0.406432 l -1.907102,0 c -0.274998,0 -0.468959,-0.165514 -0.468959,-0.406432 l 0,-1.782045 c 0,-0.240938 0.193961,-0.437696 0.468959,-0.437696 z m 4.314427,0 1.875837,0 c 0.275009,0 0.500224,0.196758 0.500224,0.437696 l 0,1.782045 c -9e-6,0.240918 -0.225215,0.406432 -0.500224,0.406432 l -1.875837,0 c -0.274999,0 -0.500224,-0.165514 -0.500224,-0.406432 l 0,-1.782045 c 0,-0.240938 0.225225,-0.437696 0.500224,-0.437696 z m 4.283162,0 1.907102,0 c 0.274999,0 0.468959,0.196758 0.468959,0.437696 l 0,1.782045 c 0,0.240918 -0.19396,0.406432 -0.468959,0.406432 l -1.907102,0 c -0.275008,0 -0.531487,-0.165514 -0.531487,-0.406432 l 0,-1.782045 c 0,-0.240938 0.256479,-0.437696 0.531487,-0.437696 z m -8.597589,4.408218 1.907102,0 c 0.275009,0 0.500223,0.165514 0.500223,0.406432 l 0,1.813309 c 0,0.240938 -0.225214,0.437696 -0.500223,0.437696 l -1.907102,0 c -0.274998,0 -0.468959,-0.196758 -0.468959,-0.437696 l 0,-1.813309 c 0,-0.240918 0.193961,-0.406432 0.468959,-0.406432 z m 4.314427,0 1.875837,0 c 0.275009,0 0.500224,0.165514 0.500224,0.406432 l 0,1.813309 c -9e-6,0.240938 -0.225215,0.437696 -0.500224,0.437696 l -1.875837,0 c -0.274999,0 -0.500224,-0.196758 -0.500224,-0.437696 l 0,-1.813309 c 0,-0.240918 0.225225,-0.406432 0.500224,-0.406432 z m 4.283162,0 1.907102,0 c 0.274999,0 0.468959,0.165514 0.468959,0.406432 l 0,1.813309 c 0,0.240938 -0.19396,0.437696 -0.468959,0.437696 l -1.907102,0 c -0.275008,0 -0.531487,-0.196758 -0.531487,-0.437696 l 0,-1.813309 c 0,-0.240918 0.256479,-0.406432 0.531487,-0.406432 z m -8.597589,4.408219 1.907102,0 c 0.275009,0 0.500223,0.196767 0.500223,0.437695 l 0,1.782046 c 0,0.240927 -0.225214,0.406431 -0.500223,0.406431 l -1.907102,0 c -0.274998,0 -0.468959,-0.165504 -0.468959,-0.406431 l 0,-1.782046 c 0,-0.240928 0.193961,-0.437695 0.468959,-0.437695 z m 4.314427,0 1.875837,0 c 0.275009,0 0.500224,0.196767 0.500224,0.437695 l 0,1.782046 c -9e-6,0.240927 -0.225215,0.406431 -0.500224,0.406431 l -1.875837,0 c -0.274999,0 -0.500224,-0.165504 -0.500224,-0.406431 l 0,-1.782046 c 0,-0.240928 0.225225,-0.437695 0.500224,-0.437695 z m 4.283162,0 1.907102,0 c 0.274999,0 0.468959,0.196767 0.468959,0.437695 l 0,1.782046 c 0,0.240927 -0.19396,0.406431 -0.468959,0.406431 l -1.907102,0 c -0.275008,0 -0.531487,-0.165504 -0.531487,-0.406431 l 0,-1.782046 c 0,-0.240928 0.256479,-0.437695 0.531487,-0.437695 z"
       id="path2818" />
    <path
       style="fill:url(#linearGradient3234);fill-opacity:1;stroke:none"
       d="m 23.999708,29.657851 c -4.325314,0 -8.369129,-0.630367 -11.875,-1.6875 0.393468,-0.653652 0.698,-1.14236 1.40625,-2.28125 1.033832,-1.662432 2.149472,-3.497898 2.5,-4.0625 l 0.65625,-1.03125 0.0625,-1.65625 c 0.0744,-2.181979 -0.05657,-2.08218 2,-2.125 2.187703,-0.04554 2.2391,-0.03955 2.375,1.6875 l 0.0625,0.90625 2.84375,0 2.78125,0 0.09375,-1.03125 c 0.0335,-0.548915 0.08057,-1.078291 0.125,-1.1875 0.10118,-0.248731 0.524866,-0.37434 1.375,-0.40625 0.283377,-0.01061 0.614632,-0.0102 1,0 1.924301,0.05097 1.83268,-0.01711 1.90625,2.15625 l 0.0625,1.6875 2.78125,4.40625 c 0.73705,1.17527 1.298595,2.137815 1.78125,2.9375 -3.518951,1.067891 -7.588529,1.6875 -11.9375,1.6875 z m -5.25,-0.90625 1.90625,0 c 0.275009,0 0.5,-0.196562 0.5,-0.4375 l 0,-1.8125 c 0,-0.240918 -0.224991,-0.40625 -0.5,-0.40625 l -1.90625,0 c -0.274998,0 -0.46875,0.165332 -0.46875,0.40625 l 0,1.8125 c 0,0.240938 0.193752,0.4375 0.46875,0.4375 z m 4.3125,0 1.875,0 c 0.275009,0 0.499991,-0.196562 0.5,-0.4375 l 0,-1.8125 c 0,-0.240918 -0.224991,-0.40625 -0.5,-0.40625 l -1.875,0 c -0.274999,0 -0.5,0.165332 -0.5,0.40625 l 0,1.8125 c 0,0.240938 0.225001,0.4375 0.5,0.4375 z m 4.28125,0 1.90625,0 c 0.274999,0 0.46875,-0.196562 0.46875,-0.4375 l 0,-1.8125 c 0,-0.240918 -0.193751,-0.40625 -0.46875,-0.40625 l -1.90625,0 c -0.275008,0 -0.53125,0.165332 -0.53125,0.40625 l 0,1.8125 c 0,0.240938 0.256242,0.4375 0.53125,0.4375 z m -8.59375,-4.4375 1.90625,0 c 0.275009,0 0.5,-0.165332 0.5,-0.40625 l 0,-1.78125 c 0,-0.240938 -0.224991,-0.4375 -0.5,-0.4375 l -1.90625,0 c -0.274998,0 -0.46875,0.196562 -0.46875,0.4375 l 0,1.78125 c 0,0.240918 0.193752,0.40625 0.46875,0.40625 z m 4.3125,0 1.875,0 c 0.275009,0 0.499991,-0.165332 0.5,-0.40625 l 0,-1.78125 c 0,-0.240938 -0.224991,-0.4375 -0.5,-0.4375 l -1.875,0 c -0.274999,0 -0.5,0.196562 -0.5,0.4375 l 0,1.78125 c 0,0.240918 0.225001,0.40625 0.5,0.40625 z m 4.28125,0 1.90625,0 c 0.274999,0 0.46875,-0.165332 0.46875,-0.40625 l 0,-1.78125 c 0,-0.240938 -0.193751,-0.4375 -0.46875,-0.4375 l -1.90625,0 c -0.275008,0 -0.53125,0.196562 -0.53125,0.4375 l 0,1.78125 c 0,0.240918 0.256242,0.40625 0.53125,0.40625 z M 6.0309578,22.970351 c -0.668444,0.03464 -1.256125,-0.359217 -1.4375,-0.9375 l -0.25,-0.84375 c -0.02342,-0.07465 -0.0556,-0.14442 -0.0625,-0.21875 -0.01616,-0.04523 -0.04811,-0.11033 -0.0625,-0.15625 -0.368716,-1.175595 -0.242091,-2.380822 0.3125,-3.40625 0.853894,-4.909092 9.2554642,-8.7499996 19.4687502,-8.7499996 10.158852,0 18.508383,3.8158146 19.4375,8.6874996 0.583309,1.039774 0.720185,2.268514 0.34375,3.46875 -0.01439,0.04587 -0.01509,0.11113 -0.03125,0.15625 -0.0058,0.08205 -0.06783,0.13611 -0.09375,0.21875 l -0.21875,0.84375 c -0.207287,0.660895 -1.007655,1.052079 -1.78125,0.875 l -8.5625,-1.9375 c -0.773601,-0.177079 -1.176034,-0.901605 -0.96875,-1.5625 l 0.1875,-0.78125 c 0.03202,-0.102105 0.12989,-0.22446 0.1875,-0.3125 0.01018,-0.03492 -0.01085,-0.09058 0,-0.125 0.202811,-0.646649 0.521866,-1.185366 0.96875,-1.6875 -1.345236,-2.12746 -5.06288,-3.65625 -9.46875,-3.65625 -4.405857,0 -8.123514,1.52879 -9.46875,3.65625 0.448416,0.502925 0.765468,1.03935 0.96875,1.6875 0.01597,0.05088 0.04969,0.10433 0.0625,0.15625 0.04292,0.07355 0.09909,0.19861 0.125,0.28125 l 0.21875,0.78125 c 0.207286,0.660895 -0.195148,1.385421 -0.96875,1.5625 l -8.5937502,1.9375 c -0.096699,0.02213 -0.217008,0.05755 -0.3125,0.0625 z"
       id="path3220" />
    <g
       transform="matrix(0.1337942,0,0,-0.1337942,31.527762,89.04701)"
       inkscape:label="Calque 1"
       id="g3222" />
    <g
       transform="matrix(0.1672428,0,0,-0.1672428,38.442916,104.62323)"
       inkscape:label="Calque 1"
       id="g3224" />
  </g>
</svg>
