<?xml version="1.0" encoding="UTF-8" standalone="no"?>
<!-- Created with Inkscape (http://www.inkscape.org/) -->

<svg
   xmlns:dc="http://purl.org/dc/elements/1.1/"
   xmlns:cc="http://creativecommons.org/ns#"
   xmlns:rdf="http://www.w3.org/1999/02/22-rdf-syntax-ns#"
   xmlns:svg="http://www.w3.org/2000/svg"
   xmlns="http://www.w3.org/2000/svg"
   xmlns:xlink="http://www.w3.org/1999/xlink"
   xmlns:sodipodi="http://sodipodi.sourceforge.net/DTD/sodipodi-0.dtd"
   xmlns:inkscape="http://www.inkscape.org/namespaces/inkscape"
   width="48px"
   height="48px"
   id="svg2851"
   version="1.1"
   inkscape:version="0.47 r22583"
   sodipodi:docname="import-export.svg">
  <defs
     id="defs2853">
    <linearGradient
       gradientUnits="userSpaceOnUse"
       y2="21.132059"
       x2="22.892584"
       y1="0.90414524"
       x1="22.892584"
       id="linearGradient3178"
       xlink:href="#linearGradient3172"
       inkscape:collect="always" />
    <linearGradient
       id="linearGradient3172">
      <stop
         id="stop3174"
         offset="0"
         style="stop-color:#4d4d4d;stop-opacity:1;" />
      <stop
         id="stop3176"
         offset="1"
         style="stop-color:#4d4d4d;stop-opacity:0;" />
    </linearGradient>
    <linearGradient
       inkscape:collect="always"
       xlink:href="#linearGradient3172"
       id="linearGradient3018"
       gradientUnits="userSpaceOnUse"
       x1="22.892584"
       y1="0.90414524"
       x2="22.892584"
       y2="21.132059" />
    <linearGradient
       inkscape:collect="always"
       xlink:href="#linearGradient3172"
       id="linearGradient3023"
       gradientUnits="userSpaceOnUse"
       x1="22.892584"
       y1="0.90414524"
       x2="22.892584"
       y2="21.132059"
       gradientTransform="matrix(0.644962,0,0,-1.1832362,59.235153,43.983663)" />
    <linearGradient
       inkscape:collect="always"
       xlink:href="#linearGradient3172"
       id="linearGradient3026"
       gradientUnits="userSpaceOnUse"
       gradientTransform="matrix(0.644962,0,0,1.1832362,9.2348572,4.0163895)"
       x1="22.892584"
       y1="0.90414524"
       x2="22.892584"
       y2="21.132059" />
  </defs>
  <sodipodi:namedview
     id="base"
     pagecolor="#ffffff"
     bordercolor="#666666"
     borderopacity="1.0"
     inkscape:pageopacity="0.0"
     inkscape:pageshadow="2"
     inkscape:zoom="7"
     inkscape:cx="24"
     inkscape:cy="24"
     inkscape:current-layer="layer1"
     showgrid="true"
     inkscape:grid-bbox="true"
     inkscape:document-units="px"
     inkscape:window-width="1364"
     inkscape:window-height="721"
     inkscape:window-x="0"
     inkscape:window-y="23"
     inkscape:window-maximized="1" />
  <metadata
     id="metadata2856">
    <rdf:RDF>
      <cc:Work
         rdf:about="">
        <dc:format>image/svg+xml</dc:format>
        <dc:type
           rdf:resource="http://purl.org/dc/dcmitype/StillImage" />
        <dc:title></dc:title>
      </cc:Work>
    </rdf:RDF>
  </metadata>
  <g
     id="layer1"
     inkscape:label="Layer 1"
     inkscape:groupmode="layer">
    <path
       style="fill:#000000"
       d="m 20.009802,10.530053 0,8.561699 0,8.5617 2.02905,0 4.05324,0 17.90306,0 -0.04358,-8.5617 -0.03874,-8.561699 -17.820736,0 -4.05324,0 -2.02905,0 z m -1.7966,4.261479 c -0.277,9.3e-4 -2.72824,0.141216 -5.44791,0.309926 -3.5741604,0.221719 -5.0363304,0.369214 -5.2784304,0.527842 -0.23601,0.154644 -0.75671,1.318362 -1.75786,3.946711 -0.78141,2.051483 -1.4898,4.027952 -1.57384,4.39223 -0.0841,0.364275 -0.15289,2.409267 -0.15496,4.542349 -0.004,4.172512 0.0443,4.460551 0.80871,4.614989 0.19102,0.0386 0.523,0.05988 0.73607,0.04843 0.35375,-0.01902 0.39865,-0.09906 0.50363,-0.944305 0.22978,-1.849924 1.28685,-3.273594 3.04115,-4.087147 0.71883,-0.333351 1.1016604,-0.403074 2.1888504,-0.406777 1.16439,-0.004 1.43713,0.05271 2.35834,0.489101 1.77755,0.842052 2.92886,2.326441 3.18643,4.116202 l 0.11622,0.813555 2.07263,0.0097 0,0.0048 3.02662,0.0097 0,0.02905 c 4.32763,-0.01677 4.12195,-0.147873 4.12588,-0.69249 0.005,-0.655131 0.5164,-1.899723 1.09443,-2.663425 0.32418,-0.428311 0.54875,-0.816868 0.49879,-0.866824 -0.0338,-0.03377 -2.39898,-0.06667 -5.7191,-0.08232 l 0,-0.0097 -2.95398,0 -0.0726,0 -0.2954,0 0,-7.050811 0,-7.050812 -0.50363,0 z m -3.83533,2.135582 0,3.036304 c 0,3.021726 -0.002,3.033695 -0.34867,3.113786 -0.19177,0.04426 -1.81306,0.257283 -3.60289,0.469731 -1.7898204,0.212448 -3.5079704,0.42583 -3.8159604,0.474574 -0.40247,0.06369 -0.63132,0.01759 -0.81355,-0.164648 -0.13947,-0.13946 -0.25213,-0.265653 -0.25182,-0.28087 0,-0.01522 0.51773,-1.384388 1.1477,-3.041147 0.80601,-2.119765 1.23102,-3.045049 1.4334,-3.118628 0.15819,-0.05751 1.33172,-0.150852 2.6101604,-0.208231 1.27844,-0.05738 2.62081,-0.144544 2.98304,-0.193704 l 0.65859,-0.08717 z m 22.65364,11.990254 c -0.96579,0.0046 -1.61551,0.02054 -1.67554,0.04358 -0.12763,0.04897 0.067,0.419795 0.56658,1.079898 0.56449,0.74578 0.80703,1.234225 0.94431,1.903138 0.10159,0.495128 0.20646,0.987888 0.23728,1.094425 0.0396,0.136958 0.47833,0.193704 1.49152,0.193704 1.24329,0 1.69525,-0.08128 3.418871,-0.624694 l 1.985462,-0.629537 -0.04358,-1.501203 -0.04358,-1.506046 -4.183996,-0.04358 c -0.57499,-0.0057 -1.12709,-0.0085 -1.6368,-0.0097 -0.38227,-9.3e-4 -0.7386,-0.0016 -1.06052,0 z m -5.38981,0.0678 c -0.73671,0.0056 -1.48587,0.128218 -1.96125,0.358352 -1.36485,0.660709 -2.42613,2.330057 -2.42613,3.811118 0,1.944362 1.62926,3.899378 3.51572,4.222739 2.2352,0.383138 4.4317,-0.922602 5.00723,-2.978193 0.25436,-0.908499 0.12576,-2.32641 -0.28087,-3.123471 -0.41293,-0.809392 -1.5308,-1.82496 -2.29054,-2.082313 -0.42681,-0.144578 -0.99117,-0.212611 -1.56416,-0.208232 z m -20.27108,0.0097 c -2.6000604,0.0016 -4.2755704,1.634343 -4.2711704,4.159785 0.004,2.22819 1.40888,3.915065 3.5447804,4.251795 0.93241,0.146997 1.64672,0.04295 2.46488,-0.353509 1.11871,-0.542099 1.83722,-1.263591 2.18885,-2.203379 1.1244,-3.005212 -0.78727,-5.856567 -3.92734,-5.854692 z"
       id="path2818" />
    <path
       style="fill:url(#linearGradient3026);fill-opacity:1;stroke:none"
       d="m 23.999704,29.656303 c -3.460167,0 -6.746222,-0.397825 -9.71875,-1.09375 -0.202101,-0.124671 -0.434056,-0.238494 -0.65625,-0.34375 -0.871144,-0.412674 -1.173741,-0.465401 -2.1875,-0.46875 -2.8816648,-0.937944 -5.3775558,-2.183426 -7.2812498,-3.65625 0.00324,-0.01928 -0.00329,-0.110764 0,-0.125 0.08404,-0.364278 0.78109,-2.354767 1.5625,-4.40625 1.00115,-2.628349 1.54524,-3.782856 1.78125,-3.9375 0.2421,-0.158628 1.67584,-0.309531 5.2499998,-0.53125 2.71967,-0.16871 5.19175,-0.31157 5.46875,-0.3125 l 0.5,0 0,7.0625 0,7.0625 0.28125,0 0.09375,0 2.9375,0 c 3.32012,0.01565 5.68495,0.05998 5.71875,0.09375 0.03466,0.03466 -0.07883,0.239218 -0.25,0.5 -1.146969,0.08884 -2.306478,0.15625 -3.5,0.15625 z m 6.09375,-0.46875 c 0.301044,-0.08903 0.663645,-0.09358 1.03125,-0.125 -0.338935,0.05562 -0.686071,0.07719 -1.03125,0.125 z m -10.09375,-1.53125 0,-8.5625 0,-8.5625 2.03125,0 4.0625,0 17.8125,0 0.03125,8.5625 0.03125,4.90625 c -1.858618,1.467185 -4.299568,2.708048 -7.125,3.65625 l -10.75,0 -4.0625,0 -2.03125,0 z m -13.8749998,-3.625 c 0.1303,0.02634 0.298765,0.03185 0.5,0 0.30799,-0.04874 2.02268,-0.256302 3.8124998,-0.46875 1.78983,-0.212448 3.40198,-0.45574 3.59375,-0.5 0.34667,-0.08009 0.34375,-0.07202 0.34375,-3.09375 l 0,-3.03125 -0.65625,0.0625 c -0.36223,0.04916 -1.69031,0.16137 -2.96875,0.21875 -1.2784398,0.05738 -2.4668098,0.12999 -2.6249998,0.1875 -0.20238,0.07358 -0.63149,1.005235 -1.4375,3.125 -0.62997,1.656759 -1.15625,3.01603 -1.15625,3.03125 -3.1e-4,0.01522 0.11053,0.14179 0.25,0.28125 0.091115,0.09112 0.21345,0.161157 0.34375,0.1875 z"
       id="path3012" />
    <g
       transform="matrix(0.1337942,0,0,-0.1337942,31.527762,89.04701)"
       inkscape:label="Calque 1"
       id="g3014" />
    <g
       transform="matrix(0.1672428,0,0,-0.1672428,38.442916,104.62323)"
       inkscape:label="Calque 1"
       id="g3016" />
  </g>
</svg>
