<?xml version="1.0" encoding="UTF-8" standalone="no"?>
<!-- Created with Inkscape (http://www.inkscape.org/) -->

<svg
   xmlns:dc="http://purl.org/dc/elements/1.1/"
   xmlns:cc="http://creativecommons.org/ns#"
   xmlns:rdf="http://www.w3.org/1999/02/22-rdf-syntax-ns#"
   xmlns:svg="http://www.w3.org/2000/svg"
   xmlns="http://www.w3.org/2000/svg"
   xmlns:xlink="http://www.w3.org/1999/xlink"
   xmlns:sodipodi="http://sodipodi.sourceforge.net/DTD/sodipodi-0.dtd"
   xmlns:inkscape="http://www.inkscape.org/namespaces/inkscape"
   width="48px"
   height="48px"
   id="svg2835"
   version="1.1"
   inkscape:version="0.47 r22583"
   sodipodi:docname="Nouveau document 3">
  <defs
     id="defs2837">
    <inkscape:perspective
       sodipodi:type="inkscape:persp3d"
       inkscape:vp_x="0 : 24 : 1"
       inkscape:vp_y="0 : 1000 : 0"
       inkscape:vp_z="48 : 24 : 1"
       inkscape:persp3d-origin="24 : 16 : 1"
       id="perspective2843" />
    <inkscape:perspective
       id="perspective2830"
       inkscape:persp3d-origin="0.5 : 0.33333333 : 1"
       inkscape:vp_z="1 : 0.5 : 1"
       inkscape:vp_y="0 : 1000 : 0"
       inkscape:vp_x="0 : 0.5 : 1"
       sodipodi:type="inkscape:persp3d" />
    <linearGradient
       gradientUnits="userSpaceOnUse"
       y2="21.132059"
       x2="22.892584"
       y1="0.90414524"
       x1="22.892584"
       id="linearGradient3178"
       xlink:href="#linearGradient3172"
       inkscape:collect="always" />
    <linearGradient
       y2="546.64789"
       x2="325.71429"
       y1="369.50507"
       x1="325.71429"
       gradientTransform="matrix(0.1377049,0,0,0.1377049,-20.852457,-45.850258)"
       gradientUnits="userSpaceOnUse"
       id="linearGradient2678"
       xlink:href="#linearGradient3155"
       inkscape:collect="always" />
    <linearGradient
       y2="546.64789"
       x2="325.71429"
       y1="369.50507"
       x1="325.71429"
       gradientTransform="matrix(0.1377049,0,0,0.1377049,29.147543,-45.850258)"
       gradientUnits="userSpaceOnUse"
       id="linearGradient2660"
       xlink:href="#linearGradient3155"
       inkscape:collect="always" />
    <linearGradient
       y2="546.64789"
       x2="325.71429"
       y1="369.50507"
       x1="325.71429"
       gradientTransform="matrix(0.1721311,0,0,0.1721311,-14.532357,-62.627292)"
       gradientUnits="userSpaceOnUse"
       id="linearGradient2628"
       xlink:href="#linearGradient3155"
       inkscape:collect="always" />
    <linearGradient
       inkscape:collect="always"
       xlink:href="#linearGradient3155"
       id="linearGradient2735"
       gradientUnits="userSpaceOnUse"
       gradientTransform="matrix(0.1377049,0,0,0.1377049,-20.852457,-45.850258)"
       x1="325.71429"
       y1="369.50507"
       x2="325.71429"
       y2="546.64789" />
    <linearGradient
       gradientTransform="matrix(0.1377049,0,0,0.1377049,-20.852457,-45.850258)"
       y2="546.64789"
       x2="325.71429"
       y1="369.50507"
       x1="325.71429"
       gradientUnits="userSpaceOnUse"
       id="linearGradient2454"
       xlink:href="#linearGradient3155"
       inkscape:collect="always" />
    <linearGradient
       id="linearGradient3155">
      <stop
         style="stop-color:#4d4d4d;stop-opacity:1;"
         offset="0"
         id="stop3157" />
      <stop
         style="stop-color:#4d4d4d;stop-opacity:0;"
         offset="1"
         id="stop3159" />
    </linearGradient>
    <inkscape:perspective
       id="perspective27"
       inkscape:persp3d-origin="24 : 16 : 1"
       inkscape:vp_z="48 : 24 : 1"
       inkscape:vp_y="0 : 1000 : 0"
       inkscape:vp_x="0 : 24 : 1"
       sodipodi:type="inkscape:persp3d" />
    <linearGradient
       id="linearGradient3172">
      <stop
         id="stop3174"
         offset="0"
         style="stop-color:#4d4d4d;stop-opacity:1;" />
      <stop
         id="stop3176"
         offset="1"
         style="stop-color:#4d4d4d;stop-opacity:0;" />
    </linearGradient>
    <linearGradient
       inkscape:collect="always"
       xlink:href="#linearGradient3172"
       id="linearGradient2962"
       gradientUnits="userSpaceOnUse"
       x1="22.892584"
       y1="0.90414524"
       x2="22.892584"
       y2="21.132059" />
    <linearGradient
       inkscape:collect="always"
       xlink:href="#linearGradient3172"
       id="linearGradient2967"
       gradientUnits="userSpaceOnUse"
       x1="22.892584"
       y1="0.90414524"
       x2="22.892584"
       y2="21.132059"
       gradientTransform="matrix(0.644962,0,0,-1.1832362,59.235153,43.983663)" />
    <linearGradient
       inkscape:collect="always"
       xlink:href="#linearGradient3172"
       id="linearGradient2970"
       gradientUnits="userSpaceOnUse"
       gradientTransform="matrix(0.644962,0,0,1.1832362,9.235153,4.0266913)"
       x1="22.892584"
       y1="0.90414524"
       x2="22.892584"
       y2="21.132059" />
  </defs>
  <sodipodi:namedview
     id="base"
     pagecolor="#ffffff"
     bordercolor="#666666"
     borderopacity="1.0"
     inkscape:pageopacity="0.0"
     inkscape:pageshadow="2"
     inkscape:zoom="7"
     inkscape:cx="24"
     inkscape:cy="24"
     inkscape:current-layer="layer1"
     showgrid="true"
     inkscape:grid-bbox="true"
     inkscape:document-units="px"
     inkscape:window-width="1364"
     inkscape:window-height="721"
     inkscape:window-x="0"
     inkscape:window-y="23"
     inkscape:window-maximized="1" />
  <metadata
     id="metadata2840">
    <rdf:RDF>
      <cc:Work
         rdf:about="">
        <dc:format>image/svg+xml</dc:format>
        <dc:type
           rdf:resource="http://purl.org/dc/dcmitype/StillImage" />
        <dc:title></dc:title>
      </cc:Work>
    </rdf:RDF>
  </metadata>
  <g
     id="layer1"
     inkscape:label="Layer 1"
     inkscape:groupmode="layer">
    <path
       style="fill:#000000"
       d="m 4.8618357,40.840052 c -0.32188,-0.14861 -0.54084,-0.36004 -0.71569,-0.69106 -0.17974,-0.3403 -0.19617,-1.03558 -0.0355,-1.50099 0.0588,-0.17042 4.1285,-7.127121 9.0436803,-15.459331 6.770951,-11.478119 9.007751,-15.2222977 9.229911,-15.4499377 0.88572,-0.9076 2.11366,-0.88146 2.97912,0.0634 0.25656,0.2801 2.51767,4.0133687 9.37477,15.4784677 4.97017,8.31014 9.08719,15.236741 9.14893,15.392461 0.15215,0.38369 0.1503,0.95981 -0.004,1.30548 -0.15945,0.35682 -0.40261,0.59148 -0.81505,0.78655 l -0.3381,0.15992 -18.81102,0.0143 c -18.1778213,0.0138 -18.8193113,0.0105 -19.0569213,-0.0992 z M 30.711627,37.751501 c 4.95326,-0.0394 9.01461,-0.0786 9.02522,-0.0872 0.07,-0.0563 -6.55425,-11.06629 -10.7614,-17.88636 -2.77399,-4.496819 -5.07422,-8.208779 -5.11163,-8.248809 -0.1116,-0.11944 -5.32808,8.543139 -10.741971,17.838299 -2.65866,4.56468 -4.8210303,8.31326 -4.8052603,8.33017 0.0323,0.0346 4.7772903,0.0872 9.9465713,0.11018 1.89339,0.008 7.49521,-0.0169 12.44847,-0.0563 z m -7.14635,-1.01656 c -0.0592,-0.0164 -0.10757,-0.0629 -0.10757,-0.10321 0,-0.0403 0.81718,-1.12157 1.81597,-2.40278 0.99879,-1.2812 1.79303,-2.35242 1.76497,-2.38047 -0.0281,-0.0281 -1.01814,-0.56126 -2.20019,-1.18491 -1.32126,-0.69709 -2.1714,-1.11205 -2.20686,-1.07718 -0.0358,0.0352 0.0621,0.5638 0.25832,1.3945 l 0.316,1.33778 0.039,2.00739 c 0.0394,2.02958 0.026,2.20295 -0.18062,2.34095 -0.0918,0.0613 -0.8642,0.054 -1.20268,-0.0113 -0.48347,-0.0933 -0.47383,-0.0508 -0.51307,-2.25947 l -0.0347,-1.95467 -0.32918,-1.33453 c -0.18105,-0.73399 -0.34253,-1.34788 -0.35886,-1.3642 -0.0163,-0.0163 -0.85688,1.42382 -1.86791,3.20031 -1.01104,1.7765 -1.91846,3.3102 -2.01649,3.40824 -0.28528,0.28528 -0.42741,0.28804 -0.82404,0.016 -0.19039,-0.13058 -0.42861,-0.31399 -0.52936,-0.4076 -0.1658,-0.15402 -0.18047,-0.19858 -0.15446,-0.46928 0.0319,-0.33181 -0.0155,-0.24361 2.56425,-4.76874 0.84766,-1.48684 1.54119,-2.76013 1.54119,-2.82953 0,-0.0972 -0.14214,-0.20146 -0.61895,-0.45395 l -0.61895,-0.32776 -0.14607,0.13722 c -0.20177,0.18956 -0.35217,0.1349 -0.81372,-0.29572 -0.57186,-0.53353 -0.59642,-0.4325 0.70467,-2.89782 0.59889,-1.13478 1.16386,-2.13931 1.25549,-2.23229 l 0.1666,-0.16905 2.62395,0 c 2.47246,0 2.62157,-0.006 2.58272,-0.10745 -0.38055,-0.9917 0.0298,-2.10013 0.94404,-2.55013 0.38079,-0.18743 1.0239,-0.19073 1.42554,-0.007 0.35995,0.16437 0.68726,0.49214 0.8983,0.89959 0.1412,0.27261 0.16654,0.39901 0.16905,0.84321 0.003,0.45164 -0.0205,0.57018 -0.16956,0.87382 -0.32233,0.6564 -0.92308,1.03187 -1.65098,1.03187 l -0.35695,0 0.0328,0.35348 c 0.0181,0.19441 0.11381,1.78657 0.21275,3.53813 0.1559,2.75997 0.16876,3.21697 0.0964,3.42693 l -0.0835,0.24228 0.82384,0.43527 c 0.45311,0.23941 0.8511,0.42619 0.88444,0.41508 0.0333,-0.0111 0.35783,-0.39361 0.7211,-0.84999 0.41967,-0.52721 0.73897,-0.86953 0.87567,-0.93879 0.19272,-0.0976 0.38616,-0.10725 1.85522,-0.0922 1.55813,0.016 1.64872,0.0233 1.81348,0.14634 0.23844,0.17812 5.60427,7.09767 5.60959,7.23389 0.002,0.0602 -0.0303,0.12025 -0.0726,0.13338 -0.11473,0.0356 -14.8131,0.0894 -14.93817,0.0546 z m 0.84143,-8.81166 c -0.0464,-0.79455 -0.0921,-1.56516 -0.10169,-1.71247 -0.0167,-0.25636 -0.0424,-0.21161 -0.60142,1.04413 -0.3212,0.72158 -0.584,1.33796 -0.584,1.36974 0,0.0497 1.32954,0.78796 1.36016,0.75522 0.006,-0.007 -0.0267,-0.66207 -0.0731,-1.45662 z m -3.95808,-2.57494 c 0.36796,-0.82263 0.68563,-1.54802 0.70592,-1.61197 0.0346,-0.10893 -0.003,-0.11624 -0.59735,-0.11577 l -0.63425,4.9e-4 -0.18579,0.35298 c -0.10219,0.19414 -0.41435,0.78702 -0.6937,1.31752 l -0.50791,0.96454 0.57075,0.31002 c 0.31392,0.1705 0.59383,0.30278 0.62204,0.29395 0.0282,-0.009 0.35233,-0.68913 0.72029,-1.51176 z"
       id="path2818" />
    <path
       style="fill:url(#linearGradient2970);fill-opacity:1;stroke:none"
       d="m 24,29.666604 c -0.424608,0 -0.830791,-0.01975 -1.25,-0.03125 -0.02016,-0.0056 -0.121388,-0.06605 -0.125,-0.0625 -0.0027,0.0026 0.0012,0.05436 0,0.0625 -1.37434,-0.04149 -2.728238,-0.1852 -4.03125,-0.34375 0.272927,-0.501527 0.75,-1.372005 0.75,-1.40625 0,-0.0972 -0.14819,-0.18501 -0.625,-0.4375 l -0.625,-0.34375 -0.125,0.15625 c -0.20177,0.18956 -0.35095,0.11812 -0.8125,-0.3125 -0.57186,-0.53353 -0.61359,-0.44093 0.6875,-2.90625 0.59889,-1.13478 1.15837,-2.12577 1.25,-2.21875 l 0.1875,-0.15625 2.625,0 c 2.47246,0 2.60135,-0.02355 2.5625,-0.125 -0.38055,-0.9917 0.02326,-2.08125 0.9375,-2.53125 0.38079,-0.18743 1.03586,-0.21498 1.4375,-0.03125 0.35995,0.16437 0.69521,0.4988 0.90625,0.90625 0.1412,0.27261 0.15374,0.39955 0.15625,0.84375 0.003,0.45164 -0.0072,0.57136 -0.15625,0.875 -0.32233,0.6564 -0.92835,1.03125 -1.65625,1.03125 l -0.375,0 0.0625,0.34375 c 0.0181,0.19441 0.08856,1.81094 0.1875,3.5625 0.107754,1.907626 0.166071,2.676394 0.15625,3.0625 -0.705757,0.03297 -1.403084,0.0625 -2.125,0.0625 z m 0.46875,-0.28125 c 0.006,-0.007 -0.0161,-0.6742 -0.0625,-1.46875 -0.0464,-0.79455 -0.08416,-1.57144 -0.09375,-1.71875 -0.0167,-0.25636 -0.03473,-0.19324 -0.59375,1.0625 -0.3212,0.72158 -0.59375,1.34322 -0.59375,1.375 0,0.0497 1.31313,0.78274 1.34375,0.75 z m 4.75,-0.0625 c 0.02291,-0.01727 0.07649,-0.05376 0.09375,-0.0625 0.143469,-0.07266 0.454748,-0.09248 1.125,-0.09375 -0.40592,0.05965 -0.804486,0.107738 -1.21875,0.15625 z m 5.03125,-0.875 c -1.786325,-2.95304 -3.693712,-6.082745 -5.28125,-8.65625 -2.77399,-4.496819 -5.05634,-8.20997 -5.09375,-8.25 -0.107683,-0.115248 -4.982818,7.958593 -10.1875,16.875 -1.067029,-0.268744 -2.089498,-0.591824 -3.0625,-0.9375 0.885426,-1.505186 1.554128,-2.624834 2.53125,-4.28125 6.770951,-11.478119 8.99659,-15.2411097 9.21875,-15.4687497 0.88572,-0.9076 2.13454,-0.88236 3,0.0625 0.25656,0.2801 2.5179,4.0349007 9.375,15.4999997 1.370696,2.291808 1.326246,2.281649 2.5,4.25 -0.954908,0.334577 -1.955784,0.645333 -3,0.90625 z m -14.53125,-1.59375 c 0.0282,-0.009 0.35079,-0.67737 0.71875,-1.5 0.36796,-0.82263 0.69846,-1.56105 0.71875,-1.625 0.0346,-0.10893 6e-4,-0.09422 -0.59375,-0.09375 l -0.625,0 -0.1875,0.34375 c -0.10219,0.19414 -0.4394,0.782 -0.71875,1.3125 l -0.5,0.96875 0.5625,0.3125 c 0.31392,0.1705 0.59679,0.29008 0.625,0.28125 z"
       id="path2956" />
    <g
       transform="matrix(0.1337942,0,0,-0.1337942,31.527762,89.04701)"
       inkscape:label="Calque 1"
       id="g2958" />
    <g
       transform="matrix(0.1672428,0,0,-0.1672428,38.442916,104.62323)"
       inkscape:label="Calque 1"
       id="g2960" />
  </g>
</svg>
