<?xml version="1.0" encoding="UTF-8" standalone="no"?>
<!-- Created with Inkscape (http://www.inkscape.org/) -->

<svg
   xmlns:dc="http://purl.org/dc/elements/1.1/"
   xmlns:cc="http://creativecommons.org/ns#"
   xmlns:rdf="http://www.w3.org/1999/02/22-rdf-syntax-ns#"
   xmlns:svg="http://www.w3.org/2000/svg"
   xmlns="http://www.w3.org/2000/svg"
   xmlns:xlink="http://www.w3.org/1999/xlink"
   xmlns:sodipodi="http://sodipodi.sourceforge.net/DTD/sodipodi-0.dtd"
   xmlns:inkscape="http://www.inkscape.org/namespaces/inkscape"
   width="48px"
   height="48px"
   id="svg2840"
   version="1.1"
   inkscape:version="0.47 r22583"
   sodipodi:docname="system-config-users.svg">
  <defs
     id="defs2842">
    <inkscape:perspective
       sodipodi:type="inkscape:persp3d"
       inkscape:vp_x="0 : 24 : 1"
       inkscape:vp_y="0 : 1000 : 0"
       inkscape:vp_z="48 : 24 : 1"
       inkscape:persp3d-origin="24 : 16 : 1"
       id="perspective21" />
    <linearGradient
       gradientUnits="userSpaceOnUse"
       y2="21.132059"
       x2="22.892584"
       y1="0.90414524"
       x1="22.892584"
       id="linearGradient3178-5"
       xlink:href="#linearGradient3172-4"
       inkscape:collect="always" />
    <linearGradient
       id="linearGradient3172-4">
      <stop
         id="stop3174-1"
         offset="0"
         style="stop-color:#4d4d4d;stop-opacity:1;" />
      <stop
         id="stop3176-8"
         offset="1"
         style="stop-color:#4d4d4d;stop-opacity:0;" />
    </linearGradient>
    <linearGradient
       inkscape:collect="always"
       xlink:href="#linearGradient3172-4"
       id="linearGradient2930"
       gradientUnits="userSpaceOnUse"
       x1="22.892584"
       y1="0.90414524"
       x2="22.892584"
       y2="21.132059"
       gradientTransform="matrix(0.644962,0,0,-1.1832362,9.2351535,43.983663)" />
    <linearGradient
       inkscape:collect="always"
       xlink:href="#linearGradient3172-4"
       id="linearGradient2936"
       gradientUnits="userSpaceOnUse"
       gradientTransform="matrix(0.644962,0,0,1.1832362,9.2351535,4.0163362)"
       x1="22.892584"
       y1="0.90414524"
       x2="22.892584"
       y2="21.132059" />
  </defs>
  <sodipodi:namedview
     id="base"
     pagecolor="#ffffff"
     bordercolor="#666666"
     borderopacity="1.0"
     inkscape:pageopacity="0.0"
     inkscape:pageshadow="2"
     inkscape:zoom="7"
     inkscape:cx="24"
     inkscape:cy="24"
     inkscape:current-layer="layer1"
     showgrid="true"
     inkscape:grid-bbox="true"
     inkscape:document-units="px"
     inkscape:window-width="1366"
     inkscape:window-height="744"
     inkscape:window-x="-3"
     inkscape:window-y="-3"
     inkscape:window-maximized="1" />
  <metadata
     id="metadata2845">
    <rdf:RDF>
      <cc:Work
         rdf:about="">
        <dc:format>image/svg+xml</dc:format>
        <dc:type
           rdf:resource="http://purl.org/dc/dcmitype/StillImage" />
        <dc:title />
      </cc:Work>
    </rdf:RDF>
  </metadata>
  <g
     id="layer1"
     inkscape:label="Layer 1"
     inkscape:groupmode="layer">
    <path
       sodipodi:nodetypes="ccccccccccccsssssccccsccccscccsssssccsssccscccccccsc"
       id="path2830"
       d="m 14.143,28.429 c 0,-2.714286 0,-12.571858 0,-12.571858 0,0 0.0064,-0.610714 0.324,-1.357143 -2.8215,0 -6.7527142,0 -6.7527142,0 0,0 -2.7142858,0 -2.7142858,2.714286 l 0,9.5 c 0,2.714286 2.7142858,2.714286 2.7142858,2.714286 l 0,13.571429 9.1427152,0 0,-11.857 c 0,0 -2.714001,2.86e-4 -2.714001,-2.714 z M 13.142857,13.142856 c 0.705715,0 1.3585,-0.195428 1.936643,-0.510285 0.08007,-0.04886 0.169643,-0.09229 0.255143,-0.139786 1.127786,-0.723357 1.879643,-1.981429 1.879643,-3.4213573 0,-2.2487858 -1.822643,-4.0714287 -4.071429,-4.0714287 -2.248785,0 -4.0714283,1.8226429 -4.0714283,4.0714287 0,2.2487853 1.8226433,4.0714283 4.0714283,4.0714283 z m 27.142858,1.357143 -6.751715,0 c 0.316214,0.746429 0.323,1.357143 0.323,1.357143 0,0 0,9.857572 0,12.571858 0,2.714286 -2.713999,2.714 -2.713999,2.714 l 0,11.857 9.142714,0 0,-13.571429 c 0,0 2.714286,0 2.714286,-2.714286 0,-2.714285 0,-9.5 0,-9.5 0,0 0,-2.714286 -2.714286,-2.714286 z m -7.627143,-2.009928 c 0.08821,0.0475 0.181857,0.09229 0.263286,0.1425 0.578143,0.314857 1.229571,0.510285 1.935286,0.510285 2.248786,0 4.071429,-1.822643 4.071429,-4.0714283 0,-2.2487858 -1.822643,-4.0714287 -4.071429,-4.0714287 -2.248786,0 -4.071429,1.8226429 -4.071429,4.0714287 0,1.4372143 0.749143,2.6939283 1.872857,3.4186433 z m -8.658571,0.652785 c 2.248785,0 4.071428,-1.822643 4.071428,-4.0714283 0,-2.2487858 -1.822643,-4.0714287 -4.071428,-4.0714287 -2.248786,0 -4.071429,1.8226429 -4.071429,4.0714287 0,2.2487853 1.822643,4.0714283 4.071429,4.0714283 z m 8.142857,4.071429 c 0,0 0,-2.714286 -2.714286,-2.714286 -0.678571,0 -10.857143,0 -10.857143,0 0,0 -2.714286,0 -2.714286,2.714286 l 0,9.5 c 0,2.714286 2.714286,2.714286 2.714286,2.714286 l 0,13.571429 10.857143,0 0,-13.571429 c 0,0 2.714286,0 2.714286,-2.714286 0,-2.714285 0,-9.5 0,-9.5 z"
       style="fill:#000000;fill-opacity:1" />
    <path
       style="fill:url(#linearGradient2936);fill-opacity:1;stroke:none"
       d="m 24,29.656249 c -2.336214,0 -4.583049,-0.202521 -6.71875,-0.53125 -0.02205,-0.01033 -0.04042,-0.02021 -0.0625,-0.03125 -0.678572,-0.339286 -1.375,-1.017857 -1.375,-2.375 l 0,-9.5 c 0,-2.714286 2.71875,-2.71875 2.71875,-2.71875 l 10.875,0 c 2.714286,0 2.71875,2.71875 2.71875,2.71875 l 0,9.5 c 0,1.357143 -0.696428,2.035714 -1.375,2.375 -0.02208,0.01104 -0.04045,0.02092 -0.0625,0.03125 -2.135701,0.328729 -4.382536,0.53125 -6.71875,0.53125 z m -9.84375,-1.125 C 10.534741,27.670017 7.3988283,26.327354 5,24.687499 l 0,-7.46875 c 0,-2.714286 2.71875,-2.71875 2.71875,-2.71875 l 6.75,0 c -0.3176,0.746429 -0.3125,1.34375 -0.3125,1.34375 l 0,12.59375 c 0,0.03378 -8.3e-4,0.06081 0,0.09375 z m 19.6875,0 c 8.3e-4,-0.03294 0,-0.05997 0,-0.09375 l 0,-12.59375 c 0,0 0.0037,-0.597321 -0.3125,-1.34375 l 6.75,0 c 2.714286,0 2.71875,2.71875 2.71875,2.71875 l 0,7.46875 c -2.398828,1.639855 -5.534741,2.982518 -9.15625,3.84375 z m -20.6875,-15.375 c -2.248785,0 -4.09375,-1.844964 -4.09375,-4.0937498 0,-2.248785 1.844965,-4.0625 4.09375,-4.0625 2.248786,0 4.0625,1.813715 4.0625,4.0625 0,1.4399288 -0.747214,2.7141428 -1.875,3.4374998 -0.0855,0.0475 -0.16993,0.07614 -0.25,0.125 -0.578143,0.314858 -1.231785,0.53125 -1.9375,0.53125 z m 10.84375,0 c -2.248786,0 -4.0625,-1.844964 -4.0625,-4.0937498 0,-2.248785 1.813714,-4.0625 4.0625,-4.0625 2.248785,0 4.0625,1.813715 4.0625,4.0625 0,2.2487858 -1.813715,4.0937498 -4.0625,4.0937498 z m 10.84375,0 c -0.705715,0 -1.359357,-0.216392 -1.9375,-0.53125 -0.08143,-0.05021 -0.16179,-0.0775 -0.25,-0.125 -1.123714,-0.724714 -1.875,-2.000285 -1.875,-3.4374998 0,-2.248785 1.813714,-4.0625 4.0625,-4.0625 2.248786,0 4.09375,1.813715 4.09375,4.0625 0,2.2487858 -1.844964,4.0937498 -4.09375,4.0937498 z"
       id="path2400" />
    <g
       transform="matrix(0.1337942,0,0,-0.1337942,31.527762,89.04701)"
       inkscape:label="Calque 1"
       id="g2972" />
    <g
       transform="matrix(0.1672428,0,0,-0.1672428,38.442916,104.62323)"
       inkscape:label="Calque 1"
       id="g2974" />
    <g
       id="g2453"
       inkscape:label="Calque 1"
       transform="matrix(0.1337942,0,0,-0.1337942,-18.472238,89.04701)" />
    <g
       id="g2615"
       inkscape:label="Calque 1"
       transform="matrix(0.1672428,0,0,-0.1672428,-11.557084,104.62323)" />
  </g>
</svg>
