<?xml version="1.0" encoding="UTF-8" standalone="no"?>
<!-- Created with Inkscape (http://www.inkscape.org/) -->

<svg
   xmlns:dc="http://purl.org/dc/elements/1.1/"
   xmlns:cc="http://creativecommons.org/ns#"
   xmlns:rdf="http://www.w3.org/1999/02/22-rdf-syntax-ns#"
   xmlns:svg="http://www.w3.org/2000/svg"
   xmlns="http://www.w3.org/2000/svg"
   xmlns:xlink="http://www.w3.org/1999/xlink"
   xmlns:sodipodi="http://sodipodi.sourceforge.net/DTD/sodipodi-0.dtd"
   xmlns:inkscape="http://www.inkscape.org/namespaces/inkscape"
   width="48px"
   height="48px"
   id="svg2951"
   version="1.1"
   inkscape:version="0.47 r22583"
   sodipodi:docname="Nouveau document 3">
  <defs
     id="defs2953">
    <linearGradient
       inkscape:collect="always"
       xlink:href="#linearGradient3172"
       id="linearGradient2931"
       gradientUnits="userSpaceOnUse"
       gradientTransform="matrix(0.644962,0,0,1.1832362,9.2351527,4.0165036)"
       x1="22.892584"
       y1="0.90414524"
       x2="22.892584"
       y2="21.132059" />
    <linearGradient
       id="linearGradient3172">
      <stop
         id="stop3174"
         offset="0"
         style="stop-color:#4d4d4d;stop-opacity:1;" />
      <stop
         id="stop3176"
         offset="1"
         style="stop-color:#4d4d4d;stop-opacity:0;" />
    </linearGradient>
  </defs>
  <sodipodi:namedview
     id="base"
     pagecolor="#ffffff"
     bordercolor="#666666"
     borderopacity="1.0"
     inkscape:pageopacity="0.0"
     inkscape:pageshadow="2"
     inkscape:zoom="7"
     inkscape:cx="24"
     inkscape:cy="24"
     inkscape:current-layer="layer1"
     showgrid="true"
     inkscape:grid-bbox="true"
     inkscape:document-units="px"
     inkscape:window-width="596"
     inkscape:window-height="502"
     inkscape:window-x="768"
     inkscape:window-y="242"
     inkscape:window-maximized="0" />
  <metadata
     id="metadata2956">
    <rdf:RDF>
      <cc:Work
         rdf:about="">
        <dc:format>image/svg+xml</dc:format>
        <dc:type
           rdf:resource="http://purl.org/dc/dcmitype/StillImage" />
        <dc:title></dc:title>
      </cc:Work>
    </rdf:RDF>
  </metadata>
  <g
     id="layer1"
     inkscape:label="Layer 1"
     inkscape:groupmode="layer">
    <path
       style="fill:#000000;fill-opacity:1;fill-rule:evenodd;stroke:none;stroke-width:1.69999993;marker:none;visibility:visible;display:inline;overflow:visible;enable-background:accumulate"
       id="path2399"
       d="m 20.306819,42.984683 c -0.712147,-0.105534 -1.339798,-0.642604 -1.534091,-1.383026 l -0.852273,-3.227062 -1.420454,2.535548 c -0.505105,0.883865 -1.628525,1.146177 -2.5,0.633888 -0.871472,-0.512288 -1.186925,-1.651683 -0.681818,-2.535549 l 1.420455,-2.477923 -3.181817,0.864392 c -0.486693,0.131369 -0.961533,0.0059 -1.363637,-0.230505 -0.4021056,-0.23637 -0.7227446,-0.601281 -0.8522736,-1.094896 -0.259061,-0.987226 0.333428,-2.0423 1.3068196,-2.305044 l 5.624999,-1.498279 1.136363,-0.28813 3.465909,-6.108368 -6.988636,0 -0.795454,0.806765 -4.1477266,4.14908 c -0.713451,0.72116 -1.902591,0.723594 -2.613637,0 -0.711049,-0.723592 -0.713451,-1.929642 0,-2.650801 l 2.329545,-2.362671 -2.840909,0 c -1.00727,-0.0017 -1.819879,-0.82244 -1.818181,-1.844035 0.0017,-1.021587 0.81091,-1.845758 1.818181,-1.844035 l 2.840909,0 -2.329545,-2.362671 c -0.355523,-0.361794 -0.512147,-0.854029 -0.511364,-1.3254 7.84e-4,-0.471368 0.154637,-0.964822 0.511364,-1.3254 0.713449,-0.721157 1.902589,-0.723596 2.613637,0 l 4.1477266,4.264331 0.795454,0.806766 6.988636,0 -3.522727,-6.165995 -1.079545,-0.288129 -5.681817,-1.555905 C 9.6184014,13.905556 9.0217494,12.852922 9.2840924,11.866584 c 0.26234,-0.986339 1.3002186,-1.533848 2.2727286,-1.267773 l 3.181817,0.864392 -1.420455,-2.5355494 c -0.502167,-0.885583 -0.191354,-1.968617 0.681818,-2.477924 0.87317,-0.509298 1.997835,-0.251702 2.5,0.633888 l 1.420454,2.535549 0.852273,-3.227063 c 0.131164,-0.493169 0.449386,-0.917525 0.852273,-1.152521 0.402887,-0.234998 0.9342,-0.305915 1.420454,-0.172879 0.972511,0.266076 1.569162,1.318704 1.306818,2.305044 L 20.818183,13.076733 20.534091,14.171629 24,20.279997 27.465909,14.171629 27.181818,13.076733 25.647727,7.3141216 c -0.259056,-0.987233 0.390248,-1.984674 1.363636,-2.247418 0.973391,-0.262746 1.956851,0.338169 2.215909,1.3254 l 0.852273,3.227063 1.420454,-2.535549 c 0.505106,-0.883863 1.628525,-1.146175 2.5,-0.633888 0.871473,0.512289 1.186925,1.594056 0.681818,2.477924 l -1.420455,2.5355494 3.181819,-0.864392 c 0.486692,-0.13137 0.961531,-0.0059 1.363635,0.230503 0.402106,0.236378 0.722744,0.601281 0.852273,1.094896 0.259063,0.987234 -0.333427,2.042301 -1.306818,2.305046 l -5.625,1.498278 -1.136363,0.288129 -3.522727,6.165995 7.045454,0 0.795455,-0.806766 4.147726,-4.149079 c 0.713453,-0.721159 1.902591,-0.723594 2.613636,0 0.711047,0.723596 0.713451,1.929642 0,2.650801 l -2.329545,2.36267 2.840909,0 c 1.007271,0.0017 1.81988,0.822441 1.818182,1.844035 -0.0017,1.021596 -0.810909,1.845758 -1.818182,1.844036 l -2.840909,0 2.329545,2.362671 c 0.355522,0.361797 0.512147,0.85403 0.511364,1.3254 -7.86e-4,0.471372 -0.154637,0.964821 -0.511364,1.325401 -0.713447,0.72116 -1.902589,0.723595 -2.613636,0 l -4.147726,-4.264333 -0.795455,-0.806765 -6.931817,0 3.465908,6.108368 1.079545,0.28813 5.681819,1.555905 c 0.972508,0.266076 1.569161,1.261081 1.306817,2.247418 -0.262344,0.986342 -1.300218,1.591473 -2.272726,1.325401 l -3.181819,-0.864392 1.420455,2.535549 c 0.502167,0.885589 0.191355,1.968618 -0.681818,2.477923 -0.873169,0.509304 -1.997834,0.251701 -2.5,-0.633888 l -1.420454,-2.535548 -0.852273,3.227062 c -0.131163,0.493168 -0.449385,0.859899 -0.852272,1.094896 -0.402887,0.234996 -0.934201,0.36354 -1.420455,0.230504 -0.972511,-0.266072 -1.569161,-1.318705 -1.306818,-2.305044 L 27.181818,34.917028 27.465909,33.764506 24,27.656138 l -3.465909,6.165994 0.284092,1.094896 1.53409,5.762611 c 0.259057,0.98723 -0.390247,1.984674 -1.363636,2.247418 -0.243348,0.06568 -0.444436,0.09281 -0.681818,0.05763 z"
       sodipodi:nodetypes="ccccscccsscccccccscccscccsscccccccscccscccsscccccccscccscccsscccccccscccscccsscccccccscccscccsscccccccsc" />
    <path
       style="fill:url(#linearGradient2931);fill-opacity:1;stroke:none"
       d="m 22.875,29.625167 c -1.34888,-0.03331 -2.686892,-0.135086 -3.96875,-0.28125 l 1.96875,-3.46875 -7,0 -0.78125,0.8125 -1.21875,1.21875 C 10.509821,27.483261 9.2378527,26.989981 8.0624997,26.437667 l 0.59375,-0.625 -1.84375,0 c -1.041811,-0.564127 -1.98333,-1.185374 -2.8125,-1.84375 0.0017,-1.021587 0.805229,-1.845473 1.8125,-1.84375 l 2.84375,0 -2.3125,-2.375 c -0.355523,-0.361794 -0.532033,-0.841129 -0.53125,-1.3125 7.84e-4,-0.471368 0.174523,-0.951922 0.53125,-1.3125 0.713449,-0.721157 1.882702,-0.723596 2.59375,0 l 4.1562503,4.25 0.78125,0.8125 7,0 -3.53125,-6.1875 -1.0625,-0.28125 -5.6875,-1.5625 C 9.6212397,13.890344 9.0189067,12.861505 9.2812497,11.875167 9.5435897,10.888828 10.58999,10.327842 11.5625,10.593917 l 3.1875,0.875 -1.4375,-2.5312504 c -0.502167,-0.885583 -0.185672,-1.990693 0.6875,-2.5 0.87317,-0.509298 1.997835,-0.22934 2.5,0.65625 l 1.40625,2.53125 0.875,-3.21875 c 0.131164,-0.493169 0.440863,-0.921254 0.84375,-1.15625 0.402887,-0.234998 0.919996,-0.320536 1.40625,-0.1875 0.972511,0.266076 1.574844,1.32616 1.3125,2.3125 l -1.53125,5.6875004 -0.28125,1.09375 3.46875,6.125 3.46875,-6.125 -0.28125,-1.09375 -1.53125,-5.7500004 c -0.259056,-0.987233 0.370362,-1.987256 1.34375,-2.25 0.973391,-0.262746 1.959692,0.356519 2.21875,1.34375 l 0.875,3.21875 1.40625,-2.53125 c 0.505106,-0.883863 1.628525,-1.168537 2.5,-0.65625 0.871473,0.512289 1.192607,1.616132 0.6875,2.5 l -1.4375,2.5312504 3.1875,-0.875 c 0.486692,-0.13137 0.972896,0.0136 1.375,0.25 0.402106,0.236378 0.714221,0.600135 0.84375,1.09375 0.259063,0.987234 -0.339109,2.018505 -1.3125,2.28125 l -5.625,1.5 -1.125,0.28125 -3.53125,6.1875 7.0625,0 0.78125,-0.8125 4.15625,-4.15625 c 0.713453,-0.721159 1.882705,-0.723594 2.59375,0 0.711047,0.723596 0.713451,1.935091 0,2.65625 l -2.3125,2.375 2.84375,0 c 0.976011,0.0016 1.765749,0.772767 1.8125,1.75 -0.88471,0.700571 -1.906663,1.344529 -3.03125,1.9375 l -1.625,0 0.53125,0.53125 c -1.166141,0.54413 -2.429844,1.019935 -3.78125,1.4375 l -1.1875,-1.21875 -0.78125,-0.8125 -6.9375,0 1.96875,3.46875 c -1.301514,0.150341 -2.660357,0.247392 -4.03125,0.28125 L 24,27.656417 l -1.125,1.96875 z"
       id="path2917" />
  </g>
</svg>
