<?xml version="1.0" encoding="UTF-8" standalone="no"?>
<!-- Created with Inkscape (http://www.inkscape.org/) -->

<svg
   xmlns:dc="http://purl.org/dc/elements/1.1/"
   xmlns:cc="http://creativecommons.org/ns#"
   xmlns:rdf="http://www.w3.org/1999/02/22-rdf-syntax-ns#"
   xmlns:svg="http://www.w3.org/2000/svg"
   xmlns="http://www.w3.org/2000/svg"
   xmlns:xlink="http://www.w3.org/1999/xlink"
   xmlns:sodipodi="http://sodipodi.sourceforge.net/DTD/sodipodi-0.dtd"
   xmlns:inkscape="http://www.inkscape.org/namespaces/inkscape"
   width="48px"
   height="48px"
   id="svg4289"
   sodipodi:version="0.32"
   inkscape:version="0.47 r22583"
   sodipodi:docname="applications-internet.svg"
   inkscape:output_extension="org.inkscape.output.svg.inkscape"
   version="1.1">
  <defs
     id="defs4291">
    <linearGradient
       gradientUnits="userSpaceOnUse"
       y2="21.132059"
       x2="22.892584"
       y1="0.90414524"
       x1="22.892584"
       id="linearGradient3178"
       xlink:href="#linearGradient3172"
       inkscape:collect="always" />
    <linearGradient
       id="linearGradient3172">
      <stop
         id="stop3174"
         offset="0"
         style="stop-color:#4d4d4d;stop-opacity:1;" />
      <stop
         id="stop3176"
         offset="1"
         style="stop-color:#4d4d4d;stop-opacity:0;" />
    </linearGradient>
    <linearGradient
       inkscape:collect="always"
       xlink:href="#linearGradient3172"
       id="linearGradient2985"
       gradientUnits="userSpaceOnUse"
       x1="22.892584"
       y1="0.90414524"
       x2="22.892584"
       y2="21.132059" />
    <linearGradient
       inkscape:collect="always"
       xlink:href="#linearGradient3172"
       id="linearGradient2992"
       gradientUnits="userSpaceOnUse"
       x1="22.892584"
       y1="0.90414524"
       x2="22.892584"
       y2="21.132059"
       gradientTransform="matrix(0.644962,0,0,-1.1832362,59.235153,43.983663)" />
    <linearGradient
       inkscape:collect="always"
       xlink:href="#linearGradient3172"
       id="linearGradient2999"
       gradientUnits="userSpaceOnUse"
       gradientTransform="matrix(0.644962,0,0,-1.1832362,59.235153,43.983663)"
       x1="22.892584"
       y1="0.90414524"
       x2="22.892584"
       y2="21.132059" />
    <linearGradient
       inkscape:collect="always"
       xlink:href="#linearGradient3172"
       id="linearGradient3009"
       gradientUnits="userSpaceOnUse"
       gradientTransform="matrix(0.644962,0,0,1.1832362,9.2354629,4.016337)"
       x1="22.892584"
       y1="0.90414524"
       x2="22.892584"
       y2="21.132059" />
  </defs>
  <sodipodi:namedview
     id="base"
     pagecolor="#ffffff"
     bordercolor="#666"
     borderopacity="0.31372549"
     inkscape:pageopacity="0.0"
     inkscape:pageshadow="2"
     inkscape:zoom="5.656854"
     inkscape:cx="49.937042"
     inkscape:cy="19.606407"
     inkscape:current-layer="layer1"
     showgrid="true"
     inkscape:grid-bbox="true"
     inkscape:document-units="px"
     inkscape:window-width="1019"
     inkscape:window-height="693"
     inkscape:window-x="150"
     inkscape:window-y="32"
     inkscape:showpageshadow="false"
     inkscape:window-maximized="0" />
  <metadata
     id="metadata4294">
    <rdf:RDF>
      <cc:Work
         rdf:about="">
        <dc:format>image/svg+xml</dc:format>
        <dc:type
           rdf:resource="http://purl.org/dc/dcmitype/StillImage" />
        <dc:title></dc:title>
        <dc:creator>
          <cc:Agent>
            <dc:title>Andreas Nilsson</dc:title>
          </cc:Agent>
        </dc:creator>
        <dc:subject>
          <rdf:Bag>
            <rdf:li>category</rdf:li>
            <rdf:li>system</rdf:li>
            <rdf:li>preferences</rdf:li>
            <rdf:li>settings</rdf:li>
            <rdf:li>control center</rdf:li>
          </rdf:Bag>
        </dc:subject>
        <dc:contributor>
          <cc:Agent>
            <dc:title>Jakub Steiner</dc:title>
          </cc:Agent>
        </dc:contributor>
        <cc:license
           rdf:resource="http://creativecommons.org/licenses/GPL/2.0/" />
      </cc:Work>
      <cc:License
         rdf:about="http://creativecommons.org/licenses/GPL/2.0/">
        <cc:permits
           rdf:resource="http://web.resource.org/cc/Reproduction" />
        <cc:permits
           rdf:resource="http://web.resource.org/cc/Distribution" />
        <cc:requires
           rdf:resource="http://web.resource.org/cc/Notice" />
        <cc:permits
           rdf:resource="http://web.resource.org/cc/DerivativeWorks" />
        <cc:requires
           rdf:resource="http://web.resource.org/cc/ShareAlike" />
        <cc:requires
           rdf:resource="http://web.resource.org/cc/SourceCode" />
      </cc:License>
    </rdf:RDF>
  </metadata>
  <g
     id="layer1"
     inkscape:label="Layer 1"
     inkscape:groupmode="layer">
    <path
       style="fill:#000000;fill-opacity:1;stroke:none"
       d="m 42.0625,45.96875 -18.15625,-4.3125 c 6.83804,0.242918 13.259486,-3.532638 16.375,-9.625 4.159954,-8.13475 1.387332,-18.014897 -6.125,-22.875 12.390593,7.408345 14.687149,22.340275 4.15625,32.03125 l 3.75,4.78125 z M 15.40625,39.75 c -0.547082,-0.279767 -1.049885,-0.599757 -1.5625,-0.90625 0.500822,0.324007 1.020187,0.628922 1.5625,0.90625 z m -1.5625,-0.90625 C 1.4531585,31.435405 -0.84339891,16.503476 9.6875,6.8125 l -3.75,-4.78125 18.15625,4.3125 c -6.838039,-0.242917 -13.259485,3.532638 -16.375,9.625 -4.1599538,8.13475 -1.3873319,18.014898 6.125,22.875 z M 24,39 c -0.338367,0 -0.667292,-0.009 -1,-0.03125 -0.0066,-0.0043 -0.02465,0.0044 -0.03125,0 -3.571471,-0.245879 -6.798404,-1.749185 -9.25,-4.0625 C 13.389847,34.595898 13.081073,34.276188 12.78125,33.9375 12.483935,33.601641 12.204154,33.236659 11.9375,32.875 10.102836,30.386681 9,27.32649 9,24 c 0,-3.32649 1.102839,-6.386684 2.9375,-8.875 0.266654,-0.361658 0.546435,-0.72664 0.84375,-1.0625 0.299823,-0.338686 0.608598,-0.658398 0.9375,-0.96875 2.451596,-2.313315 5.678528,-3.816622 9.25,-4.0625 0.0066,-0.0044 0.02465,0.0043 0.03125,0 C 23.332707,9.00895 23.661633,9 24,9 c 0.338367,0 0.667296,0.009 1,0.03125 0.0066,0.0043 0.02465,-0.0044 0.03125,0 3.571471,0.245878 6.798404,1.749185 9.25,4.0625 0.328902,0.310352 0.637677,0.630064 0.9375,0.96875 0.297315,0.33586 0.577095,0.700842 0.84375,1.0625 C 37.897165,17.613319 39,20.67351 39,24 c 0,3.32649 -1.102841,6.386681 -2.9375,8.875 -0.266655,0.361659 -0.546435,0.726641 -0.84375,1.0625 -0.299823,0.338688 -0.608598,0.658397 -0.9375,0.96875 -2.451596,2.313314 -5.678529,3.816621 -9.25,4.0625 -0.0066,0.0044 -0.02465,-0.0043 -0.03125,0 C 24.667293,38.99105 24.338367,39 24,39 z m 0,-2.625 c 0.253646,0 0.500398,-0.01617 0.75,-0.03125 1.118996,-1.065566 2.067445,-2.504814 2.8125,-4.15625 -1.11877,-0.170151 -2.313429,-0.25 -3.5625,-0.25 -1.249071,0 -2.44373,0.07985 -3.5625,0.25 0.745055,1.651436 1.693504,3.090684 2.8125,4.15625 0.249602,0.01509 0.496354,0.03125 0.75,0.03125 z m -4.3125,-0.8125 c -0.579828,-0.870217 -1.124447,-1.824207 -1.5625,-2.875 -0.761484,0.211089 -1.464932,0.469017 -2.09375,0.75 1.077444,0.913309 2.314147,1.620905 3.65625,2.125 z m 8.625,0 c 1.342104,-0.504095 2.578806,-1.211691 3.65625,-2.125 -0.628818,-0.280983 -1.332266,-0.538911 -2.09375,-0.75 -0.438053,1.050793 -0.982671,2.004783 -1.5625,2.875 z M 14.21875,31.53125 c 0.928255,-0.416048 1.991771,-0.7771 3.15625,-1.0625 -0.475256,-1.659526 -0.75987,-3.452407 -0.84375,-5.34375 l -4.84375,0 c 0.216571,2.40692 1.131913,4.593756 2.53125,6.40625 z m 19.5625,0 c 1.399338,-1.812494 2.314679,-3.99933 2.53125,-6.40625 l -4.84375,0 c -0.08388,1.891343 -0.368494,3.684224 -0.84375,5.34375 1.164479,0.2854 2.227995,0.646452 3.15625,1.0625 z m -14.1875,-1.5 c 1.378262,-0.206524 2.870282,-0.3125 4.40625,-0.3125 1.535968,0 3.027988,0.105976 4.40625,0.3125 C 28.862978,28.513599 29.1583,26.866819 29.25,25.125 l -5.25,0 -5.25,0 c 0.0917,1.741819 0.387022,3.388599 0.84375,4.90625 z M 11.6875,22.875 l 4.84375,0 c 0.08388,-1.891343 0.368494,-3.684223 0.84375,-5.34375 -1.164479,-0.285399 -2.227995,-0.646452 -3.15625,-1.0625 -1.399337,1.812494 -2.314678,3.99933 -2.53125,6.40625 z m 7.0625,0 5.25,0 5.25,0 c -0.0917,-1.741819 -0.387022,-3.388599 -0.84375,-4.90625 -1.378262,0.206524 -2.870282,0.3125 -4.40625,0.3125 -1.535968,0 -3.027988,-0.105976 -4.40625,-0.3125 C 19.137022,19.486401 18.8417,21.133181 18.75,22.875 z m 12.71875,0 4.84375,0 c -0.216571,-2.40692 -1.131912,-4.593756 -2.53125,-6.40625 -0.928255,0.416048 -1.991771,0.777101 -3.15625,1.0625 0.475256,1.659527 0.75988,3.452407 0.84375,5.34375 z M 24,16.0625 c 1.249071,0 2.44373,-0.111103 3.5625,-0.28125 C 26.817445,14.129814 25.868996,12.721816 24.75,11.65625 24.500398,11.64116 24.253646,11.625 24,11.625 c -0.253646,0 -0.500398,0.01616 -0.75,0.03125 -1.118996,1.065566 -2.067445,2.473564 -2.8125,4.125 1.11877,0.170151 2.313429,0.28125 3.5625,0.28125 z m -5.875,-0.75 c 0.438053,-1.050793 0.982672,-2.004783 1.5625,-2.875 -1.342103,0.504095 -2.578806,1.211691 -3.65625,2.125 0.628818,0.280983 1.332266,0.538911 2.09375,0.75 z m 11.75,0 c 0.761484,-0.211089 1.464932,-0.469017 2.09375,-0.75 -1.077444,-0.913309 -2.314146,-1.620905 -3.65625,-2.125 0.579829,0.870217 1.124447,1.824207 1.5625,2.875 z"
       id="path2448" />
    <g
       transform="matrix(0.1337942,0,0,0.1337942,31.527762,-40.95351)"
       inkscape:label="Calque 1"
       id="g2623" />
    <path
       style="fill:url(#linearGradient3009);fill-opacity:1;stroke:none"
       d="m 19.43781,29.40625 c -0.821794,-0.08345 -1.616531,-0.186019 -2.40625,-0.3125 -0.272344,-1.264756 -0.438627,-2.584904 -0.5,-3.96875 l -4.84375,0 c 0.09204,1.022941 0.297014,2.005906 0.625,2.9375 -1.060827,-0.312731 -2.046122,-0.702687 -3.0000001,-1.09375 -0.196149,-0.959864 -0.3125,-1.950178 -0.3125,-2.96875 0,-3.32649 1.1028391,-6.386684 2.9375001,-8.875 0.266654,-0.361658 0.546435,-0.72664 0.84375,-1.0625 0.299823,-0.338686 0.608598,-0.658398 0.9375,-0.96875 2.451596,-2.313315 5.678528,-3.816622 9.25,-4.0625 0.0066,-0.0044 0.02465,0.0043 0.03125,0 C 23.333017,9.0089 23.661943,9 24.00031,9 c 0.338367,0 0.667296,0.009 1,0.03125 0.0066,0.0043 0.02465,-0.0044 0.03125,0 3.571471,0.245878 6.798404,1.749185 9.25,4.0625 0.328902,0.310352 0.637677,0.630064 0.9375,0.96875 0.297315,0.33586 0.577095,0.700842 0.84375,1.0625 1.834665,2.488319 2.9375,5.54851 2.9375,8.875 0,1.018572 -0.11635,2.008886 -0.3125,2.96875 -0.953878,0.391063 -1.939173,0.781019 -3,1.09375 0.327986,-0.931594 0.532957,-1.914559 0.625,-2.9375 l -4.84375,0 c -0.06137,1.383846 -0.227655,2.703994 -0.5,3.96875 -0.789719,0.126481 -1.584456,0.229047 -2.40625,0.3125 0.357097,-1.34313 0.608129,-2.77361 0.6875,-4.28125 l -5.25,0 -5.25,0 c 0.07937,1.50764 0.330402,2.93812 0.6875,4.28125 z M 5.8440599,25.25 c -1.033777,-0.630372 -1.934483,-1.301488 -2.71875,-2.03125 -0.635647,-5.727152 1.437861,-11.690342 6.5625,-16.40625 l -3.75,-4.78125 18.1562501,4.3125 c -6.838039,-0.242917 -13.259485,3.532638 -16.3750001,9.625 -1.519262,2.970901 -2.098243,6.174305 -1.875,9.28125 z m 36.3125001,0 c 0.439989,-6.283422 -2.50126,-12.53634 -8,-16.09375 5.863669,3.505892 9.478431,8.695828 10.53125,14.21875 -0.743647,0.668389 -1.575441,1.29217 -2.53125,1.875 z m -30.46875,-2.375 4.84375,0 c 0.08388,-1.891343 0.368494,-3.684223 0.84375,-5.34375 -1.164479,-0.285399 -2.227995,-0.646452 -3.15625,-1.0625 -1.399337,1.812494 -2.314678,3.99933 -2.53125,6.40625 z m 7.0625,0 5.25,0 5.25,0 c -0.0917,-1.741819 -0.387022,-3.388599 -0.84375,-4.90625 -1.378262,0.206524 -2.870282,0.3125 -4.40625,0.3125 -1.535968,0 -3.027988,-0.105976 -4.40625,-0.3125 -0.456728,1.517651 -0.75205,3.164431 -0.84375,4.90625 z m 12.71875,0 4.84375,0 c -0.216571,-2.40692 -1.131912,-4.593756 -2.53125,-6.40625 -0.928255,0.416048 -1.991771,0.777101 -3.15625,1.0625 0.475256,1.659527 0.75988,3.452407 0.84375,5.34375 z m -7.46875,-6.8125 c 1.249071,0 2.44373,-0.111103 3.5625,-0.28125 -0.745055,-1.651436 -1.693504,-3.059434 -2.8125,-4.125 -0.249602,-0.01509 -0.496354,-0.03125 -0.75,-0.03125 -0.253646,0 -0.500398,0.01616 -0.75,0.03125 -1.118996,1.065566 -2.067445,2.473564 -2.8125,4.125 1.11877,0.170151 2.313429,0.28125 3.5625,0.28125 z m -5.875,-0.75 c 0.438053,-1.050793 0.982672,-2.004783 1.5625,-2.875 -1.342103,0.504095 -2.578806,1.211691 -3.65625,2.125 0.628818,0.280983 1.332266,0.538911 2.09375,0.75 z m 11.75,0 c 0.761484,-0.211089 1.464932,-0.469017 2.09375,-0.75 -1.077444,-0.913309 -2.314146,-1.620905 -3.65625,-2.125 0.579829,0.870217 1.124447,1.824207 1.5625,2.875 z"
       id="path2975" />
    <g
       transform="matrix(0.1337942,0,0,-0.1337942,31.527762,89.04701)"
       inkscape:label="Calque 1"
       id="g2977" />
    <g
       transform="matrix(0.1672428,0,0,-0.1672428,38.442916,104.62323)"
       inkscape:label="Calque 1"
       id="g2979" />
  </g>
</svg>
