<?xml version="1.0" encoding="UTF-8" standalone="no"?>
<!-- Created with Inkscape (http://www.inkscape.org/) -->

<svg
   xmlns:dc="http://purl.org/dc/elements/1.1/"
   xmlns:cc="http://creativecommons.org/ns#"
   xmlns:rdf="http://www.w3.org/1999/02/22-rdf-syntax-ns#"
   xmlns:svg="http://www.w3.org/2000/svg"
   xmlns="http://www.w3.org/2000/svg"
   xmlns:xlink="http://www.w3.org/1999/xlink"
   xmlns:sodipodi="http://sodipodi.sourceforge.net/DTD/sodipodi-0.dtd"
   xmlns:inkscape="http://www.inkscape.org/namespaces/inkscape"
   width="48px"
   height="48px"
   id="svg3978"
   version="1.1"
   inkscape:version="0.47 r22583"
   sodipodi:docname="Nouveau document 8">
  <defs
     id="defs3980">
    <linearGradient
       inkscape:collect="always"
       xlink:href="#linearGradient3172-8"
       id="linearGradient3958"
       gradientUnits="userSpaceOnUse"
       gradientTransform="matrix(0.644962,0,0,1.1832362,9.2351557,4.0163381)"
       x1="22.892584"
       y1="0.90414524"
       x2="22.892584"
       y2="21.132059" />
    <linearGradient
       id="linearGradient3172-8">
      <stop
         id="stop3174-9"
         offset="0"
         style="stop-color:#4d4d4d;stop-opacity:1;" />
      <stop
         id="stop3176-6"
         offset="1"
         style="stop-color:#4d4d4d;stop-opacity:0;" />
    </linearGradient>
  </defs>
  <sodipodi:namedview
     id="base"
     pagecolor="#ffffff"
     bordercolor="#666666"
     borderopacity="1.0"
     inkscape:pageopacity="0.0"
     inkscape:pageshadow="2"
     inkscape:zoom="7"
     inkscape:cx="24"
     inkscape:cy="24"
     inkscape:current-layer="layer1"
     showgrid="true"
     inkscape:grid-bbox="true"
     inkscape:document-units="px"
     inkscape:window-width="596"
     inkscape:window-height="502"
     inkscape:window-x="0"
     inkscape:window-y="24"
     inkscape:window-maximized="0" />
  <metadata
     id="metadata3983">
    <rdf:RDF>
      <cc:Work
         rdf:about="">
        <dc:format>image/svg+xml</dc:format>
        <dc:type
           rdf:resource="http://purl.org/dc/dcmitype/StillImage" />
        <dc:title></dc:title>
      </cc:Work>
    </rdf:RDF>
  </metadata>
  <g
     id="layer1"
     inkscape:label="Layer 1"
     inkscape:groupmode="layer">
    <path
       style="fill:#000000;fill-opacity:1;stroke:none"
       d="m 23.999996,3.9999991 c -11.042343,0 -20.0000004,8.9612899 -20.0000004,19.9999999 0,11.038709 8.9576564,20 20.0000004,20 0.376329,0 0.753801,-0.01071 1.125,-0.03125 -0.351126,-0.445618 -0.56166,-1.020002 -0.5625,-1.625 l 0,-5.875 c -0.15506,0.0061 -0.312505,0.03125 -0.46875,0.03125 -1.654901,0 -3.215718,-0.342996 -4.65625,-0.9375 l 2.34375,-4.0625 c 0.728013,0.230735 1.505959,0.343752 2.3125,0.34375 0.145067,0 0.294452,-0.02325 0.4375,-0.03125 l 0,-2.0625 c -0.177637,0.01711 -0.349143,0.03125 -0.53125,0.03125 -3.08454,1e-6 -5.59375,-2.541474 -5.59375,-5.625 1e-6,-3.083527 2.50921,-5.5625 5.59375,-5.5625 0.182106,0 0.353613,0.01422 0.53125,0.03125 l 0,-0.9375 c -5.72e-4,-0.380617 0.103386,-0.735903 0.25,-1.0625 -0.222571,-0.01961 -0.459806,-0.03125 -0.6875,-0.03125 -0.131679,0 -0.24495,-0.0066 -0.375,0 -0.664375,0.0337 -1.330731,0.120102 -1.9375,0.3125 l -2.34375,-4.03125 c 1.173053,-0.484082 2.428265,-0.83981 3.75,-0.9375 0.04638,-0.0034 0.10975,0.0029 0.15625,0 0.048,-0.003 0.07688,0.0024 0.125,0 0.05108,-0.0025 0.10501,0.0019 0.15625,0 0.157417,-0.006 0.309874,0 0.46875,0 0.791062,0 1.562683,0.106782 2.3125,0.25 0.05105,1.097236 0.501538,2.077549 1.1875,2.84375 l 14.25,-0.03125 C 38.548504,8.4833281 31.80017,3.9999991 23.999996,3.9999991 z m 7.0625,5.28125 c 1.465651,0 2.65625,1.1910789 2.65625,2.6562499 -1e-6,1.465172 -1.190598,2.65625 -2.65625,2.65625 -1.465655,0 -2.65625,-1.191079 -2.65625,-2.65625 0,-1.465171 1.190595,-2.6562499 2.65625,-2.6562499 z m -14.5,5.2499999 2.375,4.0625 c -1.513972,1.398136 -2.46875,3.406078 -2.46875,5.625 0,2.219724 0.952935,4.230336 2.46875,5.625 l -2.375,4.09375 c -1.906931,-1.482266 -3.350966,-3.533302 -4.125,-5.875 1.22306,-0.836972 2.031249,-2.251234 2.03125,-3.84375 0,-1.592516 -0.808189,-3.006777 -2.03125,-3.84375 0.774291,-2.341128 2.218734,-4.360017 4.125,-5.84375 z m 10.71875,1.46875 c -1.002011,0.392789 -1.617355,0.607283 -1.8125,1.75 l 0,7.84375 0,0.625 -0.03125,16 c -0.0014,0.973856 0.818789,1.748673 1.8125,1.75 l 14.90625,0.03125 c 0.99371,0.0014 1.811149,-0.776143 1.8125,-1.75 l 0.03125,-16.03125 0,-0.59375 0,-7.84375 c 0.0014,-0.973857 -0.78754,-1.748674 -1.78125,-1.75 l -14.9375,-0.03125 z m 7.625,2.6875 c 0.03256,0.04277 1.312499,2.8125 1.3125,2.8125 l -0.96875,0 0,9.5625 c 0.210851,-0.268177 0.411187,-0.526309 0.65625,-0.75 0.783867,-0.715495 1.634706,-1.297431 2.1875,-2.125 0.0063,-0.02001 0.02547,-0.05091 0.03125,-0.09375 0.01222,-0.09046 0.02378,-0.223801 0.03125,-0.375 0.01492,-0.302387 0.03363,-0.67747 0.03125,-1.0625 -0.0013,-0.1974 0.0034,-0.377521 0,-0.5625 l -1.09375,0 0,-2.875 2.90625,0 0,2.875 -1,0 c 0.0034,0.183588 -0.0012,0.366049 0,0.5625 0.0024,0.392904 0.01623,0.764717 0,1.09375 -0.0081,0.164515 -0.0453,0.310097 -0.0625,0.4375 -0.01721,0.127398 4.4e-4,0.214265 -0.09375,0.375 -0.0035,0.0053 -0.02753,0.02609 -0.03125,0.03125 -0.664758,1.02161 -1.611158,1.643803 -2.34375,2.3125 -0.732594,0.668692 -1.246926,1.329981 -1.25,2.46875 l 0,3.53125 c 1.004944,0.172481 1.752792,1.028626 1.75,2.0625 -0.0032,1.156104 -0.945325,2.065799 -2.125,2.0625 -1.179677,-0.0028 -2.159377,-0.937642 -2.15625,-2.09375 0.0027,-1.00564 0.75341,-1.8323 1.71875,-2.03125 l 0,-0.53125 c -0.0079,-0.02562 -0.02865,-0.03482 -0.03125,-0.0625 -0.09819,-1.051466 -0.916204,-1.903884 -1.78125,-2.6875 -0.432525,-0.391814 -0.868852,-0.770242 -1.21875,-1.15625 -0.349898,-0.38601 -0.626385,-0.799726 -0.625,-1.3125 0.0021,-0.757043 0.01703,-1.21756 0.03125,-1.9375 -0.595589,-0.167161 -1.001722,-0.675285 -1,-1.3125 0.0021,-0.769304 0.652514,-1.377193 1.4375,-1.375 0.784986,0.002 1.408326,0.605695 1.40625,1.375 -0.0017,0.620854 -0.426937,1.16545 -1,1.34375 -0.01407,0.743847 -0.02924,1.160841 -0.03125,1.90625 -5.38e-4,0.198001 0.112714,0.457422 0.40625,0.78125 0.293534,0.323827 0.742084,0.690257 1.1875,1.09375 0.417583,0.378273 0.852426,0.797622 1.21875,1.28125 l 0.03125,-12.8125 -0.90625,0 c 0,0 1.342438,-2.855283 1.375,-2.8125 z m -25.0937504,2.875 c 1.4656534,0 2.6562504,1.191079 2.6562504,2.65625 -10e-7,1.465171 -1.190597,2.65625 -2.6562504,2.65625 -1.465654,1e-6 -2.625,-1.191078 -2.625,-2.65625 0,-1.465171 1.159346,-2.65625 2.625,-2.65625 z"
       id="path2179" />
    <path
       style="fill:url(#linearGradient3958);fill-opacity:1;stroke:none"
       d="m 22.750003,29.625001 c -1.484056,-0.04073 -2.942835,-0.167 -4.34375,-0.34375 -1.197875,-1.349507 -1.9375,-3.120241 -1.9375,-5.0625 0,-2.218922 0.954778,-4.226864 2.46875,-5.625 l -2.375,-4.0625 c -1.906266,1.483733 -3.350709,3.502622 -4.125,5.84375 1.223061,0.836973 2.03125,2.251234 2.03125,3.84375 -10e-7,1.592516 -0.80819,3.006778 -2.03125,3.84375 C 9.0472417,27.076 6.1377647,25.69282 4.0000027,24.000001 c 0,-0.01044 -1.6e-5,-0.02081 0,-0.03125 C 4.0169307,12.944418 12.968107,4.0000011 24.000003,4.0000011 c 7.800174,0 14.548508,4.483329 17.84375,10.9999999 l -14.25,0.03125 c -0.685962,-0.766201 -1.13645,-1.746514 -1.1875,-2.84375 -0.749817,-0.143218 -1.521438,-0.25 -2.3125,-0.25 -0.158876,0 -0.311333,-0.006 -0.46875,0 -0.05124,0.0019 -0.10517,-0.0025 -0.15625,0 -0.04812,0.0024 -0.077,-0.003 -0.125,0 -0.0465,0.0029 -0.10987,-0.0034 -0.15625,0 -1.321735,0.09769 -2.576947,0.453418 -3.75,0.9375 l 2.34375,4.03125 c 0.606769,-0.192398 1.273125,-0.2788 1.9375,-0.3125 0.13005,-0.0066 0.243321,0 0.375,0 0.227694,0 0.464929,0.01164 0.6875,0.03125 -0.146614,0.326597 -0.250572,0.681883 -0.25,1.0625 l 0,0.9375 c -0.177637,-0.01703 -0.349144,-0.03125 -0.53125,-0.03125 -3.08454,0 -5.593749,2.478973 -5.59375,5.5625 0,2.652591 1.861115,4.891257 4.34375,5.46875 z m 2.71875,0 0,-3.40625 0,-0.625 0,-7.84375 c 0.195145,-1.142717 0.810489,-1.357211 1.8125,-1.75 l 14.9375,0.03125 c 0.99371,0.0013 1.78265,0.776143 1.78125,1.75 l 0,6.1875 c -1.372562,1.08984 -3.071381,2.057452 -5,2.875 -8.74e-4,-0.06601 4.11e-4,-0.120145 0,-0.1875 -0.0012,-0.196451 0.0034,-0.378912 0,-0.5625 l 1,0 0,-2.875 -2.90625,0 0,2.875 1.09375,0 c 0.0034,0.184979 -0.0013,0.3651 0,0.5625 0.0011,0.181034 0.0056,0.329886 0,0.5 -0.93943,0.365015 -1.900694,0.740387 -2.9375,1.03125 l 0,-6.6875 0.96875,0 c -10e-7,0 -1.27994,-2.76973 -1.3125,-2.8125 -0.03256,-0.04278 -1.375,2.8125 -1.375,2.8125 l 0.90625,0 -0.03125,6.875 c -0.701356,0.178669 -1.419009,0.357336 -2.15625,0.5 0.237463,-0.253296 0.374001,-0.603998 0.375,-0.96875 0.0021,-0.769305 -0.621264,-1.373 -1.40625,-1.375 -0.784986,-0.0022 -1.4354,0.605696 -1.4375,1.375 -0.0015,0.562614 0.328448,1.003234 0.8125,1.21875 -1.642521,0.247801 -3.359211,0.443055 -5.125,0.5 z m -15.6562503,-2.75 c 1.4656533,0 2.6562493,-1.191079 2.6562503,-2.65625 0,-1.465171 -1.190597,-2.65625 -2.6562503,-2.65625 -1.465654,0 -2.625,1.191079 -2.625,2.65625 0,1.465172 1.159346,2.656251 2.625,2.65625 z M 31.062503,14.593751 c 1.465652,0 2.656249,-1.191078 2.65625,-2.65625 0,-1.465171 -1.190599,-2.6562499 -2.65625,-2.6562499 -1.465655,0 -2.65625,1.1910789 -2.65625,2.6562499 0,1.465171 1.190595,2.65625 2.65625,2.65625 z"
       id="path3944" />
  </g>
</svg>
