<?xml version="1.0" encoding="UTF-8" standalone="no"?>
<!-- Created with Inkscape (http://www.inkscape.org/) -->

<svg
   xmlns:dc="http://purl.org/dc/elements/1.1/"
   xmlns:cc="http://creativecommons.org/ns#"
   xmlns:rdf="http://www.w3.org/1999/02/22-rdf-syntax-ns#"
   xmlns:svg="http://www.w3.org/2000/svg"
   xmlns="http://www.w3.org/2000/svg"
   xmlns:xlink="http://www.w3.org/1999/xlink"
   xmlns:sodipodi="http://sodipodi.sourceforge.net/DTD/sodipodi-0.dtd"
   xmlns:inkscape="http://www.inkscape.org/namespaces/inkscape"
   width="48px"
   height="48px"
   id="svg2876"
   version="1.1"
   inkscape:version="0.47 r22583"
   sodipodi:docname="Nouveau document 1">
  <defs
     id="defs2878">
    <linearGradient
       gradientUnits="userSpaceOnUse"
       y2="21.132059"
       x2="22.892584"
       y1="0.90414524"
       x1="22.892584"
       id="linearGradient3178"
       xlink:href="#linearGradient3172"
       inkscape:collect="always" />
    <linearGradient
       id="linearGradient3172">
      <stop
         id="stop3174"
         offset="0"
         style="stop-color:#4d4d4d;stop-opacity:1;" />
      <stop
         id="stop3176"
         offset="1"
         style="stop-color:#4d4d4d;stop-opacity:0;" />
    </linearGradient>
    <linearGradient
       inkscape:collect="always"
       xlink:href="#linearGradient3172"
       id="linearGradient3865"
       gradientUnits="userSpaceOnUse"
       x1="22.892584"
       y1="0.90414524"
       x2="22.892584"
       y2="21.132059" />
    <linearGradient
       inkscape:collect="always"
       xlink:href="#linearGradient3172"
       id="linearGradient3870"
       gradientUnits="userSpaceOnUse"
       x1="22.892584"
       y1="0.90414524"
       x2="22.892584"
       y2="21.132059"
       gradientTransform="matrix(0.644962,0,0,-1.1832362,59.235153,43.983663)" />
    <linearGradient
       inkscape:collect="always"
       xlink:href="#linearGradient3172"
       id="linearGradient3873"
       gradientUnits="userSpaceOnUse"
       gradientTransform="matrix(0.644962,0,0,1.1832362,9.235153,4.016087)"
       x1="22.892584"
       y1="0.90414524"
       x2="22.892584"
       y2="21.132059" />
  </defs>
  <sodipodi:namedview
     id="base"
     pagecolor="#ffffff"
     bordercolor="#666666"
     borderopacity="1.0"
     inkscape:pageopacity="0.0"
     inkscape:pageshadow="2"
     inkscape:zoom="4.9497475"
     inkscape:cx="20.743422"
     inkscape:cy="30.655464"
     inkscape:current-layer="layer1"
     showgrid="true"
     inkscape:grid-bbox="true"
     inkscape:document-units="px"
     inkscape:window-width="866"
     inkscape:window-height="631"
     inkscape:window-x="80"
     inkscape:window-y="64"
     inkscape:window-maximized="0" />
  <metadata
     id="metadata2881">
    <rdf:RDF>
      <cc:Work
         rdf:about="">
        <dc:format>image/svg+xml</dc:format>
        <dc:type
           rdf:resource="http://purl.org/dc/dcmitype/StillImage" />
        <dc:title></dc:title>
      </cc:Work>
    </rdf:RDF>
  </metadata>
  <g
     id="layer1"
     inkscape:label="Layer 1"
     inkscape:groupmode="layer">
    <path
       style="fill:#000000;fill-opacity:1;stroke:none"
       d="m 32.09375,5.96875 c -0.729805,0 -1.34375,0.582695 -1.34375,1.3125 0,0.182451 0.05813,0.373156 0.125,0.53125 l -6.5625,6.21875 -1.25,0 -6.1875,-5.875 c 0.05874,-0.149564 0.09375,-0.298347 0.09375,-0.46875 0,-0.729805 -0.582695,-1.3125 -1.3125,-1.3125 -0.729805,0 -1.3125,0.582695 -1.3125,1.3125 0,0.729805 0.582695,1.3125 1.3125,1.3125 0.136838,0 0.250866,-0.02389 0.375,-0.0625 l 5.375,5.09375 -13.28125,0 C 5.836326,14.03125 4,16.001404 4,18.4375 l 0,15.3125 0,2 0,1.875 c 0,2.436096 1.8363261,4.40625 4.125,4.40625 l 31.75,0 c 2.288674,0 4.125,-1.970154 4.125,-4.40625 l 0,-1.875 0,-2 0,-15.3125 c 0,-2.436096 -1.83633,-4.40625 -4.125,-4.40625 l -13.90625,0 5.75,-5.46875 c 0.114587,0.03242 0.250033,0.0625 0.375,0.0625 0.729805,0 1.3125,-0.613945 1.3125,-1.34375 0,-0.729805 -0.582695,-1.3125 -1.3125,-1.3125 z m -21.21875,11.0625 19.25,0 c 2.143175,0 3.875,1.512461 3.875,3.375 l 0,13.34375 0,1.90625 c 0,0.03117 9.64e-4,0.06278 0,0.09375 -0.05663,1.81953 -1.767689,3.28125 -3.875,3.28125 l -19.25,0 C 8.7676897,39.03125 7.0566282,37.56953 7,35.75 6.9990362,35.71903 7,35.68742 7,35.65625 L 7,33.75 7,20.40625 c 0,-1.862539 1.731825,-3.375 3.875,-3.375 z m 28.125,2 c 1.38071,0 2.5,1.119288 2.5,2.5 0,1.380712 -1.11929,2.5 -2.5,2.5 -1.38072,0 -2.5,-1.119288 -2.5,-2.5 0,-1.380712 1.11928,-2.5 2.5,-2.5 z m 0,7.5 c 1.38071,0 2.5,1.119288 2.5,2.5 0,1.380712 -1.11929,2.5 -2.5,2.5 -1.38072,0 -2.5,-1.119288 -2.5,-2.5 0,-1.380712 1.11928,-2.5 2.5,-2.5 z"
       id="rect3748" />
    <path
       style="fill:url(#linearGradient3873);fill-opacity:1;stroke:none"
       d="M 34,28.49975 34,20.406 c 0,-1.862539 -1.731825,-3.375 -3.875,-3.375 l -19.25,0 C 8.731825,17.031 7,18.543461 7,20.406 l 0,5.5 C 5.883702,25.314741 4.87856,24.666093 4,23.9685 L 4,18.43725 C 4,16.001154 5.836326,14.031 8.125,14.031 l 13.28125,0 -5.375,-5.09375 c -0.124134,0.03861 -0.238162,0.0625 -0.375,0.0625 -0.729805,0 -1.3125,-0.582695 -1.3125,-1.3125 0,-0.729805 0.582695,-1.3125 1.3125,-1.3125 0.729805,0 1.3125,0.582695 1.3125,1.3125 0,0.170403 -0.03501,0.319186 -0.09375,0.46875 l 6.1875,5.875 1.25,0 6.5625,-6.21875 C 30.80813,7.654156 30.75,7.463451 30.75,7.281 c 0,-0.729805 0.613945,-1.3125 1.34375,-1.3125 0.729805,0 1.3125,0.582695 1.3125,1.3125 0,0.729805 -0.582695,1.34375 -1.3125,1.34375 -0.124967,0 -0.260413,-0.03008 -0.375,-0.0625 l -5.75,5.46875 13.90625,0 c 2.28867,0 4.125,1.970154 4.125,4.40625 l 0,5.53125 c -1.236693,0.981957 -2.743986,1.861246 -4.4375,2.625 C 39.381139,26.55165 39.194073,26.531 39,26.531 c -0.86295,0 -1.613234,0.428746 -2.0625,1.09375 -0.940418,0.318803 -1.913432,0.626774 -2.9375,0.875 z M 39,24.031 c 1.38071,0 2.5,-1.119288 2.5,-2.5 0,-1.380712 -1.11929,-2.5 -2.5,-2.5 -1.38072,0 -2.5,1.119288 -2.5,2.5 0,1.380712 1.11928,2.5 2.5,2.5 z"
       id="path3859" />
    <g
       transform="matrix(0.1337942,0,0,-0.1337942,31.527762,89.04701)"
       inkscape:label="Calque 1"
       id="g3861" />
    <g
       transform="matrix(0.1672428,0,0,-0.1672428,38.442916,104.62323)"
       inkscape:label="Calque 1"
       id="g3863" />
  </g>
</svg>
