<?xml version="1.0" encoding="UTF-8" standalone="no"?>
<!-- Created with Inkscape (http://www.inkscape.org/) -->

<svg
   xmlns:dc="http://purl.org/dc/elements/1.1/"
   xmlns:cc="http://creativecommons.org/ns#"
   xmlns:rdf="http://www.w3.org/1999/02/22-rdf-syntax-ns#"
   xmlns:svg="http://www.w3.org/2000/svg"
   xmlns="http://www.w3.org/2000/svg"
   xmlns:xlink="http://www.w3.org/1999/xlink"
   xmlns:sodipodi="http://sodipodi.sourceforge.net/DTD/sodipodi-0.dtd"
   xmlns:inkscape="http://www.inkscape.org/namespaces/inkscape"
   width="48px"
   height="48px"
   id="svg2962"
   version="1.1"
   inkscape:version="0.47 r22583"
   sodipodi:docname="Nouveau document 3">
  <defs
     id="defs2964">
    <linearGradient
       inkscape:collect="always"
       xlink:href="#linearGradient3172"
       id="linearGradient2942"
       gradientUnits="userSpaceOnUse"
       gradientTransform="matrix(0.644962,0,0,1.1832362,9.235153,4.016337)"
       x1="22.892584"
       y1="0.90414524"
       x2="22.892584"
       y2="21.132059" />
    <linearGradient
       id="linearGradient3172">
      <stop
         id="stop3174"
         offset="0"
         style="stop-color:#4d4d4d;stop-opacity:1;" />
      <stop
         id="stop3176"
         offset="1"
         style="stop-color:#4d4d4d;stop-opacity:0;" />
    </linearGradient>
  </defs>
  <sodipodi:namedview
     id="base"
     pagecolor="#ffffff"
     bordercolor="#666666"
     borderopacity="1.0"
     inkscape:pageopacity="0.0"
     inkscape:pageshadow="2"
     inkscape:zoom="7"
     inkscape:cx="24"
     inkscape:cy="24"
     inkscape:current-layer="layer1"
     showgrid="true"
     inkscape:grid-bbox="true"
     inkscape:document-units="px"
     inkscape:window-width="889"
     inkscape:window-height="701"
     inkscape:window-x="0"
     inkscape:window-y="23"
     inkscape:window-maximized="0" />
  <metadata
     id="metadata2967">
    <rdf:RDF>
      <cc:Work
         rdf:about="">
        <dc:format>image/svg+xml</dc:format>
        <dc:type
           rdf:resource="http://purl.org/dc/dcmitype/StillImage" />
        <dc:title></dc:title>
      </cc:Work>
    </rdf:RDF>
  </metadata>
  <g
     id="layer1"
     inkscape:label="Layer 1"
     inkscape:groupmode="layer">
    <path
       style="fill:#000000;fill-opacity:1;fill-rule:evenodd;stroke:none"
       d="M 10.15625,6.5 C 8.1371101,6.5 6.5,8.13711 6.5,10.15625 l 0,27.6875 c 0,2.01914 1.6371099,3.656249 3.65625,3.65625 l 27.6875,0 c 2.01914,0 3.656249,-1.63711 3.65625,-3.65625 l 0,-27.6875 C 41.5,8.13711 39.86289,6.5 37.84375,6.5 l -27.6875,0 z m 2.53125,4.375 2.90625,0 0,26.25 -2.90625,0 0,-26.25 z m 19.71875,0 2.90625,0 0,26.25 -2.90625,0 0,-26.25 z m -12.96875,5.21875 3.34375,4.125 C 23.166585,20.095202 23.573636,20 24,20 c 2.209139,0 4,1.790861 4,4 0,0.71498 -0.202607,1.387929 -0.53125,1.96875 l 3.34375,4.09375 -2.25,1.84375 -3.34375,-4.125 C 24.833415,27.904798 24.426364,28 24,28 c -2.209139,0 -4,-1.790861 -4,-4 0,-0.71498 0.202607,-1.387929 0.53125,-1.96875 l -3.34375,-4.09375 2.25,-1.84375 z"
       id="rect3938" />
    <path
       style="fill:url(#linearGradient2942);fill-opacity:1;stroke:none"
       d="m 24,29.65625 c -2.963159,0 -5.78521,-0.325218 -8.40625,-0.84375 l 0,-17.9375 -2.90625,0 0,17.28125 C 10.366521,27.500306 8.285819,26.629953 6.5,25.625 l 0,-15.46875 C 6.5,8.13711 8.13711,6.5 10.15625,6.5 l 27.6875,0 C 39.86289,6.5 41.5,8.13711 41.5,10.15625 l 0,15.46875 c -1.785819,1.004953 -3.866521,1.875306 -6.1875,2.53125 l 0,-17.28125 -2.90625,0 0,17.9375 c -0.75422,0.149211 -1.524503,0.265853 -2.3125,0.375 l -2.625,-3.21875 C 27.797393,25.387929 28,24.71498 28,24 c 0,-2.209139 -1.790861,-4 -4,-4 -0.426364,0 -0.833415,0.0952 -1.21875,0.21875 l -3.34375,-4.125 -2.25,1.84375 3.34375,4.09375 C 20.202607,22.612071 20,23.28502 20,24 c 0,2.209139 1.790861,4 4,4 0.426364,0 0.833415,-0.0952 1.21875,-0.21875 l 1.4375,1.78125 C 25.778469,29.61387 24.903625,29.65625 24,29.65625 z"
       id="path2928" />
  </g>
</svg>
