<?xml version="1.0" encoding="UTF-8" standalone="no"?>
<!-- Created with Inkscape (http://www.inkscape.org/) -->

<svg
   xmlns:dc="http://purl.org/dc/elements/1.1/"
   xmlns:cc="http://creativecommons.org/ns#"
   xmlns:rdf="http://www.w3.org/1999/02/22-rdf-syntax-ns#"
   xmlns:svg="http://www.w3.org/2000/svg"
   xmlns="http://www.w3.org/2000/svg"
   xmlns:xlink="http://www.w3.org/1999/xlink"
   xmlns:sodipodi="http://sodipodi.sourceforge.net/DTD/sodipodi-0.dtd"
   xmlns:inkscape="http://www.inkscape.org/namespaces/inkscape"
   width="48px"
   height="48px"
   id="svg3036"
   version="1.1"
   inkscape:version="0.47 r22583"
   sodipodi:docname="Nouveau document 4">
  <defs
     id="defs3038">
    <linearGradient
       inkscape:collect="always"
       xlink:href="#linearGradient3172-1"
       id="linearGradient3016"
       gradientUnits="userSpaceOnUse"
       gradientTransform="matrix(0.644962,0,0,1.1832362,9.235153,4.016337)"
       x1="22.892584"
       y1="0.90414524"
       x2="22.892584"
       y2="21.132059" />
    <linearGradient
       id="linearGradient3172-1">
      <stop
         id="stop3174-7"
         offset="0"
         style="stop-color:#4d4d4d;stop-opacity:1;" />
      <stop
         id="stop3176-5"
         offset="1"
         style="stop-color:#4d4d4d;stop-opacity:0;" />
    </linearGradient>
  </defs>
  <sodipodi:namedview
     id="base"
     pagecolor="#ffffff"
     bordercolor="#666666"
     borderopacity="1.0"
     inkscape:pageopacity="0.0"
     inkscape:pageshadow="2"
     inkscape:zoom="7"
     inkscape:cx="24"
     inkscape:cy="24"
     inkscape:current-layer="layer1"
     showgrid="true"
     inkscape:grid-bbox="true"
     inkscape:document-units="px"
     inkscape:window-width="596"
     inkscape:window-height="502"
     inkscape:window-x="768"
     inkscape:window-y="242"
     inkscape:window-maximized="0" />
  <metadata
     id="metadata3041">
    <rdf:RDF>
      <cc:Work
         rdf:about="">
        <dc:format>image/svg+xml</dc:format>
        <dc:type
           rdf:resource="http://purl.org/dc/dcmitype/StillImage" />
        <dc:title></dc:title>
      </cc:Work>
    </rdf:RDF>
  </metadata>
  <g
     id="layer1"
     inkscape:label="Layer 1"
     inkscape:groupmode="layer">
    <path
       style="fill:#000000;fill-opacity:1;fill-rule:evenodd;stroke:none"
       d="M 4.8125,6.5 C 4.3453776,6.5 4,6.72668 4,7.21875 l 0,33.0625 C 4,41.009243 4.491245,41.5 5.15625,41.5 l 37.90625,0 C 43.731374,41.5 44,41.040782 44,40.40625 l 0,-28.9375 C 44,10.925153 43.594821,10.625 43.09375,10.625 l -19.1875,0 C 23.567682,10.625 23.198714,10.429427 23,10.15625 L 20.375,6.96875 C 20.15613,6.66786 19.747915,6.5 19.375,6.5 l -14.5625,0 z m 14.5,10.625 0.1875,0.1875 4.78125,4.5625 0.375,0.375 -0.59375,0 -2.1875,0 0,9 0,0.21875 -0.25,0 L 17,31.5 l -0.28125,0 0,-0.21875 0,-9.03125 -2.15625,0 -0.5625,0 0.375,-0.375 4.75,-4.5625 0.1875,-0.1875 z m 6.71875,5.625 0.28125,0 4.625,0 0.28125,0 0,0.25 0,9 2.21875,0 0.5625,0 -0.375,0.375 -4.8125,4.5625 -0.1875,0.1875 -0.1875,-0.1875 -4.75,-4.5625 -0.375,-0.375 0.59375,0 2.125,0 0,-9.0625 0,-0.1875 z"
       id="path895" />
    <path
       style="fill:url(#linearGradient3016);fill-opacity:1;stroke:none"
       d="m 24,29.65625 c -0.721916,0 -1.419243,-0.02953 -2.125,-0.0625 l 0,-7.34375 2.1875,0 0.59375,0 -0.375,-0.375 L 19.5,17.3125 19.3125,17.125 19.125,17.3125 14.375,21.875 14,22.25 l 0.5625,0 2.15625,0 0,6.78125 C 11.464845,28.147681 6.990493,26.343256 4,23.96875 l 0,-16.75 C 4,6.72668 4.345378,6.5 4.8125,6.5 l 14.5625,0 c 0.372915,0 0.78113,0.16786 1,0.46875 L 23,10.15625 c 0.198714,0.273177 0.567682,0.46875 0.90625,0.46875 l 19.1875,0 C 43.594821,10.625 44,10.925153 44,11.46875 l 0,12.5 c -3.002114,2.383734 -7.500821,4.18275 -12.78125,5.0625 l 0,-6.03125 0,-0.25 -0.28125,0 -4.625,0 -0.28125,0 0,0.1875 0,6.65625 C 25.355871,29.6239 24.690091,29.65625 24,29.65625 z"
       id="path3002" />
  </g>
</svg>
