<?xml version="1.0" encoding="UTF-8" standalone="no"?>
<!-- Created with Inkscape (http://www.inkscape.org/) -->

<svg
   xmlns:dc="http://purl.org/dc/elements/1.1/"
   xmlns:cc="http://creativecommons.org/ns#"
   xmlns:rdf="http://www.w3.org/1999/02/22-rdf-syntax-ns#"
   xmlns:svg="http://www.w3.org/2000/svg"
   xmlns="http://www.w3.org/2000/svg"
   xmlns:xlink="http://www.w3.org/1999/xlink"
   xmlns:sodipodi="http://sodipodi.sourceforge.net/DTD/sodipodi-0.dtd"
   xmlns:inkscape="http://www.inkscape.org/namespaces/inkscape"
   width="48px"
   height="48px"
   id="svg4289"
   sodipodi:version="0.32"
   inkscape:version="0.47 r22583"
   sodipodi:docname="folder-images.svg"
   inkscape:output_extension="org.inkscape.output.svg.inkscape"
   version="1.1">
  <defs
     id="defs4291">
    <linearGradient
       gradientUnits="userSpaceOnUse"
       y2="21.132059"
       x2="22.892584"
       y1="0.90414524"
       x1="22.892584"
       id="linearGradient3178"
       xlink:href="#linearGradient3172"
       inkscape:collect="always" />
    <linearGradient
       id="linearGradient3172">
      <stop
         id="stop3174"
         offset="0"
         style="stop-color:#4d4d4d;stop-opacity:1;" />
      <stop
         id="stop3176"
         offset="1"
         style="stop-color:#4d4d4d;stop-opacity:0;" />
    </linearGradient>
    <linearGradient
       inkscape:collect="always"
       xlink:href="#linearGradient3172"
       id="linearGradient4138"
       gradientUnits="userSpaceOnUse"
       x1="22.892584"
       y1="0.90414524"
       x2="22.892584"
       y2="21.132059" />
    <linearGradient
       inkscape:collect="always"
       xlink:href="#linearGradient3172"
       id="linearGradient4143"
       gradientUnits="userSpaceOnUse"
       x1="22.892584"
       y1="0.90414524"
       x2="22.892584"
       y2="21.132059"
       gradientTransform="matrix(0.644962,0,0,-1.1832362,59.235153,43.983663)" />
    <linearGradient
       inkscape:collect="always"
       xlink:href="#linearGradient3172"
       id="linearGradient4149"
       gradientUnits="userSpaceOnUse"
       gradientTransform="matrix(0.644962,0,0,-1.1832362,59.235153,43.983663)"
       x1="22.892584"
       y1="0.90414524"
       x2="22.892584"
       y2="21.132059" />
    <linearGradient
       inkscape:collect="always"
       xlink:href="#linearGradient3172"
       id="linearGradient4152"
       gradientUnits="userSpaceOnUse"
       gradientTransform="matrix(0.644962,0,0,1.1832362,9.235153,4.016337)"
       x1="22.892584"
       y1="0.90414524"
       x2="22.892584"
       y2="21.132059" />
  </defs>
  <sodipodi:namedview
     id="base"
     pagecolor="#ffffff"
     bordercolor="#666"
     borderopacity="0.31372549"
     inkscape:pageopacity="0.0"
     inkscape:pageshadow="2"
     inkscape:zoom="5.656854"
     inkscape:cx="48.474269"
     inkscape:cy="12.243402"
     inkscape:current-layer="layer1"
     showgrid="true"
     inkscape:grid-bbox="true"
     inkscape:document-units="px"
     inkscape:window-width="1366"
     inkscape:window-height="721"
     inkscape:window-x="0"
     inkscape:window-y="21"
     inkscape:showpageshadow="false"
     inkscape:window-maximized="1" />
  <metadata
     id="metadata4294">
    <rdf:RDF>
      <cc:Work
         rdf:about="">
        <dc:format>image/svg+xml</dc:format>
        <dc:type
           rdf:resource="http://purl.org/dc/dcmitype/StillImage" />
        <dc:title>System Preferences</dc:title>
        <dc:creator>
          <cc:Agent>
            <dc:title>Andreas Nilsson</dc:title>
          </cc:Agent>
        </dc:creator>
        <dc:subject>
          <rdf:Bag>
            <rdf:li>category</rdf:li>
            <rdf:li>system</rdf:li>
            <rdf:li>preferences</rdf:li>
            <rdf:li>settings</rdf:li>
            <rdf:li>control center</rdf:li>
          </rdf:Bag>
        </dc:subject>
        <dc:contributor>
          <cc:Agent>
            <dc:title>Jakub Steiner</dc:title>
          </cc:Agent>
        </dc:contributor>
        <cc:license
           rdf:resource="http://creativecommons.org/licenses/GPL/2.0/" />
      </cc:Work>
      <cc:License
         rdf:about="http://creativecommons.org/licenses/GPL/2.0/">
        <cc:permits
           rdf:resource="http://web.resource.org/cc/Reproduction" />
        <cc:permits
           rdf:resource="http://web.resource.org/cc/Distribution" />
        <cc:requires
           rdf:resource="http://web.resource.org/cc/Notice" />
        <cc:permits
           rdf:resource="http://web.resource.org/cc/DerivativeWorks" />
        <cc:requires
           rdf:resource="http://web.resource.org/cc/ShareAlike" />
        <cc:requires
           rdf:resource="http://web.resource.org/cc/SourceCode" />
      </cc:License>
    </rdf:RDF>
  </metadata>
  <g
     id="layer1"
     inkscape:label="Layer 1"
     inkscape:groupmode="layer">
    <g
       id="g2453"
       inkscape:label="Calque 1"
       transform="matrix(0.1337942,0,0,0.1337942,-18.472238,-41.04701)" />
    <g
       id="g2585"
       inkscape:label="Calque 1"
       transform="matrix(0.16724275,0,0,0.16724275,-29.090298,-57.308762)" />
    <g
       id="g2491"
       inkscape:label="pixmap"
       style="display:inline"
       transform="matrix(1.25,0,0,1.25,10.236279,10.026083)" />
    <path
       style="fill:#000000;fill-opacity:1;fill-rule:evenodd;stroke:none"
       d="M 4.8125,6.5 C 4.3453776,6.5 4,6.72668 4,7.21875 l 0,33.0625 C 4,41.009243 4.491245,41.5 5.15625,41.5 l 37.90625,0 C 43.731374,41.5 44,41.040782 44,40.40625 l 0,-28.9375 C 44,10.925153 43.594821,10.625 43.09375,10.625 l -19.1875,0 C 23.567682,10.625 23.198714,10.429427 23,10.15625 L 20.375,6.96875 C 20.15613,6.66786 19.747915,6.5 19.375,6.5 l -14.5625,0 z m 23.65625,9.5 1.25,3.90625 -1.0625,0 -0.84375,-2.59375 -7.9375,2.59375 -0.25,0 c -0.01591,-0.0015 -0.04659,-0.0015 -0.0625,0 -0.08788,0.01716 -0.15671,0.10422 -0.1875,0.1875 l -4.65625,1.5 3.65625,11.15625 0.9375,-0.34375 0,3.28125 L 18.34375,36 13.4375,20.9375 28.46875,16 z m -8.84375,4.15625 15.8125,0 -0.03125,15.8125 L 19.5625,36 19.625,20.15625 z m 14.78125,1.03125 -13.75,0.03125 -0.03125,11.6875 13.75,-0.03125 0.03125,-11.6875 z"
       id="path895" />
    <g
       transform="matrix(0.23337875,0,0,0.23337875,-16.147846,82.05482)"
       id="g891" />
    <g
       transform="matrix(0.1337942,0,0,0.1337942,31.527762,-41.04701)"
       inkscape:label="Calque 1"
       id="g2596" />
    <g
       transform="translate(62.989023,12.820866)"
       style="display:inline"
       inkscape:label="pixmap"
       id="g2598" />
    <g
       id="g2602"
       transform="matrix(0.186703,0,0,0.186703,41.881723,70.443856)" />
    <path
       style="fill:url(#linearGradient4152);fill-opacity:1;stroke:none"
       d="m 24,29.65625 c -1.150862,0 -2.267223,-0.07354 -3.375,-0.15625 l 0.03125,-8.28125 13.75,-0.03125 -0.03125,7.21875 c -3.142788,0.79712 -6.656278,1.25 -10.375,1.25 z m -4.40625,-0.25 c -0.82139,-0.08051 -1.616472,-0.18904 -2.40625,-0.3125 l -2.46875,-7.5 4.65625,-1.5 c 0.03079,-0.08328 0.09962,-0.17034 0.1875,-0.1875 0.01591,-0.0015 0.04659,-0.0015 0.0625,0 l 0.25,0 7.9375,-2.59375 0.84375,2.59375 1.0625,0 L 28.46875,16 13.4375,20.9375 16.03125,28.90625 C 11.076913,27.983966 6.858401,26.238373 4,23.96875 l 0,-16.75 C 4,6.72668 4.345378,6.5 4.8125,6.5 l 14.5625,0 c 0.372915,0 0.78113,0.16786 1,0.46875 L 23,10.15625 c 0.198714,0.273177 0.567682,0.46875 0.90625,0.46875 l 19.1875,0 C 43.594821,10.625 44,10.925153 44,11.46875 l 0,12.5 c -2.173803,1.726039 -5.123643,3.1651 -8.59375,4.15625 l 0.03125,-7.96875 -15.8125,0 -0.03125,9.25 z"
       id="path4132" />
    <g
       transform="matrix(0.1337942,0,0,-0.1337942,31.527762,89.04701)"
       inkscape:label="Calque 1"
       id="g4134" />
    <g
       transform="matrix(0.1672428,0,0,-0.1672428,38.442916,104.62323)"
       inkscape:label="Calque 1"
       id="g4136" />
  </g>
</svg>
