<?xml version="1.0" encoding="UTF-8" standalone="no"?>
<!-- Created with Inkscape (http://www.inkscape.org/) -->

<svg
   xmlns:dc="http://purl.org/dc/elements/1.1/"
   xmlns:cc="http://creativecommons.org/ns#"
   xmlns:rdf="http://www.w3.org/1999/02/22-rdf-syntax-ns#"
   xmlns:svg="http://www.w3.org/2000/svg"
   xmlns="http://www.w3.org/2000/svg"
   xmlns:xlink="http://www.w3.org/1999/xlink"
   xmlns:sodipodi="http://sodipodi.sourceforge.net/DTD/sodipodi-0.dtd"
   xmlns:inkscape="http://www.inkscape.org/namespaces/inkscape"
   width="48px"
   height="48px"
   id="svg3024"
   version="1.1"
   inkscape:version="0.47 r22583"
   sodipodi:docname="Nouveau document 2">
  <defs
     id="defs3026">
    <linearGradient
       inkscape:collect="always"
       xlink:href="#linearGradient3172-8"
       id="linearGradient3309"
       gradientUnits="userSpaceOnUse"
       gradientTransform="matrix(0.644962,0,0,1.1832362,9.235153,4.016337)"
       x1="22.892584"
       y1="0.90414524"
       x2="22.892584"
       y2="21.132059" />
    <linearGradient
       id="linearGradient3172-8">
      <stop
         id="stop3174-3"
         offset="0"
         style="stop-color:#4d4d4d;stop-opacity:1;" />
      <stop
         id="stop3176-8"
         offset="1"
         style="stop-color:#4d4d4d;stop-opacity:0;" />
    </linearGradient>
  </defs>
  <sodipodi:namedview
     id="base"
     pagecolor="#ffffff"
     bordercolor="#666666"
     borderopacity="1.0"
     inkscape:pageopacity="0.0"
     inkscape:pageshadow="2"
     inkscape:zoom="7"
     inkscape:cx="24"
     inkscape:cy="24"
     inkscape:current-layer="layer1"
     showgrid="true"
     inkscape:grid-bbox="true"
     inkscape:document-units="px"
     inkscape:window-width="596"
     inkscape:window-height="502"
     inkscape:window-x="0"
     inkscape:window-y="25"
     inkscape:window-maximized="0" />
  <metadata
     id="metadata3029">
    <rdf:RDF>
      <cc:Work
         rdf:about="">
        <dc:format>image/svg+xml</dc:format>
        <dc:type
           rdf:resource="http://purl.org/dc/dcmitype/StillImage" />
        <dc:title></dc:title>
      </cc:Work>
    </rdf:RDF>
  </metadata>
  <g
     id="layer1"
     inkscape:label="Layer 1"
     inkscape:groupmode="layer">
    <path
       style="fill:#000000;fill-opacity:1;fill-rule:evenodd;stroke:none"
       d="M 4.8125,6.5 C 4.345377,6.5 4,6.72668 4,7.21875 l 0,33.0625 C 4,41.009242 4.491245,41.5 5.15625,41.5 l 37.90625,0 C 43.731375,41.5 44,41.040782 44,40.40625 l 0,-28.9375 C 44,10.925153 43.594821,10.625 43.09375,10.625 l -19.1875,0 C 23.567682,10.625 23.198714,10.429427 23,10.15625 L 20.375,6.96875 C 20.15613,6.66786 19.747915,6.5 19.375,6.5 L 4.8125,6.5 z M 24,18.375 c 2.761424,0 5,2.238576 5,5 0,2.761424 -2.238576,5 -5,5 -2.761424,0 -5,-2.238576 -5,-5 0,-2.761424 2.238576,-5 5,-5 z m -7.5,11.25 15,0 c 2.5,0 2.5,2.5 2.5,2.5 l 0,5 -20,0 0,-5 c 0,0 0,-2.5 2.5,-2.5 z"
       id="path895" />
    <path
       style="fill:url(#linearGradient3309);fill-opacity:1;stroke:none"
       d="M 22.78125,29.625 C 14.943898,29.4153 8.086595,27.213581 4,23.96875 l 0,-16.75 C 4,6.72668 4.345378,6.5 4.8125,6.5 l 14.5625,0 c 0.372915,0 0.78113,0.16786 1,0.46875 L 23,10.15625 c 0.198714,0.273177 0.567682,0.46875 0.90625,0.46875 l 19.1875,0 C 43.594821,10.625 44,10.925153 44,11.46875 l 0,12.5 C 39.913406,27.213581 33.056102,29.4153 25.21875,29.625 l -2.4375,0 z M 24,28.375 c 2.761424,0 5,-2.238576 5,-5 0,-2.761424 -2.238576,-5 -5,-5 -2.761424,0 -5,2.238576 -5,5 0,2.761424 2.238576,5 5,5 z"
       id="path3295" />
  </g>
</svg>
