<?xml version="1.0" encoding="UTF-8" standalone="no"?>
<!-- Created with Inkscape (http://www.inkscape.org/) -->

<svg
   xmlns:svg="http://www.w3.org/2000/svg"
   xmlns="http://www.w3.org/2000/svg"
   xmlns:xlink="http://www.w3.org/1999/xlink"
   version="1.1"
   width="48"
   height="48"
   id="svg3134">
  <defs
     id="defs3136">
    <linearGradient
       x1="22.892584"
       y1="0.90414524"
       x2="22.892584"
       y2="21.132059"
       id="linearGradient3114"
       xlink:href="#linearGradient3172-0"
       gradientUnits="userSpaceOnUse"
       gradientTransform="matrix(0.644962,0,0,1.1832362,9.235403,4.016337)" />
    <linearGradient
       id="linearGradient3172-0">
      <stop
         id="stop3174-6"
         style="stop-color:#4d4d4d;stop-opacity:1"
         offset="0" />
      <stop
         id="stop3176-4"
         style="stop-color:#4d4d4d;stop-opacity:0"
         offset="1" />
    </linearGradient>
  </defs>
  <g
     id="layer1">
    <path
       d="m 17.3125,5.5 0,11.90625 -6.3125,0 L 24.03125,32.5 37,17.40625 l -6.21875,0 0,-11.90625 -13.46875,0 z M 7.4375,21.90625 C 5.617236,21.90625 4,23.443618 4,25.3125 L 4,27.84375 4,39.0625 C 4,40.931382 5.617236,42.5 7.4375,42.5 l 33.125,0 C 42.382764,42.5 44,40.931382 44,39.0625 l 0,-11.21875 0,-2.53125 c 0,-1.868882 -1.617236,-3.40625 -3.4375,-3.40625 l -1.125,0 C 37.617236,21.90625 36,23.443618 36,25.3125 l 0,2.15625 0,5.71875 C 36,33.922954 35.36026,34.5 34.5625,34.5 l -21.125,0 C 12.63974,34.5 12,33.922954 12,33.1875 l 0,-5.71875 0,-2.15625 c 0,-1.868882 -1.617236,-3.40625 -3.4375,-3.40625 l -1.125,0 z"
       id="rect1314"
       style="fill:#000000;fill-opacity:1;fill-rule:nonzero;stroke:none;stroke-width:1.00000012;marker:none;visibility:visible;display:inline;overflow:visible" />
    <path
       d="m 24.00025,29.65625 c -0.838665,0 -1.652185,-0.01816 -2.46875,-0.0625 l -10.53125,-12.1875 6.3125,0 0,-11.90625 13.46875,0 0,11.90625 6.21875,0 -10.46875,12.1875 c -0.836701,0.04659 -1.671255,0.0625 -2.53125,0.0625 z m -12,-1.71875 C 8.910294,26.992793 6.238445,25.702057 4.219,24.15625 c 0.499213,-1.302939 1.795782,-2.25 3.21875,-2.25 l 1.125,0 c 1.820264,0 3.4375,1.537368 3.4375,3.40625 l 0,2.15625 0,0.46875 z m 24,0 0,-0.46875 0,-2.15625 c 0,-1.868882 1.617236,-3.40625 3.4375,-3.40625 l 1.125,0 c 1.422968,0 2.719537,0.947061 3.21875,2.25 -2.019445,1.545807 -4.691294,2.836543 -7.78125,3.78125 z"
       id="path3100"
       style="fill:url(#linearGradient3114);fill-opacity:1;stroke:none" />
  </g>
</svg>
