<?xml version="1.0" encoding="UTF-8" standalone="no"?>
<!-- Created with Inkscape (http://www.inkscape.org/) -->

<svg
   xmlns:svg="http://www.w3.org/2000/svg"
   xmlns="http://www.w3.org/2000/svg"
   xmlns:xlink="http://www.w3.org/1999/xlink"
   version="1.1"
   width="48"
   height="48"
   id="svg3353">
  <defs
     id="defs3355">
    <linearGradient
       x1="22.892584"
       y1="0.90414524"
       x2="22.892584"
       y2="21.132059"
       id="linearGradient3333"
       xlink:href="#linearGradient3172"
       gradientUnits="userSpaceOnUse"
       gradientTransform="matrix(0.644962,0,0,1.1832362,9.2354034,4.016337)" />
    <linearGradient
       id="linearGradient3172">
      <stop
         id="stop3174"
         style="stop-color:#4d4d4d;stop-opacity:1"
         offset="0" />
      <stop
         id="stop3176"
         style="stop-color:#4d4d4d;stop-opacity:0"
         offset="1" />
    </linearGradient>
  </defs>
  <g
     id="layer1">
    <path
       d="M 24.03125,5.5 11,20.59375 l 6.3125,0 0,11.90625 13.46875,0 0,-11.90625 6.21875,0 L 24.03125,5.5 z M 7.4375004,21.90625 C 5.617236,21.90625 4,23.443618 4,25.3125 L 4,27.84375 4,39.0625 C 4,40.931382 5.617236,42.5 7.4375004,42.5 L 40.5625,42.5 C 42.382764,42.5 44,40.931382 44,39.0625 l 0,-11.21875 0,-2.53125 c 0,-1.868882 -1.617236,-3.40625 -3.4375,-3.40625 l -1.125,0 C 37.617236,21.90625 36,23.443618 36,25.3125 l 0,2.15625 0,5.71875 C 36,33.922954 35.36026,34.5 34.5625,34.5 l -21.125,0 C 12.63974,34.5 12,33.922954 12,33.1875 l 0,-5.71875 0,-2.15625 c 0,-1.868882 -1.617236,-3.40625 -3.4374996,-3.40625 l -1.125,0 z"
       id="rect1314"
       style="fill:#000000;fill-opacity:1;fill-rule:nonzero;stroke:none;stroke-width:1.00000012;marker:none;visibility:visible;display:inline;overflow:visible" />
    <path
       d="m 24.00025,29.65625 c -2.32508,0 -4.560813,-0.205534 -6.6875,-0.53125 l 0,-8.53125 -6.3125,0 L 24.0315,5.5 l 12.96875,15.09375 -6.21875,0 0,8.53125 c -2.153687,0.334794 -4.422769,0.53125 -6.78125,0.53125 z m -12,-1.71875 C 8.9102944,26.992793 6.238445,25.702057 4.219,24.15625 c 0.499213,-1.302939 1.795782,-2.25 3.2187504,-2.25 l 1.125,0 c 1.8202636,0 3.4374996,1.537368 3.4374996,3.40625 l 0,2.15625 0,0.46875 z m 24,0 0,-0.46875 0,-2.15625 c 0,-1.868882 1.617236,-3.40625 3.4375,-3.40625 l 1.125,0 c 1.422968,0 2.719537,0.947061 3.21875,2.25 -2.019445,1.545807 -4.691294,2.836543 -7.78125,3.78125 z"
       id="path3319"
       style="fill:url(#linearGradient3333);fill-opacity:1;stroke:none" />
  </g>
</svg>
