<?xml version="1.0" encoding="UTF-8" standalone="no"?>
<!-- Created with Inkscape (http://www.inkscape.org/) -->
<svg
   xmlns:dc="http://purl.org/dc/elements/1.1/"
   xmlns:cc="http://creativecommons.org/ns#"
   xmlns:rdf="http://www.w3.org/1999/02/22-rdf-syntax-ns#"
   xmlns:svg="http://www.w3.org/2000/svg"
   xmlns="http://www.w3.org/2000/svg"
   xmlns:xlink="http://www.w3.org/1999/xlink"
   xmlns:sodipodi="http://sodipodi.sourceforge.net/DTD/sodipodi-0.dtd"
   xmlns:inkscape="http://www.inkscape.org/namespaces/inkscape"
   width="48px"
   height="48px"
   id="svg4289"
   sodipodi:version="0.32"
   inkscape:version="0.46"
   sodipodi:docbase="/home/lapo/Icone/cvs/gnome-icon-theme/scalable/categories"
   sodipodi:docname="folder-remote.svg"
   inkscape:output_extension="org.inkscape.output.svg.inkscape">
  <defs
     id="defs4291">
    <linearGradient
       id="linearGradient3155"
       inkscape:collect="always">
      <stop
         id="stop3157"
         offset="0"
         style="stop-color:#4d4d4d;stop-opacity:1;" />
      <stop
         id="stop3159"
         offset="1"
         style="stop-color:#4d4d4d;stop-opacity:0;" />
    </linearGradient>
    <linearGradient
       inkscape:collect="always"
       xlink:href="#linearGradient3155"
       id="linearGradient2644"
       gradientUnits="userSpaceOnUse"
       gradientTransform="matrix(0.1721311,0,0,0.1721311,-32.065571,-63.312822)"
       x1="325.71429"
       y1="369.50507"
       x2="325.71429"
       y2="546.64789" />
  </defs>
  <sodipodi:namedview
     id="base"
     pagecolor="#ffffff"
     bordercolor="#666"
     borderopacity="0.31372549"
     inkscape:pageopacity="0.0"
     inkscape:pageshadow="2"
     inkscape:zoom="5.656854"
     inkscape:cx="37.533214"
     inkscape:cy="19.31447"
     inkscape:current-layer="layer1"
     showgrid="true"
     inkscape:grid-bbox="true"
     inkscape:document-units="px"
     inkscape:window-width="1019"
     inkscape:window-height="732"
     inkscape:window-x="259"
     inkscape:window-y="19"
     inkscape:showpageshadow="false" />
  <metadata
     id="metadata4294">
    <rdf:RDF>
      <cc:Work
         rdf:about="">
        <dc:format>image/svg+xml</dc:format>
        <dc:type
           rdf:resource="http://purl.org/dc/dcmitype/StillImage" />
        <dc:title>System Preferences</dc:title>
        <dc:creator>
          <cc:Agent>
            <dc:title>Andreas Nilsson</dc:title>
          </cc:Agent>
        </dc:creator>
        <dc:subject>
          <rdf:Bag>
            <rdf:li>category</rdf:li>
            <rdf:li>system</rdf:li>
            <rdf:li>preferences</rdf:li>
            <rdf:li>settings</rdf:li>
            <rdf:li>control center</rdf:li>
          </rdf:Bag>
        </dc:subject>
        <dc:contributor>
          <cc:Agent>
            <dc:title>Jakub Steiner</dc:title>
          </cc:Agent>
        </dc:contributor>
        <cc:license
           rdf:resource="http://creativecommons.org/licenses/GPL/2.0/" />
      </cc:Work>
      <cc:License
         rdf:about="http://creativecommons.org/licenses/GPL/2.0/">
        <cc:permits
           rdf:resource="http://web.resource.org/cc/Reproduction" />
        <cc:permits
           rdf:resource="http://web.resource.org/cc/Distribution" />
        <cc:requires
           rdf:resource="http://web.resource.org/cc/Notice" />
        <cc:permits
           rdf:resource="http://web.resource.org/cc/DerivativeWorks" />
        <cc:requires
           rdf:resource="http://web.resource.org/cc/ShareAlike" />
        <cc:requires
           rdf:resource="http://web.resource.org/cc/SourceCode" />
      </cc:License>
    </rdf:RDF>
  </metadata>
  <g
     id="layer1"
     inkscape:label="Layer 1"
     inkscape:groupmode="layer">
    <g
       id="g2453"
       inkscape:label="Calque 1"
       transform="matrix(0.1337942,0,0,0.1337942,-18.472238,-41.04701)" />
    <g
       id="g2474"
       inkscape:label="Calque 1"
       transform="matrix(0.1337942,0,0,0.1337942,-18.472238,-41.04701)" />
    <g
       id="g2585"
       inkscape:label="Calque 1"
       transform="matrix(0.1337942,0,0,0.1337942,-18.472238,-41.04701)" />
    <g
       id="g2491"
       inkscape:label="pixmap"
       style="display:inline"
       transform="translate(12.989023,12.820866)" />
    <path
       style="fill:#000000;fill-opacity:1;fill-rule:evenodd;stroke:none;stroke-width:1;stroke-miterlimit:4;stroke-opacity:1"
       d="M 4.8203125,6.5 C 4.35319,6.5 4,6.7501175 4,7.2421875 L 4,40.289062 C 4,41.017058 4.50687,41.5 5.171875,41.5 L 43.0625,41.5 C 43.731375,41.5 44,41.040783 44,40.40625 L 44,11.460938 C 44,10.91734 43.602634,10.640625 43.101562,10.640625 L 23.882812,10.640625 C 23.544244,10.640625 23.183089,10.445052 22.984375,10.171875 L 20.367188,6.96875 C 20.148316,6.66786 19.724477,6.5 19.351562,6.5 L 4.8203125,6.5 z M 23.296875,17.125 C 23.301286,17.122104 23.331522,17.127883 23.335938,17.125 C 23.557741,17.110166 23.774423,17.125 24,17.125 C 24.225577,17.125 24.442259,17.110166 24.664062,17.125 C 24.668478,17.127883 24.698714,17.122104 24.703125,17.125 C 27.084106,17.288919 29.240602,18.317165 30.875,19.859375 C 31.094269,20.066277 31.300119,20.258582 31.5,20.484375 C 31.698211,20.70828 31.869105,20.946394 32.046875,21.1875 C 33.269984,22.846379 34,24.90734 34,27.125 C 34,29.34266 33.269984,31.40362 32.046875,33.0625 C 31.869105,33.303606 31.698211,33.541719 31.5,33.765625 C 31.300119,33.991418 31.094269,34.183722 30.875,34.390625 C 29.240602,35.932834 27.084106,36.961081 24.703125,37.125 C 24.698714,37.127895 24.668478,37.122118 24.664062,37.125 C 24.442259,37.139834 24.225577,37.125 24,37.125 C 23.774423,37.125 23.557741,37.139834 23.335938,37.125 C 23.331522,37.122118 23.301286,37.127895 23.296875,37.125 C 20.915894,36.961081 18.759398,35.932834 17.125,34.390625 C 16.905731,34.183722 16.699881,33.991418 16.5,33.765625 C 16.301789,33.541719 16.130895,33.303606 15.953125,33.0625 C 14.730015,31.40362 14,29.34266 14,27.125 C 14,24.90734 14.730015,22.846379 15.953125,21.1875 C 16.130895,20.946394 16.301789,20.70828 16.5,20.484375 C 16.699881,20.258582 16.905731,20.066277 17.125,19.859375 C 18.759398,18.317165 20.915894,17.288919 23.296875,17.125 z M 24,18.882812 C 23.830903,18.882812 23.658589,18.91182 23.492188,18.921875 C 22.746191,19.632252 22.113891,20.555293 21.617188,21.65625 C 22.363034,21.769681 23.167286,21.8125 24,21.8125 C 24.832714,21.8125 25.636966,21.769681 26.382812,21.65625 C 25.886109,20.555293 25.253809,19.632252 24.507812,18.921875 C 24.341411,18.91182 24.169097,18.882812 24,18.882812 z M 21.109375,19.390625 C 20.214639,19.726688 19.405796,20.227064 18.6875,20.835938 C 19.106711,21.02326 19.586094,21.203024 20.09375,21.34375 C 20.385785,20.643221 20.722822,19.970769 21.109375,19.390625 z M 26.890625,19.390625 C 27.277178,19.970769 27.614215,20.643221 27.90625,21.34375 C 28.413906,21.203024 28.893289,21.02326 29.3125,20.835938 C 28.594204,20.227064 27.785361,19.726688 26.890625,19.390625 z M 17.476562,22.125 C 16.543671,23.33333 15.941256,24.778199 15.796875,26.382812 L 19,26.382812 C 19.055916,25.121918 19.2691,23.934477 19.585938,22.828125 C 18.809619,22.63786 18.095399,22.402366 17.476562,22.125 z M 30.523438,22.125 C 29.904601,22.402366 29.190381,22.63786 28.414062,22.828125 C 28.7309,23.934477 28.944084,25.121918 29,26.382812 L 32.203125,26.382812 C 32.058744,24.778199 31.456329,23.33333 30.523438,22.125 z M 21.070312,23.101562 C 20.765828,24.113329 20.545506,25.2216 20.484375,26.382812 L 24,26.382812 L 27.515625,26.382812 C 27.454494,25.2216 27.234172,24.113329 26.929688,23.101562 C 26.010846,23.239245 25.023979,23.296875 24,23.296875 C 22.976021,23.296875 21.989154,23.239245 21.070312,23.101562 z M 15.796875,27.867188 C 15.941256,29.4718 16.543671,30.91667 17.476562,32.125 C 18.095399,31.847634 18.809619,31.61214 19.585938,31.421875 C 19.2691,30.315524 19.055916,29.128082 19,27.867188 L 15.796875,27.867188 z M 20.484375,27.867188 C 20.545506,29.0284 20.765828,30.136671 21.070312,31.148438 C 21.989154,31.010754 22.976021,30.953125 24,30.953125 C 25.023979,30.953125 26.010846,31.010754 26.929688,31.148438 C 27.234172,30.136671 27.454494,29.0284 27.515625,27.867188 L 24,27.867188 L 20.484375,27.867188 z M 29,27.867188 C 28.944084,29.128082 28.7309,30.315524 28.414062,31.421875 C 29.190381,31.61214 29.904601,31.847634 30.523438,32.125 C 31.456329,30.91667 32.058744,29.4718 32.203125,27.867188 L 29,27.867188 z M 24,32.4375 C 23.167286,32.4375 22.363034,32.480319 21.617188,32.59375 C 22.113891,33.694707 22.746191,34.617747 23.492188,35.328125 C 23.658589,35.338179 23.830903,35.367188 24,35.367188 C 24.169097,35.367188 24.341411,35.338179 24.507812,35.328125 C 25.253809,34.617747 25.886109,33.694707 26.382812,32.59375 C 25.636966,32.480319 24.832714,32.4375 24,32.4375 z M 20.09375,32.90625 C 19.586094,33.046976 19.106711,33.22674 18.6875,33.414062 C 19.405796,34.022936 20.214639,34.523311 21.109375,34.859375 C 20.722822,34.279231 20.385785,33.606779 20.09375,32.90625 z M 27.90625,32.90625 C 27.614215,33.606779 27.277178,34.279231 26.890625,34.859375 C 27.785361,34.523311 28.594204,34.022936 29.3125,33.414062 C 28.893289,33.22674 28.413906,33.046976 27.90625,32.90625 z"
       id="path895" />
    <g
       transform="matrix(0.186703,0,0,0.186703,-8.118277,70.443856)"
       id="g891" />
    <g
       transform="matrix(0.1337942,0,0,0.1337942,31.527762,-41.04701)"
       inkscape:label="Calque 1"
       id="g2596" />
    <g
       transform="translate(62.989023,12.820866)"
       style="display:inline"
       inkscape:label="pixmap"
       id="g2598" />
    <g
       id="g2602"
       transform="matrix(0.186703,0,0,0.186703,41.881723,70.443856)" />
    <g
       transform="matrix(0.1337942,0,0,0.1337942,89.255152,-27.075591)"
       inkscape:label="Calque 1"
       id="g2623" />
    <path
       style="fill:url(#linearGradient2644);fill-opacity:1"
       d="M 4.8203125,6.5 C 4.35319,6.5 4,6.7501175 4,7.2421875 L 4,26.890625 C 6.997834,28.261109 10.529982,29.305867 14.429688,29.976562 C 14.158494,29.06884 14,28.117489 14,27.125 C 14,24.90734 14.730015,22.846379 15.953125,21.1875 C 16.130895,20.946394 16.301789,20.70828 16.5,20.484375 C 16.699881,20.258582 16.905731,20.066277 17.125,19.859375 C 18.759398,18.317165 20.915894,17.288919 23.296875,17.125 C 23.301286,17.122104 23.331522,17.127883 23.335938,17.125 C 23.557741,17.110166 23.774423,17.125 24,17.125 C 24.225577,17.125 24.442259,17.110166 24.664062,17.125 C 24.668478,17.127883 24.698714,17.122104 24.703125,17.125 C 27.084106,17.288919 29.240602,18.317165 30.875,19.859375 C 31.094269,20.066277 31.300119,20.258582 31.5,20.484375 C 31.698211,20.70828 31.869105,20.946394 32.046875,21.1875 C 33.269984,22.846379 34,24.90734 34,27.125 C 34,28.117489 33.841506,29.06884 33.570312,29.976562 C 37.470018,29.305867 41.002166,28.261109 44,26.890625 L 44,11.460938 C 44,10.91734 43.602634,10.640625 43.101562,10.640625 L 23.882812,10.640625 C 23.544244,10.640625 23.183089,10.445052 22.984375,10.171875 L 20.367188,6.96875 C 20.148316,6.66786 19.724477,6.5 19.351562,6.5 L 4.8203125,6.5 z M 24,18.882812 C 23.830903,18.882812 23.658589,18.91182 23.492188,18.921875 C 22.746191,19.632252 22.113891,20.555293 21.617188,21.65625 C 22.363034,21.769681 23.167286,21.8125 24,21.8125 C 24.832714,21.8125 25.636966,21.769681 26.382812,21.65625 C 25.886109,20.555293 25.253809,19.632252 24.507812,18.921875 C 24.341411,18.91182 24.169097,18.882812 24,18.882812 z M 21.109375,19.390625 C 20.214639,19.726688 19.405796,20.227064 18.6875,20.835938 C 19.106711,21.02326 19.586094,21.203024 20.09375,21.34375 C 20.385785,20.643221 20.722822,19.970769 21.109375,19.390625 z M 26.890625,19.390625 C 27.277178,19.970769 27.614215,20.643221 27.90625,21.34375 C 28.413906,21.203024 28.893289,21.02326 29.3125,20.835938 C 28.594204,20.227064 27.785361,19.726688 26.890625,19.390625 z M 17.476562,22.125 C 16.543671,23.33333 15.941256,24.778199 15.796875,26.382812 L 19,26.382812 C 19.055916,25.121918 19.2691,23.934477 19.585938,22.828125 C 18.809619,22.63786 18.095399,22.402366 17.476562,22.125 z M 30.523438,22.125 C 29.904601,22.402366 29.190381,22.63786 28.414062,22.828125 C 28.7309,23.934477 28.944084,25.121918 29,26.382812 L 32.203125,26.382812 C 32.058744,24.778199 31.456329,23.33333 30.523438,22.125 z M 21.070312,23.101562 C 20.765828,24.113329 20.545506,25.2216 20.484375,26.382812 L 24,26.382812 L 27.515625,26.382812 C 27.454494,25.2216 27.234172,24.113329 26.929688,23.101562 C 26.010846,23.239245 25.023979,23.296875 24,23.296875 C 22.976021,23.296875 21.989154,23.239245 21.070312,23.101562 z M 15.796875,27.867188 C 15.874451,28.729354 16.099619,29.531043 16.421875,30.289062 C 17.390424,30.41815 18.386631,30.521975 19.390625,30.601562 C 19.189633,29.730664 19.042541,28.826484 19,27.867188 L 15.796875,27.867188 z M 20.484375,27.867188 C 20.537251,28.871594 20.710601,29.821753 20.953125,30.71875 C 21.959706,30.770874 22.966614,30.796875 24,30.796875 C 25.033386,30.796875 26.040295,30.770874 27.046875,30.71875 C 27.289399,29.821753 27.462749,28.871594 27.515625,27.867188 L 24,27.867188 L 20.484375,27.867188 z M 29,27.867188 C 28.957459,28.826484 28.810367,29.730664 28.609375,30.601562 C 29.613369,30.521975 30.609576,30.41815 31.578125,30.289062 C 31.900381,29.531043 32.125549,28.729354 32.203125,27.867188 L 29,27.867188 z"
       id="path2637" />
  </g>
</svg>
