<?xml version="1.0" encoding="UTF-8" standalone="no"?>
<!-- Created with Inkscape (http://www.inkscape.org/) -->
<svg
   xmlns:dc="http://purl.org/dc/elements/1.1/"
   xmlns:cc="http://creativecommons.org/ns#"
   xmlns:rdf="http://www.w3.org/1999/02/22-rdf-syntax-ns#"
   xmlns:svg="http://www.w3.org/2000/svg"
   xmlns="http://www.w3.org/2000/svg"
   xmlns:xlink="http://www.w3.org/1999/xlink"
   xmlns:sodipodi="http://sodipodi.sourceforge.net/DTD/sodipodi-0.dtd"
   xmlns:inkscape="http://www.inkscape.org/namespaces/inkscape"
   width="48px"
   height="48px"
   id="svg4289"
   sodipodi:version="0.32"
   inkscape:version="0.46"
   sodipodi:docbase="/home/lapo/Icone/cvs/gnome-icon-theme/scalable/categories"
   sodipodi:docname="distributor-logo.svg"
   inkscape:output_extension="org.inkscape.output.svg.inkscape">
  <defs
     id="defs4291">
    <linearGradient
       id="linearGradient3155"
       inkscape:collect="always">
      <stop
         id="stop3157"
         offset="0"
         style="stop-color:#4d4d4d;stop-opacity:1;" />
      <stop
         id="stop3159"
         offset="1"
         style="stop-color:#4d4d4d;stop-opacity:0;" />
    </linearGradient>
    <linearGradient
       inkscape:collect="always"
       xlink:href="#linearGradient3155"
       id="linearGradient2624"
       gradientUnits="userSpaceOnUse"
       gradientTransform="matrix(0.1721233,0,0,0.1726369,-32.063937,-63.62814)"
       x1="325.71429"
       y1="369.50507"
       x2="325.71429"
       y2="546.64789" />
  </defs>
  <sodipodi:namedview
     id="base"
     pagecolor="#ffffff"
     bordercolor="#666"
     borderopacity="0.31372549"
     inkscape:pageopacity="0.0"
     inkscape:pageshadow="2"
     inkscape:zoom="5.656854"
     inkscape:cx="37.533214"
     inkscape:cy="19.31447"
     inkscape:current-layer="layer1"
     showgrid="true"
     inkscape:grid-bbox="true"
     inkscape:document-units="px"
     inkscape:window-width="1019"
     inkscape:window-height="732"
     inkscape:window-x="259"
     inkscape:window-y="24"
     inkscape:showpageshadow="false" />
  <metadata
     id="metadata4294">
    <rdf:RDF>
      <cc:Work
         rdf:about="">
        <dc:format>image/svg+xml</dc:format>
        <dc:type
           rdf:resource="http://purl.org/dc/dcmitype/StillImage" />
        <dc:title>System Preferences</dc:title>
        <dc:creator>
          <cc:Agent>
            <dc:title>Andreas Nilsson</dc:title>
          </cc:Agent>
        </dc:creator>
        <dc:subject>
          <rdf:Bag>
            <rdf:li>category</rdf:li>
            <rdf:li>system</rdf:li>
            <rdf:li>preferences</rdf:li>
            <rdf:li>settings</rdf:li>
            <rdf:li>control center</rdf:li>
          </rdf:Bag>
        </dc:subject>
        <dc:contributor>
          <cc:Agent>
            <dc:title>Jakub Steiner</dc:title>
          </cc:Agent>
        </dc:contributor>
        <cc:license
           rdf:resource="http://creativecommons.org/licenses/GPL/2.0/" />
      </cc:Work>
      <cc:License
         rdf:about="http://creativecommons.org/licenses/GPL/2.0/">
        <cc:permits
           rdf:resource="http://web.resource.org/cc/Reproduction" />
        <cc:permits
           rdf:resource="http://web.resource.org/cc/Distribution" />
        <cc:requires
           rdf:resource="http://web.resource.org/cc/Notice" />
        <cc:permits
           rdf:resource="http://web.resource.org/cc/DerivativeWorks" />
        <cc:requires
           rdf:resource="http://web.resource.org/cc/ShareAlike" />
        <cc:requires
           rdf:resource="http://web.resource.org/cc/SourceCode" />
      </cc:License>
    </rdf:RDF>
  </metadata>
  <g
     id="layer1"
     inkscape:label="Layer 1"
     inkscape:groupmode="layer">
    <g
       id="g2453"
       inkscape:label="Calque 1"
       transform="matrix(0.1337942,0,0,0.1337942,-18.472238,-41.04701)" />
    <path
       style="fill:#000000;fill-rule:evenodd"
       d="M 21.005216,30.70282 C 18.903988,28.876859 17.699121,26.261789 17.699121,23.528521 C 17.699121,20.774859 18.916775,18.148125 21.039969,16.321524 C 21.159636,16.218233 21.185863,16.044341 21.100951,15.911265 L 17.78174,10.709606 C 17.733217,10.633835 17.654532,10.581378 17.565028,10.565835 C 17.47552,10.550292 17.382738,10.572635 17.311593,10.627034 C 14.600883,12.689045 12.563261,15.590361 11.573467,18.796721 C 11.53478,18.922029 11.577401,19.058033 11.681984,19.139633 C 13.044226,20.205285 13.857307,21.845691 13.857307,23.528195 C 13.857307,25.210713 13.043898,26.851769 11.681329,27.917424 C 11.577401,27.998697 11.534123,28.134373 11.57281,28.260008 C 12.554736,31.439486 14.569411,34.324289 17.246679,36.381764 C 17.318479,36.437135 17.410279,36.459807 17.500111,36.444262 C 17.589615,36.429042 17.668629,36.376913 17.717478,36.30146 L 21.064556,31.113405 C 21.149799,30.980644 21.124554,30.806437 21.005216,30.70282 z M 8.197537,19.462461 C 5.8792686,19.462461 4,21.317237 4,23.604942 C 4,25.89265 5.8792686,27.747741 8.197537,27.747741 C 10.515803,27.747741 12.395071,25.89265 12.395071,23.604942 C 12.395071,21.317237 10.515803,19.462461 8.197537,19.462461 z M 23.271026,14.585595 C 23.355285,14.717702 23.52413,14.770158 23.670026,14.70961 C 24.900796,14.195722 26.179434,13.935063 27.469872,13.935063 C 32.216567,13.935063 36.357055,17.410816 37.101287,22.020224 C 37.126204,22.175003 37.261282,22.28866 37.419636,22.28866 L 43.675119,22.298049 C 43.766264,22.298049 43.853145,22.260171 43.914455,22.193463 C 43.975765,22.126757 44.005271,22.038359 43.996747,21.948339 C 43.659712,18.528272 42.185673,15.229316 39.846423,12.659903 C 39.740853,12.543332 39.564795,12.520017 39.431357,12.605179 C 38.488116,13.206815 37.416685,13.525447 36.334105,13.525447 C 33.175872,13.525447 30.606794,11.002976 30.606468,7.9028353 C 30.606794,7.9012156 30.612697,7.7843218 30.612697,7.7791405 C 30.612697,7.6246841 30.500242,7.491598 30.345166,7.4650465 C 29.357664,7.2960188 28.390491,7.1775053 27.469872,7.1775053 C 24.941778,7.1775053 22.387455,7.8047203 20.082631,8.929631 C 20.000665,8.9697836 19.939686,9.0423162 19.915095,9.1290979 C 19.890179,9.2158771 19.903948,9.3088107 19.952471,9.3852296 L 23.271026,14.585595 z M 36.12985,12.104571 C 38.394679,12.104571 40.231325,10.291893 40.231325,8.0569682 C 40.231325,5.8213974 38.394679,4.0093662 36.12985,4.0093662 C 33.865024,4.0093662 32.028376,5.8213974 32.028376,8.0569682 C 32.028376,10.291893 33.865024,12.104571 36.12985,12.104571 z M 43.668563,24.808535 L 37.413732,24.828618 C 37.256035,24.828933 37.121286,24.942591 37.096042,25.096073 C 36.341646,29.671161 32.203453,33.121338 27.469872,33.121338 C 26.164352,33.121338 24.871289,32.854524 23.626749,32.328006 C 23.481181,32.266815 23.312663,32.318291 23.227092,32.449444 L 19.881982,37.635224 C 19.833131,37.711318 19.819035,37.804253 19.843296,37.891356 C 19.867557,37.978147 19.92821,38.050999 20.009846,38.09115 C 22.332704,39.239699 24.9126,39.846521 27.469872,39.846521 C 28.41836,39.846521 29.406189,39.75811 30.405818,39.582936 C 30.546142,39.558643 30.653679,39.445639 30.670399,39.306078 C 31.003501,36.464657 33.438485,34.3217 36.334105,34.3217 C 37.231774,34.3217 38.145179,34.547712 38.97531,34.975149 C 39.101535,35.040234 39.255299,35.016269 39.355295,34.915555 C 41.973222,32.278792 43.620041,28.814374 43.991172,25.159551 C 44.000353,25.069847 43.970519,24.98048 43.908881,24.913446 C 43.847244,24.846425 43.759708,24.808209 43.668563,24.808535 z M 36.289189,35.757133 C 33.970922,35.757133 32.091326,37.601881 32.091326,39.878568 C 32.091326,42.154623 33.970595,44 36.289189,44 C 38.607129,44 40.486724,42.154938 40.486724,39.878568 C 40.486724,37.601881 38.607457,35.757133 36.289189,35.757133 z"
       id="path2503" />
    <path
       style="fill:url(#linearGradient2624);fill-opacity:1"
       d="M 36.14698,4 C 33.882151,3.9999999 32.045604,5.8388661 32.045604,8.0744368 C 32.045608,10.309362 33.882155,12.109696 36.14698,12.109696 C 38.411806,12.109696 40.248357,10.309362 40.248357,8.0744368 C 40.248357,5.8388662 38.41181,4 36.14698,4 z M 27.475498,7.1733595 C 24.947403,7.1733595 22.397845,7.8114263 20.093021,8.9363369 C 20.01105,8.9764895 19.922307,9.0454415 19.897717,9.1322234 C 19.872803,9.2190025 19.888255,9.2908681 19.936778,9.3672869 L 23.25694,14.577865 C 23.3412,14.709972 23.540712,14.755946 23.686608,14.695397 C 24.917379,14.181509 26.185059,13.951028 27.475498,13.951028 C 32.222193,13.951028 36.340207,17.41214 37.084438,22.021548 C 37.109353,22.176327 37.277631,22.295789 37.435985,22.295789 L 43.685702,22.295789 C 43.77685,22.29579 43.858757,22.244963 43.920066,22.178257 C 43.981372,22.111548 44.006711,22.033213 43.998187,21.943193 C 43.661152,18.523126 42.196999,15.227591 39.85775,12.658178 C 39.752182,12.541607 39.56152,12.533839 39.428082,12.619001 C 38.484845,13.220637 37.424865,13.520078 36.342285,13.520078 C 33.184054,13.520078 30.600683,11.017869 30.600357,7.9177277 C 30.600682,7.916108 30.600357,7.7662 30.600357,7.7610186 C 30.600357,7.6065623 30.482007,7.4741519 30.326932,7.4476003 C 29.339432,7.2785727 28.396117,7.1733595 27.475498,7.1733595 z M 17.554073,10.581782 C 17.464563,10.56624 17.390854,10.56656 17.319709,10.62096 C 14.608999,12.682971 12.567576,15.602652 11.577782,18.809011 C 11.53909,18.934321 11.59038,19.04083 11.694964,19.122429 C 13.057206,20.188083 13.843304,21.827781 13.843304,23.510285 C 13.843308,25.192801 13.057532,26.832485 11.694964,27.898139 C 11.591037,27.979412 11.539095,28.1251 11.577782,28.250734 C 11.704045,28.659581 11.847818,29.067262 12.00745,29.46523 C 14.796701,30.090018 17.798052,30.5159 20.952357,30.679726 C 18.876682,28.855491 17.710316,26.22557 17.710316,23.510285 C 17.710316,20.756621 18.907284,18.167444 21.030478,16.340842 C 21.150148,16.237551 21.193513,16.042968 21.108599,15.909893 L 17.788437,10.699314 C 17.739912,10.623544 17.643577,10.597326 17.554073,10.581782 z M 8.179499,19.475024 C 5.8612307,19.475023 4,21.300933 4,23.588639 C 4,25.876348 5.8612294,27.74143 8.179499,27.74143 C 10.497766,27.741431 12.398057,25.876347 12.398057,23.588639 C 12.398056,21.300934 10.497765,19.475024 8.179499,19.475024 z M 43.685702,24.803134 L 37.396924,24.842311 C 37.239221,24.842625 37.109683,24.923891 37.084438,25.077376 C 36.801538,26.793033 36.062705,28.384461 34.975159,29.661116 C 38.187308,29.012592 41.12662,28.099516 43.685702,26.957885 C 43.815958,26.36536 43.936662,25.761621 43.998187,25.15573 C 44.007372,25.066026 43.981704,24.9877 43.920066,24.920665 C 43.85843,24.853643 43.776847,24.802808 43.685702,24.803134 z"
       id="path2617" />
  </g>
</svg>
