<?xml version="1.0" encoding="UTF-8" standalone="no"?>
<!-- Created with Inkscape (http://www.inkscape.org/) -->
<svg
   xmlns:dc="http://purl.org/dc/elements/1.1/"
   xmlns:cc="http://creativecommons.org/ns#"
   xmlns:rdf="http://www.w3.org/1999/02/22-rdf-syntax-ns#"
   xmlns:svg="http://www.w3.org/2000/svg"
   xmlns="http://www.w3.org/2000/svg"
   xmlns:xlink="http://www.w3.org/1999/xlink"
   xmlns:sodipodi="http://sodipodi.sourceforge.net/DTD/sodipodi-0.dtd"
   xmlns:inkscape="http://www.inkscape.org/namespaces/inkscape"
   width="48px"
   height="48px"
   id="svg4289"
   sodipodi:version="0.32"
   inkscape:version="0.46"
   sodipodi:docbase="/home/lapo/Icone/cvs/gnome-icon-theme/scalable/categories"
   sodipodi:docname="folder_home.svg"
   inkscape:output_extension="org.inkscape.output.svg.inkscape">
  <defs
     id="defs4291">
    <linearGradient
       id="linearGradient3155"
       inkscape:collect="always">
      <stop
         id="stop3157"
         offset="0"
         style="stop-color:#4d4d4d;stop-opacity:1;" />
      <stop
         id="stop3159"
         offset="1"
         style="stop-color:#4d4d4d;stop-opacity:0;" />
    </linearGradient>
    <linearGradient
       inkscape:collect="always"
       xlink:href="#linearGradient3155"
       id="linearGradient2688"
       gradientUnits="userSpaceOnUse"
       gradientTransform="matrix(0.1721311,0,0,0.1721311,-32.065571,-63.312822)"
       x1="325.71429"
       y1="369.50507"
       x2="325.71429"
       y2="546.64789" />
  </defs>
  <sodipodi:namedview
     id="base"
     pagecolor="#ffffff"
     bordercolor="#666"
     borderopacity="0.31372549"
     inkscape:pageopacity="0.0"
     inkscape:pageshadow="2"
     inkscape:zoom="5.656854"
     inkscape:cx="37.533214"
     inkscape:cy="19.31447"
     inkscape:current-layer="layer1"
     showgrid="true"
     inkscape:grid-bbox="true"
     inkscape:document-units="px"
     inkscape:window-width="1019"
     inkscape:window-height="732"
     inkscape:window-x="259"
     inkscape:window-y="19"
     inkscape:showpageshadow="false" />
  <metadata
     id="metadata4294">
    <rdf:RDF>
      <cc:Work
         rdf:about="">
        <dc:format>image/svg+xml</dc:format>
        <dc:type
           rdf:resource="http://purl.org/dc/dcmitype/StillImage" />
        <dc:title>System Preferences</dc:title>
        <dc:creator>
          <cc:Agent>
            <dc:title>Andreas Nilsson</dc:title>
          </cc:Agent>
        </dc:creator>
        <dc:subject>
          <rdf:Bag>
            <rdf:li>category</rdf:li>
            <rdf:li>system</rdf:li>
            <rdf:li>preferences</rdf:li>
            <rdf:li>settings</rdf:li>
            <rdf:li>control center</rdf:li>
          </rdf:Bag>
        </dc:subject>
        <dc:contributor>
          <cc:Agent>
            <dc:title>Jakub Steiner</dc:title>
          </cc:Agent>
        </dc:contributor>
        <cc:license
           rdf:resource="http://creativecommons.org/licenses/GPL/2.0/" />
      </cc:Work>
      <cc:License
         rdf:about="http://creativecommons.org/licenses/GPL/2.0/">
        <cc:permits
           rdf:resource="http://web.resource.org/cc/Reproduction" />
        <cc:permits
           rdf:resource="http://web.resource.org/cc/Distribution" />
        <cc:requires
           rdf:resource="http://web.resource.org/cc/Notice" />
        <cc:permits
           rdf:resource="http://web.resource.org/cc/DerivativeWorks" />
        <cc:requires
           rdf:resource="http://web.resource.org/cc/ShareAlike" />
        <cc:requires
           rdf:resource="http://web.resource.org/cc/SourceCode" />
      </cc:License>
    </rdf:RDF>
  </metadata>
  <g
     id="layer1"
     inkscape:label="Layer 1"
     inkscape:groupmode="layer">
    <g
       id="g2453"
       inkscape:label="Calque 1"
       transform="matrix(0.1337942,0,0,0.1337942,-18.472238,-41.04701)" />
    <g
       id="g2474"
       inkscape:label="Calque 1"
       transform="matrix(0.1337942,0,0,0.1337942,-18.472238,-41.04701)" />
    <g
       id="g2585"
       inkscape:label="Calque 1"
       transform="matrix(0.1337942,0,0,0.1337942,-18.472238,-41.04701)" />
    <g
       id="g2491"
       inkscape:label="pixmap"
       style="display:inline"
       transform="translate(12.989023,12.820866)" />
    <path
       style="fill:#000000;fill-opacity:1;fill-rule:evenodd;stroke:none;stroke-width:1;stroke-miterlimit:4;stroke-opacity:1"
       d="M 4.8203125,6.5 C 4.35319,6.5 4,6.7501175 4,7.2421875 L 4,40.289062 C 4,41.017058 4.50687,41.5 5.171875,41.5 L 43.0625,41.5 C 43.731375,41.5 44,41.040783 44,40.40625 L 44,11.460938 C 44,10.91734 43.602634,10.640625 43.101562,10.640625 L 23.882812,10.640625 C 23.544244,10.640625 23.183089,10.445052 22.984375,10.171875 L 20.367188,6.96875 C 20.148316,6.66786 19.724477,6.5 19.351562,6.5 L 4.8203125,6.5 z M 24.3125,17.125 L 28.335938,22.125 L 28.335938,20.328125 L 30.484375,20.328125 L 30.484375,24.742188 L 34.9375,30.210938 L 33.023438,30.210938 L 33.023438,37.125 L 24.15625,37.125 L 24.15625,31.96875 L 19.859375,31.96875 L 19.859375,37.125 L 14.898438,37.125 L 14.898438,30.25 L 13.0625,30.25 L 24.3125,17.125 z"
       id="path895" />
    <g
       transform="matrix(0.186703,0,0,0.186703,-8.118277,70.443856)"
       id="g891" />
    <g
       transform="matrix(0.1337942,0,0,0.1337942,31.527762,-41.04701)"
       inkscape:label="Calque 1"
       id="g2596" />
    <g
       transform="translate(62.989023,12.820866)"
       style="display:inline"
       inkscape:label="pixmap"
       id="g2598" />
    <g
       id="g2602"
       transform="matrix(0.186703,0,0,0.186703,41.881723,70.443856)" />
    <g
       id="g2637"
       inkscape:label="pixmap"
       style="display:inline"
       transform="translate(55.990317,12.289018)" />
    <g
       transform="matrix(0.186703,0,0,0.186703,34.883017,69.912008)"
       id="g2642" />
    <g
       transform="matrix(0.4930823,0,0,0.4930823,110.18588,36.351503)"
       style="display:inline"
       inkscape:label="pixmap"
       id="g2645" />
    <g
       id="g2641"
       transform="matrix(9.2059945e-2,0,0,9.2059945e-2,99.778246,64.764379)" />
    <rect
       style="fill:#000000;fill-opacity:1;fill-rule:evenodd;stroke:#000000;stroke-width:0.15384167;stroke-linecap:butt;stroke-linejoin:round;stroke-miterlimit:4;stroke-dasharray:none;stroke-opacity:0.73520251"
       id="rect3322"
       width="0"
       height="0.65374094"
       x="105.19566"
       y="70.653641"
       rx="1.6611341"
       ry="0.5500173" />
    <path
       style="fill:url(#linearGradient2688);fill-opacity:1"
       d="M 4.8203125,6.5 C 4.35319,6.5 4,6.7501175 4,7.2421875 L 4,26.890625 C 6.742336,28.144306 9.942834,29.106346 13.453125,29.78125 L 24.3125,17.125 L 28.335938,22.125 L 28.335938,20.328125 L 30.484375,20.328125 L 30.484375,24.742188 L 34.585938,29.78125 C 38.081374,29.106439 41.267517,28.139801 44,26.890625 L 44,11.460938 C 44,10.91734 43.602634,10.640625 43.101562,10.640625 L 23.882812,10.640625 C 23.544244,10.640625 23.183089,10.445052 22.984375,10.171875 L 20.367188,6.96875 C 20.148316,6.66786 19.724477,6.5 19.351562,6.5 L 4.8203125,6.5 z"
       id="path2681" />
  </g>
</svg>
