<?xml version="1.0" encoding="UTF-8" standalone="no"?>
<!-- Created with Inkscape (http://www.inkscape.org/) -->

<svg
   xmlns:dc="http://purl.org/dc/elements/1.1/"
   xmlns:cc="http://creativecommons.org/ns#"
   xmlns:rdf="http://www.w3.org/1999/02/22-rdf-syntax-ns#"
   xmlns:svg="http://www.w3.org/2000/svg"
   xmlns="http://www.w3.org/2000/svg"
   xmlns:xlink="http://www.w3.org/1999/xlink"
   xmlns:sodipodi="http://sodipodi.sourceforge.net/DTD/sodipodi-0.dtd"
   xmlns:inkscape="http://www.inkscape.org/namespaces/inkscape"
   width="48px"
   height="48px"
   id="svg4289"
   sodipodi:version="0.32"
   inkscape:version="0.47 r22583"
   sodipodi:docname="remove archive.svg"
   inkscape:output_extension="org.inkscape.output.svg.inkscape"
   version="1.1">
  <defs
     id="defs4291">
    <linearGradient
       gradientUnits="userSpaceOnUse"
       y2="21.132059"
       x2="22.892584"
       y1="0.90414524"
       x1="22.892584"
       id="linearGradient3178"
       xlink:href="#linearGradient3172"
       inkscape:collect="always" />
    <linearGradient
       id="linearGradient3172">
      <stop
         id="stop3174"
         offset="0"
         style="stop-color:#4d4d4d;stop-opacity:1;" />
      <stop
         id="stop3176"
         offset="1"
         style="stop-color:#4d4d4d;stop-opacity:0;" />
    </linearGradient>
    <linearGradient
       inkscape:collect="always"
       xlink:href="#linearGradient3172"
       id="linearGradient2945"
       gradientUnits="userSpaceOnUse"
       x1="22.892584"
       y1="0.90414524"
       x2="22.892584"
       y2="21.132059" />
    <linearGradient
       inkscape:collect="always"
       xlink:href="#linearGradient3172"
       id="linearGradient2950"
       gradientUnits="userSpaceOnUse"
       x1="22.892584"
       y1="0.90414524"
       x2="22.892584"
       y2="21.132059"
       gradientTransform="matrix(0.644962,0,0,-1.1832362,59.235153,43.983663)" />
    <linearGradient
       inkscape:collect="always"
       xlink:href="#linearGradient3172"
       id="linearGradient2964"
       gradientUnits="userSpaceOnUse"
       gradientTransform="matrix(0.644962,0,0,-1.1832362,109.23515,43.983663)"
       x1="22.892584"
       y1="0.90414524"
       x2="22.892584"
       y2="21.132059" />
    <linearGradient
       inkscape:collect="always"
       xlink:href="#linearGradient3172"
       id="linearGradient2986"
       gradientUnits="userSpaceOnUse"
       gradientTransform="matrix(0.644962,0,0,-1.1832362,59.235153,43.983663)"
       x1="22.892584"
       y1="0.90414524"
       x2="22.892584"
       y2="21.132059" />
    <linearGradient
       inkscape:collect="always"
       xlink:href="#linearGradient3172"
       id="linearGradient2989"
       gradientUnits="userSpaceOnUse"
       gradientTransform="matrix(0.644962,0,0,1.1832362,9.23515,4.016337)"
       x1="22.892584"
       y1="0.90414524"
       x2="22.892584"
       y2="21.132059" />
    <linearGradient
       inkscape:collect="always"
       xlink:href="#linearGradient3172"
       id="linearGradient2991"
       gradientUnits="userSpaceOnUse"
       gradientTransform="matrix(0.644962,0,0,1.1832362,9.2353873,4.016337)"
       x1="22.892584"
       y1="0.90414524"
       x2="22.892584"
       y2="21.132059" />
  </defs>
  <sodipodi:namedview
     id="base"
     pagecolor="#ffffff"
     bordercolor="#666"
     borderopacity="0.31372549"
     inkscape:pageopacity="0.0"
     inkscape:pageshadow="2"
     inkscape:zoom="7.9999996"
     inkscape:cx="69.609333"
     inkscape:cy="25.928016"
     inkscape:current-layer="layer1"
     showgrid="true"
     inkscape:grid-bbox="true"
     inkscape:document-units="px"
     inkscape:window-width="1364"
     inkscape:window-height="721"
     inkscape:window-x="0"
     inkscape:window-y="23"
     inkscape:showpageshadow="false"
     inkscape:window-maximized="0" />
  <metadata
     id="metadata4294">
    <rdf:RDF>
      <cc:Work
         rdf:about="">
        <dc:format>image/svg+xml</dc:format>
        <dc:type
           rdf:resource="http://purl.org/dc/dcmitype/StillImage" />
        <dc:title>System Preferences</dc:title>
        <dc:creator>
          <cc:Agent>
            <dc:title>Andreas Nilsson</dc:title>
          </cc:Agent>
        </dc:creator>
        <dc:subject>
          <rdf:Bag>
            <rdf:li>category</rdf:li>
            <rdf:li>system</rdf:li>
            <rdf:li>preferences</rdf:li>
            <rdf:li>settings</rdf:li>
            <rdf:li>control center</rdf:li>
          </rdf:Bag>
        </dc:subject>
        <dc:contributor>
          <cc:Agent>
            <dc:title>Jakub Steiner</dc:title>
          </cc:Agent>
        </dc:contributor>
        <cc:license
           rdf:resource="http://creativecommons.org/licenses/GPL/2.0/" />
      </cc:Work>
      <cc:License
         rdf:about="http://creativecommons.org/licenses/GPL/2.0/">
        <cc:permits
           rdf:resource="http://web.resource.org/cc/Reproduction" />
        <cc:permits
           rdf:resource="http://web.resource.org/cc/Distribution" />
        <cc:requires
           rdf:resource="http://web.resource.org/cc/Notice" />
        <cc:permits
           rdf:resource="http://web.resource.org/cc/DerivativeWorks" />
        <cc:requires
           rdf:resource="http://web.resource.org/cc/ShareAlike" />
        <cc:requires
           rdf:resource="http://web.resource.org/cc/SourceCode" />
      </cc:License>
    </rdf:RDF>
  </metadata>
  <g
     id="layer1"
     inkscape:label="Layer 1"
     inkscape:groupmode="layer">
    <g
       id="g2453"
       inkscape:label="Calque 1"
       transform="matrix(0.1337942,0,0,0.1337942,-18.472238,-41.04701)" />
    <g
       transform="matrix(0.1337942,0,0,-0.1337942,31.527762,89.04701)"
       inkscape:label="Calque 1"
       id="g2922" />
    <g
       transform="matrix(0.1672428,0,0,-0.1672428,38.442916,104.62323)"
       inkscape:label="Calque 1"
       id="g2924" />
    <g
       id="g2477"
       inkscape:label="Calque 1"
       transform="matrix(0.1337942,0,0,0.1337942,-63.873497,-35.264789)" />
    <g
       inkscape:label="Layer 1"
       id="g2576"
       transform="matrix(0.625,0,0,-0.6254609,9,39.018436)">
      <g
         transform="matrix(0.1337942,0,0,0.1337942,-18.472238,-41.04701)"
         inkscape:label="Calque 1"
         id="g2578" />
      <g
         transform="matrix(0.1337942,0,0,0.1337942,-19.316625,-37.918384)"
         inkscape:label="Calque 1"
         id="g2547" />
      <path
         style="fill:#000000;fill-opacity:1;fill-rule:nonzero;stroke:none;stroke-width:1;marker:none;visibility:visible;display:inline;overflow:visible"
         d="m 8.9173546,21.860225 c -0.8955978,0.88328 -1.1646553,2.239796 -0.677368,3.399465 0.4872868,1.159668 1.6327649,1.888899 2.8904674,1.867375 l 9.789061,-0.007 6.186141,-0.0044 9.789062,-0.007 c 1.113466,0.01487 2.127034,-0.567239 2.684096,-1.531455 0.557072,-0.964223 0.566823,-2.169868 -0.0022,-3.12706 -0.569055,-0.957194 -1.607049,-1.522377 -2.72025,-1.493616 l -25.696281,0.01835 c -0.836882,-0.0223 -1.6467139,0.297395 -2.2426944,0.885336 z"
         id="path3825"
         sodipodi:nodetypes="csccccssccc" />
    </g>
    <g
       transform="matrix(0.1337942,0,0,0.1337942,-13.873497,-35.264789)"
       inkscape:label="Calque 1"
       id="g2588" />
    <g
       transform="matrix(0.1337942,0,0,0.1337942,-14.717884,-32.136163)"
       inkscape:label="Calque 1"
       id="g2590" />
    <path
       style="fill:#000000;fill-opacity:1;stroke:none"
       d="m 7.75,4 0,40 32.5,0 c 0,0 -0.0063,-15 -0.84375,-15 L 8.75,29 l 0,-10 30.65625,0 C 40.244062,19 40.25,4 40.25,4 L 7.75,4 z"
       id="path2496"
       sodipodi:nodetypes="ccccccccc" />
    <g
       transform="matrix(8.3621375e-2,0,0,8.3683041e-2,47.454851,-16.691736)"
       inkscape:label="Calque 1"
       id="g2500"
       style="stroke:#000000;stroke-opacity:1" />
    <g
       transform="matrix(8.3621375e-2,0,0,8.3683041e-2,46.927109,-14.734902)"
       inkscape:label="Calque 1"
       id="g2502"
       style="stroke:#000000;stroke-opacity:1" />
    <path
       style="fill:url(#linearGradient2991);fill-opacity:1;stroke:none"
       d="m 15.968984,25.90625 c -0.523051,0.01395 -1.033762,-0.194766 -1.40625,-0.5625 -0.559749,-0.552458 -0.710805,-1.399672 -0.40625,-2.125 0.304554,-0.725327 1.026436,-1.169712 1.8125,-1.15625 l 6.09375,0 3.875,0 6.125,0 c 0.695916,-0.0093 1.339336,0.36567 1.6875,0.96875 0.34817,0.603084 0.355664,1.338813 0,1.9375 -0.35566,0.598687 -1.022999,0.955489 -1.71875,0.9375 l -16.0625,0 z"
       id="path2939" />
    <g
       transform="matrix(0.1337942,0,0,-0.1337942,31.527762,89.04701)"
       inkscape:label="Calque 1"
       id="g2941" />
    <g
       transform="matrix(0.1672428,0,0,-0.1672428,38.442916,104.62323)"
       inkscape:label="Calque 1"
       id="g2943" />
    <path
       style="fill:url(#linearGradient2989);fill-opacity:1;stroke:none"
       d="m 24,29.65625 c -2.61225,0 -5.11388,-0.248775 -7.46875,-0.65625 l 14.9375,0 C 29.11388,29.407475 26.61225,29.65625 24,29.65625 z M 8.75,26.75 C 8.40567,26.600143 8.07783,26.440824 7.75,26.28125 L 7.75,4 40.25,4 c 0,0 -0.0059,15 -0.84375,15 L 8.75,19 l 0,7.75 z"
       id="path2960" />
    <g
       id="g2977"
       inkscape:label="Calque 1"
       transform="matrix(0.08362137,0,0,0.08368304,47.454851,-16.691508)" />
    <g
       id="g2979"
       inkscape:label="Calque 1"
       transform="matrix(0.08362137,0,0,0.08368304,46.927109,-14.734675)" />
  </g>
</svg>
