<?xml version="1.0" encoding="UTF-8" standalone="no"?>
<!-- Created with Inkscape (http://www.inkscape.org/) -->
<svg
   xmlns:dc="http://purl.org/dc/elements/1.1/"
   xmlns:cc="http://creativecommons.org/ns#"
   xmlns:rdf="http://www.w3.org/1999/02/22-rdf-syntax-ns#"
   xmlns:svg="http://www.w3.org/2000/svg"
   xmlns="http://www.w3.org/2000/svg"
   xmlns:xlink="http://www.w3.org/1999/xlink"
   xmlns:sodipodi="http://sodipodi.sourceforge.net/DTD/sodipodi-0.dtd"
   xmlns:inkscape="http://www.inkscape.org/namespaces/inkscape"
   width="48px"
   height="48px"
   id="svg4289"
   sodipodi:version="0.32"
   inkscape:version="0.46"
   sodipodi:docbase="/home/lapo/Icone/cvs/gnome-icon-theme/scalable/categories"
   sodipodi:docname="call-start.svg"
   inkscape:output_extension="org.inkscape.output.svg.inkscape">
  <defs
     id="defs4291">
    <linearGradient
       id="linearGradient3155"
       inkscape:collect="always">
      <stop
         id="stop3157"
         offset="0"
         style="stop-color:#4d4d4d;stop-opacity:1;" />
      <stop
         id="stop3159"
         offset="1"
         style="stop-color:#4d4d4d;stop-opacity:0;" />
    </linearGradient>
    <linearGradient
       inkscape:collect="always"
       xlink:href="#linearGradient3155"
       id="linearGradient2541"
       gradientUnits="userSpaceOnUse"
       gradientTransform="matrix(0.1377049,0,0,0.1377049,-20.852458,-45.850258)"
       x1="325.71429"
       y1="369.50507"
       x2="325.71429"
       y2="546.64789" />
  </defs>
  <sodipodi:namedview
     id="base"
     pagecolor="#ffffff"
     bordercolor="#666"
     borderopacity="0.31372549"
     inkscape:pageopacity="0.0"
     inkscape:pageshadow="2"
     inkscape:zoom="1.9999999"
     inkscape:cx="37.533214"
     inkscape:cy="12.243402"
     inkscape:current-layer="layer1"
     showgrid="true"
     inkscape:grid-bbox="true"
     inkscape:document-units="px"
     inkscape:window-width="1019"
     inkscape:window-height="732"
     inkscape:window-x="259"
     inkscape:window-y="19"
     inkscape:showpageshadow="false" />
  <metadata
     id="metadata4294">
    <rdf:RDF>
      <cc:Work
         rdf:about="">
        <dc:format>image/svg+xml</dc:format>
        <dc:type
           rdf:resource="http://purl.org/dc/dcmitype/StillImage" />
        <dc:title>System Preferences</dc:title>
        <dc:creator>
          <cc:Agent>
            <dc:title>Andreas Nilsson</dc:title>
          </cc:Agent>
        </dc:creator>
        <dc:subject>
          <rdf:Bag>
            <rdf:li>category</rdf:li>
            <rdf:li>system</rdf:li>
            <rdf:li>preferences</rdf:li>
            <rdf:li>settings</rdf:li>
            <rdf:li>control center</rdf:li>
          </rdf:Bag>
        </dc:subject>
        <dc:contributor>
          <cc:Agent>
            <dc:title>Jakub Steiner</dc:title>
          </cc:Agent>
        </dc:contributor>
        <cc:license
           rdf:resource="http://creativecommons.org/licenses/GPL/2.0/" />
      </cc:Work>
      <cc:License
         rdf:about="http://creativecommons.org/licenses/GPL/2.0/">
        <cc:permits
           rdf:resource="http://web.resource.org/cc/Reproduction" />
        <cc:permits
           rdf:resource="http://web.resource.org/cc/Distribution" />
        <cc:requires
           rdf:resource="http://web.resource.org/cc/Notice" />
        <cc:permits
           rdf:resource="http://web.resource.org/cc/DerivativeWorks" />
        <cc:requires
           rdf:resource="http://web.resource.org/cc/ShareAlike" />
        <cc:requires
           rdf:resource="http://web.resource.org/cc/SourceCode" />
      </cc:License>
    </rdf:RDF>
  </metadata>
  <g
     id="layer1"
     inkscape:label="Layer 1"
     inkscape:groupmode="layer">
    <g
       id="g2453"
       inkscape:label="Calque 1"
       transform="matrix(0.1337942,0,0,0.1337942,-18.472238,-41.04701)" />
    <path
       inkscape:transform-center-y="-5.8761312"
       inkscape:transform-center-x="-0.24483585"
       id="rect2814"
       d="M 33.007486,32.089391 C 39.780086,24.321838 41.932452,14.936573 38.140065,10.466663 C 37.597373,9.2468256 36.641999,8.2084449 35.353723,7.5739575 C 35.303458,7.5492013 35.248401,7.5418572 35.197528,7.5189317 C 35.188653,7.5149328 35.183271,7.5025887 35.174382,7.4986438 C 35.103796,7.4461474 35.007429,7.4027664 34.925603,7.3624661 L 34.023072,6.8989077 C 33.298829,6.5422111 32.441435,6.8492425 32.085682,7.5754052 L 28.13576,15.618131 C 27.780006,16.344294 28.086228,17.203962 28.810469,17.560657 L 29.713001,18.024216 C 29.803532,18.068803 29.908465,18.089396 30.002247,18.11398 C 30.056802,18.14461 30.105621,18.18505 30.161355,18.2125 C 30.871635,18.56232 31.612806,18.735304 32.356691,18.785676 C 33.353541,21.464459 32.225797,25.49252 29.304201,28.843323 C 26.382604,32.194128 22.551904,33.852945 19.770964,33.220353 C 19.621468,32.489692 19.330506,31.796234 18.890856,31.13873 C 18.867453,31.103733 18.842771,31.069282 18.818508,31.034371 C 18.77853,30.922018 18.734498,30.798989 18.665079,30.695171 L 18.086297,29.860302 C 17.636959,29.188311 16.746337,28.998902 16.076125,29.44943 L 8.654374,34.448967 C 7.98416,34.899494 7.795253,35.792478 8.244588,36.464467 L 8.823371,37.299336 C 8.879539,37.383334 8.945401,37.480323 9.014357,37.548628 C 9.043815,37.596118 9.058431,37.649843 9.089617,37.696481 C 9.905638,38.916857 11.100796,39.750715 12.410784,40.116294 C 17.352305,43.201055 26.270994,39.81553 33.007486,32.089391 z"
       style="fill:#000000;fill-opacity:1;stroke:none;stroke-width:1.0000037;stroke-linecap:round;stroke-linejoin:miter;stroke-miterlimit:4;stroke-dasharray:none;stroke-dashoffset:0;stroke-opacity:1" />
    <g
       id="layer2"
       inkscape:label="troiai"
       style="display:none"
       transform="translate(47.533216,2.2565994)">
      <path
         sodipodi:type="arc"
         style="opacity:0.9;fill:#ef2929;fill-opacity:1;stroke:#a40000;stroke-width:1.21590912;stroke-linecap:round;stroke-linejoin:miter;stroke-miterlimit:4;stroke-dasharray:none;stroke-dashoffset:0;stroke-opacity:1"
         id="path2763"
         sodipodi:cx="11.3125"
         sodipodi:cy="21.4375"
         sodipodi:rx="6.6875"
         sodipodi:ry="6.6875"
         d="M 18,21.4375 A 6.6875,6.6875 0 1 1 4.625,21.4375 A 6.6875,6.6875 0 1 1 18,21.4375 z"
         transform="matrix(0.82243,0,0,0.82243,-68.30374,4.369158)" />
      <path
         sodipodi:type="arc"
         style="opacity:0.9;fill:#ef2929;fill-opacity:1;stroke:#a40000;stroke-width:1.21590912;stroke-linecap:round;stroke-linejoin:miter;stroke-miterlimit:4;stroke-dasharray:none;stroke-dashoffset:0;stroke-opacity:1"
         id="path2765"
         sodipodi:cx="11.3125"
         sodipodi:cy="21.4375"
         sodipodi:rx="6.6875"
         sodipodi:ry="6.6875"
         d="M 18,21.4375 A 6.6875,6.6875 0 1 1 4.625,21.4375 A 6.6875,6.6875 0 1 1 18,21.4375 z"
         transform="matrix(0.82243,0,0,0.82243,-42.30374,4.369158)" />
      <path
         sodipodi:type="arc"
         style="opacity:0.6;fill:#ef2929;fill-opacity:1;stroke:#a40000;stroke-width:0.87122524;stroke-linecap:round;stroke-linejoin:miter;stroke-miterlimit:4;stroke-dasharray:none;stroke-dashoffset:0;stroke-opacity:1"
         id="path2767"
         sodipodi:cx="24.1875"
         sodipodi:cy="21.375"
         sodipodi:rx="16.5625"
         sodipodi:ry="9.75"
         d="M 40.75,21.375 A 16.5625,9.75 0 1 1 7.625,21.375 A 16.5625,9.75 0 1 1 40.75,21.375 z"
         transform="matrix(1.116981,0,0,1.179487,-73.01698,-3.211538)" />
      <path
         sodipodi:type="arc"
         style="opacity:0.6;fill:#ef2929;fill-opacity:1;stroke:#a40000;stroke-width:1.62041819;stroke-linecap:round;stroke-linejoin:miter;stroke-miterlimit:4;stroke-dasharray:none;stroke-dashoffset:0;stroke-opacity:1"
         id="path2769"
         sodipodi:cx="24.1875"
         sodipodi:cy="21.375"
         sodipodi:rx="16.5625"
         sodipodi:ry="9.75"
         d="M 40.75,21.375 A 16.5625,9.75 0 1 1 7.625,21.375 A 16.5625,9.75 0 1 1 40.75,21.375 z"
         transform="matrix(0.573586,0,0,0.663968,-59.87362,7.781372)" />
      <path
         style="opacity:0.6;fill:#ef2929;fill-opacity:1;stroke:#a40000;stroke-width:1;stroke-linecap:round;stroke-linejoin:miter;stroke-miterlimit:4;stroke-dasharray:none;stroke-dashoffset:0;stroke-opacity:1"
         d="M 23.99999,70.5 C 12.959975,70.5 3.9999611,75.652001 3.999961,82 L 13.729705,82 C 13.729624,81.989472 13.729705,81.97929 13.729705,81.96875 C 13.729705,78.395274 18.330782,75.5 23.99999,75.5 C 29.6692,75.5 34.270275,78.395274 34.270275,81.96875 C 34.270275,81.97929 34.270356,81.989472 34.270275,82 L 44.00002,82 C 44.00002,75.652001 35.040006,70.5 23.99999,70.5 z"
         id="path2805" />
      <path
         sodipodi:type="arc"
         style="opacity:0.9;fill:#ef2929;fill-opacity:1;stroke:#a40000;stroke-width:1.11458337;stroke-linecap:round;stroke-linejoin:miter;stroke-miterlimit:4;stroke-dasharray:none;stroke-dashoffset:0;stroke-opacity:1"
         id="path2807"
         sodipodi:cx="11.3125"
         sodipodi:cy="21.4375"
         sodipodi:rx="6.6875"
         sodipodi:ry="6.6875"
         d="M 18,21.4375 A 6.6875,6.6875 0 1 1 4.625,21.4375 A 6.6875,6.6875 0 1 1 18,21.4375 z"
         transform="matrix(0.897196,0,0,0.897196,-0.649528,64.26636)" />
      <path
         sodipodi:type="arc"
         style="opacity:0.9;fill:#ef2929;fill-opacity:1;stroke:#a40000;stroke-width:1.11458337;stroke-linecap:round;stroke-linejoin:miter;stroke-miterlimit:4;stroke-dasharray:none;stroke-dashoffset:0;stroke-opacity:1"
         id="path2809"
         sodipodi:cx="11.3125"
         sodipodi:cy="21.4375"
         sodipodi:rx="6.6875"
         sodipodi:ry="6.6875"
         d="M 18,21.4375 A 6.6875,6.6875 0 1 1 4.625,21.4375 A 6.6875,6.6875 0 1 1 18,21.4375 z"
         transform="matrix(0.897196,0,0,0.897196,28.35047,64.26636)" />
      <path
         style="fill:#ef2929;fill-opacity:1;stroke:#a40000;stroke-width:1.00000012;stroke-linecap:round;stroke-linejoin:miter;stroke-miterlimit:4;stroke-dasharray:none;stroke-dashoffset:0;stroke-opacity:1"
         d="M 7.9557575,-22.292184 C 4.7566116,-21.434975 2.8559071,-18.142859 3.7131155,-14.943714 C 3.8005738,-14.617315 3.927024,-14.299869 4.0624901,-14.002052 L 15.472491,-17.059351 C 15.440899,-17.385001 15.391686,-17.723143 15.304227,-18.049542 C 14.447019,-21.248687 11.154903,-23.149392 7.9557575,-22.292184 z"
         id="path2840"
         inkscape:transform-center-x="0.027159543"
         inkscape:transform-center-y="-1.7187079" />
      <path
         style="fill:#ef2929;fill-opacity:1;stroke:#a40000;stroke-width:1.00000012;stroke-linecap:round;stroke-linejoin:miter;stroke-miterlimit:4;stroke-dasharray:none;stroke-dashoffset:0;stroke-opacity:1"
         d="M 40.051683,-22.294327 C 43.250828,-21.437118 45.151533,-18.145002 44.294325,-14.945857 C 44.206866,-14.619458 44.080416,-14.302012 43.94495,-14.004195 L 32.534949,-17.061494 C 32.566541,-17.387144 32.615754,-17.725286 32.703213,-18.051685 C 33.560421,-21.25083 36.852537,-23.151535 40.051683,-22.294327 z"
         id="path2842"
         inkscape:transform-center-x="0.027159543"
         inkscape:transform-center-y="-1.7187079" />
    </g>
    <path
       style="fill:url(#linearGradient2541);fill-opacity:1"
       d="M 33.187545,6.75 C 32.728271,6.8166894 32.316141,7.1086483 32.093795,7.5625 L 28.125045,15.625 C 27.769294,16.351163 28.088304,17.205805 28.812545,17.5625 L 29.718795,18.03125 C 29.80933,18.075837 29.906263,18.100416 30.000045,18.125 C 30.054596,18.155631 30.100561,18.1913 30.156295,18.21875 C 30.866576,18.56857 31.59991,18.730878 32.343795,18.78125 C 33.340647,21.460034 32.234141,25.492947 29.312545,28.84375 C 29.215176,28.955424 29.099361,29.048357 29.000045,29.15625 C 31.605352,28.875526 34.031519,28.359949 36.250045,27.6875 C 40.357039,21.04127 41.220962,14.117763 38.125045,10.46875 C 37.582351,9.2489122 36.632071,8.1969874 35.343795,7.5625 C 35.293531,7.5377439 35.238418,7.5541755 35.187545,7.53125 C 35.178673,7.5272509 35.196434,7.5039449 35.187545,7.5 C 35.116956,7.4475035 35.019371,7.4153003 34.937545,7.375 L 34.031295,6.90625 C 33.759704,6.7724888 33.463109,6.7099864 33.187545,6.75 z"
       id="path2528" />
  </g>
</svg>
