<?xml version="1.0" encoding="UTF-8" standalone="no"?>
<!-- Created with Inkscape (http://www.inkscape.org/) -->
<svg
   xmlns:dc="http://purl.org/dc/elements/1.1/"
   xmlns:cc="http://creativecommons.org/ns#"
   xmlns:rdf="http://www.w3.org/1999/02/22-rdf-syntax-ns#"
   xmlns:svg="http://www.w3.org/2000/svg"
   xmlns="http://www.w3.org/2000/svg"
   xmlns:xlink="http://www.w3.org/1999/xlink"
   xmlns:sodipodi="http://sodipodi.sourceforge.net/DTD/sodipodi-0.dtd"
   xmlns:inkscape="http://www.inkscape.org/namespaces/inkscape"
   width="48px"
   height="48px"
   id="svg4289"
   sodipodi:version="0.32"
   inkscape:version="0.46"
   sodipodi:docbase="/home/lapo/Icone/cvs/gnome-icon-theme/scalable/categories"
   sodipodi:docname="call-stop.svg"
   inkscape:output_extension="org.inkscape.output.svg.inkscape">
  <defs
     id="defs4291">
    <linearGradient
       gradientUnits="userSpaceOnUse"
       y2="546.64789"
       x2="325.71429"
       y1="369.50507"
       x1="325.71429"
       id="linearGradient3161"
       xlink:href="#linearGradient3155"
       inkscape:collect="always" />
    <linearGradient
       id="linearGradient3155"
       inkscape:collect="always">
      <stop
         id="stop3157"
         offset="0"
         style="stop-color:#4d4d4d;stop-opacity:1;" />
      <stop
         id="stop3159"
         offset="1"
         style="stop-color:#4d4d4d;stop-opacity:0;" />
    </linearGradient>
    <linearGradient
       gradientUnits="userSpaceOnUse"
       y2="38.46875"
       x2="23.382214"
       y1="21.5"
       x1="23.269001"
       id="linearGradient3285"
       xlink:href="#linearGradient3279"
       inkscape:collect="always"
       gradientTransform="translate(-47.533216,-2.2565994)" />
    <linearGradient
       id="linearGradient3279"
       inkscape:collect="always">
      <stop
         id="stop3281"
         offset="0"
         style="stop-color:#4d4d4d;stop-opacity:1;" />
      <stop
         id="stop3283"
         offset="1"
         style="stop-color:#4d4d4d;stop-opacity:0;" />
    </linearGradient>
    <linearGradient
       inkscape:collect="always"
       xlink:href="#linearGradient3279"
       id="linearGradient2526"
       gradientUnits="userSpaceOnUse"
       gradientTransform="translate(-88.898965,3.4002551)"
       x1="23.269001"
       y1="21.5"
       x2="23.382214"
       y2="38.46875" />
    <linearGradient
       inkscape:collect="always"
       xlink:href="#linearGradient3155"
       id="linearGradient2534"
       gradientUnits="userSpaceOnUse"
       x1="325.71429"
       y1="369.50507"
       x2="325.71429"
       y2="546.64789"
       gradientTransform="translate(-363.09529,0)" />
    <linearGradient
       inkscape:collect="always"
       xlink:href="#linearGradient3155"
       id="linearGradient2540"
       gradientUnits="userSpaceOnUse"
       gradientTransform="matrix(0.1377049,0,0,0.1377049,-20.852458,-45.850258)"
       x1="325.71429"
       y1="369.50507"
       x2="325.71429"
       y2="546.64789" />
    <linearGradient
       inkscape:collect="always"
       xlink:href="#linearGradient3155"
       id="linearGradient2543"
       gradientUnits="userSpaceOnUse"
       gradientTransform="matrix(0.1377049,0,0,0.1377049,-20.852458,-45.850258)"
       x1="325.71429"
       y1="369.50507"
       x2="325.71429"
       y2="546.64789" />
  </defs>
  <sodipodi:namedview
     id="base"
     pagecolor="#ffffff"
     bordercolor="#666"
     borderopacity="0.31372549"
     inkscape:pageopacity="0.0"
     inkscape:pageshadow="2"
     inkscape:zoom="5.656854"
     inkscape:cx="37.533214"
     inkscape:cy="12.243402"
     inkscape:current-layer="layer1"
     showgrid="true"
     inkscape:grid-bbox="true"
     inkscape:document-units="px"
     inkscape:window-width="1019"
     inkscape:window-height="732"
     inkscape:window-x="259"
     inkscape:window-y="19"
     inkscape:showpageshadow="false" />
  <metadata
     id="metadata4294">
    <rdf:RDF>
      <cc:Work
         rdf:about="">
        <dc:format>image/svg+xml</dc:format>
        <dc:type
           rdf:resource="http://purl.org/dc/dcmitype/StillImage" />
        <dc:title>System Preferences</dc:title>
        <dc:creator>
          <cc:Agent>
            <dc:title>Andreas Nilsson</dc:title>
          </cc:Agent>
        </dc:creator>
        <dc:subject>
          <rdf:Bag>
            <rdf:li>category</rdf:li>
            <rdf:li>system</rdf:li>
            <rdf:li>preferences</rdf:li>
            <rdf:li>settings</rdf:li>
            <rdf:li>control center</rdf:li>
          </rdf:Bag>
        </dc:subject>
        <dc:contributor>
          <cc:Agent>
            <dc:title>Jakub Steiner</dc:title>
          </cc:Agent>
        </dc:contributor>
        <cc:license
           rdf:resource="http://creativecommons.org/licenses/GPL/2.0/" />
      </cc:Work>
      <cc:License
         rdf:about="http://creativecommons.org/licenses/GPL/2.0/">
        <cc:permits
           rdf:resource="http://web.resource.org/cc/Reproduction" />
        <cc:permits
           rdf:resource="http://web.resource.org/cc/Distribution" />
        <cc:requires
           rdf:resource="http://web.resource.org/cc/Notice" />
        <cc:permits
           rdf:resource="http://web.resource.org/cc/DerivativeWorks" />
        <cc:requires
           rdf:resource="http://web.resource.org/cc/ShareAlike" />
        <cc:requires
           rdf:resource="http://web.resource.org/cc/SourceCode" />
      </cc:License>
    </rdf:RDF>
  </metadata>
  <g
     id="layer1"
     inkscape:label="Layer 1"
     inkscape:groupmode="layer">
    <g
       id="g2453"
       inkscape:label="Calque 1"
       transform="matrix(0.1337942,0,0,0.1337942,-18.472238,-41.04701)" />
    <path
       id="rect2814"
       d="M 23.99927,15.5 C 13.533968,15.5 4.925978,20.08423 4.051011,25.929546 C 3.48273,27.150551 3.329263,28.564988 3.707076,29.964787 C 3.721818,30.019404 3.753062,30.066123 3.769609,30.119989 C 3.772496,30.129384 3.766672,30.141657 3.769609,30.151029 C 3.776768,30.239478 3.808146,30.341482 3.832143,30.430392 L 4.082278,31.423682 C 4.294677,32.210622 5.103073,32.658871 5.895756,32.448012 L 14.681745,30.119989 C 15.474428,29.909129 15.92595,29.106588 15.713551,28.31965 L 15.463416,27.32636 C 15.436866,27.227993 15.38235,27.13458 15.338349,27.046998 C 15.325222,26.985228 15.323428,26.921315 15.307082,26.860755 C 15.098779,26.088988 14.734753,25.410941 14.275275,24.812095 C 15.653702,22.27891 19.484698,20.466451 23.99927,20.466451 C 28.513843,20.466451 32.344839,22.27891 33.723264,24.812095 C 33.26535,25.409999 32.930545,26.09078 32.722725,26.860755 C 32.711663,26.901741 32.701877,26.943336 32.691458,26.984917 C 32.632418,27.089772 32.567938,27.204782 32.535124,27.32636 L 32.284989,28.31965 C 32.072589,29.106591 32.524112,29.909129 33.316795,30.119989 L 42.102784,32.448012 C 42.895468,32.658873 43.703863,32.210622 43.916262,31.423682 L 44.166397,30.430392 C 44.192946,30.332024 44.222925,30.217678 44.228931,30.119989 C 44.245477,30.066123 44.276722,30.019404 44.291464,29.964787 C 44.677193,28.535656 44.513965,27.074501 43.916262,25.836425 C 42.96422,20.035645 34.408776,15.5 23.99927,15.5 z"
       style="fill:#000000;fill-opacity:1;stroke:none;stroke-width:1.0000037;stroke-linecap:round;stroke-linejoin:miter;stroke-miterlimit:4;stroke-dasharray:none;stroke-dashoffset:0;stroke-opacity:1" />
    <g
       id="layer2"
       inkscape:label="troiai"
       style="display:none"
       transform="translate(47.533216,2.2565994)">
      <path
         sodipodi:type="arc"
         style="opacity:0.9;fill:#ef2929;fill-opacity:1;stroke:#a40000;stroke-width:1.21590912;stroke-linecap:round;stroke-linejoin:miter;stroke-miterlimit:4;stroke-dasharray:none;stroke-dashoffset:0;stroke-opacity:1"
         id="path2763"
         sodipodi:cx="11.3125"
         sodipodi:cy="21.4375"
         sodipodi:rx="6.6875"
         sodipodi:ry="6.6875"
         d="M 18,21.4375 A 6.6875,6.6875 0 1 1 4.625,21.4375 A 6.6875,6.6875 0 1 1 18,21.4375 z"
         transform="matrix(0.82243,0,0,0.82243,-68.30374,4.369158)" />
      <path
         sodipodi:type="arc"
         style="opacity:0.9;fill:#ef2929;fill-opacity:1;stroke:#a40000;stroke-width:1.21590912;stroke-linecap:round;stroke-linejoin:miter;stroke-miterlimit:4;stroke-dasharray:none;stroke-dashoffset:0;stroke-opacity:1"
         id="path2765"
         sodipodi:cx="11.3125"
         sodipodi:cy="21.4375"
         sodipodi:rx="6.6875"
         sodipodi:ry="6.6875"
         d="M 18,21.4375 A 6.6875,6.6875 0 1 1 4.625,21.4375 A 6.6875,6.6875 0 1 1 18,21.4375 z"
         transform="matrix(0.82243,0,0,0.82243,-42.30374,4.369158)" />
      <path
         sodipodi:type="arc"
         style="opacity:0.6;fill:#ef2929;fill-opacity:1;stroke:#a40000;stroke-width:0.87122524;stroke-linecap:round;stroke-linejoin:miter;stroke-miterlimit:4;stroke-dasharray:none;stroke-dashoffset:0;stroke-opacity:1"
         id="path2767"
         sodipodi:cx="24.1875"
         sodipodi:cy="21.375"
         sodipodi:rx="16.5625"
         sodipodi:ry="9.75"
         d="M 40.75,21.375 A 16.5625,9.75 0 1 1 7.625,21.375 A 16.5625,9.75 0 1 1 40.75,21.375 z"
         transform="matrix(1.116981,0,0,1.179487,-73.01698,-3.211538)" />
      <path
         sodipodi:type="arc"
         style="opacity:0.6;fill:#ef2929;fill-opacity:1;stroke:#a40000;stroke-width:1.62041819;stroke-linecap:round;stroke-linejoin:miter;stroke-miterlimit:4;stroke-dasharray:none;stroke-dashoffset:0;stroke-opacity:1"
         id="path2769"
         sodipodi:cx="24.1875"
         sodipodi:cy="21.375"
         sodipodi:rx="16.5625"
         sodipodi:ry="9.75"
         d="M 40.75,21.375 A 16.5625,9.75 0 1 1 7.625,21.375 A 16.5625,9.75 0 1 1 40.75,21.375 z"
         transform="matrix(0.573586,0,0,0.663968,-59.87362,7.781372)" />
      <path
         style="opacity:0.6;fill:#ef2929;fill-opacity:1;stroke:#a40000;stroke-width:1;stroke-linecap:round;stroke-linejoin:miter;stroke-miterlimit:4;stroke-dasharray:none;stroke-dashoffset:0;stroke-opacity:1"
         d="M 23.99999,70.5 C 12.959975,70.5 3.9999611,75.652001 3.999961,82 L 13.729705,82 C 13.729624,81.989472 13.729705,81.97929 13.729705,81.96875 C 13.729705,78.395274 18.330782,75.5 23.99999,75.5 C 29.6692,75.5 34.270275,78.395274 34.270275,81.96875 C 34.270275,81.97929 34.270356,81.989472 34.270275,82 L 44.00002,82 C 44.00002,75.652001 35.040006,70.5 23.99999,70.5 z"
         id="path2805" />
      <path
         sodipodi:type="arc"
         style="opacity:0.9;fill:#ef2929;fill-opacity:1;stroke:#a40000;stroke-width:1.11458337;stroke-linecap:round;stroke-linejoin:miter;stroke-miterlimit:4;stroke-dasharray:none;stroke-dashoffset:0;stroke-opacity:1"
         id="path2807"
         sodipodi:cx="11.3125"
         sodipodi:cy="21.4375"
         sodipodi:rx="6.6875"
         sodipodi:ry="6.6875"
         d="M 18,21.4375 A 6.6875,6.6875 0 1 1 4.625,21.4375 A 6.6875,6.6875 0 1 1 18,21.4375 z"
         transform="matrix(0.897196,0,0,0.897196,-0.649528,64.26636)" />
      <path
         sodipodi:type="arc"
         style="opacity:0.9;fill:#ef2929;fill-opacity:1;stroke:#a40000;stroke-width:1.11458337;stroke-linecap:round;stroke-linejoin:miter;stroke-miterlimit:4;stroke-dasharray:none;stroke-dashoffset:0;stroke-opacity:1"
         id="path2809"
         sodipodi:cx="11.3125"
         sodipodi:cy="21.4375"
         sodipodi:rx="6.6875"
         sodipodi:ry="6.6875"
         d="M 18,21.4375 A 6.6875,6.6875 0 1 1 4.625,21.4375 A 6.6875,6.6875 0 1 1 18,21.4375 z"
         transform="matrix(0.897196,0,0,0.897196,28.35047,64.26636)" />
      <path
         style="fill:#ef2929;fill-opacity:1;stroke:#a40000;stroke-width:1.00000012;stroke-linecap:round;stroke-linejoin:miter;stroke-miterlimit:4;stroke-dasharray:none;stroke-dashoffset:0;stroke-opacity:1"
         d="M 7.9557575,-22.292184 C 4.7566116,-21.434975 2.8559071,-18.142859 3.7131155,-14.943714 C 3.8005738,-14.617315 3.927024,-14.299869 4.0624901,-14.002052 L 15.472491,-17.059351 C 15.440899,-17.385001 15.391686,-17.723143 15.304227,-18.049542 C 14.447019,-21.248687 11.154903,-23.149392 7.9557575,-22.292184 z"
         id="path2840"
         inkscape:transform-center-x="0.027159543"
         inkscape:transform-center-y="-1.7187079" />
      <path
         style="fill:#ef2929;fill-opacity:1;stroke:#a40000;stroke-width:1.00000012;stroke-linecap:round;stroke-linejoin:miter;stroke-miterlimit:4;stroke-dasharray:none;stroke-dashoffset:0;stroke-opacity:1"
         d="M 40.051683,-22.294327 C 43.250828,-21.437118 45.151533,-18.145002 44.294325,-14.945857 C 44.206866,-14.619458 44.080416,-14.302012 43.94495,-14.004195 L 32.534949,-17.061494 C 32.566541,-17.387144 32.615754,-17.725286 32.703213,-18.051685 C 33.560421,-21.25083 36.852537,-23.151535 40.051683,-22.294327 z"
         id="path2842"
         inkscape:transform-center-x="0.027159543"
         inkscape:transform-center-y="-1.7187079" />
    </g>
    <path
       style="fill:url(#linearGradient2543);fill-opacity:1"
       d="M 24,15.5 C 14.503864,15.5 6.547845,19.277555 4.5,24.34375 C 7.281684,26.312347 11.197961,27.806613 15.75,28.65625 C 15.74525,28.547978 15.74825,28.421797 15.71875,28.3125 L 15.46875,27.3125 C 15.442199,27.214132 15.387751,27.150082 15.34375,27.0625 C 15.330624,27.000731 15.328846,26.93556 15.3125,26.875 C 15.104196,26.103232 14.740728,25.411346 14.28125,24.8125 C 15.659676,22.279314 19.485428,20.46875 24,20.46875 C 28.514575,20.468749 32.340325,22.279315 33.71875,24.8125 C 33.260833,25.410403 32.92657,26.105025 32.71875,26.875 C 32.707688,26.915985 32.697919,26.958419 32.6875,27 C 32.628458,27.104855 32.564064,27.190922 32.53125,27.3125 L 32.28125,28.3125 C 32.25175,28.421797 32.25475,28.547978 32.25,28.65625 C 36.802039,27.806613 40.718316,26.312347 43.5,24.34375 C 41.465093,19.269295 33.506269,15.5 24,15.5 z"
       id="path2530" />
  </g>
</svg>
