<?xml version="1.0" encoding="UTF-8" standalone="no"?>
<!-- Created with Inkscape (http://www.inkscape.org/) -->
<svg
   xmlns:dc="http://purl.org/dc/elements/1.1/"
   xmlns:cc="http://creativecommons.org/ns#"
   xmlns:rdf="http://www.w3.org/1999/02/22-rdf-syntax-ns#"
   xmlns:svg="http://www.w3.org/2000/svg"
   xmlns="http://www.w3.org/2000/svg"
   xmlns:xlink="http://www.w3.org/1999/xlink"
   xmlns:sodipodi="http://sodipodi.sourceforge.net/DTD/sodipodi-0.dtd"
   xmlns:inkscape="http://www.inkscape.org/namespaces/inkscape"
   width="48px"
   height="48px"
   id="svg4289"
   sodipodi:version="0.32"
   inkscape:version="0.46"
   sodipodi:docbase="/home/lapo/Icone/cvs/gnome-icon-theme/scalable/categories"
   sodipodi:docname="centrejust.svg"
   inkscape:output_extension="org.inkscape.output.svg.inkscape">
  <defs
     id="defs4291">
    <linearGradient
       id="linearGradient3155"
       inkscape:collect="always">
      <stop
         id="stop3157"
         offset="0"
         style="stop-color:#4d4d4d;stop-opacity:1;" />
      <stop
         id="stop3159"
         offset="1"
         style="stop-color:#4d4d4d;stop-opacity:0;" />
    </linearGradient>
    <linearGradient
       inkscape:collect="always"
       xlink:href="#linearGradient3155"
       id="linearGradient2454"
       gradientUnits="userSpaceOnUse"
       x1="325.71429"
       y1="369.50507"
       x2="325.71429"
       y2="546.64789"
       gradientTransform="matrix(0.1377049,0,0,0.1377049,-20.852457,-45.850258)" />
    <linearGradient
       inkscape:collect="always"
       xlink:href="#linearGradient3155"
       id="linearGradient2492"
       gradientUnits="userSpaceOnUse"
       gradientTransform="matrix(0.1377049,0,0,0.1377049,29.147543,-45.850258)"
       x1="325.71429"
       y1="369.50507"
       x2="325.71429"
       y2="546.64789" />
    <linearGradient
       inkscape:collect="always"
       xlink:href="#linearGradient3155"
       id="linearGradient2497"
       gradientUnits="userSpaceOnUse"
       gradientTransform="matrix(0.1377049,0,0,0.1377049,-20.852457,-45.850258)"
       x1="325.71429"
       y1="369.50507"
       x2="325.71429"
       y2="546.64789" />
  </defs>
  <sodipodi:namedview
     id="base"
     pagecolor="#ffffff"
     bordercolor="#666"
     borderopacity="0.31372549"
     inkscape:pageopacity="0.0"
     inkscape:pageshadow="2"
     inkscape:zoom="5.656854"
     inkscape:cx="37.533214"
     inkscape:cy="11.563781"
     inkscape:current-layer="layer1"
     showgrid="true"
     inkscape:grid-bbox="true"
     inkscape:document-units="px"
     inkscape:window-width="1019"
     inkscape:window-height="732"
     inkscape:window-x="259"
     inkscape:window-y="19"
     inkscape:showpageshadow="false" />
  <metadata
     id="metadata4294">
    <rdf:RDF>
      <cc:Work
         rdf:about="">
        <dc:format>image/svg+xml</dc:format>
        <dc:type
           rdf:resource="http://purl.org/dc/dcmitype/StillImage" />
        <dc:title>System Preferences</dc:title>
        <dc:creator>
          <cc:Agent>
            <dc:title>Andreas Nilsson</dc:title>
          </cc:Agent>
        </dc:creator>
        <dc:subject>
          <rdf:Bag>
            <rdf:li>category</rdf:li>
            <rdf:li>system</rdf:li>
            <rdf:li>preferences</rdf:li>
            <rdf:li>settings</rdf:li>
            <rdf:li>control center</rdf:li>
          </rdf:Bag>
        </dc:subject>
        <dc:contributor>
          <cc:Agent>
            <dc:title>Jakub Steiner</dc:title>
          </cc:Agent>
        </dc:contributor>
        <cc:license
           rdf:resource="http://creativecommons.org/licenses/GPL/2.0/" />
      </cc:Work>
      <cc:License
         rdf:about="http://creativecommons.org/licenses/GPL/2.0/">
        <cc:permits
           rdf:resource="http://web.resource.org/cc/Reproduction" />
        <cc:permits
           rdf:resource="http://web.resource.org/cc/Distribution" />
        <cc:requires
           rdf:resource="http://web.resource.org/cc/Notice" />
        <cc:permits
           rdf:resource="http://web.resource.org/cc/DerivativeWorks" />
        <cc:requires
           rdf:resource="http://web.resource.org/cc/ShareAlike" />
        <cc:requires
           rdf:resource="http://web.resource.org/cc/SourceCode" />
      </cc:License>
    </rdf:RDF>
  </metadata>
  <g
     id="layer1"
     inkscape:label="Layer 1"
     inkscape:groupmode="layer">
    <g
       id="g2453"
       inkscape:label="Calque 1"
       transform="matrix(0.1337942,0,0,0.1337942,-18.472238,-41.04701)" />
    <g
       inkscape:label="Layer 1"
       id="g2479">
      <g
         transform="matrix(0.1337942,0,0,0.1337942,-18.472238,-41.04701)"
         inkscape:label="Calque 1"
         id="g2481" />
      <path
         id="rect4823"
         d="M 13.458823,8 C 12.203644,8 11.2,8.700393 11.2,9.557522 C 11.2,10.414649 12.203644,11.115044 13.458823,11.115044 L 34.541177,11.115044 C 35.796356,11.115044 36.8,10.414648 36.8,9.557522 C 36.8,8.700395 35.79636,8 34.541177,8 L 13.458823,8 z M 6.258823,15.221239 C 5.003643,15.221239 4,15.921632 4,16.778761 C 4,17.635888 5.003643,18.33628 6.258823,18.336283 L 41.741176,18.336283 C 42.996357,18.336283 44,17.635887 44,16.778761 C 44,15.921634 42.996359,15.221239 41.741176,15.221239 L 6.258823,15.221239 z M 10.4,22.442478 C 9.14482,22.442478 8.094117,23.142871 8.094117,24 C 8.094117,24.857127 9.14482,25.557519 10.4,25.557522 L 37.647059,25.557522 C 38.902238,25.557522 39.905882,24.857126 39.905882,24 C 39.905882,23.142873 38.902242,22.442478 37.647059,22.442478 L 10.4,22.442478 z M 8.329412,29.663717 C 7.074231,29.663717 6.070588,30.36411 6.070588,31.221239 C 6.070588,32.078366 7.074231,32.778764 8.329412,32.778761 L 39.670588,32.778761 C 40.925768,32.778761 41.929411,32.078365 41.929411,31.221239 C 41.929411,30.364112 40.925771,29.663717 39.670588,29.663717 L 8.329412,29.663717 z M 17.552941,36.884956 C 16.297761,36.884956 15.294118,37.585349 15.294118,38.442478 C 15.294118,39.299605 16.297761,40.000003 17.552941,40 L 30.447058,40 C 31.702238,40 32.705879,39.299604 32.705882,38.442478 C 32.705882,37.58535 31.702238,36.884956 30.447058,36.884956 L 17.552941,36.884956 z"
         style="fill:#000000;fill-opacity:1;fill-rule:nonzero;stroke:none;stroke-width:1;stroke-linecap:round;stroke-linejoin:miter;marker:none;stroke-miterlimit:4;stroke-dasharray:none;stroke-dashoffset:0;stroke-opacity:1;visibility:visible;display:inline;overflow:visible" />
    </g>
    <path
       style="fill:url(#linearGradient2497);fill-opacity:1"
       d="M 13.46875,8 C 12.21357,8 11.1875,8.705371 11.1875,9.5625 C 11.187499,10.419627 12.213571,11.125 13.46875,11.125 L 34.53125,11.125 C 35.78643,11.125 36.8125,10.419626 36.8125,9.5625 C 36.812497,8.7053732 35.786433,8 34.53125,8 L 13.46875,8 z M 6.25,15.21875 C 4.99482,15.21875 4,15.924121 4,16.78125 C 4,17.638377 4.99482,18.343747 6.25,18.34375 L 41.75,18.34375 C 43.005184,18.34375 44,17.638376 44,16.78125 C 44,15.924123 43.005183,15.21875 41.75,15.21875 L 6.25,15.21875 z M 10.40625,22.4375 C 9.151068,22.4375 8.09375,23.142871 8.09375,24 C 8.093751,24.857127 9.15107,25.562497 10.40625,25.5625 L 37.65625,25.5625 C 38.911431,25.5625 39.90625,24.857126 39.90625,24 C 39.906248,23.142873 38.911433,22.4375 37.65625,22.4375 L 10.40625,22.4375 z"
       id="path2484" />
    <g
       transform="matrix(0.1337942,0,0,0.1337942,31.527762,-41.04701)"
       inkscape:label="Calque 1"
       id="g2488" />
  </g>
</svg>
