<?xml version="1.0" encoding="UTF-8" standalone="no"?>
<!-- Created with Inkscape (http://www.inkscape.org/) -->

<svg
   xmlns:dc="http://purl.org/dc/elements/1.1/"
   xmlns:cc="http://creativecommons.org/ns#"
   xmlns:rdf="http://www.w3.org/1999/02/22-rdf-syntax-ns#"
   xmlns:svg="http://www.w3.org/2000/svg"
   xmlns="http://www.w3.org/2000/svg"
   xmlns:xlink="http://www.w3.org/1999/xlink"
   xmlns:sodipodi="http://sodipodi.sourceforge.net/DTD/sodipodi-0.dtd"
   xmlns:inkscape="http://www.inkscape.org/namespaces/inkscape"
   width="48px"
   height="48px"
   id="svg3784"
   version="1.1"
   inkscape:version="0.47 r22583"
   sodipodi:docname="print.svg">
  <defs
     id="defs3786">
    <linearGradient
       gradientUnits="userSpaceOnUse"
       y2="21.132059"
       x2="22.892584"
       y1="0.90414524"
       x1="22.892584"
       id="linearGradient3178"
       xlink:href="#linearGradient3172"
       inkscape:collect="always" />
    <linearGradient
       id="linearGradient3172">
      <stop
         id="stop3174"
         offset="0"
         style="stop-color:#4d4d4d;stop-opacity:1;" />
      <stop
         id="stop3176"
         offset="1"
         style="stop-color:#4d4d4d;stop-opacity:0;" />
    </linearGradient>
    <linearGradient
       inkscape:collect="always"
       xlink:href="#linearGradient3172"
       id="linearGradient3132"
       gradientUnits="userSpaceOnUse"
       x1="22.892584"
       y1="0.90414524"
       x2="22.892584"
       y2="21.132059" />
    <linearGradient
       inkscape:collect="always"
       xlink:href="#linearGradient3172"
       id="linearGradient3137"
       gradientUnits="userSpaceOnUse"
       x1="22.892584"
       y1="0.90414524"
       x2="22.892584"
       y2="21.132059"
       gradientTransform="matrix(0.644962,0,0,-1.1832362,59.235153,43.983663)" />
    <linearGradient
       inkscape:collect="always"
       xlink:href="#linearGradient3172"
       id="linearGradient3140"
       gradientUnits="userSpaceOnUse"
       gradientTransform="matrix(0.644962,0,0,1.1832362,9.235153,4.016337)"
       x1="22.892584"
       y1="0.90414524"
       x2="22.892584"
       y2="21.132059" />
  </defs>
  <sodipodi:namedview
     id="base"
     pagecolor="#ffffff"
     bordercolor="#666666"
     borderopacity="1.0"
     inkscape:pageopacity="0.0"
     inkscape:pageshadow="2"
     inkscape:zoom="4.9497475"
     inkscape:cx="20.668898"
     inkscape:cy="32.570856"
     inkscape:current-layer="layer1"
     showgrid="true"
     inkscape:grid-bbox="true"
     inkscape:document-units="px"
     inkscape:window-width="1364"
     inkscape:window-height="721"
     inkscape:window-x="0"
     inkscape:window-y="23"
     inkscape:window-maximized="1" />
  <metadata
     id="metadata3789">
    <rdf:RDF>
      <cc:Work
         rdf:about="">
        <dc:format>image/svg+xml</dc:format>
        <dc:type
           rdf:resource="http://purl.org/dc/dcmitype/StillImage" />
        <dc:title></dc:title>
      </cc:Work>
    </rdf:RDF>
  </metadata>
  <g
     id="layer1"
     inkscape:label="Layer 1"
     inkscape:groupmode="layer">
    <path
       style="fill:#000000;fill-opacity:1;fill-rule:nonzero;stroke:none;stroke-width:1.00000012;marker:none;visibility:visible;display:inline;overflow:visible"
       d="M 13.4375,7.25 C 12.63974,7.25 12,7.827046 12,8.5625 l 0,5.71875 0,5.875 -0.75,0 -3.8125,0 C 5.617236,20.15625 4,21.693618 4,23.5625 L 4,26.09375 4,37.3125 C 4,39.181382 5.617236,40.75 7.4375,40.75 l 33.125,0 C 42.382764,40.75 44,39.181382 44,37.3125 l 0,-11.21875 0,-2.53125 c 0,-1.868882 -1.617236,-3.40625 -3.4375,-3.40625 l -3.8125,0 -0.75,0 0,-5.875 0,-5.71875 C 36,7.827046 35.36026,7.25 34.5625,7.25 l -21.125,0 z M 24,18 c 4.418222,0 8,3.564782 8,7.96875 0,1.961273 -0.693881,3.767486 -1.875,5.15625 L 32,31.71875 35.75,35.1875 c 0.266794,0.24821 0.500378,1.502045 -0.25,2.25 -0.884327,0.881477 -2.008643,0.507764 -2.25,0.25 l -3.5,-3.71875 -0.5625,-1.90625 c -1.398864,1.184111 -3.210793,1.90625 -5.1875,1.90625 -4.418226,0 -8,-3.596033 -8,-8 C 16.000001,21.564782 19.581775,18 24,18 z m 0,2 c -3.313669,0 -6.03125,2.665774 -6.03125,5.96875 0,3.302976 2.717582,5.999999 6.03125,6 3.313666,-1e-6 6,-2.697024 6,-6 C 30,22.665775 27.313667,20 24,20 z"
       id="rect1314" />
    <g
       id="g2453"
       inkscape:label="Calque 1"
       transform="matrix(0.1337942,0,0,0.1337942,-65.705747,-59.675447)" />
    <path
       style="fill:url(#linearGradient3140);fill-opacity:1;stroke:none"
       d="m 24,29.65625 c -1.702059,0 -3.366598,-0.134574 -4.96875,-0.3125 -0.667453,-0.964942 -1.0625,-2.120871 -1.0625,-3.375 C 17.96875,22.665774 20.686331,20 24,20 c 3.313667,0 6,2.665775 6,5.96875 0,1.263078 -0.391972,2.437329 -1.0625,3.40625 C 27.346398,29.550357 25.689401,29.65625 24,29.65625 z M 16.59375,29 C 11.395236,28.108661 6.966186,26.323956 4,23.96875 L 4,23.5625 c 0,-1.868882 1.617236,-3.40625 3.4375,-3.40625 l 3.8125,0 0.75,0 0,-5.875 0,-5.71875 C 12,7.827046 12.63974,7.25 13.4375,7.25 l 21.125,0 C 35.36026,7.25 36,7.827046 36,8.5625 l 0,5.71875 0,5.875 0.75,0 3.8125,0 c 1.820264,0 3.4375,1.537368 3.4375,3.40625 l 0,0.40625 C 41.033814,26.323956 36.604763,28.108661 31.40625,29 31.78836,28.062192 32,27.042596 32,25.96875 32,21.564782 28.418222,18 24,18 c -4.418225,0 -7.999999,3.564782 -8,7.96875 0,1.075927 0.206214,2.092425 0.59375,3.03125 z"
       id="path3126" />
    <g
       transform="matrix(0.1337942,0,0,-0.1337942,31.527762,89.04701)"
       inkscape:label="Calque 1"
       id="g3128" />
    <g
       transform="matrix(0.1672428,0,0,-0.1672428,38.442916,104.62323)"
       inkscape:label="Calque 1"
       id="g3130" />
  </g>
</svg>
