<?xml version="1.0" encoding="UTF-8" standalone="no"?>
<!-- Created with Inkscape (http://www.inkscape.org/) -->

<svg
   xmlns:dc="http://purl.org/dc/elements/1.1/"
   xmlns:cc="http://creativecommons.org/ns#"
   xmlns:rdf="http://www.w3.org/1999/02/22-rdf-syntax-ns#"
   xmlns:svg="http://www.w3.org/2000/svg"
   xmlns="http://www.w3.org/2000/svg"
   xmlns:xlink="http://www.w3.org/1999/xlink"
   xmlns:sodipodi="http://sodipodi.sourceforge.net/DTD/sodipodi-0.dtd"
   xmlns:inkscape="http://www.inkscape.org/namespaces/inkscape"
   width="48px"
   height="48px"
   id="svg2865"
   version="1.1"
   inkscape:version="0.47 r22583"
   sodipodi:docname="Nouveau document 2">
  <defs
     id="defs2867">
    <linearGradient
       inkscape:collect="always"
       xlink:href="#linearGradient3172-3"
       id="linearGradient3117"
       gradientUnits="userSpaceOnUse"
       gradientTransform="matrix(0.644962,0,0,1.1832362,9.235153,8.016337)"
       x1="22.892584"
       y1="0.90414524"
       x2="22.892584"
       y2="21.132059" />
    <linearGradient
       id="linearGradient3172-3">
      <stop
         id="stop3174-3"
         offset="0"
         style="stop-color:#4d4d4d;stop-opacity:1;" />
      <stop
         id="stop3176-8"
         offset="1"
         style="stop-color:#4d4d4d;stop-opacity:0;" />
    </linearGradient>
  </defs>
  <sodipodi:namedview
     id="base"
     pagecolor="#ffffff"
     bordercolor="#666666"
     borderopacity="1.0"
     inkscape:pageopacity="0.0"
     inkscape:pageshadow="2"
     inkscape:zoom="7"
     inkscape:cx="24"
     inkscape:cy="24"
     inkscape:current-layer="layer1"
     showgrid="true"
     inkscape:grid-bbox="true"
     inkscape:document-units="px"
     inkscape:window-width="1364"
     inkscape:window-height="721"
     inkscape:window-x="0"
     inkscape:window-y="23"
     inkscape:window-maximized="1" />
  <metadata
     id="metadata2870">
    <rdf:RDF>
      <cc:Work
         rdf:about="">
        <dc:format>image/svg+xml</dc:format>
        <dc:type
           rdf:resource="http://purl.org/dc/dcmitype/StillImage" />
        <dc:title></dc:title>
      </cc:Work>
    </rdf:RDF>
  </metadata>
  <g
     id="layer1"
     inkscape:label="Layer 1"
     inkscape:groupmode="layer">
    <path
       style="fill:#000000;fill-opacity:1;stroke:none"
       d="M 9.5625,9 C 9.23957,9 9,9.252197 9,9.5625 l 0,32.875 c 0,0.310303 0.225071,0.53125 0.5625,0.53125 L 30.15625,43 39,34.625 39,9.5625 C 38.999998,9.238267 38.791681,9 38.46875,9 L 9.5625,9 z m 9.625,5 9.96875,0 0,8.8125 4.59375,0 L 24.15625,34 14.5,22.8125 l 4.6875,0 0,-8.8125 z"
       id="rect3565" />
    <path
       style="fill:url(#linearGradient3117);fill-opacity:1;stroke:none"
       d="M 23.84375,33.65625 C 18.221052,33.63698 13.074737,32.571045 9,30.84375 L 9,9.5625 C 9,9.252197 9.23957,9 9.5625,9 L 38.46875,9 C 38.791681,9 38.999998,9.238267 39,9.5625 l 0,21.28125 c -3.997975,1.694756 -9.031588,2.755962 -14.53125,2.8125 L 33.75,22.8125 l -4.59375,0 0,-8.8125 -9.96875,0 0,8.8125 -4.6875,0 9.34375,10.84375 z"
       id="path3103" />
  </g>
</svg>
