<?xml version="1.0" encoding="UTF-8" standalone="no"?>
<!-- Created with Inkscape (http://www.inkscape.org/) -->

<svg
   xmlns:dc="http://purl.org/dc/elements/1.1/"
   xmlns:cc="http://creativecommons.org/ns#"
   xmlns:rdf="http://www.w3.org/1999/02/22-rdf-syntax-ns#"
   xmlns:svg="http://www.w3.org/2000/svg"
   xmlns="http://www.w3.org/2000/svg"
   xmlns:xlink="http://www.w3.org/1999/xlink"
   xmlns:sodipodi="http://sodipodi.sourceforge.net/DTD/sodipodi-0.dtd"
   xmlns:inkscape="http://www.inkscape.org/namespaces/inkscape"
   width="48px"
   height="48px"
   id="svg2881"
   version="1.1"
   inkscape:version="0.47 r22583"
   sodipodi:docname="Nouveau document 2">
  <defs
     id="defs2883">
    <linearGradient
       inkscape:collect="always"
       xlink:href="#linearGradient3155"
       id="linearGradient4049"
       gradientUnits="userSpaceOnUse"
       gradientTransform="matrix(0.1377049,0,0,0.1377049,-20.852457,-45.850258)"
       x1="325.71429"
       y1="369.50507"
       x2="325.71429"
       y2="546.64789" />
    <linearGradient
       id="linearGradient3155"
       inkscape:collect="always">
      <stop
         id="stop3157"
         offset="0"
         style="stop-color:#4d4d4d;stop-opacity:1;" />
      <stop
         id="stop3159"
         offset="1"
         style="stop-color:#4d4d4d;stop-opacity:0;" />
    </linearGradient>
  </defs>
  <sodipodi:namedview
     id="base"
     pagecolor="#ffffff"
     bordercolor="#666666"
     borderopacity="1.0"
     inkscape:pageopacity="0.0"
     inkscape:pageshadow="2"
     inkscape:zoom="7"
     inkscape:cx="24"
     inkscape:cy="24"
     inkscape:current-layer="layer1"
     showgrid="true"
     inkscape:grid-bbox="true"
     inkscape:document-units="px"
     inkscape:window-width="596"
     inkscape:window-height="502"
     inkscape:window-x="0"
     inkscape:window-y="24"
     inkscape:window-maximized="0" />
  <metadata
     id="metadata2886">
    <rdf:RDF>
      <cc:Work
         rdf:about="">
        <dc:format>image/svg+xml</dc:format>
        <dc:type
           rdf:resource="http://purl.org/dc/dcmitype/StillImage" />
        <dc:title></dc:title>
      </cc:Work>
    </rdf:RDF>
  </metadata>
  <g
     id="layer1"
     inkscape:label="Layer 1"
     inkscape:groupmode="layer">
    <path
       style="fill:#000000;fill-opacity:1;fill-rule:nonzero;stroke:none"
       d="m 9.8937307,7.9697116 c -1.08068,0.117019 -1.899511,1.061325 -1.8937,2.1838844 l 0,24.090956 c -0.0014,0.579741 0.220456,1.136252 0.616554,1.546918 l 3.4350843,3.571558 c 0.397505,0.409213 0.936182,0.638364 1.497344,0.636966 l 24.177702,0 c 1.167426,-1.2e-4 2.113781,-0.977807 2.113897,-2.183883 l 0,-27.662515 C 39.840496,8.9475206 38.894141,7.9698326 37.726715,7.9697116 l -27.612786,0 c -0.07335,-0.0039 -0.1468483,-0.0039 -0.2201983,0 z m 1.9377393,3.0710874 24.177704,0 0,11.601877 -24.177704,0 0,-11.601877 z m 3.457104,15.173435 14.665164,0 c 0.949577,0 1.739561,0.79247 1.739561,1.774404 l 0,8.053069 c 0,0.981934 -0.789984,1.774404 -1.739561,1.774404 l -14.665164,0 c -0.949578,10e-7 -1.739561,-0.792471 -1.739561,-1.774404 l 0,-8.053069 c 0,-0.981934 0.789983,-1.774404 1.739561,-1.774404 z"
       id="path9" />
    <path
       style="fill:#000000;fill-opacity:1;fill-rule:nonzero;stroke:none"
       d="m 21.54222,35.02346 -4.746382,0 0,-7.362166 4.746382,0 0,7.362166 z"
       id="path15"
       sodipodi:nodetypes="ccccc" />
    <path
       style="fill:#000000;fill-rule:evenodd;stroke:#000000;stroke-width:0.99999994px;stroke-linecap:round;stroke-linejoin:miter;stroke-opacity:1;display:inline"
       d="m 15.198927,14.284453 17.62658,0"
       id="path2878"
       sodipodi:nodetypes="cc" />
    <path
       style="fill:#000000;fill-rule:evenodd;stroke:#000000;stroke-width:0.99999994px;stroke-linecap:round;stroke-linejoin:miter;stroke-opacity:1;display:inline"
       d="m 15.198927,16.889779 17.62658,0"
       id="path2880"
       sodipodi:nodetypes="cc" />
    <path
       style="fill:#000000;fill-rule:evenodd;stroke:#000000;stroke-width:0.99999994px;stroke-linecap:round;stroke-linejoin:miter;stroke-opacity:1;display:inline"
       d="m 15.198927,19.495104 17.62658,0"
       id="path2882"
       sodipodi:nodetypes="cc" />
    <path
       style="fill:url(#linearGradient4049);fill-opacity:1"
       d="m 9.9062807,7.9687506 c -1.080681,0.117019 -1.91206,1.064941 -1.90625,2.1875004 l 0,16.156249 c 1.658319,0.758114 3.5372693,1.373284 5.5624993,1.875 l 0,-0.1875 c -1e-6,-0.981934 0.76918,-1.78125 1.71875,-1.78125 l 14.6875,0 c 0.949569,1e-6 1.71875,0.799316 1.71875,1.78125 l 0,0.78125 c 3.040559,-0.52529 5.79927,-1.347226 8.15625,-2.40625 l 0,-16.218749 C 39.843669,8.9501756 38.8862,7.9688716 37.71878,7.9687506 l -27.59375,0 c -0.07335,-0.0039 -0.1453993,-0.0039 -0.2187493,0 z m 1.9374993,3.0625004 24.15625,0 0,11.624999 -24.15625,0 0,-11.624999 z m 3.25,2.75 c -0.276139,0.02589 -0.46339,0.255108 -0.4375,0.53125 0.02588,0.276142 0.25511,0.494638 0.53125,0.46875 l 17.625,0 c 0.180321,0.0025 0.3466,-0.09425 0.4375,-0.25 0.09091,-0.155749 0.0909,-0.344251 0,-0.5 -0.09089,-0.155748 -0.25718,-0.252549 -0.4375,-0.25 l -17.625,0 c -0.03118,-0.0029 -0.06257,-0.0029 -0.09375,0 z m 0.09375,2.59375 c -0.180322,-0.0025 -0.3466,0.09425 -0.4375,0.25 -0.09091,0.15575 -0.0909,0.344251 0,0.5 0.09089,0.155747 0.25718,0.252549 0.4375,0.25 l 17.625,0 c 0.180318,0.0025 0.3466,-0.09425 0.4375,-0.25 0.09091,-0.15575 0.0909,-0.344251 0,-0.5 -0.09089,-0.155747 -0.25718,-0.252549 -0.4375,-0.25 l -17.625,0 z M 15.06253,19 c -0.276142,0.03452 -0.47202,0.286358 -0.4375,0.5625 0.03452,0.276142 0.28636,0.472018 0.5625,0.4375 l 17.625,0 c 0.180318,0.0025 0.3466,-0.09425 0.4375,-0.25 0.09091,-0.15575 0.0909,-0.344251 0,-0.5 -0.09089,-0.155747 -0.25718,-0.252549 -0.4375,-0.25 l -17.625,0 c -0.0415,-0.0052 -0.0835,-0.0052 -0.125,0 z m 1.71875,8.65625 0,1.1875 c 1.521052,0.244767 3.115198,0.445483 4.75,0.53125 l 0,-1.71875 -4.75,0 z"
       id="path3943" />
  </g>
</svg>
