<?xml version="1.0" encoding="UTF-8" standalone="no"?>
<!-- Created with Inkscape (http://www.inkscape.org/) -->

<svg
   xmlns:dc="http://purl.org/dc/elements/1.1/"
   xmlns:cc="http://creativecommons.org/ns#"
   xmlns:rdf="http://www.w3.org/1999/02/22-rdf-syntax-ns#"
   xmlns:svg="http://www.w3.org/2000/svg"
   xmlns="http://www.w3.org/2000/svg"
   xmlns:xlink="http://www.w3.org/1999/xlink"
   xmlns:sodipodi="http://sodipodi.sourceforge.net/DTD/sodipodi-0.dtd"
   xmlns:inkscape="http://www.inkscape.org/namespaces/inkscape"
   width="48px"
   height="48px"
   id="svg4289"
   sodipodi:version="0.32"
   inkscape:version="0.47 r22583"
   sodipodi:docname="editpaste.svg"
   inkscape:output_extension="org.inkscape.output.svg.inkscape"
   version="1.1">
  <defs
     id="defs4291">
    <linearGradient
       id="linearGradient3155"
       inkscape:collect="always">
      <stop
         id="stop3157"
         offset="0"
         style="stop-color:#4d4d4d;stop-opacity:1;" />
      <stop
         id="stop3159"
         offset="1"
         style="stop-color:#4d4d4d;stop-opacity:0;" />
    </linearGradient>
    <linearGradient
       inkscape:collect="always"
       xlink:href="#linearGradient3155"
       id="linearGradient2710"
       gradientUnits="userSpaceOnUse"
       gradientTransform="matrix(0.1377049,0,0,0.1377049,-20.85197,-45.850258)"
       x1="325.71429"
       y1="369.50507"
       x2="325.71429"
       y2="546.64789" />
  </defs>
  <sodipodi:namedview
     id="base"
     pagecolor="#ffffff"
     bordercolor="#666"
     borderopacity="0.31372549"
     inkscape:pageopacity="0.0"
     inkscape:pageshadow="2"
     inkscape:zoom="5.656854"
     inkscape:cx="37.533214"
     inkscape:cy="19.31447"
     inkscape:current-layer="layer1"
     showgrid="true"
     inkscape:grid-bbox="true"
     inkscape:document-units="px"
     inkscape:window-width="1019"
     inkscape:window-height="721"
     inkscape:window-x="289"
     inkscape:window-y="23"
     inkscape:showpageshadow="false"
     inkscape:window-maximized="0" />
  <metadata
     id="metadata4294">
    <rdf:RDF>
      <cc:Work
         rdf:about="">
        <dc:format>image/svg+xml</dc:format>
        <dc:type
           rdf:resource="http://purl.org/dc/dcmitype/StillImage" />
        <dc:title>System Preferences</dc:title>
        <dc:creator>
          <cc:Agent>
            <dc:title>Andreas Nilsson</dc:title>
          </cc:Agent>
        </dc:creator>
        <dc:subject>
          <rdf:Bag>
            <rdf:li>category</rdf:li>
            <rdf:li>system</rdf:li>
            <rdf:li>preferences</rdf:li>
            <rdf:li>settings</rdf:li>
            <rdf:li>control center</rdf:li>
          </rdf:Bag>
        </dc:subject>
        <dc:contributor>
          <cc:Agent>
            <dc:title>Jakub Steiner</dc:title>
          </cc:Agent>
        </dc:contributor>
        <cc:license
           rdf:resource="http://creativecommons.org/licenses/GPL/2.0/" />
      </cc:Work>
      <cc:License
         rdf:about="http://creativecommons.org/licenses/GPL/2.0/">
        <cc:permits
           rdf:resource="http://web.resource.org/cc/Reproduction" />
        <cc:permits
           rdf:resource="http://web.resource.org/cc/Distribution" />
        <cc:requires
           rdf:resource="http://web.resource.org/cc/Notice" />
        <cc:permits
           rdf:resource="http://web.resource.org/cc/DerivativeWorks" />
        <cc:requires
           rdf:resource="http://web.resource.org/cc/ShareAlike" />
        <cc:requires
           rdf:resource="http://web.resource.org/cc/SourceCode" />
      </cc:License>
    </rdf:RDF>
  </metadata>
  <g
     id="layer1"
     inkscape:label="Layer 1"
     inkscape:groupmode="layer">
    <g
       id="g2453"
       inkscape:label="Calque 1"
       transform="matrix(0.1337942,0,0,0.1337942,-18.472238,-41.04701)" />
    <g
       id="g2520"
       inkscape:label="Calque 1"
       transform="matrix(0.1337942,0,0,0.1337942,40.496717,-21.158631)" />
    <path
       style="fill:#000000;fill-opacity:1;fill-rule:evenodd;stroke:none;stroke-width:1px;stroke-linecap:butt;stroke-linejoin:miter;stroke-opacity:1"
       d="m 20.62614,4.000109 c -1.0997,-0.00663 -1.428291,0.292468 -1.999258,0.457432 -0.492578,0.272154 -0.987066,0.524841 -1.485934,0.762386 -1.223818,0.420482 -2.228794,0.420482 -3.188006,0 -0.466404,-0.048157 -0.902825,-0.237473 -1.350849,-0.381193 -1.275078,-0.4443 -2.448461,0.065195 -3.4311577,1.067341 -0.192644,0.33894 -0.308697,0.819521 -0.189118,1.372297 0.118944,0.54985 0.153144,1.098907 -0.108069,1.702663 -0.241096,0.557262 -0.38255,1.20196 -0.540339,1.93138 -0.102769,0.475066 -0.297187,1.060727 -0.297187,1.93138 -0.119661,1.59347 0.054054,3.006002 0.567357,4.472669 0.261193,0.603719 0.243153,1.217662 0.243153,2.10927 0,0.722217 -0.124152,1.332615 -0.270171,2.007618 -0.180155,0.832809 -0.260168,2.240398 -0.486305,3.303676 -0.290191,4.531509 0.40154,6.438294 0.891561,10.393873 0.091485,0.422917 0.108068,1.41991 0.108068,2.185509 10e-7,0.412474 -0.00297,0.734834 0.054034,1.092754 0.057007,0.357922 0.200269,0.742584 0.459288,1.041928 0.4017977,0.464349 0.6848047,0.637459 1.2968157,0.991103 0.557673,0.322245 0.610679,0.392708 0.89156,1.041929 0.210789,0.498269 0.422986,0.972409 0.648407,1.448535 0.06443,0.209342 0.125574,0.428646 0.243154,0.635322 C 12.800722,43.774654 13.020419,44 13.304534,44 c 0.385111,10e-7 0.703159,-0.06134 0.972613,-0.228716 0.269454,-0.167374 0.461288,-0.423228 0.648407,-0.711561 0.236978,-0.365161 0.68571,-0.927459 1.026646,-1.32147 0.30795,-0.355898 0.363395,-0.813262 0.459289,-1.14358 0.81753,-1.47925 1.987658,-1.203988 3.269055,-0.584497 0.398232,0.115056 0.766102,0.0061 1.026646,-0.07624 0.581918,-0.232424 0.686424,0.02001 1.215765,0.279542 0.292426,0.160332 0.490503,1.090899 1.053663,1.219819 0.601727,0.07195 1.630238,-1.730315 2.51258,-0.482845 0.307311,0.355156 0.581884,0.852482 1.053663,1.397709 -0.0336,-0.03883 -0.005,0.02778 0.02702,0.07624 0.032,0.04846 0.08336,0.102097 0.135085,0.17789 0.103443,0.151591 0.244747,0.329953 0.405256,0.508258 0.16051,0.178306 0.334564,0.354284 0.567355,0.457432 0.23279,0.103146 0.56619,0.0847 0.81051,-0.127065 0.490433,-0.425087 0.868689,-0.898412 1.053663,-1.753489 0.08853,-0.409272 0.142523,-0.806062 0.243153,-1.092754 0.100632,-0.286694 0.246959,-0.455995 0.513323,-0.60991 0.315064,-0.182059 0.511297,-0.358278 0.675425,-0.432019 0.16413,-0.07374 0.306947,-0.09865 0.648406,0 0.0572,0.01653 0.05963,0.01573 0.10807,0.02541 0.04844,0.0097 0.08956,0.01088 0.162101,0.02541 0.145083,0.02906 0.331172,0.05911 0.513323,0.101651 0.832424,0.243671 0.779631,1.065056 0.918578,1.982206 0.09163,0.423598 0.201078,0.818468 0.459288,1.118167 0.258208,0.299701 0.628815,0.432019 1.08068,0.432019 0.407767,-10e-7 0.757462,-0.02967 1.053663,-0.228716 0.296197,-0.199042 0.504612,-0.550233 0.648408,-0.96569 0.24978,-0.721658 0.780662,-1.355551 1.161731,-2.236334 0.853803,-3.360386 1.903421,-6.493897 1.35085,-10.063505 -0.442892,-3.018559 0.305297,-4.680146 0.567355,-7.522216 0.07785,-0.844372 -0.538899,-1.894936 -0.486306,-5.36212 0.02444,-1.636402 0.671593,-3.086311 0.837528,-4.675972 C 40.071805,9.527222 38.576106,6.914977 37.565793,5.829837 36.069666,4.478537 34.726991,5.255385 32.756768,4.88956 31.082077,4.570354 29.795916,4.185146 28.298964,4.635431 26.848712,5.139836 24.934847,5.656297 24.381502,5.397818 23.760303,5.017872 21.953084,4.123239 20.62614,4.000109 z m -9.104727,3.456156 24.990717,-3e-6 c 0.279187,0 0.459287,0.193761 0.459289,0.457432 l 0,20.381139 -7.645808,6.810655 -17.804198,-0.02541 c -0.291721,0 -0.486306,-0.179678 -0.486306,-0.432019 l 0,-26.734362 c 0,-0.252342 0.207119,-0.457432 0.486306,-0.457432 z"
       id="path2458"
       sodipodi:nodetypes="ccccccsssccssccssssscssssscccsccsssssssssssssscssssccssccccccccccccccc" />
    <g
       id="g2559"
       inkscape:label="Calque 1"
       transform="matrix(0.1337942,0,0,0.1219608,41.557377,-15.405668)" />
    <g
       transform="matrix(0.1337942,0,0,0.1337942,90.496717,-21.158631)"
       inkscape:label="Calque 1"
       id="g2567" />
    <g
       id="g2660"
       inkscape:label="Calque 1"
       transform="matrix(0.1337942,0,0,0.1337942,-62.568229,-28.936858)" />
    <g
       id="g2747"
       inkscape:label="Calque 1"
       transform="matrix(0.1337942,0,0,-0.1337942,-108.74923,99.47873)" />
    <g
       id="layer6"
       inkscape:label="Shadow"
       transform="matrix(0.8919798,0,0,-0.9061103,-87.712495,56.263315)" />
    <g
       style="fill:#ffff00"
       inkscape:label="Shadow"
       id="g3265"
       transform="matrix(1.6089338,0,0,-1.5598695,-98.919789,28.375126)" />
    <g
       id="g3267"
       inkscape:label="Base"
       style="fill:#ffff00;display:inline"
       transform="matrix(1.6089338,0,0,-1.5598695,-98.919789,28.375126)" />
    <g
       transform="matrix(0.8919798,0,0,-0.9061103,-48.824281,67.669078)"
       inkscape:label="Shadow"
       id="g3953" />
    <g
       transform="matrix(1.716196,0,0,-1.7433835,-101.86749,29.368926)"
       id="g3959"
       inkscape:label="Shadow" />
    <g
       transform="matrix(1.716196,0,0,-1.7433835,-101.86749,29.368926)"
       style="display:inline"
       inkscape:label="Base"
       id="g3961" />
    <g
       transform="matrix(0.8919798,0,0,-0.9061103,-58.245144,80.34198)"
       id="g2721"
       inkscape:label="Base"
       style="display:inline" />
    <g
       transform="matrix(0.8919798,0,0,-0.9061103,31.055427,53.274181)"
       id="g2796"
       inkscape:label="Base"
       style="display:inline" />
    <g
       transform="matrix(1.6089338,0,0,-1.5598695,-86.100791,19.696696)"
       id="g2553"
       inkscape:label="Shadow" />
    <g
       transform="matrix(1.6089338,0,0,-1.5598695,-86.100791,19.696696)"
       style="display:inline"
       inkscape:label="Base"
       id="g2555" />
    <g
       transform="matrix(1.6089338,0,0,-1.5598695,-86.142411,19.696696)"
       id="g2490"
       inkscape:label="Shadow" />
    <g
       transform="matrix(1.6089338,0,0,-1.5598695,-86.142411,19.696696)"
       style="display:inline"
       inkscape:label="Base"
       id="g2492" />
    <g
       transform="matrix(0.1337942,0,0,-0.1337942,-58.749231,99.38523)"
       inkscape:label="Calque 1"
       id="g2501" />
    <g
       id="g2521"
       inkscape:label="Calque 1"
       transform="matrix(0.1337942,0,0,-0.1337942,-8.749231,99.38523)" />
    <g
       id="g2536"
       inkscape:label="Calque 1"
       transform="matrix(0.1337942,0,0,-0.1337942,41.250767,99.38523)" />
    <path
       style="fill:url(#linearGradient2710);fill-opacity:1"
       d="M 20.625487,4 C 19.52579,3.9933708 19.196454,4.303786 18.625487,4.46875 C 18.132907,4.740904 17.655605,4.981205 17.156737,5.21875 C 15.932922,5.6392322 14.897199,5.639232 13.937987,5.21875 C 13.471583,5.1705932 13.042261,4.98747 12.594237,4.84375 C 11.319159,4.3994499 10.139434,4.904104 9.1567367,5.90625 C 8.9640907,6.24519 8.8496577,6.728474 8.9692367,7.28125 C 9.0881827,7.8311002 9.1366997,8.364994 8.8754867,8.96875 C 8.6343897,9.5260118 8.5020257,10.17683 8.3442367,10.90625 C 8.2414687,11.381316 8.0317367,11.973097 8.0317367,12.84375 C 7.9120767,14.43722 8.0809337,15.845833 8.5942367,17.3125 C 8.8554287,17.91622 8.8442367,18.545892 8.8442367,19.4375 C 8.8442357,20.159717 8.7090057,20.762497 8.5629867,21.4375 C 8.3828317,22.270309 8.3203737,23.686722 8.0942367,24.75 C 8.0579627,25.316439 8.0396377,25.818956 8.0317367,26.3125 C 8.9723057,26.741236 9.9667677,27.118851 11.031737,27.46875 L 11.031737,7.90625 C 11.031737,7.6539081 11.25255,7.46875 11.531737,7.46875 L 36.500487,7.46875 C 36.779673,7.4687499 36.969235,7.642579 36.969237,7.90625 L 36.969237,27.46875 C 37.66912,27.238801 38.353008,27.014678 39.000487,26.75 C 39.136699,25.289059 39.494107,23.9825 39.656737,22.21875 C 39.734589,21.374379 39.104144,20.310934 39.156737,16.84375 C 39.181172,15.207348 39.834552,13.777161 40.000487,12.1875 C 40.07497,9.5316623 38.5733,6.92889 37.562987,5.84375 C 36.066857,4.4924502 34.72071,5.240825 32.750487,4.875 C 31.075797,4.5557938 29.809939,4.174715 28.312987,4.625 C 26.862734,5.1294052 24.928832,5.664729 24.375487,5.40625 C 23.75429,5.0263039 21.952431,4.12313 20.625487,4 z M 29.750487,28.875 C 29.620143,28.877855 29.505779,28.961834 29.437987,29.0625 C 29.429805,29.074649 29.41338,29.081651 29.406737,29.09375 C 29.896956,29.035876 30.397253,28.979191 30.875487,28.90625 C 30.493481,28.894542 30.056273,28.875 29.750487,28.875 z"
       id="path2703" />
  </g>
</svg>
