<?xml version="1.0" encoding="UTF-8" standalone="no"?>
<!-- Created with Inkscape (http://www.inkscape.org/) -->
<svg
   xmlns:dc="http://purl.org/dc/elements/1.1/"
   xmlns:cc="http://creativecommons.org/ns#"
   xmlns:rdf="http://www.w3.org/1999/02/22-rdf-syntax-ns#"
   xmlns:svg="http://www.w3.org/2000/svg"
   xmlns="http://www.w3.org/2000/svg"
   xmlns:xlink="http://www.w3.org/1999/xlink"
   xmlns:sodipodi="http://sodipodi.sourceforge.net/DTD/sodipodi-0.dtd"
   xmlns:inkscape="http://www.inkscape.org/namespaces/inkscape"
   width="48px"
   height="48px"
   id="svg4289"
   sodipodi:version="0.32"
   inkscape:version="0.46"
   sodipodi:docbase="/home/lapo/Icone/cvs/gnome-icon-theme/scalable/categories"
   sodipodi:docname="user-trash.svg"
   inkscape:output_extension="org.inkscape.output.svg.inkscape">
  <defs
     id="defs4291">
    <linearGradient
       id="linearGradient3155"
       inkscape:collect="always">
      <stop
         id="stop3157"
         offset="0"
         style="stop-color:#4d4d4d;stop-opacity:1;" />
      <stop
         id="stop3159"
         offset="1"
         style="stop-color:#4d4d4d;stop-opacity:0;" />
    </linearGradient>
    <linearGradient
       inkscape:collect="always"
       xlink:href="#linearGradient3155"
       id="linearGradient2514"
       gradientUnits="userSpaceOnUse"
       gradientTransform="matrix(0.1721311,0,0,0.1721311,-32.065572,-63.312822)"
       x1="325.71429"
       y1="369.50507"
       x2="325.71429"
       y2="546.64789" />
    <linearGradient
       inkscape:collect="always"
       xlink:href="#linearGradient3155"
       id="linearGradient2516"
       gradientUnits="userSpaceOnUse"
       gradientTransform="matrix(0.1721311,0,0,0.1721311,-32.065572,-63.312822)"
       x1="325.71429"
       y1="369.50507"
       x2="325.71429"
       y2="546.64789" />
  </defs>
  <sodipodi:namedview
     id="base"
     pagecolor="#ffffff"
     bordercolor="#666"
     borderopacity="0.31372549"
     inkscape:pageopacity="0.0"
     inkscape:pageshadow="2"
     inkscape:zoom="5.656854"
     inkscape:cx="75.963489"
     inkscape:cy="12.243402"
     inkscape:current-layer="layer1"
     showgrid="true"
     inkscape:grid-bbox="true"
     inkscape:document-units="px"
     inkscape:window-width="1019"
     inkscape:window-height="732"
     inkscape:window-x="259"
     inkscape:window-y="19"
     inkscape:showpageshadow="false"
     showguides="true"
     inkscape:guide-bbox="true" />
  <metadata
     id="metadata4294">
    <rdf:RDF>
      <cc:Work
         rdf:about="">
        <dc:format>image/svg+xml</dc:format>
        <dc:type
           rdf:resource="http://purl.org/dc/dcmitype/StillImage" />
        <dc:title>System Preferences</dc:title>
        <dc:creator>
          <cc:Agent>
            <dc:title>Andreas Nilsson</dc:title>
          </cc:Agent>
        </dc:creator>
        <dc:subject>
          <rdf:Bag>
            <rdf:li>category</rdf:li>
            <rdf:li>system</rdf:li>
            <rdf:li>preferences</rdf:li>
            <rdf:li>settings</rdf:li>
            <rdf:li>control center</rdf:li>
          </rdf:Bag>
        </dc:subject>
        <dc:contributor>
          <cc:Agent>
            <dc:title>Jakub Steiner</dc:title>
          </cc:Agent>
        </dc:contributor>
        <cc:license
           rdf:resource="http://creativecommons.org/licenses/GPL/2.0/" />
      </cc:Work>
      <cc:License
         rdf:about="http://creativecommons.org/licenses/GPL/2.0/">
        <cc:permits
           rdf:resource="http://web.resource.org/cc/Reproduction" />
        <cc:permits
           rdf:resource="http://web.resource.org/cc/Distribution" />
        <cc:requires
           rdf:resource="http://web.resource.org/cc/Notice" />
        <cc:permits
           rdf:resource="http://web.resource.org/cc/DerivativeWorks" />
        <cc:requires
           rdf:resource="http://web.resource.org/cc/ShareAlike" />
        <cc:requires
           rdf:resource="http://web.resource.org/cc/SourceCode" />
      </cc:License>
    </rdf:RDF>
  </metadata>
  <g
     id="layer1"
     inkscape:label="Layer 1"
     inkscape:groupmode="layer">
    <g
       id="g2453"
       inkscape:label="Calque 1"
       transform="matrix(0.1337942,0,0,0.1337942,-18.472238,-41.04701)" />
    <path
       style="fill:#000000;stroke:none;stroke-width:1.05220854px;stroke-linecap:butt;stroke-linejoin:miter;stroke-opacity:1"
       d="M 8.059274,12.832186 L 10.210727,39.037174 C 10.210726,40.975199 11.59785,43.623645 14.26419,44 L 33.783174,44 C 36.449515,43.623645 37.836627,40.975199 37.836636,39.037174 L 39.98809,12.863796 L 8.059274,12.832186 z M 23.805419,17.826623 L 24.241945,17.826623 C 25.190934,17.826623 25.956872,19.05856 25.956871,20.608334 L 25.956871,38.341746 C 25.956872,39.891519 25.190934,41.123457 24.241945,41.123457 L 23.805419,41.123457 C 22.856431,41.123457 22.090492,39.891519 22.090491,38.341746 L 22.090491,20.608334 C 22.090491,19.058561 22.856432,17.826623 23.805419,17.826623 z M 13.983566,17.889844 C 14.927236,17.788143 15.817517,18.972413 15.979116,20.513503 L 17.818765,38.120474 C 17.980362,39.661561 17.359315,40.958536 16.415644,41.060236 L 15.979116,41.123457 C 15.035445,41.225156 14.145165,40.072499 13.983566,38.531408 L 12.143917,20.924438 C 11.982319,19.383349 12.603369,18.054764 13.547039,17.953064 L 13.983566,17.889844 z M 34.063797,17.889844 L 34.500325,17.953064 C 35.443994,18.054764 36.065041,19.383349 35.903446,20.924438 L 34.063797,38.531408 C 33.9022,40.072497 33.011917,41.22516 32.068246,41.123457 L 31.63172,41.060236 C 30.688051,40.958536 30.067004,39.661565 30.228597,38.120474 L 32.068246,20.513503 C 32.229845,18.972414 33.120127,17.788144 34.063797,17.889844 z"
       id="path3367" />
    <path
       style="fill:#000000;fill-opacity:1;stroke:none;stroke-width:1.31599998;stroke-miterlimit:4;stroke-opacity:1"
       d="M 21.598136,4.0136018 C 20.538319,4.0136016 19.716865,4.8612625 19.716865,5.9208088 L 19.716865,7.0249813 C 19.716865,7.1095638 19.737925,7.186165 19.74987,7.2592 L 9.419385,7.2592 C 7.801247,7.2592013 6.514966,8.0811275 6.514966,9.0994875 L 6.514966,9.5679238 C 6.514966,10.586284 7.801249,11.408211 9.419385,11.408211 L 38.595581,11.408211 C 40.213716,11.408213 41.499999,10.586284 41.499999,9.5679238 L 41.499999,9.0994875 C 41.499999,8.0811275 40.213717,7.2592013 38.595581,7.2592 L 28.2981,7.2592 C 28.31004,7.185795 28.331105,7.1083663 28.331105,7.0249813 L 28.331105,5.9208088 C 28.331105,4.8612627 27.476649,4.0136018 26.416829,4.0136018 L 21.598136,4.0136018 z"
       id="rect2518" />
    <path
       style="fill:url(#linearGradient2514);fill-opacity:1"
       d="M 21.617187,4 C 20.557375,3.9999999 19.703125,4.8545162 19.703125,5.9140625 L 19.703125,7.0078125 C 19.703125,7.092395 19.730237,7.1691525 19.742187,7.2421875 L 9.429687,7.2421875 C 7.81155,7.2421888 6.5,8.0988275 6.5,9.1171875 L 6.5,9.5859375 C 6.5,10.604298 7.81155,11.421875 9.429687,11.421875 L 38.609375,11.421875 C 40.2275,11.421876 41.5,10.604298 41.5,9.5859375 L 41.5,9.1171875 C 41.5,8.0988275 40.2275,7.2421888 38.609375,7.2421875 L 28.296875,7.2421875 C 28.308812,7.1687825 28.335937,7.0911975 28.335937,7.0078125 L 28.335937,5.9140625 C 28.335937,4.8545168 27.4817,4 26.421875,4 L 21.617187,4 z"
       id="path2491" />
    <path
       style="fill:url(#linearGradient2516);fill-opacity:1"
       d="M 8.0625,12.828125 L 9.390625,28.804688 C 10.568367,29.139756 11.79374,29.449926 13.0625,29.703125 L 12.125,20.914063 C 11.963397,19.372973 12.58758,18.047013 13.53125,17.945313 L 14,17.90625 C 14.943667,17.804548 15.830589,18.982348 15.992187,20.523438 L 17.007812,30.367188 C 18.64773,30.566604 20.354036,30.701689 22.085937,30.757812 L 22.085937,20.601563 C 22.085942,19.05179 22.855701,17.828125 23.804687,17.828125 L 24.234375,17.828125 C 25.183361,17.828125 25.953126,19.051789 25.953125,20.601563 L 25.953125,30.757812 C 27.685071,30.70054 29.391547,30.567761 31.03125,30.367188 L 32.085937,20.523438 C 32.247536,18.982349 33.134455,17.80455 34.078125,17.90625 L 34.507812,17.945313 C 35.45148,18.047013 36.075657,19.372974 35.914062,20.914063 L 35.015625,29.703125 C 36.271206,29.450581 37.482426,29.137516 38.648437,28.804688 L 39.976562,12.867188 L 8.0625,12.828125 z"
       id="path2504" />
  </g>
</svg>
