<?xml version="1.0" encoding="UTF-8" standalone="no"?>
<!-- Created with Inkscape (http://www.inkscape.org/) -->

<svg
   xmlns:dc="http://purl.org/dc/elements/1.1/"
   xmlns:cc="http://creativecommons.org/ns#"
   xmlns:rdf="http://www.w3.org/1999/02/22-rdf-syntax-ns#"
   xmlns:svg="http://www.w3.org/2000/svg"
   xmlns="http://www.w3.org/2000/svg"
   xmlns:xlink="http://www.w3.org/1999/xlink"
   xmlns:sodipodi="http://sodipodi.sourceforge.net/DTD/sodipodi-0.dtd"
   xmlns:inkscape="http://www.inkscape.org/namespaces/inkscape"
   width="48px"
   height="48px"
   id="svg4289"
   sodipodi:version="0.32"
   inkscape:version="0.47 r22583"
   sodipodi:docname="document-new.svg"
   inkscape:output_extension="org.inkscape.output.svg.inkscape"
   version="1.1">
  <defs
     id="defs4291">
    <linearGradient
       id="linearGradient3155"
       inkscape:collect="always">
      <stop
         id="stop3157"
         offset="0"
         style="stop-color:#4d4d4d;stop-opacity:1;" />
      <stop
         id="stop3159"
         offset="1"
         style="stop-color:#4d4d4d;stop-opacity:0;" />
    </linearGradient>
    <linearGradient
       inkscape:collect="always"
       xlink:href="#linearGradient3155"
       id="linearGradient3583"
       gradientUnits="userSpaceOnUse"
       gradientTransform="matrix(0.1377049,0,0,0.1377049,-20.852457,-45.850258)"
       x1="325.71429"
       y1="369.50507"
       x2="325.71429"
       y2="546.64789" />
  </defs>
  <sodipodi:namedview
     id="base"
     pagecolor="#ffffff"
     bordercolor="#666"
     borderopacity="0.31372549"
     inkscape:pageopacity="0.0"
     inkscape:pageshadow="2"
     inkscape:zoom="5.656854"
     inkscape:cx="21.733253"
     inkscape:cy="18.480644"
     inkscape:current-layer="layer1"
     showgrid="true"
     inkscape:grid-bbox="true"
     inkscape:document-units="px"
     inkscape:window-width="1019"
     inkscape:window-height="721"
     inkscape:window-x="259"
     inkscape:window-y="23"
     inkscape:showpageshadow="false"
     showguides="true"
     inkscape:guide-bbox="true"
     inkscape:window-maximized="0" />
  <metadata
     id="metadata4294">
    <rdf:RDF>
      <cc:Work
         rdf:about="">
        <dc:format>image/svg+xml</dc:format>
        <dc:type
           rdf:resource="http://purl.org/dc/dcmitype/StillImage" />
        <dc:title>System Preferences</dc:title>
        <dc:creator>
          <cc:Agent>
            <dc:title>Andreas Nilsson</dc:title>
          </cc:Agent>
        </dc:creator>
        <dc:subject>
          <rdf:Bag>
            <rdf:li>category</rdf:li>
            <rdf:li>system</rdf:li>
            <rdf:li>preferences</rdf:li>
            <rdf:li>settings</rdf:li>
            <rdf:li>control center</rdf:li>
          </rdf:Bag>
        </dc:subject>
        <dc:contributor>
          <cc:Agent>
            <dc:title>Jakub Steiner</dc:title>
          </cc:Agent>
        </dc:contributor>
        <cc:license
           rdf:resource="http://creativecommons.org/licenses/GPL/2.0/" />
      </cc:Work>
      <cc:License
         rdf:about="http://creativecommons.org/licenses/GPL/2.0/">
        <cc:permits
           rdf:resource="http://web.resource.org/cc/Reproduction" />
        <cc:permits
           rdf:resource="http://web.resource.org/cc/Distribution" />
        <cc:requires
           rdf:resource="http://web.resource.org/cc/Notice" />
        <cc:permits
           rdf:resource="http://web.resource.org/cc/DerivativeWorks" />
        <cc:requires
           rdf:resource="http://web.resource.org/cc/ShareAlike" />
        <cc:requires
           rdf:resource="http://web.resource.org/cc/SourceCode" />
      </cc:License>
    </rdf:RDF>
  </metadata>
  <g
     id="layer1"
     inkscape:label="Layer 1"
     inkscape:groupmode="layer">
    <path
       style="opacity:1;fill:#000000;fill-opacity:1;stroke:none;stroke-opacity:1"
       d="M 9.5625,7 C 9.23957,7 9,7.252197 9,7.5625 l 0,32.875 c 0,0.310303 0.2250709,0.53125 0.5625,0.53125 6.868588,-0.0274 13.779608,0.08821 20.625,0 L 39,32.625 39,7.5625 C 38.999998,7.238266 38.791681,7 38.46875,7 L 9.5625,7 z M 24,15 c 0.961357,6.86e-4 1.750686,0.788484 1.75,1.75 l 0,5.5 5.5,0 c 0.626629,-0.0084 1.186502,0.332277 1.5,0.875 0.313504,0.542726 0.32025,1.211231 0,1.75 -0.320248,0.538769 -0.904772,0.859939 -1.53125,0.84375 l -5.5,0 0,5.5 c 0.01144,0.713058 -0.402629,1.386042 -1.0625,1.65625 -0.164966,0.06755 -0.328191,0.111582 -0.5,0.125 -0.515427,0.04026 -1.037381,-0.175243 -1.40625,-0.5625 -0.306902,-0.332671 -0.481917,-0.766296 -0.46875,-1.21875 l 0,-5.5 -5.5,0 c -0.470973,0.01255 -0.914599,-0.169069 -1.25,-0.5 C 15.027232,24.721585 14.850769,23.965236 15.125,23.3125 15.399231,22.659764 16.042201,22.237884 16.75,22.25 l 5.53125,0 0,-5.5 C 22.281938,15.788484 23.03864,14.999313 24,15 z"
       id="rect3565"
       sodipodi:nodetypes="cccccccccccccsscccssscccsscccc" />
    <g
       id="g2453"
       inkscape:label="Calque 1"
       transform="matrix(0.1337942,0,0,0.1337942,-18.472238,-41.04701)" />
    <g
       id="g2747"
       inkscape:label="Calque 1"
       transform="matrix(0.1337942,0,0,-0.1337942,-64.65324,87.368578)" />
    <g
       id="layer6"
       inkscape:label="Shadow"
       transform="matrix(0.8919798,0,0,-0.9061103,-43.616504,44.153163)" />
    <g
       style="fill:#ffff00"
       inkscape:label="Shadow"
       id="g3265"
       transform="matrix(1.6089338,0,0,-1.5598695,-54.823798,16.264974)" />
    <g
       id="g3267"
       inkscape:label="Base"
       style="fill:#ffff00;display:inline"
       transform="matrix(1.6089338,0,0,-1.5598695,-54.823798,16.264974)" />
    <g
       transform="matrix(0.8919798,0,0,-0.9061103,-4.72829,55.558926)"
       inkscape:label="Shadow"
       id="g3953" />
    <g
       transform="matrix(1.716196,0,0,-1.7433835,-57.771504,17.258774)"
       id="g3959"
       inkscape:label="Shadow" />
    <g
       transform="matrix(1.716196,0,0,-1.7433835,-57.771504,17.258774)"
       style="display:inline"
       inkscape:label="Base"
       id="g3961" />
    <g
       transform="matrix(0.8919798,0,0,-0.9061103,-14.149153,68.231828)"
       id="g2721"
       inkscape:label="Base"
       style="display:inline" />
    <g
       transform="matrix(0.8919798,0,0,-0.9061103,75.151418,41.164029)"
       id="g2796"
       inkscape:label="Base"
       style="display:inline" />
    <g
       transform="matrix(1.6089338,0,0,-1.5598695,-42.0048,7.586544)"
       id="g2553"
       inkscape:label="Shadow" />
    <g
       transform="matrix(1.6089338,0,0,-1.5598695,-42.0048,7.586544)"
       style="display:inline"
       inkscape:label="Base"
       id="g2555" />
    <g
       transform="matrix(1.6089338,0,0,-1.5598695,-42.04642,7.586544)"
       id="g2490"
       inkscape:label="Shadow" />
    <g
       transform="matrix(1.6089338,0,0,-1.5598695,-42.04642,7.586544)"
       style="display:inline"
       inkscape:label="Base"
       id="g2492" />
    <g
       transform="matrix(0.1337942,0,0,-0.1337942,-14.65324,87.275078)"
       inkscape:label="Calque 1"
       id="g2501" />
    <g
       id="g2521"
       inkscape:label="Calque 1"
       transform="matrix(0.1337942,0,0,-0.1337942,35.34676,87.275078)" />
    <g
       id="g2536"
       inkscape:label="Calque 1"
       transform="matrix(0.1337942,0,0,-0.1337942,85.346758,87.275078)" />
    <path
       style="fill:url(#linearGradient3583);fill-opacity:1"
       d="M 9.5625,7 C 9.23957,7 9,7.252197 9,7.5625 L 9,26.75 C 12.687857,28.25753 17.279832,29.223861 22.28125,29.40625 L 22.28125,25.71875 L 16.78125,25.71875 C 16.310277,25.731303 15.866651,25.549681 15.53125,25.21875 C 15.027232,24.721585 14.850769,23.965236 15.125,23.3125 C 15.399231,22.659764 16.042201,22.237884 16.75,22.25 L 22.28125,22.25 L 22.28125,16.75 C 22.281938,15.788484 23.03864,14.999313 24,15 C 24.961357,15.000686 25.750686,15.788484 25.75,16.75 L 25.75,22.25 L 31.25,22.25 C 31.876629,22.241628 32.436502,22.582277 32.75,23.125 C 33.063504,23.667726 33.07025,24.336231 32.75,24.875 C 32.429752,25.413769 31.845228,25.734939 31.21875,25.71875 L 25.71875,25.71875 L 25.71875,29.40625 C 30.720167,29.223861 35.312143,28.25753 39,26.75 L 39,7.5625 C 38.999998,7.238266 38.791681,7 38.46875,7 L 9.5625,7 z"
       id="path3575" />
  </g>
</svg>
