<?xml version="1.0" encoding="UTF-8" standalone="no"?>
<!-- Created with Inkscape (http://www.inkscape.org/) -->
<svg
   xmlns:dc="http://purl.org/dc/elements/1.1/"
   xmlns:cc="http://creativecommons.org/ns#"
   xmlns:rdf="http://www.w3.org/1999/02/22-rdf-syntax-ns#"
   xmlns:svg="http://www.w3.org/2000/svg"
   xmlns="http://www.w3.org/2000/svg"
   xmlns:xlink="http://www.w3.org/1999/xlink"
   xmlns:sodipodi="http://sodipodi.sourceforge.net/DTD/sodipodi-0.dtd"
   xmlns:inkscape="http://www.inkscape.org/namespaces/inkscape"
   width="48px"
   height="48px"
   id="svg4289"
   sodipodi:version="0.32"
   inkscape:version="0.46"
   sodipodi:docbase="/home/lapo/Icone/cvs/gnome-icon-theme/scalable/categories"
   sodipodi:docname="folder_new.svg"
   inkscape:output_extension="org.inkscape.output.svg.inkscape">
  <defs
     id="defs4291">
    <linearGradient
       id="linearGradient3155"
       inkscape:collect="always">
      <stop
         id="stop3157"
         offset="0"
         style="stop-color:#4d4d4d;stop-opacity:1;" />
      <stop
         id="stop3159"
         offset="1"
         style="stop-color:#4d4d4d;stop-opacity:0;" />
    </linearGradient>
    <linearGradient
       inkscape:collect="always"
       xlink:href="#linearGradient3155"
       id="linearGradient2454"
       gradientUnits="userSpaceOnUse"
       x1="325.71429"
       y1="369.50507"
       x2="325.71429"
       y2="546.64789"
       gradientTransform="matrix(0.1377049,0,0,0.1377049,-20.852457,-45.850258)" />
    <linearGradient
       y2="546.64789"
       x2="325.71429"
       y1="369.50507"
       x1="325.71429"
       gradientTransform="matrix(0.1377043,0,0,0.1378059,-20.852824,-45.913204)"
       gradientUnits="userSpaceOnUse"
       id="linearGradient2603"
       xlink:href="#linearGradient3155"
       inkscape:collect="always" />
    <linearGradient
       inkscape:collect="always"
       xlink:href="#linearGradient3155"
       id="linearGradient2641"
       gradientUnits="userSpaceOnUse"
       gradientTransform="matrix(0.1377043,0,0,0.1378059,-7.31961,-41.227674)"
       x1="325.71429"
       y1="369.50507"
       x2="325.71429"
       y2="546.64789" />
    <linearGradient
       inkscape:collect="always"
       xlink:href="#linearGradient3155"
       id="linearGradient2660"
       gradientUnits="userSpaceOnUse"
       gradientTransform="matrix(0.1377049,0,0,0.1377049,29.147543,-45.850258)"
       x1="325.71429"
       y1="369.50507"
       x2="325.71429"
       y2="546.64789" />
    <linearGradient
       inkscape:collect="always"
       xlink:href="#linearGradient3155"
       id="linearGradient2663"
       gradientUnits="userSpaceOnUse"
       gradientTransform="matrix(0.1377049,0,0,0.1377049,29.147543,-45.850258)"
       x1="325.71429"
       y1="369.50507"
       x2="325.71429"
       y2="546.64789" />
    <linearGradient
       inkscape:collect="always"
       xlink:href="#linearGradient3155"
       id="linearGradient2666"
       gradientUnits="userSpaceOnUse"
       gradientTransform="matrix(0.1377049,0,0,0.1377049,-20.852457,-45.850258)"
       x1="325.71429"
       y1="369.50507"
       x2="325.71429"
       y2="546.64789" />
  </defs>
  <sodipodi:namedview
     id="base"
     pagecolor="#ffffff"
     bordercolor="#666"
     borderopacity="0.31372549"
     inkscape:pageopacity="0.0"
     inkscape:pageshadow="2"
     inkscape:zoom="5.656854"
     inkscape:cx="39.671403"
     inkscape:cy="19.31447"
     inkscape:current-layer="layer1"
     showgrid="true"
     inkscape:grid-bbox="true"
     inkscape:document-units="px"
     inkscape:window-width="1019"
     inkscape:window-height="732"
     inkscape:window-x="259"
     inkscape:window-y="24"
     inkscape:showpageshadow="false" />
  <metadata
     id="metadata4294">
    <rdf:RDF>
      <cc:Work
         rdf:about="">
        <dc:format>image/svg+xml</dc:format>
        <dc:type
           rdf:resource="http://purl.org/dc/dcmitype/StillImage" />
        <dc:title>System Preferences</dc:title>
        <dc:creator>
          <cc:Agent>
            <dc:title>Andreas Nilsson</dc:title>
          </cc:Agent>
        </dc:creator>
        <dc:subject>
          <rdf:Bag>
            <rdf:li>category</rdf:li>
            <rdf:li>system</rdf:li>
            <rdf:li>preferences</rdf:li>
            <rdf:li>settings</rdf:li>
            <rdf:li>control center</rdf:li>
          </rdf:Bag>
        </dc:subject>
        <dc:contributor>
          <cc:Agent>
            <dc:title>Jakub Steiner</dc:title>
          </cc:Agent>
        </dc:contributor>
        <cc:license
           rdf:resource="http://creativecommons.org/licenses/GPL/2.0/" />
      </cc:Work>
      <cc:License
         rdf:about="http://creativecommons.org/licenses/GPL/2.0/">
        <cc:permits
           rdf:resource="http://web.resource.org/cc/Reproduction" />
        <cc:permits
           rdf:resource="http://web.resource.org/cc/Distribution" />
        <cc:requires
           rdf:resource="http://web.resource.org/cc/Notice" />
        <cc:permits
           rdf:resource="http://web.resource.org/cc/DerivativeWorks" />
        <cc:requires
           rdf:resource="http://web.resource.org/cc/ShareAlike" />
        <cc:requires
           rdf:resource="http://web.resource.org/cc/SourceCode" />
      </cc:License>
    </rdf:RDF>
  </metadata>
  <g
     id="layer1"
     inkscape:label="Layer 1"
     inkscape:groupmode="layer">
    <g
       id="g2453"
       inkscape:label="Calque 1"
       transform="matrix(0.1337942,0,0,0.1337942,-18.472238,-41.04701)" />
    <g
       id="g2498"
       inkscape:label="Calque 1"
       transform="matrix(0.1337942,0,0,0.1337942,-18.472238,-41.04701)" />
    <g
       id="g2585"
       inkscape:label="Calque 1"
       transform="matrix(0.1672428,0,0,0.1672428,-29.090298,-57.308762)" />
    <g
       id="g2491"
       inkscape:label="pixmap"
       style="display:inline"
       transform="matrix(1.25,0,0,1.25,10.236279,10.026083)" />
    <path
       style="fill:#000000;fill-opacity:1;fill-rule:evenodd;stroke:none;stroke-width:1;stroke-miterlimit:4;stroke-opacity:1"
       d="M 4.8125 6.5 C 4.3453772 6.5 4 6.7266799 4 7.21875 L 4 40.28125 C 4 41.009242 4.491245 41.5 5.15625 41.5 L 43.0625 41.5 C 43.731375 41.5 44 41.040782 44 40.40625 L 44 11.46875 C 44 10.925153 43.594821 10.625 43.09375 10.625 L 23.90625 10.625 C 23.567682 10.625 23.198714 10.429427 23 10.15625 L 20.375 6.96875 C 20.15613 6.6678598 19.747915 6.5 19.375 6.5 L 4.8125 6.5 z M 24.15625 17 C 24.347057 17.01491 24.535542 17.081185 24.71875 17.15625 C 25.451583 17.45651 25.918952 18.176392 25.90625 18.96875 L 25.90625 25.09375 L 32.03125 25.09375 C 32.727001 25.075761 33.39434 25.432562 33.75 26.03125 C 34.10566 26.629936 34.09817 27.365665 33.75 27.96875 C 33.401836 28.571829 32.758415 28.946801 32.0625 28.9375 L 25.9375 28.9375 L 25.9375 35.0625 C 25.938262 36.130947 25.067659 36.999236 24 37 C 22.93234 37.000764 22.094512 36.130946 22.09375 35.0625 L 22.0625 28.9375 L 15.96875 28.9375 C 15.182686 28.950963 14.460804 28.506576 14.15625 27.78125 C 13.851695 27.055922 14.002751 26.208707 14.5625 25.65625 C 14.934987 25.288516 15.445698 25.079804 15.96875 25.09375 L 22.09375 25.09375 L 22.09375 18.96875 C 22.079127 18.465978 22.252912 17.994669 22.59375 17.625 C 23.003406 17.194676 23.58383 16.955269 24.15625 17 z "
       id="path895" />
    <g
       transform="matrix(0.2333788,0,0,0.2333788,-16.147846,82.05482)"
       id="g891" />
    <g
       transform="matrix(0.1337942,0,0,0.1337942,31.527762,-41.04701)"
       inkscape:label="Calque 1"
       id="g2596" />
    <g
       transform="translate(62.989023,12.820866)"
       style="display:inline"
       inkscape:label="pixmap"
       id="g2598" />
    <g
       id="g2602"
       transform="matrix(0.186703,0,0,0.186703,41.881723,70.443856)" />
    <g
       id="g2629"
       inkscape:label="Calque 1"
       transform="matrix(0.1337942,0,0,0.1337942,-4.939024,-36.36148)" />
    <g
       id="g2578"
       inkscape:label="Calque 1"
       transform="matrix(8.3621375e-2,0,0,8.3683054e-2,-2.5451488,-13.691744)" />
    <g
       id="g2547"
       inkscape:label="Calque 1"
       transform="matrix(8.3621375e-2,0,0,8.3683054e-2,-3.0728906,-11.73491)" />
    <g
       transform="matrix(0.1337942,0,0,0.1337942,45.060976,-36.36148)"
       inkscape:label="Calque 1"
       id="g2588" />
    <g
       transform="matrix(0.1337942,0,0,0.1337942,44.216589,-33.232854)"
       inkscape:label="Calque 1"
       id="g2590" />
    <path
       style="fill:url(#linearGradient2666);fill-opacity:1"
       d="M 4.8125,6.5 C 4.345377,6.5 4,6.7266799 4,7.21875 L 4,23.96875 C 6.596841,25.959668 10.31539,27.526873 14.6875,28.46875 C 14.46641,28.282806 14.273608,28.060751 14.15625,27.78125 C 13.851695,27.055922 14.002751,26.208707 14.5625,25.65625 C 14.934987,25.288516 15.445698,25.079804 15.96875,25.09375 L 22.09375,25.09375 L 22.09375,18.96875 C 22.079127,18.465978 22.252912,17.994669 22.59375,17.625 C 23.003406,17.194676 23.58383,16.955269 24.15625,17 C 24.347057,17.01491 24.535542,17.081185 24.71875,17.15625 C 25.451583,17.45651 25.918952,18.176392 25.90625,18.96875 L 25.90625,25.09375 L 32.03125,25.09375 C 32.727001,25.075761 33.39434,25.432562 33.75,26.03125 C 34.10566,26.629936 34.09817,27.365665 33.75,27.96875 C 33.636426,28.165479 33.480485,28.325988 33.3125,28.46875 C 37.68461,27.526873 41.403159,25.959668 44,23.96875 L 44,11.46875 C 44,10.925153 43.594821,10.625 43.09375,10.625 L 23.90625,10.625 C 23.567682,10.625 23.198714,10.429427 23,10.15625 L 20.375,6.96875 C 20.15613,6.6678598 19.747915,6.5 19.375,6.5 L 4.8125,6.5 z M 17.34375,28.9375 C 18.858787,29.160692 20.44063,29.308284 22.0625,29.375 L 22.0625,28.9375 L 17.34375,28.9375 z M 25.9375,28.9375 L 25.9375,29.375 C 27.55937,29.308284 29.141213,29.160692 30.65625,28.9375 L 25.9375,28.9375 z"
       id="path2656" />
  </g>
</svg>
