<?xml version="1.0" encoding="UTF-8" standalone="no"?>
<!-- Created with Inkscape (http://www.inkscape.org/) -->
<svg
   xmlns:dc="http://purl.org/dc/elements/1.1/"
   xmlns:cc="http://creativecommons.org/ns#"
   xmlns:rdf="http://www.w3.org/1999/02/22-rdf-syntax-ns#"
   xmlns:svg="http://www.w3.org/2000/svg"
   xmlns="http://www.w3.org/2000/svg"
   xmlns:xlink="http://www.w3.org/1999/xlink"
   xmlns:sodipodi="http://sodipodi.sourceforge.net/DTD/sodipodi-0.dtd"
   xmlns:inkscape="http://www.inkscape.org/namespaces/inkscape"
   width="48px"
   height="48px"
   id="svg4289"
   sodipodi:version="0.32"
   inkscape:version="0.46"
   sodipodi:docbase="/home/lapo/Icone/cvs/gnome-icon-theme/scalable/categories"
   sodipodi:docname="format-justify-fill.svg"
   inkscape:output_extension="org.inkscape.output.svg.inkscape">
  <defs
     id="defs4291">
    <linearGradient
       id="linearGradient3155"
       inkscape:collect="always">
      <stop
         id="stop3157"
         offset="0"
         style="stop-color:#4d4d4d;stop-opacity:1;" />
      <stop
         id="stop3159"
         offset="1"
         style="stop-color:#4d4d4d;stop-opacity:0;" />
    </linearGradient>
    <linearGradient
       inkscape:collect="always"
       xlink:href="#linearGradient3155"
       id="linearGradient2454"
       gradientUnits="userSpaceOnUse"
       x1="325.71429"
       y1="369.50507"
       x2="325.71429"
       y2="546.64789"
       gradientTransform="matrix(0.1377049,0,0,0.1377049,-20.852457,-45.850258)" />
    <linearGradient
       gradientUnits="userSpaceOnUse"
       y2="44.0784"
       x2="23.46875"
       y1="3.5"
       x1="23.46875"
       id="linearGradient3271"
       xlink:href="#linearGradient3265"
       inkscape:collect="always" />
    <linearGradient
       id="linearGradient3265"
       inkscape:collect="always">
      <stop
         id="stop3267"
         offset="0"
         style="stop-color:#4d4d4d;stop-opacity:1;" />
      <stop
         id="stop3269"
         offset="1"
         style="stop-color:#4d4d4d;stop-opacity:0;" />
    </linearGradient>
    <linearGradient
       inkscape:collect="always"
       xlink:href="#linearGradient3265"
       id="linearGradient3335"
       gradientUnits="userSpaceOnUse"
       x1="23.46875"
       y1="3.5"
       x2="23.46875"
       y2="44.0784"
       gradientTransform="translate(13.533214,4.68553)" />
    <linearGradient
       inkscape:collect="always"
       xlink:href="#linearGradient3155"
       id="linearGradient3351"
       gradientUnits="userSpaceOnUse"
       gradientTransform="matrix(0.1377049,0,0,0.1377049,29.147543,-45.850258)"
       x1="325.71429"
       y1="369.50507"
       x2="325.71429"
       y2="546.64789" />
    <linearGradient
       inkscape:collect="always"
       xlink:href="#linearGradient3155"
       id="linearGradient3354"
       gradientUnits="userSpaceOnUse"
       gradientTransform="matrix(0.1377049,0,0,0.1377049,-20.852457,-45.850258)"
       x1="325.71429"
       y1="369.50507"
       x2="325.71429"
       y2="546.64789" />
  </defs>
  <sodipodi:namedview
     id="base"
     pagecolor="#ffffff"
     bordercolor="#666"
     borderopacity="0.31372549"
     inkscape:pageopacity="0.0"
     inkscape:pageshadow="2"
     inkscape:zoom="5.656854"
     inkscape:cx="37.533214"
     inkscape:cy="19.31447"
     inkscape:current-layer="layer1"
     showgrid="true"
     inkscape:grid-bbox="true"
     inkscape:document-units="px"
     inkscape:window-width="1019"
     inkscape:window-height="732"
     inkscape:window-x="259"
     inkscape:window-y="19"
     inkscape:showpageshadow="false" />
  <metadata
     id="metadata4294">
    <rdf:RDF>
      <cc:Work
         rdf:about="">
        <dc:format>image/svg+xml</dc:format>
        <dc:type
           rdf:resource="http://purl.org/dc/dcmitype/StillImage" />
        <dc:title>System Preferences</dc:title>
        <dc:creator>
          <cc:Agent>
            <dc:title>Andreas Nilsson</dc:title>
          </cc:Agent>
        </dc:creator>
        <dc:subject>
          <rdf:Bag>
            <rdf:li>category</rdf:li>
            <rdf:li>system</rdf:li>
            <rdf:li>preferences</rdf:li>
            <rdf:li>settings</rdf:li>
            <rdf:li>control center</rdf:li>
          </rdf:Bag>
        </dc:subject>
        <dc:contributor>
          <cc:Agent>
            <dc:title>Jakub Steiner</dc:title>
          </cc:Agent>
        </dc:contributor>
        <cc:license
           rdf:resource="http://creativecommons.org/licenses/GPL/2.0/" />
      </cc:Work>
      <cc:License
         rdf:about="http://creativecommons.org/licenses/GPL/2.0/">
        <cc:permits
           rdf:resource="http://web.resource.org/cc/Reproduction" />
        <cc:permits
           rdf:resource="http://web.resource.org/cc/Distribution" />
        <cc:requires
           rdf:resource="http://web.resource.org/cc/Notice" />
        <cc:permits
           rdf:resource="http://web.resource.org/cc/DerivativeWorks" />
        <cc:requires
           rdf:resource="http://web.resource.org/cc/ShareAlike" />
        <cc:requires
           rdf:resource="http://web.resource.org/cc/SourceCode" />
      </cc:License>
    </rdf:RDF>
  </metadata>
  <g
     id="layer1"
     inkscape:label="Layer 1"
     inkscape:groupmode="layer">
    <g
       id="g2453"
       inkscape:label="Calque 1"
       transform="matrix(0.1337942,0,0,0.1337942,-18.472238,-41.04701)" />
    <path
       style="fill:#000000;fill-opacity:1;fill-rule:nonzero;stroke:none;stroke-width:1;stroke-linecap:round;stroke-linejoin:miter;marker:none;stroke-miterlimit:4;stroke-dasharray:none;stroke-dashoffset:0;stroke-opacity:1;visibility:visible;display:inline;overflow:visible"
       d="M 5.463415,8 C 4.650226,8 4,8.6735943 4,9.5161285 L 4,9.5806447 C 4,10.423181 4.650226,11.096774 5.463415,11.096774 L 42.536585,11.096774 C 43.349774,11.096774 44,10.423179 44,9.5806447 L 44,9.5161285 C 44,8.673594 43.349776,8 42.536585,8 L 5.463415,8 z M 5.463415,15.225807 C 4.650226,15.225807 4,15.899401 4,16.741936 L 4,16.806451 C 4,17.648987 4.650226,18.322581 5.463415,18.322581 L 42.536585,18.322581 C 43.349774,18.322581 44,17.648986 44,16.806451 L 44,16.741936 C 44,15.8994 43.349776,15.225807 42.536585,15.225807 L 5.463415,15.225807 z M 5.463415,22.451612 C 4.650226,22.451612 4,23.125207 4,23.967742 L 4,24.032258 C 4,24.874793 4.650226,25.548387 5.463415,25.548387 L 42.536585,25.548387 C 43.349774,25.548387 44,24.874792 44,24.032258 L 44,23.967742 C 44,23.125206 43.349776,22.451612 42.536585,22.451612 L 5.463415,22.451612 z M 5.463415,29.677419 C 4.650226,29.677419 4,30.351015 4,31.193549 L 4,31.258065 C 4,32.1006 4.650226,32.774191 5.463415,32.774194 L 42.536585,32.774194 C 43.349774,32.774194 44,32.100599 44,31.258065 L 44,31.193549 C 44,30.351014 43.349776,29.677419 42.536585,29.677419 L 5.463415,29.677419 z M 5.463415,36.903226 C 4.650226,36.903226 4,37.576818 4,38.419355 L 4,38.48387 C 4,39.326406 4.650226,40 5.463415,40 L 42.536585,40 C 43.349774,40 44,39.326407 44,38.48387 L 44,38.419355 C 44,37.576819 43.349776,36.903226 42.536585,36.903226 L 5.463415,36.903226 z"
       id="rect4696" />
    <path
       style="fill:url(#linearGradient3354);fill-opacity:1"
       d="M 5.46875,8 C 4.655563,8 4,8.6887158 4,9.53125 L 4,9.59375 C 4,10.436286 4.655561,11.09375 5.46875,11.09375 L 42.53125,11.09375 C 43.344441,11.09375 44,10.436284 44,9.59375 L 44,9.53125 C 44,8.6887155 43.344441,8 42.53125,8 L 5.46875,8 z M 5.46875,15.21875 C 4.655563,15.21875 4,15.907465 4,16.75 L 4,16.8125 C 4,17.655035 4.655561,18.3125 5.46875,18.3125 L 42.53125,18.3125 C 43.344441,18.312501 44,17.655035 44,16.8125 L 44,16.75 C 44,15.907464 43.344441,15.21875 42.53125,15.21875 L 5.46875,15.21875 z M 5.46875,22.4375 C 4.655563,22.4375 4,23.126215 4,23.96875 C 4.74073,24.536645 5.588359,25.066364 6.5,25.5625 L 41.5,25.5625 C 42.411641,25.066364 43.25927,24.536645 44,23.96875 C 44,23.126213 43.344441,22.4375 42.53125,22.4375 L 5.46875,22.4375 z"
       id="path3347" />
  </g>
</svg>
