<?xml version="1.0" encoding="UTF-8" standalone="no"?>
<!-- Created with Inkscape (http://www.inkscape.org/) -->
<svg
   xmlns:dc="http://purl.org/dc/elements/1.1/"
   xmlns:cc="http://creativecommons.org/ns#"
   xmlns:rdf="http://www.w3.org/1999/02/22-rdf-syntax-ns#"
   xmlns:svg="http://www.w3.org/2000/svg"
   xmlns="http://www.w3.org/2000/svg"
   xmlns:xlink="http://www.w3.org/1999/xlink"
   xmlns:sodipodi="http://sodipodi.sourceforge.net/DTD/sodipodi-0.dtd"
   xmlns:inkscape="http://www.inkscape.org/namespaces/inkscape"
   width="48px"
   height="48px"
   id="svg4289"
   sodipodi:version="0.32"
   inkscape:version="0.46"
   sodipodi:docbase="/home/lapo/Icone/cvs/gnome-icon-theme/scalable/categories"
   sodipodi:docname="format-justify-right.svg"
   inkscape:output_extension="org.inkscape.output.svg.inkscape">
  <defs
     id="defs4291">
    <linearGradient
       id="linearGradient3155"
       inkscape:collect="always">
      <stop
         id="stop3157"
         offset="0"
         style="stop-color:#4d4d4d;stop-opacity:1;" />
      <stop
         id="stop3159"
         offset="1"
         style="stop-color:#4d4d4d;stop-opacity:0;" />
    </linearGradient>
    <linearGradient
       inkscape:collect="always"
       xlink:href="#linearGradient3155"
       id="linearGradient2454"
       gradientUnits="userSpaceOnUse"
       x1="325.71429"
       y1="369.50507"
       x2="325.71429"
       y2="546.64789"
       gradientTransform="matrix(0.1377049,0,0,0.1377049,-20.852457,-45.850258)" />
    <linearGradient
       gradientUnits="userSpaceOnUse"
       y2="43.3125"
       x2="30.875"
       y1="3.5"
       x1="31"
       id="linearGradient3273"
       xlink:href="#linearGradient3267"
       inkscape:collect="always" />
    <linearGradient
       id="linearGradient3267"
       inkscape:collect="always">
      <stop
         id="stop3269"
         offset="0"
         style="stop-color:#4d4d4d;stop-opacity:1;" />
      <stop
         id="stop3271"
         offset="1"
         style="stop-color:#4d4d4d;stop-opacity:0;" />
    </linearGradient>
    <linearGradient
       inkscape:collect="always"
       xlink:href="#linearGradient3267"
       id="linearGradient2514"
       gradientUnits="userSpaceOnUse"
       x1="31"
       y1="3.5"
       x2="30.875"
       y2="43.3125"
       gradientTransform="translate(12.033214,4.68553)" />
    <linearGradient
       inkscape:collect="always"
       xlink:href="#linearGradient3155"
       id="linearGradient2530"
       gradientUnits="userSpaceOnUse"
       gradientTransform="matrix(0.1377049,0,0,0.1377049,29.147543,-45.850258)"
       x1="325.71429"
       y1="369.50507"
       x2="325.71429"
       y2="546.64789" />
    <linearGradient
       inkscape:collect="always"
       xlink:href="#linearGradient3155"
       id="linearGradient2533"
       gradientUnits="userSpaceOnUse"
       gradientTransform="matrix(0.1377049,0,0,0.1377049,-20.852457,-45.850258)"
       x1="325.71429"
       y1="369.50507"
       x2="325.71429"
       y2="546.64789" />
  </defs>
  <sodipodi:namedview
     id="base"
     pagecolor="#ffffff"
     bordercolor="#666"
     borderopacity="0.31372549"
     inkscape:pageopacity="0.0"
     inkscape:pageshadow="2"
     inkscape:zoom="5.656854"
     inkscape:cx="37.533214"
     inkscape:cy="19.31447"
     inkscape:current-layer="layer1"
     showgrid="true"
     inkscape:grid-bbox="true"
     inkscape:document-units="px"
     inkscape:window-width="1019"
     inkscape:window-height="732"
     inkscape:window-x="259"
     inkscape:window-y="19"
     inkscape:showpageshadow="false" />
  <metadata
     id="metadata4294">
    <rdf:RDF>
      <cc:Work
         rdf:about="">
        <dc:format>image/svg+xml</dc:format>
        <dc:type
           rdf:resource="http://purl.org/dc/dcmitype/StillImage" />
        <dc:title>System Preferences</dc:title>
        <dc:creator>
          <cc:Agent>
            <dc:title>Andreas Nilsson</dc:title>
          </cc:Agent>
        </dc:creator>
        <dc:subject>
          <rdf:Bag>
            <rdf:li>category</rdf:li>
            <rdf:li>system</rdf:li>
            <rdf:li>preferences</rdf:li>
            <rdf:li>settings</rdf:li>
            <rdf:li>control center</rdf:li>
          </rdf:Bag>
        </dc:subject>
        <dc:contributor>
          <cc:Agent>
            <dc:title>Jakub Steiner</dc:title>
          </cc:Agent>
        </dc:contributor>
        <cc:license
           rdf:resource="http://creativecommons.org/licenses/GPL/2.0/" />
      </cc:Work>
      <cc:License
         rdf:about="http://creativecommons.org/licenses/GPL/2.0/">
        <cc:permits
           rdf:resource="http://web.resource.org/cc/Reproduction" />
        <cc:permits
           rdf:resource="http://web.resource.org/cc/Distribution" />
        <cc:requires
           rdf:resource="http://web.resource.org/cc/Notice" />
        <cc:permits
           rdf:resource="http://web.resource.org/cc/DerivativeWorks" />
        <cc:requires
           rdf:resource="http://web.resource.org/cc/ShareAlike" />
        <cc:requires
           rdf:resource="http://web.resource.org/cc/SourceCode" />
      </cc:License>
    </rdf:RDF>
  </metadata>
  <g
     id="layer1"
     inkscape:label="Layer 1"
     inkscape:groupmode="layer">
    <g
       id="g2453"
       inkscape:label="Calque 1"
       transform="matrix(0.1337942,0,0,0.1337942,-18.472238,-41.04701)" />
    <path
       style="fill:#000000;fill-opacity:1;fill-rule:nonzero;stroke:none;stroke-width:1;stroke-linecap:round;stroke-linejoin:miter;marker:none;stroke-miterlimit:4;stroke-dasharray:none;stroke-dashoffset:0;stroke-opacity:1;visibility:visible;display:inline;overflow:visible"
       d="M 20.923077,8 C 20.068187,8 19.384615,8.5754839 19.384615,9.2903226 L 19.384615,9.8064516 C 19.384615,10.52129 20.068185,11.096774 20.923077,11.096774 L 42.461538,11.096774 C 43.316429,11.096774 44,10.52129 44,9.8064516 L 44,9.2903226 C 44,8.5754839 43.316431,8 42.461538,8 L 20.923077,8 z M 5.538462,15.225806 C 4.683571,15.225806 4,15.899401 4,16.741936 L 4,16.806451 C 4,17.648987 4.683571,18.32258 5.538462,18.32258 L 42.461538,18.32258 C 43.316429,18.32258 44,17.648986 44,16.806451 L 44,16.741936 C 44,15.8994 43.316431,15.225806 42.461538,15.225806 L 5.538462,15.225806 z M 14.769231,22.451613 C 13.914341,22.451613 13.230769,23.027096 13.230769,23.741936 L 13.230769,24.258064 C 13.230769,24.972903 13.914341,25.548387 14.769231,25.548387 L 42.461538,25.548387 C 43.316429,25.548387 44,24.972903 44,24.258064 L 44,23.741936 C 44,23.027096 43.316431,22.451613 42.461538,22.451613 L 14.769231,22.451613 z M 10.666667,29.67742 C 9.811776,29.67742 9.128205,30.252904 9.128205,30.967742 L 9.128205,31.483871 C 9.128205,32.19871 9.811776,32.774192 10.666667,32.774194 L 42.461538,32.774194 C 43.316429,32.774194 44,32.19871 44,31.483871 L 44,30.967742 C 44,30.252904 43.316431,29.67742 42.461538,29.67742 L 10.666667,29.67742 z M 28.102564,36.903226 C 27.247674,36.903226 26.564103,37.47871 26.564103,38.193548 L 26.564103,38.709678 C 26.564103,39.424516 27.247672,40 28.102564,40 L 42.461538,40 C 43.316429,40 44,39.424516 44,38.709678 L 44,38.193548 C 44,37.47871 43.316431,36.903226 42.461538,36.903226 L 28.102564,36.903226 z"
       id="rect5099" />
    <path
       style="fill:url(#linearGradient2533);fill-opacity:1"
       d="M 20.9375,8 C 20.082607,8 19.375,8.5664113 19.375,9.28125 L 19.375,9.8125 C 19.375002,10.527338 20.082608,11.09375 20.9375,11.09375 L 42.46875,11.09375 C 43.323639,11.09375 44,10.527338 44,9.8125 L 44,9.28125 C 44,8.5664116 43.323643,8 42.46875,8 L 20.9375,8 z M 5.53125,15.21875 C 4.676357,15.21875 4,15.907465 4,16.75 L 4,16.8125 C 4,17.655035 4.676359,18.3125 5.53125,18.3125 L 42.46875,18.3125 C 43.323639,18.3125 44,17.655035 44,16.8125 L 44,16.75 C 44,15.907464 43.323643,15.21875 42.46875,15.21875 L 5.53125,15.21875 z M 14.78125,22.4375 C 13.926357,22.437501 13.21875,23.03516 13.21875,23.75 L 13.21875,24.25 C 13.218749,24.964839 13.92636,25.5625 14.78125,25.5625 L 41.5,25.5625 C 42.411641,25.066364 43.25927,24.536645 44,23.96875 L 44,23.75 C 44,23.03516 43.323643,22.4375 42.46875,22.4375 L 14.78125,22.4375 z"
       id="path2526" />
  </g>
</svg>
