<?xml version="1.0" encoding="UTF-8" standalone="no"?>
<!-- Created with Inkscape (http://www.inkscape.org/) -->

<svg
   xmlns:dc="http://purl.org/dc/elements/1.1/"
   xmlns:cc="http://creativecommons.org/ns#"
   xmlns:rdf="http://www.w3.org/1999/02/22-rdf-syntax-ns#"
   xmlns:svg="http://www.w3.org/2000/svg"
   xmlns="http://www.w3.org/2000/svg"
   xmlns:xlink="http://www.w3.org/1999/xlink"
   xmlns:sodipodi="http://sodipodi.sourceforge.net/DTD/sodipodi-0.dtd"
   xmlns:inkscape="http://www.inkscape.org/namespaces/inkscape"
   version="1.0"
   width="48"
   height="48"
   id="svg1307"
   inkscape:version="0.47 r22583"
   sodipodi:docname="gtk-fullscreen.svg">
  <metadata
     id="metadata13">
    <rdf:RDF>
      <cc:Work
         rdf:about="">
        <dc:format>image/svg+xml</dc:format>
        <dc:type
           rdf:resource="http://purl.org/dc/dcmitype/StillImage" />
        <dc:title></dc:title>
      </cc:Work>
    </rdf:RDF>
  </metadata>
  <sodipodi:namedview
     pagecolor="#ffffff"
     bordercolor="#666666"
     borderopacity="1"
     objecttolerance="10"
     gridtolerance="10"
     guidetolerance="10"
     inkscape:pageopacity="0"
     inkscape:pageshadow="2"
     inkscape:window-width="799"
     inkscape:window-height="605"
     id="namedview11"
     showgrid="false"
     inkscape:zoom="4.9166667"
     inkscape:cx="36.40678"
     inkscape:cy="24"
     inkscape:window-x="436"
     inkscape:window-y="103"
     inkscape:window-maximized="0"
     inkscape:current-layer="svg1307" />
  <linearGradient
     id="linearGradient4321">
    <stop
       style="stop-color:#000000;stop-opacity:1.0;"
       offset="0"
       id="stop1" />
    <stop
       style="stop-color:#000000;stop-opacity:1.0;"
       offset="1"
       id="stop2" />
  </linearGradient>
  <linearGradient
     collect="always"
     xlink:href="#linearGradient4321"
     id="linearGradient1234"
     x1="0"
     y1="24"
     x2="48"
     y2="24"
     gradientUnits="userSpaceOnUse" />
  <defs
     id="defs1309">
    <linearGradient
       inkscape:collect="always"
       xlink:href="#linearGradient4321"
       id="linearGradient2823"
       gradientUnits="userSpaceOnUse"
       x1="0"
       y1="24"
       x2="48"
       y2="24"
       gradientTransform="matrix(0.83333333,0,0,0.83333333,4,4.0000002)" />
    <linearGradient
       gradientUnits="userSpaceOnUse"
       y2="21.132059"
       x2="22.892584"
       y1="0.90414524"
       x1="22.892584"
       id="linearGradient3178"
       xlink:href="#linearGradient3172"
       inkscape:collect="always" />
    <linearGradient
       id="linearGradient3172">
      <stop
         id="stop3174"
         offset="0"
         style="stop-color:#4d4d4d;stop-opacity:1;" />
      <stop
         id="stop3176"
         offset="1"
         style="stop-color:#4d4d4d;stop-opacity:0;" />
    </linearGradient>
    <linearGradient
       inkscape:collect="always"
       xlink:href="#linearGradient4321"
       id="linearGradient2938"
       gradientUnits="userSpaceOnUse"
       gradientTransform="matrix(0.83333333,0,0,-0.83333333,54,44)"
       x1="0"
       y1="24"
       x2="48"
       y2="24" />
    <linearGradient
       inkscape:collect="always"
       xlink:href="#linearGradient3172"
       id="linearGradient2940"
       gradientUnits="userSpaceOnUse"
       x1="22.892584"
       y1="0.90414524"
       x2="22.892584"
       y2="21.132059" />
    <linearGradient
       inkscape:collect="always"
       xlink:href="#linearGradient3172"
       id="linearGradient2945"
       gradientUnits="userSpaceOnUse"
       x1="22.892584"
       y1="0.90414524"
       x2="22.892584"
       y2="21.132059"
       gradientTransform="matrix(0.644962,0,0,-1.1832362,59.235153,43.983663)" />
    <linearGradient
       inkscape:collect="always"
       xlink:href="#linearGradient3172"
       id="linearGradient2948"
       gradientUnits="userSpaceOnUse"
       gradientTransform="matrix(0.644962,0,0,1.1832362,9.235153,4.0163372)"
       x1="22.892584"
       y1="0.90414524"
       x2="22.892584"
       y2="21.132059" />
  </defs>
  <path
     style="fill:url(#linearGradient2823);fill-opacity:1;fill-rule:nonzero;stroke:none;stroke-width:1;marker:none;visibility:visible;display:inline;overflow:visible;enable-background:accumulate"
     id="rect2169"
     d="M 8.6354166,4.0000002 C 6.0690493,4.0000002 4,6.0690492 4,8.6354172 L 4,39.364583 C 4,41.930951 6.0690493,44 8.6354166,44 L 39.364583,44 C 41.930951,44 44,41.93095 44,39.364583 L 44,8.6354172 c 0,-2.566368 -2.06905,-4.635417 -4.635417,-4.635417 l -30.7291664,0 z M 19.963542,14 34,14 l 0,14.010417 -5,-5 L 27.984375,24 23.973958,28.010417 22.984375,29 l 5,5 -14.010417,0 0,-14.010417 5,5 L 19.963542,24 23.973958,19.989583 24.989583,19 19.963542,14 z"
     sodipodi:nodetypes="cccccccccccccccccccccccc" />
  <g
     id="g2172"
     transform="matrix(1.0017414,0,0,1,-38.629536,42.993448)" />
  <path
     style="fill:url(#linearGradient2948);fill-opacity:1;stroke:none"
     d="M 23.65625,29.65625 23,29 23.96875,28 28,24 29,23 34,28 34,14 19.96875,14 25,19 l -1.03125,1 -4,4 -1,1 -5,-5 0,8.46875 C 9.907519,27.479881 6.453573,25.916932 4,23.96875 L 4,8.6250002 c 0,-2.566368 2.058632,-4.625 4.625,-4.625 l 30.75,0 c 2.566367,0 4.625,2.058632 4.625,4.625 L 44,23.96875 c -4.299791,3.414113 -11.650373,5.6875 -20,5.6875 -0.116693,0 -0.22745,8.77e-4 -0.34375,0 z"
     id="path2932" />
  <g
     transform="matrix(0.1337942,0,0,-0.1337942,31.527762,89.04701)"
     inkscape:label="Calque 1"
     id="g2934" />
  <g
     transform="matrix(0.1672428,0,0,-0.1672428,38.442916,104.62323)"
     inkscape:label="Calque 1"
     id="g2936" />
</svg>
