<?xml version="1.0" encoding="UTF-8" standalone="no"?>
<!-- Created with Inkscape (http://www.inkscape.org/) -->

<svg
   xmlns:dc="http://purl.org/dc/elements/1.1/"
   xmlns:cc="http://creativecommons.org/ns#"
   xmlns:rdf="http://www.w3.org/1999/02/22-rdf-syntax-ns#"
   xmlns:svg="http://www.w3.org/2000/svg"
   xmlns="http://www.w3.org/2000/svg"
   xmlns:xlink="http://www.w3.org/1999/xlink"
   xmlns:sodipodi="http://sodipodi.sourceforge.net/DTD/sodipodi-0.dtd"
   xmlns:inkscape="http://www.inkscape.org/namespaces/inkscape"
   version="1.0"
   width="48"
   height="48"
   id="svg1307"
   inkscape:version="0.47 r22583"
   sodipodi:docname="gtk-leave-fullscreen.svg">
  <metadata
     id="metadata12">
    <rdf:RDF>
      <cc:Work
         rdf:about="">
        <dc:format>image/svg+xml</dc:format>
        <dc:type
           rdf:resource="http://purl.org/dc/dcmitype/StillImage" />
        <dc:title></dc:title>
      </cc:Work>
    </rdf:RDF>
  </metadata>
  <sodipodi:namedview
     pagecolor="#ffffff"
     bordercolor="#666666"
     borderopacity="1"
     objecttolerance="10"
     gridtolerance="10"
     guidetolerance="10"
     inkscape:pageopacity="0"
     inkscape:pageshadow="2"
     inkscape:window-width="1364"
     inkscape:window-height="721"
     id="namedview10"
     showgrid="false"
     inkscape:zoom="4.9166667"
     inkscape:cx="24"
     inkscape:cy="24"
     inkscape:window-x="0"
     inkscape:window-y="23"
     inkscape:window-maximized="1"
     inkscape:current-layer="svg1307" />
  <linearGradient
     id="linearGradient4321">
    <stop
       style="stop-color:#000000;stop-opacity:1.0;"
       offset="0"
       id="stop1" />
    <stop
       style="stop-color:#000000;stop-opacity:1.0;"
       offset="1"
       id="stop2" />
  </linearGradient>
  <linearGradient
     collect="always"
     xlink:href="#linearGradient4321"
     id="linearGradient1234"
     x1="0"
     y1="24"
     x2="48"
     y2="24"
     gradientUnits="userSpaceOnUse" />
  <defs
     id="defs1309">
    <linearGradient
       inkscape:collect="always"
       xlink:href="#linearGradient4321"
       id="linearGradient3839"
       gradientUnits="userSpaceOnUse"
       gradientTransform="matrix(0.83333333,0,0,0.83333333,4,4.0000002)"
       x1="0"
       y1="24"
       x2="48"
       y2="24" />
    <linearGradient
       gradientUnits="userSpaceOnUse"
       y2="21.132059"
       x2="22.892584"
       y1="0.90414524"
       x1="22.892584"
       id="linearGradient3178-1"
       xlink:href="#linearGradient3172-5"
       inkscape:collect="always" />
    <linearGradient
       id="linearGradient3172-5">
      <stop
         id="stop3174-3"
         offset="0"
         style="stop-color:#4d4d4d;stop-opacity:1;" />
      <stop
         id="stop3176-3"
         offset="1"
         style="stop-color:#4d4d4d;stop-opacity:0;" />
    </linearGradient>
    <linearGradient
       inkscape:collect="always"
       xlink:href="#linearGradient4321"
       id="linearGradient3952"
       gradientUnits="userSpaceOnUse"
       gradientTransform="matrix(0.83333333,0,0,-0.83333333,54,44)"
       x1="0"
       y1="24"
       x2="48"
       y2="24" />
    <linearGradient
       inkscape:collect="always"
       xlink:href="#linearGradient3172-5"
       id="linearGradient3954"
       gradientUnits="userSpaceOnUse"
       x1="22.892584"
       y1="0.90414524"
       x2="22.892584"
       y2="21.132059" />
    <linearGradient
       inkscape:collect="always"
       xlink:href="#linearGradient3172-5"
       id="linearGradient3959"
       gradientUnits="userSpaceOnUse"
       x1="22.892584"
       y1="0.90414524"
       x2="22.892584"
       y2="21.132059"
       gradientTransform="matrix(0.644962,0,0,-1.1832362,59.235153,43.983663)" />
    <linearGradient
       inkscape:collect="always"
       xlink:href="#linearGradient3172-5"
       id="linearGradient3962"
       gradientUnits="userSpaceOnUse"
       gradientTransform="matrix(0.644962,0,0,1.1832362,9.235153,4.0163372)"
       x1="22.892584"
       y1="0.90414524"
       x2="22.892584"
       y2="21.132059" />
  </defs>
  <path
     style="fill:url(#linearGradient3839);fill-opacity:1;fill-rule:evenodd;stroke:none"
     id="rect1315"
     d="M 8.6354166,4.0000002 C 6.0690493,4.0000002 4,6.0690492 4,8.6354172 L 4,39.364583 C 4,41.930951 6.0690493,44 8.6354166,44 L 39.364583,44 C 41.930951,44 44,41.93095 44,39.364583 L 44,8.6354172 c 0,-2.566368 -2.06905,-4.635417 -4.635417,-4.635417 l -30.7291664,0 z m 4.8177084,5.625 L 9.625,13.453125 14.416667,18.244792 9.625,23.036458 l 13.411458,0 0,-13.4114578 -4.791666,4.7916668 -4.791667,-4.7916668 z m 11.510417,15.3385418 0,13.411458 4.791666,-4.791667 L 34.546875,38.375 38.375,34.546875 33.583333,29.755208 38.375,24.963542 l -13.411458,0 z"
     sodipodi:nodetypes="ccccccccccccccccccccccccc" />
  <g
     transform="matrix(0.1337942,0,0,-0.1337942,31.527762,89.04701)"
     inkscape:label="Calque 1"
     id="g2930" />
  <g
     transform="matrix(0.1672428,0,0,-0.1672428,38.442916,104.62323)"
     inkscape:label="Calque 1"
     id="g2932" />
  <path
     style="fill:url(#linearGradient3962);fill-opacity:1;stroke:none"
     d="m 24,29.65625 c -8.349627,0 -15.700208,-2.273387 -20,-5.6875 L 4,8.6250002 c 0,-2.566368 2.058632,-4.625 4.625,-4.625 l 30.75,0 c 2.566367,0 4.625,2.058632 4.625,4.625 L 44,23.96875 c -2.22467,1.766429 -5.267944,3.225457 -8.84375,4.21875 l 3.21875,-3.21875 -13.40625,0 0,4.65625 C 24.642825,29.631932 24.329133,29.65625 24,29.65625 z m -14.375,-6.625 13.40625,0 0,-13.4062498 L 18.25,14.40625 13.4375,9.6250002 9.625,13.4375 14.40625,18.25 9.625,23.03125 z"
     id="path3946" />
  <g
     transform="matrix(0.1337942,0,0,-0.1337942,31.527762,89.04701)"
     inkscape:label="Calque 1"
     id="g3948" />
  <g
     transform="matrix(0.1672428,0,0,-0.1672428,38.442916,104.62323)"
     inkscape:label="Calque 1"
     id="g3950" />
</svg>
