<?xml version="1.0" encoding="UTF-8" standalone="no"?>
<!-- Created with Inkscape (http://www.inkscape.org/) -->
<svg
   xmlns:dc="http://purl.org/dc/elements/1.1/"
   xmlns:cc="http://creativecommons.org/ns#"
   xmlns:rdf="http://www.w3.org/1999/02/22-rdf-syntax-ns#"
   xmlns:svg="http://www.w3.org/2000/svg"
   xmlns="http://www.w3.org/2000/svg"
   xmlns:xlink="http://www.w3.org/1999/xlink"
   xmlns:sodipodi="http://sodipodi.sourceforge.net/DTD/sodipodi-0.dtd"
   xmlns:inkscape="http://www.inkscape.org/namespaces/inkscape"
   width="48px"
   height="48px"
   id="svg4289"
   sodipodi:version="0.32"
   inkscape:version="0.46"
   sodipodi:docbase="/home/lapo/Icone/cvs/gnome-icon-theme/scalable/categories"
   sodipodi:docname="format-justify-left.svg"
   inkscape:output_extension="org.inkscape.output.svg.inkscape">
  <defs
     id="defs4291">
    <linearGradient
       id="linearGradient3155"
       inkscape:collect="always">
      <stop
         id="stop3157"
         offset="0"
         style="stop-color:#4d4d4d;stop-opacity:1;" />
      <stop
         id="stop3159"
         offset="1"
         style="stop-color:#4d4d4d;stop-opacity:0;" />
    </linearGradient>
    <linearGradient
       inkscape:collect="always"
       xlink:href="#linearGradient3155"
       id="linearGradient2454"
       gradientUnits="userSpaceOnUse"
       x1="325.71429"
       y1="369.50507"
       x2="325.71429"
       y2="546.64789"
       gradientTransform="matrix(0.1377049,0,0,0.1377049,-20.852457,-45.850258)" />
    <linearGradient
       gradientUnits="userSpaceOnUse"
       y2="43.328125"
       x2="17.75"
       y1="3.5"
       x1="18"
       id="linearGradient3263"
       xlink:href="#linearGradient3257"
       inkscape:collect="always" />
    <linearGradient
       id="linearGradient3257"
       inkscape:collect="always">
      <stop
         id="stop3259"
         offset="0"
         style="stop-color:#4d4d4d;stop-opacity:1;" />
      <stop
         id="stop3261"
         offset="1"
         style="stop-color:#4d4d4d;stop-opacity:0;" />
    </linearGradient>
    <linearGradient
       inkscape:collect="always"
       xlink:href="#linearGradient3257"
       id="linearGradient2552"
       gradientUnits="userSpaceOnUse"
       x1="18"
       y1="3.5"
       x2="17.75"
       y2="43.328125" />
    <linearGradient
       inkscape:collect="always"
       xlink:href="#linearGradient3257"
       id="linearGradient2555"
       gradientUnits="userSpaceOnUse"
       x1="18"
       y1="3.5"
       x2="17.75"
       y2="43.328125"
       gradientTransform="translate(56.165633,7.3829899)" />
    <linearGradient
       inkscape:collect="always"
       xlink:href="#linearGradient3155"
       id="linearGradient2571"
       gradientUnits="userSpaceOnUse"
       gradientTransform="matrix(0.1377049,0,0,0.1377049,29.147543,-45.850258)"
       x1="325.71429"
       y1="369.50507"
       x2="325.71429"
       y2="546.64789" />
    <linearGradient
       inkscape:collect="always"
       xlink:href="#linearGradient3155"
       id="linearGradient2574"
       gradientUnits="userSpaceOnUse"
       gradientTransform="matrix(0.1377049,0,0,0.1377049,-20.852457,-45.850258)"
       x1="325.71429"
       y1="369.50507"
       x2="325.71429"
       y2="546.64789" />
  </defs>
  <sodipodi:namedview
     id="base"
     pagecolor="#ffffff"
     bordercolor="#666"
     borderopacity="0.31372549"
     inkscape:pageopacity="0.0"
     inkscape:pageshadow="2"
     inkscape:zoom="5.656854"
     inkscape:cx="37.533214"
     inkscape:cy="19.31447"
     inkscape:current-layer="layer1"
     showgrid="true"
     inkscape:grid-bbox="true"
     inkscape:document-units="px"
     inkscape:window-width="1019"
     inkscape:window-height="732"
     inkscape:window-x="259"
     inkscape:window-y="19"
     inkscape:showpageshadow="false" />
  <metadata
     id="metadata4294">
    <rdf:RDF>
      <cc:Work
         rdf:about="">
        <dc:format>image/svg+xml</dc:format>
        <dc:type
           rdf:resource="http://purl.org/dc/dcmitype/StillImage" />
        <dc:title>System Preferences</dc:title>
        <dc:creator>
          <cc:Agent>
            <dc:title>Andreas Nilsson</dc:title>
          </cc:Agent>
        </dc:creator>
        <dc:subject>
          <rdf:Bag>
            <rdf:li>category</rdf:li>
            <rdf:li>system</rdf:li>
            <rdf:li>preferences</rdf:li>
            <rdf:li>settings</rdf:li>
            <rdf:li>control center</rdf:li>
          </rdf:Bag>
        </dc:subject>
        <dc:contributor>
          <cc:Agent>
            <dc:title>Jakub Steiner</dc:title>
          </cc:Agent>
        </dc:contributor>
        <cc:license
           rdf:resource="http://creativecommons.org/licenses/GPL/2.0/" />
      </cc:Work>
      <cc:License
         rdf:about="http://creativecommons.org/licenses/GPL/2.0/">
        <cc:permits
           rdf:resource="http://web.resource.org/cc/Reproduction" />
        <cc:permits
           rdf:resource="http://web.resource.org/cc/Distribution" />
        <cc:requires
           rdf:resource="http://web.resource.org/cc/Notice" />
        <cc:permits
           rdf:resource="http://web.resource.org/cc/DerivativeWorks" />
        <cc:requires
           rdf:resource="http://web.resource.org/cc/ShareAlike" />
        <cc:requires
           rdf:resource="http://web.resource.org/cc/SourceCode" />
      </cc:License>
    </rdf:RDF>
  </metadata>
  <g
     id="layer1"
     inkscape:label="Layer 1"
     inkscape:groupmode="layer">
    <g
       id="g2453"
       inkscape:label="Calque 1"
       transform="matrix(0.1337942,0,0,0.1337942,-18.472238,-41.04701)" />
    <path
       style="fill:#000000;fill-opacity:1;fill-rule:nonzero;stroke:none;stroke-width:1;stroke-linecap:round;stroke-linejoin:miter;marker:none;stroke-miterlimit:4;stroke-dasharray:none;stroke-dashoffset:0;stroke-opacity:1;visibility:visible;display:inline;overflow:visible"
       d="M 5.538462,8 C 4.683571,8 4,8.575484 4,9.290322 L 4,9.806452 C 4,10.52129 4.683569,11.096774 5.538462,11.096774 L 27.076923,11.096774 C 27.931813,11.096774 28.615385,10.52129 28.615385,9.806452 L 28.615385,9.290322 C 28.615385,8.575484 27.931815,8 27.076923,8 L 5.538462,8 z M 5.538462,15.225806 C 4.683571,15.225806 4,15.899401 4,16.741936 L 4,16.806452 C 4,17.648987 4.683569,18.32258 5.538462,18.32258 L 42.461538,18.32258 C 43.316429,18.32258 44,17.648986 44,16.806452 L 44,16.741936 C 44,15.8994 43.316431,15.225806 42.461538,15.225806 L 5.538462,15.225806 z M 5.538462,22.451613 C 4.683571,22.451613 4,23.027096 4,23.741936 L 4,24.258064 C 4,24.972904 4.683569,25.548388 5.538462,25.548388 L 33.230769,25.548388 C 34.085659,25.548388 34.769231,24.972904 34.769231,24.258064 L 34.769231,23.741936 C 34.769231,23.027096 34.085662,22.451613 33.230769,22.451613 L 5.538462,22.451613 z M 5.538462,29.67742 C 4.683571,29.67742 4,30.252906 4,30.967742 L 4,31.483871 C 4,32.19871 4.683569,32.774196 5.538462,32.774194 L 37.333333,32.774194 C 38.188224,32.774194 38.871795,32.198712 38.871795,31.483871 L 38.871795,30.967742 C 38.871795,30.252904 38.188226,29.67742 37.333333,29.67742 L 5.538462,29.67742 z M 5.538462,36.903226 C 4.683571,36.903226 4,37.47871 4,38.193548 L 4,38.709678 C 4,39.424516 4.683569,40 5.538462,40 L 19.897436,40 C 20.752326,40 21.435897,39.424516 21.435897,38.709678 L 21.435897,38.193548 C 21.435897,37.47871 20.752328,36.903226 19.897436,36.903226 L 5.538462,36.903226 z"
       id="rect4968" />
    <path
       style="fill:url(#linearGradient2574);fill-opacity:1"
       d="M 5.53125,8 C 4.676357,8 4,8.566412 4,9.28125 L 4,9.8125 C 4,10.527338 4.676357,11.09375 5.53125,11.09375 L 27.0625,11.09375 C 27.917393,11.09375 28.625,10.527338 28.625,9.8125 L 28.625,9.28125 C 28.624998,8.5664117 27.917392,8 27.0625,8 L 5.53125,8 z M 5.53125,15.21875 C 4.676357,15.21875 4,15.907465 4,16.75 L 4,16.8125 C 4,17.655035 4.676357,18.3125 5.53125,18.3125 L 42.46875,18.3125 C 43.323639,18.3125 44,17.655034 44,16.8125 L 44,16.75 C 44,15.907464 43.323643,15.21875 42.46875,15.21875 L 5.53125,15.21875 z M 5.53125,22.4375 C 4.676357,22.437501 4,23.03516 4,23.75 L 4,23.96875 C 4.74073,24.536645 5.588359,25.066364 6.5,25.5625 L 33.21875,25.5625 C 34.073643,25.5625 34.78125,24.96484 34.78125,24.25 L 34.78125,23.75 C 34.781247,23.03516 34.073643,22.4375 33.21875,22.4375 L 5.53125,22.4375 z"
       id="path2567" />
  </g>
</svg>
