<?xml version="1.0" encoding="UTF-8" standalone="no"?>
<!-- Created with Inkscape (http://www.inkscape.org/) -->
<svg
   xmlns:dc="http://purl.org/dc/elements/1.1/"
   xmlns:cc="http://creativecommons.org/ns#"
   xmlns:rdf="http://www.w3.org/1999/02/22-rdf-syntax-ns#"
   xmlns:svg="http://www.w3.org/2000/svg"
   xmlns="http://www.w3.org/2000/svg"
   xmlns:xlink="http://www.w3.org/1999/xlink"
   xmlns:sodipodi="http://sodipodi.sourceforge.net/DTD/sodipodi-0.dtd"
   xmlns:inkscape="http://www.inkscape.org/namespaces/inkscape"
   width="48px"
   height="48px"
   id="svg4289"
   sodipodi:version="0.32"
   inkscape:version="0.46"
   sodipodi:docbase="/home/lapo/Icone/cvs/gnome-icon-theme/scalable/categories"
   sodipodi:docname="gtk-close.svg"
   inkscape:output_extension="org.inkscape.output.svg.inkscape">
  <defs
     id="defs4291">
    <linearGradient
       id="linearGradient3155"
       inkscape:collect="always">
      <stop
         id="stop3157"
         offset="0"
         style="stop-color:#4d4d4d;stop-opacity:1;" />
      <stop
         id="stop3159"
         offset="1"
         style="stop-color:#4d4d4d;stop-opacity:0;" />
    </linearGradient>
    <linearGradient
       inkscape:collect="always"
       xlink:href="#linearGradient3155"
       id="linearGradient2524"
       gradientUnits="userSpaceOnUse"
       gradientTransform="matrix(0.1159437,0,0,0.1159578,-13.761661,-34.818575)"
       x1="325.71429"
       y1="369.50507"
       x2="325.71429"
       y2="546.64789" />
  </defs>
  <sodipodi:namedview
     id="base"
     pagecolor="#ffffff"
     bordercolor="#666"
     borderopacity="0.31372549"
     inkscape:pageopacity="0.0"
     inkscape:pageshadow="2"
     inkscape:zoom="5.656854"
     inkscape:cx="37.533214"
     inkscape:cy="23.603195"
     inkscape:current-layer="layer1"
     showgrid="true"
     inkscape:grid-bbox="true"
     inkscape:document-units="px"
     inkscape:window-width="1019"
     inkscape:window-height="732"
     inkscape:window-x="259"
     inkscape:window-y="24"
     inkscape:showpageshadow="false" />
  <metadata
     id="metadata4294">
    <rdf:RDF>
      <cc:Work
         rdf:about="">
        <dc:format>image/svg+xml</dc:format>
        <dc:type
           rdf:resource="http://purl.org/dc/dcmitype/StillImage" />
        <dc:title>System Preferences</dc:title>
        <dc:creator>
          <cc:Agent>
            <dc:title>Andreas Nilsson</dc:title>
          </cc:Agent>
        </dc:creator>
        <dc:subject>
          <rdf:Bag>
            <rdf:li>category</rdf:li>
            <rdf:li>system</rdf:li>
            <rdf:li>preferences</rdf:li>
            <rdf:li>settings</rdf:li>
            <rdf:li>control center</rdf:li>
          </rdf:Bag>
        </dc:subject>
        <dc:contributor>
          <cc:Agent>
            <dc:title>Jakub Steiner</dc:title>
          </cc:Agent>
        </dc:contributor>
        <cc:license
           rdf:resource="http://creativecommons.org/licenses/GPL/2.0/" />
      </cc:Work>
      <cc:License
         rdf:about="http://creativecommons.org/licenses/GPL/2.0/">
        <cc:permits
           rdf:resource="http://web.resource.org/cc/Reproduction" />
        <cc:permits
           rdf:resource="http://web.resource.org/cc/Distribution" />
        <cc:requires
           rdf:resource="http://web.resource.org/cc/Notice" />
        <cc:permits
           rdf:resource="http://web.resource.org/cc/DerivativeWorks" />
        <cc:requires
           rdf:resource="http://web.resource.org/cc/ShareAlike" />
        <cc:requires
           rdf:resource="http://web.resource.org/cc/SourceCode" />
      </cc:License>
    </rdf:RDF>
  </metadata>
  <g
     id="layer1"
     inkscape:label="Layer 1"
     inkscape:groupmode="layer">
    <g
       id="g2453"
       inkscape:label="Calque 1"
       transform="matrix(0.1337942,0,0,0.1337942,-18.472238,-41.04701)" />
    <path
       id="path3825"
       d="M 12.074678,8.0022946 C 10.428773,7.9897096 8.9239862,8.9958396 8.3007742,10.520809 C 7.6775632,12.045776 8.0614588,13.782411 9.2442497,14.928208 L 18.301616,23.994861 L 9.2442497,33.061504 C 7.6636791,34.643693 7.6636791,37.208941 9.2442497,38.791129 C 10.82482,40.373318 13.387431,40.373318 14.968001,38.791129 L 24.02537,29.724475 L 33.082739,38.791129 C 34.098471,39.836925 35.574592,40.237597 36.982431,39.861496 C 38.390283,39.485398 39.515623,38.378563 39.875754,36.965205 C 40.23589,35.551848 39.79948,34.066669 38.743591,33.061504 L 29.686224,23.994861 L 38.743591,14.928208 C 39.935365,13.774534 40.326688,11.98894 39.687066,10.457846 C 39.047445,8.9267536 37.507685,7.9632666 35.850269,8.0022946 C 34.7988,8.0438596 33.805394,8.4958756 33.082739,9.2615506 L 24.02537,18.328201 L 14.968001,9.2615506 C 14.214875,8.4652376 13.170101,8.0105236 12.074678,8.0022946 z"
       style="fill:#000000;fill-opacity:1;fill-rule:nonzero;stroke:none;stroke-width:1;stroke-linecap:round;stroke-linejoin:miter;marker:none;stroke-miterlimit:4;stroke-dasharray:none;stroke-dashoffset:0;stroke-opacity:1;visibility:visible;display:inline;overflow:visible" />
    <path
       style="fill:url(#linearGradient2524);fill-opacity:1"
       d="M 12.083695,8.0011526 C 10.437791,7.9885676 8.918032,9.0024086 8.2948201,10.527377 C 7.6716081,12.052345 8.059248,13.776159 9.2420389,14.921956 L 18.293241,24.000576 L 14.846417,27.447821 C 17.600916,28.165659 20.699007,28.579359 24.002866,28.579359 C 27.296896,28.579359 30.384536,28.161669 33.133003,27.447821 L 29.686179,24.000576 L 38.737382,14.921956 C 39.929152,13.768281 40.324222,11.979527 39.6846,10.448433 C 39.044978,8.9173396 37.500517,7.9621236 35.843102,8.0011526 C 34.791631,8.0427176 33.803035,8.4985896 33.08038,9.2642646 L 24.029177,18.316571 L 14.977976,9.2642646 C 14.224847,8.4679516 13.179118,8.0093816 12.083695,8.0011526 z"
       id="path2517" />
  </g>
</svg>
