<?xml version="1.0" encoding="UTF-8" standalone="no"?>
<!-- Created with Inkscape (http://www.inkscape.org/) -->
<svg
   xmlns:dc="http://purl.org/dc/elements/1.1/"
   xmlns:cc="http://creativecommons.org/ns#"
   xmlns:rdf="http://www.w3.org/1999/02/22-rdf-syntax-ns#"
   xmlns:svg="http://www.w3.org/2000/svg"
   xmlns="http://www.w3.org/2000/svg"
   xmlns:xlink="http://www.w3.org/1999/xlink"
   xmlns:sodipodi="http://sodipodi.sourceforge.net/DTD/sodipodi-0.dtd"
   xmlns:inkscape="http://www.inkscape.org/namespaces/inkscape"
   width="48px"
   height="48px"
   id="svg4289"
   sodipodi:version="0.32"
   inkscape:version="0.46"
   sodipodi:docbase="/home/lapo/Icone/cvs/gnome-icon-theme/scalable/categories"
   sodipodi:docname="edit-cut.svg"
   inkscape:output_extension="org.inkscape.output.svg.inkscape">
  <defs
     id="defs4291">
    <linearGradient
       id="linearGradient3155"
       inkscape:collect="always">
      <stop
         id="stop3157"
         offset="0"
         style="stop-color:#4d4d4d;stop-opacity:1;" />
      <stop
         id="stop3159"
         offset="1"
         style="stop-color:#4d4d4d;stop-opacity:0;" />
    </linearGradient>
    <linearGradient
       inkscape:collect="always"
       xlink:href="#linearGradient3155"
       id="linearGradient2454"
       gradientUnits="userSpaceOnUse"
       x1="325.71429"
       y1="369.50507"
       x2="325.71429"
       y2="546.64789"
       gradientTransform="matrix(0.1377049,0,0,0.1377049,-20.852457,-45.850258)" />
    <linearGradient
       inkscape:collect="always"
       id="linearGradient3174">
      <stop
         style="stop-color:#4d4d4d;stop-opacity:1;"
         offset="0"
         id="stop3176" />
      <stop
         style="stop-color:#4d4d4d;stop-opacity:0;"
         offset="1"
         id="stop3178" />
    </linearGradient>
    <linearGradient
       inkscape:collect="always"
       id="linearGradient3163">
      <stop
         style="stop-color:#4d4d4d;stop-opacity:1;"
         offset="0"
         id="stop3165" />
      <stop
         style="stop-color:#4d4d4d;stop-opacity:0;"
         offset="1"
         id="stop3167" />
    </linearGradient>
    <linearGradient
       inkscape:collect="always"
       xlink:href="#linearGradient3163"
       id="linearGradient3169"
       x1="11.855508"
       y1="1.0092847"
       x2="11.936475"
       y2="46.509525"
       gradientUnits="userSpaceOnUse" />
    <linearGradient
       inkscape:collect="always"
       xlink:href="#linearGradient3174"
       id="linearGradient3180"
       x1="11.584145"
       y1="1.0829222"
       x2="11.649275"
       y2="46.523308"
       gradientUnits="userSpaceOnUse" />
    <linearGradient
       inkscape:collect="always"
       xlink:href="#linearGradient3174"
       id="linearGradient2575"
       gradientUnits="userSpaceOnUse"
       x1="11.584145"
       y1="1.0829222"
       x2="11.649275"
       y2="46.523308" />
    <linearGradient
       inkscape:collect="always"
       xlink:href="#linearGradient3163"
       id="linearGradient2577"
       gradientUnits="userSpaceOnUse"
       x1="11.855508"
       y1="1.0092847"
       x2="11.936475"
       y2="46.509525" />
    <linearGradient
       inkscape:collect="always"
       xlink:href="#linearGradient3163"
       id="linearGradient2580"
       gradientUnits="userSpaceOnUse"
       x1="11.855508"
       y1="1.0092847"
       x2="11.936475"
       y2="46.509525"
       gradientTransform="matrix(0.7291667,0,0,0.7291667,-26.635837,38.055588)" />
    <linearGradient
       inkscape:collect="always"
       xlink:href="#linearGradient3174"
       id="linearGradient2583"
       gradientUnits="userSpaceOnUse"
       x1="11.584145"
       y1="1.0829222"
       x2="11.649275"
       y2="46.523308"
       gradientTransform="matrix(0.7291667,0,0,0.7291667,-26.635837,38.055588)" />
    <linearGradient
       inkscape:collect="always"
       xlink:href="#linearGradient3155"
       id="linearGradient2598"
       gradientUnits="userSpaceOnUse"
       gradientTransform="matrix(0.1377049,0,0,0.1377049,29.147543,-45.850258)"
       x1="325.71429"
       y1="369.50507"
       x2="325.71429"
       y2="546.64789" />
    <linearGradient
       inkscape:collect="always"
       xlink:href="#linearGradient3155"
       id="linearGradient2604"
       gradientUnits="userSpaceOnUse"
       gradientTransform="matrix(0.1377049,0,0,0.1377049,-20.852895,-45.850258)"
       x1="325.71429"
       y1="369.50507"
       x2="325.71429"
       y2="546.64789" />
  </defs>
  <sodipodi:namedview
     id="base"
     pagecolor="#ffffff"
     bordercolor="#666"
     borderopacity="0.31372549"
     inkscape:pageopacity="0.0"
     inkscape:pageshadow="2"
     inkscape:zoom="5.656854"
     inkscape:cx="61.299243"
     inkscape:cy="10.27677"
     inkscape:current-layer="layer1"
     showgrid="true"
     inkscape:grid-bbox="true"
     inkscape:document-units="px"
     inkscape:window-width="1019"
     inkscape:window-height="732"
     inkscape:window-x="259"
     inkscape:window-y="19"
     inkscape:showpageshadow="false" />
  <metadata
     id="metadata4294">
    <rdf:RDF>
      <cc:Work
         rdf:about="">
        <dc:format>image/svg+xml</dc:format>
        <dc:type
           rdf:resource="http://purl.org/dc/dcmitype/StillImage" />
        <dc:title>System Preferences</dc:title>
        <dc:creator>
          <cc:Agent>
            <dc:title>Andreas Nilsson</dc:title>
          </cc:Agent>
        </dc:creator>
        <dc:subject>
          <rdf:Bag>
            <rdf:li>category</rdf:li>
            <rdf:li>system</rdf:li>
            <rdf:li>preferences</rdf:li>
            <rdf:li>settings</rdf:li>
            <rdf:li>control center</rdf:li>
          </rdf:Bag>
        </dc:subject>
        <dc:contributor>
          <cc:Agent>
            <dc:title>Jakub Steiner</dc:title>
          </cc:Agent>
        </dc:contributor>
        <cc:license
           rdf:resource="http://creativecommons.org/licenses/GPL/2.0/" />
      </cc:Work>
      <cc:License
         rdf:about="http://creativecommons.org/licenses/GPL/2.0/">
        <cc:permits
           rdf:resource="http://web.resource.org/cc/Reproduction" />
        <cc:permits
           rdf:resource="http://web.resource.org/cc/Distribution" />
        <cc:requires
           rdf:resource="http://web.resource.org/cc/Notice" />
        <cc:permits
           rdf:resource="http://web.resource.org/cc/DerivativeWorks" />
        <cc:requires
           rdf:resource="http://web.resource.org/cc/ShareAlike" />
        <cc:requires
           rdf:resource="http://web.resource.org/cc/SourceCode" />
      </cc:License>
    </rdf:RDF>
  </metadata>
  <g
     id="layer1"
     inkscape:label="Layer 1"
     inkscape:groupmode="layer">
    <g
       id="g2453"
       inkscape:label="Calque 1"
       transform="matrix(0.1337942,0,0,0.1337942,-18.472238,-41.04701)" />
    <g
       id="Layer_x0020_4"
       style="fill:#000000;fill-opacity:1;fill-rule:nonzero;stroke:#000000;stroke-width:0.81959248;stroke-miterlimit:4"
       transform="matrix(0.8804946,0,0,0.8533405,2.8087013,5.8747757)">
      <g
         id="g5"
         style="fill:#000000;fill-opacity:1;stroke-width:0.81959248">
        <path
           style="fill:#000000;fill-opacity:1;stroke:none"
           d="M 38.16734,28.690161 C 36.86734,27.290161 35.16734,26.590161 33.26734,26.590161 C 31.96734,26.590161 30.66734,26.990161 29.56734,27.690161 L 26.86734,23.290161 C 29.76734,21.290161 33.76734,18.090161 36.46734,13.290161 C 40.36734,6.4901614 34.06734,2.5901614 34.06734,2.5901614 L 24.06734,18.690161 L 14.06734,2.4901614 C 14.06734,2.4901614 7.7673399,6.3901614 11.66734,13.190161 C 14.36734,17.890161 18.46734,21.290161 21.36734,23.190161 L 18.56734,27.690161 C 17.46734,26.990161 16.26734,26.590161 14.86734,26.590161 C 12.96734,26.590161 11.16734,27.390161 9.9673399,28.690161 C 8.7673399,29.890161 8.1673399,31.590161 8.1673399,33.290161 C 8.1673399,34.990161 8.7673399,36.690161 9.9673399,37.890161 C 11.26734,39.290161 12.96734,39.990161 14.86734,39.990161 C 16.76734,39.990161 18.56734,39.190161 19.76734,37.890161 C 20.96734,36.690161 21.46734,34.890161 21.56734,33.290161 C 21.66734,31.690161 23.06734,25.290161 23.06734,25.290161 C 23.06734,25.290161 23.46734,25.090161 24.16734,24.690161 C 24.76734,25.190161 25.06734,25.290161 25.06734,25.290161 C 25.06734,25.290161 26.46734,31.590161 26.56734,33.290161 C 26.66734,34.890161 27.16734,36.690161 28.36734,37.890161 C 29.66734,39.290161 31.36734,39.990161 33.26734,39.990161 C 35.16734,39.990161 36.96734,39.190161 38.16734,37.890161 C 39.36734,36.690161 39.96734,34.990161 39.96734,33.290161 C 39.96734,31.590161 39.36734,29.890161 38.16734,28.690161 z M 17.36734,36.790161 C 16.96734,37.190161 16.06734,37.990161 14.86734,37.990161 C 13.66734,37.990161 12.76734,37.190161 12.36734,36.790161 C 11.56734,35.890161 11.06734,34.690161 11.06734,33.390161 C 11.06734,32.090161 11.56734,30.890161 12.36734,29.990161 C 12.76734,29.590161 13.66734,28.790161 14.86734,28.790161 C 16.06734,28.790161 16.96734,29.590161 17.36734,29.990161 C 18.16734,30.890161 18.66734,32.090161 18.66734,33.390161 C 18.66734,34.690161 18.16734,35.890161 17.36734,36.790161 z M 35.76734,36.690161 C 35.36734,37.090161 34.46734,37.890161 33.26734,37.890161 C 32.06734,37.890161 31.16734,37.090161 30.76734,36.690161 C 29.96734,35.790161 29.46734,34.590161 29.46734,33.290161 C 29.46734,31.990161 29.96734,30.790161 30.76734,29.890161 C 31.16734,29.490161 32.06734,28.690161 33.26734,28.690161 C 34.46734,28.690161 35.36734,29.490161 35.76734,29.890161 C 36.56734,30.790161 37.06734,31.990161 37.06734,33.290161 C 37.06734,34.590161 36.56734,35.790161 35.76734,36.690161 z"
           id="path9" />
      </g>
    </g>
    <path
       style="fill:url(#linearGradient2604);fill-opacity:1"
       d="M 15.187062,8 C 15.187064,8.0000002 9.6593827,11.322285 13.093312,17.125 C 15.470648,21.135701 19.071128,24.034903 21.624562,25.65625 L 19.343312,29.1875 C 20.444573,29.298541 21.568661,29.375006 22.718312,29.40625 C 22.90682,28.533945 23.124562,27.46875 23.124562,27.46875 C 23.124561,27.46875 23.476966,27.278836 24.093312,26.9375 C 24.621608,27.36417 24.874562,27.46875 24.874562,27.46875 C 24.874563,27.46875 25.119574,28.524437 25.312062,29.40625 C 26.450873,29.374545 27.564565,29.297531 28.655812,29.1875 L 26.468312,25.75 C 29.021747,24.04332 32.528477,21.314785 34.905812,17.21875 C 38.339739,11.416034 32.812062,8.09375 32.812062,8.09375 L 23.999562,21.8125 L 15.187062,8 z M 15.905812,28.5625 C 15.717554,28.5625 15.528713,28.576825 15.343312,28.59375 C 16.313751,28.78586 17.316606,28.935332 18.343312,29.0625 C 17.597647,28.732667 16.804577,28.5625 15.905812,28.5625 z M 32.093312,28.5625 C 31.257892,28.5625 30.422771,28.732025 29.655812,29.0625 C 30.682518,28.935332 31.685374,28.78586 32.655812,28.59375 C 32.472265,28.578621 32.28157,28.5625 32.093312,28.5625 z"
       id="path2590" />
  </g>
</svg>
