<?xml version="1.0" encoding="UTF-8" standalone="no"?>
<!-- Created with Inkscape (http://www.inkscape.org/) -->

<svg
   xmlns:dc="http://purl.org/dc/elements/1.1/"
   xmlns:cc="http://creativecommons.org/ns#"
   xmlns:rdf="http://www.w3.org/1999/02/22-rdf-syntax-ns#"
   xmlns:svg="http://www.w3.org/2000/svg"
   xmlns="http://www.w3.org/2000/svg"
   xmlns:xlink="http://www.w3.org/1999/xlink"
   xmlns:sodipodi="http://sodipodi.sourceforge.net/DTD/sodipodi-0.dtd"
   xmlns:inkscape="http://www.inkscape.org/namespaces/inkscape"
   width="48px"
   height="48px"
   id="svg2823"
   version="1.1"
   inkscape:version="0.47 r22583"
   sodipodi:docname="accessories-text-editor.svg">
  <defs
     id="defs2825">
    <linearGradient
       id="linearGradient4321">
      <stop
         style="stop-color:#000000;stop-opacity:1.0;"
         offset="0"
         id="stop1" />
      <stop
         style="stop-color:#000000;stop-opacity:1.0;"
         offset="1"
         id="stop2" />
    </linearGradient>
    <linearGradient
       gradientTransform="matrix(0.63076692,-0.0024591,0.0024591,0.63076692,2.6308851,14.995133)"
       gradientUnits="userSpaceOnUse"
       y2="46.000001"
       x2="46"
       y1="2.000001"
       x1="2"
       id="linearGradient2850"
       xlink:href="#linearGradient4321"
       inkscape:collect="always" />
    <linearGradient
       gradientUnits="userSpaceOnUse"
       y2="21.132059"
       x2="22.892584"
       y1="0.90414524"
       x1="22.892584"
       id="linearGradient3178-4"
       xlink:href="#linearGradient3172-4"
       inkscape:collect="always" />
    <linearGradient
       id="linearGradient3172-4">
      <stop
         id="stop3174-4"
         offset="0"
         style="stop-color:#4d4d4d;stop-opacity:1;" />
      <stop
         id="stop3176-4"
         offset="1"
         style="stop-color:#4d4d4d;stop-opacity:0;" />
    </linearGradient>
    <linearGradient
       inkscape:collect="always"
       xlink:href="#linearGradient4321"
       id="linearGradient2937"
       gradientUnits="userSpaceOnUse"
       gradientTransform="matrix(0.63076692,0.0024591,0.0024591,-0.63076692,52.630885,33.004892)"
       x1="2"
       y1="2.000001"
       x2="46"
       y2="46.000001" />
    <linearGradient
       inkscape:collect="always"
       xlink:href="#linearGradient3172-4"
       id="linearGradient2939"
       gradientUnits="userSpaceOnUse"
       x1="22.892584"
       y1="0.90414524"
       x2="22.892584"
       y2="21.132059" />
    <linearGradient
       inkscape:collect="always"
       xlink:href="#linearGradient3172-4"
       id="linearGradient2944"
       gradientUnits="userSpaceOnUse"
       x1="22.892584"
       y1="0.90414524"
       x2="22.892584"
       y2="21.132059"
       gradientTransform="matrix(0.644962,0,0,-1.1832362,59.235153,43.983663)" />
    <linearGradient
       inkscape:collect="always"
       xlink:href="#linearGradient3172-4"
       id="linearGradient2947"
       gradientUnits="userSpaceOnUse"
       gradientTransform="matrix(0.644962,0,0,1.1832362,9.234653,4.0163616)"
       x1="22.892584"
       y1="0.90414524"
       x2="22.892584"
       y2="21.132059" />
  </defs>
  <sodipodi:namedview
     id="base"
     pagecolor="#ffffff"
     bordercolor="#666666"
     borderopacity="1.0"
     inkscape:pageopacity="0.0"
     inkscape:pageshadow="2"
     inkscape:zoom="7"
     inkscape:cx="24"
     inkscape:cy="24"
     inkscape:current-layer="layer1"
     showgrid="true"
     inkscape:grid-bbox="true"
     inkscape:document-units="px"
     inkscape:window-width="1364"
     inkscape:window-height="721"
     inkscape:window-x="0"
     inkscape:window-y="23"
     inkscape:window-maximized="1" />
  <metadata
     id="metadata2828">
    <rdf:RDF>
      <cc:Work
         rdf:about="">
        <dc:format>image/svg+xml</dc:format>
        <dc:type
           rdf:resource="http://purl.org/dc/dcmitype/StillImage" />
        <dc:title />
      </cc:Work>
    </rdf:RDF>
  </metadata>
  <g
     id="layer1"
     inkscape:label="Layer 1"
     inkscape:groupmode="layer">
    <path
       d="m 36.263731,4.0000506 c -0.373887,0.0015 -0.743857,0.142424 -1.027971,0.420769 L 7.5108046,31.769299 c -0.15128,0.161495 -0.261123,0.353164 -0.322969,0.563081 l -3.1229773,9.83498 c -0.1274065,0.39927 -0.064745,0.825346 0.1671727,1.177361 0.2319192,0.352017 0.6056742,0.593644 1.0322143,0.648413 0.247044,0.02426 0.494064,-0.01616 0.7221531,-0.111555 l 8.9468056,-3.405806 c 0.176773,-0.07505 0.334955,-0.192696 0.468403,-0.328045 L 43.613151,12.489212 c 0.568578,-0.556354 0.484666,-1.380549 -0.08825,-1.932436 L 37.393715,4.3333666 C 37.107444,4.0572426 36.63762,3.9985936 36.263731,4.0000506 z M 8.4368236,32.979944 l 3.1445484,0.332084 2.792447,2.689479 0.353751,2.698986 -5.7889964,2.505457 -2.3214981,-2.365099 1.8197481,-5.860907 z"
       id="path16"
       style="fill:url(#linearGradient2850);fill-opacity:1;fill-rule:nonzero;stroke:none;filter:url(#filter1111)"
       sodipodi:nodetypes="cccccsscccccccccccccc" />
    <g
       id="g2453"
       inkscape:label="Calque 1"
       transform="matrix(0.1337942,0,0,-0.1337942,-18.472238,89.04701)" />
    <g
       id="g2615"
       inkscape:label="Calque 1"
       transform="matrix(0.1672428,0,0,-0.1672428,-11.557084,104.62323)" />
    <path
       style="fill:url(#linearGradient2947);fill-opacity:1;stroke:none"
       d="m 23.9995,29.656275 c -4.561886,0 -8.804629,-0.708283 -12.4375,-1.875 L 35.2495,4.4062746 c 0.284114,-0.278345 0.626113,-0.40475 1,-0.40625 0.373889,-0.0015 0.869979,0.06763 1.15625,0.34375 l 6.125,6.2187504 c 0.572916,0.551887 0.662328,1.381146 0.09375,1.9375 L 26.187,29.593775 c -0.725968,0.03491 -1.444367,0.0625 -2.1875,0.0625 z"
       id="path2931" />
    <g
       transform="matrix(0.1337942,0,0,-0.1337942,31.527762,89.04701)"
       inkscape:label="Calque 1"
       id="g2933" />
    <g
       transform="matrix(0.1672428,0,0,-0.1672428,38.442916,104.62323)"
       inkscape:label="Calque 1"
       id="g2935" />
  </g>
</svg>
