<?xml version="1.0" encoding="UTF-8" standalone="no"?>
<!-- Created with Inkscape (http://www.inkscape.org/) -->

<svg
   xmlns:dc="http://purl.org/dc/elements/1.1/"
   xmlns:cc="http://creativecommons.org/ns#"
   xmlns:rdf="http://www.w3.org/1999/02/22-rdf-syntax-ns#"
   xmlns:svg="http://www.w3.org/2000/svg"
   xmlns="http://www.w3.org/2000/svg"
   xmlns:xlink="http://www.w3.org/1999/xlink"
   xmlns:sodipodi="http://sodipodi.sourceforge.net/DTD/sodipodi-0.dtd"
   xmlns:inkscape="http://www.inkscape.org/namespaces/inkscape"
   width="48px"
   height="48px"
   id="svg3646"
   version="1.1"
   inkscape:version="0.47 r22583"
   sodipodi:docname="time.svg">
  <defs
     id="defs3648">
    <linearGradient
       id="linearGradient4321">
      <stop
         style="stop-color:#000000;stop-opacity:1.0;"
         offset="0"
         id="stop1" />
      <stop
         style="stop-color:#000000;stop-opacity:1.0;"
         offset="1"
         id="stop2" />
    </linearGradient>
    <linearGradient
       inkscape:collect="always"
       xlink:href="#linearGradient4321"
       id="linearGradient3626"
       gradientUnits="userSpaceOnUse"
       gradientTransform="matrix(0.85743212,0,0,0.85743212,3.5823976,2.018796)"
       x1="4"
       y1="4"
       x2="44"
       y2="44" />
    <linearGradient
       gradientUnits="userSpaceOnUse"
       y2="21.132059"
       x2="22.892584"
       y1="0.90414524"
       x1="22.892584"
       id="linearGradient3178-8"
       xlink:href="#linearGradient3172-8"
       inkscape:collect="always" />
    <linearGradient
       id="linearGradient3172-8">
      <stop
         id="stop3174-7"
         offset="0"
         style="stop-color:#4d4d4d;stop-opacity:1;" />
      <stop
         id="stop3176-0"
         offset="1"
         style="stop-color:#4d4d4d;stop-opacity:0;" />
    </linearGradient>
    <linearGradient
       inkscape:collect="always"
       xlink:href="#linearGradient4321"
       id="linearGradient3736"
       gradientUnits="userSpaceOnUse"
       gradientTransform="matrix(0.85743212,0,0,-0.85743212,53.582398,45.981204)"
       x1="4"
       y1="4"
       x2="44"
       y2="44" />
    <linearGradient
       inkscape:collect="always"
       xlink:href="#linearGradient3172-8"
       id="linearGradient3738"
       gradientUnits="userSpaceOnUse"
       x1="22.892584"
       y1="0.90414524"
       x2="22.892584"
       y2="21.132059" />
    <linearGradient
       inkscape:collect="always"
       xlink:href="#linearGradient3172-8"
       id="linearGradient3743"
       gradientUnits="userSpaceOnUse"
       x1="22.892584"
       y1="0.90414524"
       x2="22.892584"
       y2="21.132059"
       gradientTransform="matrix(0.644962,0,0,-1.1832362,59.235153,43.983663)" />
    <linearGradient
       inkscape:collect="always"
       xlink:href="#linearGradient3172-8"
       id="linearGradient3746"
       gradientUnits="userSpaceOnUse"
       gradientTransform="matrix(0.644962,0,0,1.1832362,9.2351601,4.016337)"
       x1="22.892584"
       y1="0.90414524"
       x2="22.892584"
       y2="21.132059" />
  </defs>
  <sodipodi:namedview
     id="base"
     pagecolor="#ffffff"
     bordercolor="#666666"
     borderopacity="1.0"
     inkscape:pageopacity="0.0"
     inkscape:pageshadow="2"
     inkscape:zoom="3.5"
     inkscape:cx="12.361137"
     inkscape:cy="31.277642"
     inkscape:current-layer="layer1"
     showgrid="true"
     inkscape:grid-bbox="true"
     inkscape:document-units="px"
     inkscape:window-width="1364"
     inkscape:window-height="721"
     inkscape:window-x="0"
     inkscape:window-y="23"
     inkscape:window-maximized="1" />
  <metadata
     id="metadata3651">
    <rdf:RDF>
      <cc:Work
         rdf:about="">
        <dc:format>image/svg+xml</dc:format>
        <dc:type
           rdf:resource="http://purl.org/dc/dcmitype/StillImage" />
        <dc:title />
      </cc:Work>
    </rdf:RDF>
  </metadata>
  <g
     id="layer1"
     inkscape:label="Layer 1"
     inkscape:groupmode="layer">
    <path
       style="fill:url(#linearGradient3626);fill-opacity:1;fill-rule:evenodd;stroke:none;filter:url(#filter1111)"
       d="m 24,4 c -11.005539,1e-6 -20,8.993361 -20,20 0,11.00664 8.993361,20 20,20 11.006637,-10e-7 20.000002,-8.994459 20,-20 -2e-6,-11.005538 -8.994461,-20 -20,-20 z m -0.02841,2.613636 c 9.576514,0 17.386364,7.80985 17.386364,17.386364 0,9.576513 -7.80985,17.386364 -17.386364,17.386364 -9.576513,0 -17.3295455,-7.809851 -17.3295455,-17.386364 0,-9.576514 7.7530325,-17.386364 17.3295455,-17.386364 z m 0,1.875 C 15.377695,8.488636 8.4602263,15.406105 8.4602263,24 c 0,8.593895 6.9174687,15.511364 15.5113637,15.511364 8.593894,0 15.568182,-6.917469 15.568182,-15.511364 0,-8.593895 -6.974288,-15.511364 -15.568182,-15.511364 z m -0.681818,3.295455 0.823863,0 1.676137,11.051136 4.801136,7.215909 -0.625,0.625 -7.727273,-5.482954 c -0.07974,-0.08056 -0.139223,-0.192931 -0.198863,-0.284091 -0.007,-0.01059 -0.02181,-0.01768 -0.02841,-0.02841 -0.228881,-0.281454 -0.397728,-0.658446 -0.397728,-1.051137 L 23.289773,11.784091 z M 24,22.636364 c -0.743925,0 -1.363636,0.619711 -1.363636,1.363636 0,0.743926 0.619711,1.363636 1.363636,1.363636 0.743926,0 1.363636,-0.61971 1.363636,-1.363636 0,-0.743925 -0.61971,-1.363636 -1.363636,-1.363636 z"
       id="path1552" />
    <g
       transform="matrix(0.1337942,0,0,-0.1337942,31.527762,89.04701)"
       inkscape:label="Calque 1"
       id="g3802" />
    <g
       transform="matrix(0.1672428,0,0,-0.1672428,38.442916,104.62323)"
       inkscape:label="Calque 1"
       id="g3804" />
    <path
       style="fill:url(#linearGradient3746);fill-opacity:1;stroke:none"
       d="m 24.000007,29.65625 c -5.808305,0 -11.128278,-1.09361 -15.2812499,-2.90625 -0.159531,-0.895372 -0.25,-1.807373 -0.25,-2.75 0,-8.593895 6.9061049,-15.5 15.4999999,-15.5 8.593894,0 15.5625,6.906105 15.5625,15.5 0,0.942627 -0.08925,1.854628 -0.25,2.75 -2.660969,1.161428 -5.806819,1.997383 -9.25,2.46875 l -4.25,-6.375 -1.65625,-11.0625 -0.84375,0 -1.65625,12.0625 c 0,0.392691 0.146119,0.749796 0.375,1.03125 0.0066,0.01073 0.02425,0.02066 0.03125,0.03125 0.05964,0.09116 0.13901,0.20069 0.21875,0.28125 l 5.96875,4.25 c -1.371098,0.128505 -2.777991,0.21875 -4.21875,0.21875 z M 6.7187571,25.75 c -0.995375,-0.545421 -1.920217,-1.11767 -2.71875,-1.75 0,-0.01041 -1.6e-5,-0.02084 0,-0.03125 C 4.0170041,12.976337 13.00488,4.000001 24.000007,4 c 10.995127,0 19.983001,8.977432 20,19.96875 -0.0056,0.0044 0.0056,0.02684 0,0.03125 -0.798533,0.63233 -1.723375,1.204579 -2.71875,1.75 0.0575,-0.573323 0.0625,-1.161956 0.0625,-1.75 0,-9.576514 -7.798486,-17.375 -17.375,-17.375 -9.576513,0 -17.3124999,7.798486 -17.3124999,17.375 0,0.588044 0.00541,1.176677 0.0625,1.75 z M 24.000007,25.375 c -0.743925,0 -1.375,-0.631074 -1.375,-1.375 0,-0.743925 0.631075,-1.375 1.375,-1.375 0.743926,0 1.375,0.631075 1.375,1.375 0,0.743926 -0.631074,1.375 -1.375,1.375 z"
       id="path3730" />
    <g
       transform="matrix(0.1337942,0,0,-0.1337942,31.527762,89.04701)"
       inkscape:label="Calque 1"
       id="g3732" />
    <g
       transform="matrix(0.1672428,0,0,-0.1672428,38.442916,104.62323)"
       inkscape:label="Calque 1"
       id="g3734" />
  </g>
</svg>
