<?xml version="1.0" encoding="UTF-8" standalone="no"?>
<!-- Created with Inkscape (http://www.inkscape.org/) -->
<svg
   xmlns:dc="http://purl.org/dc/elements/1.1/"
   xmlns:cc="http://creativecommons.org/ns#"
   xmlns:rdf="http://www.w3.org/1999/02/22-rdf-syntax-ns#"
   xmlns:svg="http://www.w3.org/2000/svg"
   xmlns="http://www.w3.org/2000/svg"
   xmlns:xlink="http://www.w3.org/1999/xlink"
   xmlns:sodipodi="http://sodipodi.sourceforge.net/DTD/sodipodi-0.dtd"
   xmlns:inkscape="http://www.inkscape.org/namespaces/inkscape"
   width="48px"
   height="48px"
   id="svg4289"
   sodipodi:version="0.32"
   inkscape:version="0.46"
   sodipodi:docbase="/home/lapo/Icone/cvs/gnome-icon-theme/scalable/categories"
   sodipodi:docname="add.svg"
   inkscape:output_extension="org.inkscape.output.svg.inkscape">
  <defs
     id="defs4291">
    <linearGradient
       id="linearGradient3155"
       inkscape:collect="always">
      <stop
         id="stop3157"
         offset="0"
         style="stop-color:#4d4d4d;stop-opacity:1;" />
      <stop
         id="stop3159"
         offset="1"
         style="stop-color:#4d4d4d;stop-opacity:0;" />
    </linearGradient>
    <linearGradient
       inkscape:collect="always"
       xlink:href="#linearGradient3155"
       id="linearGradient2603"
       gradientUnits="userSpaceOnUse"
       gradientTransform="matrix(0.1377043,0,0,0.1378059,-20.852824,-45.913204)"
       x1="325.71429"
       y1="369.50507"
       x2="325.71429"
       y2="546.64789" />
  </defs>
  <sodipodi:namedview
     id="base"
     pagecolor="#ffffff"
     bordercolor="#666"
     borderopacity="0.31372549"
     inkscape:pageopacity="0.0"
     inkscape:pageshadow="2"
     inkscape:zoom="5.656854"
     inkscape:cx="37.533214"
     inkscape:cy="12.243402"
     inkscape:current-layer="layer1"
     showgrid="true"
     inkscape:grid-bbox="true"
     inkscape:document-units="px"
     inkscape:window-width="1019"
     inkscape:window-height="732"
     inkscape:window-x="259"
     inkscape:window-y="24"
     inkscape:showpageshadow="false" />
  <metadata
     id="metadata4294">
    <rdf:RDF>
      <cc:Work
         rdf:about="">
        <dc:format>image/svg+xml</dc:format>
        <dc:type
           rdf:resource="http://purl.org/dc/dcmitype/StillImage" />
        <dc:title>System Preferences</dc:title>
        <dc:creator>
          <cc:Agent>
            <dc:title>Andreas Nilsson</dc:title>
          </cc:Agent>
        </dc:creator>
        <dc:subject>
          <rdf:Bag>
            <rdf:li>category</rdf:li>
            <rdf:li>system</rdf:li>
            <rdf:li>preferences</rdf:li>
            <rdf:li>settings</rdf:li>
            <rdf:li>control center</rdf:li>
          </rdf:Bag>
        </dc:subject>
        <dc:contributor>
          <cc:Agent>
            <dc:title>Jakub Steiner</dc:title>
          </cc:Agent>
        </dc:contributor>
        <cc:license
           rdf:resource="http://creativecommons.org/licenses/GPL/2.0/" />
      </cc:Work>
      <cc:License
         rdf:about="http://creativecommons.org/licenses/GPL/2.0/">
        <cc:permits
           rdf:resource="http://web.resource.org/cc/Reproduction" />
        <cc:permits
           rdf:resource="http://web.resource.org/cc/Distribution" />
        <cc:requires
           rdf:resource="http://web.resource.org/cc/Notice" />
        <cc:permits
           rdf:resource="http://web.resource.org/cc/DerivativeWorks" />
        <cc:requires
           rdf:resource="http://web.resource.org/cc/ShareAlike" />
        <cc:requires
           rdf:resource="http://web.resource.org/cc/SourceCode" />
      </cc:License>
    </rdf:RDF>
  </metadata>
  <g
     id="layer1"
     inkscape:label="Layer 1"
     inkscape:groupmode="layer">
    <g
       id="g2453"
       inkscape:label="Calque 1"
       transform="matrix(0.1337942,0,0,0.1337942,-18.472238,-41.04701)" />
    <g
       inkscape:label="Layer 1"
       id="g2576"
       transform="matrix(0.9999956,0,0,1.0007332,3.5218426e-5,-2.9327807e-2)">
      <g
         transform="matrix(0.1337942,0,0,0.1337942,-18.472238,-41.04701)"
         inkscape:label="Calque 1"
         id="g2578" />
      <g
         transform="matrix(0.1337942,0,0,0.1337942,-19.316625,-37.918384)"
         inkscape:label="Calque 1"
         id="g2547" />
      <path
         style="fill:#000000;fill-opacity:1;fill-rule:nonzero;stroke:none;stroke-width:1;stroke-linecap:round;stroke-linejoin:miter;marker:none;stroke-miterlimit:4;stroke-dasharray:none;stroke-dashoffset:0;stroke-opacity:1;visibility:visible;display:inline;overflow:visible"
         d="M 8.9173546,21.860225 C 8.0217568,22.743505 7.7526993,24.100021 8.2399866,25.25969 C 8.7272734,26.419358 9.8727515,27.148589 11.130454,27.127065 L 20.919515,27.120077 L 20.926505,36.909133 C 20.927723,38.617388 22.313533,40.00122 24.021788,39.999999 C 25.730044,39.998779 27.113869,38.612975 27.112649,36.90472 L 27.105656,27.115657 L 36.894718,27.108669 C 38.008184,27.12354 39.021752,26.54143 39.578814,25.577214 C 40.135886,24.612991 40.145637,23.407346 39.57658,22.450154 C 39.007525,21.49296 37.969531,20.927777 36.85633,20.956538 L 27.067273,20.963532 L 27.060279,11.17447 C 27.080602,9.9076312 26.327297,8.7327682 25.154764,8.2527072 C 23.98223,7.7726472 22.630251,8.0855602 21.756319,9.0029082 C 21.210976,9.5939422 20.91872,10.374995 20.942117,11.178837 L 20.949109,20.967899 L 11.160049,20.974889 C 10.323167,20.95259 9.5133351,21.272284 8.9173546,21.860225 z"
         id="path3825" />
    </g>
    <path
       style="fill:url(#linearGradient2603);fill-opacity:1"
       d="M 23.780685,8.0078103 C 23.021527,8.0629493 22.295649,8.4035083 21.749444,8.9772713 C 21.204106,9.5687383 20.913551,10.361943 20.936948,11.166374 L 20.936948,20.954796 L 11.155741,20.954796 C 10.318862,20.932479 9.5017287,21.273337 8.9057513,21.86171 C 8.0101573,22.745637 7.7622184,24.078665 8.2495043,25.239185 C 8.7367891,26.399704 9.8667943,27.137099 11.124491,27.115559 L 20.905698,27.115559 L 20.905698,29.304663 C 21.92405,29.371786 22.945318,29.429754 23.999434,29.429754 C 25.053551,29.429754 26.074819,29.371786 27.093171,29.304663 L 27.093171,27.115559 L 36.905627,27.084286 C 38.019092,27.099169 39.036056,26.516838 39.593115,25.551914 C 40.150187,24.586985 40.13092,23.382517 39.561866,22.424622 C 38.992817,21.466728 37.956323,20.926013 36.843127,20.954796 L 27.061921,20.954796 L 27.061921,11.166374 C 27.082243,9.8986073 26.328207,8.7071343 25.155679,8.2267213 C 24.715981,8.0465663 24.23618,7.9747273 23.780685,8.0078103 z"
       id="path2584" />
    <g
       transform="matrix(0.1337942,0,0,0.1337942,31.527762,-41.04701)"
       inkscape:label="Calque 1"
       id="g2588" />
    <g
       transform="matrix(0.1337942,0,0,0.1337942,30.683375,-37.918384)"
       inkscape:label="Calque 1"
       id="g2590" />
  </g>
</svg>
