<?xml version="1.0" encoding="UTF-8" standalone="no"?>
<!-- Created with Inkscape (http://www.inkscape.org/) -->
<svg
   xmlns:dc="http://purl.org/dc/elements/1.1/"
   xmlns:cc="http://creativecommons.org/ns#"
   xmlns:rdf="http://www.w3.org/1999/02/22-rdf-syntax-ns#"
   xmlns:svg="http://www.w3.org/2000/svg"
   xmlns="http://www.w3.org/2000/svg"
   xmlns:xlink="http://www.w3.org/1999/xlink"
   xmlns:sodipodi="http://sodipodi.sourceforge.net/DTD/sodipodi-0.dtd"
   xmlns:inkscape="http://www.inkscape.org/namespaces/inkscape"
   width="48px"
   height="48px"
   id="svg4289"
   sodipodi:version="0.32"
   inkscape:version="0.46"
   sodipodi:docbase="/home/lapo/Icone/cvs/gnome-icon-theme/scalable/categories"
   sodipodi:docname="edit-find.svg"
   inkscape:output_extension="org.inkscape.output.svg.inkscape">
  <defs
     id="defs4291">
    <linearGradient
       id="linearGradient3155"
       inkscape:collect="always">
      <stop
         id="stop3157"
         offset="0"
         style="stop-color:#4d4d4d;stop-opacity:1;" />
      <stop
         id="stop3159"
         offset="1"
         style="stop-color:#4d4d4d;stop-opacity:0;" />
    </linearGradient>
    <linearGradient
       inkscape:collect="always"
       xlink:href="#linearGradient3155"
       id="linearGradient2534"
       gradientUnits="userSpaceOnUse"
       gradientTransform="matrix(0.1721311,0,0,0.1721311,-32.065572,-63.312823)"
       x1="325.71429"
       y1="369.50507"
       x2="325.71429"
       y2="546.64789" />
  </defs>
  <sodipodi:namedview
     id="base"
     pagecolor="#ffffff"
     bordercolor="#666"
     borderopacity="0.31372549"
     inkscape:pageopacity="0.0"
     inkscape:pageshadow="2"
     inkscape:zoom="5.656854"
     inkscape:cx="50.908217"
     inkscape:cy="21.248073"
     inkscape:current-layer="layer1"
     showgrid="true"
     inkscape:grid-bbox="true"
     inkscape:document-units="px"
     inkscape:window-width="1019"
     inkscape:window-height="732"
     inkscape:window-x="259"
     inkscape:window-y="24"
     inkscape:showpageshadow="false" />
  <metadata
     id="metadata4294">
    <rdf:RDF>
      <cc:Work
         rdf:about="">
        <dc:format>image/svg+xml</dc:format>
        <dc:type
           rdf:resource="http://purl.org/dc/dcmitype/StillImage" />
        <dc:title>System Preferences</dc:title>
        <dc:creator>
          <cc:Agent>
            <dc:title>Andreas Nilsson</dc:title>
          </cc:Agent>
        </dc:creator>
        <dc:subject>
          <rdf:Bag>
            <rdf:li>category</rdf:li>
            <rdf:li>system</rdf:li>
            <rdf:li>preferences</rdf:li>
            <rdf:li>settings</rdf:li>
            <rdf:li>control center</rdf:li>
          </rdf:Bag>
        </dc:subject>
        <dc:contributor>
          <cc:Agent>
            <dc:title>Jakub Steiner</dc:title>
          </cc:Agent>
        </dc:contributor>
        <cc:license
           rdf:resource="http://creativecommons.org/licenses/GPL/2.0/" />
      </cc:Work>
      <cc:License
         rdf:about="http://creativecommons.org/licenses/GPL/2.0/">
        <cc:permits
           rdf:resource="http://web.resource.org/cc/Reproduction" />
        <cc:permits
           rdf:resource="http://web.resource.org/cc/Distribution" />
        <cc:requires
           rdf:resource="http://web.resource.org/cc/Notice" />
        <cc:permits
           rdf:resource="http://web.resource.org/cc/DerivativeWorks" />
        <cc:requires
           rdf:resource="http://web.resource.org/cc/ShareAlike" />
        <cc:requires
           rdf:resource="http://web.resource.org/cc/SourceCode" />
      </cc:License>
    </rdf:RDF>
  </metadata>
  <g
     id="layer1"
     inkscape:label="Layer 1"
     inkscape:groupmode="layer">
    <g
       id="g2453"
       inkscape:label="Calque 1"
       transform="matrix(0.1337942,0,0,0.1337942,-18.472238,-41.04701)" />
    <path
       style="fill:#000000;fill-opacity:1;stroke:none;stroke-width:4;stroke-linecap:round;stroke-linejoin:round;stroke-miterlimit:4;stroke-dasharray:none;stroke-opacity:1"
       d="M 19.987613,4.0000003 C 11.151164,4.0000003 4.0000013,11.148467 4,19.956402 C 4,28.764336 11.151163,35.912805 19.987613,35.912805 C 23.941028,35.912805 27.552939,34.483711 30.350668,32.115489 L 31.506399,35.912805 L 38.517834,43.392369 C 39.000548,43.907895 41.218003,44.656683 42.98666,42.893731 C 44.487413,41.397819 44.021063,38.902414 43.487475,38.405994 L 36.013749,31.425067 L 32.238361,30.274365 C 34.600597,27.496835 36.013749,23.878949 36.013749,19.956402 C 36.013749,11.148466 28.82406,4.0000003 19.987613,4.0000003 z M 19.987613,7.9891 C 26.614949,7.9891 32.007215,13.350451 32.007215,19.956402 C 32.007215,26.562354 26.614946,31.923704 19.987613,31.923705 C 13.360278,31.923704 7.96801,26.562355 7.96801,19.956402 C 7.96801,13.35045 13.360275,7.9891 19.987613,7.9891 z"
       id="path4119" />
    <path
       style="fill:url(#linearGradient2534);fill-opacity:1"
       d="M 19.976563,3.9999999 C 11.140111,4.0000003 4.0000013,11.129565 4,19.9375 C 4,22.758576 4.7436438,25.410682 6.03125,27.710937 C 8.158595,28.524799 10.51165,29.19751 13.023438,29.703125 C 9.968635,27.532429 7.984375,23.955862 7.984375,19.9375 C 7.984375,13.331549 13.349225,7.984375 19.976563,7.984375 C 26.603896,7.984375 32.007813,13.331549 32.007813,19.9375 C 32.007815,24.707137 29.190178,28.835377 25.132813,30.757812 C 27.6165,30.710069 30.026325,30.50982 32.320313,30.171875 C 34.628008,27.408814 36.03125,23.809614 36.03125,19.9375 C 36.031249,11.129565 28.81301,3.9999999 19.976563,3.9999999 z"
       id="path2527" />
  </g>
</svg>
