<?xml version="1.0" encoding="UTF-8" standalone="no"?>
<!-- Created with Inkscape (http://www.inkscape.org/) -->

<svg
   xmlns:dc="http://purl.org/dc/elements/1.1/"
   xmlns:cc="http://creativecommons.org/ns#"
   xmlns:rdf="http://www.w3.org/1999/02/22-rdf-syntax-ns#"
   xmlns:svg="http://www.w3.org/2000/svg"
   xmlns="http://www.w3.org/2000/svg"
   xmlns:xlink="http://www.w3.org/1999/xlink"
   xmlns:sodipodi="http://sodipodi.sourceforge.net/DTD/sodipodi-0.dtd"
   xmlns:inkscape="http://www.inkscape.org/namespaces/inkscape"
   width="48px"
   height="48px"
   id="svg2858"
   version="1.1"
   inkscape:version="0.47 r22583"
   sodipodi:docname="Nouveau document 2">
  <defs
     id="defs2860">
    <linearGradient
       gradientUnits="userSpaceOnUse"
       y2="21.132059"
       x2="22.892584"
       y1="0.90414524"
       x1="22.892584"
       id="linearGradient3178"
       xlink:href="#linearGradient3172"
       inkscape:collect="always" />
    <linearGradient
       id="linearGradient3172">
      <stop
         id="stop3174"
         offset="0"
         style="stop-color:#4d4d4d;stop-opacity:1;" />
      <stop
         id="stop3176"
         offset="1"
         style="stop-color:#4d4d4d;stop-opacity:0;" />
    </linearGradient>
    <linearGradient
       inkscape:collect="always"
       xlink:href="#linearGradient3172"
       id="linearGradient2997"
       gradientUnits="userSpaceOnUse"
       x1="22.892584"
       y1="0.90414524"
       x2="22.892584"
       y2="21.132059" />
    <linearGradient
       inkscape:collect="always"
       xlink:href="#linearGradient3172"
       id="linearGradient3002"
       gradientUnits="userSpaceOnUse"
       x1="22.892584"
       y1="0.90414524"
       x2="22.892584"
       y2="21.132059"
       gradientTransform="matrix(0.644962,0,0,-1.1832362,59.235153,43.983663)" />
    <linearGradient
       inkscape:collect="always"
       xlink:href="#linearGradient3172"
       id="linearGradient3013"
       gradientUnits="userSpaceOnUse"
       gradientTransform="matrix(0.644962,0,0,-1.1832362,109.23515,43.983663)"
       x1="22.892584"
       y1="0.90414524"
       x2="22.892584"
       y2="21.132059" />
    <linearGradient
       inkscape:collect="always"
       xlink:href="#linearGradient3172"
       id="linearGradient3018"
       gradientUnits="userSpaceOnUse"
       gradientTransform="matrix(0.644962,0,0,-1.1832362,59.2349,43.983663)"
       x1="22.892584"
       y1="0.90414524"
       x2="22.892584"
       y2="21.132059" />
    <linearGradient
       inkscape:collect="always"
       xlink:href="#linearGradient3172"
       id="linearGradient3020"
       gradientUnits="userSpaceOnUse"
       gradientTransform="matrix(0.644962,0,0,-1.1832362,59.235153,43.983663)"
       x1="22.892584"
       y1="0.90414524"
       x2="22.892584"
       y2="21.132059" />
    <linearGradient
       inkscape:collect="always"
       xlink:href="#linearGradient3172"
       id="linearGradient3023"
       gradientUnits="userSpaceOnUse"
       gradientTransform="matrix(0.644962,0,0,1.1832362,9.235653,4.0166282)"
       x1="22.892584"
       y1="0.90414524"
       x2="22.892584"
       y2="21.132059" />
  </defs>
  <sodipodi:namedview
     id="base"
     pagecolor="#ffffff"
     bordercolor="#666666"
     borderopacity="1.0"
     inkscape:pageopacity="0.0"
     inkscape:pageshadow="2"
     inkscape:zoom="7"
     inkscape:cx="34.214286"
     inkscape:cy="24"
     inkscape:current-layer="layer1"
     showgrid="true"
     inkscape:grid-bbox="true"
     inkscape:document-units="px"
     inkscape:window-width="1364"
     inkscape:window-height="719"
     inkscape:window-x="0"
     inkscape:window-y="25"
     inkscape:window-maximized="1" />
  <metadata
     id="metadata2863">
    <rdf:RDF>
      <cc:Work
         rdf:about="">
        <dc:format>image/svg+xml</dc:format>
        <dc:type
           rdf:resource="http://purl.org/dc/dcmitype/StillImage" />
        <dc:title></dc:title>
      </cc:Work>
    </rdf:RDF>
  </metadata>
  <g
     id="layer1"
     inkscape:label="Layer 1"
     inkscape:groupmode="layer">
    <g
       id="g13689"
       transform="matrix(0.83322492,0,0,0.93319166,-23.886997,16.029453)"
       style="fill:#000000;fill-opacity:1;stroke:#000000;stroke-opacity:1">
      <path
         style="font-size:10px;font-style:normal;font-variant:normal;font-weight:normal;font-stretch:normal;text-indent:0;text-align:start;text-decoration:none;line-height:100%;letter-spacing:normal;word-spacing:normal;text-transform:none;direction:ltr;block-progression:tb;writing-mode:lr-tb;text-anchor:start;color:#000000;fill:#000000;fill-opacity:1;fill-rule:nonzero;stroke:none;stroke-width:2;marker:none;visibility:visible;display:inline;overflow:visible;enable-background:accumulate;font-family:Segoe;-inkscape-font-specification:Bitstream Charter"
         d="m 34.09375,-0.03125 0,0.96875 -0.0625,3 L 34,4.96875 l 1.03125,0 6.3125,0 -7.65625,9.84375 -0.21875,0.28125 0,0.34375 0,0.59375 0,1 1,0 12.59375,0 1,0 0,-1 0,-3 0,-1 -1,0 -5.09375,0 L 47.71875,4.5 47.90625,4.25 47.9375,3.90625 48,1 l 0,-1.03125 -1,0 -11.90625,0 -1,0 z"
         id="path13687"
         sodipodi:nodetypes="ccccccccccccccccccccccccccc" />
    </g>
    <path
       style="font-size:10px;font-style:normal;font-variant:normal;font-weight:normal;font-stretch:normal;text-indent:0;text-align:start;text-decoration:none;line-height:100%;letter-spacing:normal;word-spacing:normal;text-transform:none;direction:ltr;block-progression:tb;writing-mode:lr-tb;text-anchor:start;color:#000000;fill:#000000;fill-opacity:1;fill-rule:nonzero;stroke:none;stroke-width:1.99999928;marker:none;visibility:visible;display:inline;overflow:visible;enable-background:accumulate;font-family:Segoe;-inkscape-font-specification:Bitstream Charter"
       d="m 36.683556,21.647403 0,0.90403 -0.05208,1.603925 0,0.962353 0.833225,0 2.343447,0 -3.254785,4.986741 -0.156231,0.2333 0,0.320785 0,0.291621 0,0.933192 0.833224,0 5.936729,0 0.833225,0 0,-0.933192 0,-1.983033 0,-0.933189 -0.833225,0 -1.66645,0 2.265329,-3.35366 0.18227,-0.233296 0,-0.291622 0.02604,-1.5456 0.02604,-0.962355 -0.859262,0 -5.62427,0 -0.833225,0 z"
       id="path13696"
       sodipodi:nodetypes="ccccccccccccccccccccccccccc" />
    <path
       style="font-size:10px;font-style:normal;font-variant:normal;font-weight:normal;font-stretch:normal;text-indent:0;text-align:start;text-decoration:none;line-height:100%;letter-spacing:normal;word-spacing:normal;text-transform:none;direction:ltr;block-progression:tb;writing-mode:lr-tb;text-anchor:start;color:#000000;fill:#000000;fill-opacity:1;fill-rule:nonzero;stroke:none;stroke-width:2;marker:none;visibility:visible;display:inline;overflow:visible;enable-background:accumulate;font-family:Segoe;-inkscape-font-specification:Bitstream Charter"
       d="m 22.102118,18.760342 -0.02604,0.90403 -0.02604,2.274654 -0.02604,0.962356 0.859262,0 3.93178,0 -4.973311,7.144747 -0.156229,0.262461 0,0.320785 0,0.437433 0,0.933192 0.833223,0 8.462442,0 0.833224,0 0,-0.933192 0,-2.274655 0,-0.933192 -0.833224,0 -3.098555,0 3.671397,-5.395015 0.15623,-0.233296 0.02604,-0.320787 0.02604,-2.187167 0.02604,-0.962354 -0.859264,0 -8.01979,0 -0.807188,0 z"
       id="path4351"
       sodipodi:nodetypes="ccccccccccccccccccccccccccc" />
    <g
       transform="matrix(0.1337942,0,0,-0.1337942,31.527762,89.04701)"
       inkscape:label="Calque 1"
       id="g2993" />
    <g
       transform="matrix(0.1672428,0,0,-0.1672428,38.442916,104.62323)"
       inkscape:label="Calque 1"
       id="g2995" />
    <path
       style="fill:url(#linearGradient3023);fill-opacity:1;stroke:none"
       d="m 24.0005,29.656541 c -0.63705,0 -1.25041,-0.03677 -1.875,-0.0625 l 4.6875,-6.6875 -3.9375,0 -0.84375,0 0.03125,-0.96875 0,-2.28125 0.03125,-0.90625 0.8125,0 8.03125,0 0.84375,0 -0.03125,0.96875 0,2.1875 -0.03125,0.3125 -0.15625,0.25 -3.6875,5.375 3.09375,0 0.84375,0 0,0.9375 0,0.15625 c -2.45381,0.446665 -5.07199,0.71875 -7.8125,0.71875 z m -7.84375,-0.71875 C 12.645598,28.295867 9.495886,27.240111 6.938,25.875291 l 3.625,-5.21875 -5.25,0 -0.875,0 0.03125,-0.9375 0.0625,-2.8125 0,-0.90625 0.8125,0 9.9375,0 0.8125,0 0,0.96875 -0.03125,2.71875 -0.03125,0.3125 -0.15625,0.21875 -4.78125,7.03125 4.21875,0 0.84375,0 0,0.9375 0,0.75 z m 22.4375,-1.9375 1.21875,-1.875 -2.34375,0 -0.84375,0 0,-0.96875 0.0625,-1.59375 0,-0.90625 0.84375,0 5.625,0 0.84375,0 -0.03125,0.96875 -0.03125,1.40625 c -1.45383,1.140981 -3.28217,2.13185 -5.34375,2.96875 z"
       id="path2991" />
  </g>
</svg>
