<?xml version="1.0" encoding="UTF-8" standalone="no"?>
<!-- Created with Inkscape (http://www.inkscape.org/) -->

<svg
   xmlns:dc="http://purl.org/dc/elements/1.1/"
   xmlns:cc="http://creativecommons.org/ns#"
   xmlns:rdf="http://www.w3.org/1999/02/22-rdf-syntax-ns#"
   xmlns:svg="http://www.w3.org/2000/svg"
   xmlns="http://www.w3.org/2000/svg"
   xmlns:xlink="http://www.w3.org/1999/xlink"
   xmlns:sodipodi="http://sodipodi.sourceforge.net/DTD/sodipodi-0.dtd"
   xmlns:inkscape="http://www.inkscape.org/namespaces/inkscape"
   width="48px"
   height="48px"
   id="svg3962"
   version="1.1"
   inkscape:version="0.47 r22583"
   sodipodi:docname="gnome-stock-mail-new.svg">
  <defs
     id="defs3964">
    <linearGradient
       inkscape:collect="always"
       xlink:href="#linearGradient3172"
       id="linearGradient3942"
       gradientUnits="userSpaceOnUse"
       gradientTransform="matrix(0.644962,0,0,1.1832362,9.235153,4.016337)"
       x1="22.892584"
       y1="0.90414524"
       x2="22.892584"
       y2="21.132059" />
    <linearGradient
       id="linearGradient3172">
      <stop
         id="stop3174"
         offset="0"
         style="stop-color:#4d4d4d;stop-opacity:1;" />
      <stop
         id="stop3176"
         offset="1"
         style="stop-color:#4d4d4d;stop-opacity:0;" />
    </linearGradient>
  </defs>
  <sodipodi:namedview
     id="base"
     pagecolor="#ffffff"
     bordercolor="#666666"
     borderopacity="1.0"
     inkscape:pageopacity="0.0"
     inkscape:pageshadow="2"
     inkscape:zoom="7"
     inkscape:cx="24"
     inkscape:cy="24"
     inkscape:current-layer="layer1"
     showgrid="true"
     inkscape:grid-bbox="true"
     inkscape:document-units="px"
     inkscape:window-width="1366"
     inkscape:window-height="744"
     inkscape:window-x="0"
     inkscape:window-y="24"
     inkscape:window-maximized="1" />
  <metadata
     id="metadata3967">
    <rdf:RDF>
      <cc:Work
         rdf:about="">
        <dc:format>image/svg+xml</dc:format>
        <dc:type
           rdf:resource="http://purl.org/dc/dcmitype/StillImage" />
        <dc:title />
      </cc:Work>
    </rdf:RDF>
  </metadata>
  <g
     id="layer1"
     inkscape:label="Layer 1"
     inkscape:groupmode="layer">
    <path
       style="fill:#000000;fill-opacity:1;stroke:none"
       d="m 5.15625,11 11.53125,10.09375 4.40625,0 0,-5.09375 c -2.94e-4,-0.01012 1.89e-4,-0.02114 0,-0.03125 -0.01408,-0.752889 0.27029,-1.477071 0.78125,-2.03125 l 0,-0.03125 c 0.411562,-0.432326 0.936383,-0.718001 1.5,-0.84375 0.563617,-0.125749 1.156961,-0.07393 1.71875,0.15625 1.123578,0.460358 1.8317,1.551625 1.8125,2.75 l 0,5.125 4.40625,0 L 42.84375,11 5.15625,11 z M 4,12.6875 4,35.375 14.21875,26.40625 c -0.438376,-0.306622 -0.783716,-0.734897 -1,-1.25 -0.463243,-1.10326 -0.196649,-2.376961 0.65625,-3.21875 0.10763,-0.106257 0.22299,-0.193806 0.34375,-0.28125 L 4,12.6875 z m 40,0 -10.21875,8.96875 c 0.316596,0.225118 0.60703,0.497878 0.8125,0.84375 0.546612,0.920105 0.526168,2.057346 0,2.96875 -0.212024,0.367261 -0.512515,0.664784 -0.84375,0.90625 l 10.25,9 0,-22.6875 z M 16.625,26.9375 5.15625,37 24,37 42.84375,37 31.375,26.9375 l -3.625,0 -0.8125,0.71875 0,4.40625 c 0.0011,1.608677 -1.29755,2.9364 -2.90625,2.9375 -1.608689,0.0012 -2.9364,-1.328808 -2.9375,-2.9375 L 21.0625,27.65625 20.25,26.9375 l -3.625,0 z"
       id="rect2394"
       sodipodi:nodetypes="ccccsccssccccccccssccccsscccccccccccscccc" />
    <path
       style="fill:url(#linearGradient3942);fill-opacity:1;stroke:none"
       d="m 21.0625,29.5625 c -2.238439,-0.145005 -4.401761,-0.458962 -6.40625,-0.90625 l 1.96875,-1.71875 3.625,0 0.8125,0.71875 0,1.90625 z m 5.875,0 0,-1.90625 0.8125,-0.71875 3.625,0 1.96875,1.71875 c -2.004489,0.447288 -4.167811,0.761245 -6.40625,0.90625 z m -14.59375,-1.5 C 8.982227,27.074742 6.121123,25.652961 4,23.96875 L 4,12.6875 14.21875,21.65625 c -0.12076,0.08744 -0.23612,0.174993 -0.34375,0.28125 -0.852899,0.841789 -1.119493,2.11549 -0.65625,3.21875 0.216284,0.515103 0.561624,0.943378 1,1.25 l -1.875,1.65625 z m 23.3125,0 L 33.75,26.375 c 0.331235,-0.241466 0.631726,-0.538989 0.84375,-0.90625 0.526168,-0.911404 0.546612,-2.048645 0,-2.96875 -0.20547,-0.345872 -0.495904,-0.618632 -0.8125,-0.84375 L 44,12.6875 44,23.96875 c -2.121123,1.684211 -4.982227,3.105992 -8.34375,4.09375 z M 16.6875,21.09375 5.15625,11 l 37.6875,0 -11.53125,10.09375 -4.40625,0 0,-5.125 c 0.0192,-1.198375 -0.688922,-2.289642 -1.8125,-2.75 -0.561789,-0.23018 -1.155133,-0.281999 -1.71875,-0.15625 -0.563617,0.125749 -1.088438,0.411424 -1.5,0.84375 l 0,0.03125 c -0.51096,0.554179 -0.79533,1.278361 -0.78125,2.03125 1.89e-4,0.01011 -2.94e-4,0.02113 0,0.03125 l 0,5.09375 -4.40625,0 z"
       id="path3928"
       sodipodi:nodetypes="ccccccccccccccccssccccssccccccccccssccsccc" />
  </g>
</svg>
