<?xml version="1.0" encoding="UTF-8" standalone="no"?>
<!-- Created with Inkscape (http://www.inkscape.org/) -->

<svg
   xmlns:dc="http://purl.org/dc/elements/1.1/"
   xmlns:cc="http://creativecommons.org/ns#"
   xmlns:rdf="http://www.w3.org/1999/02/22-rdf-syntax-ns#"
   xmlns:svg="http://www.w3.org/2000/svg"
   xmlns="http://www.w3.org/2000/svg"
   xmlns:xlink="http://www.w3.org/1999/xlink"
   xmlns:sodipodi="http://sodipodi.sourceforge.net/DTD/sodipodi-0.dtd"
   xmlns:inkscape="http://www.inkscape.org/namespaces/inkscape"
   width="48px"
   height="48px"
   id="svg4491"
   version="1.1"
   inkscape:version="0.47 r22583"
   sodipodi:docname="office-address-book.svg">
  <defs
     id="defs4493">
    <linearGradient
       gradientUnits="userSpaceOnUse"
       y2="21.132059"
       x2="22.892584"
       y1="0.90414524"
       x1="22.892584"
       id="linearGradient3178"
       xlink:href="#linearGradient3172"
       inkscape:collect="always" />
    <linearGradient
       id="linearGradient3172">
      <stop
         id="stop3174"
         offset="0"
         style="stop-color:#4d4d4d;stop-opacity:1;" />
      <stop
         id="stop3176"
         offset="1"
         style="stop-color:#4d4d4d;stop-opacity:0;" />
    </linearGradient>
    <linearGradient
       inkscape:collect="always"
       xlink:href="#linearGradient3172"
       id="linearGradient3862"
       gradientUnits="userSpaceOnUse"
       x1="22.892584"
       y1="0.90414524"
       x2="22.892584"
       y2="21.132059" />
    <linearGradient
       inkscape:collect="always"
       xlink:href="#linearGradient3172"
       id="linearGradient3867"
       gradientUnits="userSpaceOnUse"
       x1="22.892584"
       y1="0.90414524"
       x2="22.892584"
       y2="21.132059"
       gradientTransform="matrix(0.644962,0,0,-1.1832362,59.235153,43.983663)" />
    <linearGradient
       inkscape:collect="always"
       xlink:href="#linearGradient3172"
       id="linearGradient3870"
       gradientUnits="userSpaceOnUse"
       gradientTransform="matrix(0.644962,0,0,1.1832362,9.235153,4.016364)"
       x1="22.892584"
       y1="0.90414524"
       x2="22.892584"
       y2="21.132059" />
  </defs>
  <sodipodi:namedview
     id="base"
     pagecolor="#ffffff"
     bordercolor="#666666"
     borderopacity="1.0"
     inkscape:pageopacity="0.0"
     inkscape:pageshadow="2"
     inkscape:zoom="7"
     inkscape:cx="24"
     inkscape:cy="27.941835"
     inkscape:current-layer="layer1"
     showgrid="true"
     inkscape:grid-bbox="true"
     inkscape:document-units="px"
     inkscape:window-width="1366"
     inkscape:window-height="744"
     inkscape:window-x="0"
     inkscape:window-y="24"
     inkscape:window-maximized="1" />
  <metadata
     id="metadata4496">
    <rdf:RDF>
      <cc:Work
         rdf:about="">
        <dc:format>image/svg+xml</dc:format>
        <dc:type
           rdf:resource="http://purl.org/dc/dcmitype/StillImage" />
        <dc:title></dc:title>
      </cc:Work>
    </rdf:RDF>
  </metadata>
  <g
     id="layer1"
     inkscape:label="Layer 1"
     inkscape:groupmode="layer">
    <g
       id="g2453"
       inkscape:label="Calque 1"
       transform="matrix(0.1337942,0,0,-0.1337942,-73.762167,90.475569)" />
    <g
       id="g2615"
       inkscape:label="Calque 1"
       transform="matrix(0.1672428,0,0,-0.1672428,-66.847013,106.05179)" />
    <g
       transform="matrix(0.1337942,0,0,-0.1337942,-23.762167,90.475569)"
       inkscape:label="Calque 1"
       id="g2933" />
    <g
       transform="matrix(0.1672428,0,0,-0.1672428,-16.847013,106.05179)"
       inkscape:label="Calque 1"
       id="g2935" />
    <path
       style="fill:#000000;fill-opacity:1;stroke:none"
       d="m 11.90625,4 c -0.767359,1e-6 -1.375002,0.880829 -1.375,2 l 0,1.625 -1.71875,0 -1.5625,0 C 5.44786,7.625 3.999996,9.007909 4,10.75 L 4,23.03125 4,28.59375 4,40.875 C 3.999999,42.617085 5.447863,44 7.25,44 l 1.5625,0 1.25,0 26.6875,0 -19,-18.71875 0,-0.03125 -0.03125,0 c -0.204391,-0.218191 -0.3487,-0.494883 -0.4375,-0.78125 -0.0027,-0.0088 0.0026,-0.02245 0,-0.03125 l -2.1875,-6.84375 C 14.913077,17.027524 14.991729,16.393132 15.3125,15.90625 15.630735,15.42322 16.156104,15.07625 16.75,15 l 0.03125,0 c 0.334429,-0.03284 0.671892,0.03711 0.96875,0.15625 0.0093,0.0037 0.02195,-0.0039 0.03125,0 l 6.21875,2.375 0.03125,0 c 0.263617,0.111931 0.460283,0.304791 0.625,0.46875 0.0054,0.0053 0.02595,-0.0054 0.03125,0 l 0,-0.03125 L 42,34.9375 42,28.59375 42,23.03125 42,10.75 c 4e-6,-1.742093 -1.447862,-3.125 -3.25,-3.125 l -1.15625,0 -0.09375,0 -2.03125,0 0,-1.625 c 10e-7,-1.119173 -0.607637,-2 -1.375,-2 -0.767359,1e-6 -1.40625,0.880829 -1.40625,2 l 0,1.625 -2.75,0 0,-1.625 c 2e-6,-1.119173 -0.63889,-2 -1.40625,-2 -0.767358,1e-6 -1.375002,0.880829 -1.375,2 l 0,1.625 -2.78125,0 0,-1.625 c 3e-6,-1.119173 -0.607642,-2 -1.375,-2 -0.767359,1e-6 -1.375002,0.880829 -1.375,2 l 0,1.625 -2.78125,0 0,-1.625 c 4e-6,-1.119173 -0.60764,-2 -1.375,-2 -0.767359,1e-6 -1.406252,0.880829 -1.40625,2 l 0,1.625 -2.75,0 0,-1.625 c -2e-6,-1.119173 -0.638892,-2 -1.40625,-2 z M 16.875,16 c -0.298578,0.03834 -0.556407,0.222339 -0.71875,0.46875 -0.162342,0.246411 -0.21418,0.533012 -0.125,0.8125 l 2.1875,6.875 c 0.04329,0.146942 0.144104,0.293204 0.25,0.40625 L 37.875,43.71875 c 0.19888,0.194838 0.457029,0.28025 0.71875,0.28125 0.261722,10e-4 0.58086,-0.02546 0.78125,-0.21875 l 4.28125,-4.375 c 0.401046,-0.386321 0.460505,-0.954302 0.0625,-1.34375 l -19.75,-19.375 c -0.09341,-0.09474 -0.188759,-0.16621 -0.3125,-0.21875 L 17.375,16.09375 C 17.215338,16.02697 17.047931,15.98302 16.875,16 z m 2.59375,1.96875 4.03125,1.75 -0.25,1.875 -1.9375,1.875 -2.21875,0.25 -1.25,-4.09375 1.625,-1.65625 z"
       id="path2957" />
    <path
       style="fill:url(#linearGradient3870);fill-opacity:1;stroke:none"
       d="m 23.625,29.656277 -5.15625,-5.09375 c -0.105896,-0.113046 -0.20671,-0.259308 -0.25,-0.40625 l -2.1875,-6.875 c -0.08918,-0.279488 -0.03734,-0.566089 0.125,-0.8125 0.162343,-0.246411 0.420172,-0.43041 0.71875,-0.46875 0.172931,-0.01698 0.340338,0.02697 0.5,0.09375 l 6.28125,2.375 c 0.123741,0.05254 0.21909,0.12401 0.3125,0.21875 l 10,9.8125 c -3.038624,0.733883 -6.409806,1.15625 -9.96875,1.15625 -0.127301,0 -0.248167,0.001 -0.375,0 z m -2.0625,-0.0625 C 14.236323,29.201084 7.873398,27.044326 4,23.968777 l 0,-0.9375 0,-12.28125 c -4e-6,-1.742091 1.44786,-3.125 3.25,-3.125 l 1.5625,0 1.71875,0 0,-1.625 c -2e-6,-1.119171 0.607641,-1.999999 1.375,-2 0.767358,0 1.406248,0.880827 1.40625,2 l 0,1.625 2.75,0 0,-1.625 c -2e-6,-1.119171 0.638891,-1.999999 1.40625,-2 0.76736,0 1.375004,0.880827 1.375,2 l 0,1.625 2.78125,0 0,-1.625 c -2e-6,-1.119171 0.607641,-1.999999 1.375,-2 0.767358,0 1.375003,0.880827 1.375,2 l 0,1.625 2.78125,0 0,-1.625 c -2e-6,-1.119171 0.607642,-1.999999 1.375,-2 0.76736,0 1.406252,0.880827 1.40625,2 l 0,1.625 2.75,0 0,-1.625 c 0,-1.119171 0.638891,-1.999999 1.40625,-2 0.767363,0 1.375001,0.880827 1.375,2 l 0,1.625 2.03125,0 0.09375,0 1.15625,0 c 1.802138,0 3.250004,1.382907 3.25,3.125 l 0,12.28125 0,2.3125 c -1.935446,1.157487 -4.261375,2.151985 -6.875,2.875 l -10.4375,-10.25 0,0.03125 c -0.0053,-0.0054 -0.02585,0.0053 -0.03125,0 -0.164717,-0.163959 -0.361383,-0.356819 -0.625,-0.46875 l -0.03125,0 -6.21875,-2.375 c -0.0093,-0.0039 -0.02195,0.0037 -0.03125,0 -0.296858,-0.11914 -0.634321,-0.18909 -0.96875,-0.15625 l -0.03125,0 c -0.593896,0.07625 -1.119265,0.42322 -1.4375,0.90625 -0.320771,0.486882 -0.399423,1.121274 -0.21875,1.6875 l 2.1875,6.84375 c 0.0026,0.0088 -0.0027,0.02245 0,0.03125 0.0888,0.286367 0.233109,0.563059 0.4375,0.78125 l 0.03125,0 0,0.03125 4.40625,4.3125 c -0.197688,-0.008 -0.397428,0.01052 -0.59375,0 z m -2.46875,-5.875 2.21875,-0.25 1.9375,-1.875 0.25,-1.875 -4.03125,-1.75 -1.625,1.65625 1.25,4.09375 z"
       id="path3856" />
    <g
       transform="matrix(0.1337942,0,0,-0.1337942,31.527762,89.04701)"
       inkscape:label="Calque 1"
       id="g3858" />
    <g
       transform="matrix(0.1672428,0,0,-0.1672428,38.442916,104.62323)"
       inkscape:label="Calque 1"
       id="g3860" />
  </g>
</svg>
