<?xml version="1.0" encoding="UTF-8" standalone="no"?>
<!-- Created with Inkscape (http://www.inkscape.org/) -->

<svg
   xmlns:dc="http://purl.org/dc/elements/1.1/"
   xmlns:cc="http://creativecommons.org/ns#"
   xmlns:rdf="http://www.w3.org/1999/02/22-rdf-syntax-ns#"
   xmlns:svg="http://www.w3.org/2000/svg"
   xmlns="http://www.w3.org/2000/svg"
   xmlns:xlink="http://www.w3.org/1999/xlink"
   xmlns:sodipodi="http://sodipodi.sourceforge.net/DTD/sodipodi-0.dtd"
   xmlns:inkscape="http://www.inkscape.org/namespaces/inkscape"
   width="48px"
   height="48px"
   id="svg2860"
   version="1.1"
   inkscape:version="0.47 r22583"
   sodipodi:docname="zoom+.svg">
  <defs
     id="defs2862">
    <linearGradient
       id="linearGradient3172">
      <stop
         id="stop3174"
         offset="0"
         style="stop-color:#4d4d4d;stop-opacity:1;" />
      <stop
         id="stop3176"
         offset="1"
         style="stop-color:#4d4d4d;stop-opacity:0;" />
    </linearGradient>
    <linearGradient
       inkscape:collect="always"
       xlink:href="#linearGradient3172"
       id="linearGradient3797"
       gradientUnits="userSpaceOnUse"
       gradientTransform="matrix(0.644962,0,0,1.1832362,9.235403,4.018082)"
       x1="22.892584"
       y1="0.90414524"
       x2="22.892584"
       y2="21.132059" />
  </defs>
  <sodipodi:namedview
     id="base"
     pagecolor="#ffffff"
     bordercolor="#666666"
     borderopacity="1.0"
     inkscape:pageopacity="0.0"
     inkscape:pageshadow="2"
     inkscape:zoom="7"
     inkscape:cx="24"
     inkscape:cy="24"
     inkscape:current-layer="layer1"
     showgrid="true"
     inkscape:grid-bbox="true"
     inkscape:document-units="px"
     inkscape:window-width="1364"
     inkscape:window-height="721"
     inkscape:window-x="0"
     inkscape:window-y="23"
     inkscape:window-maximized="1" />
  <metadata
     id="metadata2865">
    <rdf:RDF>
      <cc:Work
         rdf:about="">
        <dc:format>image/svg+xml</dc:format>
        <dc:type
           rdf:resource="http://purl.org/dc/dcmitype/StillImage" />
        <dc:title></dc:title>
      </cc:Work>
    </rdf:RDF>
  </metadata>
  <g
     id="layer1"
     inkscape:label="Layer 1"
     inkscape:groupmode="layer">
    <path
       style="fill:#000000;fill-opacity:1;fill-rule:evenodd;stroke:none;display:inline"
       d="M 19.84375,4 C 15.438353,4 11.57727,5.480295 8.90625,8.1875 6.2352296,10.894706 4.84375,14.720736 4.84375,19 c 0,4.368165 1.4858313,8.22731 4.1875,10.90625 C 11.732919,32.58519 15.554855,34 19.84375,34 c 2.886459,0 5.449326,-0.725155 7.625,-1.96875 l 11,11.59375 c 0.237408,0.264534 0.596626,0.393506 0.96875,0.375 0.372126,-0.0185 0.740443,-0.210753 1,-0.5 l 2.34375,-2.625 c 0.483016,-0.549383 0.485958,-1.321382 0,-1.78125 L 31.6875,28.375 c 2.008326,-2.595489 3.15625,-5.881276 3.15625,-9.375 0,-4.305252 -1.463863,-8.151364 -4.15625,-10.84375 C 27.995113,5.463864 24.149002,4 19.84375,4 z m 0,5 c 3.194219,0 5.630195,1.036445 7.3125,2.71875 1.682305,1.682305 2.6875,4.08703 2.6875,7.28125 0,5.803401 -3.422246,10 -10,10 C 16.633173,29 14.235523,28.002698 12.5625,26.34375 10.889477,24.684802 9.84375,22.278523 9.84375,19 c 0,-3.220208 0.979802,-5.645014 2.625,-7.3125 C 14.113948,10.020014 16.515782,9 19.84375,9 z m -6.75,7.5 c -0.415471,0 -0.75,0.334529 -0.75,0.75 l 0,3.5 c 0,0.415471 0.334529,0.75 0.75,0.75 l 13.5,0 c 0.415471,0 0.75,-0.334529 0.75,-0.75 l 0,-3.5 c 0,-0.415471 -0.334529,-0.75 -0.75,-0.75 l -13.5,0 z"
       id="path3220"
       sodipodi:nodetypes="cssssccsccccssccsssssscccccccccc" />
    <g
       transform="matrix(0.1337942,0,0,-0.1337942,31.527762,89.04701)"
       inkscape:label="Calque 1"
       id="g3785" />
    <g
       transform="matrix(0.1672428,0,0,-0.1672428,38.442916,104.62323)"
       inkscape:label="Calque 1"
       id="g3787" />
    <path
       style="fill:url(#linearGradient3797);fill-opacity:1;stroke:none"
       d="m 24.00025,29.657995 c -7.137504,0 -13.540084,-1.670835 -17.9375,-4.28125 C 5.27931,23.457922 4.844,21.30022 4.844,19.001745 c 0,-4.279264 1.39148,-8.105294 4.0625,-10.8125 2.67102,-2.707205 6.532103,-4.1875 10.9375,-4.1875 4.305252,0 8.151363,1.463864 10.84375,4.15625 2.692387,2.692386 4.15625,6.538498 4.15625,10.84375 0,3.493724 -1.147924,6.779511 -3.15625,9.375 l 0.5,0.5 c -2.559295,0.491141 -5.307459,0.78125 -8.1875,0.78125 z M 19.844,29.001745 c 6.577754,0 10,-4.196599 10,-10 0,-3.19422 -1.005195,-5.598945 -2.6875,-7.28125 -1.682305,-1.682305 -4.118281,-2.71875 -7.3125,-2.71875 -3.327968,0 -5.729802,1.020014 -7.375,2.6875 -1.645198,1.667486 -2.625,4.092292 -2.625,7.3125 0,3.278523 1.045727,5.684802 2.71875,7.34375 1.673023,1.658948 4.070673,2.65625 7.28125,2.65625 z m -6.75,-7.5 c -0.415471,0 -0.75,-0.334529 -0.75,-0.75 l 0,-3.5 c 0,-0.415471 0.334529,-0.75 0.75,-0.75 l 13.5,0 c 0.415471,0 0.75,0.334529 0.75,0.75 l 0,3.5 c 0,0.415471 -0.334529,0.75 -0.75,0.75 l -13.5,0 z"
       id="path3783"
       sodipodi:nodetypes="ccsssssccccsssssscccccccccc" />
  </g>
</svg>
