<?xml version="1.0" encoding="UTF-8" standalone="no"?>
<!-- Created with Inkscape (http://www.inkscape.org/) -->
<svg
   xmlns:dc="http://purl.org/dc/elements/1.1/"
   xmlns:cc="http://creativecommons.org/ns#"
   xmlns:rdf="http://www.w3.org/1999/02/22-rdf-syntax-ns#"
   xmlns:svg="http://www.w3.org/2000/svg"
   xmlns="http://www.w3.org/2000/svg"
   xmlns:xlink="http://www.w3.org/1999/xlink"
   xmlns:sodipodi="http://sodipodi.sourceforge.net/DTD/sodipodi-0.dtd"
   xmlns:inkscape="http://www.inkscape.org/namespaces/inkscape"
   width="48px"
   height="48px"
   id="svg4289"
   sodipodi:version="0.32"
   inkscape:version="0.46"
   sodipodi:docbase="/home/lapo/Icone/cvs/gnome-icon-theme/scalable/categories"
   sodipodi:docname="applications-multimedia.svg"
   inkscape:output_extension="org.inkscape.output.svg.inkscape">
  <defs
     id="defs4291">
    <linearGradient
       id="linearGradient3155"
       inkscape:collect="always">
      <stop
         id="stop3157"
         offset="0"
         style="stop-color:#4d4d4d;stop-opacity:1;" />
      <stop
         id="stop3159"
         offset="1"
         style="stop-color:#4d4d4d;stop-opacity:0;" />
    </linearGradient>
    <linearGradient
       inkscape:collect="always"
       xlink:href="#linearGradient3155"
       id="linearGradient2569"
       gradientUnits="userSpaceOnUse"
       gradientTransform="matrix(0.1721311,0,0,0.1721311,-32.065571,-63.312822)"
       x1="325.71429"
       y1="369.50507"
       x2="325.71429"
       y2="546.64789" />
  </defs>
  <sodipodi:namedview
     id="base"
     pagecolor="#ffffff"
     bordercolor="#666"
     borderopacity="0.31372549"
     inkscape:pageopacity="0.0"
     inkscape:pageshadow="2"
     inkscape:zoom="5.656854"
     inkscape:cx="37.533214"
     inkscape:cy="12.243402"
     inkscape:current-layer="layer1"
     showgrid="true"
     inkscape:grid-bbox="true"
     inkscape:document-units="px"
     inkscape:window-width="1019"
     inkscape:window-height="732"
     inkscape:window-x="259"
     inkscape:window-y="19"
     inkscape:showpageshadow="false" />
  <metadata
     id="metadata4294">
    <rdf:RDF>
      <cc:Work
         rdf:about="">
        <dc:format>image/svg+xml</dc:format>
        <dc:type
           rdf:resource="http://purl.org/dc/dcmitype/StillImage" />
        <dc:title>System Preferences</dc:title>
        <dc:creator>
          <cc:Agent>
            <dc:title>Andreas Nilsson</dc:title>
          </cc:Agent>
        </dc:creator>
        <dc:subject>
          <rdf:Bag>
            <rdf:li>category</rdf:li>
            <rdf:li>system</rdf:li>
            <rdf:li>preferences</rdf:li>
            <rdf:li>settings</rdf:li>
            <rdf:li>control center</rdf:li>
          </rdf:Bag>
        </dc:subject>
        <dc:contributor>
          <cc:Agent>
            <dc:title>Jakub Steiner</dc:title>
          </cc:Agent>
        </dc:contributor>
        <cc:license
           rdf:resource="http://creativecommons.org/licenses/GPL/2.0/" />
      </cc:Work>
      <cc:License
         rdf:about="http://creativecommons.org/licenses/GPL/2.0/">
        <cc:permits
           rdf:resource="http://web.resource.org/cc/Reproduction" />
        <cc:permits
           rdf:resource="http://web.resource.org/cc/Distribution" />
        <cc:requires
           rdf:resource="http://web.resource.org/cc/Notice" />
        <cc:permits
           rdf:resource="http://web.resource.org/cc/DerivativeWorks" />
        <cc:requires
           rdf:resource="http://web.resource.org/cc/ShareAlike" />
        <cc:requires
           rdf:resource="http://web.resource.org/cc/SourceCode" />
      </cc:License>
    </rdf:RDF>
  </metadata>
  <g
     id="layer1"
     inkscape:label="Layer 1"
     inkscape:groupmode="layer">
    <g
       id="g2453"
       inkscape:label="Calque 1"
       transform="matrix(0.1337942,0,0,0.1337942,-18.472238,-41.04701)" />
    <g
       inkscape:label="Shadow"
       id="g3265"
       transform="matrix(1.9240301,0,0,1.9240301,-48.411568,7.3334095)" />
    <g
       id="g3267"
       inkscape:label="Base"
       style="display:inline"
       transform="matrix(1.9240301,0,0,1.9240301,-48.411568,7.3334095)" />
    <path
       style="fill:#000000;fill-opacity:1;stroke:none;stroke-width:1.31599998;stroke-miterlimit:4;stroke-opacity:1"
       d="M 33.023438,7.75 C 32.47,7.75 32.046875,8.2145612 32.046875,8.82801 L 32.046875,9.1074938 C 32.046874,9.7209413 32.470001,10.22543 33.023438,10.22543 L 43.023438,10.22543 C 43.576874,10.22543 44,9.7209413 44,9.1074938 L 44,8.82801 C 44,8.2145612 43.576874,7.7500025 43.023438,7.75 L 39.507812,7.75 L 36.539062,7.75 L 33.023438,7.75 z M 33.023438,11.503071 C 32.47,11.503071 32.046875,11.967636 32.046875,12.581081 L 32.046875,12.860565 C 32.046874,13.474013 32.470001,13.978501 33.023438,13.978501 L 43.023438,13.978501 C 43.576874,13.9785 44,13.474013 44,12.860565 L 44,12.581081 C 44,11.967636 43.576874,11.503073 43.023438,11.503071 L 39.507812,11.503071 L 36.539062,11.503071 L 33.023438,11.503071 z M 33.023438,15.256142 C 32.47,15.256142 32.046875,15.720706 32.046875,16.334153 L 32.046875,16.613636 C 32.046874,17.22708 32.470001,17.731573 33.023438,17.731573 L 43.023438,17.731573 C 43.576874,17.731574 44,17.227081 44,16.613636 L 44,16.334153 C 44,15.720706 43.576874,15.256144 43.023438,15.256142 L 39.507812,15.256142 L 36.539062,15.256142 L 33.023438,15.256142 z M 5.015625,19.009214 C 4.4621888,19.009214 4,19.473777 4,20.087224 L 4,20.366708 C 4,20.980154 4.46219,21.484644 5.015625,21.484644 L 14.976562,21.484644 C 15.529998,21.484645 15.953125,20.980154 15.953125,20.366708 L 15.953125,20.087224 C 15.953126,19.473777 15.529999,19.009215 14.976562,19.009214 L 11.460938,19.009214 L 8.53125,19.009214 L 5.015625,19.009214 z M 33.023438,19.009214 C 32.47,19.009214 32.046875,19.473777 32.046875,20.087224 L 32.046875,20.366708 C 32.046874,20.980154 32.470001,21.484644 33.023438,21.484644 L 43.023438,21.484644 C 43.576874,21.484645 44,20.980154 44,20.366708 L 44,20.087224 C 44,19.473777 43.576874,19.009215 43.023438,19.009214 L 39.507812,19.009214 L 36.539062,19.009214 L 33.023438,19.009214 z M 5.015625,22.762285 C 4.4621888,22.762286 4,23.22685 4,23.840295 L 4,24.119779 C 4,24.733225 4.46219,25.237715 5.015625,25.237715 L 14.976562,25.237715 C 15.529998,25.237714 15.953125,24.733225 15.953125,24.119779 L 15.953125,23.840295 C 15.953126,23.226851 15.529999,22.762287 14.976562,22.762285 L 11.460938,22.762285 L 8.53125,22.762285 L 5.015625,22.762285 z M 33.023438,22.762285 C 32.47,22.762286 32.046875,23.22685 32.046875,23.840295 L 32.046875,24.119779 C 32.046874,24.733225 32.470001,25.237715 33.023438,25.237715 L 43.023438,25.237715 C 43.576874,25.237714 44,24.733225 44,24.119779 L 44,23.840295 C 44,23.226851 43.576874,22.762287 43.023438,22.762285 L 39.507812,22.762285 L 36.539062,22.762285 L 33.023438,22.762285 z M 5.015625,26.515356 C 4.4621888,26.515356 4,26.979921 4,27.593366 L 4,27.87285 C 4,28.486295 4.46219,28.990786 5.015625,28.990786 L 14.976562,28.990786 C 15.529998,28.990786 15.953125,28.486295 15.953125,27.87285 L 15.953125,27.593366 C 15.953126,26.97992 15.529999,26.515356 14.976562,26.515356 L 11.460938,26.515356 L 8.53125,26.515356 L 5.015625,26.515356 z M 19,26.515356 C 18.446564,26.515356 18.023438,26.979921 18.023438,27.593366 L 18.023438,27.87285 C 18.023436,28.486295 18.446565,28.990786 19,28.990786 L 29,28.990786 C 29.553434,28.990786 29.976562,28.486295 29.976562,27.87285 L 29.976562,27.593366 C 29.976562,26.97992 29.553436,26.515356 29,26.515356 L 25.484375,26.515356 L 22.554688,26.515356 L 19,26.515356 z M 33.023438,26.515356 C 32.47,26.515356 32.046875,26.979921 32.046875,27.593366 L 32.046875,27.87285 C 32.046874,28.486295 32.470001,28.990786 33.023438,28.990786 L 43.023438,28.990786 C 43.576874,28.990786 44,28.486295 44,27.87285 L 44,27.593366 C 44,26.97992 43.576874,26.515356 43.023438,26.515356 L 39.507812,26.515356 L 36.539062,26.515356 L 33.023438,26.515356 z M 5.015625,30.268427 C 4.4621888,30.268429 4,30.73299 4,31.346438 L 4,31.625921 C 4,32.239366 4.46219,32.743858 5.015625,32.743858 L 14.976562,32.743858 C 15.529998,32.743856 15.953125,32.239366 15.953125,31.625921 L 15.953125,31.346438 C 15.953126,30.732991 15.529999,30.268427 14.976562,30.268427 L 11.460938,30.268427 L 8.53125,30.268427 L 5.015625,30.268427 z M 19,30.268427 C 18.446564,30.268429 18.023438,30.73299 18.023438,31.346438 L 18.023438,31.625921 C 18.023436,32.239366 18.446565,32.743858 19,32.743858 L 29,32.743858 C 29.553434,32.743856 29.976562,32.239366 29.976562,31.625921 L 29.976562,31.346438 C 29.976562,30.732991 29.553436,30.268427 29,30.268427 L 25.484375,30.268427 L 22.554688,30.268427 L 19,30.268427 z M 33.023438,30.268427 C 32.47,30.268429 32.046875,30.73299 32.046875,31.346438 L 32.046875,31.625921 C 32.046874,32.239366 32.470001,32.743858 33.023438,32.743858 L 43.023438,32.743858 C 43.576874,32.743856 44,32.239366 44,31.625921 L 44,31.346438 C 44,30.732991 43.576874,30.268427 43.023438,30.268427 L 39.507812,30.268427 L 36.539062,30.268427 L 33.023438,30.268427 z M 5.015625,34.021499 C 4.4621888,34.021498 4,34.486061 4,35.099509 L 4,35.378993 C 4,35.99244 4.46219,36.496929 5.015625,36.496929 L 14.976562,36.496929 C 15.529998,36.49693 15.953125,35.99244 15.953125,35.378993 L 15.953125,35.099509 C 15.953126,34.486061 15.529999,34.021499 14.976562,34.021499 L 11.460938,34.021499 L 8.53125,34.021499 L 5.015625,34.021499 z M 19,34.021499 C 18.446564,34.021498 18.023438,34.486061 18.023438,35.099509 L 18.023438,35.378993 C 18.023436,35.99244 18.446565,36.496929 19,36.496929 L 29,36.496929 C 29.553434,36.49693 29.976562,35.99244 29.976562,35.378993 L 29.976562,35.099509 C 29.976562,34.486061 29.553436,34.021499 29,34.021499 L 25.484375,34.021499 L 22.554688,34.021499 L 19,34.021499 z M 33.023438,34.021499 C 32.47,34.021498 32.046875,34.486061 32.046875,35.099509 L 32.046875,35.378993 C 32.046874,35.99244 32.470001,36.496929 33.023438,36.496929 L 43.023438,36.496929 C 43.576874,36.49693 44,35.99244 44,35.378993 L 44,35.099509 C 44,34.486061 43.576874,34.021499 43.023438,34.021499 L 39.507812,34.021499 L 36.539062,34.021499 L 33.023438,34.021499 z M 5.015625,37.77457 C 4.4621888,37.774569 4,38.23913 4,38.85258 L 4,39.132064 C 4,39.74551 4.46219,40.25 5.015625,40.25 L 14.976562,40.25 C 15.529998,40.249999 15.953125,39.745511 15.953125,39.132064 L 15.953125,38.85258 C 15.953126,38.239128 15.529999,37.77457 14.976562,37.77457 L 11.460938,37.77457 L 8.53125,37.77457 L 5.015625,37.77457 z M 19,37.77457 C 18.446564,37.774569 18.023438,38.23913 18.023438,38.85258 L 18.023438,39.132064 C 18.023436,39.74551 18.446565,40.25 19,40.25 L 29,40.25 C 29.553434,40.249999 29.976562,39.745511 29.976562,39.132064 L 29.976562,38.85258 C 29.976562,38.239128 29.553436,37.77457 29,37.77457 L 25.484375,37.77457 L 22.554688,37.77457 L 19,37.77457 z M 33.023438,37.77457 C 32.47,37.774569 32.046875,38.23913 32.046875,38.85258 L 32.046875,39.132064 C 32.046874,39.74551 32.470001,40.25 33.023438,40.25 L 43.023438,40.25 C 43.576874,40.249999 44,39.745511 44,39.132064 L 44,38.85258 C 44,38.239128 43.576874,37.77457 43.023438,37.77457 L 39.507812,37.77457 L 36.539062,37.77457 L 33.023438,37.77457 z"
       id="path3249" />
    <path
       style="fill:url(#linearGradient2569);fill-opacity:1"
       d="M 33.023438,7.75 C 32.47,7.75 32.046875,8.2303012 32.046875,8.84375 L 32.046875,9.1171875 C 32.046874,9.730635 32.470001,10.210938 33.023438,10.210938 L 43.023438,10.210938 C 43.576874,10.210938 44,9.730635 44,9.1171875 L 44,8.84375 C 44,8.2303012 43.576874,7.7500025 43.023438,7.75 L 39.507812,7.75 L 36.539062,7.75 L 33.023438,7.75 z M 33.023438,11.5 C 32.47,11.5 32.046875,11.980305 32.046875,12.59375 L 32.046875,12.867188 C 32.046874,13.480635 32.470001,13.960938 33.023438,13.960938 L 43.023438,13.960938 C 43.576874,13.960936 44,13.480635 44,12.867188 L 44,12.59375 C 44,11.980305 43.576874,11.500001 43.023438,11.5 L 39.507812,11.5 L 36.539062,11.5 L 33.023438,11.5 z M 33.023438,15.25 C 32.47,15.250001 32.046875,15.730304 32.046875,16.34375 L 32.046875,16.617188 C 32.046874,17.230633 32.470001,17.75 33.023438,17.75 L 43.023438,17.75 C 43.576874,17.750001 44,17.230633 44,16.617188 L 44,16.34375 C 44,15.730303 43.576874,15.250001 43.023438,15.25 L 39.507812,15.25 L 36.539062,15.25 L 33.023438,15.25 z M 5.015625,19 C 4.4621888,18.999999 4,19.480304 4,20.09375 L 4,20.367188 C 4,20.980633 4.46219,21.5 5.015625,21.5 L 14.976562,21.5 C 15.529998,21.500001 15.953125,20.980634 15.953125,20.367188 L 15.953125,20.09375 C 15.953126,19.480303 15.529999,19.000001 14.976562,19 L 11.460938,19 L 8.53125,19 L 5.015625,19 z M 33.023438,19 C 32.47,18.999999 32.046875,19.480304 32.046875,20.09375 L 32.046875,20.367188 C 32.046874,20.980633 32.470001,21.5 33.023438,21.5 L 43.023438,21.5 C 43.576874,21.500001 44,20.980634 44,20.367188 L 44,20.09375 C 44,19.480303 43.576874,19.000001 43.023438,19 L 39.507812,19 L 36.539062,19 L 33.023438,19 z M 5.015625,22.75 C 4.4621888,22.75 4,23.230305 4,23.84375 L 4,24.117188 C 4,24.730634 4.46219,25.25 5.015625,25.25 L 14.976562,25.25 C 15.529998,25.25 15.953125,24.730634 15.953125,24.117188 L 15.953125,23.84375 C 15.953126,23.230306 15.529999,22.750002 14.976562,22.75 L 11.460938,22.75 L 8.53125,22.75 L 5.015625,22.75 z M 33.023438,22.75 C 32.47,22.75 32.046875,23.230305 32.046875,23.84375 L 32.046875,24.117188 C 32.046874,24.730634 32.470001,25.25 33.023438,25.25 L 43.023438,25.25 C 43.576874,25.25 44,24.730634 44,24.117188 L 44,23.84375 C 44,23.230306 43.576874,22.750002 43.023438,22.75 L 39.507812,22.75 L 36.539062,22.75 L 33.023438,22.75 z M 5.015625,26.5 C 4.6821437,26.5 4.42044,26.700464 4.234375,26.96875 C 5.99795,27.756635 7.922393,28.437731 10.015625,29 L 14.976562,29 C 15.529998,29.000001 15.953125,28.480633 15.953125,27.867188 L 15.953125,27.59375 C 15.953126,26.980304 15.529999,26.5 14.976562,26.5 L 11.460938,26.5 L 8.53125,26.5 L 5.015625,26.5 z M 19,26.5 C 18.446564,26.5 18.023438,26.980305 18.023438,27.59375 L 18.023438,27.867188 C 18.023436,28.480633 18.446565,29 19,29 L 29,29 C 29.553434,29.000001 29.976562,28.480633 29.976562,27.867188 L 29.976562,27.59375 C 29.976562,26.980304 29.553436,26.5 29,26.5 L 25.484375,26.5 L 22.554688,26.5 L 19,26.5 z M 33.023438,26.5 C 32.47,26.5 32.046875,26.980305 32.046875,27.59375 L 32.046875,27.867188 C 32.046874,28.480633 32.470001,29 33.023438,29 L 37.984375,29 C 40.09637,28.432691 42.028623,27.726504 43.804688,26.929688 C 43.628863,26.673187 43.348451,26.5 43.023438,26.5 L 39.507812,26.5 L 36.539062,26.5 L 33.023438,26.5 z M 19,30.25 C 18.755929,30.25 18.543267,30.369808 18.375,30.523438 C 20.196804,30.699249 22.078006,30.796875 24,30.796875 C 25.921994,30.796875 27.803196,30.699249 29.625,30.523438 C 29.456733,30.369808 29.244071,30.25 29,30.25 L 25.484375,30.25 L 22.554688,30.25 L 19,30.25 z"
       id="path2559" />
  </g>
</svg>
