<?xml version="1.0" encoding="UTF-8" standalone="no"?>
<!-- Created with Inkscape (http://www.inkscape.org/) -->

<svg
   xmlns:dc="http://purl.org/dc/elements/1.1/"
   xmlns:cc="http://creativecommons.org/ns#"
   xmlns:rdf="http://www.w3.org/1999/02/22-rdf-syntax-ns#"
   xmlns:svg="http://www.w3.org/2000/svg"
   xmlns="http://www.w3.org/2000/svg"
   xmlns:xlink="http://www.w3.org/1999/xlink"
   xmlns:sodipodi="http://sodipodi.sourceforge.net/DTD/sodipodi-0.dtd"
   xmlns:inkscape="http://www.inkscape.org/namespaces/inkscape"
   width="48px"
   height="48px"
   id="svg3118"
   version="1.1"
   inkscape:version="0.47 r22583"
   sodipodi:docname="Nouveau document 6">
  <defs
     id="defs3120">
    <linearGradient
       inkscape:collect="always"
       xlink:href="#linearGradient3172-2"
       id="linearGradient3098"
       gradientUnits="userSpaceOnUse"
       gradientTransform="matrix(0.644962,0,0,1.1832362,9.235653,4.016337)"
       x1="22.892584"
       y1="0.90414524"
       x2="22.892584"
       y2="21.132059" />
    <linearGradient
       id="linearGradient3172-2">
      <stop
         id="stop3174-4"
         offset="0"
         style="stop-color:#4d4d4d;stop-opacity:1;" />
      <stop
         id="stop3176-7"
         offset="1"
         style="stop-color:#4d4d4d;stop-opacity:0;" />
    </linearGradient>
  </defs>
  <sodipodi:namedview
     id="base"
     pagecolor="#ffffff"
     bordercolor="#666666"
     borderopacity="1.0"
     inkscape:pageopacity="0.0"
     inkscape:pageshadow="2"
     inkscape:zoom="7"
     inkscape:cx="24"
     inkscape:cy="24"
     inkscape:current-layer="layer1"
     showgrid="true"
     inkscape:grid-bbox="true"
     inkscape:document-units="px"
     inkscape:window-width="596"
     inkscape:window-height="502"
     inkscape:window-x="309"
     inkscape:window-y="216"
     inkscape:window-maximized="0" />
  <metadata
     id="metadata3123">
    <rdf:RDF>
      <cc:Work
         rdf:about="">
        <dc:format>image/svg+xml</dc:format>
        <dc:type
           rdf:resource="http://purl.org/dc/dcmitype/StillImage" />
        <dc:title></dc:title>
      </cc:Work>
    </rdf:RDF>
  </metadata>
  <g
     id="layer1"
     inkscape:label="Layer 1"
     inkscape:groupmode="layer">
    <path
       style="fill:#000000;fill-opacity:1;stroke:none"
       d="m 8.844,6.5 c -2.226283,0 -4,1.821255 -4,4.09375 l 0,26.84375 c 0,2.272489 1.773717,4.062495 4,4.0625 l 30.3125,0 c 2.226285,0 3.999995,-1.79001 4,-4.0625 l 0,-26.84375 C 43.1565,8.321255 41.382785,6.5 39.1565,6.5 L 8.844,6.5 z m 0.34375,4.4375 29.96875,0 0,4.3125 -29.96875,0 0,-4.3125 z M 24.1565,18.5 c 0.190807,0.01491 0.379292,0.04992 0.5625,0.125 0.732833,0.300312 1.2002,1.051253 1.1875,1.84375 l 0,6.125 6.125,0 c 0.695751,-0.01799 1.363091,0.338708 1.71875,0.9375 0.355664,0.598792 0.34817,1.33431 0,1.9375 -0.348163,0.603185 -0.991584,0.97805 -1.6875,0.96875 l -6.125,0 0,6.125 c 7.63e-4,1.068635 -0.86984,1.936749 -1.9375,1.9375 -1.067659,7.63e-4 -1.9055,-0.868865 -1.90625,-1.9375 l -0.03125,-6.125 -6.09375,0 c -0.786064,0.01347 -1.507946,-0.430796 -1.8125,-1.15625 -0.304555,-0.725455 -0.153498,-1.572446 0.40625,-2.125 0.372488,-0.367799 0.883198,-0.57645 1.40625,-0.5625 l 6.125,0 0,-6.125 c -0.01462,-0.50286 0.159161,-1.005266 0.5,-1.375 0.409655,-0.4304 0.99008,-0.63849 1.5625,-0.59375 z"
       id="path2824" />
    <path
       style="fill:url(#linearGradient3098);fill-opacity:1;stroke:none"
       d="M 14.0005,28.5 C 10.368531,27.619638 7.227343,26.258147 4.84425,24.59375 l 0,-14 c 0,-2.272495 1.773716,-4.09375 4,-4.09375 l 30.3125,0 c 2.226285,0 4,1.821255 4,4.09375 l 0,14 c -2.383093,1.664397 -5.524281,3.025888 -9.15625,3.90625 9.37e-4,-0.334127 -0.07217,-0.669354 -0.25,-0.96875 -0.355659,-0.598792 -1.022999,-0.95549 -1.71875,-0.9375 l -6.125,0 0,-6.125 c 0.0127,-0.792497 -0.454667,-1.543438 -1.1875,-1.84375 -0.183208,-0.07508 -0.371693,-0.11009 -0.5625,-0.125 -0.57242,-0.04474 -1.152845,0.16335 -1.5625,0.59375 -0.340839,0.369734 -0.51462,0.87214 -0.5,1.375 l 0,6.125 -6.125,0 C 15.446198,26.5798 14.935488,26.788451 14.563,27.15625 14.197441,27.51711 14.004368,28.003846 14.0005,28.5 z M 9.188,15.25 l 29.96875,0 0,-4.3125 -29.96875,0 0,4.3125 z"
       id="path3084" />
  </g>
</svg>
