<?xml version="1.0" encoding="UTF-8" standalone="no"?>
<!-- Created with Inkscape (http://www.inkscape.org/) -->
<svg
   xmlns:dc="http://purl.org/dc/elements/1.1/"
   xmlns:cc="http://creativecommons.org/ns#"
   xmlns:rdf="http://www.w3.org/1999/02/22-rdf-syntax-ns#"
   xmlns:svg="http://www.w3.org/2000/svg"
   xmlns="http://www.w3.org/2000/svg"
   xmlns:xlink="http://www.w3.org/1999/xlink"
   xmlns:sodipodi="http://sodipodi.sourceforge.net/DTD/sodipodi-0.dtd"
   xmlns:inkscape="http://www.inkscape.org/namespaces/inkscape"
   width="48px"
   height="48px"
   id="svg4289"
   sodipodi:version="0.32"
   inkscape:version="0.46"
   sodipodi:docbase="/home/lapo/Icone/cvs/gnome-icon-theme/scalable/categories"
   sodipodi:docname="application-exit.svg"
   inkscape:output_extension="org.inkscape.output.svg.inkscape">
  <defs
     id="defs4291">
    <linearGradient
       id="linearGradient3155"
       inkscape:collect="always">
      <stop
         id="stop3157"
         offset="0"
         style="stop-color:#4d4d4d;stop-opacity:1;" />
      <stop
         id="stop3159"
         offset="1"
         style="stop-color:#4d4d4d;stop-opacity:0;" />
    </linearGradient>
    <linearGradient
       inkscape:collect="always"
       xlink:href="#linearGradient3155"
       id="linearGradient2486"
       gradientUnits="userSpaceOnUse"
       gradientTransform="matrix(0.1628679,0,0,0.1620058,-29.057567,-58.176776)"
       x1="325.71429"
       y1="369.50507"
       x2="325.71429"
       y2="546.64789" />
  </defs>
  <sodipodi:namedview
     id="base"
     pagecolor="#ffffff"
     bordercolor="#666"
     borderopacity="0.31372549"
     inkscape:pageopacity="0.0"
     inkscape:pageshadow="2"
     inkscape:zoom="5.656854"
     inkscape:cx="37.533214"
     inkscape:cy="12.243402"
     inkscape:current-layer="layer1"
     showgrid="true"
     inkscape:grid-bbox="true"
     inkscape:document-units="px"
     inkscape:window-width="1019"
     inkscape:window-height="732"
     inkscape:window-x="259"
     inkscape:window-y="19"
     inkscape:showpageshadow="false" />
  <metadata
     id="metadata4294">
    <rdf:RDF>
      <cc:Work
         rdf:about="">
        <dc:format>image/svg+xml</dc:format>
        <dc:type
           rdf:resource="http://purl.org/dc/dcmitype/StillImage" />
        <dc:title>System Preferences</dc:title>
        <dc:creator>
          <cc:Agent>
            <dc:title>Andreas Nilsson</dc:title>
          </cc:Agent>
        </dc:creator>
        <dc:subject>
          <rdf:Bag>
            <rdf:li>category</rdf:li>
            <rdf:li>system</rdf:li>
            <rdf:li>preferences</rdf:li>
            <rdf:li>settings</rdf:li>
            <rdf:li>control center</rdf:li>
          </rdf:Bag>
        </dc:subject>
        <dc:contributor>
          <cc:Agent>
            <dc:title>Jakub Steiner</dc:title>
          </cc:Agent>
        </dc:contributor>
        <cc:license
           rdf:resource="http://creativecommons.org/licenses/GPL/2.0/" />
      </cc:Work>
      <cc:License
         rdf:about="http://creativecommons.org/licenses/GPL/2.0/">
        <cc:permits
           rdf:resource="http://web.resource.org/cc/Reproduction" />
        <cc:permits
           rdf:resource="http://web.resource.org/cc/Distribution" />
        <cc:requires
           rdf:resource="http://web.resource.org/cc/Notice" />
        <cc:permits
           rdf:resource="http://web.resource.org/cc/DerivativeWorks" />
        <cc:requires
           rdf:resource="http://web.resource.org/cc/ShareAlike" />
        <cc:requires
           rdf:resource="http://web.resource.org/cc/SourceCode" />
      </cc:License>
    </rdf:RDF>
  </metadata>
  <g
     id="layer1"
     inkscape:label="Layer 1"
     inkscape:groupmode="layer">
    <g
       id="g2453"
       inkscape:label="Calque 1"
       transform="matrix(0.1337942,0,0,0.1337942,-18.472238,-41.04701)" />
    <g
       id="g2454"
       transform="matrix(1.1435969,0,0,1.1111111,-4.0423722,-1.5555551)">
      <g
         style="display:inline"
         id="g2456"
         inkscape:label="shadow">
        <g
           style="opacity:0.33000004"
           transform="matrix(0.6759778,0,0,0.8422279,-72.059226,25.879981)"
           id="g6227" />
      </g>
      <g
         inkscape:label="omino"
         id="layer2">
        <path
           sodipodi:nodetypes="csssccccscccccccccccccccccccccccccccccccccsscccccccccscc"
           id="path5955"
           d="M 32.5,5 C 30.021469,5 28,7.0214686 28,9.5 C 28,11.978531 30.021469,14 32.5,14 C 34.978531,14 37,11.978531 37,9.5 C 37,7.0214686 34.978531,5 32.5,5 z M 19.25,11 C 18.573694,11.06585 17.952767,11.404538 17.53125,11.9375 L 13.5625,16.9375 C 12.703339,18.011451 12.863549,19.578339 13.9375,20.4375 C 15.011451,21.296661 16.578339,21.136451 17.4375,20.0625 L 20.6875,16 L 23.21875,16 L 17.4375,23 L 17.40625,23 L 17.40625,23.03125 C 17.093424,23.477594 16.992049,23.991864 17,24.5 L 17,31 L 9.5,31 L 9,31 L 9,31.5 L 9,35.5 L 9,36 L 9.5,36 L 19.5,36 C 20.874709,35.999863 21.999863,34.874709 22,33.5 L 22,28.5 L 26,32.5 L 26,40.5 L 26,41 L 26.5,41 L 30.5,41 L 31,41 L 31,40.5 L 31,31.5 L 31,30.65625 L 31,30.4375 L 30.84375,30.28125 L 30.25,29.71875 L 25.8125,25.3125 L 28.03125,22.59375 C 28.087496,23.919761 29.160844,24.999867 30.5,25 L 37.5,25 C 38.40451,25.012793 39.235547,24.524353 39.6875,23.75 C 40.139647,22.975317 40.139647,22.024684 39.6875,21.25 C 39.235547,20.475646 38.40451,19.987207 37.5,20 L 33,20 L 33,16 L 33,15.5 L 32.5,15.5 C 29.827205,15.5 27.559647,13.751992 26.78125,11.34375 L 26.6875,11 L 26.3125,11 L 19.53125,11 C 19.52149,10.999542 19.509764,11.000343 19.5,11 C 19.431655,10.997596 19.34957,10.996794 19.28125,11 L 19.25,11 z"
           style="opacity:1;fill:#000000;fill-opacity:1;fill-rule:evenodd;stroke:none;stroke-opacity:1;display:inline" />
      </g>
    </g>
    <path
       style="fill:url(#linearGradient2486);fill-opacity:1"
       d="M 33.120038,3.9999983 C 30.285602,3.9999985 27.982549,6.2460751 27.982549,8.9999983 C 27.982545,11.753922 30.285597,13.999998 33.120038,13.999998 C 35.954483,13.999998 38.257526,11.753922 38.257526,8.9999983 C 38.257529,6.2460751 35.954477,3.9999983 33.120038,3.9999983 z M 17.966294,10.65441 C 17.192869,10.727577 16.489442,11.128407 16.007396,11.720587 L 11.461273,17.272057 C 10.478741,18.465336 10.676631,20.214492 11.904798,21.169116 C 13.132963,22.123738 14.913981,21.921218 15.896515,20.727939 L 19.62951,16.20588 L 22.512417,16.20588 L 15.896515,23.999998 L 15.859555,23.999998 L 15.859555,24.036763 C 15.501806,24.532702 15.406938,25.089814 15.416031,25.65441 L 15.416031,29.698527 C 17.239604,29.99117 19.145841,30.2227 21.107924,30.323527 L 21.107924,30.102939 L 21.329687,30.323527 C 22.212178,30.365377 23.086811,30.397057 23.990831,30.397057 C 25.771469,30.397057 27.512184,30.298499 29.202241,30.139704 L 25.469246,26.573527 L 28.019509,23.558822 C 28.083833,25.032167 29.297042,26.205732 30.828496,26.20588 L 38.848892,26.20588 C 39.883286,26.220096 40.845343,25.705978 41.362195,24.845586 C 41.879267,23.984827 41.879269,22.912229 41.362195,22.051469 C 40.845341,21.191076 39.883287,20.640194 38.848892,20.65441 L 33.711403,20.65441 L 33.711403,16.20588 L 33.711403,15.65441 L 33.120038,15.65441 C 30.063441,15.65441 27.468228,13.734645 26.578056,11.058822 L 26.467175,10.65441 L 26.060611,10.65441 L 18.298938,10.65441 C 18.287774,10.653901 18.273143,10.654791 18.261977,10.65441 C 18.18382,10.65174 18.081384,10.650848 18.003255,10.65441 L 17.966294,10.65441 z"
       id="path2463" />
    <g
       style="display:inline"
       id="g2467"
       inkscape:label="shadow"
       transform="matrix(0.966912,0,0,0.9444444,50.297791,2.2777796)">
      <g
         style="opacity:0.33000004"
         transform="matrix(0.6759778,0,0,0.8422279,-72.059226,25.879981)"
         id="g2469" />
    </g>
  </g>
</svg>
